<?xml version="1.0" encoding="UTF-8" standalone="no"?>
<!-- Created with Inkscape (http://www.inkscape.org/) -->

<svg
   width="240"
   height="240"
   viewBox="0 0 240 240"
   version="1.1"
   id="svg5"
   inkscape:version="1.1.1 (3bf5ae0d25, 2021-09-20)"
   sodipodi:docname="Patter_file49.svg"
   xmlns:inkscape="http://www.inkscape.org/namespaces/inkscape"
   xmlns:sodipodi="http://sodipodi.sourceforge.net/DTD/sodipodi-0.dtd"
   xmlns="http://www.w3.org/2000/svg"
   xmlns:svg="http://www.w3.org/2000/svg">
  <sodipodi:namedview
     id="namedview7"
     pagecolor="#ededed"
     bordercolor="#666666"
     borderopacity="1.0"
     inkscape:pageshadow="2"
     inkscape:pageopacity="0"
     inkscape:pagecheckerboard="0"
     inkscape:document-units="px"
     showgrid="true"
     units="px"
     scale-x="1"
     inkscape:showpageshadow="false"
     inkscape:snap-page="true"
     inkscape:snap-nodes="false"
     inkscape:snap-grids="true"
     inkscape:snap-bbox="true"
     inkscape:bbox-paths="false"
     inkscape:bbox-nodes="true"
     showguides="true"
     inkscape:guide-bbox="true"
     inkscape:object-nodes="true"
     inkscape:snap-intersection-paths="false"
     inkscape:snap-smooth-nodes="false"
     inkscape:snap-midpoints="false"
     inkscape:lockguides="false"
     inkscape:zoom="3.3416667"
     inkscape:cx="119.85037"
     inkscape:cy="120.14962"
     inkscape:window-width="1920"
     inkscape:window-height="1047"
     inkscape:window-x="0"
     inkscape:window-y="0"
     inkscape:window-maximized="1"
     inkscape:current-layer="layer2"
     inkscape:snap-center="true"
     inkscape:snap-to-guides="true"
     inkscape:snap-others="false">
    <inkscape:grid
       type="xygrid"
       id="grid823"
       spacingx="6"
       spacingy="6"
       empspacing="4" />
    <sodipodi:guide
       position="132,108"
       orientation="0,1"
       id="guide1347"
       inkscape:label=""
       inkscape:locked="false"
       inkscape:color="rgb(0,0,255)" />
    <sodipodi:guide
       position="108,132"
       orientation="-1,0"
       id="guide1349"
       inkscape:label=""
       inkscape:locked="false"
       inkscape:color="rgb(0,0,255)" />
    <sodipodi:guide
       position="132,132"
       orientation="1,0"
       id="guide1589" />
    <sodipodi:guide
       position="108,132"
       orientation="0,-1"
       id="guide1591" />
  </sodipodi:namedview>
  <defs
     id="defs2" />
  <g
     inkscape:label="Layer_I"
     inkscape:groupmode="layer"
     id="layer1"
     sodipodi:insensitive="true">
    <rect
       style="fill:#ff9955;fill-opacity:0;stroke:none;stroke-width:10"
       id="rect846"
       width="3840"
       height="2160"
       x="0"
       y="0"
       rx="0"
       ry="0"
       sodipodi:insensitive="true"
       inkscape:label="Background" />
  </g>
  <g
     inkscape:groupmode="layer"
     id="layer2"
     inkscape:label="Layer_II">
    <g
       id="g866"
       style="display:inline">
      <g
         id="g7045"
         transform="translate(-121.27558,-26.78487)"
         style="display:inline">
        <path
           style="fill:#ff6600;stroke:#000080;stroke-width:1px;stroke-linecap:butt;stroke-linejoin:miter;stroke-opacity:1"
           d="m 259.27558,146.78487 c 0,0 -0.58027,-15.53417 5.03033,-18.77346 5.61062,-3.23929 13.16284,8.26961 18.77346,5.03033 5.61062,-3.23929 -0.58027,-15.53419 5.03035,-18.77347 5.61061,-3.23929 13.16285,8.26961 18.77345,5.03033 5.61063,-3.23929 -0.58027,-15.53418 5.03036,-18.77347 5.6106,-3.239282 13.16285,1.79105 18.77346,5.03033 5.6106,3.23929 13.74313,7.26456 13.74314,13.74314 0,6.47858 -13.74314,7.26456 -13.74315,13.74313 10e-6,6.47857 13.74315,7.26457 13.74314,13.74314 1e-5,6.47857 -13.74313,7.26457 -13.74313,13.74313 0,6.47859 13.74313,7.26457 13.74313,13.74315 1e-5,6.47857 -8.13252,10.50385 -13.74313,13.74314 -5.61062,3.23929 -13.16285,8.26962 -18.77346,5.03032 -5.61062,-3.23928 0.58027,-15.53418 -5.03035,-18.77346 -5.61061,-3.2393 -13.16286,8.26963 -18.77347,5.03033 -5.6106,-3.23929 0.58027,-15.53418 -5.03033,-18.77347 -5.61062,-3.23928 -13.16285,8.26961 -18.77346,5.03032 -5.61062,-3.23928 -5.03034,-18.77346 -5.03034,-18.77346"
           id="path6513"
           sodipodi:nodetypes="caaaaaaaaaaaaaaaaac" />
        <path
           style="fill:#6c5353;stroke:#ffff00;stroke-width:1px;stroke-linecap:butt;stroke-linejoin:miter;stroke-opacity:1"
           d="m 282.49018,151.17719 c 4.89897,-2.82842 -0.40028,-13.38711 4.39231,-16.3923 6.60736,-4.14315 17.31473,9.75134 22.98075,4.39229 4.00521,-3.78821 -6.33683,-12.75265 -2.19614,-16.39229 4.24878,-3.73466 11.4933,7.22071 16.39228,4.39229 4.89898,-2.82842 9.29129,-13.56387 4.39232,-16.3923 -4.89898,-2.82842 -12,6.34315 -11.99999,12.00001 -10e-6,5.65684 11.92452,6.34363 11.99998,11.99997 0.12012,9.00532 -21.16395,10.97769 -18.58845,19.60771 1.82072,6.10089 16.84927,-1.73232 18.58844,4.3923 1.54525,5.44171 -11.99999,6.34316 -11.99999,12.00001 0,5.65685 7.10102,14.82841 12,11.99998 4.89898,-2.82843 0.50668,-13.56386 -4.39229,-16.39229 -4.89899,-2.82843 -11.27414,6.80152 -16.39231,4.39229 -7.95982,-3.74683 -2.2551,-22.87733 -10.98076,-23.99999 -5.12299,-0.65912 -4.75386,13.08485 -9.80386,11.99999 -5.53067,-1.18812 0.50667,-13.56386 -4.3923,-16.39228 -4.89898,-2.82842 -16.39231,-1.26455 -16.3923,4.3923 -10e-6,5.65686 11.49332,7.22074 16.39231,4.39231 z"
           id="path1593"
           sodipodi:nodetypes="aaaaaaaaaaaaaaaaaaa" />
      </g>
      <g
         id="g7057"
         transform="rotate(90,194.03023,72.754647)"
         inkscape:transform-center-x="-2.5036209e-06"
         inkscape:transform-center-y="42.568749">
        <path
           style="fill:#ff6600;stroke:#000080;stroke-width:1px;stroke-linecap:butt;stroke-linejoin:miter;stroke-opacity:1"
           d="m 259.27558,146.78487 c 0,0 -0.58027,-15.53417 5.03033,-18.77346 5.61062,-3.23929 13.16284,8.26961 18.77346,5.03033 5.61062,-3.23929 -0.58027,-15.53419 5.03035,-18.77347 5.61061,-3.23929 13.16285,8.26961 18.77345,5.03033 5.61063,-3.23929 -0.58027,-15.53418 5.03036,-18.77347 5.6106,-3.239282 13.16285,1.79105 18.77346,5.03033 5.6106,3.23929 13.74313,7.26456 13.74314,13.74314 0,6.47858 -13.74314,7.26456 -13.74315,13.74313 10e-6,6.47857 13.74315,7.26457 13.74314,13.74314 1e-5,6.47857 -13.74313,7.26457 -13.74313,13.74313 0,6.47859 13.74313,7.26457 13.74313,13.74315 1e-5,6.47857 -8.13252,10.50385 -13.74313,13.74314 -5.61062,3.23929 -13.16285,8.26962 -18.77346,5.03032 -5.61062,-3.23928 0.58027,-15.53418 -5.03035,-18.77346 -5.61061,-3.2393 -13.16286,8.26963 -18.77347,5.03033 -5.6106,-3.23929 0.58027,-15.53418 -5.03033,-18.77347 -5.61062,-3.23928 -13.16285,8.26961 -18.77346,5.03032 -5.61062,-3.23928 -5.03034,-18.77346 -5.03034,-18.77346"
           id="path7053"
           sodipodi:nodetypes="caaaaaaaaaaaaaaaaac" />
        <path
           style="fill:#6c5353;stroke:#ffff00;stroke-width:1px;stroke-linecap:butt;stroke-linejoin:miter;stroke-opacity:1"
           d="m 282.49018,151.17719 c 4.89897,-2.82842 -0.40028,-13.38711 4.39231,-16.3923 6.60736,-4.14315 17.31473,9.75134 22.98075,4.39229 4.00521,-3.78821 -6.33683,-12.75265 -2.19614,-16.39229 4.24878,-3.73466 11.4933,7.22071 16.39228,4.39229 4.89898,-2.82842 9.29129,-13.56387 4.39232,-16.3923 -4.89898,-2.82842 -12,6.34315 -11.99999,12.00001 -10e-6,5.65684 11.92452,6.34363 11.99998,11.99997 0.12012,9.00532 -21.16395,10.97769 -18.58845,19.60771 1.82072,6.10089 16.84927,-1.73232 18.58844,4.3923 1.54525,5.44171 -11.99999,6.34316 -11.99999,12.00001 0,5.65685 7.10102,14.82841 12,11.99998 4.89898,-2.82843 0.50668,-13.56386 -4.39229,-16.39229 -4.89899,-2.82843 -11.27414,6.80152 -16.39231,4.39229 -7.95982,-3.74683 -2.2551,-22.87733 -10.98076,-23.99999 -5.12299,-0.65912 -4.75386,13.08485 -9.80386,11.99999 -5.53067,-1.18812 0.50667,-13.56386 -4.3923,-16.39228 -4.89898,-2.82842 -16.39231,-1.26455 -16.3923,4.3923 -10e-6,5.65686 11.49332,7.22074 16.39231,4.39231 z"
           id="path7055"
           sodipodi:nodetypes="aaaaaaaaaaaaaaaaaaa" />
      </g>
      <g
         id="g7063"
         transform="rotate(180,180.63779,133.39243)"
         inkscape:transform-center-x="42.568751"
         inkscape:transform-center-y="5.5036209e-06">
        <path
           style="fill:#ff6600;stroke:#000080;stroke-width:1px;stroke-linecap:butt;stroke-linejoin:miter;stroke-opacity:1"
           d="m 259.27558,146.78487 c 0,0 -0.58027,-15.53417 5.03033,-18.77346 5.61062,-3.23929 13.16284,8.26961 18.77346,5.03033 5.61062,-3.23929 -0.58027,-15.53419 5.03035,-18.77347 5.61061,-3.23929 13.16285,8.26961 18.77345,5.03033 5.61063,-3.23929 -0.58027,-15.53418 5.03036,-18.77347 5.6106,-3.239282 13.16285,1.79105 18.77346,5.03033 5.6106,3.23929 13.74313,7.26456 13.74314,13.74314 0,6.47858 -13.74314,7.26456 -13.74315,13.74313 10e-6,6.47857 13.74315,7.26457 13.74314,13.74314 1e-5,6.47857 -13.74313,7.26457 -13.74313,13.74313 0,6.47859 13.74313,7.26457 13.74313,13.74315 1e-5,6.47857 -8.13252,10.50385 -13.74313,13.74314 -5.61062,3.23929 -13.16285,8.26962 -18.77346,5.03032 -5.61062,-3.23928 0.58027,-15.53418 -5.03035,-18.77346 -5.61061,-3.2393 -13.16286,8.26963 -18.77347,5.03033 -5.6106,-3.23929 0.58027,-15.53418 -5.03033,-18.77347 -5.61062,-3.23928 -13.16285,8.26961 -18.77346,5.03032 -5.61062,-3.23928 -5.03034,-18.77346 -5.03034,-18.77346"
           id="path7059"
           sodipodi:nodetypes="caaaaaaaaaaaaaaaaac" />
        <path
           style="fill:#6c5353;stroke:#ffff00;stroke-width:1px;stroke-linecap:butt;stroke-linejoin:miter;stroke-opacity:1"
           d="m 282.49018,151.17719 c 4.89897,-2.82842 -0.40028,-13.38711 4.39231,-16.3923 6.60736,-4.14315 17.31473,9.75134 22.98075,4.39229 4.00521,-3.78821 -6.33683,-12.75265 -2.19614,-16.39229 4.24878,-3.73466 11.4933,7.22071 16.39228,4.39229 4.89898,-2.82842 9.29129,-13.56387 4.39232,-16.3923 -4.89898,-2.82842 -12,6.34315 -11.99999,12.00001 -10e-6,5.65684 11.92452,6.34363 11.99998,11.99997 0.12012,9.00532 -21.16395,10.97769 -18.58845,19.60771 1.82072,6.10089 16.84927,-1.73232 18.58844,4.3923 1.54525,5.44171 -11.99999,6.34316 -11.99999,12.00001 0,5.65685 7.10102,14.82841 12,11.99998 4.89898,-2.82843 0.50668,-13.56386 -4.39229,-16.39229 -4.89899,-2.82843 -11.27414,6.80152 -16.39231,4.39229 -7.95982,-3.74683 -2.2551,-22.87733 -10.98076,-23.99999 -5.12299,-0.65912 -4.75386,13.08485 -9.80386,11.99999 -5.53067,-1.18812 0.50667,-13.56386 -4.3923,-16.39228 -4.89898,-2.82842 -16.39231,-1.26455 -16.3923,4.3923 -10e-6,5.65686 11.49332,7.22074 16.39231,4.39231 z"
           id="path7061"
           sodipodi:nodetypes="aaaaaaaaaaaaaaaaaaa" />
      </g>
      <g
         id="g7069"
         transform="rotate(-90,167.24535,194.03022)"
         inkscape:transform-center-x="4.5036209e-06"
         inkscape:transform-center-y="-42.568751">
        <path
           style="fill:#ff6600;stroke:#000080;stroke-width:1px;stroke-linecap:butt;stroke-linejoin:miter;stroke-opacity:1"
           d="m 259.27558,146.78487 c 0,0 -0.58027,-15.53417 5.03033,-18.77346 5.61062,-3.23929 13.16284,8.26961 18.77346,5.03033 5.61062,-3.23929 -0.58027,-15.53419 5.03035,-18.77347 5.61061,-3.23929 13.16285,8.26961 18.77345,5.03033 5.61063,-3.23929 -0.58027,-15.53418 5.03036,-18.77347 5.6106,-3.239282 13.16285,1.79105 18.77346,5.03033 5.6106,3.23929 13.74313,7.26456 13.74314,13.74314 0,6.47858 -13.74314,7.26456 -13.74315,13.74313 10e-6,6.47857 13.74315,7.26457 13.74314,13.74314 1e-5,6.47857 -13.74313,7.26457 -13.74313,13.74313 0,6.47859 13.74313,7.26457 13.74313,13.74315 1e-5,6.47857 -8.13252,10.50385 -13.74313,13.74314 -5.61062,3.23929 -13.16285,8.26962 -18.77346,5.03032 -5.61062,-3.23928 0.58027,-15.53418 -5.03035,-18.77346 -5.61061,-3.2393 -13.16286,8.26963 -18.77347,5.03033 -5.6106,-3.23929 0.58027,-15.53418 -5.03033,-18.77347 -5.61062,-3.23928 -13.16285,8.26961 -18.77346,5.03032 -5.61062,-3.23928 -5.03034,-18.77346 -5.03034,-18.77346"
           id="path7065"
           sodipodi:nodetypes="caaaaaaaaaaaaaaaaac" />
        <path
           style="fill:#6c5353;stroke:#ffff00;stroke-width:1px;stroke-linecap:butt;stroke-linejoin:miter;stroke-opacity:1"
           d="m 282.49018,151.17719 c 4.89897,-2.82842 -0.40028,-13.38711 4.39231,-16.3923 6.60736,-4.14315 17.31473,9.75134 22.98075,4.39229 4.00521,-3.78821 -6.33683,-12.75265 -2.19614,-16.39229 4.24878,-3.73466 11.4933,7.22071 16.39228,4.39229 4.89898,-2.82842 9.29129,-13.56387 4.39232,-16.3923 -4.89898,-2.82842 -12,6.34315 -11.99999,12.00001 -10e-6,5.65684 11.92452,6.34363 11.99998,11.99997 0.12012,9.00532 -21.16395,10.97769 -18.58845,19.60771 1.82072,6.10089 16.84927,-1.73232 18.58844,4.3923 1.54525,5.44171 -11.99999,6.34316 -11.99999,12.00001 0,5.65685 7.10102,14.82841 12,11.99998 4.89898,-2.82843 0.50668,-13.56386 -4.39229,-16.39229 -4.89899,-2.82843 -11.27414,6.80152 -16.39231,4.39229 -7.95982,-3.74683 -2.2551,-22.87733 -10.98076,-23.99999 -5.12299,-0.65912 -4.75386,13.08485 -9.80386,11.99999 -5.53067,-1.18812 0.50667,-13.56386 -4.3923,-16.39228 -4.89898,-2.82842 -16.39231,-1.26455 -16.3923,4.3923 -10e-6,5.65686 11.49332,7.22074 16.39231,4.39231 z"
           id="path7067"
           sodipodi:nodetypes="aaaaaaaaaaaaaaaaaaa" />
      </g>
      <path
         style="fill:#6c5353;stroke:#00ff00;stroke-width:1px;stroke-linecap:butt;stroke-linejoin:miter;stroke-opacity:1"
         d="m 205.20244,177.47299 c 1.4641,5.46409 13.03456,3.07819 14.69693,8.48528 2.29187,7.45455 -13.90045,14.20091 -10.19048,21.0609 2.6225,4.84919 13.95821,-2.82028 16.40214,2.12132 2.50774,5.07061 -9.94936,9.23282 -8.48526,14.69691 1.4641,5.46411 10.69693,12.48529 14.69694,8.48531 3.99998,-4.00001 -3.02119,-13.23284 -8.4853,-14.69694 -5.46408,-1.4641 -9.21377,9.87636 -14.69691,8.48528 -8.72956,-2.21473 -5.12599,-23.28405 -14.12855,-23.02992 -6.36424,0.17966 -2.68761,16.7235 -9.05367,16.81824 -5.65623,0.0842 -3.0212,-13.23282 -8.4853,-14.69693 -5.4641,-1.4641 -16.16102,3.02118 -14.69692,8.48529 1.46411,5.4641 12.97055,3.99999 16.97054,1e-5 4.00001,-4.00001 -3.65179,-12.65034 2e-5,-16.97056 5.67931,-6.71885 22.68147,3.74283 26.02425,-4.39495 1.96259,-4.77784 -11.40862,-7.97849 -9.05368,-12.57562 2.57908,-5.03471 12.97055,3.99999 16.97054,-1e-5 3.99999,-4 5.4641,-15.50647 0,-16.97056 -5.4641,-1.46411 -9.94939,9.23283 -8.48529,14.69695 z"
         id="path7300"
         sodipodi:nodetypes="aaaaaaaaaaaaaaaaaaa" />
      <path
         style="fill:#6c5353;stroke:#00ff00;stroke-width:1px;stroke-linecap:butt;stroke-linejoin:miter;stroke-opacity:1"
         d="m 62.669367,205.20243 c -5.46409,1.4641 -3.07819,13.03456 -8.48528,14.69693 -7.45455,2.29187 -14.20091,-13.90045 -21.0609,-10.19048 -4.84919,2.6225 2.82028,13.95821 -2.12132,16.40214 -5.07061,2.50774 -9.23282,-9.94936 -14.69691,-8.48526 -5.46411,1.4641 -12.4852902,10.69693 -8.4853102,14.69694 4.0000102,3.99998 13.2328402,-3.02119 14.6969402,-8.4853 1.4641,-5.46408 -9.87636,-9.21377 -8.48528,-14.69691 2.21473,-8.72956 23.28405,-5.12599 23.02992,-14.12855 -0.17966,-6.36424 -16.7235,-2.68761 -16.81824,-9.05367 -0.0842,-5.65623 13.23282,-3.0212 14.69693,-8.4853 1.4641,-5.4641 -3.02118,-16.16102 -8.48529,-14.69692 -5.4641,1.46411 -3.99999,12.97055 -10e-6,16.97054 4.00001,4.00001 12.65034,-3.65179 16.97056,2e-5 6.71885,5.67931 -3.74283,22.68147 4.39495,26.02425 4.77784,1.96259 7.97849,-11.40862 12.57562,-9.05368 5.03471,2.57908 -3.99999,12.97055 1e-5,16.97054 4,3.99999 15.50647,5.4641 16.97056,0 1.46411,-5.4641 -9.23283,-9.94939 -14.69695,-8.48529 z"
         id="path7303"
         sodipodi:nodetypes="aaaaaaaaaaaaaaaaaaa" />
      <path
         style="fill:#6c5353;stroke:#00ff00;stroke-width:1px;stroke-linecap:butt;stroke-linejoin:miter;stroke-opacity:1"
         d="m 60.25337,26.312254 c -3.999991,3.999992 3.851489,12.827355 -3e-6,16.970554 -5.309895,5.712093 -19.248574,-4.937688 -23.334514,1.705236 -2.888272,4.695746 9.421539,10.678024 6.363953,15.26533 -3.137407,4.707071 -12.970537,-3.999989 -16.970528,4e-6 -4.000008,4.000003 -5.464113,15.506458 -2.4e-5,16.970579 5.464101,1.464079 9.949381,-9.232848 8.485274,-14.696956 C 33.333435,57.062919 21.637464,59.485822 20.100605,54.041744 17.653837,45.374358 37.702188,37.960481 32.980825,30.2911 29.643115,24.869337 17.154045,36.325312 13.888967,30.859512 10.987933,26.003173 23.838326,21.626666 22.374232,16.162562 20.91013,10.698462 11.677303,3.6772984 7.6772953,7.6773004 3.6773011,11.677307 10.698477,20.910122 16.162557,22.374224 c 5.464115,1.464106 9.12962,-9.487712 14.696946,-8.485262 8.65835,1.559002 8.099349,21.514144 16.818263,20.340186 5.119026,-0.689267 1.205265,-13.869399 6.363966,-14.128526 5.649727,-0.283807 3.021183,13.23282 8.485279,14.696913 5.464097,1.464093 16.161047,-3.021185 14.696936,-8.48528 -1.464093,-5.464104 -12.97056,-4.000009 -16.970577,-1e-6 z"
         id="path7305"
         sodipodi:nodetypes="aaaaaaaaaaaaaaaaaaa" />
      <path
         style="fill:#6c5353;stroke:#00ff00;stroke-width:1px;stroke-linecap:butt;stroke-linejoin:miter;stroke-opacity:1"
         d="m 213.68775,60.253368 c -3.99999,-3.99999 -12.82735,3.85149 -16.97055,0 -5.7121,-5.3099 4.93769,-19.24858 -1.70524,-23.33452 -4.69574,-2.88827 -10.67802,9.42154 -15.26533,6.36396 -4.70707,-3.13741 3.99999,-12.97054 0,-16.97053 -4.00001,-4.00001 -15.50646,-5.46412 -16.97058,-3e-5 -1.46408,5.4641 9.23285,9.94938 14.69695,8.48528 5.46409,-1.4641 3.04118,-13.16007 8.48526,-14.69693 8.66739,-2.44676 16.08126,17.60159 23.75065,12.88022 5.42176,-3.33771 -6.03422,-15.82678 -0.56842,-19.09185 4.85634,-2.90104 9.23285,9.94936 14.69695,8.48526 5.4641,-1.4641 12.48527,-10.69693 8.48526,-14.6969302 -4,-4 -13.23282,3.0211802 -14.69692,8.4852602 -1.4641,5.46411 9.48771,9.12962 8.48526,14.69694 -1.559,8.65835 -21.51414,8.09935 -20.34018,16.81827 0.68926,5.11902 13.8694,1.20526 14.12852,6.36396 0.28381,5.64973 -13.23282,3.02118 -14.69691,8.48528 -1.46409,5.4641 3.02119,16.16105 8.48528,14.69694 5.4641,-1.4641 4.00001,-12.97056 0,-16.97058 z"
         id="path7307"
         sodipodi:nodetypes="aaaaaaaaaaaaaaaaaaa" />
    </g>
  </g>
</svg>
