<?xml version="1.0" encoding="UTF-8" standalone="no"?>
<!-- Created with Inkscape (http://www.inkscape.org/) -->

<svg
   width="240"
   height="240"
   viewBox="0 0 240 240"
   version="1.1"
   id="svg5"
   inkscape:version="1.1.1 (3bf5ae0d25, 2021-09-20)"
   sodipodi:docname="Patter_file85.svg"
   xmlns:inkscape="http://www.inkscape.org/namespaces/inkscape"
   xmlns:sodipodi="http://sodipodi.sourceforge.net/DTD/sodipodi-0.dtd"
   xmlns:xlink="http://www.w3.org/1999/xlink"
   xmlns="http://www.w3.org/2000/svg"
   xmlns:svg="http://www.w3.org/2000/svg">
  <sodipodi:namedview
     id="namedview7"
     pagecolor="#ededed"
     bordercolor="#666666"
     borderopacity="1.0"
     inkscape:pageshadow="2"
     inkscape:pageopacity="0"
     inkscape:pagecheckerboard="0"
     inkscape:document-units="px"
     showgrid="false"
     units="px"
     scale-x="1"
     inkscape:showpageshadow="false"
     inkscape:snap-page="true"
     inkscape:snap-nodes="false"
     inkscape:snap-bbox="true"
     inkscape:bbox-paths="true"
     inkscape:bbox-nodes="true"
     inkscape:snap-bbox-midpoints="false"
     inkscape:zoom="3.5458333"
     inkscape:cx="238.73091"
     inkscape:cy="120"
     inkscape:window-width="1920"
     inkscape:window-height="1047"
     inkscape:window-x="0"
     inkscape:window-y="0"
     inkscape:window-maximized="1"
     inkscape:current-layer="layer2"
     inkscape:snap-intersection-paths="true"
     inkscape:snap-smooth-nodes="true"
     inkscape:snap-midpoints="true" />
  <defs
     id="defs2">
    <linearGradient
       inkscape:collect="always"
       id="linearGradient2205">
      <stop
         style="stop-color:#ffffff;stop-opacity:1"
         offset="0"
         id="stop2201" />
      <stop
         style="stop-color:#240024;stop-opacity:1"
         offset="1"
         id="stop2203" />
    </linearGradient>
    <linearGradient
       inkscape:collect="always"
       xlink:href="#linearGradient2205"
       id="linearGradient4615"
       gradientUnits="userSpaceOnUse"
       x1="-165.16847"
       y1="-74.831528"
       x2="-240"
       y2="0" />
    <linearGradient
       inkscape:collect="always"
       xlink:href="#linearGradient2205"
       id="linearGradient5591"
       x1="-165.27959"
       y1="165.27959"
       x2="-240"
       y2="240"
       gradientUnits="userSpaceOnUse" />
    <linearGradient
       inkscape:collect="always"
       xlink:href="#linearGradient2205"
       id="linearGradient5949"
       x1="74.823135"
       y1="165.17686"
       x2="1.1952378e-06"
       y2="240"
       gradientUnits="userSpaceOnUse" />
    <linearGradient
       inkscape:collect="always"
       xlink:href="#linearGradient2205"
       id="linearGradient6179"
       x1="74.723679"
       y1="-74.723679"
       x2="0"
       y2="0"
       gradientUnits="userSpaceOnUse" />
    <linearGradient
       inkscape:collect="always"
       xlink:href="#linearGradient2205"
       id="linearGradient13741"
       x1="80.901276"
       y1="-80.901276"
       x2="24.995874"
       y2="-24.995874"
       gradientUnits="userSpaceOnUse" />
    <linearGradient
       inkscape:collect="always"
       xlink:href="#linearGradient2205"
       id="linearGradient13745"
       gradientUnits="userSpaceOnUse"
       x1="81.547386"
       y1="-81.046761"
       x2="25.496502"
       y2="-24.995878"
       gradientTransform="translate(-239.999,239.999)" />
    <linearGradient
       inkscape:collect="always"
       xlink:href="#linearGradient2205"
       id="linearGradient13749"
       gradientUnits="userSpaceOnUse"
       x1="80.526512"
       y1="-80.526512"
       x2="24.995874"
       y2="-24.995878"
       gradientTransform="translate(9.8749995e-4,239.999)" />
    <linearGradient
       inkscape:collect="always"
       xlink:href="#linearGradient2205"
       id="linearGradient13753"
       gradientUnits="userSpaceOnUse"
       x1="80.962845"
       y1="-80.962837"
       x2="24.995878"
       y2="-24.995872"
       gradientTransform="translate(-239.999,-9.8553504e-4)" />
    <linearGradient
       inkscape:collect="always"
       xlink:href="#linearGradient2205"
       id="linearGradient25391"
       x1="86.339752"
       y1="-87.939606"
       x2="50.003765"
       y2="-51.603622"
       gradientUnits="userSpaceOnUse" />
    <linearGradient
       inkscape:collect="always"
       xlink:href="#linearGradient2205"
       id="linearGradient25847"
       x1="-155.9044"
       y1="-89.636726"
       x2="-189.99524"
       y2="-55.545898"
       gradientUnits="userSpaceOnUse" />
    <linearGradient
       inkscape:collect="always"
       xlink:href="#linearGradient2205"
       id="linearGradient26245"
       x1="87.022461"
       y1="153.23103"
       x2="50.187473"
       y2="190.06602"
       gradientUnits="userSpaceOnUse" />
    <linearGradient
       inkscape:collect="always"
       xlink:href="#linearGradient2205"
       id="linearGradient26731"
       x1="-153.0733"
       y1="153.0733"
       x2="-189.99524"
       y2="189.99524"
       gradientUnits="userSpaceOnUse" />
    <linearGradient
       inkscape:collect="always"
       xlink:href="#linearGradient2205"
       id="linearGradient27323"
       x1="92.261932"
       y1="-92.389915"
       x2="73.958946"
       y2="-74.086929"
       gradientUnits="userSpaceOnUse" />
    <linearGradient
       inkscape:collect="always"
       xlink:href="#linearGradient2205"
       id="linearGradient27489"
       x1="-146.49312"
       y1="-93.515305"
       x2="-164.99828"
       y2="-75.010139"
       gradientUnits="userSpaceOnUse" />
    <linearGradient
       inkscape:collect="always"
       xlink:href="#linearGradient2205"
       id="linearGradient27655"
       x1="93.446213"
       y1="146.41399"
       x2="75.522285"
       y2="164.33791"
       gradientUnits="userSpaceOnUse" />
    <linearGradient
       inkscape:collect="always"
       xlink:href="#linearGradient2205"
       id="linearGradient27885"
       x1="-146.53668"
       y1="146.69165"
       x2="-164.99828"
       y2="165.15324"
       gradientUnits="userSpaceOnUse" />
  </defs>
  <g
     inkscape:label="Layer_I"
     inkscape:groupmode="layer"
     id="layer1"
     sodipodi:insensitive="true">
    <rect
       style="fill:#ff9955;fill-opacity:0;stroke:none;stroke-width:10"
       id="rect846"
       width="3840"
       height="2160"
       x="0"
       y="0"
       rx="0"
       ry="0"
       sodipodi:insensitive="true"
       inkscape:label="Background" />
  </g>
  <g
     inkscape:groupmode="layer"
     id="layer2"
     inkscape:label="Layer_II">
    <g
       id="g994"
       style="display:inline">
      <path
         style="display:inline;fill:#e8e4e8;fill-opacity:1;stroke:#000080;stroke-width:1px;stroke-linecap:butt;stroke-linejoin:miter;stroke-opacity:1"
         d="m 50,99.5 c -5.229728,12.62611 -5.229045,28.37302 9.88e-4,40.99901 8.929995,21.55818 27.941711,40.57026 49.5,49.5 12.625742,5.22975 28.372282,5.22975 40.998022,0 21.55829,-8.92974 40.57026,-27.94171 49.5,-49.5 5.22975,-12.62574 5.22975,-28.37228 0,-40.998022 -8.92974,-21.558289 -27.94182,-40.570005 -49.5,-49.5 C 127.87302,44.770955 112.12611,44.770272 99.5,50 77.941603,58.929476 58.929476,77.941603 50,99.5 Z"
         id="path6598"
         sodipodi:nodetypes="aaaaaaaaa" />
      <g
         id="g29131"
         style="display:inline;stroke:#000080">
        <path
           style="fill:url(#linearGradient5591);fill-opacity:1;fill-rule:evenodd;stroke:#000080;stroke-width:0.999999;stroke-linejoin:bevel;stop-color:#000000"
           id="path29123"
           transform="rotate(-90)"
           sodipodi:type="arc"
           sodipodi:cx="-189.99901"
           sodipodi:cy="189.99901"
           sodipodi:rx="49.5"
           sodipodi:ry="49.5"
           sodipodi:start="0"
           sodipodi:end="4.712389"
           sodipodi:open="true"
           sodipodi:arc-type="arc"
           d="m -140.49901,189.99901 a 49.5,49.5 0 0 1 -30.55717,45.73204 49.5,49.5 0 0 1 -53.94461,-10.73026 49.5,49.5 0 0 1 -10.73025,-53.94461 49.5,49.5 0 0 1 45.73203,-30.55717" />
        <path
           style="fill:url(#linearGradient4615);fill-opacity:1;fill-rule:evenodd;stroke:#000080;stroke-width:0.999999;stroke-linejoin:bevel;stop-color:#000000"
           id="path29125"
           transform="matrix(0,-1,-1,0,0,0)"
           sodipodi:type="arc"
           sodipodi:cx="-189.99901"
           sodipodi:cy="-50.000988"
           sodipodi:rx="49.5"
           sodipodi:ry="49.5"
           sodipodi:start="0"
           sodipodi:end="4.712389"
           sodipodi:open="true"
           sodipodi:arc-type="arc"
           d="m -140.49901,-50.000988 a 49.5,49.5 0 0 1 -30.55717,45.7320369 49.5,49.5 0 0 1 -53.94461,-10.7302519 49.5,49.5 0 0 1 -10.73025,-53.944616 49.5,49.5 0 0 1 45.73203,-30.557169" />
        <path
           style="fill:url(#linearGradient5949);fill-opacity:1;fill-rule:evenodd;stroke:#000080;stroke-width:0.999999;stroke-linejoin:bevel;stop-color:#000000"
           id="path29127"
           transform="matrix(0,1,1,0,0,0)"
           sodipodi:type="arc"
           sodipodi:cx="50.000988"
           sodipodi:cy="189.99901"
           sodipodi:rx="49.5"
           sodipodi:ry="49.5"
           sodipodi:start="0"
           sodipodi:end="4.712389"
           sodipodi:open="true"
           sodipodi:arc-type="arc"
           d="M 99.500988,189.99901 A 49.5,49.5 0 0 1 68.943818,235.73105 49.5,49.5 0 0 1 14.999202,225.00079 49.5,49.5 0 0 1 4.2689514,171.05618 49.5,49.5 0 0 1 50.000988,140.49901" />
        <path
           style="fill:url(#linearGradient6179);fill-opacity:1;fill-rule:evenodd;stroke:#000080;stroke-width:0.999999;stroke-linejoin:bevel;stop-color:#000000"
           id="path29129"
           transform="rotate(90)"
           sodipodi:type="arc"
           sodipodi:cx="50"
           sodipodi:cy="-50"
           sodipodi:rx="49.5"
           sodipodi:ry="49.5"
           sodipodi:start="0"
           sodipodi:end="4.712389"
           sodipodi:open="true"
           sodipodi:arc-type="arc"
           d="M 99.5,-50 A 49.5,49.5 0 0 1 68.94283,-4.267963 49.5,49.5 0 0 1 14.998214,-14.998215 49.5,49.5 0 0 1 4.2679634,-68.942831 49.5,49.5 0 0 1 50,-99.5" />
      </g>
      <g
         id="g1681"
         style="display:inline;stroke:#000080">
        <path
           style="fill:url(#linearGradient13745);fill-opacity:1;fill-rule:evenodd;stroke:#000080;stroke-width:1;stroke-linejoin:bevel;stop-color:#000000"
           id="use1673"
           sodipodi:type="arc"
           sodipodi:cx="-177.50075"
           sodipodi:cy="177.50075"
           sodipodi:rx="37.001751"
           sodipodi:ry="37.001751"
           sodipodi:start="0"
           sodipodi:end="4.712389"
           sodipodi:open="true"
           sodipodi:arc-type="arc"
           d="m -140.499,177.50075 a 37.001751,37.001751 0 0 1 -22.84179,34.18516 37.001751,37.001751 0 0 1 -40.32415,-8.02097 37.001751,37.001751 0 0 1 -8.02097,-40.32415 37.001751,37.001751 0 0 1 34.18516,-22.84179"
           transform="scale(-1,1)" />
        <path
           style="fill:url(#linearGradient13749);fill-opacity:1;fill-rule:evenodd;stroke:#000080;stroke-width:1;stroke-linejoin:bevel;stop-color:#000000"
           id="use1675"
           sodipodi:type="arc"
           sodipodi:cx="62.499237"
           sodipodi:cy="177.50075"
           sodipodi:rx="37.001751"
           sodipodi:ry="37.001751"
           sodipodi:start="0"
           sodipodi:end="4.712389"
           sodipodi:open="true"
           sodipodi:arc-type="arc"
           d="M 99.500988,177.50075 A 37.001751,37.001751 0 0 1 76.659194,211.68591 37.001751,37.001751 0 0 1 36.335048,203.66494 37.001751,37.001751 0 0 1 28.314077,163.34079 37.001751,37.001751 0 0 1 62.499237,140.499" />
        <path
           style="fill:url(#linearGradient13753);fill-opacity:1;fill-rule:evenodd;stroke:#000080;stroke-width:1;stroke-linejoin:bevel;stop-color:#000000"
           id="use1671"
           sodipodi:type="arc"
           sodipodi:cx="-177.50075"
           sodipodi:cy="-62.499233"
           sodipodi:rx="37.001751"
           sodipodi:ry="37.001751"
           sodipodi:start="0"
           sodipodi:end="4.712389"
           sodipodi:open="true"
           sodipodi:arc-type="arc"
           d="m -140.499,-62.499233 a 37.001751,37.001751 0 0 1 -22.84179,34.18516 37.001751,37.001751 0 0 1 -40.32415,-8.020971 37.001751,37.001751 0 0 1 -8.02097,-40.324147 37.001751,37.001751 0 0 1 34.18516,-22.841793"
           transform="scale(-1)" />
        <path
           style="fill:url(#linearGradient13741);fill-opacity:1;fill-rule:evenodd;stroke:#000080;stroke-width:1;stroke-linejoin:bevel;stop-color:#000000"
           id="path1651"
           sodipodi:type="arc"
           sodipodi:cx="62.498249"
           sodipodi:cy="-62.498249"
           sodipodi:rx="37.001751"
           sodipodi:ry="37.001751"
           sodipodi:start="0"
           sodipodi:end="4.712389"
           sodipodi:open="true"
           sodipodi:arc-type="arc"
           d="M 99.5,-62.498249 A 37.001751,37.001751 0 0 1 76.658206,-28.313089 37.001751,37.001751 0 0 1 36.33406,-36.33406 37.001751,37.001751 0 0 1 28.313089,-76.658207 37.001751,37.001751 0 0 1 62.498249,-99.5"
           transform="scale(1,-1)" />
      </g>
      <g
         id="g2193"
         style="display:inline;stroke:#000080">
        <path
           style="fill:url(#linearGradient26731);fill-opacity:1;fill-rule:evenodd;stroke:#000080;stroke-width:0.996232;stroke-linejoin:bevel;stop-color:#000000"
           id="path1445"
           sodipodi:type="arc"
           sodipodi:cx="-164.99699"
           sodipodi:cy="164.99699"
           sodipodi:rx="24.49987"
           sodipodi:ry="24.49987"
           sodipodi:start="0"
           sodipodi:end="4.712389"
           sodipodi:open="true"
           sodipodi:arc-type="arc"
           d="m -140.49712,164.99699 a 24.49987,24.49987 0 0 1 -15.12418,22.63493 24.49987,24.49987 0 0 1 -26.69972,-5.3109 24.49987,24.49987 0 0 1 -5.3109,-26.69972 24.49987,24.49987 0 0 1 22.63493,-15.12418"
           transform="scale(-1,1)" />
        <path
           style="fill:url(#linearGradient26245);fill-opacity:1;fill-rule:evenodd;stroke:#000080;stroke-width:0.996232;stroke-linejoin:bevel;stop-color:#000000"
           id="path1363"
           sodipodi:type="arc"
           sodipodi:cx="75.185722"
           sodipodi:cy="164.99887"
           sodipodi:rx="24.49987"
           sodipodi:ry="24.49987"
           sodipodi:start="0"
           sodipodi:end="4.712389"
           sodipodi:open="true"
           sodipodi:arc-type="arc"
           d="M 99.685593,164.99887 A 24.49987,24.49987 0 0 1 84.561417,187.6338 24.49987,24.49987 0 0 1 57.861698,182.3229 24.49987,24.49987 0 0 1 52.550794,155.62318 24.49987,24.49987 0 0 1 75.185722,140.499" />
        <path
           style="fill:url(#linearGradient25847);fill-opacity:1;fill-rule:evenodd;stroke:#000080;stroke-width:0.996232;stroke-linejoin:bevel;stop-color:#000000"
           id="path1447"
           sodipodi:type="arc"
           sodipodi:cx="-164.99699"
           sodipodi:cy="-75.002998"
           sodipodi:rx="24.49987"
           sodipodi:ry="24.49987"
           sodipodi:start="0"
           sodipodi:end="4.712389"
           sodipodi:open="true"
           sodipodi:arc-type="arc"
           d="m -140.49712,-75.002998 a 24.49987,24.49987 0 0 1 -15.12418,22.634928 24.49987,24.49987 0 0 1 -26.69972,-5.310904 24.49987,24.49987 0 0 1 -5.3109,-26.699719 24.49987,24.49987 0 0 1 22.63493,-15.124176"
           transform="scale(-1)" />
        <path
           style="fill:url(#linearGradient25391);fill-opacity:1;fill-rule:evenodd;stroke:#000080;stroke-width:0.996232;stroke-linejoin:bevel;stop-color:#000000"
           id="path1449"
           sodipodi:type="arc"
           sodipodi:cx="75.002014"
           sodipodi:cy="-75.002014"
           sodipodi:rx="24.49987"
           sodipodi:ry="24.49987"
           sodipodi:start="0"
           sodipodi:end="4.712389"
           sodipodi:open="true"
           sodipodi:arc-type="arc"
           d="M 99.501884,-75.002014 A 24.49987,24.49987 0 0 1 84.377709,-52.367085 24.49987,24.49987 0 0 1 57.67799,-57.67799 24.49987,24.49987 0 0 1 52.367086,-84.377709 24.49987,24.49987 0 0 1 75.002014,-99.501884"
           transform="scale(1,-1)" />
      </g>
      <g
         id="g1691"
         style="display:inline;stroke:#000080">
        <path
           style="fill:url(#linearGradient27885);fill-opacity:1;fill-rule:evenodd;stroke:#000080;stroke-width:1;stroke-linejoin:bevel;stop-color:#000000"
           id="use1695"
           sodipodi:type="arc"
           sodipodi:cx="-152.49869"
           sodipodi:cy="152.49869"
           sodipodi:rx="11.999688"
           sodipodi:ry="11.999688"
           sodipodi:start="0"
           sodipodi:end="4.712389"
           sodipodi:open="true"
           sodipodi:arc-type="arc"
           d="m -140.499,152.49869 a 11.999688,11.999688 0 0 1 -7.40761,11.08626 11.999688,11.999688 0 0 1 -13.07714,-2.6012 11.999688,11.999688 0 0 1 -2.6012,-13.07714 11.999688,11.999688 0 0 1 11.08626,-7.40761"
           transform="scale(-1,1)" />
        <path
           style="fill:url(#linearGradient27655);fill-opacity:1;fill-rule:evenodd;stroke:#000080;stroke-width:1;stroke-linejoin:bevel;stroke-opacity:1;stop-color:#000000"
           id="use1689"
           sodipodi:type="arc"
           sodipodi:cx="88.021873"
           sodipodi:cy="152.16272"
           sodipodi:rx="11.999688"
           sodipodi:ry="11.999688"
           sodipodi:start="0"
           sodipodi:end="4.712389"
           sodipodi:open="true"
           sodipodi:arc-type="arc"
           d="m 100.02156,152.16272 a 11.999688,11.999688 0 0 1 -7.407605,11.08627 11.999688,11.999688 0 0 1 -13.077142,-2.60121 11.999688,11.999688 0 0 1 -2.601206,-13.07714 11.999688,11.999688 0 0 1 11.086266,-7.40761" />
        <path
           style="fill:url(#linearGradient27489);fill-opacity:1;fill-rule:evenodd;stroke:#000080;stroke-width:1;stroke-linejoin:bevel;stop-color:#000000"
           id="use1685"
           sodipodi:type="arc"
           sodipodi:cx="-152.49869"
           sodipodi:cy="-87.501297"
           sodipodi:rx="11.999688"
           sodipodi:ry="11.999688"
           sodipodi:start="0"
           sodipodi:end="4.712389"
           sodipodi:open="true"
           sodipodi:arc-type="arc"
           d="m -140.499,-87.501297 a 11.999688,11.999688 0 0 1 -7.40761,11.086266 11.999688,11.999688 0 0 1 -13.07714,-2.601205 11.999688,11.999688 0 0 1 -2.6012,-13.077143 11.999688,11.999688 0 0 1 11.08626,-7.407606"
           transform="scale(-1)" />
        <path
           style="fill:url(#linearGradient27323);fill-opacity:1;fill-rule:evenodd;stroke:#000080;stroke-width:1;stroke-linejoin:bevel;stop-color:#000000"
           id="path1683"
           sodipodi:type="arc"
           sodipodi:cx="86.458534"
           sodipodi:cy="-86.458534"
           sodipodi:rx="11.999688"
           sodipodi:ry="11.999688"
           sodipodi:start="0"
           sodipodi:end="4.712389"
           sodipodi:open="true"
           sodipodi:arc-type="arc"
           d="m 98.458222,-86.458534 a 11.999688,11.999688 0 0 1 -7.407606,11.086266 11.999688,11.999688 0 0 1 -13.077143,-2.601205 11.999688,11.999688 0 0 1 -2.601205,-13.077143 11.999688,11.999688 0 0 1 11.086266,-7.407606"
           transform="scale(1,-1)" />
      </g>
    </g>
  </g>
</svg>
