<?xml version="1.0" encoding="UTF-8" standalone="no"?>
<!-- Created with Inkscape (http://www.inkscape.org/) -->

<svg
   width="240"
   height="240"
   viewBox="0 0 240 240"
   version="1.1"
   id="svg5"
   inkscape:version="1.1.1 (3bf5ae0d25, 2021-09-20)"
   sodipodi:docname="Patter_file1.svg"
   xmlns:inkscape="http://www.inkscape.org/namespaces/inkscape"
   xmlns:sodipodi="http://sodipodi.sourceforge.net/DTD/sodipodi-0.dtd"
   xmlns="http://www.w3.org/2000/svg"
   xmlns:svg="http://www.w3.org/2000/svg">
  <sodipodi:namedview
     id="namedview7"
     pagecolor="#ededed"
     bordercolor="#666666"
     borderopacity="1.0"
     inkscape:pageshadow="2"
     inkscape:pageopacity="0"
     inkscape:pagecheckerboard="0"
     inkscape:document-units="px"
     showgrid="false"
     units="px"
     scale-x="1"
     inkscape:showpageshadow="false"
     inkscape:snap-page="true"
     inkscape:snap-nodes="true"
     inkscape:snap-center="true"
     inkscape:object-paths="false"
     inkscape:snap-intersection-paths="true"
     inkscape:snap-smooth-nodes="true"
     inkscape:zoom="3.5458333"
     inkscape:cx="120"
     inkscape:cy="120"
     inkscape:window-width="1920"
     inkscape:window-height="1047"
     inkscape:window-x="0"
     inkscape:window-y="0"
     inkscape:window-maximized="1"
     inkscape:current-layer="layer2"
     inkscape:snap-object-midpoints="true"
     inkscape:snap-others="false"
     inkscape:object-nodes="true"
     inkscape:snap-bbox="true"
     inkscape:bbox-paths="true"
     inkscape:bbox-nodes="true"
     inkscape:snap-bbox-edge-midpoints="true"
     inkscape:snap-bbox-midpoints="false"
     inkscape:snap-midpoints="false"
     width="240px" />
  <defs
     id="defs2">
    <marker
       style="overflow:visible"
       id="DotM"
       refX="0"
       refY="0"
       orient="auto"
       inkscape:stockid="DotM"
       inkscape:isstock="true">
      <path
         transform="matrix(0.4,0,0,0.4,2.96,0.4)"
         style="fill:context-stroke;fill-rule:evenodd;stroke:context-stroke;stroke-width:1pt"
         d="m -2.5,-1 c 0,2.76 -2.24,5 -5,5 -2.76,0 -5,-2.24 -5,-5 0,-2.76 2.24,-5 5,-5 2.76,0 5,2.24 5,5 z"
         id="path4947" />
    </marker>
    <marker
       style="overflow:visible"
       id="DotS"
       refX="0"
       refY="0"
       orient="auto"
       inkscape:stockid="DotS"
       inkscape:isstock="true">
      <path
         transform="matrix(0.2,0,0,0.2,1.48,0.2)"
         style="fill:context-stroke;fill-rule:evenodd;stroke:context-stroke;stroke-width:1pt"
         d="m -2.5,-1 c 0,2.76 -2.24,5 -5,5 -2.76,0 -5,-2.24 -5,-5 0,-2.76 2.24,-5 5,-5 2.76,0 5,2.24 5,5 z"
         id="path4950" />
    </marker>
    <marker
       style="overflow:visible"
       id="SquareL"
       refX="0"
       refY="0"
       orient="auto"
       inkscape:stockid="SquareL"
       inkscape:isstock="true">
      <path
         transform="scale(0.8)"
         style="fill:context-stroke;fill-rule:evenodd;stroke:context-stroke;stroke-width:1pt"
         d="M -5,-5 V 5 H 5 V -5 Z"
         id="path4953" />
    </marker>
    <marker
       style="overflow:visible"
       id="DiamondMstart"
       refX="0"
       refY="0"
       orient="auto"
       inkscape:stockid="DiamondMstart"
       inkscape:isstock="true">
      <path
         transform="matrix(0.4,0,0,0.4,2.6,0)"
         style="fill:context-stroke;fill-rule:evenodd;stroke:context-stroke;stroke-width:1pt"
         d="M 0,-7.0710768 -7.0710894,0 0,7.0710589 7.0710462,0 Z"
         id="path4974" />
    </marker>
  </defs>
  <g
     inkscape:label="Layer_I"
     inkscape:groupmode="layer"
     id="layer1"
     sodipodi:insensitive="true"
     style="display:inline">
    <rect
       style="fill:#ff9955;fill-opacity:0;stroke:none;stroke-width:10"
       id="rect846"
       width="3840"
       height="2160"
       x="0"
       y="0"
       rx="0"
       ry="0"
       sodipodi:insensitive="true"
       inkscape:label="Background" />
  </g>
  <g
     inkscape:groupmode="layer"
     id="layer2"
     inkscape:label="Layer_II">
    <g
       id="g2028"
       transform="matrix(0.1690295,0,0,0.1690295,-92.612481,-36.817111)"
       style="display:inline">
      <g
         id="g5550"
         style="display:inline">
        <g
           id="g5326"
           transform="rotate(135,1357.1794,659.5603)">
          <path
             id="path5320"
             style="display:inline;fill:#ff6600;fill-opacity:0.988767;fill-rule:evenodd;stroke:#552200;stroke-width:4;stroke-miterlimit:0;paint-order:normal;stop-color:#000000"
             d="m 1617.06,792.16343 c 27.9507,47.38214 63.3234,93.92955 90.5014,141.84628 8.6614,19.8767 -1.5071,41.20404 -15.2746,53.85492 21.1798,36.11577 43.5651,71.39927 63.9727,108.04857 8.7774,20.1263 -1.7817,41.4654 -15.6272,54.2362 -41.1908,47.338 -82.3815,94.676 -123.5723,142.014 h 250 c -30.5278,-51.7573 -62.2809,-102.6683 -92.0342,-154.9609 -8.6508,-19.8752 1.5192,-41.1922 15.2836,-53.8386 -21.1719,-36.0859 -43.5196,-71.3582 -63.9392,-107.96474 -8.7301,-19.88706 1.5352,-41.05321 15.0263,-53.99611 36.2178,-43.07988 89.4457,-86.15975 125.6635,-129.23962 z m 174.9943,289.19507 -0.011,0.011 z"
             sodipodi:nodetypes="ccsccccccccccccc" />
          <path
             id="path5324"
             style="display:inline;fill:#ff6600;fill-opacity:0.988767;fill-rule:evenodd;stroke:#552200;stroke-width:4;stroke-miterlimit:0;paint-order:normal;stop-color:#000000"
             d="m 1367.06,792.16343 c 27.9507,47.38214 63.3234,93.92955 90.5014,141.84628 8.6614,19.8767 -1.5071,41.20404 -15.2746,53.85492 21.1798,36.11577 43.5651,71.39927 63.9727,108.04857 8.7774,20.1263 -1.7817,41.4654 -15.6272,54.2362 -41.1908,47.338 -82.3815,94.676 -123.5723,142.014 h 250 c -30.5278,-51.7573 -62.2809,-102.6683 -92.0342,-154.9609 -8.6508,-19.8752 1.5192,-41.1922 15.2836,-53.8386 -21.1719,-36.0859 -43.5196,-71.3582 -63.9392,-107.96474 -8.7301,-19.88706 1.5352,-41.05321 15.0263,-53.99611 36.2178,-43.07988 89.4457,-86.15975 125.6635,-129.23962 z m 174.9943,289.19507 -0.011,0.011 z"
             sodipodi:nodetypes="ccsccccccccccccc" />
          <path
             id="path5322"
             style="display:inline;fill:#ff6600;fill-opacity:0.988767;fill-rule:evenodd;stroke:#552200;stroke-width:4;stroke-miterlimit:0;paint-order:normal;stop-color:#000000"
             d="m 1492.06,792.16343 c 27.9507,47.38214 63.3234,93.92955 90.5014,141.84628 8.6614,19.8767 -1.5071,41.20404 -15.2746,53.85492 21.1798,36.11577 43.5651,71.39927 63.9727,108.04857 8.7774,20.1263 -1.7817,41.4654 -15.6272,54.2362 -41.1908,47.338 -82.3815,94.676 -123.5723,142.014 h 250 c -30.5278,-51.7573 -62.2809,-102.6683 -92.0342,-154.9609 -8.6508,-19.8752 1.5192,-41.1922 15.2836,-53.8386 -21.1719,-36.0859 -43.5196,-71.3582 -63.9392,-107.96474 -8.7301,-19.88706 1.5352,-41.05321 15.0263,-53.99611 36.2178,-43.07988 89.4457,-86.15975 125.6635,-129.23962 z m 174.9943,289.19507 -0.011,0.011 z"
             sodipodi:nodetypes="ccsccccccccccccc" />
        </g>
        <g
           id="g5356"
           transform="matrix(-0.70710678,-0.70710678,-0.70710678,0.70710678,3493.165,979.29559)">
          <path
             id="path5350"
             style="display:inline;fill:#ff6600;fill-opacity:0.988767;fill-rule:evenodd;stroke:#552200;stroke-width:4;stroke-miterlimit:0;paint-order:normal;stop-color:#000000"
             d="m 1617.06,792.16343 c 27.9507,47.38214 63.3234,93.92955 90.5014,141.84628 8.6614,19.8767 -1.5071,41.20404 -15.2746,53.85492 21.1798,36.11577 43.5651,71.39927 63.9727,108.04857 8.7774,20.1263 -1.7817,41.4654 -15.6272,54.2362 -41.1908,47.338 -82.3815,94.676 -123.5723,142.014 h 250 c -30.5278,-51.7573 -62.2809,-102.6683 -92.0342,-154.9609 -8.6508,-19.8752 1.5192,-41.1922 15.2836,-53.8386 -21.1719,-36.0859 -43.5196,-71.3582 -63.9392,-107.96474 -8.7301,-19.88706 1.5352,-41.05321 15.0263,-53.99611 36.2178,-43.07988 89.4457,-86.15975 125.6635,-129.23962 z m 174.9943,289.19507 -0.011,0.011 z"
             sodipodi:nodetypes="ccsccccccccccccc" />
          <path
             id="path5354"
             style="display:inline;fill:#ff6600;fill-opacity:0.988767;fill-rule:evenodd;stroke:#552200;stroke-width:4;stroke-miterlimit:0;paint-order:normal;stop-color:#000000"
             d="m 1367.06,792.16343 c 27.9507,47.38214 63.3234,93.92955 90.5014,141.84628 8.6614,19.8767 -1.5071,41.20404 -15.2746,53.85492 21.1798,36.11577 43.5651,71.39927 63.9727,108.04857 8.7774,20.1263 -1.7817,41.4654 -15.6272,54.2362 -41.1908,47.338 -82.3815,94.676 -123.5723,142.014 h 250 c -30.5278,-51.7573 -62.2809,-102.6683 -92.0342,-154.9609 -8.6508,-19.8752 1.5192,-41.1922 15.2836,-53.8386 -21.1719,-36.0859 -43.5196,-71.3582 -63.9392,-107.96474 -8.7301,-19.88706 1.5352,-41.05321 15.0263,-53.99611 36.2178,-43.07988 89.4457,-86.15975 125.6635,-129.23962 z m 174.9943,289.19507 -0.011,0.011 z"
             sodipodi:nodetypes="ccsccccccccccccc" />
          <path
             id="path5352"
             style="display:inline;fill:#ff6600;fill-opacity:0.988767;fill-rule:evenodd;stroke:#552200;stroke-width:4;stroke-miterlimit:0;paint-order:normal;stop-color:#000000"
             d="m 1492.06,792.16343 c 27.9507,47.38214 63.3234,93.92955 90.5014,141.84628 8.6614,19.8767 -1.5071,41.20404 -15.2746,53.85492 21.1798,36.11577 43.5651,71.39927 63.9727,108.04857 8.7774,20.1263 -1.7817,41.4654 -15.6272,54.2362 -41.1908,47.338 -82.3815,94.676 -123.5723,142.014 h 250 c -30.5278,-51.7573 -62.2809,-102.6683 -92.0342,-154.9609 -8.6508,-19.8752 1.5192,-41.1922 15.2836,-53.8386 -21.1719,-36.0859 -43.5196,-71.3582 -63.9392,-107.96474 -8.7301,-19.88706 1.5352,-41.05321 15.0263,-53.99611 36.2178,-43.07988 89.4457,-86.15975 125.6635,-129.23962 z m 174.9943,289.19507 -0.011,0.011 z"
             sodipodi:nodetypes="ccsccccccccccccc" />
        </g>
        <g
           id="g5364"
           transform="matrix(-0.70710678,-0.70710678,-0.70710678,0.70710678,2783.2297,1689.2308)">
          <path
             id="path5358"
             style="display:inline;fill:#ff6600;fill-opacity:0.988767;fill-rule:evenodd;stroke:#552200;stroke-width:4;stroke-miterlimit:0;paint-order:normal;stop-color:#000000"
             d="m 1617.06,792.16343 c 27.9507,47.38214 63.3234,93.92955 90.5014,141.84628 8.6614,19.8767 -1.5071,41.20404 -15.2746,53.85492 21.1798,36.11577 43.5651,71.39927 63.9727,108.04857 8.7774,20.1263 -1.7817,41.4654 -15.6272,54.2362 -41.1908,47.338 -82.3815,94.676 -123.5723,142.014 h 250 c -30.5278,-51.7573 -62.2809,-102.6683 -92.0342,-154.9609 -8.6508,-19.8752 1.5192,-41.1922 15.2836,-53.8386 -21.1719,-36.0859 -43.5196,-71.3582 -63.9392,-107.96474 -8.7301,-19.88706 1.5352,-41.05321 15.0263,-53.99611 36.2178,-43.07988 89.4457,-86.15975 125.6635,-129.23962 z m 174.9943,289.19507 -0.011,0.011 z"
             sodipodi:nodetypes="ccsccccccccccccc" />
          <path
             id="path5362"
             style="display:inline;fill:#ff6600;fill-opacity:0.988767;fill-rule:evenodd;stroke:#552200;stroke-width:4;stroke-miterlimit:0;paint-order:normal;stop-color:#000000"
             d="m 1367.06,792.16343 c 27.9507,47.38214 63.3234,93.92955 90.5014,141.84628 8.6614,19.8767 -1.5071,41.20404 -15.2746,53.85492 21.1798,36.11577 43.5651,71.39927 63.9727,108.04857 8.7774,20.1263 -1.7817,41.4654 -15.6272,54.2362 -41.1908,47.338 -82.3815,94.676 -123.5723,142.014 h 250 c -30.5278,-51.7573 -62.2809,-102.6683 -92.0342,-154.9609 -8.6508,-19.8752 1.5192,-41.1922 15.2836,-53.8386 -21.1719,-36.0859 -43.5196,-71.3582 -63.9392,-107.96474 -8.7301,-19.88706 1.5352,-41.05321 15.0263,-53.99611 36.2178,-43.07988 89.4457,-86.15975 125.6635,-129.23962 z m 174.9943,289.19507 -0.011,0.011 z"
             sodipodi:nodetypes="ccsccccccccccccc" />
          <path
             id="path5360"
             style="display:inline;fill:#ff6600;fill-opacity:0.988767;fill-rule:evenodd;stroke:#552200;stroke-width:4;stroke-miterlimit:0;paint-order:normal;stop-color:#000000"
             d="m 1492.06,792.16343 c 27.9507,47.38214 63.3234,93.92955 90.5014,141.84628 8.6614,19.8767 -1.5071,41.20404 -15.2746,53.85492 21.1798,36.11577 43.5651,71.39927 63.9727,108.04857 8.7774,20.1263 -1.7817,41.4654 -15.6272,54.2362 -41.1908,47.338 -82.3815,94.676 -123.5723,142.014 h 250 c -30.5278,-51.7573 -62.2809,-102.6683 -92.0342,-154.9609 -8.6508,-19.8752 1.5192,-41.1922 15.2836,-53.8386 -21.1719,-36.0859 -43.5196,-71.3582 -63.9392,-107.96474 -8.7301,-19.88706 1.5352,-41.05321 15.0263,-53.99611 36.2178,-43.07988 89.4457,-86.15975 125.6635,-129.23962 z m 174.9943,289.19507 -0.011,0.011 z"
             sodipodi:nodetypes="ccsccccccccccccc" />
        </g>
        <g
           id="g5372"
           transform="rotate(135,1565.1146,1161.5603)">
          <path
             id="path5366"
             style="display:inline;fill:#ff6600;fill-opacity:0.988767;fill-rule:evenodd;stroke:#552200;stroke-width:4;stroke-miterlimit:0;paint-order:normal;stop-color:#000000"
             d="m 1617.06,792.16343 c 27.9507,47.38214 63.3234,93.92955 90.5014,141.84628 8.6614,19.8767 -1.5071,41.20404 -15.2746,53.85492 21.1798,36.11577 43.5651,71.39927 63.9727,108.04857 8.7774,20.1263 -1.7817,41.4654 -15.6272,54.2362 -41.1908,47.338 -82.3815,94.676 -123.5723,142.014 h 250 c -30.5278,-51.7573 -62.2809,-102.6683 -92.0342,-154.9609 -8.6508,-19.8752 1.5192,-41.1922 15.2836,-53.8386 -21.1719,-36.0859 -43.5196,-71.3582 -63.9392,-107.96474 -8.7301,-19.88706 1.5352,-41.05321 15.0263,-53.99611 36.2178,-43.07988 89.4457,-86.15975 125.6635,-129.23962 z m 174.9943,289.19507 -0.011,0.011 z"
             sodipodi:nodetypes="ccsccccccccccccc" />
          <path
             id="path5370"
             style="display:inline;fill:#ff6600;fill-opacity:0.988767;fill-rule:evenodd;stroke:#552200;stroke-width:4;stroke-miterlimit:0;paint-order:normal;stop-color:#000000"
             d="m 1367.06,792.16343 c 27.9507,47.38214 63.3234,93.92955 90.5014,141.84628 8.6614,19.8767 -1.5071,41.20404 -15.2746,53.85492 21.1798,36.11577 43.5651,71.39927 63.9727,108.04857 8.7774,20.1263 -1.7817,41.4654 -15.6272,54.2362 -41.1908,47.338 -82.3815,94.676 -123.5723,142.014 h 250 c -30.5278,-51.7573 -62.2809,-102.6683 -92.0342,-154.9609 -8.6508,-19.8752 1.5192,-41.1922 15.2836,-53.8386 -21.1719,-36.0859 -43.5196,-71.3582 -63.9392,-107.96474 -8.7301,-19.88706 1.5352,-41.05321 15.0263,-53.99611 36.2178,-43.07988 89.4457,-86.15975 125.6635,-129.23962 z m 174.9943,289.19507 -0.011,0.011 z"
             sodipodi:nodetypes="ccsccccccccccccc" />
          <path
             id="path5368"
             style="display:inline;fill:#ff6600;fill-opacity:0.988767;fill-rule:evenodd;stroke:#552200;stroke-width:4;stroke-miterlimit:0;paint-order:normal;stop-color:#000000"
             d="m 1492.06,792.16343 c 27.9507,47.38214 63.3234,93.92955 90.5014,141.84628 8.6614,19.8767 -1.5071,41.20404 -15.2746,53.85492 21.1798,36.11577 43.5651,71.39927 63.9727,108.04857 8.7774,20.1263 -1.7817,41.4654 -15.6272,54.2362 -41.1908,47.338 -82.3815,94.676 -123.5723,142.014 h 250 c -30.5278,-51.7573 -62.2809,-102.6683 -92.0342,-154.9609 -8.6508,-19.8752 1.5192,-41.1922 15.2836,-53.8386 -21.1719,-36.0859 -43.5196,-71.3582 -63.9392,-107.96474 -8.7301,-19.88706 1.5352,-41.05321 15.0263,-53.99611 36.2178,-43.07988 89.4457,-86.15975 125.6635,-129.23962 z m 174.9943,289.19507 -0.011,0.011 z"
             sodipodi:nodetypes="ccsccccccccccccc" />
        </g>
      </g>
      <g
         id="g7364"
         transform="rotate(-45,1622.8098,2199.4886)"
         style="display:inline">
        <path
           style="display:inline;fill:#ff6600;fill-opacity:0.988767;fill-rule:evenodd;stroke:#552200;stroke-width:4;stroke-miterlimit:0;paint-order:normal;stop-color:#000000"
           d="m 2013.9935,1292.1627 c 166.6668,0 333.3335,0 500.0003,0 2e-4,-166.6668 10e-5,-333.33359 10e-5,-500.00039 -166.6668,0.002 -333.3337,8.4e-4 -500.0005,10e-4 0,166.66644 -10e-5,333.33289 10e-5,499.99929 z"
           id="path6285" />
        <g
           id="g7356"
           transform="translate(20.88965,-20.828464)">
          <path
             id="path7166"
             style="display:inline;fill:#ffccaa;fill-opacity:0.988767;fill-rule:evenodd;stroke:#552200;stroke-width:4;stroke-miterlimit:0;paint-order:normal;stop-color:#000000"
             d="m 2148.1064,847.43164 c 10.201,-0.41234 23.017,24.26106 33.3555,30.62305 -4.2155,2.53533 -8.4361,5.0661 -12.6621,7.58398 -19.2697,9.08868 -36.6385,28.09036 -59.5449,25.00586 -0.5627,-14.3358 21.6928,-37.61287 30.3652,-54.53711 2.4869,-6.07295 5.3636,-8.54955 8.4863,-8.67578 z m 53.7657,59.2207 c 10.6274,0.69823 15.9059,22.30057 13.7421,34.64258 -6.9587,22.11343 -22.2272,40.77278 -33.123,61.14458 -4.3005,2.5879 -8.6048,5.1702 -12.916,7.7402 -20.2511,9.5445 -38.9709,30.2947 -63.2344,24.9492 -37.9247,-3.814 -4.9235,-33.914 4.0957,-52.7891 16.6871,-15.65946 5.5745,-26.45377 -3.9726,-42.25777 -10.6542,-18.02624 6.049,-19.79103 18.8515,-11.42187 20.251,26.09285 42.2723,-5.54513 64.2246,-14.61914 4.6534,-5.52984 8.7896,-7.62142 12.3321,-7.38868 z m -114.6211,21.99219 c 3.441,0.20234 5.0339,3.63952 3.3613,12.64063 -6.7641,21.76542 -21.813,40.09314 -32.5059,60.12504 -5.7685,-5.4049 -11.4344,-10.9197 -17.0351,-16.4981 -21.5321,-13.49181 -13.7874,-24.29729 7.2305,-33.2871 9.2903,-2.8848 30.1554,-23.49756 38.9492,-22.98047 z" />
          <path
             id="path7286"
             style="display:inline;fill:#ffccaa;fill-opacity:0.988767;fill-rule:evenodd;stroke:#552200;stroke-width:4;stroke-miterlimit:0;paint-order:normal;stop-color:#000000"
             d="m 2148.1064,1278.5503 c 10.201,0.4123 23.017,-24.2611 33.3555,-30.6231 -4.2155,-2.5353 -8.4361,-5.0661 -12.6621,-7.584 -19.2697,-9.0887 -36.6385,-28.0903 -59.5449,-25.0058 -0.5627,14.3358 21.6928,37.6128 30.3652,54.5371 2.4869,6.0729 5.3636,8.5495 8.4863,8.6758 z m 53.7657,-59.2207 c 10.6274,-0.6983 15.9059,-22.3006 13.7421,-34.6426 -6.9587,-22.1135 -22.2272,-40.7728 -33.123,-61.1446 -4.3005,-2.5879 -8.6048,-5.1702 -12.916,-7.7402 -20.2511,-9.5445 -38.9709,-30.2947 -63.2344,-24.9492 -37.9247,3.814 -4.9235,33.914 4.0957,52.7891 16.6871,15.6595 5.5745,26.4538 -3.9726,42.2578 -10.6542,18.0262 6.049,19.791 18.8515,11.4218 20.251,-26.0928 42.2723,5.5452 64.2246,14.6192 4.6534,5.5298 8.7896,7.6214 12.3321,7.3887 z m -114.6211,-21.9922 c 3.441,-0.2024 5.0339,-3.6396 3.3613,-12.6407 -6.7641,-21.7654 -21.813,-40.0931 -32.5059,-60.125 -5.7685,5.4049 -11.4344,10.9197 -17.0351,16.4981 -21.5321,13.4918 -13.7874,24.2973 7.2305,33.2871 9.2903,2.8848 30.1554,23.4976 38.9492,22.9805 z" />
          <path
             id="path7288"
             style="display:inline;fill:#ffccaa;fill-opacity:0.988767;fill-rule:evenodd;stroke:#552200;stroke-width:4;stroke-miterlimit:0;paint-order:normal;stop-color:#000000"
             d="m 2338.1016,1278.5503 c -10.201,0.4123 -23.017,-24.2611 -33.3555,-30.6231 4.2155,-2.5353 8.4361,-5.0661 12.6621,-7.584 19.2697,-9.0887 36.6385,-28.0903 59.5449,-25.0058 0.5627,14.3358 -21.6928,37.6128 -30.3652,54.5371 -2.4869,6.0729 -5.3636,8.5495 -8.4863,8.6758 z m -53.7657,-59.2207 c -10.6274,-0.6983 -15.9059,-22.3006 -13.7421,-34.6426 6.9587,-22.1135 22.2272,-40.7728 33.123,-61.1446 4.3005,-2.5879 8.6048,-5.1702 12.916,-7.7402 20.2511,-9.5445 38.9709,-30.2947 63.2344,-24.9492 37.9247,3.814 4.9235,33.914 -4.0957,52.7891 -16.6871,15.6595 -5.5745,26.4538 3.9726,42.2578 10.6542,18.0262 -6.049,19.791 -18.8515,11.4218 -20.251,-26.0928 -42.2723,5.5452 -64.2246,14.6192 -4.6534,5.5298 -8.7896,7.6214 -12.3321,7.3887 z m 114.6211,-21.9922 c -3.441,-0.2024 -5.0339,-3.6396 -3.3613,-12.6407 6.7641,-21.7654 21.813,-40.0931 32.5059,-60.125 5.7685,5.4049 11.4344,10.9197 17.0351,16.4981 21.5321,13.4918 13.7874,24.2973 -7.2305,33.2871 -9.2903,2.8848 -30.1554,23.4976 -38.9492,22.9805 z" />
          <path
             id="path6474"
             style="display:inline;fill:#ffccaa;fill-opacity:0.988767;fill-rule:evenodd;stroke:#552200;stroke-width:4;stroke-miterlimit:0;paint-order:normal;stop-color:#000000"
             d="m 2338.1016,847.43164 c -10.201,-0.41234 -23.017,24.26106 -33.3555,30.62305 4.2155,2.53533 8.4361,5.0661 12.6621,7.58398 19.2697,9.08868 36.6385,28.09036 59.5449,25.00586 0.5627,-14.3358 -21.6928,-37.61287 -30.3652,-54.53711 -2.4869,-6.07295 -5.3636,-8.54955 -8.4863,-8.67578 z m -53.7657,59.2207 c -10.6274,0.69823 -15.9059,22.30057 -13.7421,34.64258 6.9587,22.11343 22.2272,40.77278 33.123,61.14458 4.3005,2.5879 8.6048,5.1702 12.916,7.7402 20.2511,9.5445 38.9709,30.2947 63.2344,24.9492 37.9247,-3.814 4.9235,-33.914 -4.0957,-52.7891 -16.6871,-15.65946 -5.5745,-26.45377 3.9726,-42.25777 10.6542,-18.02624 -6.049,-19.79103 -18.8515,-11.42187 -20.251,26.09285 -42.2723,-5.54513 -64.2246,-14.61914 -4.6534,-5.52984 -8.7896,-7.62142 -12.3321,-7.38868 z m 114.6211,21.99219 c -3.441,0.20234 -5.0339,3.63952 -3.3613,12.64063 6.7641,21.76542 21.813,40.09314 32.5059,60.12504 5.7685,-5.4049 11.4344,-10.9197 17.0351,-16.4981 21.5321,-13.49181 13.7874,-24.29729 -7.2305,-33.2871 -9.2903,-2.8848 -30.1554,-23.49756 -38.9492,-22.98047 z" />
        </g>
      </g>
    </g>
  </g>
</svg>
