<?xml version="1.0" encoding="UTF-8" standalone="no"?>
<!-- Created with Inkscape (http://www.inkscape.org/) -->

<svg
   width="240"
   height="240"
   viewBox="0 0 240 240"
   version="1.1"
   id="svg5"
   inkscape:version="1.1 (c4e8f9ed74, 2021-05-24)"
   sodipodi:docname="Lessons_55_.svg"
   xmlns:inkscape="http://www.inkscape.org/namespaces/inkscape"
   xmlns:sodipodi="http://sodipodi.sourceforge.net/DTD/sodipodi-0.dtd"
   xmlns:xlink="http://www.w3.org/1999/xlink"
   xmlns="http://www.w3.org/2000/svg"
   xmlns:svg="http://www.w3.org/2000/svg">
  <sodipodi:namedview
     id="namedview7"
     pagecolor="#ededed"
     bordercolor="#666666"
     borderopacity="1.0"
     inkscape:pageshadow="2"
     inkscape:pageopacity="0"
     inkscape:pagecheckerboard="0"
     inkscape:document-units="px"
     showgrid="false"
     units="px"
     scale-x="1"
     inkscape:showpageshadow="false"
     inkscape:snap-page="true"
     inkscape:snap-nodes="true"
     inkscape:snap-bbox="true"
     inkscape:bbox-nodes="true"
     inkscape:snap-intersection-paths="true"
     showborder="false"
     inkscape:zoom="2.9361975"
     inkscape:cx="118.52064"
     inkscape:cy="161.77386"
     inkscape:window-width="1920"
     inkscape:window-height="1017"
     inkscape:window-x="0"
     inkscape:window-y="0"
     inkscape:window-maximized="1"
     inkscape:current-layer="g3850" />
  <defs
     id="defs2">
    <linearGradient
       inkscape:collect="always"
       id="linearGradient4216">
      <stop
         style="stop-color:#bcb2b2;stop-opacity:1"
         offset="0"
         id="stop4212" />
      <stop
         style="stop-color:#06030e;stop-opacity:1"
         offset="1"
         id="stop4214" />
    </linearGradient>
    <linearGradient
       inkscape:collect="always"
       id="linearGradient3234">
      <stop
         style="stop-color:#252588;stop-opacity:1"
         offset="0"
         id="stop3230" />
      <stop
         style="stop-color:#120c0c;stop-opacity:1"
         offset="1"
         id="stop3232" />
    </linearGradient>
    <radialGradient
       inkscape:collect="always"
       xlink:href="#linearGradient3234"
       id="radialGradient3236"
       cx="120"
       cy="120"
       fx="120"
       fy="120"
       r="75"
       gradientUnits="userSpaceOnUse" />
    <linearGradient
       inkscape:collect="always"
       xlink:href="#linearGradient4216"
       id="linearGradient4052"
       gradientUnits="userSpaceOnUse"
       x1="0"
       y1="0"
       x2="100"
       y2="100" />
    <linearGradient
       inkscape:collect="always"
       xlink:href="#linearGradient4216"
       id="linearGradient4371"
       x1="240"
       y1="0"
       x2="140"
       y2="100"
       gradientUnits="userSpaceOnUse" />
    <linearGradient
       inkscape:collect="always"
       xlink:href="#linearGradient4216"
       id="linearGradient4590"
       x1="240"
       y1="240"
       x2="140"
       y2="140"
       gradientUnits="userSpaceOnUse" />
    <linearGradient
       inkscape:collect="always"
       xlink:href="#linearGradient4216"
       id="linearGradient4636"
       x1="0"
       y1="240"
       x2="100"
       y2="140"
       gradientUnits="userSpaceOnUse" />
  </defs>
  <g
     inkscape:label="Layer_I"
     inkscape:groupmode="layer"
     id="layer1"
     sodipodi:insensitive="true">
    <rect
       style="fill:#ff9955;fill-opacity:0;stroke:none;stroke-width:10"
       id="rect846"
       width="3840"
       height="2160"
       x="0"
       y="0"
       rx="0"
       ry="0"
       sodipodi:insensitive="true"
       inkscape:label="Background" />
  </g>
  <g
     inkscape:groupmode="layer"
     id="layer2"
     inkscape:label="Layer_II">
    <g
       id="g3850">
      <path
         style="display:inline;fill:url(#linearGradient4590);fill-rule:evenodd;stroke-linecap:round;stroke-linejoin:round;paint-order:fill markers stroke;stop-color:#000000;fill-opacity:1"
         d="M 197.14844,140 A 80,80 0 0 1 140,197.14844 V 240 H 240 V 140 Z"
         id="path3814" />
      <path
         style="display:inline;fill:url(#linearGradient4636);fill-rule:evenodd;stroke-linecap:round;stroke-linejoin:round;paint-order:fill markers stroke;stop-color:#000000;fill-opacity:1"
         d="M 0,140 V 240 H 100 V 197.14844 A 80,80 0 0 1 42.851562,140 Z"
         id="path3812" />
      <path
         style="display:inline;fill:url(#linearGradient4371);fill-rule:evenodd;stroke-linecap:round;stroke-linejoin:round;paint-order:fill markers stroke;stop-color:#000000;fill-opacity:1"
         d="M 140,0 V 42.5625 A 80,80 0 0 1 197.4375,100 H 240 V 0 Z"
         id="path3810" />
      <path
         style="display:inline;fill:url(#linearGradient4052);fill-rule:evenodd;stroke-linecap:round;stroke-linejoin:round;paint-order:fill markers stroke;stop-color:#000000;fill-opacity:1.0"
         d="M 0,0 V 100 H 42.851562 A 80,80 0 0 1 100,42.851562 V 0 Z"
         id="rect975" />
    </g>
    <path
       id="path1160"
       style="color:#000000;display:inline;fill:url(#radialGradient3236);fill-opacity:1;fill-rule:evenodd;stroke-linecap:round;stroke-linejoin:round;-inkscape-stroke:none;paint-order:fill markers stroke"
       d="m 120,45 a 75,75 0 0 0 -7.34375,0.525391 l 3.17969,9.998047 3.60937,-1.431641 c 6.80495,-0.05178 14.70229,9.464828 21.97657,23.398437 10.29926,-1.777276 19.83655,-2.531172 27.47851,-1.863281 l -6.9375,-17.779297 A 75,75 0 0 0 120,45 Z m 48.90039,30.626953 4.40625,11.292969 11.92188,-3.894531 a 75,75 0 0 0 -0.95118,-1.666016 c -2.91696,-3.309518 -8.34384,-5.117743 -15.37695,-5.732422 z m 4.40625,11.292969 -24.09961,7.871094 c 3.56517,8.979414 6.73222,18.633604 9.27344,28.275394 l 25.66601,-8.36719 z m 10.83984,27.779298 1.80469,4.625 c 0.0612,6.82375 -9.46203,14.73117 -23.41015,22.00781 1.75229,10.12776 2.51668,19.52533 1.89843,27.08985 l 18.12305,-7.16407 A 75,75 0 0 0 195,120 a 75,75 0 0 0 -0.52344,-8.66797 z m -19.70703,53.72266 -11.27734,4.45703 3.86133,12.14062 a 75,75 0 0 0 1.5039,-0.82226 c 3.45466,-2.91895 5.31743,-8.49914 5.91211,-15.77539 z m -11.27734,4.45703 -7.59766,-23.89258 c -9.3481,3.72308 -19.45055,7.02505 -29.5039,9.62695 l 8.13086,25.71484 z m -28.9707,11.44921 -3.60547,1.42579 c -6.79475,0.0517 -14.66015,-9.43611 -21.89844,-23.33789 -10.312809,1.77703 -19.858433,2.52058 -27.501953,1.83789 l 6.929687,17.83984 A 75,75 0 0 0 120,195 a 75,75 0 0 0 7.39844,-0.5293 z m -53.005863,-20.07421 -4.388672,-11.29493 -11.914063,3.88477 a 75,75 0 0 0 0.779297,1.42773 c 2.857257,3.46091 8.355405,5.3422 15.523438,5.98243 z m -4.388672,-11.29493 24.123047,-7.86523 c -3.546763,-8.9722 -6.69215,-18.61887 -9.216797,-28.25586 l -25.679687,8.38672 z m -10.773437,-27.73437 -1.837891,-4.73047 c -0.05185,-6.81322 9.498602,-14.71315 23.474609,-21.982421 -1.736825,-10.140675 -2.486069,-19.54786 -1.853515,-27.119141 l -18.298829,7.25586 A 75,75 0 0 0 45,120 a 75,75 0 0 0 0.617188,8.62305 z M 75.806641,71.392578 87.072266,66.927734 83.248047,54.833984 a 75,75 0 0 0 -1.605469,0.876954 c -3.393232,2.938878 -5.23412,8.478261 -5.835937,15.68164 z M 87.072266,66.927734 94.642578,90.875 c 9.316152,-3.701331 19.377512,-6.984044 29.392582,-9.576172 l -8.19922,-25.77539 z m 36.962894,14.371094 6.25586,19.669922 18.91601,-6.177734 c -2.45858,-6.192325 -5.06091,-12.082587 -7.78515,-17.300782 -5.63666,0.972681 -11.48565,2.281262 -17.38672,3.808594 z m 6.25586,19.669922 -29.41797,9.60742 8.96289,28.34961 29.47265,-9.60742 z m 9.01757,28.34961 6.25586,19.66797 c 6.07405,-2.41912 11.84787,-4.9787 16.97657,-7.6543 -1.02356,-5.91585 -2.42668,-12.06647 -4.06055,-18.26562 z m -29.47265,9.60742 -18.916018,6.16797 c 2.45156,6.20168 5.04835,12.09975 7.767578,17.32227 5.63195,-0.97046 11.47621,-2.27658 17.37305,-3.80274 z M 100.87305,110.57617 94.642578,90.875 c -6.07493,2.413586 -11.850287,4.967367 -16.982422,7.636719 1.016412,5.934451 2.413871,12.107641 4.042969,18.326171 z" />
  </g>
</svg>
