<?xml version="1.0" encoding="UTF-8" standalone="no"?>
<!-- Created with Inkscape (http://www.inkscape.org/) -->

<svg
   width="240"
   height="240"
   viewBox="0 0 240 240"
   version="1.1"
   id="svg5"
   inkscape:version="1.1.1 (3bf5ae0d25, 2021-09-20)"
   sodipodi:docname="Patter_file95.svg"
   xmlns:inkscape="http://www.inkscape.org/namespaces/inkscape"
   xmlns:sodipodi="http://sodipodi.sourceforge.net/DTD/sodipodi-0.dtd"
   xmlns="http://www.w3.org/2000/svg"
   xmlns:svg="http://www.w3.org/2000/svg">
  <sodipodi:namedview
     id="namedview7"
     pagecolor="#ededed"
     bordercolor="#666666"
     borderopacity="1.0"
     inkscape:pageshadow="2"
     inkscape:pageopacity="0"
     inkscape:pagecheckerboard="0"
     inkscape:document-units="px"
     showgrid="false"
     units="px"
     scale-x="1"
     inkscape:showpageshadow="false"
     inkscape:snap-page="true"
     inkscape:snap-nodes="true"
     width="240px"
     showguides="false"
     inkscape:guide-bbox="true"
     inkscape:snap-object-midpoints="true"
     inkscape:snap-smooth-nodes="true"
     inkscape:snap-midpoints="false"
     inkscape:zoom="3.1782145"
     inkscape:cx="133.56556"
     inkscape:cy="125.07022"
     inkscape:window-width="1920"
     inkscape:window-height="1047"
     inkscape:window-x="0"
     inkscape:window-y="0"
     inkscape:window-maximized="1"
     inkscape:current-layer="layer2"
     inkscape:snap-others="true"
     inkscape:snap-bbox="true"
     inkscape:bbox-nodes="true"
     inkscape:snap-center="false"
     inkscape:snap-bbox-midpoints="true">
    <sodipodi:guide
       position="60,180"
       orientation="-1,0"
       id="guide823"
       inkscape:label=""
       inkscape:locked="true"
       inkscape:color="rgb(0,0,255)" />
    <sodipodi:guide
       position="180,180"
       orientation="0,1"
       id="guide861"
       inkscape:label=""
       inkscape:locked="true"
       inkscape:color="rgb(0,0,255)" />
    <sodipodi:guide
       position="180,60"
       orientation="-1,0"
       id="guide863"
       inkscape:label=""
       inkscape:locked="true"
       inkscape:color="rgb(0,0,255)" />
    <sodipodi:guide
       position="60,60"
       orientation="0,1"
       id="guide883"
       inkscape:label=""
       inkscape:locked="true"
       inkscape:color="rgb(0,0,255)" />
    <sodipodi:guide
       position="120,120"
       orientation="-1,0"
       id="guide193509"
       inkscape:label=""
       inkscape:locked="true"
       inkscape:color="rgb(0,0,255)" />
    <sodipodi:guide
       position="120,120"
       orientation="0,-1"
       id="guide193529" />
  </sodipodi:namedview>
  <defs
     id="defs2">
    <inkscape:path-effect
       effect="bspline"
       id="path-effect3041"
       is_visible="true"
       lpeversion="1"
       weight="33.333333"
       steps="2"
       helper_size="0"
       apply_no_weight="true"
       apply_with_weight="true"
       only_selected="false" />
  </defs>
  <g
     inkscape:label="Layer_I"
     inkscape:groupmode="layer"
     id="layer1"
     sodipodi:insensitive="true">
    <rect
       style="fill:#ff9955;fill-opacity:0;stroke:none;stroke-width:10"
       id="rect846"
       width="3840"
       height="2160"
       x="0"
       y="0"
       rx="0"
       ry="0"
       sodipodi:insensitive="true"
       inkscape:label="Background" />
  </g>
  <g
     inkscape:groupmode="layer"
     id="layer2"
     inkscape:label="Layer_II">
    <g
       id="g194089"
       style="display:inline;stroke:#37c871;stroke-width:2">
      <g
         id="g193627"
         style="display:inline;fill:none;stroke:#37c871;stroke-width:1.69332;stroke-linecap:square;stroke-linejoin:miter;stroke-opacity:1;paint-order:normal"
         transform="matrix(-0.83586145,-0.83586145,-0.834485,0.834485,274.35871,65.737282)">
        <path
           id="path193607"
           style="fill:none;fill-opacity:1;fill-rule:evenodd;stroke:#37c871;stroke-width:1.69332;stroke-linecap:square;stroke-linejoin:miter;stroke-miterlimit:0;stroke-opacity:1;paint-order:normal;stop-color:#000000"
           d="M 60,15.001953 A 50,50 0 0 0 22.212891,32.257812 50,50 0 0 0 10,65.001953 V 125 185 A 50,50 0 0 0 60,235 50,50 0 0 0 97.787109,217.74219 50,50 0 0 0 110,185 V 125 65.001953 a 50,50 0 0 0 -50,-50 z" />
        <path
           id="path193609"
           style="display:inline;fill:none;fill-opacity:1;fill-rule:evenodd;stroke:#37c871;stroke-width:1.69332;stroke-linecap:square;stroke-linejoin:miter;stroke-miterlimit:0;stroke-opacity:1;paint-order:normal;stop-color:#000000"
           d="M 60,20 A 45,45 0 0 0 25.992188,35.53125 45,45 0 0 0 15,65.001953 V 125 185 A 45,45 0 0 0 60,230 45,45 0 0 0 94.007812,214.46875 45,45 0 0 0 105,185 V 125 65.001953 A 45,45 0 0 0 60,20 Z" />
        <path
           id="path193611"
           style="display:inline;fill:none;fill-rule:evenodd;stroke:#37c871;stroke-width:1.69332;stroke-linecap:square;stroke-linejoin:miter;stroke-miterlimit:0;stroke-opacity:1;paint-order:normal;stop-color:#000000"
           d="M 60,25 A 40,40 0 0 0 29.769531,38.806641 40,40 0 0 0 20,65 v 59.99805 0.004 V 185 A 40,40 0 0 0 60,225 40,40 0 0 0 90.230469,211.19336 40,40 0 0 0 100,185 v -59.99805 -0.004 V 65 A 40,40 0 0 0 60,25 Z" />
        <path
           id="path193613"
           style="display:inline;fill:none;fill-rule:evenodd;stroke:#37c871;stroke-width:1.69332;stroke-linecap:square;stroke-linejoin:miter;stroke-miterlimit:0;stroke-opacity:1;paint-order:normal;stop-color:#000000"
           d="M 60,30 A 35,35 0 0 0 33.548828,42.080078 35,35 0 0 0 25,65 v 60 60 A 35,35 0 0 0 60,220.00195 35,35 0 0 0 86.451172,207.92188 35,35 0 0 0 95,185 L 94.998,125 95,65 A 35,35 0 0 0 60,30 Z" />
        <path
           id="path193615"
           style="display:inline;fill:none;fill-rule:evenodd;stroke:#37c871;stroke-width:1.69332;stroke-linecap:square;stroke-linejoin:miter;stroke-miterlimit:0;stroke-opacity:1;paint-order:normal;stop-color:#000000"
           d="M 60,35.001953 A 30.000001,30.000001 0 0 0 37.326172,45.355469 30.000001,30.000001 0 0 0 30,65.001953 V 125 185 A 30.000001,30.000001 0 0 0 60,214.99805 30.000001,30.000001 0 0 0 82.673828,204.64453 30.000001,30.000001 0 0 0 90,185 V 125 65.001953 a 30.000001,30.000001 0 0 0 -30,-30 z" />
        <path
           id="path193617"
           style="display:inline;fill:none;fill-rule:evenodd;stroke:#37c871;stroke-width:1.69332;stroke-linecap:square;stroke-linejoin:miter;stroke-miterlimit:0;stroke-opacity:1;paint-order:normal;stop-color:#000000"
           d="M 60,40.001953 A 25,25 0 0 0 41.105469,48.628906 25,25 0 0 0 35,65.001953 V 125 185 A 25,25 0 0 0 60,210 25,25 0 0 0 78.894531,201.37109 25,25 0 0 0 85,185 V 125 65.001953 a 25,25 0 0 0 -25,-25 z" />
        <path
           id="path193619"
           style="display:inline;fill:none;fill-rule:evenodd;stroke:#37c871;stroke-width:1.69332;stroke-linecap:square;stroke-linejoin:miter;stroke-miterlimit:0;stroke-opacity:1;paint-order:normal;stop-color:#000000"
           d="M 60,45 A 20,20 0 0 0 44.884766,51.902344 20,20 0 0 0 40,65.001953 V 125 185 A 20,20 0 0 0 60,205 20,20 0 0 0 75.115234,198.09766 20,20 0 0 0 80,185 V 125 65.001953 A 20,20 0 0 0 60,45 Z" />
        <path
           id="path193621"
           style="display:inline;fill:none;fill-rule:evenodd;stroke:#37c871;stroke-width:1.69332;stroke-linecap:square;stroke-linejoin:miter;stroke-miterlimit:0;stroke-opacity:1;paint-order:normal;stop-color:#000000"
           d="M 60,50 A 15.000001,15.000001 0 0 0 48.662109,55.177734 15.000001,15.000001 0 0 0 45,65 v 59.99805 0.004 V 185 A 15.000001,15.000001 0 0 0 60,200 15.000001,15.000001 0 0 0 71.337891,194.82227 15.000001,15.000001 0 0 0 75,185 v -59.99805 -0.004 V 65 A 15.000001,15.000001 0 0 0 60,50 Z" />
        <path
           id="path193623"
           style="display:inline;fill:none;fill-rule:evenodd;stroke:#37c871;stroke-width:1.69332;stroke-linecap:square;stroke-linejoin:miter;stroke-miterlimit:0;stroke-opacity:1;paint-order:normal;stop-color:#000000"
           d="M 60,55 A 10,10 0 0 0 52.443359,58.453125 10,10 0 0 0 50,65 v 59.99805 0.004 V 185 a 10,10 0 0 0 10,10.00195 10,10 0 0 0 7.556641,-3.45312 A 10,10 0 0 0 70,185 v -59.99805 -0.004 V 65 A 10,10 0 0 0 60,55 Z" />
        <path
           id="path193625"
           style="display:inline;fill:none;fill-rule:evenodd;stroke:#37c871;stroke-width:1.69332;stroke-linecap:square;stroke-linejoin:miter;stroke-miterlimit:0;stroke-opacity:1;paint-order:normal;stop-color:#000000"
           d="M 60,60.001953 A 4.9999999,4.9999999 0 0 0 56.220703,61.724609 4.9999999,4.9999999 0 0 0 55,65.001953 V 125 185 a 4.9999999,4.9999999 0 0 0 5,4.99805 4.9999999,4.9999999 0 0 0 3.779297,-1.72266 A 4.9999999,4.9999999 0 0 0 65,185 V 125 65.001953 a 4.9999999,4.9999999 0 0 0 -5,-5 z" />
      </g>
      <g
         id="g193865"
         style="display:inline;fill:none;stroke:#37c871;stroke-width:1.69332;stroke-linecap:square;stroke-linejoin:miter;stroke-opacity:1;paint-order:normal"
         transform="matrix(0.83586145,-0.83586145,0.834485,0.834485,-34.566131,65.737282)">
        <path
           id="path193845"
           style="fill:none;fill-opacity:1;fill-rule:evenodd;stroke:#37c871;stroke-width:1.69332;stroke-linecap:square;stroke-linejoin:miter;stroke-miterlimit:0;stroke-opacity:1;paint-order:normal;stop-color:#000000"
           d="M 60,15.001953 A 50,50 0 0 0 22.212891,32.257812 50,50 0 0 0 10,65.001953 V 125 185 A 50,50 0 0 0 60,235 50,50 0 0 0 97.787109,217.74219 50,50 0 0 0 110,185 V 125 65.001953 a 50,50 0 0 0 -50,-50 z" />
        <path
           id="path193847"
           style="display:inline;fill:none;fill-opacity:1;fill-rule:evenodd;stroke:#37c871;stroke-width:1.69332;stroke-linecap:square;stroke-linejoin:miter;stroke-miterlimit:0;stroke-opacity:1;paint-order:normal;stop-color:#000000"
           d="M 60,20 A 45,45 0 0 0 25.992188,35.53125 45,45 0 0 0 15,65.001953 V 125 185 A 45,45 0 0 0 60,230 45,45 0 0 0 94.007812,214.46875 45,45 0 0 0 105,185 V 125 65.001953 A 45,45 0 0 0 60,20 Z" />
        <path
           id="path193849"
           style="display:inline;fill:none;fill-rule:evenodd;stroke:#37c871;stroke-width:1.69332;stroke-linecap:square;stroke-linejoin:miter;stroke-miterlimit:0;stroke-opacity:1;paint-order:normal;stop-color:#000000"
           d="M 60,25 A 40,40 0 0 0 29.769531,38.806641 40,40 0 0 0 20,65 v 59.99805 0.004 V 185 A 40,40 0 0 0 60,225 40,40 0 0 0 90.230469,211.19336 40,40 0 0 0 100,185 v -59.99805 -0.004 V 65 A 40,40 0 0 0 60,25 Z" />
        <path
           id="path193851"
           style="display:inline;fill:none;fill-rule:evenodd;stroke:#37c871;stroke-width:1.69332;stroke-linecap:square;stroke-linejoin:miter;stroke-miterlimit:0;stroke-opacity:1;paint-order:normal;stop-color:#000000"
           d="M 60,30 A 35,35 0 0 0 33.548828,42.080078 35,35 0 0 0 25,65 v 60 60 A 35,35 0 0 0 60,220.00195 35,35 0 0 0 86.451172,207.92188 35,35 0 0 0 95,185 L 94.998,125 95,65 A 35,35 0 0 0 60,30 Z" />
        <path
           id="path193853"
           style="display:inline;fill:none;fill-rule:evenodd;stroke:#37c871;stroke-width:1.69332;stroke-linecap:square;stroke-linejoin:miter;stroke-miterlimit:0;stroke-opacity:1;paint-order:normal;stop-color:#000000"
           d="M 60,35.001953 A 30.000001,30.000001 0 0 0 37.326172,45.355469 30.000001,30.000001 0 0 0 30,65.001953 V 125 185 A 30.000001,30.000001 0 0 0 60,214.99805 30.000001,30.000001 0 0 0 82.673828,204.64453 30.000001,30.000001 0 0 0 90,185 V 125 65.001953 a 30.000001,30.000001 0 0 0 -30,-30 z" />
        <path
           id="path193855"
           style="display:inline;fill:none;fill-rule:evenodd;stroke:#37c871;stroke-width:1.69332;stroke-linecap:square;stroke-linejoin:miter;stroke-miterlimit:0;stroke-opacity:1;paint-order:normal;stop-color:#000000"
           d="M 60,40.001953 A 25,25 0 0 0 41.105469,48.628906 25,25 0 0 0 35,65.001953 V 125 185 A 25,25 0 0 0 60,210 25,25 0 0 0 78.894531,201.37109 25,25 0 0 0 85,185 V 125 65.001953 a 25,25 0 0 0 -25,-25 z" />
        <path
           id="path193857"
           style="display:inline;fill:none;fill-rule:evenodd;stroke:#37c871;stroke-width:1.69332;stroke-linecap:square;stroke-linejoin:miter;stroke-miterlimit:0;stroke-opacity:1;paint-order:normal;stop-color:#000000"
           d="M 60,45 A 20,20 0 0 0 44.884766,51.902344 20,20 0 0 0 40,65.001953 V 125 185 A 20,20 0 0 0 60,205 20,20 0 0 0 75.115234,198.09766 20,20 0 0 0 80,185 V 125 65.001953 A 20,20 0 0 0 60,45 Z" />
        <path
           id="path193859"
           style="display:inline;fill:none;fill-rule:evenodd;stroke:#37c871;stroke-width:1.69332;stroke-linecap:square;stroke-linejoin:miter;stroke-miterlimit:0;stroke-opacity:1;paint-order:normal;stop-color:#000000"
           d="M 60,50 A 15.000001,15.000001 0 0 0 48.662109,55.177734 15.000001,15.000001 0 0 0 45,65 v 59.99805 0.004 V 185 A 15.000001,15.000001 0 0 0 60,200 15.000001,15.000001 0 0 0 71.337891,194.82227 15.000001,15.000001 0 0 0 75,185 v -59.99805 -0.004 V 65 A 15.000001,15.000001 0 0 0 60,50 Z" />
        <path
           id="path193861"
           style="display:inline;fill:none;fill-rule:evenodd;stroke:#37c871;stroke-width:1.69332;stroke-linecap:square;stroke-linejoin:miter;stroke-miterlimit:0;stroke-opacity:1;paint-order:normal;stop-color:#000000"
           d="M 60,55 A 10,10 0 0 0 52.443359,58.453125 10,10 0 0 0 50,65 v 59.99805 0.004 V 185 a 10,10 0 0 0 10,10.00195 10,10 0 0 0 7.556641,-3.45312 A 10,10 0 0 0 70,185 v -59.99805 -0.004 V 65 A 10,10 0 0 0 60,55 Z" />
        <path
           id="path193863"
           style="display:inline;fill:none;fill-rule:evenodd;stroke:#37c871;stroke-width:1.69332;stroke-linecap:square;stroke-linejoin:miter;stroke-miterlimit:0;stroke-opacity:1;paint-order:normal;stop-color:#000000"
           d="M 60,60.001953 A 4.9999999,4.9999999 0 0 0 56.220703,61.724609 4.9999999,4.9999999 0 0 0 55,65.001953 V 125 185 a 4.9999999,4.9999999 0 0 0 5,4.99805 4.9999999,4.9999999 0 0 0 3.779297,-1.72266 A 4.9999999,4.9999999 0 0 0 65,185 V 125 65.001953 a 4.9999999,4.9999999 0 0 0 -5,-5 z" />
      </g>
    </g>
  </g>
</svg>
