<?xml version="1.0" encoding="UTF-8" standalone="no"?>
<!-- Created with Inkscape (http://www.inkscape.org/) -->

<svg
   width="240"
   height="240"
   viewBox="0 0 240 240"
   version="1.1"
   id="svg5"
   inkscape:version="1.1.1 (3bf5ae0d25, 2021-09-20)"
   sodipodi:docname="Patter_file74.svg"
   xmlns:inkscape="http://www.inkscape.org/namespaces/inkscape"
   xmlns:sodipodi="http://sodipodi.sourceforge.net/DTD/sodipodi-0.dtd"
   xmlns="http://www.w3.org/2000/svg"
   xmlns:svg="http://www.w3.org/2000/svg">
  <sodipodi:namedview
     id="namedview7"
     pagecolor="#ededed"
     bordercolor="#666666"
     borderopacity="1.0"
     inkscape:pageshadow="2"
     inkscape:pageopacity="0"
     inkscape:pagecheckerboard="0"
     inkscape:document-units="px"
     showgrid="false"
     units="px"
     scale-x="1"
     inkscape:showpageshadow="false"
     inkscape:snap-page="true"
     inkscape:snap-nodes="true"
     inkscape:snap-intersection-paths="true"
     inkscape:zoom="3.5458333"
     inkscape:cx="238.73091"
     inkscape:cy="120"
     inkscape:window-width="1920"
     inkscape:window-height="1047"
     inkscape:window-x="0"
     inkscape:window-y="0"
     inkscape:window-maximized="1"
     inkscape:current-layer="g1976"
     width="240px"
     inkscape:snap-bbox="true"
     inkscape:bbox-paths="false"
     inkscape:snap-others="false"
     inkscape:snap-smooth-nodes="true"
     inkscape:bbox-nodes="true"
     inkscape:snap-bbox-midpoints="true"
     inkscape:snap-midpoints="true"
     inkscape:object-paths="false"
     inkscape:snap-bbox-edge-midpoints="true" />
  <defs
     id="defs2" />
  <g
     inkscape:label="Layer_I"
     inkscape:groupmode="layer"
     id="layer1"
     sodipodi:insensitive="true">
    <rect
       style="fill:#ff9955;fill-opacity:0;stroke:none;stroke-width:10"
       id="rect846"
       width="3840"
       height="2160"
       x="0"
       y="0"
       rx="0"
       ry="0"
       sodipodi:insensitive="true"
       inkscape:label="Background" />
  </g>
  <g
     inkscape:groupmode="layer"
     id="layer2"
     inkscape:label="Layer_II">
    <g
       id="g1976"
       style="display:inline;stroke-width:1.22889"
       transform="matrix(0.82010566,0,0,0.80742664,15.398773,-20.156192)">
      <path
         sodipodi:type="spiral"
         style="fill:#00ffff;fill-rule:evenodd;stroke:#ff0000;stroke-width:4.86947"
         id="path1685"
         sodipodi:cx="0"
         sodipodi:cy="240"
         sodipodi:expansion="1.71"
         sodipodi:revolution="4.8099999"
         sodipodi:radius="30.140303"
         sodipodi:argument="-30.96405"
         sodipodi:t0="0.58368498"
         d="m 8.7214672,231.75237 c 5.3930728,4.6985 5.4581088,13.10026 0.8213858,18.33874 -5.4443124,6.15088 -15.0946168,6.19895 -21.085529,0.82445 -6.949738,-6.23468 -6.978444,-17.20542 -0.821311,-23.98988 7.0686045,-7.7888 19.4300771,-7.79581 27.048356,-0.81224 8.667292,7.94519 8.650349,21.76626 0.797457,30.25785 -8.8636053,9.5845 -24.2118255,9.54141 -33.615497,0.77717 -10.539777,-9.8231 -10.468408,-26.76481 -0.751557,-37.11868 10.8229669,-11.5325 29.423388,-11.43077 40.764962,-0.72078 0.113735,0.10741 0.226633,0.21569 0.33868,0.32485"
         transform="matrix(0,-1.0622559,0.95929867,0,-219.63707,290.84743)" />
      <path
         sodipodi:type="spiral"
         style="fill:#00ffff;fill-rule:evenodd;stroke:#ff0000;stroke-width:4.86947"
         id="path1234"
         sodipodi:cx="0"
         sodipodi:cy="240"
         sodipodi:expansion="1.71"
         sodipodi:revolution="4.8099999"
         sodipodi:radius="30.140303"
         sodipodi:argument="-30.96405"
         sodipodi:t0="0.58368498"
         d="m 8.7214672,231.75237 c 5.3930728,4.6985 5.4581088,13.10026 0.8213858,18.33874 -5.4443124,6.15088 -15.0946168,6.19895 -21.085529,0.82445 -6.949738,-6.23468 -6.978444,-17.20542 -0.821311,-23.98988 7.0686045,-7.7888 19.4300771,-7.79581 27.048356,-0.81224 8.667292,7.94519 8.650349,21.76626 0.797457,30.25785 -8.8636053,9.5845 -24.2118255,9.54141 -33.615497,0.77717 -10.539777,-9.8231 -10.468408,-26.76481 -0.751557,-37.11868 10.8229669,-11.5325 29.423388,-11.43077 40.764962,-0.72078 0.113735,0.10741 0.226633,0.21569 0.33868,0.32485"
         transform="matrix(1.0458332,0,0,0.97436254,11.081012,-178.5668)" />
      <path
         sodipodi:type="spiral"
         style="fill:#00ffff;fill-rule:evenodd;stroke:#ff0000;stroke-width:4.86947"
         id="path1236"
         sodipodi:cx="0"
         sodipodi:cy="240"
         sodipodi:expansion="1.71"
         sodipodi:revolution="4.8099999"
         sodipodi:radius="30.140303"
         sodipodi:argument="-30.96405"
         sodipodi:t0="0.58368498"
         d="m 8.7214672,231.75237 c 5.3930728,4.6985 5.4581088,13.10026 0.8213858,18.33874 -5.4443124,6.15088 -15.0946168,6.19895 -21.085529,0.82445 -6.949738,-6.23468 -6.978444,-17.20542 -0.821311,-23.98988 7.0686045,-7.7888 19.4300771,-7.79581 27.048356,-0.81224 8.667292,7.94519 8.650349,21.76626 0.797457,30.25785 -8.8636053,9.5845 -24.2118255,9.54141 -33.615497,0.77717 -10.539777,-9.8231 -10.468408,-26.76481 -0.751557,-37.11868 10.8229669,-11.5325 29.423388,-11.43077 40.764962,-0.72078 0.113735,0.10741 0.226633,0.21569 0.33868,0.32485"
         transform="matrix(0,1.0622559,-0.95929867,0,473.86404,54.895585)" />
      <path
         sodipodi:type="spiral"
         style="fill:#00ffff;fill-rule:evenodd;stroke:#ff0000;stroke-width:4.86947"
         id="path1238"
         sodipodi:cx="0"
         sodipodi:cy="240"
         sodipodi:expansion="1.71"
         sodipodi:revolution="4.8099999"
         sodipodi:radius="30.140303"
         sodipodi:argument="-30.96405"
         sodipodi:t0="0.58368498"
         d="m 8.7214672,231.75237 c 5.3930728,4.6985 5.4581088,13.10026 0.8213858,18.33874 -5.4443124,6.15088 -15.0946168,6.19895 -21.085529,0.82445 -6.949738,-6.23468 -6.978444,-17.20542 -0.821311,-23.98988 7.0686045,-7.7888 19.4300771,-7.79581 27.048356,-0.81224 8.667292,7.94519 8.650349,21.76626 0.797457,30.25785 -8.8636053,9.5845 -24.2118255,9.54141 -33.615497,0.77717 -10.539777,-9.8231 -10.468408,-26.76481 -0.751557,-37.11868 10.8229669,-11.5325 29.423388,-11.43077 40.764962,-0.72078 0.113735,0.10741 0.226633,0.21569 0.33868,0.32485"
         transform="matrix(-1.0458332,0,0,-0.97436254,244.01106,525.73442)" />
      <path
         sodipodi:type="spiral"
         style="fill:#00ffff;fill-rule:evenodd;stroke:#ff0000;stroke-width:4.86947"
         id="path1240"
         sodipodi:cx="0"
         sodipodi:cy="240"
         sodipodi:expansion="1.71"
         sodipodi:revolution="4.8099999"
         sodipodi:radius="30.140303"
         sodipodi:argument="-30.96405"
         sodipodi:t0="0.58368498"
         d="m 8.7214672,231.75237 c 5.3930728,4.6985 5.4581088,13.10026 0.8213858,18.33874 -5.4443124,6.15088 -15.0946168,6.19895 -21.085529,0.82445 -6.949738,-6.23468 -6.978444,-17.20542 -0.821311,-23.98988 7.0686045,-7.7888 19.4300771,-7.79581 27.048356,-0.81224 8.667292,7.94519 8.650349,21.76626 0.797457,30.25785 -8.8636053,9.5845 -24.2118255,9.54141 -33.615497,0.77717 -10.539777,-9.8231 -10.468408,-26.76481 -0.751557,-37.11868 10.8229669,-11.5325 29.423388,-11.43077 40.764962,-0.72078 0.113735,0.10741 0.226633,0.21569 0.33868,0.32485"
         transform="matrix(1.0458332,0,0,0.97436254,65.086942,5.7837477)" />
      <path
         sodipodi:type="spiral"
         style="fill:#00ffff;fill-rule:evenodd;stroke:#ff0000;stroke-width:4.86947"
         id="path1242"
         sodipodi:cx="0"
         sodipodi:cy="240"
         sodipodi:expansion="1.71"
         sodipodi:revolution="4.8099999"
         sodipodi:radius="30.140303"
         sodipodi:argument="-30.96405"
         sodipodi:t0="0.58368498"
         d="m 8.7214672,231.75237 c 5.3930728,4.6985 5.4581088,13.10026 0.8213858,18.33874 -5.4443124,6.15088 -15.0946168,6.19895 -21.085529,0.82445 -6.949738,-6.23468 -6.978444,-17.20542 -0.821311,-23.98988 7.0686045,-7.7888 19.4300771,-7.79581 27.048356,-0.81224 8.667292,7.94519 8.650349,21.76626 0.797457,30.25785 -8.8636053,9.5845 -24.2118255,9.54141 -33.615497,0.77717 -10.539777,-9.8231 -10.468408,-26.76481 -0.751557,-37.11868 10.8229669,-11.5325 29.423388,-11.43077 40.764962,-0.72078 0.113735,0.10741 0.226633,0.21569 0.33868,0.32485"
         transform="matrix(0,1.0622559,-0.95929867,0,291.73755,110.62823)" />
      <path
         sodipodi:type="spiral"
         style="fill:#00ffff;fill-rule:evenodd;stroke:#ff0000;stroke-width:4.86947"
         id="path1244"
         sodipodi:cx="0"
         sodipodi:cy="240"
         sodipodi:expansion="1.71"
         sodipodi:revolution="4.8099999"
         sodipodi:radius="30.140303"
         sodipodi:argument="-30.96405"
         sodipodi:t0="0.58368498"
         d="m 8.7214672,231.75237 c 5.3930728,4.6985 5.4581088,13.10026 0.8213858,18.33874 -5.4443124,6.15088 -15.0946168,6.19895 -21.085529,0.82445 -6.949738,-6.23468 -6.978444,-17.20542 -0.821311,-23.98988 7.0686045,-7.7888 19.4300771,-7.79581 27.048356,-0.81224 8.667292,7.94519 8.650349,21.76626 0.797457,30.25785 -8.8636053,9.5845 -24.2118255,9.54141 -33.615497,0.77717 -10.539777,-9.8231 -10.468408,-26.76481 -0.751557,-37.11868 10.8229669,-11.5325 29.423388,-11.43077 40.764962,-0.72078 0.113735,0.10741 0.226633,0.21569 0.33868,0.32485"
         transform="matrix(-1.0458332,0,0,-0.97436254,189.14003,339.95927)" />
      <path
         sodipodi:type="spiral"
         style="fill:#00ffff;fill-rule:evenodd;stroke:#ff0000;stroke-width:4.86947"
         id="path1246"
         sodipodi:cx="0"
         sodipodi:cy="240"
         sodipodi:expansion="1.71"
         sodipodi:revolution="4.8099999"
         sodipodi:radius="30.140303"
         sodipodi:argument="-30.96405"
         sodipodi:t0="0.58368498"
         d="m 8.7214672,231.75237 c 5.3930728,4.6985 5.4581088,13.10026 0.8213858,18.33874 -5.4443124,6.15088 -15.0946168,6.19895 -21.085529,0.82445 -6.949738,-6.23468 -6.978444,-17.20542 -0.821311,-23.98988 7.0686045,-7.7888 19.4300771,-7.79581 27.048356,-0.81224 8.667292,7.94519 8.650349,21.76626 0.797457,30.25785 -8.8636053,9.5845 -24.2118255,9.54141 -33.615497,0.77717 -10.539777,-9.8231 -10.468408,-26.76481 -0.751557,-37.11868 10.8229669,-11.5325 29.423388,-11.43077 40.764962,-0.72078 0.113735,0.10741 0.226633,0.21569 0.33868,0.32485"
         transform="matrix(0,-1.0622559,0.95929867,0,-36.645476,236.53939)" />
      <path
         sodipodi:type="spiral"
         style="fill:#00ffff;fill-rule:evenodd;stroke:#ff0000;stroke-width:4.86947"
         id="path1248"
         sodipodi:cx="0"
         sodipodi:cy="240"
         sodipodi:expansion="1.71"
         sodipodi:revolution="4.8099999"
         sodipodi:radius="30.140303"
         sodipodi:argument="-30.96405"
         sodipodi:t0="0.58368498"
         d="m 8.7214672,231.75237 c 5.3930728,4.6985 5.4581088,13.10026 0.8213858,18.33874 -5.4443124,6.15088 -15.0946168,6.19895 -21.085529,0.82445 -6.949738,-6.23468 -6.978444,-17.20542 -0.821311,-23.98988 7.0686045,-7.7888 19.4300771,-7.79581 27.048356,-0.81224 8.667292,7.94519 8.650349,21.76626 0.797457,30.25785 -8.8636053,9.5845 -24.2118255,9.54141 -33.615497,0.77717 -10.539777,-9.8231 -10.468408,-26.76481 -0.751557,-37.11868 10.8229669,-11.5325 29.423388,-11.43077 40.764962,-0.72078 0.113735,0.10741 0.226633,0.21569 0.33868,0.32485"
         transform="matrix(1.0458332,0,0,0.97436254,129.57986,62.546858)" />
      <path
         sodipodi:type="spiral"
         style="fill:#00ffff;fill-rule:evenodd;stroke:#ff0000;stroke-width:4.86947"
         id="path1250"
         sodipodi:cx="0"
         sodipodi:cy="240"
         sodipodi:expansion="1.71"
         sodipodi:revolution="4.8099999"
         sodipodi:radius="30.140303"
         sodipodi:argument="-30.96405"
         sodipodi:t0="0.58368498"
         d="m 8.7214672,231.75237 c 5.3930728,4.6985 5.4581088,13.10026 0.8213858,18.33874 -5.4443124,6.15088 -15.0946168,6.19895 -21.085529,0.82445 -6.949738,-6.23468 -6.978444,-17.20542 -0.821311,-23.98988 7.0686045,-7.7888 19.4300771,-7.79581 27.048356,-0.81224 8.667292,7.94519 8.650349,21.76626 0.797457,30.25785 -8.8636053,9.5845 -24.2118255,9.54141 -33.615497,0.77717 -10.539777,-9.8231 -10.468408,-26.76481 -0.751557,-37.11868 10.8229669,-11.5325 29.423388,-11.43077 40.764962,-0.72078 0.113735,0.10741 0.226633,0.21569 0.33868,0.32485"
         transform="matrix(0,1.0622559,-0.95929867,0,236.86634,175.64957)" />
      <path
         sodipodi:type="spiral"
         style="fill:#00ffff;fill-rule:evenodd;stroke:#ff0000;stroke-width:4.86947"
         id="path1252"
         sodipodi:cx="0"
         sodipodi:cy="240"
         sodipodi:expansion="1.71"
         sodipodi:revolution="4.8099999"
         sodipodi:radius="30.140303"
         sodipodi:argument="-30.96405"
         sodipodi:t0="0.58368498"
         d="m 8.7214672,231.75237 c 5.3930728,4.6985 5.4581088,13.10026 0.8213858,18.33874 -5.4443124,6.15088 -15.0946168,6.19895 -21.085529,0.82445 -6.949738,-6.23468 -6.978444,-17.20542 -0.821311,-23.98988 7.0686045,-7.7888 19.4300771,-7.79581 27.048356,-0.81224 8.667292,7.94519 8.650349,21.76626 0.797457,30.25785 -8.8636053,9.5845 -24.2118255,9.54141 -33.615497,0.77717 -10.539777,-9.8231 -10.468408,-26.76481 -0.751557,-37.11868 10.8229669,-11.5325 29.423388,-11.43077 40.764962,-0.72078 0.113735,0.10741 0.226633,0.21569 0.33868,0.32485"
         transform="matrix(1.0458332,0,0,0.97436254,11.081012,-178.5668)" />
      <path
         sodipodi:type="spiral"
         style="fill:#00ffff;fill-rule:evenodd;stroke:#ff0000;stroke-width:4.86947"
         id="path1254"
         sodipodi:cx="0"
         sodipodi:cy="240"
         sodipodi:expansion="1.71"
         sodipodi:revolution="4.8099999"
         sodipodi:radius="30.140303"
         sodipodi:argument="-30.96405"
         sodipodi:t0="0.58368498"
         d="m 8.7214672,231.75237 c 5.3930728,4.6985 5.4581088,13.10026 0.8213858,18.33874 -5.4443124,6.15088 -15.0946168,6.19895 -21.085529,0.82445 -6.949738,-6.23468 -6.978444,-17.20542 -0.821311,-23.98988 7.0686045,-7.7888 19.4300771,-7.79581 27.048356,-0.81224 8.667292,7.94519 8.650349,21.76626 0.797457,30.25785 -8.8636053,9.5845 -24.2118255,9.54141 -33.615497,0.77717 -10.539777,-9.8231 -10.468408,-26.76481 -0.751557,-37.11868 10.8229669,-11.5325 29.423388,-11.43077 40.764962,-0.72078 0.113735,0.10741 0.226633,0.21569 0.33868,0.32485"
         transform="matrix(-1.0458332,0,0,-0.97436254,125.51222,284.62077)" />
      <path
         sodipodi:type="spiral"
         style="fill:#00ffff;fill-rule:evenodd;stroke:#ff0000;stroke-width:4.86947"
         id="path1256"
         sodipodi:cx="0"
         sodipodi:cy="240"
         sodipodi:expansion="1.71"
         sodipodi:revolution="4.8099999"
         sodipodi:radius="30.140303"
         sodipodi:argument="-30.96405"
         sodipodi:t0="0.58368498"
         d="m 8.7214672,231.75237 c 5.3930728,4.6985 5.4581088,13.10026 0.8213858,18.33874 -5.4443124,6.15088 -15.0946168,6.19895 -21.085529,0.82445 -6.949738,-6.23468 -6.978444,-17.20542 -0.821311,-23.98988 7.0686045,-7.7888 19.4300771,-7.79581 27.048356,-0.81224 8.667292,7.94519 8.650349,21.76626 0.797457,30.25785 -8.8636053,9.5845 -24.2118255,9.54141 -33.615497,0.77717 -10.539777,-9.8231 -10.468408,-26.76481 -0.751557,-37.11868 10.8229669,-11.5325 29.423388,-11.43077 40.764962,-0.72078 0.113735,0.10741 0.226633,0.21569 0.33868,0.32485"
         transform="matrix(0,-1.0622559,0.95929867,0,18.225734,171.1238)" />
      <path
         sodipodi:type="spiral"
         style="fill:#00ffff;fill-rule:evenodd;stroke:#ff0000;stroke-width:4.86947"
         id="path1258"
         sodipodi:cx="0"
         sodipodi:cy="240"
         sodipodi:expansion="1.71"
         sodipodi:revolution="4.8099999"
         sodipodi:radius="30.140303"
         sodipodi:argument="-30.96405"
         sodipodi:t0="0.58368498"
         d="m 8.7214672,231.75237 c 5.3930728,4.6985 5.4581088,13.10026 0.8213858,18.33874 -5.4443124,6.15088 -15.0946168,6.19895 -21.085529,0.82445 -6.949738,-6.23468 -6.978444,-17.20542 -0.821311,-23.98988 7.0686045,-7.7888 19.4300771,-7.79581 27.048356,-0.81224 8.667292,7.94519 8.650349,21.76626 0.797457,30.25785 -8.8636053,9.5845 -24.2118255,9.54141 -33.615497,0.77717 -10.539777,-9.8231 -10.468408,-26.76481 -0.751557,-37.11868 10.8229669,-11.5325 29.423388,-11.43077 40.764962,-0.72078 0.113735,0.10741 0.226633,0.21569 0.33868,0.32485"
         transform="matrix(0,1.0622559,-0.95929867,0,355.75335,239.24613)" />
      <path
         sodipodi:type="spiral"
         style="fill:#00ffff;fill-rule:evenodd;stroke:#ff0000;stroke-width:4.86947"
         id="path1260"
         sodipodi:cx="0"
         sodipodi:cy="240"
         sodipodi:expansion="1.71"
         sodipodi:revolution="4.8099999"
         sodipodi:radius="30.140303"
         sodipodi:argument="-30.96405"
         sodipodi:t0="0.58368498"
         d="m 8.7214672,231.75237 c 5.3930728,4.6985 5.4581088,13.10026 0.8213858,18.33874 -5.4443124,6.15088 -15.0946168,6.19895 -21.085529,0.82445 -6.949738,-6.23468 -6.978444,-17.20542 -0.821311,-23.98988 7.0686045,-7.7888 19.4300771,-7.79581 27.048356,-0.81224 8.667292,7.94519 8.650349,21.76626 0.797457,30.25785 -8.8636053,9.5845 -24.2118255,9.54141 -33.615497,0.77717 -10.539777,-9.8231 -10.468408,-26.76481 -0.751557,-37.11868 10.8229669,-11.5325 29.423388,-11.43077 40.764962,-0.72078 0.113735,0.10741 0.226633,0.21569 0.33868,0.32485"
         transform="matrix(-1.0458332,0,0,-0.97436254,61.496393,404.98043)" />
      <path
         sodipodi:type="spiral"
         style="fill:#00ffff;fill-rule:evenodd;stroke:#ff0000;stroke-width:4.86947"
         id="path1262"
         sodipodi:cx="0"
         sodipodi:cy="240"
         sodipodi:expansion="1.71"
         sodipodi:revolution="4.8099999"
         sodipodi:radius="30.140303"
         sodipodi:argument="-30.96405"
         sodipodi:t0="0.58368498"
         d="m 8.7214672,231.75237 c 5.3930728,4.6985 5.4581088,13.10026 0.8213858,18.33874 -5.4443124,6.15088 -15.0946168,6.19895 -21.085529,0.82445 -6.949738,-6.23468 -6.978444,-17.20542 -0.821311,-23.98988 7.0686045,-7.7888 19.4300771,-7.79581 27.048356,-0.81224 8.667292,7.94519 8.650349,21.76626 0.797457,30.25785 -8.8636053,9.5845 -24.2118255,9.54141 -33.615497,0.77717 -10.539777,-9.8231 -10.468408,-26.76481 -0.751557,-37.11868 10.8229669,-11.5325 29.423388,-11.43077 40.764962,-0.72078 0.113735,0.10741 0.226633,0.21569 0.33868,0.32485"
         transform="matrix(0,-1.0622559,0.95929867,0,-100.66127,106.49689)" />
      <path
         sodipodi:type="spiral"
         style="fill:#00ffff;fill-rule:evenodd;stroke:#ff0000;stroke-width:4.86947"
         id="path1264"
         sodipodi:cx="0"
         sodipodi:cy="240"
         sodipodi:expansion="1.71"
         sodipodi:revolution="4.8099999"
         sodipodi:radius="30.140303"
         sodipodi:argument="-30.96405"
         sodipodi:t0="0.58368498"
         d="m 8.7214672,231.75237 c 5.3930728,4.6985 5.4581088,13.10026 0.8213858,18.33874 -5.4443124,6.15088 -15.0946168,6.19895 -21.085529,0.82445 -6.949738,-6.23468 -6.978444,-17.20542 -0.821311,-23.98988 7.0686045,-7.7888 19.4300771,-7.79581 27.048356,-0.81224 8.667292,7.94519 8.650349,21.76626 0.797457,30.25785 -8.8636053,9.5845 -24.2118255,9.54141 -33.615497,0.77717 -10.539777,-9.8231 -10.468408,-26.76481 -0.751557,-37.11868 10.8229669,-11.5325 29.423388,-11.43077 40.764962,-0.72078 0.113735,0.10741 0.226633,0.21569 0.33868,0.32485"
         transform="matrix(1.0458332,0,0,0.97436254,193.20771,-57.812782)" />
      <path
         sodipodi:type="spiral"
         style="fill:#00ffff;fill-rule:evenodd;stroke:#ff0000;stroke-width:4.86947"
         id="path1266"
         sodipodi:cx="0"
         sodipodi:cy="240"
         sodipodi:expansion="1.71"
         sodipodi:revolution="4.8099999"
         sodipodi:radius="30.140303"
         sodipodi:argument="-30.96405"
         sodipodi:t0="0.58368498"
         d="m 8.7214672,231.75237 c 5.3930728,4.6985 5.4581088,13.10026 0.8213858,18.33874 -5.4443124,6.15088 -15.0946168,6.19895 -21.085529,0.82445 -6.949738,-6.23468 -6.978444,-17.20542 -0.821311,-23.98988 7.0686045,-7.7888 19.4300771,-7.79581 27.048356,-0.81224 8.667292,7.94519 8.650349,21.76626 0.797457,30.25785 -8.8636053,9.5845 -24.2118255,9.54141 -33.615497,0.77717 -10.539777,-9.8231 -10.468408,-26.76481 -0.751557,-37.11868 10.8229669,-11.5325 29.423388,-11.43077 40.764962,-0.72078 0.113735,0.10741 0.226633,0.21569 0.33868,0.32485"
         transform="matrix(0,1.0622559,-0.95929867,0,355.75336,175.64957)" />
    </g>
  </g>
</svg>
