<?xml version="1.0" encoding="UTF-8" standalone="no"?>
<!-- Created with Inkscape (http://www.inkscape.org/) -->

<svg
   width="240"
   height="240"
   viewBox="0 0 240 240"
   version="1.1"
   id="svg5"
   inkscape:version="1.1 (ce6663b3b7, 2021-05-25)"
   sodipodi:docname="Lesson_XXII_.svg"
   xmlns:inkscape="http://www.inkscape.org/namespaces/inkscape"
   xmlns:sodipodi="http://sodipodi.sourceforge.net/DTD/sodipodi-0.dtd"
   xmlns="http://www.w3.org/2000/svg"
   xmlns:svg="http://www.w3.org/2000/svg">
  <sodipodi:namedview
     id="namedview7"
     pagecolor="#ededed"
     bordercolor="#666666"
     borderopacity="1.0"
     inkscape:pageshadow="2"
     inkscape:pageopacity="0"
     inkscape:pagecheckerboard="0"
     inkscape:document-units="px"
     showgrid="false"
     units="px"
     scale-x="1"
     inkscape:showpageshadow="false"
     inkscape:snap-page="true"
     inkscape:snap-nodes="true"
     width="240px"
     inkscape:snap-bbox="true"
     inkscape:bbox-paths="true"
     inkscape:bbox-nodes="true"
     inkscape:snap-bbox-edge-midpoints="true"
     inkscape:zoom="2.1335188"
     inkscape:cx="161.47034"
     inkscape:cy="135.92568"
     inkscape:window-width="1920"
     inkscape:window-height="1017"
     inkscape:window-x="0"
     inkscape:window-y="0"
     inkscape:window-maximized="1"
     inkscape:current-layer="layer2" />
  <defs
     id="defs2">
    <linearGradient
       id="linearGradient23703"
       inkscape:swatch="solid">
      <stop
         style="stop-color:#c3ff00;stop-opacity:1;"
         offset="0"
         id="stop23701" />
    </linearGradient>
    <linearGradient
       id="linearGradient23787"
       inkscape:swatch="solid">
      <stop
         style="stop-color:#afd531;stop-opacity:1;"
         offset="0"
         id="stop23785" />
    </linearGradient>
    <linearGradient
       id="linearGradient46332"
       inkscape:swatch="solid">
      <stop
         style="stop-color:#038e03;stop-opacity:1;"
         offset="0"
         id="stop46330" />
    </linearGradient>
    <linearGradient
       id="linearGradient46646"
       inkscape:swatch="solid">
      <stop
         style="stop-color:#026102;stop-opacity:1;"
         offset="0"
         id="stop46644" />
    </linearGradient>
    <linearGradient
       id="linearGradient39231"
       inkscape:swatch="solid">
      <stop
         style="stop-color:#ff00e3;stop-opacity:1;"
         offset="0"
         id="stop39229" />
    </linearGradient>
    <linearGradient
       id="linearGradient39315"
       inkscape:swatch="solid">
      <stop
         style="stop-color:#cf36bf;stop-opacity:1;"
         offset="0"
         id="stop39313" />
    </linearGradient>
  </defs>
  <g
     inkscape:label="Layer_I"
     inkscape:groupmode="layer"
     id="layer1"
     sodipodi:insensitive="true">
    <rect
       style="fill:#ff9955;fill-opacity:0;stroke:none;stroke-width:10"
       id="rect846"
       width="3840"
       height="2160"
       x="0"
       y="0"
       rx="0"
       ry="0"
       sodipodi:insensitive="true"
       inkscape:label="Background" />
  </g>
  <g
     inkscape:groupmode="layer"
     id="layer2"
     inkscape:label="Layer_II">
    <g
       id="g50128"
       transform="matrix(0.4743987,0,0,0.5247407,-487.46299,-88.331426)">
      <g
         id="g2885"
         transform="translate(-83.610398,-6.2448551e-5)">
        <g
           id="g2883"
           style="display:inline"
           transform="rotate(76,1586.9911,523.95294)">
          <path
             id="path2861"
             style="fill:url(#linearGradient23703);stroke:url(#linearGradient23787);stroke-width:4;stroke-linecap:square;stop-color:#000000"
             inkscape:transform-center-x="12.358522"
             inkscape:transform-center-y="-15.917762"
             d="m 1350.8652,684.68555 c -0.1782,0.73639 -0.01,1.942 0.5508,2.37695 0.4345,0.86864 0.6139,1.82979 1.0918,2.669 0.3354,1.18092 1.2154,2.07555 1.3735,3.3167 0.4373,2.1476 1.5307,4.07394 2.2422,6.14121 2.4488,5.5635 5.422,10.87436 8.2593,16.24418 1.0778,1.78986 2.0927,3.67997 3.5313,5.20118 1.8639,1.4268 4.7424,0.64639 5.8364,-1.3745 1.977,-2.81312 2.7465,-6.23778 3.9161,-9.42191 1.7527,-5.5943 3.0284,-11.32708 4.674,-16.94858 0.3366,-2.10505 1.2678,-4.3629 0.4211,-6.44642 -0.8837,-1.34933 -2.5603,-1.63626 -4.0578,-1.52091 -1.046,-0.13183 -2.1338,0.15203 -3.2225,0.095 -1.7804,0.0877 -3.5733,0.13166 -5.3437,0.23633 -1.9083,0.54862 -3.7923,-0.20277 -5.7207,-0.15452 -0.9612,0.17408 -1.9317,0.32753 -2.9033,0.44763 -0.7323,-0.55078 -1.7481,-0.71592 -2.6632,-0.848 -1.0691,-0.21181 -2.1112,0.2474 -3.171,0.16959 -1.048,-0.36833 -2.1944,-0.24394 -3.2454,-0.43757 -0.5422,0.48958 -1.6743,-0.35003 -1.5689,0.25465 z" />
          <path
             id="path2863"
             style="fill:url(#linearGradient46332);stroke:url(#linearGradient46646);stroke-width:4;stroke-linecap:square;stop-color:#000000"
             inkscape:transform-center-x="12.358522"
             inkscape:transform-center-y="-15.917762"
             d="m 1259.8906,732.97266 c -15.0257,2.03029 -28.3878,12.13554 -35.3417,25.48055 -5.536,9.65895 -10.7532,19.86289 -12.2208,31.03898 -0.1773,2.46884 2.6863,4.25504 4.9093,3.41787 4.3357,-0.69492 8.6341,-1.6112 12.9937,-2.15671 10.1549,-1.68852 20.295,-3.58511 30.2328,-6.29578 7.8052,-2.04188 15.3251,-5.24723 22.0068,-9.79492 12.6453,-8.44816 24.4346,-18.10922 35.8443,-28.14386 1.5117,-1.43542 3.2475,-2.74228 4.4776,-4.40934 0.5981,-2.15802 -1.7292,-3.99236 -3.7407,-3.87646 -8.5445,-1.36618 -17.0794,-2.82773 -25.6962,-3.67169 -10.7486,-1.16777 -21.5697,-1.91061 -32.3829,-1.71441 -0.3607,0.0419 -0.7215,0.0838 -1.0822,0.12577 z" />
          <path
             id="path2865"
             style="fill:url(#linearGradient23703);stroke:url(#linearGradient23787);stroke-width:4;stroke-linecap:square;stop-color:#000000"
             inkscape:transform-center-x="12.358522"
             inkscape:transform-center-y="-15.917762"
             d="m 1375.0762,727.0957 c -1.3459,1.67849 -1.0331,3.90437 -1.42,5.89258 -0.5014,5.21325 0.8528,10.34409 1.3844,15.50028 0.2663,1.91071 0.4713,3.84486 0.6176,5.75558 0.7667,1.61404 2.9277,1.41816 4.4268,1.34898 6.891,-0.99739 13.8196,-1.76225 20.7182,-2.70678 2.1147,-0.51087 4.5556,-0.45915 6.3373,-1.81892 1.5148,-1.90927 1.9499,-4.58609 0.9329,-6.82841 -0.5707,-1.60741 -1.8552,-2.80667 -3.1242,-3.86206 -1.2935,-0.6609 -2.7581,-1.03729 -3.8111,-2.08213 -1.3562,-0.73033 -2.6409,-1.59038 -3.815,-2.56985 -1.6177,-0.83465 -3.3086,-1.55485 -4.835,-2.53703 -1.9827,-0.67405 -3.7663,-1.75821 -5.7045,-2.54136 -3.4629,-1.82072 -7.2698,-2.76727 -11.0656,-3.5998 -0.2499,-0.0652 -0.4377,-0.17819 -0.6418,0.0489 z" />
          <path
             id="path2867"
             style="fill:url(#linearGradient46332);stroke:url(#linearGradient46646);stroke-width:4;stroke-linecap:square;stop-color:#000000"
             inkscape:transform-center-x="12.358522"
             inkscape:transform-center-y="-15.917762"
             d="m 1404.4824,802.35742 c -2.1342,1.9021 -3.2339,4.62799 -4.9261,6.88256 -4.1841,6.9244 -7.4524,14.35286 -10.6358,21.77549 -6.6975,16.31879 -10.7346,33.55492 -14.2954,50.78328 -2.9592,13.88512 -5.8523,27.81668 -10.1329,41.36922 -0.4759,2.41205 2.7448,4.01852 4.6439,2.75925 14.7199,-5.80113 29.0694,-13.28925 40.6272,-24.26067 5.7829,-5.53885 11.0983,-11.68561 15.0528,-18.67705 3.5516,-6.2039 3.9514,-13.67325 3.1145,-20.62549 -1.433,-10.70815 -5.3996,-20.85381 -9.3452,-30.84192 -2.852,-7.14309 -5.8698,-14.22563 -9.423,-21.05267 -1.3855,-2.68426 -2.7648,-5.38725 -4.2562,-8.00653 -0.1069,-0.10462 -0.2767,-0.18112 -0.4238,-0.10547 z" />
          <path
             id="path2869"
             style="fill:url(#linearGradient23703);stroke:url(#linearGradient23787);stroke-width:4;stroke-linecap:square;stop-color:#000000"
             inkscape:transform-center-x="12.358522"
             inkscape:transform-center-y="-15.917762"
             d="m 1440.9707,727.41211 c -7.1709,5.08506 -13.7713,10.90612 -20.3766,16.6886 -1.471,1.29043 -3.3313,2.36756 -4.2621,4.11609 -0.1088,1.79481 1.4669,3.1582 2.7197,4.21871 4.4059,3.33867 9.9789,4.40598 15.2205,5.73764 3.7244,0.8781 7.4692,1.7028 11.1028,2.91669 1.5247,-0.33457 1.2243,-2.26601 0.8893,-3.37839 -1.4665,-9.93022 -0.9409,-20.27686 -4.4737,-29.81211 -0.1512,-0.29974 -0.4597,-0.57059 -0.8199,-0.48723 z" />
          <path
             id="path2871"
             style="fill:url(#linearGradient46332);stroke:url(#linearGradient46646);stroke-width:4;stroke-linecap:square;stop-color:#000000"
             inkscape:transform-center-x="12.358522"
             inkscape:transform-center-y="-15.917762"
             d="m 1532.4258,737.00391 c -13.0453,0.85236 -25.8538,3.61565 -38.7852,5.38086 -2.1761,0.8009 -2.0508,4.09696 -0.198,5.19677 2.9471,3.04181 5.5825,6.37313 8.6436,9.30876 13.3625,13.5921 28.9716,25.40757 46.8969,32.24142 12.6652,4.86501 25.9486,7.78021 39.0052,11.36047 2.0043,0.43513 4.0671,-1.04378 4.3062,-3.08203 0.7532,-3.26833 0.3744,-6.65608 0.5285,-9.97924 -0.041,-11.63286 -2.5401,-23.55996 -8.9204,-33.42739 -5.0843,-7.54696 -13.5451,-12.09107 -22.1815,-14.32671 -9.5428,-2.49901 -19.4791,-2.90482 -29.2953,-2.67291 z m 56.9687,64.06054 c 0.043,0.59226 0.1593,-0.156 0,0 z" />
          <path
             id="path2873"
             style="fill:url(#linearGradient23703);stroke:url(#linearGradient23787);stroke-width:4;stroke-linecap:square;stop-color:#000000"
             inkscape:transform-center-x="12.358522"
             inkscape:transform-center-y="-15.917762"
             d="m 1430.8906,683.95312 c -0.6258,3.25853 -0.7736,6.61662 -0.3788,9.90644 0.3143,2.64247 0.8475,5.25399 1.7478,7.75999 1.4165,4.71305 4.1423,8.87667 6.0444,13.39034 0.9422,1.96564 1.819,3.96116 2.7038,5.953 2.4597,0.38053 4.2019,-1.81316 6.3554,-2.53119 1.4417,-0.84344 2.8108,-1.80911 4.1813,-2.75797 1.7796,-1.3766 3.4638,-2.84823 5.0512,-4.44131 2.6368,-2.27059 4.7457,-5.07302 7.2969,-7.4375 0.7979,-1.21456 2.305,-1.88765 3.0488,-3.03711 -0.1289,-0.89994 -0.7302,-1.59133 -1.532,-1.58638 -1.1965,-0.2754 -2.0753,-1.38956 -3.2152,-1.73165 -1.1432,-0.0808 -2.0075,-1.14425 -3.1922,-1.19564 -1.1608,-0.69219 -2.3771,-1.31112 -3.646,-1.71415 -2.4507,-1.04266 -4.8655,-2.18351 -7.2841,-3.2907 -4.1826,-1.59135 -8.1431,-3.70839 -12.3448,-5.25442 -1.5516,-0.69743 -3.1032,-1.39486 -4.6548,-2.09229 l -0.1735,0.0578 z" />
          <path
             id="path2875"
             style="fill:url(#linearGradient46332);stroke:url(#linearGradient46646);stroke-width:4;stroke-linecap:square;stop-color:#000000"
             inkscape:transform-center-x="12.358522"
             inkscape:transform-center-y="-15.917762"
             d="m 1536.041,543.99023 c -17.0207,2.10049 -33.9211,8.07568 -47.2305,19.1211 -10.2197,8.6344 -16.7631,20.82293 -20.797,33.4133 -3.4334,10.1851 -6.1302,20.69622 -7.0514,31.42778 -0.1112,3.75649 -0.1272,7.65197 1.1669,11.22401 1.3688,2.39008 4.7693,2.80968 6.984,1.38218 3.2544,-1.58786 6.1138,-3.85663 9.2902,-5.58716 13.4696,-8.29778 27.3978,-16.38368 38.3811,-27.96005 6.3749,-7.03147 9.2721,-16.29714 12.0421,-25.17421 2.7038,-9.25206 5.9857,-18.33119 8.4603,-27.6496 0.6272,-2.57785 1.2547,-5.20262 1.4046,-7.84741 -0.1972,-1.2363 -1.2313,-2.67328 -2.6503,-2.34994 z" />
          <path
             id="path2877"
             style="fill:url(#linearGradient23703);stroke:url(#linearGradient23787);stroke-width:4;stroke-linecap:square;stop-color:#000000"
             inkscape:transform-center-x="12.358522"
             inkscape:transform-center-y="-15.917762"
             d="m 1408.6992,650.41992 c -5.5,8.52114 -12.7512,15.79986 -17.8596,24.58367 -1.0564,1.97196 -2.2603,4.04463 -2.3815,6.31584 0.3612,3.22554 4.0224,5.02197 6.9947,4.49119 9.1391,-0.86463 18.2933,-1.56419 27.4398,-2.34968 2.5776,-1.86791 2.5103,-5.6406 1.2318,-8.26418 -2.7403,-6.79125 -7.6927,-12.32723 -11.2992,-18.6345 -1.346,-2.06177 -2.6921,-4.12354 -4.0381,-6.18531 z" />
          <path
             id="path2879"
             style="fill:url(#linearGradient39231);stroke:url(#linearGradient39315);stroke-width:4;stroke-linecap:square;stop-color:#000000"
             inkscape:transform-center-x="12.358522"
             inkscape:transform-center-y="-15.917762"
             d="m 1419.9336,641.67578 c -1.6456,4.47542 0.321,9.11121 0.7752,13.61255 1.015,6.06405 2.0301,12.12809 3.0451,18.19214 -7.4824,5.59746 -16.597,8.2682 -25.5039,10.63672 -2.599,-0.005 -4.0312,-2.90278 -3.7954,-5.2117 -0.4704,-5.60486 2.4657,-10.6699 3.5627,-16.02585 1.3816,-4.99374 2.7632,-9.98747 4.1448,-14.9812 -1.7808,-3.6239 -6.4077,-4.94368 -10.1211,-3.92578 -9.1087,0.33182 -18.309,0.86593 -27.1328,3.32226 -7.6278,5.75966 -12.1623,14.37875 -17.3105,22.20703 -0.7616,0.95834 -2.0186,2.4426 -0.9219,3.61133 3.0965,3.57289 7.814,4.79185 11.9943,6.59144 1.7051,0.7247 3.5213,1.13497 5.1803,1.94103 0.9535,0.27923 1.9633,0.2064 2.8117,0.80152 2.5765,1.08533 5.4226,1.70467 7.6914,3.40625 2.0571,2.64234 2.4171,6.10533 3.1274,9.27009 1.0132,6.8293 -0.2466,13.72965 -1.8012,20.37639 -1.047,1.82738 -3.7757,1.19583 -4.8686,-0.26469 -7.8884,-7.33818 -16.0312,-14.41517 -23.5299,-22.16109 -2.3047,-1.30721 -4.9634,0.26523 -6.6995,1.81945 -3.2848,3.2021 -3.5495,8.04768 -4.466,12.27605 -1.7654,8.73444 -3.3034,17.51997 -4.3677,26.36934 1.38,5.98947 6.4891,10.33218 11.9156,12.71145 6.9917,3.22714 14.0571,6.29077 21.1489,9.29051 3.1616,-0.17036 5.0805,-3.56597 4.8814,-6.48054 0.543,-4.65466 0.9302,-9.32518 1.3491,-13.99212 2.4522,-2.40595 6.1409,-2.1065 9.3018,-2.30831 6.025,0.0934 11.8178,2.33978 16.854,5.54062 2.2226,1.27898 4.6811,2.27599 6.5897,4.01051 1.8081,2.62966 0.5384,6.12995 -1.2594,8.41167 -3.2361,3.98938 -8.2612,5.72533 -12.346,8.63913 -3.1065,2.02432 -6.523,4.06165 -8.3569,7.4056 -1.9068,4.29521 -0.5001,9.1594 1.2488,13.25778 2.521,5.71997 7.5903,10.76182 13.987,11.62788 7.2128,1.08475 14.2415,-1.666 20.7894,-4.35931 9.0094,-3.69387 17.8965,-7.88128 25.8478,-13.55565 1.6511,-2.06486 0.1075,-5.18865 -2.1367,-6.06445 -5.6301,-3.7277 -11.3232,-7.36918 -16.7598,-11.37891 -1.9363,-3.62188 -0.655,-7.8498 0.6094,-11.46484 1.7434,-4.7299 4.6374,-9.01513 8.3067,-12.46485 2.4418,-0.50867 4.1917,1.78437 5.2447,3.65163 5.1255,7.48507 9.6579,15.42519 15.6732,22.26048 5.1547,3.33443 12.1082,2.38231 17.0442,-0.9038 4.5741,-2.911 9.4821,-6.28128 11.3663,-11.62075 1.799,-5.65643 1.0471,-11.68698 0.449,-17.47385 -0.7588,-5.24451 -2.2184,-10.35784 -3.879,-15.3805 -3.0544,-1.97774 -6.8433,-0.89049 -10.0636,0.0297 -5.6272,1.74434 -11.3045,3.32254 -17.0087,4.79453 -2.1379,-0.61584 -4.145,-1.69118 -5.8044,-3.19218 -1.8828,-1.56946 -3.6664,-3.2896 -5.279,-5.13455 -3.406,-3.92644 -6.6519,-8.06685 -8.8668,-12.79989 -0.3693,-0.88965 -1.2064,-1.86116 -0.6396,-2.84018 0.204,-1.47639 1.3259,-2.69889 2.4965,-3.55055 0.8556,-0.55944 1.6525,-0.92337 2.5848,-1.17692 1.0085,-0.28138 1.9323,0.12159 2.8886,0.17504 1.4893,0.32721 2.9036,0.99254 4.4464,0.92613 1.6964,0.72688 3.5851,0.69572 5.3698,1.07196 1.7364,0.5267 3.5001,0.90971 5.2074,1.51141 3.2896,0.90179 6.7157,1.19361 9.9635,2.25582 1.0026,0.15497 2.0761,0.45154 3.0963,0.2949 0.7299,-0.60206 1.3973,-1.27794 2.0658,-1.97459 0.3971,-0.98294 1.1956,-1.78507 1.4104,-2.87345 1.0344,-2.86936 1.4446,-5.92541 1.855,-8.93426 0.2633,-2.44892 0.2721,-4.91326 0.2053,-7.36807 -0.5273,-7.43509 -2.4714,-14.8589 -6.1953,-21.34961 -1.0159,-1.54044 -1.7828,-3.45573 -3.625,-4.16992 -7.4422,-3.3105 -15.6787,-3.91318 -23.6329,-5.16156 -6.5818,-0.99455 -13.2258,-1.49237 -19.8515,-2.09821 -0.1022,0.11394 -0.2044,0.22787 -0.3066,0.3418 z" />
          <path
             id="path2881"
             style="fill:url(#linearGradient46332);fill-opacity:1;stroke:url(#linearGradient46646);stroke-width:4;stroke-linecap:square;stop-color:#000000"
             inkscape:transform-center-x="12.358522"
             inkscape:transform-center-y="-15.917762"
             d="m 1308.4766,512.23242 c -8.379,4.15598 -14.0131,12.36918 -17.0241,21.01866 -6.3244,18.06399 -6.6627,38.22546 -0.7095,56.43141 3.5224,10.16974 10.1483,19.251 18.862,25.58798 12.616,9.87275 26.5873,17.88305 40.9303,24.9495 1.6304,0.77336 3.7742,0.33828 4.662,-1.32739 1.1757,-2.13304 0.1106,-4.568 0.1701,-6.83997 -0.8454,-10.81586 -2.161,-21.58744 -3.1629,-32.389 -1.27,-12.13169 -2.8291,-24.45465 -7.5522,-35.80228 -3.6201,-8.82234 -9.0903,-16.69481 -14.3501,-24.59149 -4.5921,-6.59019 -8.9702,-13.33808 -13.8544,-19.71868 -2.0802,-2.60028 -4.2758,-5.20652 -7.0025,-7.141 -0.3058,-0.13314 -0.6344,-0.20705 -0.9687,-0.17774 z" />
        </g>
      </g>
      <g
         id="g7474"
         transform="rotate(37,1312.3261,278.87835)">
        <g
           id="g7472"
           style="display:inline"
           transform="rotate(76,1586.9911,523.95294)">
          <path
             id="path7450"
             style="fill:url(#linearGradient23703);stroke:url(#linearGradient23787);stroke-width:4;stroke-linecap:square;stop-color:#000000"
             inkscape:transform-center-x="12.358522"
             inkscape:transform-center-y="-15.917762"
             d="m 1350.8652,684.68555 c -0.1782,0.73639 -0.01,1.942 0.5508,2.37695 0.4345,0.86864 0.6139,1.82979 1.0918,2.669 0.3354,1.18092 1.2154,2.07555 1.3735,3.3167 0.4373,2.1476 1.5307,4.07394 2.2422,6.14121 2.4488,5.5635 5.422,10.87436 8.2593,16.24418 1.0778,1.78986 2.0927,3.67997 3.5313,5.20118 1.8639,1.4268 4.7424,0.64639 5.8364,-1.3745 1.977,-2.81312 2.7465,-6.23778 3.9161,-9.42191 1.7527,-5.5943 3.0284,-11.32708 4.674,-16.94858 0.3366,-2.10505 1.2678,-4.3629 0.4211,-6.44642 -0.8837,-1.34933 -2.5603,-1.63626 -4.0578,-1.52091 -1.046,-0.13183 -2.1338,0.15203 -3.2225,0.095 -1.7804,0.0877 -3.5733,0.13166 -5.3437,0.23633 -1.9083,0.54862 -3.7923,-0.20277 -5.7207,-0.15452 -0.9612,0.17408 -1.9317,0.32753 -2.9033,0.44763 -0.7323,-0.55078 -1.7481,-0.71592 -2.6632,-0.848 -1.0691,-0.21181 -2.1112,0.2474 -3.171,0.16959 -1.048,-0.36833 -2.1944,-0.24394 -3.2454,-0.43757 -0.5422,0.48958 -1.6743,-0.35003 -1.5689,0.25465 z" />
          <path
             id="path7452"
             style="fill:url(#linearGradient46332);stroke:url(#linearGradient46646);stroke-width:4;stroke-linecap:square;stop-color:#000000"
             inkscape:transform-center-x="12.358522"
             inkscape:transform-center-y="-15.917762"
             d="m 1259.8906,732.97266 c -15.0257,2.03029 -28.3878,12.13554 -35.3417,25.48055 -5.536,9.65895 -10.7532,19.86289 -12.2208,31.03898 -0.1773,2.46884 2.6863,4.25504 4.9093,3.41787 4.3357,-0.69492 8.6341,-1.6112 12.9937,-2.15671 10.1549,-1.68852 20.295,-3.58511 30.2328,-6.29578 7.8052,-2.04188 15.3251,-5.24723 22.0068,-9.79492 12.6453,-8.44816 24.4346,-18.10922 35.8443,-28.14386 1.5117,-1.43542 3.2475,-2.74228 4.4776,-4.40934 0.5981,-2.15802 -1.7292,-3.99236 -3.7407,-3.87646 -8.5445,-1.36618 -17.0794,-2.82773 -25.6962,-3.67169 -10.7486,-1.16777 -21.5697,-1.91061 -32.3829,-1.71441 -0.3607,0.0419 -0.7215,0.0838 -1.0822,0.12577 z" />
          <path
             id="path7454"
             style="fill:url(#linearGradient23703);stroke:url(#linearGradient23787);stroke-width:4;stroke-linecap:square;stop-color:#000000"
             inkscape:transform-center-x="12.358522"
             inkscape:transform-center-y="-15.917762"
             d="m 1375.0762,727.0957 c -1.3459,1.67849 -1.0331,3.90437 -1.42,5.89258 -0.5014,5.21325 0.8528,10.34409 1.3844,15.50028 0.2663,1.91071 0.4713,3.84486 0.6176,5.75558 0.7667,1.61404 2.9277,1.41816 4.4268,1.34898 6.891,-0.99739 13.8196,-1.76225 20.7182,-2.70678 2.1147,-0.51087 4.5556,-0.45915 6.3373,-1.81892 1.5148,-1.90927 1.9499,-4.58609 0.9329,-6.82841 -0.5707,-1.60741 -1.8552,-2.80667 -3.1242,-3.86206 -1.2935,-0.6609 -2.7581,-1.03729 -3.8111,-2.08213 -1.3562,-0.73033 -2.6409,-1.59038 -3.815,-2.56985 -1.6177,-0.83465 -3.3086,-1.55485 -4.835,-2.53703 -1.9827,-0.67405 -3.7663,-1.75821 -5.7045,-2.54136 -3.4629,-1.82072 -7.2698,-2.76727 -11.0656,-3.5998 -0.2499,-0.0652 -0.4377,-0.17819 -0.6418,0.0489 z" />
          <path
             id="path7456"
             style="fill:url(#linearGradient46332);stroke:url(#linearGradient46646);stroke-width:4;stroke-linecap:square;stop-color:#000000"
             inkscape:transform-center-x="12.358522"
             inkscape:transform-center-y="-15.917762"
             d="m 1404.4824,802.35742 c -2.1342,1.9021 -3.2339,4.62799 -4.9261,6.88256 -4.1841,6.9244 -7.4524,14.35286 -10.6358,21.77549 -6.6975,16.31879 -10.7346,33.55492 -14.2954,50.78328 -2.9592,13.88512 -5.8523,27.81668 -10.1329,41.36922 -0.4759,2.41205 2.7448,4.01852 4.6439,2.75925 14.7199,-5.80113 29.0694,-13.28925 40.6272,-24.26067 5.7829,-5.53885 11.0983,-11.68561 15.0528,-18.67705 3.5516,-6.2039 3.9514,-13.67325 3.1145,-20.62549 -1.433,-10.70815 -5.3996,-20.85381 -9.3452,-30.84192 -2.852,-7.14309 -5.8698,-14.22563 -9.423,-21.05267 -1.3855,-2.68426 -2.7648,-5.38725 -4.2562,-8.00653 -0.1069,-0.10462 -0.2767,-0.18112 -0.4238,-0.10547 z" />
          <path
             id="path7458"
             style="fill:url(#linearGradient23703);stroke:url(#linearGradient23787);stroke-width:4;stroke-linecap:square;stop-color:#000000"
             inkscape:transform-center-x="12.358522"
             inkscape:transform-center-y="-15.917762"
             d="m 1440.9707,727.41211 c -7.1709,5.08506 -13.7713,10.90612 -20.3766,16.6886 -1.471,1.29043 -3.3313,2.36756 -4.2621,4.11609 -0.1088,1.79481 1.4669,3.1582 2.7197,4.21871 4.4059,3.33867 9.9789,4.40598 15.2205,5.73764 3.7244,0.8781 7.4692,1.7028 11.1028,2.91669 1.5247,-0.33457 1.2243,-2.26601 0.8893,-3.37839 -1.4665,-9.93022 -0.9409,-20.27686 -4.4737,-29.81211 -0.1512,-0.29974 -0.4597,-0.57059 -0.8199,-0.48723 z" />
          <path
             id="path7460"
             style="fill:url(#linearGradient46332);stroke:url(#linearGradient46646);stroke-width:4;stroke-linecap:square;stop-color:#000000"
             inkscape:transform-center-x="12.358522"
             inkscape:transform-center-y="-15.917762"
             d="m 1532.4258,737.00391 c -13.0453,0.85236 -25.8538,3.61565 -38.7852,5.38086 -2.1761,0.8009 -2.0508,4.09696 -0.198,5.19677 2.9471,3.04181 5.5825,6.37313 8.6436,9.30876 13.3625,13.5921 28.9716,25.40757 46.8969,32.24142 12.6652,4.86501 25.9486,7.78021 39.0052,11.36047 2.0043,0.43513 4.0671,-1.04378 4.3062,-3.08203 0.7532,-3.26833 0.3744,-6.65608 0.5285,-9.97924 -0.041,-11.63286 -2.5401,-23.55996 -8.9204,-33.42739 -5.0843,-7.54696 -13.5451,-12.09107 -22.1815,-14.32671 -9.5428,-2.49901 -19.4791,-2.90482 -29.2953,-2.67291 z m 56.9687,64.06054 c 0.043,0.59226 0.1593,-0.156 0,0 z" />
          <path
             id="path7462"
             style="fill:url(#linearGradient23703);stroke:url(#linearGradient23787);stroke-width:4;stroke-linecap:square;stop-color:#000000"
             inkscape:transform-center-x="12.358522"
             inkscape:transform-center-y="-15.917762"
             d="m 1430.8906,683.95312 c -0.6258,3.25853 -0.7736,6.61662 -0.3788,9.90644 0.3143,2.64247 0.8475,5.25399 1.7478,7.75999 1.4165,4.71305 4.1423,8.87667 6.0444,13.39034 0.9422,1.96564 1.819,3.96116 2.7038,5.953 2.4597,0.38053 4.2019,-1.81316 6.3554,-2.53119 1.4417,-0.84344 2.8108,-1.80911 4.1813,-2.75797 1.7796,-1.3766 3.4638,-2.84823 5.0512,-4.44131 2.6368,-2.27059 4.7457,-5.07302 7.2969,-7.4375 0.7979,-1.21456 2.305,-1.88765 3.0488,-3.03711 -0.1289,-0.89994 -0.7302,-1.59133 -1.532,-1.58638 -1.1965,-0.2754 -2.0753,-1.38956 -3.2152,-1.73165 -1.1432,-0.0808 -2.0075,-1.14425 -3.1922,-1.19564 -1.1608,-0.69219 -2.3771,-1.31112 -3.646,-1.71415 -2.4507,-1.04266 -4.8655,-2.18351 -7.2841,-3.2907 -4.1826,-1.59135 -8.1431,-3.70839 -12.3448,-5.25442 -1.5516,-0.69743 -3.1032,-1.39486 -4.6548,-2.09229 l -0.1735,0.0578 z" />
          <path
             id="path7464"
             style="fill:url(#linearGradient46332);stroke:url(#linearGradient46646);stroke-width:4;stroke-linecap:square;stop-color:#000000"
             inkscape:transform-center-x="12.358522"
             inkscape:transform-center-y="-15.917762"
             d="m 1536.041,543.99023 c -17.0207,2.10049 -33.9211,8.07568 -47.2305,19.1211 -10.2197,8.6344 -16.7631,20.82293 -20.797,33.4133 -3.4334,10.1851 -6.1302,20.69622 -7.0514,31.42778 -0.1112,3.75649 -0.1272,7.65197 1.1669,11.22401 1.3688,2.39008 4.7693,2.80968 6.984,1.38218 3.2544,-1.58786 6.1138,-3.85663 9.2902,-5.58716 13.4696,-8.29778 27.3978,-16.38368 38.3811,-27.96005 6.3749,-7.03147 9.2721,-16.29714 12.0421,-25.17421 2.7038,-9.25206 5.9857,-18.33119 8.4603,-27.6496 0.6272,-2.57785 1.2547,-5.20262 1.4046,-7.84741 -0.1972,-1.2363 -1.2313,-2.67328 -2.6503,-2.34994 z" />
          <path
             id="path7466"
             style="fill:url(#linearGradient23703);stroke:url(#linearGradient23787);stroke-width:4;stroke-linecap:square;stop-color:#000000"
             inkscape:transform-center-x="12.358522"
             inkscape:transform-center-y="-15.917762"
             d="m 1408.6992,650.41992 c -5.5,8.52114 -12.7512,15.79986 -17.8596,24.58367 -1.0564,1.97196 -2.2603,4.04463 -2.3815,6.31584 0.3612,3.22554 4.0224,5.02197 6.9947,4.49119 9.1391,-0.86463 18.2933,-1.56419 27.4398,-2.34968 2.5776,-1.86791 2.5103,-5.6406 1.2318,-8.26418 -2.7403,-6.79125 -7.6927,-12.32723 -11.2992,-18.6345 -1.346,-2.06177 -2.6921,-4.12354 -4.0381,-6.18531 z" />
          <path
             id="path7468"
             style="fill:url(#linearGradient39231);stroke:url(#linearGradient39315);stroke-width:4;stroke-linecap:square;stop-color:#000000"
             inkscape:transform-center-x="12.358522"
             inkscape:transform-center-y="-15.917762"
             d="m 1419.9336,641.67578 c -1.6456,4.47542 0.321,9.11121 0.7752,13.61255 1.015,6.06405 2.0301,12.12809 3.0451,18.19214 -7.4824,5.59746 -16.597,8.2682 -25.5039,10.63672 -2.599,-0.005 -4.0312,-2.90278 -3.7954,-5.2117 -0.4704,-5.60486 2.4657,-10.6699 3.5627,-16.02585 1.3816,-4.99374 2.7632,-9.98747 4.1448,-14.9812 -1.7808,-3.6239 -6.4077,-4.94368 -10.1211,-3.92578 -9.1087,0.33182 -18.309,0.86593 -27.1328,3.32226 -7.6278,5.75966 -12.1623,14.37875 -17.3105,22.20703 -0.7616,0.95834 -2.0186,2.4426 -0.9219,3.61133 3.0965,3.57289 7.814,4.79185 11.9943,6.59144 1.7051,0.7247 3.5213,1.13497 5.1803,1.94103 0.9535,0.27923 1.9633,0.2064 2.8117,0.80152 2.5765,1.08533 5.4226,1.70467 7.6914,3.40625 2.0571,2.64234 2.4171,6.10533 3.1274,9.27009 1.0132,6.8293 -0.2466,13.72965 -1.8012,20.37639 -1.047,1.82738 -3.7757,1.19583 -4.8686,-0.26469 -7.8884,-7.33818 -16.0312,-14.41517 -23.5299,-22.16109 -2.3047,-1.30721 -4.9634,0.26523 -6.6995,1.81945 -3.2848,3.2021 -3.5495,8.04768 -4.466,12.27605 -1.7654,8.73444 -3.3034,17.51997 -4.3677,26.36934 1.38,5.98947 6.4891,10.33218 11.9156,12.71145 6.9917,3.22714 14.0571,6.29077 21.1489,9.29051 3.1616,-0.17036 5.0805,-3.56597 4.8814,-6.48054 0.543,-4.65466 0.9302,-9.32518 1.3491,-13.99212 2.4522,-2.40595 6.1409,-2.1065 9.3018,-2.30831 6.025,0.0934 11.8178,2.33978 16.854,5.54062 2.2226,1.27898 4.6811,2.27599 6.5897,4.01051 1.8081,2.62966 0.5384,6.12995 -1.2594,8.41167 -3.2361,3.98938 -8.2612,5.72533 -12.346,8.63913 -3.1065,2.02432 -6.523,4.06165 -8.3569,7.4056 -1.9068,4.29521 -0.5001,9.1594 1.2488,13.25778 2.521,5.71997 7.5903,10.76182 13.987,11.62788 7.2128,1.08475 14.2415,-1.666 20.7894,-4.35931 9.0094,-3.69387 17.8965,-7.88128 25.8478,-13.55565 1.6511,-2.06486 0.1075,-5.18865 -2.1367,-6.06445 -5.6301,-3.7277 -11.3232,-7.36918 -16.7598,-11.37891 -1.9363,-3.62188 -0.655,-7.8498 0.6094,-11.46484 1.7434,-4.7299 4.6374,-9.01513 8.3067,-12.46485 2.4418,-0.50867 4.1917,1.78437 5.2447,3.65163 5.1255,7.48507 9.6579,15.42519 15.6732,22.26048 5.1547,3.33443 12.1082,2.38231 17.0442,-0.9038 4.5741,-2.911 9.4821,-6.28128 11.3663,-11.62075 1.799,-5.65643 1.0471,-11.68698 0.449,-17.47385 -0.7588,-5.24451 -2.2184,-10.35784 -3.879,-15.3805 -3.0544,-1.97774 -6.8433,-0.89049 -10.0636,0.0297 -5.6272,1.74434 -11.3045,3.32254 -17.0087,4.79453 -2.1379,-0.61584 -4.145,-1.69118 -5.8044,-3.19218 -1.8828,-1.56946 -3.6664,-3.2896 -5.279,-5.13455 -3.406,-3.92644 -6.6519,-8.06685 -8.8668,-12.79989 -0.3693,-0.88965 -1.2064,-1.86116 -0.6396,-2.84018 0.204,-1.47639 1.3259,-2.69889 2.4965,-3.55055 0.8556,-0.55944 1.6525,-0.92337 2.5848,-1.17692 1.0085,-0.28138 1.9323,0.12159 2.8886,0.17504 1.4893,0.32721 2.9036,0.99254 4.4464,0.92613 1.6964,0.72688 3.5851,0.69572 5.3698,1.07196 1.7364,0.5267 3.5001,0.90971 5.2074,1.51141 3.2896,0.90179 6.7157,1.19361 9.9635,2.25582 1.0026,0.15497 2.0761,0.45154 3.0963,0.2949 0.7299,-0.60206 1.3973,-1.27794 2.0658,-1.97459 0.3971,-0.98294 1.1956,-1.78507 1.4104,-2.87345 1.0344,-2.86936 1.4446,-5.92541 1.855,-8.93426 0.2633,-2.44892 0.2721,-4.91326 0.2053,-7.36807 -0.5273,-7.43509 -2.4714,-14.8589 -6.1953,-21.34961 -1.0159,-1.54044 -1.7828,-3.45573 -3.625,-4.16992 -7.4422,-3.3105 -15.6787,-3.91318 -23.6329,-5.16156 -6.5818,-0.99455 -13.2258,-1.49237 -19.8515,-2.09821 -0.1022,0.11394 -0.2044,0.22787 -0.3066,0.3418 z" />
          <path
             id="path7470"
             style="fill:url(#linearGradient46332);fill-opacity:1;stroke:url(#linearGradient46646);stroke-width:4;stroke-linecap:square;stop-color:#000000"
             inkscape:transform-center-x="12.358522"
             inkscape:transform-center-y="-15.917762"
             d="m 1308.4766,512.23242 c -8.379,4.15598 -14.0131,12.36918 -17.0241,21.01866 -6.3244,18.06399 -6.6627,38.22546 -0.7095,56.43141 3.5224,10.16974 10.1483,19.251 18.862,25.58798 12.616,9.87275 26.5873,17.88305 40.9303,24.9495 1.6304,0.77336 3.7742,0.33828 4.662,-1.32739 1.1757,-2.13304 0.1106,-4.568 0.1701,-6.83997 -0.8454,-10.81586 -2.161,-21.58744 -3.1629,-32.389 -1.27,-12.13169 -2.8291,-24.45465 -7.5522,-35.80228 -3.6201,-8.82234 -9.0903,-16.69481 -14.3501,-24.59149 -4.5921,-6.59019 -8.9702,-13.33808 -13.8544,-19.71868 -2.0802,-2.60028 -4.2758,-5.20652 -7.0025,-7.141 -0.3058,-0.13314 -0.6344,-0.20705 -0.9687,-0.17774 z" />
        </g>
      </g>
      <g
         id="g7545"
         transform="translate(-83.610398,-6.2448551e-5)">
        <g
           id="g7543"
           style="display:inline"
           transform="rotate(76,1586.9911,523.95294)">
          <path
             id="path7521"
             style="fill:url(#linearGradient23703);stroke:url(#linearGradient23787);stroke-width:4;stroke-linecap:square;stop-color:#000000"
             inkscape:transform-center-x="12.358522"
             inkscape:transform-center-y="-15.917762"
             d="m 1350.8652,684.68555 c -0.1782,0.73639 -0.01,1.942 0.5508,2.37695 0.4345,0.86864 0.6139,1.82979 1.0918,2.669 0.3354,1.18092 1.2154,2.07555 1.3735,3.3167 0.4373,2.1476 1.5307,4.07394 2.2422,6.14121 2.4488,5.5635 5.422,10.87436 8.2593,16.24418 1.0778,1.78986 2.0927,3.67997 3.5313,5.20118 1.8639,1.4268 4.7424,0.64639 5.8364,-1.3745 1.977,-2.81312 2.7465,-6.23778 3.9161,-9.42191 1.7527,-5.5943 3.0284,-11.32708 4.674,-16.94858 0.3366,-2.10505 1.2678,-4.3629 0.4211,-6.44642 -0.8837,-1.34933 -2.5603,-1.63626 -4.0578,-1.52091 -1.046,-0.13183 -2.1338,0.15203 -3.2225,0.095 -1.7804,0.0877 -3.5733,0.13166 -5.3437,0.23633 -1.9083,0.54862 -3.7923,-0.20277 -5.7207,-0.15452 -0.9612,0.17408 -1.9317,0.32753 -2.9033,0.44763 -0.7323,-0.55078 -1.7481,-0.71592 -2.6632,-0.848 -1.0691,-0.21181 -2.1112,0.2474 -3.171,0.16959 -1.048,-0.36833 -2.1944,-0.24394 -3.2454,-0.43757 -0.5422,0.48958 -1.6743,-0.35003 -1.5689,0.25465 z" />
          <path
             id="path7523"
             style="fill:url(#linearGradient46332);stroke:url(#linearGradient46646);stroke-width:4;stroke-linecap:square;stop-color:#000000"
             inkscape:transform-center-x="12.358522"
             inkscape:transform-center-y="-15.917762"
             d="m 1259.3906,733.53906 c -15.4835,2.47205 -28.9812,13.24088 -36.0174,27.09005 -5.3833,9.69852 -10.2823,19.79882 -13.0995,30.56477 -0.2689,2.31177 2.0621,4.57446 4.3809,3.85 3.2839,-0.42496 6.2824,-2.03592 9.5766,-2.43559 16.1139,-3.61815 33.0126,-0.55399 48.9914,-5.04789 12.4278,-3.62665 22.8704,-12.13612 30.9494,-22.03776 3.4351,-4.41488 6.5024,-9.10804 9.9778,-13.49599 2.4226,-3.21597 5.072,-6.26951 7.6353,-9.35795 1.1555,-2.40657 -1.409,-5.20386 -3.9101,-4.82503 -13.4608,-0.65588 -26.8215,-2.55376 -40.2549,-3.56993 -6.0646,-0.46558 -12.1452,-0.78045 -18.2295,-0.73468 z" />
          <path
             id="path7525"
             style="fill:url(#linearGradient23703);stroke:url(#linearGradient23787);stroke-width:4;stroke-linecap:square;stop-color:#000000"
             inkscape:transform-center-x="12.358522"
             inkscape:transform-center-y="-15.917762"
             d="m 1375.0762,727.0957 c -1.3459,1.67849 -1.0331,3.90437 -1.42,5.89258 -0.5014,5.21325 0.8528,10.34409 1.3844,15.50028 0.2663,1.91071 0.4713,3.84486 0.6176,5.75558 0.7667,1.61404 2.9277,1.41816 4.4268,1.34898 6.891,-0.99739 13.8196,-1.76225 20.7182,-2.70678 2.1147,-0.51087 4.5556,-0.45915 6.3373,-1.81892 1.5148,-1.90927 1.9499,-4.58609 0.9329,-6.82841 -0.5707,-1.60741 -1.8552,-2.80667 -3.1242,-3.86206 -1.2935,-0.6609 -2.7581,-1.03729 -3.8111,-2.08213 -1.3562,-0.73033 -2.6409,-1.59038 -3.815,-2.56985 -1.6177,-0.83465 -3.3086,-1.55485 -4.835,-2.53703 -1.9827,-0.67405 -3.7663,-1.75821 -5.7045,-2.54136 -3.4629,-1.82072 -7.2698,-2.76727 -11.0656,-3.5998 -0.2499,-0.0652 -0.4377,-0.17819 -0.6418,0.0489 z" />
          <path
             id="path7527"
             style="fill:url(#linearGradient46332);stroke:url(#linearGradient46646);stroke-width:4;stroke-linecap:square;stop-color:#000000"
             inkscape:transform-center-x="12.358522"
             inkscape:transform-center-y="-15.917762"
             d="m 1404.4395,803.35547 c -9.345,15.51466 -23.562,27.60279 -31.75,43.87891 -6.7045,13.72338 -8.4057,29.24945 -8.3492,44.34683 -0.039,13.21189 -3.9981,25.9477 -6.1344,38.87894 -0.035,2.23845 2.2452,4.22566 4.4669,3.64555 4.3188,-0.18829 8.1072,-2.54558 12.2216,-3.60188 12.5725,-4.35581 25.1192,-10.0623 34.6371,-19.61043 12.7898,-12.58879 19.5859,-31.20935 17.1858,-49.07199 -1.4485,-12.99985 -7.0405,-24.98563 -11.8391,-36.99958 -3.0452,-7.34071 -6.406,-14.56201 -10.347,-21.4683 z" />
          <path
             id="path7529"
             style="fill:url(#linearGradient23703);stroke:url(#linearGradient23787);stroke-width:4;stroke-linecap:square;stop-color:#000000"
             inkscape:transform-center-x="12.358522"
             inkscape:transform-center-y="-15.917762"
             d="m 1440.9707,727.41211 c -7.1709,5.08506 -13.7713,10.90612 -20.3766,16.6886 -1.471,1.29043 -3.3313,2.36756 -4.2621,4.11609 -0.1088,1.79481 1.4669,3.1582 2.7197,4.21871 4.4059,3.33867 9.9789,4.40598 15.2205,5.73764 3.7244,0.8781 7.4692,1.7028 11.1028,2.91669 1.5247,-0.33457 1.2243,-2.26601 0.8893,-3.37839 -1.4665,-9.93022 -0.9409,-20.27686 -4.4737,-29.81211 -0.1512,-0.29974 -0.4597,-0.57059 -0.8199,-0.48723 z" />
          <path
             id="path7531"
             style="fill:url(#linearGradient46332);stroke:url(#linearGradient46646);stroke-width:4;stroke-linecap:square;stop-color:#000000"
             inkscape:transform-center-x="12.358522"
             inkscape:transform-center-y="-15.917762"
             d="m 1544.084,737.60742 c -16.1426,0.93634 -32.1742,3.11915 -48.2266,4.98242 0.5218,7.21137 4.8303,13.42917 9.5714,18.60463 6.5472,8.76828 14.472,16.35992 22.1024,24.161 8.8168,5.88309 19.6761,7.24319 28.9,12.30058 8.8116,4.36842 17.0702,10.78824 21.535,19.74836 2.5027,4.6312 4.4619,9.52915 6.8639,14.21082 1.8147,1.66007 4.7229,0.2934 5.666,-1.68164 7.1375,-9.29943 9.5856,-21.45887 8.773,-32.97734 -1.0242,-13.49907 -5.4894,-26.62687 -12.1831,-38.34785 -3.49,-5.99765 -8.2707,-11.37153 -14.3905,-14.7632 -7.1564,-4.18242 -15.4803,-5.84328 -23.6865,-6.1547 -1.6399,-0.0936 -3.2829,-0.10615 -4.925,-0.0831 z m 39.7207,98.79688 0.123,-0.0352 z m 1.9414,1.19922 -0.072,-0.0488 z" />
          <path
             id="path7533"
             style="fill:url(#linearGradient23703);stroke:url(#linearGradient23787);stroke-width:4;stroke-linecap:square;stop-color:#000000"
             inkscape:transform-center-x="12.358522"
             inkscape:transform-center-y="-15.917762"
             d="m 1430.8906,683.95312 c -0.6258,3.25853 -0.7736,6.61662 -0.3788,9.90644 0.3143,2.64247 0.8475,5.25399 1.7478,7.75999 1.4165,4.71305 4.1423,8.87667 6.0444,13.39034 0.9422,1.96564 1.819,3.96116 2.7038,5.953 2.4597,0.38053 4.2019,-1.81316 6.3554,-2.53119 1.4417,-0.84344 2.8108,-1.80911 4.1813,-2.75797 1.7796,-1.3766 3.4638,-2.84823 5.0512,-4.44131 2.6368,-2.27059 4.7457,-5.07302 7.2969,-7.4375 0.7979,-1.21456 2.305,-1.88765 3.0488,-3.03711 -0.1289,-0.89994 -0.7302,-1.59133 -1.532,-1.58638 -1.1965,-0.2754 -2.0753,-1.38956 -3.2152,-1.73165 -1.1432,-0.0808 -2.0075,-1.14425 -3.1922,-1.19564 -1.1608,-0.69219 -2.3771,-1.31112 -3.646,-1.71415 -2.4507,-1.04266 -4.8655,-2.18351 -7.2841,-3.2907 -4.1826,-1.59135 -8.1431,-3.70839 -12.3448,-5.25442 -1.5516,-0.69743 -3.1032,-1.39486 -4.6548,-2.09229 l -0.1735,0.0578 z" />
          <path
             id="path7535"
             style="fill:url(#linearGradient46332);stroke:url(#linearGradient46646);stroke-width:4;stroke-linecap:square;stop-color:#000000"
             inkscape:transform-center-x="12.358522"
             inkscape:transform-center-y="-15.917762"
             d="m 1536.1523,543.99609 c -17.3943,2.12076 -34.6591,8.36546 -48.0916,19.85393 -9.8841,8.65804 -16.0767,20.71415 -20.1261,33.0382 -3.7491,11.56765 -6.9924,23.5511 -6.8313,35.80497 0.1664,2.71763 0.1031,6.09922 2.5744,7.84978 1.9145,1.36177 4.3704,0.65088 6.2438,-0.39634 2.817,-1.58412 5.4437,-3.48298 8.2774,-5.04374 8.1639,-4.93358 16.2218,-10.0625 24.0263,-15.5446 1.955,-1.52684 3.855,-3.09974 5.81,-4.61493 3.0327,-2.96661 6.7089,-5.28417 9.2702,-8.72589 1.237,-1.45456 2.445,-2.90804 3.4014,-4.57211 4.2869,-6.83197 6.3716,-14.70335 8.8564,-22.29866 2.5175,-8.40062 5.3857,-16.69918 7.6321,-25.17873 0.5586,-2.59821 1.3005,-5.2226 1.2832,-7.89258 -0.1218,-1.19035 -0.9741,-2.47769 -2.3262,-2.2793 z" />
          <path
             id="path7537"
             style="fill:url(#linearGradient23703);stroke:url(#linearGradient23787);stroke-width:4;stroke-linecap:square;stop-color:#000000"
             inkscape:transform-center-x="12.358522"
             inkscape:transform-center-y="-15.917762"
             d="m 1408.6992,650.41992 c -5.5,8.52114 -12.7512,15.79986 -17.8596,24.58367 -1.0564,1.97196 -2.2603,4.04463 -2.3815,6.31584 0.3612,3.22554 4.0224,5.02197 6.9947,4.49119 9.1391,-0.86463 18.2933,-1.56419 27.4398,-2.34968 2.5776,-1.86791 2.5103,-5.6406 1.2318,-8.26418 -2.7403,-6.79125 -7.6927,-12.32723 -11.2992,-18.6345 -1.346,-2.06177 -2.6921,-4.12354 -4.0381,-6.18531 z" />
          <path
             id="path7539"
             style="fill:url(#linearGradient39231);stroke:url(#linearGradient39315);stroke-width:4;stroke-linecap:square;stop-color:#000000"
             inkscape:transform-center-x="12.358522"
             inkscape:transform-center-y="-15.917762"
             d="m 1419.9336,641.67578 c -1.5339,5.94633 0.887,11.86737 1.4677,17.76428 0.7842,4.68014 1.5684,9.36027 2.3526,14.04041 -7.554,5.47116 -16.6049,8.23221 -25.5039,10.63672 -3.1301,-0.48698 -4.5429,-4.24653 -3.7402,-7.03711 0.7565,-7.4563 4.104,-14.30443 5.5583,-21.61061 0.698,-2.52368 1.396,-5.04735 2.094,-7.57103 -2.0854,-3.70014 -6.9272,-4.97288 -10.8496,-3.89258 -8.8598,0.43295 -17.8051,0.94946 -26.4043,3.28906 -7.9217,6.24324 -12.6423,15.36261 -18.3086,23.48633 -0.7605,1.69703 0.5987,3.5055 2.1738,4.08492 5.9832,4.2064 13.2758,5.70359 19.9781,8.35739 2.8478,0.94171 6.0291,2.37605 7.061,5.45038 1.5599,3.83548 1.812,8.05357 1.9658,12.14477 -0.047,5.01787 -1.0199,9.97086 -2.2041,14.82973 -1.6259,1.67923 -4.512,0.68004 -5.5722,-1.1543 -7.6495,-7.05833 -15.3648,-14.05243 -22.7208,-21.41992 -3.7568,-1.27192 -7.6789,1.68704 -8.8342,5.2007 -2.3722,5.6882 -2.5743,11.94345 -4.0073,17.87875 -1.0259,5.77437 -1.9063,11.57364 -2.6917,17.38539 1.7976,6.55512 7.6034,11.19308 13.7422,13.53711 6.4165,2.87673 12.8737,5.6611 19.3223,8.46485 3.4651,-0.50375 5.3922,-4.33088 4.9921,-7.57065 0.4128,-4.30067 0.8256,-8.60134 1.2384,-12.90201 3.8661,-2.85823 8.9801,-2.41838 13.4779,-1.8437 6.8714,1.28029 12.9647,4.9509 18.7408,8.71479 2.3777,2.61627 1.2479,6.78015 -1.0765,9.03923 -3.9094,4.44092 -9.6779,6.4341 -14.3476,9.89372 -3.3696,2.20616 -6.6894,5.48783 -6.7865,9.77838 -0.2844,5.24761 2.0622,10.28942 5.1227,14.41953 3.8058,4.70903 10.0231,7.61194 16.1056,6.64885 8.4029,-0.72392 15.9898,-4.72847 23.62,-7.9887 6.1894,-2.84238 12.1985,-6.10824 17.7998,-9.99218 1.5457,-2.53068 -0.4157,-5.88165 -3.0508,-6.67187 -5.3279,-3.5222 -10.6235,-7.09399 -15.8457,-10.77149 -1.9779,-4.66078 -0.2459,-9.81775 1.7801,-14.14542 1.7673,-3.65763 4.2785,-6.91334 7.136,-9.78427 2.9444,-0.16742 4.8122,2.58324 6.0566,4.8711 4.7762,7.13351 9.292,14.48185 14.8613,21.04101 5.6007,3.38968 13.0135,2.15742 18.1153,-1.59961 4.7823,-2.9823 9.5529,-7.10631 10.7318,-12.88529 1.7489,-9.86569 -0.5417,-19.86408 -3.3627,-29.30221 -0.064,-1.68077 -1.8487,-2.44366 -3.3144,-2.47529 -4.5931,-0.59446 -8.8564,1.65315 -13.2266,2.65226 -3.6672,1.05835 -7.3539,2.04729 -11.0352,3.05546 -6.4264,-2.28319 -10.7365,-7.88983 -14.8649,-13.01 -2.3186,-3.05345 -4.3089,-6.35941 -5.8695,-9.86305 0.1907,-4.31983 5.4618,-7.12718 9.275,-5.3411 8.5963,1.6375 17.0292,4.0396 25.6274,5.65751 2.4924,0.0591 3.8001,-2.53294 4.6131,-4.52271 2.7684,-8.52392 2.8431,-17.85972 0.5887,-26.51302 -1.3495,-5.02582 -3.4833,-9.89954 -6.577,-14.09566 -2.9596,-2.86665 -7.275,-3.26305 -11.0869,-4.23066 -11.2058,-2.35644 -22.6334,-3.34038 -34.0106,-4.46999 -0.1022,0.11394 -0.2044,0.22787 -0.3066,0.3418 z" />
          <path
             id="path7541"
             style="fill:url(#linearGradient46332);fill-opacity:1;stroke:url(#linearGradient46646);stroke-width:4;stroke-linecap:square;stop-color:#000000"
             inkscape:transform-center-x="12.358522"
             inkscape:transform-center-y="-15.917762"
             d="m 1305.4199,508.44727 c -5.1653,2.39314 -8.0448,7.70694 -9.9429,12.81421 -3.9843,10.37707 -7.1433,21.15721 -8.1735,32.26205 -1.1739,12.66954 -0.058,25.69878 4.2727,37.71468 3.2849,8.87929 9.3196,16.5074 16.4961,22.58644 8.0326,6.83913 17.2244,12.11932 26.3153,17.39845 5.4567,3.09407 11.0154,6.00328 16.5968,8.86479 3.3198,0.45969 5.9263,-3.54528 4.664,-6.50391 -2.6676,-16.4775 0.3154,-33.10508 0.4221,-49.64409 -0.037,-11.00057 -2.3552,-22.45426 -9.0581,-31.41836 -6.2876,-8.614 -14.7237,-15.31475 -21.5416,-23.47263 -5.4213,-6.02832 -10.2036,-12.60413 -15.6231,-18.62898 -1.1093,-0.96617 -2.4382,-2.10495 -3.9173,-2.19773 -0.1702,0.075 -0.3403,0.15005 -0.5105,0.22508 z" />
        </g>
      </g>
      <g
         id="g7571"
         transform="rotate(37,1312.3261,278.87835)">
        <g
           id="g7569"
           style="display:inline"
           transform="rotate(76,1586.9911,523.95294)">
          <path
             id="path7547"
             style="fill:url(#linearGradient23703);stroke:url(#linearGradient23787);stroke-width:4;stroke-linecap:square;stop-color:#000000"
             inkscape:transform-center-x="12.358522"
             inkscape:transform-center-y="-15.917762"
             d="m 1350.8652,684.68555 c -0.1782,0.73639 -0.01,1.942 0.5508,2.37695 0.4345,0.86864 0.6139,1.82979 1.0918,2.669 0.3354,1.18092 1.2154,2.07555 1.3735,3.3167 0.4373,2.1476 1.5307,4.07394 2.2422,6.14121 2.4488,5.5635 5.422,10.87436 8.2593,16.24418 1.0778,1.78986 2.0927,3.67997 3.5313,5.20118 1.8639,1.4268 4.7424,0.64639 5.8364,-1.3745 1.977,-2.81312 2.7465,-6.23778 3.9161,-9.42191 1.7527,-5.5943 3.0284,-11.32708 4.674,-16.94858 0.3366,-2.10505 1.2678,-4.3629 0.4211,-6.44642 -0.8837,-1.34933 -2.5603,-1.63626 -4.0578,-1.52091 -1.046,-0.13183 -2.1338,0.15203 -3.2225,0.095 -1.7804,0.0877 -3.5733,0.13166 -5.3437,0.23633 -1.9083,0.54862 -3.7923,-0.20277 -5.7207,-0.15452 -0.9612,0.17408 -1.9317,0.32753 -2.9033,0.44763 -0.7323,-0.55078 -1.7481,-0.71592 -2.6632,-0.848 -1.0691,-0.21181 -2.1112,0.2474 -3.171,0.16959 -1.048,-0.36833 -2.1944,-0.24394 -3.2454,-0.43757 -0.5422,0.48958 -1.6743,-0.35003 -1.5689,0.25465 z" />
          <path
             id="path7549"
             style="fill:url(#linearGradient46332);stroke:url(#linearGradient46646);stroke-width:4;stroke-linecap:square;stop-color:#000000"
             inkscape:transform-center-x="12.358522"
             inkscape:transform-center-y="-15.917762"
             d="m 1260.4902,733.10547 c -16.6427,2.09735 -31.3193,13.95116 -37.8259,29.27382 -4.8634,9.81097 -9.1667,20.09854 -10.6584,31.02305 0.2864,3.05046 4.3698,4.22376 6.6705,2.56707 6.5407,-2.63768 13.3783,-4.47207 20.3238,-5.66453 9.8823,-1.84324 20.1137,-2.05982 29.6697,-5.43965 14.9678,-5.03326 28.2121,-14.58772 38.4373,-26.54661 4.8659,-5.35208 9.7529,-10.69557 14.9963,-15.68385 1.2341,-2.11463 -0.9417,-4.77405 -3.2111,-4.65006 -12.6769,-1.42721 -25.3115,-3.27786 -38.0418,-4.19884 -6.7734,-0.50823 -13.5674,-0.77328 -20.3604,-0.6804 z" />
          <path
             id="path7551"
             style="fill:url(#linearGradient23703);stroke:url(#linearGradient23787);stroke-width:4;stroke-linecap:square;stop-color:#000000"
             inkscape:transform-center-x="12.358522"
             inkscape:transform-center-y="-15.917762"
             d="m 1375.0762,727.0957 c -1.3459,1.67849 -1.0331,3.90437 -1.42,5.89258 -0.5014,5.21325 0.8528,10.34409 1.3844,15.50028 0.2663,1.91071 0.4713,3.84486 0.6176,5.75558 0.7667,1.61404 2.9277,1.41816 4.4268,1.34898 6.891,-0.99739 13.8196,-1.76225 20.7182,-2.70678 2.1147,-0.51087 4.5556,-0.45915 6.3373,-1.81892 1.5148,-1.90927 1.9499,-4.58609 0.9329,-6.82841 -0.5707,-1.60741 -1.8552,-2.80667 -3.1242,-3.86206 -1.2935,-0.6609 -2.7581,-1.03729 -3.8111,-2.08213 -1.3562,-0.73033 -2.6409,-1.59038 -3.815,-2.56985 -1.6177,-0.83465 -3.3086,-1.55485 -4.835,-2.53703 -1.9827,-0.67405 -3.7663,-1.75821 -5.7045,-2.54136 -3.4629,-1.82072 -7.2698,-2.76727 -11.0656,-3.5998 -0.2499,-0.0652 -0.4377,-0.17819 -0.6418,0.0489 z" />
          <path
             id="path7553"
             style="fill:url(#linearGradient46332);stroke:url(#linearGradient46646);stroke-width:4;stroke-linecap:square;stop-color:#000000"
             inkscape:transform-center-x="12.358522"
             inkscape:transform-center-y="-15.917762"
             d="m 1404.5996,804.05273 c -1.4532,1.09984 -2.1871,2.85307 -3.4273,4.16083 -12.2236,16.0317 -25.041,31.80339 -34.5518,49.66432 -5.8996,15.19353 -7.0152,31.60881 -8.9948,47.63167 -0.8635,7.37963 -1.727,14.75926 -2.5905,22.13889 1.0993,4.09072 6.7556,5.76117 10.0586,3.25 8.7583,-3.62785 18.035,-6.30253 25.9438,-11.69714 10.8292,-6.87624 19.0933,-16.83697 28.274,-25.62764 4.6676,-4.66909 8.9623,-10.39796 9.522,-17.19797 0.9702,-8.5334 -1.7264,-16.86514 -3.7064,-25.05753 -3.2795,-12.49282 -8.5734,-24.34159 -14.5039,-35.7788 -1.9463,-3.83735 -3.9136,-7.66395 -5.8733,-11.49444 z" />
          <path
             id="path7555"
             style="fill:url(#linearGradient23703);stroke:url(#linearGradient23787);stroke-width:4;stroke-linecap:square;stop-color:#000000"
             inkscape:transform-center-x="12.358522"
             inkscape:transform-center-y="-15.917762"
             d="m 1440.9707,727.41211 c -7.1709,5.08506 -13.7713,10.90612 -20.3766,16.6886 -1.471,1.29043 -3.3313,2.36756 -4.2621,4.11609 -0.1088,1.79481 1.4669,3.1582 2.7197,4.21871 4.4059,3.33867 9.9789,4.40598 15.2205,5.73764 3.7244,0.8781 7.4692,1.7028 11.1028,2.91669 1.5247,-0.33457 1.2243,-2.26601 0.8893,-3.37839 -1.4665,-9.93022 -0.9409,-20.27686 -4.4737,-29.81211 -0.1512,-0.29974 -0.4597,-0.57059 -0.8199,-0.48723 z" />
          <path
             id="path7557"
             style="fill:url(#linearGradient46332);stroke:url(#linearGradient46646);stroke-width:4;stroke-linecap:square;stop-color:#000000"
             inkscape:transform-center-x="12.358522"
             inkscape:transform-center-y="-15.917762"
             d="m 1533.0625,737.70898 c -12.4629,0.70806 -24.7775,2.89028 -37.1252,4.58658 -2.6898,0.59148 -3.2448,4.10105 -2.0382,6.21022 0.8125,1.62717 2.504,2.50302 3.515,3.99031 7.7665,9.29957 11.53,21.45637 20.4668,29.85352 8.8082,7.64688 20.2238,11.32867 31.4624,13.64317 11.0535,2.29928 22.4799,3.01775 33.2125,6.70423 5.0542,2.18823 9.5721,5.46411 14.7313,7.42799 3.2144,-0.6207 4.4245,-4.81735 2.9356,-7.4707 -4.9161,-13.05452 -7.4451,-26.86619 -12.3198,-39.93071 -3.3437,-8.15648 -9.3729,-15.37256 -17.3723,-19.27106 -9.3949,-4.84704 -20.1773,-5.6555 -30.567,-5.8369 -2.3012,-0.0198 -4.6031,-0.0565 -6.9011,0.0933 z m 64.4453,74.84571 -0.057,-0.13477 z" />
          <path
             id="path7559"
             style="fill:url(#linearGradient23703);stroke:url(#linearGradient23787);stroke-width:4;stroke-linecap:square;stop-color:#000000"
             inkscape:transform-center-x="12.358522"
             inkscape:transform-center-y="-15.917762"
             d="m 1430.8906,683.95312 c -0.6258,3.25853 -0.7736,6.61662 -0.3788,9.90644 0.3143,2.64247 0.8475,5.25399 1.7478,7.75999 1.4165,4.71305 4.1423,8.87667 6.0444,13.39034 0.9422,1.96564 1.819,3.96116 2.7038,5.953 2.4597,0.38053 4.2019,-1.81316 6.3554,-2.53119 1.4417,-0.84344 2.8108,-1.80911 4.1813,-2.75797 1.7796,-1.3766 3.4638,-2.84823 5.0512,-4.44131 2.6368,-2.27059 4.7457,-5.07302 7.2969,-7.4375 0.7979,-1.21456 2.305,-1.88765 3.0488,-3.03711 -0.1289,-0.89994 -0.7302,-1.59133 -1.532,-1.58638 -1.1965,-0.2754 -2.0753,-1.38956 -3.2152,-1.73165 -1.1432,-0.0808 -2.0075,-1.14425 -3.1922,-1.19564 -1.1608,-0.69219 -2.3771,-1.31112 -3.646,-1.71415 -2.4507,-1.04266 -4.8655,-2.18351 -7.2841,-3.2907 -4.1826,-1.59135 -8.1431,-3.70839 -12.3448,-5.25442 -1.5516,-0.69743 -3.1032,-1.39486 -4.6548,-2.09229 l -0.1735,0.0578 z" />
          <path
             id="path7561"
             style="fill:url(#linearGradient46332);stroke:url(#linearGradient46646);stroke-width:4;stroke-linecap:square;stop-color:#000000"
             inkscape:transform-center-x="12.358522"
             inkscape:transform-center-y="-15.917762"
             d="m 1538.9609,541.30078 c -14.4232,4.00101 -29.3202,7.15947 -42.5742,14.39063 -9.3928,5.49593 -18.4854,12.06575 -24.8998,20.99544 -6.0079,8.67539 -8.6704,19.14842 -10.2551,29.44807 -0.9371,6.70334 -1.7577,13.43551 -2.1362,20.1954 -0.1524,4.54568 -0.021,9.46854 2.5587,13.3982 3.2472,2.84175 8.3671,2.16712 11.5163,-0.47754 12.7291,-7.01669 26.4112,-12.11641 40.3005,-16.3043 5.2198,-1.66724 10.2159,-4.58592 13.4024,-9.14982 5.4453,-7.29977 7.0439,-16.52408 8.4088,-25.31054 1.43,-9.64295 2.7458,-19.30289 4.1427,-28.95048 0.7285,-5.65774 1.4311,-11.40656 0.8738,-17.1042 -0.1884,-0.57825 -0.6588,-1.20404 -1.3379,-1.13086 z" />
          <path
             id="path7563"
             style="fill:url(#linearGradient23703);stroke:url(#linearGradient23787);stroke-width:4;stroke-linecap:square;stop-color:#000000"
             inkscape:transform-center-x="12.358522"
             inkscape:transform-center-y="-15.917762"
             d="m 1408.6992,650.41992 c -5.5,8.52114 -12.7512,15.79986 -17.8596,24.58367 -1.0564,1.97196 -2.2603,4.04463 -2.3815,6.31584 0.3612,3.22554 4.0224,5.02197 6.9947,4.49119 9.1391,-0.86463 18.2933,-1.56419 27.4398,-2.34968 2.5776,-1.86791 2.5103,-5.6406 1.2318,-8.26418 -2.7403,-6.79125 -7.6927,-12.32723 -11.2992,-18.6345 -1.346,-2.06177 -2.6921,-4.12354 -4.0381,-6.18531 z" />
          <path
             id="path7565"
             style="fill:url(#linearGradient39231);stroke:url(#linearGradient39315);stroke-width:4;stroke-linecap:square;stop-color:#000000"
             inkscape:transform-center-x="12.358522"
             inkscape:transform-center-y="-15.917762"
             d="m 1419.9336,641.67578 c -1.4274,6.82627 1.2095,13.54486 1.8886,20.29026 0.6439,3.83815 1.2878,7.67629 1.9317,11.51443 -7.5898,5.40745 -16.6124,8.20408 -25.5039,10.63672 -3.312,-0.72719 -4.7107,-4.79668 -3.634,-7.76235 1.3806,-8.70257 4.8788,-16.87646 6.7213,-25.47176 0.1299,-1.08343 0.9847,-2.28498 0.6206,-3.2879 -2.3689,-3.5803 -7.2247,-4.62019 -11.1912,-3.55957 -8.6749,0.47922 -17.4293,1.00096 -25.8585,3.25931 -7.8145,6.34339 -12.6972,15.31602 -18.3086,23.48633 -0.7275,2.12602 1.2477,4.02576 3.0977,4.67773 7.3173,4.77164 16.3598,5.72054 23.8429,10.12816 3.1584,2.73596 3.4591,7.19712 3.9888,11.05824 0.6211,6.3355 -0.3249,12.72654 -2.0114,18.83314 -1.4239,1.81192 -4.2813,0.88886 -5.4297,-0.76758 -7.3166,-7.03089 -14.9076,-13.77404 -22.1018,-20.93214 -1.1243,-1.36258 -3.1349,-1.00341 -4.6248,-0.55028 -2.9187,1.04119 -4.9079,3.80282 -5.5034,6.77736 -2.2188,7.13679 -2.8678,14.62406 -4.3733,21.91937 -0.6287,3.86367 -1.1709,7.7406 -1.7366,11.61381 1.9944,6.74233 8.0246,11.47663 14.4135,13.83332 6.2116,2.73514 12.4288,5.45759 18.651,8.16864 3.5991,-0.69265 5.5089,-4.71757 5.0448,-8.11557 0.3952,-4.11903 0.7904,-8.23806 1.1857,-12.35709 4.6641,-3.0707 10.6153,-2.50893 15.7882,-1.28841 5.9696,1.57687 11.2693,4.87957 16.4305,8.1595 2.4479,3.07781 0.9636,7.75519 -1.9785,9.94727 -5.5701,5.35196 -13.7123,7.39748 -18.4902,13.66797 -2.7774,4.14337 -1.8414,9.55675 0.05,13.8587 2.6514,6.42601 8.6388,11.93233 15.8042,12.36152 6.5772,0.39514 12.8864,-2.02648 18.8932,-4.40678 9.0147,-3.8157 17.9467,-7.98906 26.0375,-13.54782 1.5936,-2.6002 -0.3565,-6.11762 -3.0996,-6.93164 -5.202,-3.41438 -10.3524,-6.90692 -15.4531,-10.4707 -2.1419,-4.20127 -0.6787,-9.07835 1.0528,-13.14555 1.7833,-4.10357 4.5209,-7.72645 7.6406,-10.90719 3.1649,0.0425 5.1105,2.9879 6.4621,5.48065 4.6022,6.95788 9.1329,13.99206 14.4558,20.43146 5.7412,3.36475 13.2552,2.05678 18.4238,-1.79492 4.9394,-3.05197 9.6229,-7.59195 10.5446,-13.57587 1.4335,-9.85209 -0.8639,-19.7535 -3.7047,-29.14483 -1.2616,-2.18714 -4.1598,-1.93493 -6.3038,-1.65636 -5.783,0.85842 -11.1865,3.25083 -16.8878,4.46793 -1.4414,0.31734 -2.904,0.96131 -4.3323,1.07838 -6.7703,-2.68823 -11.3793,-8.6605 -15.6568,-14.2752 -1.9048,-2.67657 -3.5311,-5.54615 -4.9092,-8.52686 0.2752,-4.341 5.6251,-7.14923 9.4551,-5.30469 8.5911,1.73338 17.0615,4.02791 25.6875,5.59375 2.9952,-0.47664 4.2199,-3.69766 4.8608,-6.28621 3.0724,-11.36066 2.1034,-24.21669 -4.3901,-34.24308 -2.5092,-3.70415 -6.4488,-6.3255 -10.8004,-7.32065 -11.7785,-3.71902 -24.1572,-4.73964 -36.3832,-5.95475 -0.1022,0.11394 -0.2044,0.22787 -0.3066,0.3418 z" />
          <path
             id="path7567"
             style="fill:url(#linearGradient46332);fill-opacity:1;stroke:url(#linearGradient46646);stroke-width:4;stroke-linecap:square;stop-color:#000000"
             inkscape:transform-center-x="12.358522"
             inkscape:transform-center-y="-15.917762"
             d="m 1306.8379,505.93945 c -7.5403,3.81466 -12.398,11.34809 -15.2311,19.08171 -5.4883,14.536 -8.7474,30.34286 -6.4894,45.88102 2.4043,17.22672 11.0207,33.8731 24.907,44.58926 7.668,6.01168 16.0178,11.08661 24.4228,15.98746 5.6075,3.15874 11.298,6.252 17.2496,8.69194 2.5931,0.38751 4.6119,-2.47396 4.0688,-4.87587 -0.2072,-3.38431 -0.918,-6.71634 -1.092,-10.10552 -2.0073,-19.13314 -3.0361,-38.57826 -8.6759,-57.09228 -4.9462,-14.33467 -14.7401,-26.18535 -21.8904,-39.38864 -4.1878,-7.78122 -7.9703,-16.18765 -14.8573,-22.01517 -0.6952,-0.49619 -1.5401,-0.86901 -2.4121,-0.75391 z" />
        </g>
      </g>
    </g>
  </g>
</svg>
