<?xml version="1.0" encoding="UTF-8" standalone="no"?>
<!-- Created with Inkscape (http://www.inkscape.org/) -->

<svg
   width="240"
   height="240"
   viewBox="0 0 240 240.00001"
   version="1.1"
   id="svg5"
   inkscape:version="1.1.1 (3bf5ae0d25, 2021-09-20)"
   sodipodi:docname="Patter_file35.svg"
   xmlns:inkscape="http://www.inkscape.org/namespaces/inkscape"
   xmlns:sodipodi="http://sodipodi.sourceforge.net/DTD/sodipodi-0.dtd"
   xmlns="http://www.w3.org/2000/svg"
   xmlns:svg="http://www.w3.org/2000/svg">
  <sodipodi:namedview
     id="namedview7"
     pagecolor="#ffffff"
     bordercolor="#666666"
     borderopacity="1.0"
     inkscape:pageshadow="2"
     inkscape:pageopacity="0.0"
     inkscape:pagecheckerboard="0"
     inkscape:document-units="px"
     showgrid="false"
     units="px"
     width="240px"
     inkscape:showpageshadow="false"
     inkscape:snap-intersection-paths="true"
     inkscape:object-nodes="true"
     inkscape:snap-others="false"
     inkscape:snap-grids="false"
     inkscape:snap-to-guides="true"
     inkscape:object-paths="true"
     inkscape:snap-smooth-nodes="true"
     inkscape:snap-midpoints="false"
     inkscape:snap-object-midpoints="true"
     inkscape:snap-center="false"
     inkscape:snap-bbox="false"
     inkscape:bbox-paths="false"
     inkscape:snap-nodes="true"
     inkscape:bbox-nodes="false"
     inkscape:snap-bbox-edge-midpoints="false"
     inkscape:snap-bbox-midpoints="true"
     inkscape:zoom="2.3813918"
     inkscape:cx="127.8664"
     inkscape:cy="107.71012"
     inkscape:window-width="1920"
     inkscape:window-height="1047"
     inkscape:window-x="0"
     inkscape:window-y="0"
     inkscape:window-maximized="1"
     inkscape:current-layer="layer1"
     showguides="true"
     inkscape:guide-bbox="true" />
  <defs
     id="defs2" />
  <g
     inkscape:label="Layer"
     inkscape:groupmode="layer"
     id="layer1">
    <g
       id="g24690"
       transform="matrix(0.14074842,0,0,0.14074842,-32.008294,-32.008294)">
      <path
         id="rect31"
         style="display:inline;fill:#2f6e6c;fill-opacity:1;stroke:#483737;stroke-width:8"
         d="M 571.37341,571.37339 H 1588.6266 V 1588.6266 H 571.37341 Z" />
      <g
         id="g2545"
         transform="translate(31.171465,62.116595)">
        <g
           id="g2419"
           style="display:inline">
          <path
             id="path2187"
             style="font-variation-settings:normal;display:inline;opacity:1;vector-effect:none;fill:#37bdf6;fill-opacity:1;stroke:#ff7f2a;stroke-width:8;stroke-linecap:butt;stroke-linejoin:miter;stroke-miterlimit:4;stroke-dasharray:none;stroke-dashoffset:0;stroke-opacity:1;-inkscape-stroke:none;paint-order:normal;stop-color:#000000;stop-opacity:1"
             d="m 1048.8285,1259.2569 267.253,267.253 -267.253,267.253 -267.25303,-267.253 z"
             sodipodi:nodetypes="ccccc" />
          <path
             id="path2191"
             style="font-variation-settings:normal;display:inline;opacity:1;vector-effect:none;fill:#37bdf6;fill-opacity:1;stroke:#ff7f2a;stroke-width:8;stroke-linecap:butt;stroke-linejoin:miter;stroke-miterlimit:4;stroke-dasharray:none;stroke-dashoffset:0;stroke-opacity:1;-inkscape-stroke:none;paint-order:normal;stop-color:#000000;stop-opacity:1"
             d="m 1557.455,750.63035 267.253,267.25305 -267.253,267.253 -267.253,-267.253 z"
             sodipodi:nodetypes="ccccc" />
          <path
             id="path2189"
             style="font-variation-settings:normal;display:inline;opacity:1;vector-effect:none;fill:#37bdf6;fill-opacity:1;stroke:#ff7f2a;stroke-width:8;stroke-linecap:butt;stroke-linejoin:miter;stroke-miterlimit:4;stroke-dasharray:none;stroke-dashoffset:0;stroke-opacity:1;-inkscape-stroke:none;paint-order:normal;stop-color:#000000;stop-opacity:1"
             d="m 540.202,750.6304 267.25298,267.253 -267.25298,267.253 -267.25293,-267.253 z"
             sodipodi:nodetypes="ccccc" />
          <path
             id="path2064"
             style="display:inline;fill:#37bdf6;fill-opacity:1;stroke:#ff7f2a;stroke-width:8;stroke-miterlimit:4;stroke-dasharray:none;stroke-opacity:1;paint-order:normal"
             d="m 1048.8285,242.00391 267.253,267.25295 -267.253,267.253 -267.25302,-267.253 z"
             sodipodi:nodetypes="ccccc" />
        </g>
        <g
           id="g22914">
          <path
             id="path2197"
             style="display:inline;fill:#c3b7d8;fill-opacity:1;stroke:#000080;stroke-width:8"
             d="m 1190.2498,242.004 10e-5,141.42126 -141.4214,1e-4 10e-5,-141.42145 z m -267.25297,125.83159 8e-5,141.4212 -141.42143,9e-5 7e-5,-141.42139 z m 393.08457,141.42139 10e-5,141.4212 -141.4214,10e-5 v -141.4214 z m -267.253,125.83144 10e-5,141.42144 -141.42146,-8e-5 7e-5,-141.42129 z" />
          <path
             id="path2289"
             style="display:inline;fill:#c3b7d8;fill-opacity:1;stroke:#000080;stroke-width:8"
             d="m 414.37043,876.462 10e-5,141.4214 H 272.94907 l 7e-5,-141.4213 z m 267.25296,-125.8316 10e-5,141.42144 -141.42146,-8e-5 7e-5,-141.42129 z m 125.83149,267.253 10e-5,141.4214 -141.42146,-10e-5 7e-5,-141.4212 z m -267.25295,125.8316 1e-4,141.4214 -141.42146,-1e-4 7e-5,-141.4213 z" />
          <path
             id="path2407"
             style="display:inline;fill:#c3b7d8;fill-opacity:1;stroke:#000080;stroke-width:8"
             d="m 1698.8764,750.63035 10e-5,141.42143 -141.4215,-10e-5 10e-5,-141.42133 z m -267.253,125.83162 10e-5,141.42143 -141.4215,-1e-4 10e-5,-141.42133 z m 393.084,141.42143 10e-5,141.4209 -141.421,-10e-5 10e-5,-141.4208 z m -267.2525,125.8316 10e-5,141.4214 -141.4215,-1e-4 10e-5,-141.4213 z" />
          <path
             id="path2062"
             style="display:inline;fill:#c3b7d8;fill-opacity:1;stroke:#000080;stroke-width:8"
             d="m 1190.2498,1259.257 2e-4,141.4212 -141.4215,10e-5 v -141.4214 z m -267.25303,125.8316 2e-4,141.4212 -141.4214,10e-5 -10e-5,-141.4214 z m 393.08463,141.4214 10e-5,141.4212 -141.4214,10e-5 10e-5,-141.4214 z m -267.253,125.8315 10e-5,141.4214 -141.42141,-10e-5 10e-5,-141.4213 z" />
        </g>
      </g>
    </g>
  </g>
</svg>
