<?xml version="1.0" encoding="UTF-8" standalone="no"?>
<!-- Created with Inkscape (http://www.inkscape.org/) -->

<svg
   width="240"
   height="240"
   viewBox="0 0 240 240"
   version="1.1"
   id="svg5"
   inkscape:version="1.1.1 (3bf5ae0d25, 2021-09-20)"
   sodipodi:docname="Patter_file57.svg"
   xmlns:inkscape="http://www.inkscape.org/namespaces/inkscape"
   xmlns:sodipodi="http://sodipodi.sourceforge.net/DTD/sodipodi-0.dtd"
   xmlns="http://www.w3.org/2000/svg"
   xmlns:svg="http://www.w3.org/2000/svg">
  <sodipodi:namedview
     id="namedview7"
     pagecolor="#ededed"
     bordercolor="#666666"
     borderopacity="1.0"
     inkscape:pageshadow="2"
     inkscape:pageopacity="0"
     inkscape:pagecheckerboard="0"
     inkscape:document-units="px"
     showgrid="true"
     units="px"
     scale-x="1"
     inkscape:showpageshadow="false"
     inkscape:snap-page="false"
     inkscape:snap-nodes="true"
     inkscape:snap-object-midpoints="true"
     inkscape:snap-bbox="true"
     inkscape:bbox-paths="true"
     inkscape:bbox-nodes="true"
     inkscape:snap-bbox-edge-midpoints="true"
     inkscape:snap-bbox-midpoints="true"
     inkscape:object-paths="true"
     inkscape:snap-intersection-paths="true"
     inkscape:snap-smooth-nodes="true"
     inkscape:snap-center="true"
     inkscape:snap-midpoints="true"
     inkscape:snap-others="false"
     inkscape:zoom="1.867544"
     inkscape:cx="145.3781"
     inkscape:cy="114.32127"
     inkscape:window-width="1920"
     inkscape:window-height="1047"
     inkscape:window-x="0"
     inkscape:window-y="0"
     inkscape:window-maximized="1"
     inkscape:current-layer="layer2"
     width="240px">
    <inkscape:grid
       type="xygrid"
       id="grid5551"
       spacingx="3"
       spacingy="3" />
  </sodipodi:namedview>
  <defs
     id="defs2" />
  <g
     inkscape:label="Layer_I"
     inkscape:groupmode="layer"
     id="layer1"
     sodipodi:insensitive="true">
    <rect
       style="fill:#ff9955;fill-opacity:0;stroke:none;stroke-width:10"
       id="rect846"
       width="3840"
       height="2160"
       x="0"
       y="0"
       rx="0"
       ry="0"
       sodipodi:insensitive="true"
       inkscape:label="Background" />
  </g>
  <g
     inkscape:groupmode="layer"
     id="layer2"
     inkscape:label="Layer_II">
    <g
       id="g1126"
       transform="matrix(0.46777232,0,0,0.46777231,-1175.0715,-359.49791)"
       style="display:inline;fill:#ac9393;stroke:#241c1c;stroke-width:12.8268;stroke-linecap:butt;stroke-linejoin:miter;stroke-miterlimit:4;stroke-dasharray:none;stroke-dashoffset:0;paint-order:stroke fill markers">
      <g
         id="g1094"
         style="display:inline">
        <path
           id="path1086"
           style="display:inline;fill:#ac9393;stroke:#241c1c;stroke-width:6.00002;stroke-linecap:butt;stroke-linejoin:bevel;stroke-miterlimit:4;stroke-dasharray:none;stroke-dashoffset:0;paint-order:stroke fill markers"
           inkscape:transform-center-x="0.0069477393"
           inkscape:transform-center-y="-39.682946"
           d="m 152.91602,157.62305 c -28.30853,-12.58128 -53.265143,-16.79223 -53.263676,0.006 0.0015,16.79823 24.957036,12.58063 53.263676,-0.006 z"
           transform="matrix(2.1377922,0,0,2.1377922,2512.0586,768.53183)" />
        <path
           id="path1088"
           style="display:inline;fill:#ac9393;stroke:#241c1c;stroke-width:6.00002;stroke-linecap:butt;stroke-linejoin:bevel;stroke-miterlimit:4;stroke-dasharray:none;stroke-dashoffset:0;paint-order:stroke fill markers"
           inkscape:transform-center-x="0.0069477393"
           inkscape:transform-center-y="-39.682946"
           d="m 200.99414,185.375 c 3.25834,30.80771 12.09146,54.52748 26.63867,46.12695 14.54736,-8.40061 -1.58397,-27.9055 -26.63867,-46.12695 z"
           transform="matrix(2.1377922,0,0,2.1377922,2512.0586,768.53183)" />
        <path
           id="path1090"
           style="display:inline;fill:#ffd5d5;stroke:#241c1c;stroke-width:6.00002;stroke-linecap:butt;stroke-linejoin:bevel;stroke-miterlimit:4;stroke-dasharray:none;stroke-dashoffset:0;paint-order:stroke fill markers"
           inkscape:transform-center-x="0.0069477393"
           inkscape:transform-center-y="-39.682946"
           d="m 200.99219,129.86133 c -14.44578,10.51019 -31.75239,20.50338 -48.07617,27.76172 16.324,7.25494 33.63094,17.245 48.07812,27.75195 -1.8789,-17.76501 -1.87792,-37.74855 -0.002,-55.51367 z"
           transform="matrix(2.1377922,0,0,2.1377922,2512.0586,768.53183)" />
        <path
           id="path1092"
           style="display:inline;fill:#ac9393;stroke:#241c1c;stroke-width:6.00002;stroke-linecap:butt;stroke-linejoin:bevel;stroke-miterlimit:4;stroke-dasharray:none;stroke-dashoffset:0;paint-order:stroke fill markers"
           inkscape:transform-center-x="0.0069477393"
           inkscape:transform-center-y="-39.682946"
           d="m 222.5957,82.046875 c -11.59145,-0.898483 -18.74326,20.728305 -21.60351,47.814455 25.04959,-18.22512 41.17513,-37.731208 26.62695,-46.128908 -1.75717,-1.0143 -3.43107,-1.562118 -5.02344,-1.685547 z"
           transform="matrix(2.1377922,0,0,2.1377922,2512.0586,768.53183)" />
      </g>
      <g
         id="g1104"
         style="display:inline">
        <path
           id="path1096"
           style="display:inline;fill:#ac9393;stroke:#241c1c;stroke-width:6.00002;stroke-linecap:butt;stroke-linejoin:bevel;stroke-miterlimit:4;stroke-dasharray:none;stroke-dashoffset:0;paint-order:stroke fill markers"
           inkscape:transform-center-x="0.0069477393"
           inkscape:transform-center-y="-39.682946"
           d="M 54.626953,200.99219 C 23.81893,204.2452 0.09815013,213.07054 8.4960938,227.61914 16.893873,242.16745 36.401684,226.04219 54.626953,200.99219 Z"
           transform="matrix(2.1377922,0,0,2.1377922,2512.0586,768.53183)" />
        <path
           id="path1098"
           style="display:inline;fill:#ac9393;stroke:#241c1c;stroke-width:6.00002;stroke-linecap:butt;stroke-linejoin:bevel;stroke-miterlimit:4;stroke-dasharray:none;stroke-dashoffset:0;paint-order:stroke fill markers"
           inkscape:transform-center-x="0.0069477393"
           inkscape:transform-center-y="-39.682946"
           d="m 110.14062,200.99414 c 18.22141,25.0546 37.72636,41.186 46.12696,26.63867 8.40049,-14.54715 -15.31944,-23.38029 -46.12696,-26.63867 z"
           transform="matrix(2.1377922,0,0,2.1377922,2512.0586,768.53183)" />
        <path
           id="path1100"
           style="display:inline;fill:#ffd5d5;stroke:#241c1c;stroke-width:6.00002;stroke-linecap:butt;stroke-linejoin:bevel;stroke-miterlimit:4;stroke-dasharray:none;stroke-dashoffset:0;paint-order:stroke fill markers"
           inkscape:transform-center-x="0.0069477393"
           inkscape:transform-center-y="-39.682946"
           d="m 82.388672,152.91797 c -7.258164,16.32306 -17.252055,33.62905 -27.761719,48.07422 17.764787,-1.87578 37.749201,-1.87692 55.513667,0.002 C 99.634092,186.54757 89.643579,169.24142 82.388672,152.91797 Z"
           transform="matrix(2.1377922,0,0,2.1377922,2512.0586,768.53183)" />
        <path
           id="path1102"
           style="display:inline;fill:#ac9393;stroke:#241c1c;stroke-width:6.00002;stroke-linecap:butt;stroke-linejoin:bevel;stroke-miterlimit:4;stroke-dasharray:none;stroke-dashoffset:0;paint-order:stroke fill markers"
           inkscape:transform-center-x="0.0069477393"
           inkscape:transform-center-y="-39.682946"
           d="m 82.392578,99.652344 c -16.798517,-0.0015 -12.585944,24.956206 -0.0039,53.265626 12.587042,-28.3073 16.802459,-53.26416 0.0039,-53.265626 z"
           transform="matrix(2.1377922,0,0,2.1377922,2512.0586,768.53183)" />
      </g>
      <g
         id="g1114"
         style="display:inline">
        <path
           id="path1106"
           style="display:inline;fill:#ac9393;stroke:#241c1c;stroke-width:6.00002;stroke-linecap:butt;stroke-linejoin:bevel;stroke-miterlimit:4;stroke-dasharray:none;stroke-dashoffset:0;paint-order:stroke fill markers"
           inkscape:transform-center-x="0.0069477393"
           inkscape:transform-center-y="-39.682946"
           d="M 129.86328,39.007812 C 111.63801,13.957814 92.130201,-2.1674532 83.732422,12.380859 75.334478,26.929457 99.055258,35.754802 129.86328,39.007812 Z"
           transform="matrix(2.1377922,0,0,2.1377922,2512.0586,768.53183)" />
        <path
           id="path1108"
           style="display:inline;fill:#ac9393;stroke:#241c1c;stroke-width:6.00002;stroke-linecap:butt;stroke-linejoin:bevel;stroke-miterlimit:4;stroke-dasharray:none;stroke-dashoffset:0;paint-order:stroke fill markers"
           inkscape:transform-center-x="0.0069477393"
           inkscape:transform-center-y="-39.682946"
           d="m 157.62305,87.083984 c -12.58128,28.308526 -16.79223,53.265136 0.006,53.263676 16.79823,-10e-4 12.58063,-24.95704 -0.006,-53.263676 z"
           transform="matrix(2.1377922,0,0,2.1377922,2512.0586,768.53183)" />
        <path
           id="path1110"
           style="display:inline;fill:#ffd5d5;stroke:#241c1c;stroke-width:6.00002;stroke-linecap:butt;stroke-linejoin:bevel;stroke-miterlimit:4;stroke-dasharray:none;stroke-dashoffset:0;paint-order:stroke fill markers"
           inkscape:transform-center-x="0.0069477393"
           inkscape:transform-center-y="-39.682946"
           d="m 185.375,39.005859 c -17.76437,1.87883 -37.74707,1.877718 -55.51172,0.002 10.51001,14.445637 20.50155,31.752657 27.75977,48.076172 7.25494,-16.324002 17.245,-33.630945 27.75195,-48.078125 z"
           transform="matrix(2.1377922,0,0,2.1377922,2512.0586,768.53183)" />
        <path
           id="path1112"
           style="display:inline;fill:#ac9393;stroke:#241c1c;stroke-width:6.00002;stroke-linecap:butt;stroke-linejoin:bevel;stroke-miterlimit:4;stroke-dasharray:none;stroke-dashoffset:0;paint-order:stroke fill markers"
           inkscape:transform-center-x="0.0069477393"
           inkscape:transform-center-y="-39.682946"
           d="M 223.64258,6.8730469 C 213.74442,6.0877781 199.19496,20.003253 185.375,39.005859 216.18271,35.747516 239.90248,26.914402 231.50195,12.367188 229.47274,8.8531962 226.79502,7.1231453 223.64258,6.8730469 Z"
           transform="matrix(2.1377922,0,0,2.1377922,2512.0586,768.53183)" />
      </g>
      <g
         id="g1124"
         style="display:inline;stroke-linejoin:bevel">
        <path
           id="path1116"
           style="display:inline;fill:#ffd5d5;stroke:#241c1c;stroke-width:6.00002;stroke-linecap:butt;stroke-linejoin:miter;stroke-miterlimit:4;stroke-dasharray:none;stroke-dashoffset:0;paint-order:stroke fill markers"
           inkscape:transform-center-x="0.0069477393"
           inkscape:transform-center-y="-39.682946"
           d="m 39.005859,54.625 c 1.878897,17.765007 1.87792,37.748554 0.002,55.51367 C 53.453586,99.628482 70.760204,89.635288 87.083984,82.376953 70.759981,75.122005 53.45304,65.131951 39.005859,54.625 Z"
           transform="matrix(2.1377922,0,0,2.1377922,2512.0586,768.53183)" />
        <path
           id="path1118"
           style="display:inline;fill:#ac9393;stroke:#241c1c;stroke-width:6.00002;stroke-linecap:butt;stroke-linejoin:bevel;stroke-miterlimit:4;stroke-dasharray:none;stroke-dashoffset:0;paint-order:stroke fill markers"
           inkscape:transform-center-x="0.0069477393"
           inkscape:transform-center-y="-39.682946"
           d="m 39.007812,110.13867 c -25.049594,18.22512 -41.1751292,37.73121 -26.626953,46.12891 14.548299,8.39777 23.373777,-15.32182 26.626953,-46.12891 z"
           transform="matrix(2.1377922,0,0,2.1377922,2512.0586,768.53183)" />
        <path
           id="path1120"
           style="display:inline;fill:#ac9393;stroke:#241c1c;stroke-width:6.00002;stroke-linecap:butt;stroke-linejoin:bevel;stroke-miterlimit:4;stroke-dasharray:none;stroke-dashoffset:0;paint-order:stroke fill markers"
           inkscape:transform-center-x="0.0069477393"
           inkscape:transform-center-y="-39.682946"
           d="m 87.083984,82.376953 c 28.308526,12.58128 53.265136,16.792227 53.263676,-0.0059 -10e-4,-16.798238 -24.95704,-12.580629 -53.263676,0.0059 z"
           transform="matrix(2.1377922,0,0,2.1377922,2512.0586,768.53183)" />
        <path
           id="path1122"
           style="display:inline;fill:#ac9393;stroke:#241c1c;stroke-width:6.00002;stroke-linecap:butt;stroke-linejoin:bevel;stroke-miterlimit:4;stroke-dasharray:none;stroke-dashoffset:0;paint-order:stroke fill markers"
           inkscape:transform-center-x="0.0069477393"
           inkscape:transform-center-y="-39.682946"
           d="M 17.392578,6.8125 C 15.800231,6.9362066 14.124183,7.4834404 12.367188,8.4980469 -2.1801725,16.898662 13.951157,36.403554 39.005859,54.625 36.141055,27.538207 28.98422,5.9119661 17.392578,6.8125 Z"
           transform="matrix(2.1377922,0,0,2.1377922,2512.0586,768.53183)" />
      </g>
      <g
         id="g5583"
         style="display:inline">
        <path
           style="display:inline;fill:#ffccaa;stroke:#916f6f;stroke-width:7.30646;stroke-linejoin:bevel"
           d="m 45.169493,66.47882 c 0.641575,11.02161 0.566198,22.072349 -0.08651,33.091354 C 54.680226,93.291536 64.601403,87.496413 74.839511,82.325246 64.583633,77.230351 54.648628,71.491518 45.099925,65.170399 c 0.02319,0.436141 0.04638,0.872281 0.06957,1.308421 z"
           id="path2728"
           transform="matrix(2.1377922,0,0,2.1377922,2512.0586,768.53183)" />
        <path
           style="display:inline;fill:#ffccaa;stroke:#916f6f;stroke-width:7.30646;stroke-linejoin:bevel"
           d="m 82.053216,165.97407 c -5.018732,9.87654 -11.094468,19.81264 -16.726734,28.94312 11.41366,-0.73057 22.863188,-0.72637 34.276692,0.004 -6.327252,-9.5572 -12.056106,-19.51259 -17.120954,-29.79488 -0.143001,0.28243 -0.286003,0.56487 -0.429004,0.8473 z"
           id="path2767"
           transform="matrix(2.1377922,0,0,2.1377922,2512.0586,768.53183)" />
        <path
           style="fill:#ffccaa;stroke:#916f6f;stroke-width:7.30646;stroke-linejoin:bevel"
           d="m 194.50602,140.75465 c -9.4633,6.16278 -19.26914,11.80212 -29.3409,16.90957 10.22952,5.17233 20.20727,10.85511 29.82521,17.09331 -0.26097,-11.43734 -0.26687,-22.88212 -0.005,-34.31951 l -0.38094,0.25183 z"
           id="path2806"
           transform="matrix(2.1377922,0,0,2.1377922,2512.0586,768.53183)" />
        <path
           style="display:inline;fill:#ffccaa;stroke:#916f6f;stroke-width:7.306;stroke-linecap:square;stroke-linejoin:bevel;stroke-miterlimit:4;stroke-dasharray:none"
           d="m 141.44766,46.680375 c 5.92711,9.069163 11.33397,18.478739 16.17286,28.172514 5.13084,-10.291439 10.86819,-20.284582 17.22976,-29.865344 -11.50374,0.258841 -23.01462,0.254171 -34.51839,0 0.37192,0.564277 0.74384,1.128554 1.11577,1.69283 z"
           id="path2845"
           transform="matrix(2.1377922,0,0,2.1377922,2512.0586,768.53183)" />
        <path
           style="fill:#483737;stroke:#aa4400;stroke-width:1.59829;stroke-linecap:square;stroke-linejoin:bevel;stroke-miterlimit:4;stroke-dasharray:none;stroke-opacity:1;paint-order:markers stroke fill"
           d="m 222.33962,12.12541 c -6.55342,1.357037 -11.65057,6.306937 -16.40922,10.730475 -2.90557,2.931432 -5.67863,5.992383 -8.36515,9.125051 9.52292,-1.930569 19.5976,-3.798282 27.59278,-9.666436 2.53155,-1.584938 3.70945,-5.065101 1.52515,-7.457194 -0.9921,-1.40595 -2.44426,-2.9661 -4.34356,-2.731896 z"
           id="path4393"
           transform="matrix(2.1377922,0,0,2.1377922,2512.0586,768.53183)" />
        <path
           style="fill:#483737;stroke:#aa4400;stroke-width:1.59829;stroke-linecap:square;stroke-linejoin:bevel;stroke-miterlimit:4;stroke-dasharray:none;stroke-opacity:1;paint-order:markers stroke fill"
           d="m 92.08979,12.1816 c -2.952125,0.318924 -4.649288,3.841337 -4.781487,6.462723 2.911464,5.647871 9.548015,7.834315 15.226577,9.704474 4.97124,1.526452 10.01607,2.701689 15.05172,3.638382 C 111.11631,24.666737 104.44386,16.740006 95.278341,12.764012 94.258071,12.404872 93.180089,12.126335 92.08979,12.1816 Z"
           id="path4432"
           transform="matrix(2.1377922,0,0,2.1377922,2512.0586,768.53183)" />
        <path
           style="fill:#483737;stroke:#aa4400;stroke-width:1.59829;stroke-linecap:square;stroke-linejoin:bevel;stroke-miterlimit:4;stroke-dasharray:none;stroke-opacity:1;paint-order:markers stroke fill"
           d="m 157.6009,101.37449 c -3.35433,9.55543 -6.95954,19.83175 -5.0892,30.06959 0.70264,4.06949 6.69642,4.64049 9.18214,2.02551 2.60689,-4.26407 1.47893,-9.63522 1.03103,-14.34892 -1.07523,-6.09841 -3.1415,-12.01693 -5.12397,-17.74618 z"
           id="path4471"
           transform="matrix(2.1377922,0,0,2.1377922,2512.0586,768.53183)" />
        <path
           style="fill:#483737;stroke:#aa4400;stroke-width:1.59829;stroke-linecap:square;stroke-linejoin:bevel;stroke-miterlimit:4;stroke-dasharray:none;stroke-opacity:1;paint-order:markers stroke fill"
           d="m 30.92314,123.32064 c -6.898068,6.32421 -14.574072,12.67476 -18.159128,21.56887 -1.818897,3.63162 1.247802,7.38732 4.912597,7.79433 3.336806,-0.0692 5.285159,-3.71636 6.922053,-6.18356 4.025294,-7.42788 5.757718,-15.82402 7.327868,-24.05014 -0.334463,0.29017 -0.668927,0.58033 -1.00339,0.8705 z"
           id="path4510"
           transform="matrix(2.1377922,0,0,2.1377922,2512.0586,768.53183)" />
        <path
           style="fill:#483737;stroke:#aa4400;stroke-width:1.59829;stroke-linecap:square;stroke-linejoin:bevel;stroke-miterlimit:4;stroke-dasharray:none;stroke-opacity:1;paint-order:markers stroke fill"
           d="m 126.35667,76.604585 c -8.69018,0.330328 -17.12738,2.860511 -25.28186,5.717985 8.48828,2.792741 17.2512,5.962961 26.38247,5.907068 3.00447,-0.167616 7.94633,-1.301436 7.46968,-5.268466 0.76173,-3.060284 -1.65647,-5.833568 -4.69943,-6.016772 -1.26357,-0.308747 -2.5758,-0.347417 -3.87086,-0.339815 z"
           id="path4549"
           transform="matrix(2.1377922,0,0,2.1377922,2512.0586,768.53183)" />
        <path
           style="fill:#483737;stroke:#aa4400;stroke-width:1.59829;stroke-linecap:square;stroke-linejoin:bevel;stroke-miterlimit:4;stroke-dasharray:none;stroke-opacity:1;paint-order:markers stroke fill"
           d="m 17.914747,12.096869 c -2.745666,0.73788 -6.472497,2.557626 -5.586875,6.049772 1.53706,6.900264 7.024869,12.043434 11.708,17.022845 2.528656,2.505523 5.307625,5.006443 7.921875,7.215489 -1.890648,-9.529943 -3.743745,-19.631633 -9.671788,-27.590994 -1.115168,-1.277353 -2.55192,-2.700861 -4.371212,-2.697112 z"
           id="path4588"
           transform="matrix(2.1377922,0,0,2.1377922,2512.0586,768.53183)" />
        <path
           style="fill:#483737;stroke:#aa4400;stroke-width:1.59829;stroke-linecap:square;stroke-linejoin:bevel;stroke-miterlimit:4;stroke-dasharray:none;stroke-opacity:1;paint-order:markers stroke fill"
           d="m 41.229069,208.24043 c -9.296597,1.95605 -19.213826,3.84066 -26.871228,9.83589 -2.644844,1.72503 -2.824502,5.38649 -0.652872,7.55798 1.282914,2.55766 4.421788,2.66012 6.688374,1.40386 9.004067,-4.00583 15.689643,-11.69391 22.00501,-19.01268 -0.389761,0.0717 -0.779522,0.1433 -1.169284,0.21495 z"
           id="path4627"
           transform="matrix(2.1377922,0,0,2.1377922,2512.0586,768.53183)" />
        <path
           style="fill:#483737;stroke:#aa4400;stroke-width:1.59829;stroke-linecap:square;stroke-linejoin:bevel;stroke-miterlimit:4;stroke-dasharray:none;stroke-opacity:1;paint-order:markers stroke fill"
           d="m 122.69452,208.39562 c 6.43593,7.37931 13.22202,15.26252 22.50983,19.02338 4.98156,2.3998 10.02411,-5.40649 5.64395,-8.88602 -7.00249,-6.14084 -16.75495,-7.96292 -25.46204,-9.93514 -0.38701,0.0779 -3.66198,-1.02922 -2.69174,-0.20222 z"
           id="path4666"
           transform="matrix(2.1377922,0,0,2.1377922,2512.0586,768.53183)" />
        <path
           style="fill:#483737;stroke:#aa4400;stroke-width:1.59829;stroke-linecap:square;stroke-linejoin:bevel;stroke-miterlimit:4;stroke-dasharray:none;stroke-opacity:1;paint-order:markers stroke fill"
           d="m 82.115648,104.87699 c -4.058378,-0.12582 -5.716964,4.48451 -5.410278,7.88352 -0.172157,8.97037 2.65572,17.63349 5.682309,25.96595 3.161957,-8.98369 6.454301,-18.63894 5.516415,-28.3937 -0.236636,-3.21214 -2.396441,-5.73021 -5.788446,-5.45577 z"
           id="path4705"
           transform="matrix(2.1377922,0,0,2.1377922,2512.0586,768.53183)" />
        <path
           style="fill:#483737;stroke:#aa4400;stroke-width:1.59829;stroke-linecap:square;stroke-linejoin:bevel;stroke-miterlimit:4;stroke-dasharray:none;stroke-opacity:1;paint-order:markers stroke fill"
           d="m 208.14142,198.25915 c 1.72564,8.67303 3.57467,18.04462 8.6907,25.68767 1.57873,2.14848 3.98955,5.10853 6.97735,3.49893 2.77429,-0.86695 4.98059,-3.68099 3.62737,-6.61523 -3.46995,-9.45236 -11.42573,-15.99681 -18.63384,-22.56664 -0.40237,-0.23766 -1.11892,-1.34511 -0.66158,-0.005 z"
           id="path4744"
           transform="matrix(2.1377922,0,0,2.1377922,2512.0586,768.53183)" />
        <path
           style="fill:#483737;stroke:#aa4400;stroke-width:1.59829;stroke-linecap:square;stroke-linejoin:bevel;stroke-miterlimit:4;stroke-dasharray:none;stroke-opacity:1;paint-order:markers stroke fill"
           d="m 187.13802,151.48423 c -3.47595,2.14041 -7.3604,4.22314 -10.69212,6.20586 4.34294,2.40624 8.65485,4.8691 12.92634,7.40011 0.0358,-5.00471 0.0835,-10.00941 0.0874,-15.01428 -0.77387,0.46944 -1.54775,0.93887 -2.32162,1.40831 z"
           id="path4783"
           transform="matrix(2.1377922,0,0,2.1377922,2512.0586,768.53183)" />
        <path
           style="fill:#483737;stroke:#aa4400;stroke-width:1.59829;stroke-linecap:square;stroke-linejoin:bevel;stroke-miterlimit:4;stroke-dasharray:none;stroke-opacity:1;paint-order:markers stroke fill"
           d="m 82.228028,176.62339 c -2.409116,4.34702 -4.933828,8.62883 -7.470572,12.90225 5.071929,0.0114 10.144077,0.0221 15.215851,-0.0259 -2.634717,-4.32298 -5.156895,-8.71422 -7.594547,-13.1511 z"
           id="path4822"
           transform="matrix(2.1377922,0,0,2.1377922,2512.0586,768.53183)" />
        <path
           style="fill:#483737;stroke:#aa4400;stroke-width:1.59829;stroke-linecap:square;stroke-linejoin:bevel;stroke-miterlimit:4;stroke-dasharray:none;stroke-opacity:1;paint-order:markers stroke fill"
           d="m 50.437068,82.302056 c 0.07923,2.460115 -0.14158,5.467305 0.127542,7.615061 4.316718,-2.617696 8.681506,-5.157116 13.10115,-7.597223 -4.462933,-2.445711 -8.874765,-4.985522 -13.228692,-7.620412 0,2.534191 0,5.068383 0,7.602574 z"
           id="path4861"
           transform="matrix(2.1377922,0,0,2.1377922,2512.0586,768.53183)" />
        <path
           style="fill:#483737;stroke:#aa4400;stroke-width:1.59829;stroke-linecap:square;stroke-linejoin:bevel;stroke-miterlimit:4;stroke-dasharray:none;stroke-opacity:1;paint-order:markers stroke fill"
           d="m 163.75056,50.514663 c -4.55028,0.01056 -9.1004,0.05236 -13.65056,0.08473 2.59449,4.249708 5.10872,8.772489 7.55798,12.970041 2.40942,-4.399992 4.90954,-8.750208 7.48395,-13.055664 -0.46379,2.98e-4 -0.92758,5.95e-4 -1.39137,8.93e-4 z"
           id="path4900"
           transform="matrix(2.1377922,0,0,2.1377922,2512.0586,768.53183)" />
        <path
           style="fill:#483737;stroke:#aa4400;stroke-width:1.59829;stroke-linecap:square;stroke-linejoin:bevel;stroke-miterlimit:4;stroke-dasharray:none;stroke-opacity:1;paint-order:markers stroke fill"
           d="m 113.05663,151.8847 c -3.32958,-0.18436 -8.03374,1.05115 -8.03961,5.14092 -0.61497,3.02638 1.54602,5.61308 4.52105,5.9802 10.06209,0.93612 19.96413,-1.91398 29.3088,-5.37817 -8.28464,-2.92234 -16.91146,-5.73498 -25.79024,-5.74295 z"
           id="path4939"
           transform="matrix(2.1377922,0,0,2.1377922,2512.0586,768.53183)" />
        <path
           style="fill:#483737;stroke:#aa4400;stroke-width:1.59829;stroke-linecap:square;stroke-linejoin:bevel;stroke-miterlimit:4;stroke-dasharray:none;stroke-opacity:1;paint-order:markers stroke fill"
           d="m 221.6252,87.418899 c -4.58712,1.062274 -6.26951,6.310851 -8.11185,10.113278 -2.64985,6.434113 -4.36872,13.220203 -5.47717,20.080283 6.29119,-5.87949 12.96954,-11.65367 17.61185,-18.979201 1.62598,-2.781399 3.77532,-7.512345 0.11827,-9.675829 -1.22144,-0.823921 -2.6255,-1.588365 -4.1411,-1.538531 z"
           id="path4978"
           transform="matrix(2.1377922,0,0,2.1377922,2512.0586,768.53183)" />
      </g>
    </g>
  </g>
</svg>
