<?xml version="1.0" encoding="UTF-8" standalone="no"?>
<!-- Created with Inkscape (http://www.inkscape.org/) -->

<svg
   width="240"
   height="240"
   viewBox="0 0 240 240"
   version="1.1"
   id="svg5"
   inkscape:version="1.1.1 (3bf5ae0d25, 2021-09-20)"
   sodipodi:docname="Patter_file82.svg"
   xmlns:inkscape="http://www.inkscape.org/namespaces/inkscape"
   xmlns:sodipodi="http://sodipodi.sourceforge.net/DTD/sodipodi-0.dtd"
   xmlns="http://www.w3.org/2000/svg"
   xmlns:svg="http://www.w3.org/2000/svg">
  <sodipodi:namedview
     id="namedview7"
     pagecolor="#ededed"
     bordercolor="#666666"
     borderopacity="1.0"
     inkscape:pageshadow="2"
     inkscape:pageopacity="0"
     inkscape:pagecheckerboard="0"
     inkscape:document-units="px"
     showgrid="false"
     units="px"
     scale-x="1"
     inkscape:showpageshadow="false"
     inkscape:snap-page="true"
     inkscape:snap-nodes="true"
     showguides="false"
     inkscape:guide-bbox="true"
     inkscape:snap-bbox="false"
     inkscape:bbox-nodes="true"
     inkscape:snap-intersection-paths="true"
     inkscape:object-nodes="true"
     inkscape:snap-others="false"
     inkscape:bbox-paths="true"
     inkscape:snap-smooth-nodes="false"
     inkscape:snap-midpoints="false"
     inkscape:snap-grids="false"
     inkscape:zoom="3.5458333"
     inkscape:cx="120"
     inkscape:cy="120"
     inkscape:window-width="1920"
     inkscape:window-height="1047"
     inkscape:window-x="0"
     inkscape:window-y="0"
     inkscape:window-maximized="1"
     inkscape:current-layer="layer2">
    <sodipodi:guide
       position="120,120"
       orientation="0,1"
       id="guide823"
       inkscape:label=""
       inkscape:locked="true"
       inkscape:color="rgb(0,0,255)" />
    <sodipodi:guide
       position="120,120"
       orientation="-1,0"
       id="guide825"
       inkscape:label=""
       inkscape:locked="true"
       inkscape:color="rgb(0,0,255)" />
    <inkscape:grid
       type="xygrid"
       id="grid917"
       spacingx="6"
       spacingy="6"
       empspacing="4" />
  </sodipodi:namedview>
  <defs
     id="defs2" />
  <g
     inkscape:label="Layer_I"
     inkscape:groupmode="layer"
     id="layer1"
     sodipodi:insensitive="true">
    <rect
       style="fill:#ff9955;fill-opacity:0;stroke:none;stroke-width:10"
       id="rect846"
       width="3840"
       height="2160"
       x="0"
       y="0"
       rx="0"
       ry="0"
       sodipodi:insensitive="true"
       inkscape:label="Background" />
  </g>
  <g
     inkscape:groupmode="layer"
     id="layer2"
     inkscape:label="Layer_II">
    <g
       id="g911"
       style="display:inline">
      <g
         id="g845"
         style="stroke:#ff6600;stroke-width:2">
        <path
           style="display:inline;fill:none;stroke:#ff6600;stroke-width:2;stroke-linecap:butt;stroke-linejoin:miter;stroke-opacity:1"
           d="m 0,144 h 12 v -24 h 24 v 24 h 24 v -24 h 24 v 24 h 24 v -24 h 24 v 24 h 24 v -24 h 24 v 24 h 24 v -24 h 24 v 24 h 12"
           id="path1585"
           sodipodi:nodetypes="cccccccccccccccccccccc" />
        <path
           style="display:inline;fill:none;stroke:#ff6600;stroke-width:2;stroke-linecap:butt;stroke-linejoin:miter;stroke-opacity:1"
           d="m 0,150 h 6 v -24 h 24 v 24 h 24 v -24 h 24 v 24 h 24 v -24 h 24 v 24 h 24 v -24 h 24 v 24 h 24 v -24 h 24 v 24 h 18"
           id="path1724"
           sodipodi:nodetypes="cccccccccccccccccccccc" />
        <path
           style="display:inline;fill:none;stroke:#ff6600;stroke-width:2;stroke-linecap:butt;stroke-linejoin:miter;stroke-opacity:1"
           d="m 0,132 h 24 v 24 h 24 v -24 h 24 v 24 h 24 v -24 h 24 v 24 h 24 v -24 h 24 v 24 h 24 v -24 h 24 v 24 h 18 v -24 h 6"
           id="path1881"
           sodipodi:nodetypes="cccccccccccccccccccccc" />
        <path
           style="display:inline;fill:none;stroke:#ff6600;stroke-width:2;stroke-linecap:butt;stroke-linejoin:miter;stroke-opacity:1"
           d="m 240,138 h -6 v 24 h -24 v -24 h -24 v 24 h -24 v -24 h -24 v 24 H 114 V 138 H 90 v 24 H 66 V 138 H 42 v 24 H 18 V 138 H 0"
           id="path2131"
           sodipodi:nodetypes="cccccccccccccccccccccc" />
        <path
           style="display:inline;fill:none;stroke:#ff6600;stroke-width:2;stroke-linecap:butt;stroke-linejoin:miter;stroke-opacity:1"
           d="m 0,144 h 12 v 24 h 24 v -24 h 24 v 24 h 24 v -24 h 24 v 24 h 24 v -24 h 24 v 24 h 24 v -24 h 24 v 24 h 24 v -24 h 12"
           id="path2544"
           sodipodi:nodetypes="cccccccccccccccccc" />
        <path
           style="display:inline;fill:none;stroke:#ff6600;stroke-width:2;stroke-linecap:butt;stroke-linejoin:miter;stroke-opacity:1"
           d="m 0,150 h 6 v 24 h 24 v -24 h 24 v 24 h 24 v -24 h 24 v 24 h 24 v -24 h 24 v 24 h 24 v -24 h 24 v 24 h 24 v -24 h 18"
           id="path2754" />
        <path
           style="display:inline;fill:none;stroke:#ff6600;stroke-width:2;stroke-linecap:butt;stroke-linejoin:miter;stroke-opacity:1"
           d="m 0,180 h 24 v -24 h 24 v 24 h 24 v -24 h 24 v 24 h 24 v -24 h 24 v 24 h 24 v -24 h 24 v 24 h 24 v -24 h 24"
           id="path2869"
           sodipodi:nodetypes="cccccccccccccccccccc" />
      </g>
      <g
         id="g861"
         transform="translate(0,-42)">
        <path
           style="display:inline;fill:none;stroke:#000000;stroke-width:1px;stroke-linecap:butt;stroke-linejoin:miter;stroke-opacity:1"
           d="m 0,144 h 12 v -24 h 24 v 24 h 24 v -24 h 24 v 24 h 24 v -24 h 24 v 24 h 24 v -24 h 24 v 24 h 24 v -24 h 24 v 24 h 12"
           id="path847"
           sodipodi:nodetypes="cccccccccccccccccccccc" />
        <path
           style="display:inline;fill:none;stroke:#000000;stroke-width:1px;stroke-linecap:butt;stroke-linejoin:miter;stroke-opacity:1"
           d="m 0,150 h 6 v -24 h 24 v 24 h 24 v -24 h 24 v 24 h 24 v -24 h 24 v 24 h 24 v -24 h 24 v 24 h 24 v -24 h 24 v 24 h 18"
           id="path849"
           sodipodi:nodetypes="cccccccccccccccccccccc" />
        <path
           style="display:inline;fill:none;stroke:#000000;stroke-width:1px;stroke-linecap:butt;stroke-linejoin:miter;stroke-opacity:1"
           d="m 0,132 h 24 v 24 h 24 v -24 h 24 v 24 h 24 v -24 h 24 v 24 h 24 v -24 h 24 v 24 h 24 v -24 h 24 v 24 h 18 v -24 h 6"
           id="path851"
           sodipodi:nodetypes="cccccccccccccccccccccc" />
        <path
           style="display:inline;fill:none;stroke:#000000;stroke-width:1px;stroke-linecap:butt;stroke-linejoin:miter;stroke-opacity:1"
           d="m 240,138 h -6 v 24 h -24 v -24 h -24 v 24 h -24 v -24 h -24 v 24 H 114 V 138 H 90 v 24 H 66 V 138 H 42 v 24 H 18 V 138 H 0"
           id="path853"
           sodipodi:nodetypes="cccccccccccccccccccccc" />
        <path
           style="display:inline;fill:none;stroke:#000000;stroke-width:1px;stroke-linecap:butt;stroke-linejoin:miter;stroke-opacity:1"
           d="m 0,144 h 12 v 24 h 24 v -24 h 24 v 24 h 24 v -24 h 24 v 24 h 24 v -24 h 24 v 24 h 24 v -24 h 24 v 24 h 24 v -24 h 12"
           id="path855"
           sodipodi:nodetypes="cccccccccccccccccc" />
        <path
           style="display:inline;fill:none;stroke:#000000;stroke-width:1px;stroke-linecap:butt;stroke-linejoin:miter;stroke-opacity:1"
           d="m 0,150 h 6 v 24 h 24 v -24 h 24 v 24 h 24 v -24 h 24 v 24 h 24 v -24 h 24 v 24 h 24 v -24 h 24 v 24 h 24 v -24 h 18"
           id="path857" />
        <path
           style="display:inline;fill:none;stroke:#000000;stroke-width:1px;stroke-linecap:butt;stroke-linejoin:miter;stroke-opacity:1"
           d="m 0,180 h 24 v -24 h 24 v 24 h 24 v -24 h 24 v 24 h 24 v -24 h 24 v 24 h 24 v -24 h 24 v 24 h 24 v -24 h 24"
           id="path859"
           sodipodi:nodetypes="cccccccccccccccccccc" />
      </g>
      <g
         id="g877"
         transform="translate(0,-84)"
         style="stroke:#483737;stroke-width:2">
        <path
           style="display:inline;fill:none;stroke:#483737;stroke-width:2;stroke-linecap:butt;stroke-linejoin:miter;stroke-opacity:1"
           d="m 0,144 h 12 v -24 h 24 v 24 h 24 v -24 h 24 v 24 h 24 v -24 h 24 v 24 h 24 v -24 h 24 v 24 h 24 v -24 h 24 v 24 h 12"
           id="path863"
           sodipodi:nodetypes="cccccccccccccccccccccc" />
        <path
           style="display:inline;fill:none;stroke:#483737;stroke-width:2;stroke-linecap:butt;stroke-linejoin:miter;stroke-opacity:1"
           d="m 0,150 h 6 v -24 h 24 v 24 h 24 v -24 h 24 v 24 h 24 v -24 h 24 v 24 h 24 v -24 h 24 v 24 h 24 v -24 h 24 v 24 h 18"
           id="path865"
           sodipodi:nodetypes="cccccccccccccccccccccc" />
        <path
           style="display:inline;fill:none;stroke:#483737;stroke-width:2;stroke-linecap:butt;stroke-linejoin:miter;stroke-opacity:1"
           d="m 0,132 h 24 v 24 h 24 v -24 h 24 v 24 h 24 v -24 h 24 v 24 h 24 v -24 h 24 v 24 h 24 v -24 h 24 v 24 h 18 v -24 h 6"
           id="path867"
           sodipodi:nodetypes="cccccccccccccccccccccc" />
        <path
           style="display:inline;fill:none;stroke:#483737;stroke-width:2;stroke-linecap:butt;stroke-linejoin:miter;stroke-opacity:1"
           d="m 240,138 h -6 v 24 h -24 v -24 h -24 v 24 h -24 v -24 h -24 v 24 H 114 V 138 H 90 v 24 H 66 V 138 H 42 v 24 H 18 V 138 H 0"
           id="path869"
           sodipodi:nodetypes="cccccccccccccccccccccc" />
        <path
           style="display:inline;fill:none;stroke:#483737;stroke-width:2;stroke-linecap:butt;stroke-linejoin:miter;stroke-opacity:1"
           d="m 0,144 h 12 v 24 h 24 v -24 h 24 v 24 h 24 v -24 h 24 v 24 h 24 v -24 h 24 v 24 h 24 v -24 h 24 v 24 h 24 v -24 h 12"
           id="path871"
           sodipodi:nodetypes="cccccccccccccccccc" />
        <path
           style="display:inline;fill:none;stroke:#483737;stroke-width:2;stroke-linecap:butt;stroke-linejoin:miter;stroke-opacity:1"
           d="m 0,150 h 6 v 24 h 24 v -24 h 24 v 24 h 24 v -24 h 24 v 24 h 24 v -24 h 24 v 24 h 24 v -24 h 24 v 24 h 24 v -24 h 18"
           id="path873" />
        <path
           style="display:inline;fill:none;stroke:#483737;stroke-width:2;stroke-linecap:butt;stroke-linejoin:miter;stroke-opacity:1"
           d="m 0,180 h 24 v -24 h 24 v 24 h 24 v -24 h 24 v 24 h 24 v -24 h 24 v 24 h 24 v -24 h 24 v 24 h 24 v -24 h 24"
           id="path875"
           sodipodi:nodetypes="cccccccccccccccccccc" />
      </g>
      <g
         id="g893"
         transform="translate(0,-120)"
         style="stroke:#ffcc00">
        <path
           style="display:inline;fill:none;stroke:#ffcc00;stroke-width:1px;stroke-linecap:butt;stroke-linejoin:miter;stroke-opacity:1"
           d="m 0,144 h 12 v -24 h 24 v 24 h 24 v -24 h 24 v 24 h 24 v -24 h 24 v 24 h 24 v -24 h 24 v 24 h 24 v -24 h 24 v 24 h 12"
           id="path879"
           sodipodi:nodetypes="cccccccccccccccccccccc" />
        <path
           style="display:inline;fill:none;stroke:#ffcc00;stroke-width:1px;stroke-linecap:butt;stroke-linejoin:miter;stroke-opacity:1"
           d="m 0,150 h 6 v -24 h 24 v 24 h 24 v -24 h 24 v 24 h 24 v -24 h 24 v 24 h 24 v -24 h 24 v 24 h 24 v -24 h 24 v 24 h 18"
           id="path881"
           sodipodi:nodetypes="cccccccccccccccccccccc" />
        <path
           style="display:inline;fill:none;stroke:#ffcc00;stroke-width:1px;stroke-linecap:butt;stroke-linejoin:miter;stroke-opacity:1"
           d="m 0,132 h 24 v 24 h 24 v -24 h 24 v 24 h 24 v -24 h 24 v 24 h 24 v -24 h 24 v 24 h 24 v -24 h 24 v 24 h 18 v -24 h 6"
           id="path883"
           sodipodi:nodetypes="cccccccccccccccccccccc" />
        <path
           style="display:inline;fill:none;stroke:#ffcc00;stroke-width:1px;stroke-linecap:butt;stroke-linejoin:miter;stroke-opacity:1"
           d="m 240,138 h -6 v 24 h -24 v -24 h -24 v 24 h -24 v -24 h -24 v 24 H 114 V 138 H 90 v 24 H 66 V 138 H 42 v 24 H 18 V 138 H 0"
           id="path885"
           sodipodi:nodetypes="cccccccccccccccccccccc" />
        <path
           style="display:inline;fill:none;stroke:#ffcc00;stroke-width:1px;stroke-linecap:butt;stroke-linejoin:miter;stroke-opacity:1"
           d="m 0,144 h 12 v 24 h 24 v -24 h 24 v 24 h 24 v -24 h 24 v 24 h 24 v -24 h 24 v 24 h 24 v -24 h 24 v 24 h 24 v -24 h 12"
           id="path887"
           sodipodi:nodetypes="cccccccccccccccccc" />
        <path
           style="display:inline;fill:none;stroke:#ffcc00;stroke-width:1px;stroke-linecap:butt;stroke-linejoin:miter;stroke-opacity:1"
           d="m 0,150 h 6 v 24 h 24 v -24 h 24 v 24 h 24 v -24 h 24 v 24 h 24 v -24 h 24 v 24 h 24 v -24 h 24 v 24 h 24 v -24 h 18"
           id="path889" />
        <path
           style="display:inline;fill:none;stroke:#ffcc00;stroke-width:1px;stroke-linecap:butt;stroke-linejoin:miter;stroke-opacity:1"
           d="m 0,180 h 24 v -24 h 24 v 24 h 24 v -24 h 24 v 24 h 24 v -24 h 24 v 24 h 24 v -24 h 24 v 24 h 24 v -24 h 24"
           id="path891"
           sodipodi:nodetypes="cccccccccccccccccccc" />
      </g>
      <g
         id="g909"
         transform="translate(0,60)"
         style="stroke:#000080;stroke-width:2">
        <path
           style="display:inline;fill:none;stroke:#000080;stroke-width:2;stroke-linecap:butt;stroke-linejoin:miter;stroke-opacity:1"
           d="m 0,144 h 12 v -24 h 24 v 24 h 24 v -24 h 24 v 24 h 24 v -24 h 24 v 24 h 24 v -24 h 24 v 24 h 24 v -24 h 24 v 24 h 12"
           id="path895"
           sodipodi:nodetypes="cccccccccccccccccccccc" />
        <path
           style="display:inline;fill:none;stroke:#000080;stroke-width:2;stroke-linecap:butt;stroke-linejoin:miter;stroke-opacity:1"
           d="m 0,150 h 6 v -24 h 24 v 24 h 24 v -24 h 24 v 24 h 24 v -24 h 24 v 24 h 24 v -24 h 24 v 24 h 24 v -24 h 24 v 24 h 18"
           id="path897"
           sodipodi:nodetypes="cccccccccccccccccccccc" />
        <path
           style="display:inline;fill:none;stroke:#000080;stroke-width:2;stroke-linecap:butt;stroke-linejoin:miter;stroke-opacity:1"
           d="m 0,132 h 24 v 24 h 24 v -24 h 24 v 24 h 24 v -24 h 24 v 24 h 24 v -24 h 24 v 24 h 24 v -24 h 24 v 24 h 18 v -24 h 6"
           id="path899"
           sodipodi:nodetypes="cccccccccccccccccccccc" />
        <path
           style="display:inline;fill:none;stroke:#000080;stroke-width:2;stroke-linecap:butt;stroke-linejoin:miter;stroke-opacity:1"
           d="m 240,138 h -6 v 24 h -24 v -24 h -24 v 24 h -24 v -24 h -24 v 24 H 114 V 138 H 90 v 24 H 66 V 138 H 42 v 24 H 18 V 138 H 0"
           id="path901"
           sodipodi:nodetypes="cccccccccccccccccccccc" />
        <path
           style="display:inline;fill:none;stroke:#000080;stroke-width:2;stroke-linecap:butt;stroke-linejoin:miter;stroke-opacity:1"
           d="m 0,144 h 12 v 24 h 24 v -24 h 24 v 24 h 24 v -24 h 24 v 24 h 24 v -24 h 24 v 24 h 24 v -24 h 24 v 24 h 24 v -24 h 12"
           id="path903"
           sodipodi:nodetypes="cccccccccccccccccc" />
        <path
           style="display:inline;fill:none;stroke:#000080;stroke-width:2;stroke-linecap:butt;stroke-linejoin:miter;stroke-opacity:1"
           d="m 0,150 h 6 v 24 h 24 v -24 h 24 v 24 h 24 v -24 h 24 v 24 h 24 v -24 h 24 v 24 h 24 v -24 h 24 v 24 h 24 v -24 h 18"
           id="path905" />
        <path
           style="display:inline;fill:none;stroke:#000080;stroke-width:2;stroke-linecap:butt;stroke-linejoin:miter;stroke-opacity:1"
           d="m 0,180 h 24 v -24 h 24 v 24 h 24 v -24 h 24 v 24 h 24 v -24 h 24 v 24 h 24 v -24 h 24 v 24 h 24 v -24 h 24"
           id="path907"
           sodipodi:nodetypes="cccccccccccccccccccc" />
      </g>
    </g>
  </g>
</svg>
