<?xml version="1.0" encoding="UTF-8" standalone="no"?>
<!-- Created with Inkscape (http://www.inkscape.org/) -->

<svg
   width="240"
   height="240"
   viewBox="0 0 240 240"
   version="1.1"
   id="svg5"
   inkscape:version="1.1.1 (3bf5ae0d25, 2021-09-20)"
   sodipodi:docname="Patter_file72.svg"
   xmlns:inkscape="http://www.inkscape.org/namespaces/inkscape"
   xmlns:sodipodi="http://sodipodi.sourceforge.net/DTD/sodipodi-0.dtd"
   xmlns="http://www.w3.org/2000/svg"
   xmlns:svg="http://www.w3.org/2000/svg">
  <sodipodi:namedview
     id="namedview7"
     pagecolor="#ededed"
     bordercolor="#666666"
     borderopacity="1.0"
     inkscape:pageshadow="2"
     inkscape:pageopacity="0"
     inkscape:pagecheckerboard="0"
     inkscape:document-units="px"
     showgrid="false"
     units="px"
     scale-x="1"
     inkscape:showpageshadow="false"
     inkscape:snap-page="true"
     inkscape:snap-nodes="true"
     inkscape:snap-intersection-paths="true"
     inkscape:zoom="3.0847437"
     inkscape:cx="203.09629"
     inkscape:cy="117.83799"
     inkscape:window-width="1920"
     inkscape:window-height="1047"
     inkscape:window-x="0"
     inkscape:window-y="0"
     inkscape:window-maximized="1"
     inkscape:current-layer="layer2"
     width="240px"
     inkscape:snap-bbox="true"
     inkscape:bbox-paths="false"
     inkscape:snap-others="false"
     inkscape:snap-smooth-nodes="true"
     inkscape:bbox-nodes="true"
     inkscape:snap-bbox-midpoints="true"
     inkscape:snap-midpoints="true"
     inkscape:object-paths="false"
     inkscape:snap-bbox-edge-midpoints="true" />
  <defs
     id="defs2" />
  <g
     inkscape:label="Layer_I"
     inkscape:groupmode="layer"
     id="layer1"
     sodipodi:insensitive="true">
    <rect
       style="fill:#ff9955;fill-opacity:0;stroke:none;stroke-width:10"
       id="rect846"
       width="3840"
       height="2160"
       x="0"
       y="0"
       rx="0"
       ry="0"
       sodipodi:insensitive="true"
       inkscape:label="Background" />
  </g>
  <g
     inkscape:groupmode="layer"
     id="layer2"
     inkscape:label="Layer_II">
    <g
       id="g845">
      <path
         id="path1159"
         style="display:inline;fill:#00ffff;fill-rule:evenodd;stroke:#ff00ff;stroke-width:1"
         d="m 15.837318,46.932732 c 3.867882,-1.520523 8.250036,0.797406 9.744788,4.702119 C 27.3372,56.21967 24.808917,61.307647 20.431651,62.953289 15.353811,64.862304 9.646616,61.806084 7.750959,56.669049 5.57467,50.771589 8.84161,44.26946 14.485397,42.218542 20.906308,39.885235 28.082245,43.763439 30.41614,50.270074 33.050428,57.614157 28.967237,65.6728 21.925966,68.164043 14.034008,70.956245 5.25123,66.17578 2.442984,58.16764 -0.68493303,49.247891 4.28919,39.495519 12.854056,36.529991 c 9.486564,-3.284658 20.009577,2.475506 23.327195,12.112438 2.058659,5.979859 1.148351,12.683356 -2.288781,17.835429 m 12.272771,16.789953 c -3.867891,1.520511 -8.250045,-0.797404 -9.744791,-4.702124 -1.755092,-4.58482 0.773191,-9.672795 5.150464,-11.31843 5.077826,-1.909016 10.785015,1.147211 12.680673,6.284233 2.176288,5.897474 -1.090653,12.399604 -6.734429,14.450502 -6.420926,2.333322 -13.596852,-1.544886 -15.930755,-8.051529 -2.63428,-7.344075 1.448918,-15.402725 8.490183,-17.893963 7.891949,-2.792192 16.674728,1.988272 19.482973,9.996411 3.127932,8.919734 -1.846194,18.672104 -10.411074,21.63765 C 39.661913,96.955223 29.138912,91.195056 25.821287,81.558115 23.762641,75.578257 24.672941,68.874752 28.11008,63.722688" />
      <path
         id="path1254"
         style="display:inline;fill:#00ffff;fill-rule:evenodd;stroke:#ff00ff;stroke-width:0.999999"
         d="m 161.5774,118.14084 c 1.69198,-3.80799 6.42045,-5.31075 10.20016,-3.65652 4.43804,1.94236 6.18079,7.28023 4.21371,11.53744 -2.28191,4.93856 -8.46618,6.86969 -13.38839,4.64302 -5.65086,-2.55627 -7.85243,-9.40329 -5.26689,-14.84297 2.94158,-6.18869 10.74205,-8.59211 16.92884,-5.72402 6.98306,3.23722 9.68735,11.74763 6.41461,18.48728 -3.66816,7.55388 -13.23886,10.47192 -20.80768,6.89631 -8.4304,-3.98263 -11.67978,-14.30501 -7.65381,-22.45792 4.45922,-9.03027 15.94889,-12.50389 25.0132,-8.15709 5.62456,2.69723 9.64177,8.00885 10.78294,14.03749 m 20.40844,2.95707 c -1.69199,3.80798 -6.42046,5.31076 -10.20017,3.65652 -4.43803,-1.94237 -6.18078,-7.28023 -4.21369,-11.53744 2.2819,-4.93856 8.46617,-6.86968 13.38837,-4.64301 5.65087,2.55627 7.85244,9.4033 5.26689,14.84295 -2.94158,6.18872 -10.74204,8.59212 -16.92884,5.72404 -6.98306,-3.23722 -9.68734,-11.74765 -6.4146,-18.48729 3.66816,-7.55387 13.23886,-10.47191 20.80767,-6.8963 8.43041,3.98262 11.67979,14.30499 7.65382,22.45792 -4.45923,9.03029 -15.9489,12.50389 -25.01322,8.1571 -5.62454,-2.69724 -9.64176,-8.00887 -10.78292,-14.0375" />
      <path
         id="path1270"
         style="display:inline;fill:#00ffff;fill-rule:evenodd;stroke:#ff00ff;stroke-width:1"
         d="m 190.41029,12.834687 c -3.86789,-1.520523 -8.25004,0.797406 -9.74479,4.702119 -1.7551,4.584819 0.77319,9.672796 5.15045,11.318438 5.07784,1.909015 10.78504,-1.147205 12.6807,-6.28424 2.17629,-5.89746 -1.09066,-12.399588 -6.73444,-14.4505064 -6.42091,-2.3333067 -13.59685,1.544897 -15.93075,8.0515314 -2.63428,7.344083 1.44891,15.402726 8.49018,17.893969 7.89196,2.792202 16.67474,-1.988263 19.48298,-9.996403 3.12792,-8.919749 -1.84621,-18.6721207 -10.41107,-21.6376488 -9.48657,-3.28465731 -20.00958,2.4755067 -23.3272,12.1124378 -2.05866,5.979859 -1.14835,12.683356 2.28878,17.835429 m -12.27277,16.789953 c 3.86789,1.520511 8.25005,-0.797404 9.74479,-4.702124 1.7551,-4.58482 -0.77319,-9.672795 -5.15046,-11.31843 -5.07783,-1.909016 -10.78501,1.147211 -12.68067,6.284233 -2.17629,5.897474 1.09065,12.399604 6.73443,14.450502 6.42092,2.333322 13.59685,-1.544886 15.93075,-8.051529 2.63428,-7.344075 -1.44892,-15.402725 -8.49018,-17.893963 -7.89195,-2.792192 -16.67473,1.988272 -19.48297,9.996411 -3.12794,8.919734 1.84619,18.672104 10.41107,21.63765 9.48657,3.284662 20.00957,-2.475505 23.3272,-12.112446 2.05864,-5.979858 1.14834,-12.683363 -2.2888,-17.835427" />
      <path
         id="path1272"
         style="display:inline;fill:#00ffff;fill-rule:evenodd;stroke:#ff00ff;stroke-width:1"
         d="m 160.08235,190.83021 c 3.86789,-1.52052 8.25004,0.79741 9.74479,4.70212 1.7551,4.58482 -0.77319,9.6728 -5.15045,11.31844 -5.07784,1.90901 -10.78504,-1.14721 -12.6807,-6.28424 -2.17629,-5.89746 1.09066,-12.39959 6.73444,-14.45051 6.42091,-2.3333 13.59685,1.5449 15.93075,8.05153 2.63428,7.34409 -1.44891,15.40273 -8.49018,17.89397 -7.89196,2.79221 -16.67474,-1.98826 -19.48298,-9.9964 -3.12792,-8.91975 1.84621,-18.67212 10.41107,-21.63765 9.48657,-3.28466 20.00958,2.47551 23.3272,12.11244 2.05866,5.97986 1.14835,12.68336 -2.28878,17.83543 m 12.27277,16.78995 c -3.86789,1.52051 -8.25005,-0.7974 -9.74479,-4.70212 -1.7551,-4.58482 0.77319,-9.6728 5.15046,-11.31843 5.07783,-1.90902 10.78501,1.14721 12.68067,6.28423 2.17629,5.89747 -1.09065,12.3996 -6.73443,14.4505 -6.42092,2.33332 -13.59685,-1.54488 -15.93075,-8.05153 -2.63428,-7.34407 1.44892,-15.40272 8.49018,-17.89396 7.89195,-2.79219 16.67473,1.98827 19.48297,9.99641 3.12794,8.91974 -1.84619,18.67211 -10.41107,21.63765 -9.48657,3.28466 -20.00957,-2.4755 -23.3272,-12.11244 -2.05864,-5.97986 -1.14834,-12.68337 2.2888,-17.83543" />
      <path
         id="path1274"
         style="display:inline;fill:#00ffff;fill-rule:evenodd;stroke:#ff00ff;stroke-width:1"
         d="m 79.917408,190.82999 c -3.86789,-1.52052 -8.25004,0.79741 -9.74479,4.70212 -1.7551,4.58482 0.77319,9.6728 5.15045,11.31844 5.07784,1.90901 10.78504,-1.14721 12.6807,-6.28424 2.17629,-5.89746 -1.09066,-12.39959 -6.73444,-14.45051 -6.42091,-2.3333 -13.59685,1.5449 -15.93075,8.05153 -2.63428,7.34409 1.44891,15.40273 8.49018,17.89397 7.89196,2.79221 16.67474,-1.98826 19.48298,-9.9964 3.12792,-8.91975 -1.84621,-18.67212 -10.41107,-21.63765 -9.48657,-3.28466 -20.00958,2.47551 -23.3272,12.11244 -2.05866,5.97986 -1.14835,12.68336 2.28878,17.83543 m -12.27277,16.78995 c 3.86789,1.52051 8.25005,-0.7974 9.74479,-4.70212 1.7551,-4.58482 -0.77319,-9.6728 -5.15046,-11.31843 -5.07783,-1.90902 -10.78501,1.14721 -12.68067,6.28423 -2.17629,5.89747 1.09065,12.3996 6.73443,14.4505 6.42092,2.33332 13.59685,-1.54488 15.93075,-8.05153 2.63428,-7.34407 -1.44892,-15.40272 -8.49018,-17.89396 -7.89195,-2.79219 -16.67473,1.98827 -19.48297,9.99641 -3.12794,8.91974 1.84619,18.67211 10.41107,21.63765 9.48657,3.28466 20.00957,-2.4755 23.3272,-12.11244 2.05864,-5.97986 1.14834,-12.68337 -2.2888,-17.83543" />
      <path
         id="path1276"
         style="display:inline;fill:#00ffff;fill-rule:evenodd;stroke:#ff00ff;stroke-width:1"
         d="m 105.16373,131.8329 c -3.86789,-1.52052 -8.250039,0.79741 -9.744789,4.70212 -1.7551,4.58482 0.77319,9.6728 5.150449,11.31844 5.07784,1.90901 10.78504,-1.14721 12.6807,-6.28424 2.17629,-5.89746 -1.09066,-12.39959 -6.73444,-14.45051 -6.42091,-2.3333 -13.596849,1.5449 -15.930749,8.05153 -2.63428,7.34409 1.44891,15.40273 8.49018,17.89397 7.891959,2.79221 16.674739,-1.98826 19.482979,-9.9964 3.12792,-8.91975 -1.84621,-18.67212 -10.41107,-21.63765 -9.486569,-3.28466 -20.009579,2.47551 -23.327199,12.11244 -2.05866,5.97986 -1.14835,12.68336 2.28878,17.83543 m -12.27277,16.78995 c 3.86789,1.52051 8.25005,-0.7974 9.74479,-4.70212 1.7551,-4.58482 -0.77319,-9.6728 -5.15046,-11.31843 -5.07783,-1.90902 -10.78501,1.14721 -12.68067,6.28423 -2.17629,5.89747 1.09065,12.3996 6.73443,14.4505 6.42092,2.33332 13.59685,-1.54488 15.93075,-8.05153 2.63428,-7.34407 -1.44892,-15.40272 -8.49018,-17.89396 -7.89195,-2.79219 -16.67473,1.98827 -19.48297,9.99641 -3.12794,8.91974 1.84619,18.67211 10.41107,21.63765 9.48657,3.28466 20.00957,-2.4755 23.3272,-12.11244 2.05864,-5.97986 1.14834,-12.68337 -2.2888,-17.83543" />
      <path
         id="path1442"
         style="display:inline;fill:#00ffff;fill-rule:evenodd;stroke:#ff00ff;stroke-width:1"
         d="m 165.16396,71.831773 c -3.86789,-1.520523 -8.25004,0.797406 -9.74479,4.702119 -1.7551,4.584819 0.77319,9.672796 5.15045,11.318438 5.07784,1.909015 10.78504,-1.147205 12.6807,-6.28424 2.17629,-5.89746 -1.09066,-12.399589 -6.73444,-14.450507 -6.42091,-2.333306 -13.59685,1.544897 -15.93075,8.051532 -2.63428,7.344083 1.44891,15.402726 8.49018,17.893969 7.89196,2.792202 16.67474,-1.988263 19.48298,-9.996403 3.12792,-8.919749 -1.84621,-18.672121 -10.41107,-21.637649 -9.48657,-3.284657 -20.00958,2.475507 -23.3272,12.112438 -2.05866,5.979859 -1.14835,12.683356 2.28878,17.835429 m -12.27277,16.789951 c 3.86789,1.52052 8.25005,-0.7974 9.74479,-4.70212 1.7551,-4.584822 -0.77319,-9.672797 -5.15046,-11.318432 -5.07783,-1.909016 -10.78501,1.147211 -12.68067,6.284233 -2.17629,5.897479 1.09065,12.399609 6.73443,14.450509 6.42092,2.33332 13.59685,-1.54489 15.93075,-8.05153 2.63428,-7.344081 -1.44892,-15.402731 -8.49018,-17.893969 -7.89195,-2.792192 -16.67473,1.988272 -19.48297,9.996411 -3.12794,8.919738 1.84619,18.672108 10.41107,21.637648 9.48657,3.28467 20.00957,-2.4755 23.3272,-12.11244 2.05864,-5.97986 1.14834,-12.683367 -2.2888,-17.835431" />
      <path
         id="path1444"
         style="display:inline;fill:#00ffff;fill-rule:evenodd;stroke:#ff00ff;stroke-width:1"
         d="m 134.83603,131.83312 c 3.86789,-1.52052 8.25004,0.79741 9.74479,4.70212 1.7551,4.58482 -0.77319,9.6728 -5.15045,11.31844 -5.07784,1.90901 -10.78504,-1.14721 -12.6807,-6.28424 -2.17629,-5.89746 1.09066,-12.39959 6.73444,-14.45051 6.42091,-2.3333 13.59685,1.5449 15.93075,8.05153 2.63428,7.34409 -1.44891,15.40273 -8.49018,17.89397 -7.89196,2.79221 -16.67474,-1.98826 -19.48298,-9.9964 -3.12792,-8.91975 1.84621,-18.67212 10.41107,-21.63765 9.48657,-3.28466 20.00958,2.47551 23.3272,12.11244 2.05866,5.97986 1.14835,12.68336 -2.28878,17.83543 m 12.27277,16.78995 c -3.86789,1.52051 -8.25005,-0.7974 -9.74479,-4.70212 -1.7551,-4.58482 0.77319,-9.6728 5.15046,-11.31843 5.07783,-1.90902 10.78501,1.14721 12.68067,6.28423 2.17629,5.89747 -1.09065,12.3996 -6.73443,14.4505 -6.42092,2.33332 -13.59685,-1.54488 -15.93075,-8.05153 -2.63428,-7.34407 1.44892,-15.40272 8.49018,-17.89396 7.89195,-2.79219 16.67473,1.98827 19.48297,9.99641 3.12794,8.91974 -1.84619,18.67211 -10.41107,21.63765 -9.48657,3.28466 -20.00957,-2.4755 -23.3272,-12.11244 -2.05864,-5.97986 -1.14834,-12.68337 2.2888,-17.83543" />
      <path
         id="path1446"
         style="display:inline;fill:#00ffff;fill-rule:evenodd;stroke:#ff00ff;stroke-width:1"
         d="m 74.836043,71.831773 c 3.867882,-1.520523 8.250036,0.797406 9.744788,4.702119 1.755094,4.584819 -0.773189,9.672796 -5.150455,11.318438 -5.07784,1.909015 -10.785036,-1.147205 -12.680692,-6.28424 -2.176289,-5.89746 1.090651,-12.399589 6.734438,-14.450507 6.420911,-2.333306 13.596848,1.544897 15.930743,8.051532 2.634288,7.344083 -1.448903,15.402726 -8.490174,17.893969 -7.891958,2.792202 -16.674737,-1.988263 -19.482982,-9.996403 -3.127917,-8.919749 1.846206,-18.672121 10.411072,-21.637649 9.486564,-3.284657 20.009577,2.475507 23.327195,12.112438 2.058659,5.979859 1.148351,12.683356 -2.288781,17.835429 m 12.272775,16.789951 c -3.8679,1.52051 -8.250049,-0.7974 -9.744795,-4.70212 -1.755092,-4.584822 0.773191,-9.672797 5.150465,-11.318432 5.07782,-1.909016 10.78502,1.147211 12.68067,6.284233 2.17629,5.897469 -1.09065,12.399609 -6.73443,14.450499 -6.42092,2.33333 -13.596849,-1.54488 -15.930752,-8.05153 -2.63428,-7.344071 1.448918,-15.402721 8.490183,-17.893959 7.891949,-2.792192 16.674729,1.988272 19.482979,9.996411 3.12793,8.919738 -1.8462,18.672108 -10.41108,21.637648 -9.486572,3.28467 -20.009573,-2.4755 -23.327198,-12.11244 -2.058646,-5.97986 -1.148346,-12.683367 2.288793,-17.835431" />
      <path
         id="path1448"
         style="display:inline;fill:#00ffff;fill-rule:evenodd;stroke:#ff00ff;stroke-width:0.999999"
         d="m 31.577229,118.14062 c 1.69198,-3.80799 6.42045,-5.31075 10.20016,-3.65652 4.43804,1.94236 6.18079,7.28023 4.21371,11.53744 -2.28191,4.93856 -8.46618,6.86969 -13.38839,4.64302 -5.65086,-2.55627 -7.85243,-9.40329 -5.26689,-14.84297 2.94158,-6.18869 10.74205,-8.59211 16.92884,-5.72402 6.98306,3.23722 9.68735,11.74763 6.41461,18.48728 -3.66816,7.55388 -13.23886,10.47192 -20.80768,6.89631 -8.4304,-3.98263 -11.67978,-14.30501 -7.65381,-22.45792 4.45922,-9.03027 15.94889,-12.50389 25.0132,-8.15709 5.62456,2.69723 9.64177,8.00885 10.78294,14.03749 m 20.40844,2.95707 c -1.69199,3.80798 -6.42046,5.31076 -10.20017,3.65652 -4.43803,-1.94237 -6.18078,-7.28023 -4.21369,-11.53744 2.2819,-4.93856 8.46617,-6.86968 13.38837,-4.64301 5.65087,2.55627 7.85244,9.4033 5.26689,14.84295 -2.94158,6.18872 -10.74204,8.59212 -16.92884,5.72404 -6.98306,-3.23722 -9.68734,-11.74765 -6.4146,-18.48729 3.66816,-7.55387 13.23886,-10.47191 20.80767,-6.8963 8.43041,3.98262 11.67979,14.30499 7.65382,22.45792 -4.45923,9.03029 -15.9489,12.50389 -25.01322,8.1571 -5.62454,-2.69724 -9.64176,-8.00887 -10.78292,-14.0375" />
      <path
         id="path1450"
         style="display:inline;fill:#00ffff;fill-rule:evenodd;stroke:#ff00ff;stroke-width:0.999999"
         d="m 121.86005,78.421907 c 3.80799,-1.69198 5.31075,-6.42045 3.65652,-10.200162 -1.94236,-4.43804 -7.28023,-6.18079 -11.53744,-4.21371 -4.93856,2.28191 -6.86969,8.466182 -4.64302,13.388392 2.55627,5.65086 9.40329,7.85243 14.84297,5.26689 6.18869,-2.94158 8.59211,-10.74205 5.72402,-16.928842 -3.23722,-6.98306 -11.74763,-9.68735 -18.48728,-6.41461 -7.55387,3.66816 -10.47191,13.238862 -6.8963,20.807682 3.98262,8.4304 14.305,11.67978 22.45791,7.65381 9.03027,-4.45922 12.50389,-15.94889 8.15709,-25.013202 -2.69723,-5.62456 -8.00885,-9.64177 -14.03749,-10.78294 m -2.95707,-20.40844 c -3.80798,1.69199 -5.31076,6.42046 -3.65652,10.20017 1.94237,4.43803 7.28023,6.18078 11.53744,4.21369 4.93856,-2.2819 6.86968,-8.46617 4.64301,-13.38837 -2.55627,-5.65087 -9.4033,-7.85244 -14.84295,-5.26689 -6.18872,2.94158 -8.59212,10.74204 -5.72404,16.92884 3.23722,6.98306 11.74765,9.68734 18.48729,6.4146 7.55387,-3.66816 10.47191,-13.23886 6.8963,-20.80767 -3.98262,-8.43041 -14.30499,-11.67979 -22.45792,-7.65382 -9.03028,4.45923 -12.50388,15.9489 -8.15709,25.01322 2.69723,5.62454 8.00886,9.64176 14.03749,10.78292" />
      <path
         id="path1452"
         style="display:inline;fill:#00ffff;fill-rule:evenodd;stroke:#ff00ff;stroke-width:0.999999"
         d="m 121.86004,208.42321 c 3.80799,-1.69198 5.31075,-6.42045 3.65652,-10.20016 -1.94236,-4.43804 -7.28023,-6.18079 -11.53744,-4.21371 -4.93856,2.28191 -6.86969,8.46618 -4.64302,13.38839 2.55627,5.65086 9.40329,7.85243 14.84297,5.26689 6.18869,-2.94158 8.59211,-10.74205 5.72402,-16.92884 -3.23722,-6.98306 -11.74763,-9.68735 -18.48728,-6.41461 -7.55387,3.66816 -10.47191,13.23886 -6.8963,20.80768 3.98262,8.4304 14.305,11.67978 22.45791,7.65381 9.03027,-4.45922 12.50389,-15.94889 8.15709,-25.0132 -2.69723,-5.62456 -8.00885,-9.64177 -14.03749,-10.78294 m -2.95707,-20.40844 c -3.80798,1.69199 -5.31076,6.42046 -3.65652,10.20017 1.94237,4.43803 7.28023,6.18078 11.53744,4.21369 4.93856,-2.2819 6.86968,-8.46617 4.64301,-13.38837 -2.55627,-5.65087 -9.4033,-7.85244 -14.84295,-5.26689 -6.18872,2.94158 -8.59212,10.74204 -5.72404,16.92884 3.23722,6.98306 11.74765,9.68734 18.48729,6.4146 7.55387,-3.66816 10.47191,-13.23886 6.8963,-20.80767 -3.98262,-8.43041 -14.30499,-11.67979 -22.45792,-7.65382 -9.03028,4.45923 -12.50388,15.9489 -8.15709,25.01322 2.69723,5.62454 8.00886,9.64176 14.03749,10.78292" />
      <path
         id="path1588"
         style="display:inline;fill:#00ffff;fill-rule:evenodd;stroke:#ff00ff;stroke-width:1"
         d="m 46.165006,156.73195 c -3.86789,-1.52052 -8.25004,0.79741 -9.74479,4.70212 -1.7551,4.58482 0.77319,9.6728 5.15045,11.31844 5.07784,1.90901 10.78504,-1.14721 12.6807,-6.28424 2.17629,-5.89746 -1.09066,-12.39959 -6.73444,-14.45051 -6.42091,-2.3333 -13.59685,1.5449 -15.93075,8.05153 -2.63428,7.34409 1.44891,15.40273 8.49018,17.89397 7.89196,2.79221 16.67474,-1.98826 19.48298,-9.9964 3.12792,-8.91975 -1.84621,-18.67212 -10.41107,-21.63765 -9.48657,-3.28466 -20.00958,2.47551 -23.3272,12.11244 -2.05866,5.97986 -1.14835,12.68336 2.28878,17.83543 m -12.27277,16.78995 c 3.86789,1.52051 8.25005,-0.7974 9.74479,-4.70212 1.7551,-4.58482 -0.77319,-9.6728 -5.15046,-11.31843 -5.07783,-1.90902 -10.7850096,1.14721 -12.6806698,6.28423 -2.17629,5.89747 1.09065,12.3996 6.7344298,14.4505 6.42092,2.33332 13.59685,-1.54488 15.93075,-8.05153 2.63428,-7.34407 -1.44892,-15.40272 -8.49018,-17.89396 -7.89195,-2.79219 -16.6747298,1.98827 -19.4829698,9.99641 -3.12793991,8.91974 1.84619,18.67211 10.4110698,21.63765 9.48657,3.28466 20.00957,-2.4755 23.3272,-12.11244 2.05864,-5.97986 1.14834,-12.68337 -2.2888,-17.83543" />
      <path
         id="path1590"
         style="display:inline;fill:#00ffff;fill-rule:evenodd;stroke:#ff00ff;stroke-width:1"
         d="m 49.589717,12.834687 c 3.867882,-1.520523 8.250036,0.797406 9.744788,4.702119 1.755094,4.584819 -0.773189,9.672796 -5.150455,11.318438 -5.07784,1.909015 -10.785035,-1.147205 -12.680692,-6.28424 -2.176289,-5.89746 1.090651,-12.399589 6.734438,-14.4505067 6.420911,-2.333307 13.596848,1.544897 15.930743,8.0515317 2.634288,7.344083 -1.448903,15.402726 -8.490174,17.893969 C 47.786407,36.8582 39.003629,32.077735 36.195383,24.069595 33.067466,15.149846 38.041589,5.3974743 46.606455,2.4319463 56.093019,-0.85271171 66.616032,4.9074523 69.93365,14.544384 71.992309,20.524243 71.082001,27.22774 67.644869,32.379813 M 79.91764,49.169766 c -3.867891,1.520511 -8.250045,-0.797404 -9.744791,-4.702124 -1.755092,-4.58482 0.773191,-9.672795 5.150464,-11.31843 5.077826,-1.909016 10.785015,1.147211 12.680673,6.284233 2.176288,5.897474 -1.090653,12.399604 -6.734429,14.450502 -6.420926,2.333322 -13.596852,-1.544886 -15.930755,-8.051529 -2.63428,-7.344075 1.448918,-15.402725 8.490183,-17.893963 7.891949,-2.792192 16.674728,1.988272 19.482973,9.996411 C 96.43989,46.8546 91.465764,56.60697 82.900884,59.572516 73.414312,62.857178 62.891311,57.097011 59.573686,47.46007 57.51504,41.480212 58.42534,34.776707 61.862479,29.624643" />
      <path
         id="path1592"
         style="display:inline;fill:#00ffff;fill-rule:evenodd;stroke:#ff00ff;stroke-width:1"
         d="m 224.16268,46.932725 c -3.86789,-1.520523 -8.25004,0.797406 -9.74479,4.702119 -1.7551,4.584819 0.77319,9.672796 5.15045,11.318438 5.07784,1.909015 10.78504,-1.147205 12.6807,-6.28424 2.17629,-5.89746 -1.09066,-12.399588 -6.73444,-14.450506 -6.42091,-2.333307 -13.59685,1.544897 -15.93075,8.051531 -2.63428,7.344083 1.44891,15.402726 8.49018,17.893969 7.89196,2.792202 16.67474,-1.988263 19.48298,-9.996403 3.12792,-8.919749 -1.84621,-18.672121 -10.41107,-21.637649 -9.48657,-3.284657 -20.00958,2.475507 -23.3272,12.112438 -2.05866,5.979859 -1.14835,12.683356 2.28878,17.835429 m -12.27277,16.789953 c 3.86789,1.520511 8.25005,-0.797404 9.74479,-4.702124 1.7551,-4.58482 -0.77319,-9.672795 -5.15046,-11.31843 -5.07783,-1.909016 -10.78501,1.147211 -12.68067,6.284233 -2.17629,5.897474 1.09065,12.399604 6.73443,14.450502 6.42092,2.333322 13.59685,-1.544886 15.93075,-8.051529 2.63428,-7.344075 -1.44892,-15.402725 -8.49018,-17.893963 -7.89195,-2.792192 -16.67473,1.988272 -19.48297,9.996411 -3.12794,8.919734 1.84619,18.672104 10.41107,21.63765 9.48657,3.284662 20.00957,-2.475505 23.3272,-12.112446 2.05864,-5.979858 1.14834,-12.683363 -2.2888,-17.835427" />
      <path
         id="path1594"
         style="display:inline;fill:#00ffff;fill-rule:evenodd;stroke:#ff00ff;stroke-width:1"
         d="m 193.83475,156.73217 c 3.86789,-1.52052 8.25004,0.79741 9.74479,4.70212 1.7551,4.58482 -0.77319,9.6728 -5.15045,11.31844 -5.07784,1.90901 -10.78504,-1.14721 -12.6807,-6.28424 -2.17629,-5.89746 1.09066,-12.39959 6.73444,-14.45051 6.42091,-2.3333 13.59685,1.5449 15.93075,8.05153 2.63428,7.34409 -1.44891,15.40273 -8.49018,17.89397 -7.89196,2.79221 -16.67474,-1.98826 -19.48298,-9.9964 -3.12792,-8.91975 1.84621,-18.67212 10.41107,-21.63765 9.48657,-3.28466 20.00958,2.47551 23.3272,12.11244 2.05866,5.97986 1.14835,12.68336 -2.28878,17.83543 m 12.27277,16.78995 c -3.86789,1.52051 -8.25005,-0.7974 -9.74479,-4.70212 -1.7551,-4.58482 0.77319,-9.6728 5.15046,-11.31843 5.07783,-1.90902 10.78501,1.14721 12.68067,6.28423 2.17629,5.89747 -1.09065,12.3996 -6.73443,14.4505 -6.42092,2.33332 -13.59685,-1.54488 -15.93075,-8.05153 -2.63428,-7.34407 1.44892,-15.40272 8.49018,-17.89396 7.89195,-2.79219 16.67473,1.98827 19.48297,9.99641 3.12794,8.91974 -1.84619,18.67211 -10.41107,21.63765 -9.48657,3.28466 -20.00957,-2.4755 -23.3272,-12.11244 -2.05864,-5.97986 -1.14834,-12.68337 2.2888,-17.83543" />
    </g>
  </g>
</svg>
