<?xml version="1.0" encoding="UTF-8" standalone="no"?>
<!-- Created with Inkscape (http://www.inkscape.org/) -->

<svg
   width="240"
   height="240"
   viewBox="0 0 240 240"
   version="1.1"
   id="svg5"
   inkscape:version="1.1 (c4e8f9ed74, 2021-05-24)"
   sodipodi:docname="Lesson_48_.svg"
   xmlns:inkscape="http://www.inkscape.org/namespaces/inkscape"
   xmlns:sodipodi="http://sodipodi.sourceforge.net/DTD/sodipodi-0.dtd"
   xmlns="http://www.w3.org/2000/svg"
   xmlns:svg="http://www.w3.org/2000/svg">
  <sodipodi:namedview
     id="namedview7"
     pagecolor="#ededed"
     bordercolor="#666666"
     borderopacity="1.0"
     inkscape:pageshadow="2"
     inkscape:pageopacity="0"
     inkscape:pagecheckerboard="0"
     inkscape:document-units="px"
     showgrid="false"
     units="px"
     scale-x="1"
     inkscape:showpageshadow="false"
     inkscape:snap-page="true"
     inkscape:snap-nodes="true"
     inkscape:zoom="3.4088342"
     inkscape:cx="128.78303"
     inkscape:cy="112.35513"
     inkscape:window-width="1920"
     inkscape:window-height="1017"
     inkscape:window-x="0"
     inkscape:window-y="0"
     inkscape:window-maximized="1"
     inkscape:current-layer="layer2"
     inkscape:snap-bbox="true"
     inkscape:bbox-paths="true"
     inkscape:bbox-nodes="true" />
  <defs
     id="defs2" />
  <g
     inkscape:label="Layer_I"
     inkscape:groupmode="layer"
     id="layer1"
     sodipodi:insensitive="true">
    <rect
       style="fill:#ff9955;fill-opacity:0;stroke:none;stroke-width:10"
       id="rect846"
       width="3840"
       height="2160"
       x="0"
       y="0"
       rx="0"
       ry="0"
       sodipodi:insensitive="true"
       inkscape:label="Background" />
  </g>
  <g
     inkscape:groupmode="layer"
     id="layer2"
     inkscape:label="Layer_II">
    <path
       id="path878"
       style="display:inline;fill:#483e37;stroke:#ffff00;stroke-width:1px;stroke-linecap:butt;stroke-linejoin:miter;stroke-opacity:1"
       d="M 51.048828,3.8144531 C 39.032102,3.4007198 26.845853,9.3684014 17.769531,18.441406 5.6678609,30.538837 -0.90413813,48.157849 5.8261719,63.539062 c 9.9017301,22.629046 31.8255201,-4.128081 46.2929691,1.25586 19.730295,7.342449 57.458569,29.024393 57.458799,55.699218 2.3e-4,26.67528 -37.72849,48.35871 -57.458799,55.70117 -14.467449,5.38394 -36.391239,-21.37318 -46.2929691,1.25586 -6.73031003,15.38121 -0.158311,33.00022 11.9433591,45.09766 12.101762,12.09734 29.733524,18.67301 45.119141,11.96484 22.5844,-9.84688 -3.909048,-31.67408 1.503906,-46.04492 C 71.772326,168.87628 91.571256,123.8038 120,123.8038 c 28.42874,0 48.22767,45.07248 55.60742,64.66495 5.41295,14.37084 -21.08049,36.19804 1.50391,46.04492 15.38562,6.70817 33.01738,0.1325 45.11914,-11.96484 12.10167,-12.09744 18.67367,-29.71645 11.94336,-45.09766 -9.90173,-22.62904 -31.82552,4.12808 -46.29297,-1.25586 -19.7303,-7.34246 -57.45903,-29.02589 -57.4588,-55.70117 2.3e-4,-26.674825 37.72851,-48.356769 57.4588,-55.699218 14.46745,-5.383941 36.39124,21.373186 46.29297,-1.25586 C 240.90414,48.15785 234.33214,30.538838 222.23047,18.441406 210.12871,6.3440664 192.49695,-0.23160754 177.11133,6.4765625 154.52693,16.323442 181.02037,38.150646 175.60742,52.521484 168.22767,72.113957 148.42825,117.18448 120,117.18448 91.57175,117.18448 71.772326,72.113957 64.392578,52.521484 58.979624,38.150646 85.473072,16.323442 62.888672,6.4765625 59.042268,4.79952 55.054404,3.9523642 51.048828,3.8144531 Z"
       sodipodi:nodetypes="scssasscssasscssasscssasss" />
    <path
       id="path3104"
       style="display:inline;fill:#373e48;stroke:#ff6600;stroke-width:1px;stroke-linecap:butt;stroke-linejoin:miter;stroke-opacity:1"
       d="m 120.01367,15.265625 c -14.32144,0.0028 -28.647741,7.080673 -33.783201,21.228516 -7.53827,20.767497 21.059901,17.778635 26.361331,30.447265 1.56194,3.732537 5.14317,19.768008 1.77343,28.763672 -3.11956,8.327802 -10.4239,15.825532 -18.732418,18.996092 -8.953245,3.41659 -24.979428,-0.24858 -28.691406,-1.81836 C 55.818481,108.179 56.798404,85.532223 43.261719,84.990234 c -1.933812,-0.07743 -4.163677,0.294799 -6.767578,1.236328 -14.159199,5.11975 -21.231223,19.438318 -21.228516,33.759768 0.0028,14.32144 7.080673,28.64774 21.228516,33.7832 20.767497,7.53827 17.778635,-21.0599 30.447265,-26.36133 3.718803,-1.5562 19.77999,-5.17292 28.763672,-1.77148 8.225702,3.11445 15.543752,10.4325 18.658202,18.6582 3.40144,8.98368 -0.21528,25.04487 -1.77148,28.76367 -5.30143,12.66862 -33.899601,9.67977 -26.361331,30.44727 5.13546,14.14785 19.461761,21.22568 33.783201,21.22852 14.32145,0.003 28.64002,-7.06932 33.75977,-21.22852 7.53224,-20.8312 -21.28047,-17.73536 -26.65625,-30.44727 -1.56978,-3.71197 -5.23495,-19.73816 -1.81836,-28.6914 3.17056,-8.30852 10.66829,-15.61286 18.99609,-18.73242 8.99566,-3.36974 25.03114,0.21149 28.76367,1.77343 12.66862,5.30143 9.67977,33.8996 30.44727,26.36133 14.14785,-5.13546 21.22568,-19.46176 21.22852,-33.7832 0.003,-14.32145 -7.06932,-28.640017 -21.22852,-33.759768 -20.8312,-7.53224 -17.73536,21.280468 -30.44727,26.656248 -3.71968,1.57304 -19.68555,5.19784 -28.63281,1.82031 -8.43637,-3.18467 -15.94423,-10.69253 -19.1289,-19.128901 -3.37753,-8.947265 0.24727,-24.913123 1.82031,-28.632813 4.70381,-11.122925 27.35059,-10.143002 27.89258,-23.679687 0.0774,-1.933812 -0.2948,-4.163677 -1.23633,-6.767578 -5.11975,-14.159199 -19.43832,-21.231223 -33.75977,-21.228516 z"
       sodipodi:nodetypes="ccsaacsscssaasscssaasscssaasssc" />
  </g>
</svg>
