<?xml version="1.0" encoding="UTF-8" standalone="no"?>
<!-- Created with Inkscape (http://www.inkscape.org/) -->

<svg
   width="240"
   height="240"
   viewBox="0 0 240 240"
   version="1.1"
   id="svg5"
   inkscape:version="1.1 (c4e8f9ed74, 2021-05-24)"
   sodipodi:docname="Lessons_59_.svg"
   xmlns:inkscape="http://www.inkscape.org/namespaces/inkscape"
   xmlns:sodipodi="http://sodipodi.sourceforge.net/DTD/sodipodi-0.dtd"
   xmlns="http://www.w3.org/2000/svg"
   xmlns:svg="http://www.w3.org/2000/svg">
  <sodipodi:namedview
     id="namedview7"
     pagecolor="#ededed"
     bordercolor="#666666"
     borderopacity="1.0"
     inkscape:pageshadow="2"
     inkscape:pageopacity="0"
     inkscape:pagecheckerboard="0"
     inkscape:document-units="px"
     showgrid="false"
     units="px"
     scale-x="1"
     inkscape:showpageshadow="false"
     inkscape:snap-page="true"
     inkscape:snap-nodes="true"
     inkscape:snap-bbox="true"
     inkscape:bbox-nodes="true"
     inkscape:snap-bbox-edge-midpoints="true"
     inkscape:zoom="3.3416667"
     inkscape:cx="120"
     inkscape:cy="120"
     inkscape:window-width="1920"
     inkscape:window-height="1017"
     inkscape:window-x="0"
     inkscape:window-y="0"
     inkscape:window-maximized="1"
     inkscape:current-layer="layer2" />
  <defs
     id="defs2" />
  <g
     inkscape:label="Layer_I"
     inkscape:groupmode="layer"
     id="layer1"
     sodipodi:insensitive="true">
    <rect
       style="fill:#ff9955;fill-opacity:0;stroke:none;stroke-width:10"
       id="rect846"
       width="3840"
       height="2160"
       x="0"
       y="0"
       rx="0"
       ry="0"
       sodipodi:insensitive="true"
       inkscape:label="Background" />
  </g>
  <g
     inkscape:groupmode="layer"
     id="layer2"
     inkscape:label="Layer_II">
    <g
       id="g3431"
       transform="matrix(0.50165772,0.406934,-0.37786961,0.94967682,52.525522,-65.23639)"
       style="stroke:#00ffff;stroke-width:1.25969">
      <path
         style="fill:#afafe9;fill-rule:evenodd;stroke:#00ffff;stroke-width:0.944776;stroke-linecap:round;stroke-linejoin:round;stroke-opacity:1;stop-color:#000000"
         d="m 71.120799,120.15459 0.500302,-50.558438 -31.179823,5.70911 -8.179983,43.659448 c 0.76937,1.19829 38.859504,1.18988 38.859504,1.18988 z"
         id="path3041" />
      <path
         style="fill:#afafe9;fill-rule:evenodd;stroke:#00ffff;stroke-width:0.944776;stroke-linecap:round;stroke-linejoin:round;stroke-opacity:1;stop-color:#000000"
         d="m 77.058594,153.03516 -44.469965,-7.8196 11.418256,41.05971 37.453492,6.58632 z"
         id="path3039" />
      <path
         style="fill:#5f5fd3;fill-rule:evenodd;stroke:#00ffff;stroke-width:0.944776;stroke-linecap:round;stroke-linejoin:round;stroke-opacity:1;stop-color:#000000"
         d="m 119.19759,155.88919 -7.58243,-45.52152 -40.494361,9.78692 5.937795,32.88057 z"
         id="path3037" />
      <path
         style="fill:#161650;fill-rule:evenodd;stroke:#00ffff;stroke-width:0.944776;stroke-linecap:round;stroke-linejoin:round;stroke-opacity:1;stop-color:#000000"
         d="m 157.05859,153.03516 -37.861,2.85403 -2.139,28.68487 h 34.79165 z"
         id="path3035" />
      <path
         style="fill:#212178;fill-rule:evenodd;stroke:#00ffff;stroke-width:0.944776;stroke-linecap:round;stroke-linejoin:round;stroke-opacity:1;stop-color:#000000"
         d="m 150.79622,107.2505 6.26237,45.78466 23.84743,1.96519 8.2032,-40.50719 z"
         id="path3033" />
      <path
         style="fill:#8787de;fill-rule:evenodd;stroke:#00ffff;stroke-width:0.944776;stroke-linecap:round;stroke-linejoin:round;stroke-opacity:1;stop-color:#000000"
         d="m 157.05859,73.035156 34.00431,8.312806 -1.86563,-38.517156 -32.13868,-9.79565 z"
         id="path3031" />
      <path
         style="fill:#8787de;fill-rule:evenodd;stroke:#00ffff;stroke-width:0.944776;stroke-linecap:round;stroke-linejoin:round;stroke-opacity:1;stop-color:#000000"
         d="m 110.1535,70.639753 1.46166,39.727917 39.18106,-3.11717 6.26237,-34.215344 z"
         id="path3029" />
      <path
         style="fill:#d7d7f4;fill-rule:evenodd;stroke:#00ffff;stroke-width:0.944776;stroke-linecap:round;stroke-linejoin:round;stroke-opacity:1;stop-color:#000000"
         d="m 73.927226,39.867602 -2.306125,29.72855 38.532399,1.043601 6.90509,-37.604597 z"
         id="rect857" />
    </g>
    <g
       id="g3647"
       transform="matrix(0.58758389,-0.24155346,-0.38295041,-0.69726522,144.86168,285.26519)"
       style="stroke:#00ffff;stroke-width:1.4111">
      <path
         style="fill:#afafe9;fill-rule:evenodd;stroke:#00ffff;stroke-width:1.05833;stroke-linecap:round;stroke-linejoin:round;stroke-opacity:1;stop-color:#000000"
         d="m 71.120799,120.15459 0.500302,-50.558438 -31.179823,5.70911 -8.179983,43.659448 c 0.76937,1.19829 38.859504,1.18988 38.859504,1.18988 z"
         id="path3631" />
      <path
         style="fill:#afafe9;fill-rule:evenodd;stroke:#00ffff;stroke-width:1.05833;stroke-linecap:round;stroke-linejoin:round;stroke-opacity:1;stop-color:#000000"
         d="m 77.058594,153.03516 -44.469965,-7.8196 11.418256,41.05971 37.453492,6.58632 z"
         id="path3633" />
      <path
         style="fill:#5f5fd3;fill-rule:evenodd;stroke:#00ffff;stroke-width:1.05833;stroke-linecap:round;stroke-linejoin:round;stroke-opacity:1;stop-color:#000000"
         d="m 119.19759,155.88919 -7.58243,-45.52152 -40.494361,9.78692 5.937795,32.88057 z"
         id="path3635" />
      <path
         style="fill:#161650;fill-rule:evenodd;stroke:#00ffff;stroke-width:1.05833;stroke-linecap:round;stroke-linejoin:round;stroke-opacity:1;stop-color:#000000"
         d="m 157.05859,153.03516 -37.861,2.85403 -2.139,28.68487 h 34.79165 z"
         id="path3637" />
      <path
         style="fill:#212178;fill-rule:evenodd;stroke:#00ffff;stroke-width:1.05833;stroke-linecap:round;stroke-linejoin:round;stroke-opacity:1;stop-color:#000000"
         d="m 150.79622,107.2505 6.26237,45.78466 23.84743,1.96519 8.2032,-40.50719 z"
         id="path3639" />
      <path
         style="fill:#8787de;fill-rule:evenodd;stroke:#00ffff;stroke-width:1.05833;stroke-linecap:round;stroke-linejoin:round;stroke-opacity:1;stop-color:#000000"
         d="m 157.05859,73.035156 34.00431,8.312806 -1.86563,-38.517156 -32.13868,-9.79565 z"
         id="path3641" />
      <path
         style="fill:#8787de;fill-rule:evenodd;stroke:#00ffff;stroke-width:1.05833;stroke-linecap:round;stroke-linejoin:round;stroke-opacity:1;stop-color:#000000"
         d="m 110.1535,70.639753 1.46166,39.727917 39.18106,-3.11717 6.26237,-34.215344 z"
         id="path3643" />
      <path
         style="fill:#d7d7f4;fill-rule:evenodd;stroke:#00ffff;stroke-width:1.05833;stroke-linecap:round;stroke-linejoin:round;stroke-opacity:1;stop-color:#000000"
         d="m 73.927226,39.867602 -2.306125,29.72855 38.532399,1.043601 6.90509,-37.604597 z"
         id="path3645" />
    </g>
    <g
       id="g3763"
       transform="matrix(-0.34151224,0.2561462,0.39722119,0.35179097,48.016903,135.82623)"
       style="stroke:#00ffff;stroke-width:2.1229">
      <path
         style="fill:#afafe9;fill-rule:evenodd;stroke:#00ffff;stroke-width:1.59219;stroke-linecap:round;stroke-linejoin:round;stroke-opacity:1;stop-color:#000000"
         d="m 71.120799,120.15459 0.500302,-50.558438 -31.179823,5.70911 -8.179983,43.659448 c 0.76937,1.19829 38.859504,1.18988 38.859504,1.18988 z"
         id="path3747" />
      <path
         style="fill:#afafe9;fill-rule:evenodd;stroke:#00ffff;stroke-width:1.59219;stroke-linecap:round;stroke-linejoin:round;stroke-opacity:1;stop-color:#000000"
         d="m 77.058594,153.03516 -44.469965,-7.8196 11.418256,41.05971 37.453492,6.58632 z"
         id="path3749" />
      <path
         style="fill:#5f5fd3;fill-rule:evenodd;stroke:#00ffff;stroke-width:1.59219;stroke-linecap:round;stroke-linejoin:round;stroke-opacity:1;stop-color:#000000"
         d="m 119.19759,155.88919 -7.58243,-45.52152 -40.494361,9.78692 5.937795,32.88057 z"
         id="path3751" />
      <path
         style="fill:#161650;fill-rule:evenodd;stroke:#00ffff;stroke-width:1.59219;stroke-linecap:round;stroke-linejoin:round;stroke-opacity:1;stop-color:#000000"
         d="m 157.05859,153.03516 -37.861,2.85403 -2.139,28.68487 h 34.79165 z"
         id="path3753" />
      <path
         style="fill:#212178;fill-rule:evenodd;stroke:#00ffff;stroke-width:1.59219;stroke-linecap:round;stroke-linejoin:round;stroke-opacity:1;stop-color:#000000"
         d="m 150.79622,107.2505 6.26237,45.78466 23.84743,1.96519 8.2032,-40.50719 z"
         id="path3755" />
      <path
         style="fill:#8787de;fill-rule:evenodd;stroke:#00ffff;stroke-width:1.59219;stroke-linecap:round;stroke-linejoin:round;stroke-opacity:1;stop-color:#000000"
         d="m 157.05859,73.035156 34.00431,8.312806 -1.86563,-38.517156 -32.13868,-9.79565 z"
         id="path3757" />
      <path
         style="fill:#8787de;fill-rule:evenodd;stroke:#00ffff;stroke-width:1.59219;stroke-linecap:round;stroke-linejoin:round;stroke-opacity:1;stop-color:#000000"
         d="m 110.1535,70.639753 1.46166,39.727917 39.18106,-3.11717 6.26237,-34.215344 z"
         id="path3759" />
      <path
         style="fill:#d7d7f4;fill-rule:evenodd;stroke:#00ffff;stroke-width:1.59219;stroke-linecap:round;stroke-linejoin:round;stroke-opacity:1;stop-color:#000000"
         d="m 73.927226,39.867602 -2.306125,29.72855 38.532399,1.043601 6.90509,-37.604597 z"
         id="path3761" />
    </g>
    <g
       id="g3781"
       transform="matrix(-0.34151224,0.43376903,0.39722119,0.59573801,180.71594,-55.367177)"
       style="stroke:#00ffff;stroke-width:1.63134">
      <path
         style="fill:#afafe9;fill-rule:evenodd;stroke:#00ffff;stroke-width:1.22352;stroke-linecap:round;stroke-linejoin:round;stroke-opacity:1;stop-color:#000000"
         d="m 71.120799,120.15459 0.500302,-50.558438 -31.179823,5.70911 -8.179983,43.659448 c 0.76937,1.19829 38.859504,1.18988 38.859504,1.18988 z"
         id="path3765" />
      <path
         style="fill:#afafe9;fill-rule:evenodd;stroke:#00ffff;stroke-width:1.22352;stroke-linecap:round;stroke-linejoin:round;stroke-opacity:1;stop-color:#000000"
         d="m 77.058594,153.03516 -44.469965,-7.8196 11.418256,41.05971 37.453492,6.58632 z"
         id="path3767" />
      <path
         style="fill:#5f5fd3;fill-rule:evenodd;stroke:#00ffff;stroke-width:1.22352;stroke-linecap:round;stroke-linejoin:round;stroke-opacity:1;stop-color:#000000"
         d="m 119.19759,155.88919 -7.58243,-45.52152 -40.494361,9.78692 5.937795,32.88057 z"
         id="path3769" />
      <path
         style="fill:#161650;fill-rule:evenodd;stroke:#00ffff;stroke-width:1.22352;stroke-linecap:round;stroke-linejoin:round;stroke-opacity:1;stop-color:#000000"
         d="m 157.05859,153.03516 -37.861,2.85403 -2.139,28.68487 h 34.79165 z"
         id="path3771" />
      <path
         style="fill:#212178;fill-rule:evenodd;stroke:#00ffff;stroke-width:1.22352;stroke-linecap:round;stroke-linejoin:round;stroke-opacity:1;stop-color:#000000"
         d="m 150.79622,107.2505 6.26237,45.78466 23.84743,1.96519 8.2032,-40.50719 z"
         id="path3773" />
      <path
         style="fill:#8787de;fill-rule:evenodd;stroke:#00ffff;stroke-width:1.22352;stroke-linecap:round;stroke-linejoin:round;stroke-opacity:1;stop-color:#000000"
         d="m 157.05859,73.035156 34.00431,8.312806 -1.86563,-38.517156 -32.13868,-9.79565 z"
         id="path3775" />
      <path
         style="fill:#8787de;fill-rule:evenodd;stroke:#00ffff;stroke-width:1.22352;stroke-linecap:round;stroke-linejoin:round;stroke-opacity:1;stop-color:#000000"
         d="m 110.1535,70.639753 1.46166,39.727917 39.18106,-3.11717 6.26237,-34.215344 z"
         id="path3777" />
      <path
         style="fill:#d7d7f4;fill-rule:evenodd;stroke:#00ffff;stroke-width:1.22352;stroke-linecap:round;stroke-linejoin:round;stroke-opacity:1;stop-color:#000000"
         d="m 73.927226,39.867602 -2.306125,29.72855 38.532399,1.043601 6.90509,-37.604597 z"
         id="path3779" />
    </g>
  </g>
</svg>
