<?xml version="1.0" encoding="UTF-8" standalone="no"?>
<!-- Created with Inkscape (http://www.inkscape.org/) -->

<svg
   width="240"
   height="240"
   viewBox="0 0 240 240"
   version="1.1"
   id="svg5"
   inkscape:version="1.1.1 (3bf5ae0d25, 2021-09-20)"
   sodipodi:docname="Patter_file75.svg"
   xmlns:inkscape="http://www.inkscape.org/namespaces/inkscape"
   xmlns:sodipodi="http://sodipodi.sourceforge.net/DTD/sodipodi-0.dtd"
   xmlns="http://www.w3.org/2000/svg"
   xmlns:svg="http://www.w3.org/2000/svg">
  <sodipodi:namedview
     id="namedview7"
     pagecolor="#ededed"
     bordercolor="#666666"
     borderopacity="1.0"
     inkscape:pageshadow="2"
     inkscape:pageopacity="0"
     inkscape:pagecheckerboard="0"
     inkscape:document-units="px"
     showgrid="false"
     units="px"
     scale-x="1"
     inkscape:showpageshadow="false"
     inkscape:snap-page="true"
     inkscape:snap-nodes="true"
     inkscape:zoom="1.749447"
     inkscape:cx="312.95604"
     inkscape:cy="130.6127"
     inkscape:window-width="1920"
     inkscape:window-height="1047"
     inkscape:window-x="0"
     inkscape:window-y="0"
     inkscape:window-maximized="1"
     inkscape:current-layer="layer2"
     inkscape:snap-object-midpoints="true"
     inkscape:snap-midpoints="true"
     width="240px" />
  <defs
     id="defs2" />
  <g
     inkscape:label="Layer_I"
     inkscape:groupmode="layer"
     id="layer1"
     sodipodi:insensitive="true">
    <rect
       style="fill:#ff9955;fill-opacity:0;stroke:none;stroke-width:10"
       id="rect846"
       width="3840"
       height="2160"
       x="0"
       y="0"
       rx="0"
       ry="0"
       sodipodi:insensitive="true"
       inkscape:label="Background" />
  </g>
  <g
     inkscape:groupmode="layer"
     id="layer2"
     inkscape:label="Layer_II">
    <g
       id="g1273"
       transform="matrix(0.58803566,0,0,0.51214907,0.96689134,-433.121)"
       style="display:inline;fill:#ffc0c0;fill-opacity:1;stroke-width:1.82222">
      <path
         style="fill:#ffc0c0;fill-opacity:1;fill-rule:evenodd;stroke:#000000;stroke-width:7.28887px;stroke-linecap:square;stroke-linejoin:round;stroke-miterlimit:0;stroke-opacity:0.996078;stop-color:#000000"
         d="M 401.516,1079.9975 2,1310.6625 v 0 c 0,-0.45 0,-461.325 0,-461.325 v 0 c 0.39,0.225 399.516,230.66 399.516,230.66"
         id="path1253" />
      <path
         style="fill:#ffc0c0;fill-opacity:1;fill-rule:evenodd;stroke:#000000;stroke-width:7.28887px;stroke-linecap:square;stroke-linejoin:round;stroke-miterlimit:0;stroke-opacity:0.996078;stop-color:#000000"
         d="M 357.125,1091.1473 2,1281.3093 v 0 c 0,-0.401 12.878,-402.62899 12.878,-402.62899 v 0.001 c 0.347,0.2 342.247,212.46599 342.247,212.46599"
         id="path1255" />
      <path
         style="fill:#ffc0c0;fill-opacity:1;fill-rule:evenodd;stroke:#000000;stroke-width:7.28887px;stroke-linecap:square;stroke-linejoin:round;stroke-miterlimit:0;stroke-opacity:0.996078;stop-color:#000000"
         d="M 312.73,1102.3055 2,1251.9675 v 0 c 0,-0.35 25.756,-343.93501 25.756,-343.93501 v 0 c 0.303,0.175 284.974,194.27301 284.974,194.27301"
         id="path1257" />
      <path
         style="fill:#ffc0c0;fill-opacity:1;fill-rule:evenodd;stroke:#000000;stroke-width:7.28887px;stroke-linecap:square;stroke-linejoin:round;stroke-miterlimit:0;stroke-opacity:0.996078;stop-color:#000000"
         d="M 268.35,1113.458 2,1222.621 v 0 c 0,-0.3 38.64,-285.24201 38.64,-285.24201 v 0 c 0.26,0.15 227.71,176.07901 227.71,176.07901"
         id="path1259" />
      <path
         style="fill:#ffc0c0;fill-opacity:1;fill-rule:evenodd;stroke:#000000;stroke-width:7.28887px;stroke-linecap:square;stroke-linejoin:round;stroke-miterlimit:0;stroke-opacity:0.996078;stop-color:#000000"
         d="M 223.96,1124.6102 2,1193.2742 v -10e-4 c 0,-0.25 51.52,-226.54895 51.52,-226.54895 v 10e-4 c 0.21,0.125 170.44,157.88495 170.44,157.88495"
         id="path1261" />
      <path
         style="fill:#ffc0c0;fill-opacity:1;fill-rule:evenodd;stroke:#000000;stroke-width:7.28887px;stroke-linecap:square;stroke-linejoin:round;stroke-miterlimit:0;stroke-opacity:0.996078;stop-color:#000000"
         d="M 179.56,1135.764 2,1163.928 v 0 c 0,-0.2 64.39,-167.85603 64.39,-167.85603 v 0 c 0.17,0.1 113.17,139.69203 113.17,139.69203"
         id="path1263" />
      <path
         style="display:inline;fill:#ffc0c0;fill-opacity:1;fill-rule:evenodd;stroke:#000000;stroke-width:7.28887px;stroke-linecap:square;stroke-linejoin:round;stroke-miterlimit:0;stroke-opacity:0.996078;stop-color:#000000"
         d="M 135.17,1140.4224 2,1128.0884 v 0 c 0,-0.15 77.27,-109.163 77.27,-109.163 v 0 c 0.13,0.075 55.9,121.497 55.9,121.497"
         id="path1265" />
    </g>
  </g>
</svg>
