<?xml version="1.0" encoding="UTF-8" standalone="no"?>
<!-- Created with Inkscape (http://www.inkscape.org/) -->

<svg
   width="240"
   height="240"
   viewBox="0 0 240 240"
   version="1.1"
   id="svg5"
   inkscape:version="1.1 (ce6663b3b7, 2021-05-25)"
   sodipodi:docname="Lessons_45_.svg"
   xmlns:inkscape="http://www.inkscape.org/namespaces/inkscape"
   xmlns:sodipodi="http://sodipodi.sourceforge.net/DTD/sodipodi-0.dtd"
   xmlns:xlink="http://www.w3.org/1999/xlink"
   xmlns="http://www.w3.org/2000/svg"
   xmlns:svg="http://www.w3.org/2000/svg">
  <sodipodi:namedview
     id="namedview7"
     pagecolor="#ededed"
     bordercolor="#666666"
     borderopacity="1.0"
     inkscape:pageshadow="2"
     inkscape:pageopacity="0"
     inkscape:pagecheckerboard="0"
     inkscape:document-units="px"
     showgrid="false"
     units="px"
     scale-x="1"
     inkscape:showpageshadow="false"
     inkscape:snap-page="true"
     inkscape:snap-nodes="true"
     width="240px"
     inkscape:snap-intersection-paths="true"
     inkscape:snap-bbox="true"
     inkscape:bbox-paths="true"
     inkscape:bbox-nodes="true"
     inkscape:snap-center="true"
     inkscape:zoom="2.7115291"
     inkscape:cx="112.85145"
     inkscape:cy="104.36915"
     inkscape:window-width="1920"
     inkscape:window-height="1017"
     inkscape:window-x="0"
     inkscape:window-y="0"
     inkscape:window-maximized="1"
     inkscape:current-layer="layer2"
     inkscape:lockguides="true" />
  <defs
     id="defs2">
    <linearGradient
       inkscape:collect="always"
       id="linearGradient4486">
      <stop
         style="stop-color:#002c7f;stop-opacity:1"
         offset="0"
         id="stop4482" />
      <stop
         style="stop-color:#5400af;stop-opacity:1"
         offset="1"
         id="stop4484" />
    </linearGradient>
    <radialGradient
       inkscape:collect="always"
       xlink:href="#linearGradient4486"
       id="radialGradient4490"
       cx="120"
       cy="120"
       fx="120"
       fy="120"
       r="120"
       gradientUnits="userSpaceOnUse" />
  </defs>
  <g
     inkscape:label="Layer_I"
     inkscape:groupmode="layer"
     id="layer1"
     sodipodi:insensitive="true">
    <rect
       style="fill:#ff9955;fill-opacity:0;stroke:none;stroke-width:10"
       id="rect846"
       width="3840"
       height="2160"
       x="0"
       y="0"
       rx="0"
       ry="0"
       sodipodi:insensitive="true"
       inkscape:label="Background" />
  </g>
  <g
     inkscape:groupmode="layer"
     id="layer2"
     inkscape:label="Layer_II">
    <g
       id="g4164"
       style="display:inline;fill:url(#radialGradient4490);stroke:none;fill-opacity:1">
      <path
         style="fill:url(#radialGradient4490);fill-rule:evenodd;stroke:none;stroke-linejoin:bevel;stop-color:#000000;fill-opacity:1"
         d="M 0.81445312,239.73633 A 31.491194,31.491194 0 0 1 2.8984375,227.44922 31.491194,31.491194 0 0 1 28.619141,208.50977 H 0 v 31.1875 a 31.491194,31.491194 0 0 0 0.81445312,0.0391 z"
         id="path4360" />
      <path
         style="fill:url(#radialGradient4490);fill-rule:evenodd;stroke:none;stroke-linejoin:bevel;stop-color:#000000;fill-opacity:1"
         d="m 31.992188,208.00977 a 31.491194,31.491194 0 0 0 -3.373047,0.5 h 2.871093 A 31.491194,31.491194 0 0 1 12.050781,237.60352 31.491194,31.491194 0 0 1 0.81445312,239.73633 31.491194,31.491194 0 0 0 0.828125,240 h 62.65625 v -0.5 H 31.992188 Z"
         id="path4358" />
      <path
         style="fill:url(#radialGradient4490);fill-rule:evenodd;stroke:none;stroke-linejoin:bevel;stop-color:#000000;fill-opacity:1"
         d="m 94.962891,82.195312 a 31.491194,31.491194 0 0 1 -19.439453,29.093748 31.491194,31.491194 0 0 1 -11.759766,2.10938 31.491194,31.491194 0 0 0 8.93164,22.47656 31.491194,31.491194 0 0 0 22.273438,9.14648 31.491194,31.491194 0 0 0 9.21875,22.34375 31.491194,31.491194 0 0 0 22.55078,8.93555 31.491194,31.491194 0 0 1 2.11328,-11.68359 31.491194,31.491194 0 0 1 29.08203,-19.4375 31.491194,31.491194 0 0 0 0,-0.004 31.491194,31.491194 0 0 1 -0.60937,-0.0781 H 126.45508 V 113.60547 H 94.962891 Z"
         id="path4356" />
      <path
         style="fill:url(#radialGradient4490);fill-rule:evenodd;stroke:none;stroke-linejoin:bevel;stop-color:#000000;fill-opacity:1"
         d="m 94.423828,82.195312 h 0.539063 a 31.491194,31.491194 0 0 1 -0.289063,-0.03711 31.491194,31.491194 0 0 0 -0.25,0.03711 z"
         id="path4354" />
      <path
         style="fill:url(#radialGradient4490);fill-rule:evenodd;stroke:none;stroke-linejoin:bevel;stop-color:#000000;fill-opacity:1"
         d="M 0.77929688,50.441406 A 31.491194,31.491194 0 0 1 2.8867188,38.652344 31.491194,31.491194 0 0 1 31.472656,19.289062 a 31.491194,31.491194 0 0 0 0.01172,-0.07422 H 0 v 31.1875 a 31.491194,31.491194 0 0 0 0.77929688,0.03906 z"
         id="path4352" />
      <path
         style="fill:url(#radialGradient4490);fill-rule:evenodd;stroke:none;stroke-linejoin:bevel;stop-color:#000000;fill-opacity:1"
         d="m 31.986328,82.119141 a 31.491194,31.491194 0 0 0 9.21875,22.343749 31.491194,31.491194 0 0 0 22.558594,8.93555 31.491194,31.491194 0 0 1 2.105469,-11.84375 31.491194,31.491194 0 0 1 28.554687,-19.359378 H 63.472656 V 50.703125 H 31.980469 V 19.212891 a 31.491194,31.491194 0 0 0 -0.507813,0.07617 31.491194,31.491194 0 0 1 -19.427734,29.019532 31.491194,31.491194 0 0 1 -11.26562512,2.132812 31.491194,31.491194 0 0 0 8.93359372,22.53125 31.491194,31.491194 0 0 0 22.2734374,9.146486 z"
         id="path4350" />
      <path
         style="fill:url(#radialGradient4490);fill-rule:evenodd;stroke:none;stroke-linejoin:bevel;stop-color:#000000;fill-opacity:1"
         d="M 0.78515625,113.34766 A 31.491194,31.491194 0 0 1 2.8925781,101.55859 31.491194,31.491194 0 0 1 31.478516,82.195312 a 31.491194,31.491194 0 0 0 0.01172,-0.07422 H 0 v 31.187498 a 31.491194,31.491194 0 0 0 0.78515625,0.0391 z"
         id="path4348" />
      <path
         style="fill:url(#radialGradient4490);fill-rule:evenodd;stroke:none;stroke-linejoin:bevel;stop-color:#000000;fill-opacity:1"
         d="m 31.992188,145.02539 a 31.491194,31.491194 0 0 0 9.21875,22.34375 31.491194,31.491194 0 0 0 22.554687,8.93555 A 31.491194,31.491194 0 0 1 65.875,164.54102 31.491194,31.491194 0 0 1 94.96875,145.10156 H 63.478516 V 113.60938 H 31.986328 V 82.119141 a 31.491194,31.491194 0 0 0 -0.507812,0.07617 31.491194,31.491194 0 0 1 -19.427735,29.019529 31.491194,31.491194 0 0 1 -11.26562475,2.13282 31.491194,31.491194 0 0 0 8.93359375,22.53125 31.491194,31.491194 0 0 0 22.273438,9.14648 z"
         id="path4346" />
      <path
         style="fill:url(#radialGradient4490);fill-rule:evenodd;stroke:none;stroke-linejoin:bevel;stop-color:#000000;fill-opacity:1"
         d="M 0.79296875,176.30664 A 31.491194,31.491194 0 0 1 2.8984375,164.46484 31.491194,31.491194 0 0 1 31.466797,145.10352 H 0.49414062 V 113.61133 H 0 v 62.65625 a 31.491194,31.491194 0 0 0 0.79296875,0.0391 z"
         id="path4344" />
      <path
         style="fill:url(#radialGradient4490);fill-rule:evenodd;stroke:none;stroke-linejoin:bevel;stop-color:#000000;fill-opacity:1"
         d="M 94.962909,208.08587 A 31.491194,31.491194 0 0 1 75.535156,237.10156 31.491194,31.491194 0 0 1 63.761719,239.20898 31.491194,31.491194 0 0 0 63.800781,240 h 62.660159 v -0.42383 H 94.96875 v -31.49023 a 31.491194,31.491194 0 0 0 -0.0059,0 z"
         id="path4342" />
      <path
         style="fill:url(#radialGradient4490);fill-rule:evenodd;stroke:none;stroke-linejoin:bevel;stop-color:#000000;fill-opacity:1"
         d="M 94.974629,208.00777 H 63.484375 V 176.51562 H 31.992188 v -31.49023 a 31.491194,31.491194 0 0 0 -0.525391,0.0781 h 0.517578 a 31.491194,31.491194 0 0 1 -19.439453,29.09375 31.491194,31.491194 0 0 1 -11.75195325,2.10937 31.491194,31.491194 0 0 0 8.93164065,22.47852 31.491194,31.491194 0 0 0 22.2734376,9.14648 31.491194,31.491194 0 0 0 9.21875,22.34375 31.491194,31.491194 0 0 0 22.544922,8.93359 31.491194,31.491194 0 0 1 2.113281,-11.68359 31.491194,31.491194 0 0 1 29.087891,-19.43945 31.491194,31.491194 0 0 0 0.01172,-0.0781 z"
         id="path4340" />
      <path
         style="fill:url(#radialGradient4490);fill-rule:evenodd;stroke:none;stroke-linejoin:bevel;stop-color:#000000;fill-opacity:1"
         d="m 157.93947,208.16207 a 31.491194,31.491194 0 0 1 -19.42773,29.01562 31.491194,31.491194 0 0 1 -11.77344,2.10743 31.491194,31.491194 0 0 0 0.0352,0.71484 h 62.66406 v -0.34766 h -31.49219 v -31.49023 a 31.491194,31.491194 0 0 0 -0.006,0 z"
         id="path4338" />
      <path
         style="fill:url(#radialGradient4490);fill-rule:evenodd;stroke:none;stroke-linejoin:bevel;stop-color:#000000;fill-opacity:1"
         d="M 157.95117,208.08397 H 126.46094 V 176.5918 H 94.96875 v -31.49024 a 31.491194,31.491194 0 0 1 -19.439453,29.09375 31.491194,31.491194 0 0 1 -11.763672,2.10938 31.491194,31.491194 0 0 0 8.935547,22.55664 31.491194,31.491194 0 0 0 22.273437,9.14648 31.491194,31.491194 0 0 0 9.218751,22.34375 31.491194,31.491194 0 0 0 22.54492,8.9336 31.491194,31.491194 0 0 1 2.11328,-11.6836 31.491194,31.491194 0 0 1 29.08789,-19.43945 31.491194,31.491194 0 0 0 0.0117,-0.0781 z"
         id="path4336" />
      <path
         style="fill:url(#radialGradient4490);fill-rule:evenodd;stroke:none;stroke-linejoin:bevel;stop-color:#000000;fill-opacity:1"
         d="m 220.91406,208.25194 a 31.491194,31.491194 0 0 1 -19.42578,29.00196 31.491194,31.491194 0 0 1 -11.6914,2.11132 31.491194,31.491194 0 0 0 0.0312,0.63477 H 240 v -0.27148 h -18.99609 v -31.49024 a 31.491194,31.491194 0 0 0 -0.0898,0.0137 z"
         id="path4334" />
      <path
         style="fill:url(#radialGradient4490);fill-rule:evenodd;stroke:none;stroke-linejoin:bevel;stop-color:#000000;fill-opacity:1"
         d="m 157.94531,145.17772 a 31.491194,31.491194 0 0 0 -0.0117,0.002 31.491194,31.491194 0 0 1 -19.42773,29.01172 31.491194,31.491194 0 0 1 -11.76758,2.10937 31.491194,31.491194 0 0 0 8.93945,22.63672 31.491194,31.491194 0 0 0 22.27344,9.14648 31.491194,31.491194 0 0 0 9.21875,22.34375 31.491194,31.491194 0 0 0 22.62696,8.9375 31.491194,31.491194 0 0 1 2.11328,-11.6875 31.491194,31.491194 0 0 1 29.0039,-19.42578 31.491194,31.491194 0 0 0 0.0137,-0.0918 H 189.4375 v -31.49219 h -31.49219 z"
         id="path4332" />
      <path
         style="fill:url(#radialGradient4490);fill-rule:evenodd;stroke:none;stroke-linejoin:bevel;stop-color:#000000;fill-opacity:1"
         d="m 220.91992,145.26562 a 31.491194,31.491194 0 0 1 -19.4375,29.08204 31.491194,31.491194 0 0 1 -11.67969,2.11328 31.491194,31.491194 0 0 0 8.9336,22.55273 31.491194,31.491194 0 0 0 22.27344,9.14649 31.491194,31.491194 0 0 0 9.21875,22.34375 31.491194,31.491194 0 0 0 9.77148,6.3457 v -60.10547 h -18.99609 v -31.49023 a 31.491194,31.491194 0 0 0 -0.084,0.0117 z"
         id="path4330" />
      <path
         style="fill:url(#radialGradient4490);fill-rule:evenodd;stroke:none;stroke-linejoin:bevel;stop-color:#000000;fill-opacity:1"
         d="M 157.93945,82.271484 A 31.491194,31.491194 0 0 1 138.5,111.36523 a 31.491194,31.491194 0 0 1 -11.76367,2.10938 31.491194,31.491194 0 0 0 8.93555,22.55664 31.491194,31.491194 0 0 0 21.65234,9.06641 h 0.62109 a 31.491194,31.491194 0 0 1 -0.0117,0.0781 31.491194,31.491194 0 0 0 0.0117,0.002 31.491194,31.491194 0 0 0 9.21875,22.34375 31.491194,31.491194 0 0 0 22.63867,8.93946 31.491194,31.491194 0 0 1 2.10743,-11.76758 31.491194,31.491194 0 0 1 29.00976,-19.42774 31.491194,31.491194 0 0 0 0.002,-0.0117 h -31.49024 v -31.49219 h -31.49219 z"
         id="path4328" />
      <path
         style="fill:url(#radialGradient4490);fill-rule:evenodd;stroke:none;stroke-linejoin:bevel;stop-color:#000000;fill-opacity:1"
         d="m 94.957031,19.841797 a 31.491194,31.491194 0 0 1 -19.357422,28.541015 31.491194,31.491194 0 0 1 -11.845703,2.105469 31.491194,31.491194 0 0 0 8.935547,22.560547 31.491194,31.491194 0 0 0 21.984375,9.109375 31.491194,31.491194 0 0 1 0.289063,-0.04297 v 0.08008 a 31.491194,31.491194 0 0 0 9.218749,22.343747 31.491194,31.491194 0 0 0 22.55469,8.93555 31.491194,31.491194 0 0 1 2.10937,-11.76367 31.491194,31.491194 0 0 1 29.09375,-19.439455 H 126.44922 V 50.779297 H 94.957031 Z"
         id="path4326" />
      <path
         style="fill:url(#radialGradient4490);fill-rule:evenodd;stroke:none;stroke-linejoin:bevel;stop-color:#000000;fill-opacity:1"
         d="m 189.79688,50.5625 a 31.491194,31.491194 0 0 1 2.10742,-11.757812 31.491194,31.491194 0 0 1 29.08984,-19.439454 31.491194,31.491194 0 0 1 0.004,0 v 0.02344 A 31.491194,31.491194 0 0 0 230.21289,41.703125 31.491194,31.491194 0 0 0 240,48.054688 V 0 h -47.78125 a 31.491194,31.491194 0 0 0 6.50195,10.212891 31.491194,31.491194 0 0 0 22.27344,9.146484 H 189.50391 V 0 h -60.23438 a 31.491194,31.491194 0 0 0 6.47461,10.136719 31.491194,31.491194 0 0 0 22.27344,9.146484 31.491194,31.491194 0 0 0 9.21875,22.34375 31.491194,31.491194 0 0 0 22.56055,8.935547 z"
         id="path4324" />
      <path
         style="fill:url(#radialGradient4490);fill-rule:evenodd;stroke:none;stroke-linejoin:bevel;stop-color:#000000;fill-opacity:1"
         d="m 221.0156,82.357427 a 31.491194,31.491194 0 0 1 0.0664,-0.0098 V 82.875 a 31.491194,31.491194 0 0 0 9.14063,21.74023 A 31.491194,31.491194 0 0 0 240,110.96289 V 50.855469 H 220.99805 V 19.388672 a 31.491194,31.491194 0 0 1 -0.004,-0.02344 31.491194,31.491194 0 0 1 -19.43945,29.087891 31.491194,31.491194 0 0 1 -11.75781,2.109375 31.491194,31.491194 0 0 0 8.93359,22.5625 31.491194,31.491194 0 0 0 22.27344,9.146484 31.491194,31.491194 0 0 0 0.0117,0.08594 z"
         id="path4322" />
      <path
         style="fill:url(#radialGradient4490);fill-rule:evenodd;stroke:none;stroke-linejoin:bevel;stop-color:#000000;fill-opacity:1"
         d="m 220.9961,82.361327 a 31.491194,31.491194 0 0 1 -19.4375,29.078123 31.491194,31.491194 0 0 1 -11.67968,2.11328 31.491194,31.491194 0 0 0 8.93554,22.55469 31.491194,31.491194 0 0 0 22.27344,9.14649 31.491194,31.491194 0 0 0 9.21875,22.34375 A 31.491194,31.491194 0 0 0 240,173.91602 V 113.83789 H 221.08203 V 82.875 a 31.491194,31.491194 0 0 1 -0.0664,-0.517578 31.491194,31.491194 0 0 0 -0.0195,0.0039 z"
         id="path4320" />
      <path
         style="fill:url(#radialGradient4490);fill-rule:evenodd;stroke:none;stroke-linejoin:bevel;stop-color:#000000;fill-opacity:1"
         d="M 157.92579,19.376952 A 31.491194,31.491194 0 0 1 138.5,48.382812 a 31.491194,31.491194 0 0 1 -11.68945,2.113282 31.491194,31.491194 0 0 0 8.9375,22.626953 31.491194,31.491194 0 0 0 22.27343,9.146484 31.491194,31.491194 0 0 0 9.21875,22.343749 31.491194,31.491194 0 0 0 22.63868,8.93945 31.491194,31.491194 0 0 1 2.10937,-11.76562 31.491194,31.491194 0 0 1 29.00781,-19.425782 31.491194,31.491194 0 0 0 0.002,-0.01563 H 189.50781 V 50.853516 H 158.01562 V 19.363281 a 31.491194,31.491194 0 0 0 -0.0898,0.01367 z"
         id="path4318" />
      <path
         style="fill:url(#radialGradient4490);fill-rule:evenodd;stroke:none;stroke-linejoin:bevel;stop-color:#000000;fill-opacity:1"
         d="m 94.972661,19.289062 h 0.06641 a 31.491194,31.491194 0 0 1 -0.03516,0.238282 31.491194,31.491194 0 0 0 9.177739,22.029297 31.491194,31.491194 0 0 0 22.62891,8.939453 31.491194,31.491194 0 0 1 2.11132,-11.69336 31.491194,31.491194 0 0 1 29.00391,-19.425781 31.491194,31.491194 0 0 0 0.0137,-0.08789 H 126.44922 V 0 H 66.238281 a 31.491194,31.491194 0 0 0 6.451172,10.066406 31.491194,31.491194 0 0 0 22.273438,9.146485 31.491194,31.491194 0 0 0 0.0098,0.07617 z"
         id="path4316" />
      <path
         style="fill:url(#radialGradient4490);fill-rule:evenodd;stroke:none;stroke-linejoin:bevel;stop-color:#000000;fill-opacity:1"
         d="m 94.957031,19.289062 v 0.552735 a 31.491194,31.491194 0 0 0 0.04687,-0.314453 31.491194,31.491194 0 0 1 -0.03125,-0.238282 z"
         id="path4314" />
      <path
         style="fill:url(#radialGradient4490);fill-rule:evenodd;stroke:none;stroke-linejoin:bevel;stop-color:#000000;fill-opacity:1"
         d="m 3.3398438,0 a 31.491194,31.491194 0 0 0 6.4492187,10.066406 31.491194,31.491194 0 0 0 22.2734375,9.146485 31.491194,31.491194 0 0 0 9.21875,22.34375 31.491194,31.491194 0 0 0 22.472656,8.93164 31.491194,31.491194 0 0 1 2.109375,-11.759765 31.491194,31.491194 0 0 1 29.09375,-19.439454 H 63.548828 V 0 Z"
         id="path4084" />
    </g>
  </g>
</svg>
