<?xml version="1.0" encoding="UTF-8" standalone="no"?>
<!-- Created with Inkscape (http://www.inkscape.org/) -->

<svg
   width="2160"
   height="2160"
   viewBox="0 0 2160 2160"
   version="1.1"
   id="svg5"
   inkscape:version="1.1 (c4e8f9ed74, 2021-05-24)"
   sodipodi:docname="Lesson_6_.svg"
   xmlns:inkscape="http://www.inkscape.org/namespaces/inkscape"
   xmlns:sodipodi="http://sodipodi.sourceforge.net/DTD/sodipodi-0.dtd"
   xmlns:xlink="http://www.w3.org/1999/xlink"
   xmlns="http://www.w3.org/2000/svg"
   xmlns:svg="http://www.w3.org/2000/svg">
  <sodipodi:namedview
     id="namedview7"
     pagecolor="#ededed"
     bordercolor="#666666"
     borderopacity="1.0"
     inkscape:pageshadow="2"
     inkscape:pageopacity="0"
     inkscape:pagecheckerboard="0"
     inkscape:document-units="px"
     showgrid="false"
     units="px"
     scale-x="1"
     inkscape:showpageshadow="false"
     inkscape:snap-page="true"
     inkscape:snap-nodes="false"
     inkscape:object-nodes="true"
     inkscape:snap-bbox="false"
     inkscape:bbox-nodes="true"
     inkscape:snap-intersection-paths="true"
     inkscape:snap-smooth-nodes="true"
     inkscape:snap-bbox-midpoints="false"
     inkscape:bbox-paths="true"
     inkscape:snap-bbox-edge-midpoints="true"
     inkscape:object-paths="false"
     inkscape:zoom="0.29051243"
     inkscape:cx="1378.5985"
     inkscape:cy="1070.5222"
     inkscape:window-width="1920"
     inkscape:window-height="1017"
     inkscape:window-x="0"
     inkscape:window-y="0"
     inkscape:window-maximized="1"
     inkscape:current-layer="layer2"
     inkscape:snap-object-midpoints="true"
     inkscape:snap-grids="false"
     width="2160px" />
  <defs
     id="defs2">
    <inkscape:path-effect
       effect="spiro"
       id="path-effect1645"
       is_visible="true"
       lpeversion="1" />
    <inkscape:path-effect
       effect="bend_path"
       id="path-effect1647"
       is_visible="true"
       lpeversion="1"
       bendpath="m 834.84189,1335.1494 c -18.68822,-202.8686 51.62039,-412.3598 188.91131,-562.87928 137.291,-150.51949 339.4494,-239.7486 543.177,-239.7486 203.7276,0 405.886,89.22911 543.1769,239.7486 137.291,150.51948 207.5996,360.01068 188.9114,562.87928 -16.8643,183.0694 -105.353,358.592 -242.5034,481.0199 -137.1504,122.4278 -321.5529,190.5027 -505.3551,186.5591"
       prop_scale="1"
       scale_y_rel="false"
       vertical="false"
       hide_knot="false" />
    <inkscape:path-effect
       effect="bend_path"
       id="path-effect1608"
       is_visible="true"
       lpeversion="1"
       bendpath="m 692.78342,1156.4766 c -81.28248,287.2898 -20.51143,611.1761 159.38499,849.4606 179.89639,238.2846 474.75029,385.4466 773.31679,385.9638 298.5666,0.5171 593.9284,-145.6226 774.6492,-383.2825 180.7209,-237.66 242.6136,-561.3338 162.3268,-848.9034 -17.6923,-63.3701 -42.3607,-125.8535 -82.6438,-177.87332 -58.5176,-75.56702 -149.5481,-125.03965 -244.7886,-133.0359 -95.2404,-7.99625 -193.2458,25.6052 -263.5443,90.357"
       prop_scale="1"
       scale_y_rel="false"
       vertical="false"
       hide_knot="false" />
    <inkscape:path-effect
       effect="bend_path"
       id="path-effect1376"
       is_visible="true"
       lpeversion="1"
       bendpath="M 969.01362,708.05882 C 997.92168,485.93823 1110.03,275.63656 1278.3281,127.82247 c 168.298,-147.81408 391.3094,-231.84391 615.3032,-231.84391 223.9938,0 447.0052,84.02983 615.3032,231.84391 168.2981,147.81409 280.4064,358.11576 309.3145,580.23635 1.5804,12.14295 2.9215,24.31703 4.0223,36.5128"
       prop_scale="1"
       scale_y_rel="false"
       vertical="false"
       hide_knot="false" />
    <inkscape:path-effect
       effect="bend_path"
       id="path-effect1337"
       is_visible="true"
       lpeversion="1"
       bendpath="M 906.18855,808.78117 H 2997.7881"
       prop_scale="1"
       scale_y_rel="false"
       vertical="false"
       hide_knot="false" />
    <inkscape:path-effect
       effect="bend_path"
       id="path-effect1298"
       is_visible="true"
       lpeversion="1"
       bendpath="m 877.88269,842.36138 2028.48071,5.32401"
       prop_scale="1"
       scale_y_rel="false"
       vertical="false"
       hide_knot="false" />
    <inkscape:path-effect
       effect="bend_path"
       id="path-effect1259"
       is_visible="true"
       lpeversion="1"
       bendpath="M 912.75784,830.56873 C 1010.9508,632.11901 1165.5004,461.94132 1353.6034,345.1448 c 188.1029,-116.79652 409.1702,-179.84616 630.5842,-179.84616 221.414,0 442.4813,63.04964 630.5843,179.84616 188.1029,116.79652 342.6525,286.97421 440.8455,485.42393 4.9753,10.05513 9.8262,20.22351 13.1827,30.92834 3.3564,10.70484 5.1907,22.0242 3.9949,33.17898 -0.2752,2.56735 -0.7096,5.11762 -1.2999,7.63131"
       prop_scale="1"
       scale_y_rel="false"
       vertical="false"
       hide_knot="false" />
  </defs>
  <g
     inkscape:label="Layer_I"
     inkscape:groupmode="layer"
     id="layer1"
     sodipodi:insensitive="true">
    <rect
       style="fill:#ff9955;fill-opacity:0;stroke:none;stroke-width:10"
       id="rect846"
       width="3840"
       height="2160"
       x="0"
       y="0"
       rx="0"
       ry="0"
       sodipodi:insensitive="true"
       inkscape:label="Background" />
  </g>
  <g
     inkscape:groupmode="layer"
     id="layer2"
     inkscape:label="Layer_II">
    <g
       id="g9686"
       transform="translate(-836.20899,4.3945403)">
      <path
         id="path9101"
         style="display:inline;fill:#ff2a2a;fill-opacity:0.994783;fill-rule:evenodd;stroke:#000000;stroke-width:4;stroke-linecap:square;stroke-miterlimit:10;stop-color:#000000"
         d="m 1958.666,1621.4824 c -18.002,-178.0374 75.9908,-362.812 234.9123,-447.2408 67.8325,-37.4579 145.0822,-57.977 222.6307,-58.0131 0,-27.082 0,-54.1641 0,-81.2461 -185.9615,1.5213 -366.0984,-120.90484 -429.1571,-296.58287 -25.0199,-66.22689 -34.5463,-138.18248 -28.3859,-208.67101 -28.3047,0 -56.6093,0 -84.914,0 18.002,178.0374 -75.991,362.81195 -234.9124,447.24078 -67.8324,37.4578 -145.0821,57.977 -222.6306,58.0131 0,27.082 0,54.1641 0,81.2461 185.9615,-1.5213 366.0983,120.905 429.1571,296.5829 25.0199,66.2269 34.5463,138.1825 28.3859,208.671 28.3047,0 56.6093,0 84.914,0 z"
         sodipodi:nodetypes="ccccccccccccccccccccc" />
      <path
         style="display:inline;fill:#ff5555;fill-opacity:0.994783;fill-rule:evenodd;stroke:#000000;stroke-width:4;stroke-linecap:square;stroke-miterlimit:10;stop-color:#000000"
         sodipodi:type="inkscape:offset"
         inkscape:radius="-108.15108"
         inkscape:original="M 1873.752 529.72852 C 1891.754 707.76592 1797.7612 892.53992 1638.8398 976.96875 C 1571.0074 1014.4266 1493.7575 1034.9463 1416.209 1034.9824 L 1416.209 1116.2285 C 1602.1705 1114.7072 1782.3064 1237.1326 1845.3652 1412.8105 C 1870.3851 1479.0374 1879.9124 1550.9939 1873.752 1621.4824 L 1958.666 1621.4824 C 1940.664 1443.445 2034.6566 1258.671 2193.5781 1174.2422 C 2261.4106 1136.7843 2338.6605 1116.2646 2416.209 1116.2285 L 2416.209 1034.9824 C 2230.2475 1036.5037 2050.1114 914.07842 1987.0527 738.40039 C 1962.0328 672.1735 1952.5056 600.21705 1958.666 529.72852 L 1873.752 529.72852 z "
         xlink:href="#path9101"
         id="path9420"
         inkscape:href="#path9101"
         d="m 1885.2598,774.9375 0.6211,1.68555 c -0.079,-0.20782 -0.1386,-0.42102 -0.2168,-0.62891 -0.1285,-0.35562 -0.2765,-0.70063 -0.4043,-1.05664 z m 30.9843,69.93555 c -50.6113,94.53687 -127.8112,174.92225 -226.0996,227.29105 -1.7834,0.9804 -3.5953,1.9058 -5.3886,2.8671 97.1904,52.0194 178.8961,132.0045 231.4179,231.3067 50.6113,-94.5369 127.8112,-174.9223 226.0996,-227.291 1.7835,-0.9804 3.5953,-1.9058 5.3887,-2.8672 -97.1904,-52.0193 -178.8962,-132.00433 -231.418,-231.30665 z m 30.293,529.71485 c 0.079,0.2078 0.1385,0.421 0.2168,0.6289 0.1285,0.3556 0.2765,0.7006 0.4043,1.0566 z" />
      <path
         style="display:inline;fill:#ffaaaa;fill-opacity:0.994783;fill-rule:evenodd;stroke:#000000;stroke-width:4;stroke-linecap:square;stroke-miterlimit:10;stop-color:#000000"
         sodipodi:type="inkscape:offset"
         inkscape:radius="-186.03293"
         inkscape:original="M 1873.752 529.72852 C 1891.754 707.76592 1797.7612 892.53992 1638.8398 976.96875 C 1571.0074 1014.4266 1493.7575 1034.9463 1416.209 1034.9824 L 1416.209 1116.2285 C 1602.1705 1114.7072 1782.3064 1237.1326 1845.3652 1412.8105 C 1870.3851 1479.0374 1879.9124 1550.9939 1873.752 1621.4824 L 1958.666 1621.4824 C 1940.664 1443.445 2034.6566 1258.671 2193.5781 1174.2422 C 2261.4106 1136.7843 2338.6605 1116.2646 2416.209 1116.2285 L 2416.209 1034.9824 C 2230.2475 1036.5037 2050.1114 914.07842 1987.0527 738.40039 C 1962.0328 672.1735 1952.5056 600.21705 1958.666 529.72852 L 1873.752 529.72852 z "
         xlink:href="#path9101"
         id="path9183"
         inkscape:href="#path9101"
         d="m 1811.957,801.25 1.0684,2.89648 c -0.2323,-0.61479 -0.4396,-1.23624 -0.6699,-1.85156 -0.127,-0.35179 -0.2721,-0.69279 -0.3985,-1.04492 z m 104.2246,184.44336 c -26.7235,32.50644 -56.7742,62.55884 -90.0566,89.46484 32.8672,26.8917 63.07,57.144 90.1113,90.3594 26.7235,-32.5064 56.7723,-62.5588 90.0547,-89.4649 -32.8668,-26.8914 -63.0683,-57.1443 -90.1094,-90.35934 z m 190.1172,24.26174 -2.6504,1.4336 c 0.562,-0.3103 1.1365,-0.5957 1.6993,-0.9043 0.3212,-0.1714 0.6295,-0.3585 0.9511,-0.5293 z m -377.5293,129.8672 c -0.5619,0.3103 -1.1364,0.5956 -1.6992,0.9043 -0.3212,0.1713 -0.6295,0.3584 -0.9512,0.5293 z m 290.6231,207.2422 c 0.2322,0.6148 0.4396,1.2362 0.6699,1.8515 0.127,0.3518 0.272,0.6928 0.3984,1.0449 z" />
      <g
         id="g3463"
         transform="translate(562.4298,-691.6218)"
         style="display:inline;stroke:#000000;stroke-width:4">
        <path
           id="rect975"
           style="fill:#ff00ff;fill-opacity:0.994783;fill-rule:evenodd;stroke:#000000;stroke-width:4;stroke-linecap:square;stroke-miterlimit:10;stop-color:#000000"
           d="m 853.7795,1807.8477 c -64.0934,0.089 -127.3588,13.9182 -185.3398,39.5664 -58.0265,25.545 -110.8805,62.9581 -154.1387,110.2422 -43.1262,47.4044 -75.5425,103.457 -95.6621,163.5703 -15.7648,46.8249 -24.0437,96.1887 -24.2051,145.9043 h 40.6114 c 0.1652,-45.1838 7.7473,-90.2365 22.1113,-132.9805 18.4119,-54.9079 47.9946,-106.1423 87.1621,-149.1191 39.2114,-42.9366 87.5267,-77.0877 140.5254,-100.4551 v 0 c 52.9835,-23.4017 110.7818,-36.0757 168.9355,-36.1054 58.1536,0.03 115.95,12.7037 168.9336,36.1054 52.9986,23.3674 101.3139,57.5204 140.5254,100.4571 39.1675,42.9767 68.7502,94.2111 87.1621,149.1191 18.4476,54.8961 25.7698,113.6007 20.4649,171.5 -4.8323,52.2301 -19.8133,103.2779 -43.3653,149.9571 -23.5295,46.6906 -55.6675,89.0902 -94.7929,124.0351 -39.1519,34.9153 -84.9233,62.0462 -133.9844,80.1406 -49.0261,18.1084 -101.4199,27.2188 -153.8438,26.125 l -0.8632,40.6114 c 57.7302,1.167 115.1019,-8.7775 168.7773,-28.6289 53.7304,-19.7909 103.8294,-49.5242 146.9688,-87.9453 43.0604,-38.5098 78.2741,-84.9156 104.0175,-136.0528 25.811,-51.1031 42.1841,-107.0027 47.543,-164.5156 5.7904,-63.8183 -2.1777,-128.073 -22.4043,-188.1504 -20.1196,-60.1134 -52.5358,-116.1659 -95.6621,-163.5703 -43.2582,-47.2842 -96.1102,-84.6972 -154.1367,-110.2422 -57.9809,-25.6482 -121.2464,-39.4772 -185.3399,-39.5664 z" />
        <path
           id="rect977"
           style="fill:#00ff00;fill-opacity:0.994783;fill-rule:evenodd;stroke:#000000;stroke-width:4;stroke-linecap:square;stroke-miterlimit:10;stop-color:#000000"
           d="m 853.7795,1848.4688 c -58.1537,0.03 -115.952,12.7037 -168.9355,36.1055 -52.9987,23.3673 -101.314,57.5203 -140.5254,100.457 -39.1675,42.9768 -68.7502,94.2111 -87.1621,149.1191 -14.364,42.7439 -21.8817,87.7967 -22.0469,132.9805 h 40.6035 c 0.1692,-40.6531 6.998,-81.3942 19.961,-120.0566 16.7043,-49.7027 43.4534,-96.1208 78.6621,-134.67 35.1647,-38.5891 78.9432,-69.4782 126.914,-90.6679 47.9861,-21.1554 100.3154,-32.6783 152.5293,-32.6485 52.2139,-0.03 104.5413,11.4932 152.5274,32.6485 47.9709,21.1897 91.7494,52.0787 126.914,90.6679 35.2087,38.5492 61.9579,84.9673 78.6622,134.67 16.6686,49.7146 23.3446,102.8692 18.5253,154.8496 -4.3058,46.9473 -17.8945,93.1412 -39.1875,135.3965 -21.3156,42.244 -50.3797,80.6375 -85.5703,112.0175 -35.1642,31.4096 -76.6062,55.9399 -120.998,72.3379 -44.3767,16.3655 -91.7926,24.6416 -138.9102,23.6211 l -0.8633,40.6113 c 52.4239,1.0938 104.8177,-8.0166 153.8438,-26.125 49.0611,-18.0944 94.8326,-45.2252 133.9844,-80.1406 39.1254,-34.9449 71.2634,-77.3445 94.7929,-124.0351 23.552,-46.6792 38.533,-97.727 43.3653,-149.9571 5.3049,-57.8993 -2.0173,-116.6039 -20.4649,-171.5 -18.4119,-54.908 -47.9946,-106.1423 -87.1621,-149.1191 -39.2115,-42.9367 -87.5267,-77.0897 -140.5254,-100.457 -52.9836,-23.4018 -110.7799,-36.0758 -168.9336,-36.1055 z" />
        <path
           id="rect979"
           style="fill:#ffff00;fill-opacity:0.994783;fill-rule:evenodd;stroke:#000000;stroke-width:4;stroke-linecap:square;stroke-miterlimit:10;stop-color:#000000"
           d="m 853.7795,1889.0879 c -52.2139,-0.03 -104.5432,11.4931 -152.5293,32.6485 -47.9708,21.1897 -91.7493,52.0787 -126.914,90.6679 -35.2087,38.5492 -61.9579,84.9673 -78.6621,134.67 -12.963,38.6625 -19.7918,79.4035 -19.961,120.0566 h 40.6016 c 0.1733,-36.124 6.3149,-72.55 17.8769,-107.1309 14.9966,-44.4973 38.9123,-86.1011 70.1622,-120.2226 31.118,-34.2418 70.3597,-61.8669 113.3027,-80.8789 42.9887,-18.9089 89.8488,-29.2788 136.123,-29.1895 46.2742,-0.089 93.1325,10.2806 136.1211,29.1895 42.943,19.0121 82.1849,46.6371 113.3028,80.8789 31.2499,34.1215 55.1656,75.7253 70.1621,120.2226 14.8896,44.5332 20.9196,92.1358 16.5859,138.1973 -3.7793,41.6645 -15.9759,83.0044 -35.0098,120.8359 -19.1017,37.7973 -45.0919,72.1868 -76.3476,100.002 -31.1766,27.9038 -68.2893,49.8336 -108.0117,64.5352 -39.7274,14.6226 -82.1672,22.0624 -123.9785,21.1152 l -0.8614,40.6113 c 47.1176,1.0205 94.5335,-7.2556 138.9102,-23.6211 44.3918,-16.398 85.8338,-40.9284 120.998,-72.3379 35.1906,-31.3801 64.2547,-69.7735 85.5703,-112.0175 21.293,-42.2553 34.8817,-88.4492 39.1875,-135.3965 4.8193,-51.9804 -1.8567,-105.135 -18.5253,-154.8496 -16.7043,-49.7027 -43.4535,-96.1208 -78.6622,-134.67 -35.1646,-38.5892 -78.9431,-69.4782 -126.914,-90.6679 -47.9861,-21.1554 -100.3134,-32.6783 -152.5274,-32.6485 z" />
        <path
           id="rect845"
           style="fill:#0000ff;fill-opacity:0.994783;fill-rule:evenodd;stroke:#000000;stroke-width:4;stroke-linecap:square;stroke-miterlimit:10;stop-color:#000000"
           d="m 853.7795,1929.709 c -46.2742,-0.089 -93.1343,10.2806 -136.123,29.1895 -42.9431,19.0121 -82.1848,46.6371 -113.3027,80.8789 -31.2499,34.1215 -55.1656,75.7253 -70.1622,120.2226 -11.562,34.5809 -17.7036,71.0069 -17.8769,107.1309 h 40.6035 c 0.178,-31.5961 5.6302,-63.7092 15.791,-94.207 13.2889,-39.292 34.371,-76.0777 61.6621,-105.7715 27.0712,-29.8943 61.7762,-54.2574 99.6914,-71.0918 37.9912,-16.6625 79.3824,-25.8792 119.7168,-25.7305 40.3345,-0.1487 81.7256,9.068 119.7168,25.7305 37.9153,16.8344 72.6183,41.1975 99.6895,71.0918 27.2911,29.6938 48.3732,66.4795 61.6621,105.7715 13.1106,39.3517 18.4946,81.4042 14.6465,121.5468 -3.2527,36.3816 -14.0572,72.8698 -30.8321,106.2774 -16.8878,33.3507 -39.8021,63.734 -67.123,87.9844 -27.1889,24.3981 -59.9742,43.7253 -95.0273,56.7304 -35.078,12.8796 -72.54,19.4853 -109.045,18.6114 l -0.8632,40.6113 c 41.8113,0.9472 84.2511,-6.4926 123.9785,-21.1152 39.7225,-14.7016 76.8351,-36.6314 108.0117,-64.5352 31.2557,-27.8152 57.2459,-62.2046 76.3476,-100.002 19.0339,-37.8315 31.2305,-79.1714 35.0098,-120.8359 4.3337,-46.0615 -1.6963,-93.6641 -16.5859,-138.1973 -14.9965,-44.4973 -38.9123,-86.1011 -70.1621,-120.2226 -31.118,-34.2418 -70.3597,-61.8668 -113.3028,-80.8789 -42.9887,-18.9089 -89.8469,-29.2788 -136.1211,-29.1895 z" />
        <path
           id="path2417"
           style="fill:#ff00ff;fill-opacity:0.994783;fill-rule:evenodd;stroke:#000000;stroke-width:4;stroke-linecap:square;stroke-miterlimit:10;stop-color:#000000"
           d="m 1853.7795,1807.8477 c 64.0934,0.089 127.3588,13.9182 185.3398,39.5664 58.0265,25.545 110.8805,62.9581 154.1387,110.2422 43.1262,47.4044 75.5425,103.457 95.6621,163.5703 15.7648,46.8249 24.0437,96.1887 24.2051,145.9043 h -40.6114 c -0.1652,-45.1838 -7.7473,-90.2365 -22.1113,-132.9805 -18.4119,-54.9079 -47.9946,-106.1423 -87.1621,-149.1191 -39.2114,-42.9366 -87.5267,-77.0877 -140.5254,-100.4551 v 0 c -52.9835,-23.4017 -110.7818,-36.0757 -168.9355,-36.1054 -58.1536,0.03 -115.95,12.7037 -168.9336,36.1054 -52.9986,23.3674 -101.3139,57.5204 -140.5254,100.4571 -39.1675,42.9767 -68.7502,94.2111 -87.1621,149.1191 -18.4476,54.8961 -25.7698,113.6007 -20.4649,171.5 4.8323,52.2301 19.8133,103.2779 43.3653,149.9571 23.5295,46.6906 55.6675,89.0902 94.7929,124.0351 39.1519,34.9153 84.9233,62.0462 133.9844,80.1406 49.0261,18.1084 101.4199,27.2188 153.8438,26.125 l 0.8632,40.6114 c -57.7302,1.167 -115.1019,-8.7775 -168.7773,-28.6289 -53.7304,-19.7909 -103.8294,-49.5242 -146.9688,-87.9453 -43.0604,-38.5098 -78.2741,-84.9156 -104.0175,-136.0528 -25.811,-51.1031 -42.1841,-107.0027 -47.543,-164.5156 -5.7904,-63.8183 2.1777,-128.073 22.4043,-188.1504 20.1196,-60.1134 52.5358,-116.1659 95.6621,-163.5703 43.2582,-47.2842 96.1102,-84.6972 154.1367,-110.2422 57.9809,-25.6482 121.2464,-39.4772 185.3399,-39.5664 z" />
        <path
           id="path2419"
           style="fill:#00ff00;fill-opacity:0.994783;fill-rule:evenodd;stroke:#000000;stroke-width:4;stroke-linecap:square;stroke-miterlimit:10;stop-color:#000000"
           d="m 1853.7795,1848.4688 c 58.1537,0.03 115.952,12.7037 168.9355,36.1055 52.9987,23.3673 101.314,57.5203 140.5254,100.457 39.1675,42.9768 68.7502,94.2111 87.1621,149.1191 14.364,42.7439 21.8817,87.7967 22.0469,132.9805 h -40.6035 c -0.1692,-40.6531 -6.998,-81.3942 -19.961,-120.0566 -16.7043,-49.7027 -43.4534,-96.1208 -78.6621,-134.67 -35.1647,-38.5891 -78.9432,-69.4782 -126.914,-90.6679 -47.9861,-21.1554 -100.3154,-32.6783 -152.5293,-32.6485 -52.2139,-0.03 -104.5413,11.4932 -152.5274,32.6485 -47.9709,21.1897 -91.7494,52.0787 -126.914,90.6679 -35.2087,38.5492 -61.9579,84.9673 -78.6622,134.67 -16.6686,49.7146 -23.3446,102.8692 -18.5253,154.8496 4.3058,46.9473 17.8945,93.1412 39.1875,135.3965 21.3156,42.244 50.3797,80.6375 85.5703,112.0175 35.1642,31.4096 76.6062,55.9399 120.998,72.3379 44.3767,16.3655 91.7926,24.6416 138.9102,23.6211 l 0.8633,40.6113 c -52.4239,1.0938 -104.8177,-8.0166 -153.8438,-26.125 -49.0611,-18.0944 -94.8326,-45.2252 -133.9844,-80.1406 -39.1254,-34.9449 -71.2634,-77.3445 -94.7929,-124.0351 -23.552,-46.6792 -38.533,-97.727 -43.3653,-149.9571 -5.3049,-57.8993 2.0173,-116.6039 20.4649,-171.5 18.4119,-54.908 47.9946,-106.1423 87.1621,-149.1191 39.2115,-42.9367 87.5267,-77.0897 140.5254,-100.457 52.9836,-23.4018 110.7799,-36.0758 168.9336,-36.1055 z" />
        <path
           id="path2421"
           style="fill:#ffff00;fill-opacity:0.994783;fill-rule:evenodd;stroke:#000000;stroke-width:4;stroke-linecap:square;stroke-miterlimit:10;stop-color:#000000"
           d="m 1853.7795,1889.0879 c 52.2139,-0.03 104.5432,11.4931 152.5293,32.6485 47.9708,21.1897 91.7493,52.0787 126.914,90.6679 35.2087,38.5492 61.9579,84.9673 78.6621,134.67 12.963,38.6625 19.7918,79.4035 19.961,120.0566 h -40.6016 c -0.1733,-36.124 -6.3149,-72.55 -17.8769,-107.1309 -14.9966,-44.4973 -38.9123,-86.1011 -70.1622,-120.2226 -31.118,-34.2418 -70.3597,-61.8669 -113.3027,-80.8789 -42.9887,-18.9089 -89.8488,-29.2788 -136.123,-29.1895 -46.2742,-0.089 -93.1325,10.2806 -136.1211,29.1895 -42.943,19.0121 -82.1849,46.6371 -113.3028,80.8789 -31.2499,34.1215 -55.1656,75.7253 -70.1621,120.2226 -14.8896,44.5332 -20.9196,92.1358 -16.5859,138.1973 3.7793,41.6645 15.9759,83.0044 35.0098,120.8359 19.1017,37.7973 45.0919,72.1868 76.3476,100.002 31.1766,27.9038 68.2893,49.8336 108.0117,64.5352 39.7274,14.6226 82.1672,22.0624 123.9785,21.1152 l 0.8614,40.6113 c -47.1176,1.0205 -94.5335,-7.2556 -138.9102,-23.6211 -44.3918,-16.398 -85.8338,-40.9284 -120.998,-72.3379 -35.1906,-31.3801 -64.2547,-69.7735 -85.5703,-112.0175 -21.293,-42.2553 -34.8817,-88.4492 -39.1875,-135.3965 -4.8193,-51.9804 1.8567,-105.135 18.5253,-154.8496 16.7043,-49.7027 43.4535,-96.1208 78.6622,-134.67 35.1646,-38.5892 78.9431,-69.4782 126.914,-90.6679 47.9861,-21.1554 100.3134,-32.6783 152.5274,-32.6485 z" />
        <path
           id="path2423"
           style="fill:#0000ff;fill-opacity:0.994783;fill-rule:evenodd;stroke:#000000;stroke-width:4;stroke-linecap:square;stroke-miterlimit:10;stop-color:#000000"
           d="m 1853.7795,1929.709 c 46.2742,-0.089 93.1343,10.2806 136.123,29.1895 42.9431,19.0121 82.1848,46.6371 113.3027,80.8789 31.2499,34.1215 55.1656,75.7253 70.1622,120.2226 11.562,34.5809 17.7036,71.0069 17.8769,107.1309 h -40.6035 c -0.178,-31.5961 -5.6302,-63.7092 -15.791,-94.207 -13.2889,-39.292 -34.371,-76.0777 -61.6621,-105.7715 -27.0712,-29.8943 -61.7762,-54.2574 -99.6914,-71.0918 -37.9912,-16.6625 -79.3824,-25.8792 -119.7168,-25.7305 -40.3345,-0.1487 -81.7256,9.068 -119.7168,25.7305 -37.9153,16.8344 -72.6183,41.1975 -99.6895,71.0918 -27.2911,29.6938 -48.3732,66.4795 -61.6621,105.7715 -13.1106,39.3517 -18.4946,81.4042 -14.6465,121.5468 3.2527,36.3816 14.0572,72.8698 30.8321,106.2774 16.8878,33.3507 39.8021,63.734 67.123,87.9844 27.1889,24.3981 59.9742,43.7253 95.0273,56.7304 35.078,12.8796 72.54,19.4853 109.045,18.6114 l 0.8632,40.6113 c -41.8113,0.9472 -84.2511,-6.4926 -123.9785,-21.1152 -39.7225,-14.7016 -76.8351,-36.6314 -108.0117,-64.5352 -31.2557,-27.8152 -57.2459,-62.2046 -76.3476,-100.002 -19.0339,-37.8315 -31.2305,-79.1714 -35.0098,-120.8359 -4.3337,-46.0615 1.6963,-93.6641 16.5859,-138.1973 14.9965,-44.4973 38.9123,-86.1011 70.1621,-120.2226 31.118,-34.2418 70.3597,-61.8668 113.3028,-80.8789 42.9887,-18.9089 89.8469,-29.2788 136.1211,-29.1895 z" />
        <path
           id="path2429"
           style="fill:#ff00ff;fill-opacity:0.994783;fill-rule:evenodd;stroke:#000000;stroke-width:4;stroke-linecap:square;stroke-miterlimit:10;stop-color:#000000"
           d="m 853.7795,1726.6056 c -64.0934,-0.089 -127.3588,-13.9182 -185.3398,-39.5664 -58.0265,-25.545 -110.8805,-62.9581 -154.1387,-110.2422 -43.1262,-47.4044 -75.5425,-103.457 -95.6621,-163.5703 -15.7648,-46.8249 -24.0437,-96.1887 -24.2051,-145.9043 h 40.6114 c 0.1652,45.1838 7.7473,90.2365 22.1113,132.9805 18.4119,54.9079 47.9946,106.1423 87.1621,149.1191 39.2114,42.9366 87.5267,77.0877 140.5254,100.4551 v 0 c 52.9835,23.4017 110.7818,36.0757 168.9355,36.1054 58.1536,-0.03 115.95,-12.7037 168.9336,-36.1054 52.9986,-23.3674 101.3139,-57.5204 140.5254,-100.4571 39.1675,-42.9767 68.7502,-94.2111 87.1621,-149.1191 18.4476,-54.8961 25.7698,-113.6007 20.4649,-171.5 -4.8323,-52.2301 -19.8133,-103.2779 -43.3653,-149.9571 -23.5295,-46.6906 -55.6675,-89.0902 -94.7929,-124.0351 -39.1519,-34.9153 -84.9233,-62.0462 -133.9844,-80.1406 -49.0261,-18.1084 -101.4199,-27.2188 -153.8438,-26.125 l -0.8632,-40.6114 c 57.7302,-1.167 115.1019,8.7775 168.7773,28.6289 53.7304,19.7909 103.8294,49.5242 146.9688,87.9453 43.0604,38.5098 78.2741,84.9156 104.0175,136.0528 25.811,51.1031 42.1841,107.0027 47.543,164.5156 5.7904,63.8183 -2.1777,128.073 -22.4043,188.1504 -20.1196,60.1133 -52.5358,116.1659 -95.6621,163.5703 -43.2582,47.2842 -96.1102,84.6972 -154.1367,110.2422 -57.9809,25.6482 -121.2464,39.4772 -185.3399,39.5664 z" />
        <path
           id="path2431"
           style="fill:#00ff00;fill-opacity:0.994783;fill-rule:evenodd;stroke:#000000;stroke-width:4;stroke-linecap:square;stroke-miterlimit:10;stop-color:#000000"
           d="m 853.7795,1685.9845 c -58.1537,-0.03 -115.952,-12.7037 -168.9355,-36.1055 -52.9987,-23.3673 -101.314,-57.5203 -140.5254,-100.457 -39.1675,-42.9768 -68.7502,-94.2111 -87.1621,-149.1191 -14.364,-42.7439 -21.8817,-87.7967 -22.0469,-132.9805 h 40.6035 c 0.1692,40.6531 6.998,81.3942 19.961,120.0566 16.7043,49.7027 43.4534,96.1208 78.6621,134.67 35.1647,38.5891 78.9432,69.4782 126.914,90.6679 47.9861,21.1554 100.3154,32.6783 152.5293,32.6485 52.2139,0.03 104.5413,-11.4932 152.5274,-32.6485 47.9709,-21.1897 91.7494,-52.0787 126.914,-90.6679 35.2087,-38.5492 61.9579,-84.9673 78.6622,-134.67 16.6686,-49.7146 23.3446,-102.8692 18.5253,-154.8496 -4.3058,-46.9473 -17.8945,-93.1412 -39.1875,-135.3965 -21.3156,-42.244 -50.3797,-80.6375 -85.5703,-112.0175 -35.1642,-31.4096 -76.6062,-55.9399 -120.998,-72.3379 C 940.2759,896.412 892.86,888.1359 845.7424,889.1564 l -0.8633,-40.6113 c 52.4239,-1.0938 104.8177,8.0166 153.8438,26.125 49.0611,18.0944 94.8326,45.2252 133.9844,80.1406 39.1254,34.9449 71.2634,77.3445 94.7929,124.0351 23.552,46.6792 38.533,97.727 43.3653,149.9571 5.3049,57.8993 -2.0173,116.6039 -20.4649,171.5 -18.4119,54.908 -47.9946,106.1423 -87.1621,149.1191 -39.2115,42.9367 -87.5267,77.0897 -140.5254,100.457 -52.9836,23.4018 -110.7799,36.0758 -168.9336,36.1055 z" />
        <path
           id="path2433"
           style="fill:#ffff00;fill-opacity:0.994783;fill-rule:evenodd;stroke:#000000;stroke-width:4;stroke-linecap:square;stroke-miterlimit:10;stop-color:#000000"
           d="m 853.7795,1645.3654 c -52.2139,0.03 -104.5432,-11.4931 -152.5293,-32.6485 -47.9708,-21.1897 -91.7493,-52.0787 -126.914,-90.6679 -35.2087,-38.5492 -61.9579,-84.9673 -78.6621,-134.67 -12.963,-38.6625 -19.7918,-79.4035 -19.961,-120.0566 h 40.6016 c 0.1733,36.124 6.3149,72.55 17.8769,107.1309 14.9966,44.4973 38.9123,86.1011 70.1622,120.2226 31.118,34.2418 70.3597,61.8669 113.3027,80.8789 42.9887,18.9089 89.8488,29.2788 136.123,29.1895 46.2742,0.089 93.1325,-10.2806 136.1211,-29.1895 42.943,-19.0121 82.1849,-46.6371 113.3028,-80.8789 31.2499,-34.1215 55.1656,-75.7253 70.1621,-120.2226 14.8896,-44.5332 20.9196,-92.1358 16.5859,-138.1973 -3.7793,-41.6645 -15.9759,-83.0044 -35.0098,-120.8359 -19.1017,-37.7973 -45.0919,-72.1868 -76.3476,-100.002 -31.1766,-27.9038 -68.2893,-49.8336 -108.0117,-64.5352 -39.7274,-14.6226 -82.1672,-22.0624 -123.9785,-21.1152 l -0.8614,-40.6113 c 47.1176,-1.0205 94.5335,7.2556 138.9102,23.6211 44.3918,16.398 85.8338,40.9284 120.998,72.3379 35.1906,31.3801 64.2547,69.7735 85.5703,112.0175 21.293,42.2553 34.8817,88.4492 39.1875,135.3965 4.8193,51.9804 -1.8567,105.135 -18.5253,154.8496 -16.7043,49.7027 -43.4535,96.1208 -78.6622,134.67 -35.1646,38.5892 -78.9431,69.4782 -126.914,90.6679 -47.9861,21.1554 -100.3134,32.6783 -152.5274,32.6485 z" />
        <path
           id="path2435"
           style="fill:#0000ff;fill-opacity:0.994783;fill-rule:evenodd;stroke:#000000;stroke-width:4;stroke-linecap:square;stroke-miterlimit:10;stop-color:#000000"
           d="m 853.7795,1604.7443 c -46.2742,0.089 -93.1343,-10.2806 -136.123,-29.1895 -42.9431,-19.012 -82.1848,-46.6371 -113.3027,-80.8789 -31.2499,-34.1215 -55.1656,-75.7253 -70.1622,-120.2226 -11.562,-34.5809 -17.7036,-71.0069 -17.8769,-107.1309 h 40.6035 c 0.178,31.5961 5.6302,63.7092 15.791,94.207 13.2889,39.292 34.371,76.0777 61.6621,105.7715 27.0712,29.8943 61.7762,54.2574 99.6914,71.0918 37.9912,16.6625 79.3824,25.8792 119.7168,25.7305 40.3345,0.1487 81.7256,-9.068 119.7168,-25.7305 37.9153,-16.8344 72.6183,-41.1975 99.6895,-71.0918 27.2911,-29.6938 48.3732,-66.4795 61.6621,-105.7715 13.1106,-39.3517 18.4946,-81.4042 14.6465,-121.5468 -3.2527,-36.3816 -14.0572,-72.8698 -30.8321,-106.2774 -16.8878,-33.3507 -39.8021,-63.734 -67.123,-87.9844 -27.1889,-24.3981 -59.9742,-43.7253 -95.0273,-56.7304 -35.078,-12.8796 -72.54,-19.4853 -109.045,-18.6114 l -0.8632,-40.6113 c 41.8113,-0.9472 84.2511,6.4926 123.9785,21.1152 39.7225,14.7016 76.8351,36.6314 108.0117,64.5352 31.2557,27.8152 57.2459,62.2046 76.3476,100.002 19.0339,37.8315 31.2305,79.1714 35.0098,120.8359 4.3337,46.0615 -1.6963,93.6641 -16.5859,138.1973 -14.9965,44.4973 -38.9123,86.1011 -70.1621,120.2226 -31.118,34.2418 -70.3597,61.8668 -113.3028,80.8789 -42.9887,18.9089 -89.8469,29.2788 -136.1211,29.1895 z" />
        <path
           id="path2441"
           style="fill:#ff00ff;fill-opacity:0.994783;fill-rule:evenodd;stroke:#000000;stroke-width:4;stroke-linecap:square;stroke-miterlimit:10;stop-color:#000000"
           d="m 1853.7796,1726.6056 c 64.0934,-0.089 127.3588,-13.9182 185.3398,-39.5664 58.0265,-25.545 110.8805,-62.9581 154.1387,-110.2422 43.1262,-47.4044 75.5425,-103.457 95.6621,-163.5703 15.7648,-46.8249 24.0437,-96.1887 24.2051,-145.9043 h -40.6114 c -0.1652,45.1838 -7.7473,90.2365 -22.1113,132.9805 -18.4119,54.9079 -47.9946,106.1423 -87.1621,149.1191 -39.2114,42.9366 -87.5267,77.0877 -140.5254,100.4551 v 0 c -52.9835,23.4017 -110.7818,36.0757 -168.9355,36.1054 -58.1536,-0.03 -115.95,-12.7037 -168.9336,-36.1054 -52.9986,-23.3674 -101.3139,-57.5204 -140.5254,-100.4571 -39.1675,-42.9767 -68.7502,-94.2111 -87.1621,-149.1191 -18.4476,-54.8961 -25.7698,-113.6007 -20.4649,-171.5 4.8323,-52.2301 19.8133,-103.2779 43.3653,-149.9571 23.5295,-46.6906 55.6675,-89.0902 94.7929,-124.0351 39.1519,-34.9153 84.9233,-62.0462 133.9844,-80.1406 49.0261,-18.1084 101.4199,-27.2188 153.8438,-26.125 l 0.8632,-40.6114 c -57.7302,-1.167 -115.1019,8.7775 -168.7773,28.6289 -53.7304,19.7909 -103.8294,49.5242 -146.9688,87.9453 -43.0604,38.5098 -78.2741,84.9156 -104.0175,136.0528 -25.811,51.1031 -42.1841,107.0027 -47.543,164.5156 -5.7904,63.8183 2.1777,128.073 22.4043,188.1504 20.1196,60.1133 52.5358,116.1659 95.6621,163.5703 43.2582,47.2842 96.1102,84.6972 154.1367,110.2422 57.9809,25.6482 121.2464,39.4772 185.3399,39.5664 z" />
        <path
           id="path2443"
           style="fill:#00ff00;fill-opacity:0.994783;fill-rule:evenodd;stroke:#000000;stroke-width:4;stroke-linecap:square;stroke-miterlimit:10;stop-color:#000000"
           d="m 1853.7796,1685.9845 c 58.1537,-0.03 115.952,-12.7037 168.9355,-36.1055 52.9987,-23.3673 101.314,-57.5203 140.5254,-100.457 39.1675,-42.9768 68.7502,-94.2111 87.1621,-149.1191 14.364,-42.7439 21.8817,-87.7967 22.0469,-132.9805 h -40.6035 c -0.1692,40.6531 -6.998,81.3942 -19.961,120.0566 -16.7043,49.7027 -43.4534,96.1208 -78.6621,134.67 -35.1647,38.5891 -78.9432,69.4782 -126.914,90.6679 -47.9861,21.1554 -100.3154,32.6783 -152.5293,32.6485 -52.2139,0.03 -104.5413,-11.4932 -152.5274,-32.6485 -47.9709,-21.1897 -91.7494,-52.0787 -126.914,-90.6679 -35.2087,-38.5492 -61.9579,-84.9673 -78.6622,-134.67 -16.6686,-49.7146 -23.3446,-102.8692 -18.5253,-154.8496 4.3058,-46.9473 17.8945,-93.1412 39.1875,-135.3965 21.3156,-42.244 50.3797,-80.6375 85.5703,-112.0175 35.1642,-31.4096 76.6062,-55.9399 120.998,-72.3379 44.3767,-16.3655 91.7926,-24.6416 138.9102,-23.6211 l 0.8633,-40.6113 c -52.4239,-1.0938 -104.8177,8.0166 -153.8438,26.125 -49.0611,18.0944 -94.8326,45.2252 -133.9844,80.1406 -39.1254,34.9449 -71.2634,77.3445 -94.7929,124.0351 -23.552,46.6792 -38.533,97.727 -43.3653,149.9571 -5.3049,57.8993 2.0173,116.6039 20.4649,171.5 18.4119,54.908 47.9946,106.1423 87.1621,149.1191 39.2115,42.9367 87.5267,77.0897 140.5254,100.457 52.9836,23.4018 110.7799,36.0758 168.9336,36.1055 z" />
        <path
           id="path2445"
           style="fill:#ffff00;fill-opacity:0.994783;fill-rule:evenodd;stroke:#000000;stroke-width:4;stroke-linecap:square;stroke-miterlimit:10;stop-color:#000000"
           d="m 1853.7796,1645.3654 c 52.2139,0.03 104.5432,-11.4931 152.5293,-32.6485 47.9708,-21.1897 91.7493,-52.0787 126.914,-90.6679 35.2087,-38.5492 61.9579,-84.9673 78.6621,-134.67 12.963,-38.6625 19.7918,-79.4035 19.961,-120.0566 h -40.6016 c -0.1733,36.124 -6.3149,72.55 -17.8769,107.1309 -14.9966,44.4973 -38.9123,86.1011 -70.1622,120.2226 -31.118,34.2418 -70.3597,61.8669 -113.3027,80.8789 -42.9887,18.9089 -89.8488,29.2788 -136.123,29.1895 -46.2742,0.089 -93.1325,-10.2806 -136.1211,-29.1895 -42.943,-19.0121 -82.1849,-46.6371 -113.3028,-80.8789 -31.2499,-34.1215 -55.1656,-75.7253 -70.1621,-120.2226 -14.8896,-44.5332 -20.9196,-92.1358 -16.5859,-138.1973 3.7793,-41.6645 15.9759,-83.0044 35.0098,-120.8359 19.1017,-37.7973 45.0919,-72.1868 76.3476,-100.002 31.1766,-27.9038 68.2893,-49.8336 108.0117,-64.5352 39.7274,-14.6226 82.1672,-22.0624 123.9785,-21.1152 l 0.8614,-40.6113 c -47.1176,-1.0205 -94.5335,7.2556 -138.9102,23.6211 -44.3918,16.398 -85.8338,40.9284 -120.998,72.3379 -35.1906,31.3801 -64.2547,69.7735 -85.5703,112.0175 -21.293,42.2553 -34.8817,88.4492 -39.1875,135.3965 -4.8193,51.9804 1.8567,105.135 18.5253,154.8496 16.7043,49.7027 43.4535,96.1208 78.6622,134.67 35.1646,38.5892 78.9431,69.4782 126.914,90.6679 47.9861,21.1554 100.3134,32.6783 152.5274,32.6485 z" />
        <path
           id="path2447"
           style="fill:#0000ff;fill-opacity:0.994783;fill-rule:evenodd;stroke:#000000;stroke-width:4;stroke-linecap:square;stroke-miterlimit:10;stop-color:#000000"
           d="m 1853.7796,1604.7443 c 46.2742,0.089 93.1343,-10.2806 136.123,-29.1895 42.9431,-19.012 82.1848,-46.6371 113.3027,-80.8789 31.2499,-34.1215 55.1656,-75.7253 70.1622,-120.2226 11.562,-34.5809 17.7036,-71.0069 17.8769,-107.1309 h -40.6035 c -0.178,31.5961 -5.6302,63.7092 -15.791,94.207 -13.2889,39.292 -34.371,76.0777 -61.6621,105.7715 -27.0712,29.8943 -61.7762,54.2574 -99.6914,71.0918 -37.9912,16.6625 -79.3824,25.8792 -119.7168,25.7305 -40.3345,0.1487 -81.7256,-9.068 -119.7168,-25.7305 -37.9153,-16.8344 -72.6183,-41.1975 -99.6895,-71.0918 -27.2911,-29.6938 -48.3732,-66.4795 -61.6621,-105.7715 -13.1106,-39.3517 -18.4946,-81.4042 -14.6465,-121.5468 3.2527,-36.3816 14.0572,-72.8698 30.8321,-106.2774 16.8878,-33.3507 39.8021,-63.734 67.123,-87.9844 27.1889,-24.3981 59.9742,-43.7253 95.0273,-56.7304 35.078,-12.8796 72.54,-19.4853 109.045,-18.6114 l 0.8632,-40.6113 c -41.8113,-0.9472 -84.2511,6.4926 -123.9785,21.1152 -39.7225,14.7016 -76.8351,36.6314 -108.0117,64.5352 -31.2557,27.8152 -57.2459,62.2046 -76.3476,100.002 -19.0339,37.8315 -31.2305,79.1714 -35.0098,120.8359 -4.3337,46.0615 1.6963,93.6641 16.5859,138.1973 14.9965,44.4973 38.9123,86.1011 70.1621,120.2226 31.118,34.2418 70.3597,61.8668 113.3028,80.8789 42.9887,18.9089 89.8469,29.2788 136.1211,29.1895 z" />
      </g>
      <path
         id="path6504"
         style="display:inline;fill:#ff0000;fill-opacity:0.994783;fill-rule:evenodd;stroke:#000000;stroke-width:4;stroke-linecap:square;stroke-miterlimit:10;stop-color:#000000"
         d="m 1405.582,75.699219 0.8633,40.611331 c 57.7302,-1.167 115.102,8.7775 168.7774,28.6289 53.7304,19.7909 103.8293,49.52422 146.9687,87.94532 43.0604,38.5098 78.2742,84.91553 104.0176,136.05273 25.811,51.1031 42.1841,107.00272 47.543,164.51562 5.7904,63.81831 -2.1777,128.0729 -22.4043,188.1504 -20.1196,60.1133 -52.5359,116.16581 -95.6622,163.57031 -43.2582,47.2841 -96.1102,84.69719 -154.1367,110.24219 -57.9809,25.64808 -121.2464,39.47708 -185.3398,39.56638 -64.0934,-0.089 -127.3588,-13.9183 -185.3399,-39.56638 -58.0265,-25.545 -110.8804,-62.95809 -154.1386,-110.24219 -43.1263,-47.4045 -75.5424,-103.45701 -95.66214,-163.57031 -15.7646,-46.8244 -23.96936,-96.1894 -24.13086,-145.9043 h -40.60352 c 0.158,54.2472 9.05335,107.92518 26.21875,158.83008 21.8273,65.3187 57.07516,126.18547 104.16017,178.01758 47.3049,51.6316 104.6957,92.30862 167.75,120.03122 62.9785,27.8946 131.7129,42.8766 201.7461,43.0254 296.8034,-6.836 521.2513,-261.9239 498.0019,-545.87498 -5.8854,-62.7956 -23.6545,-123.55103 -51.7246,-179.07813 -27.9573,-55.58376 -66.2431,-105.99376 -113.2383,-148.06836 -47.127,-41.9268 -101.5552,-74.26065 -159.955,-95.74805 -58.3247,-21.594301 -120.6745,-32.375061 -183.711,-31.134761 z m 1021.2539,0 c -63.0364,-1.2403 -125.3862,9.54046 -183.7109,31.134761 -58.3998,21.4874 -112.8281,53.82125 -159.9551,95.74805 -46.9952,42.0746 -85.281,92.4846 -113.2383,148.06836 -28.0701,55.5271 -45.8392,116.28253 -51.7246,179.07813 -20.4177,296.21318 213.1456,542.97458 498.002,545.87498 70.0332,-0.1488 138.7676,-15.1308 201.7461,-43.0254 63.0543,-27.7226 120.4451,-68.39962 167.75,-120.03122 47.085,-51.8321 82.3328,-112.69888 104.1601,-178.01758 17.1654,-50.9049 26.0608,-104.58288 26.2188,-158.83008 h -40.6035 c -0.1615,49.7149 -8.3663,99.0799 -24.1309,145.9043 -20.1197,60.1133 -52.5358,116.16581 -95.6621,163.57031 -43.2582,47.2841 -96.1122,84.69719 -154.1387,110.24219 -57.981,25.64808 -121.2464,39.47718 -185.3398,39.56638 -64.0934,-0.089 -127.359,-13.9183 -185.3399,-39.56638 -58.0265,-25.545 -110.8785,-62.95809 -154.1367,-110.24219 -43.1263,-47.4045 -75.5425,-103.45701 -95.6621,-163.57031 -20.2266,-60.0775 -28.1947,-124.33209 -22.4043,-188.1504 5.3589,-57.5129 21.732,-113.41252 47.543,-164.51562 25.7434,-51.1372 60.9572,-97.54293 104.0176,-136.05273 43.1394,-38.4211 93.2383,-68.15442 146.9687,-87.94532 53.6754,-19.8514 111.0472,-29.7959 168.7774,-28.6289 z M 1416.209,1075.6074 c -70.0332,0.1487 -138.7676,15.1307 -201.7461,43.0254 -63.0543,27.7226 -120.4451,68.3997 -167.75,120.0313 -47.08501,51.8321 -82.33287,112.6988 -104.16017,178.0175 -17.1654,50.9049 -26.06075,104.5829 -26.21875,158.8301 h 40.60352 c 0.1615,-49.7149 8.36626,-99.08 24.13086,-145.9043 20.11974,-60.1134 52.53584,-116.1658 95.66214,-163.5703 43.2582,-47.284 96.1121,-84.6973 154.1386,-110.2422 57.981,-25.6482 121.2465,-39.4772 185.3399,-39.5664 64.0934,0.089 127.3589,13.9182 185.3398,39.5664 58.0265,25.545 110.8785,62.9581 154.1367,110.2422 43.1263,47.4045 75.5426,103.4569 95.6622,163.5703 20.2266,60.0774 28.1947,124.3321 22.4043,188.1504 -5.3589,57.5129 -21.732,113.4125 -47.543,164.5156 -25.7434,51.1372 -60.9572,97.543 -104.0176,136.0528 -43.1394,38.4211 -93.2383,68.1544 -146.9687,87.9453 -53.6754,19.8514 -111.0472,29.7959 -168.7774,28.6289 l -0.8633,40.6113 c 63.0365,1.2403 125.3863,-9.5404 183.711,-31.1347 58.3998,-21.4874 112.828,-53.8213 159.955,-95.7481 46.9952,-42.0746 85.281,-92.4846 113.2383,-148.0684 28.0701,-55.5271 45.8392,-116.2825 51.7246,-179.0781 20.4179,-296.213 -213.1455,-542.975 -498.0019,-545.875 z m 1000,0 c -296.8037,6.8358 -521.251,261.9239 -498.002,545.875 5.8854,62.7956 23.6545,123.551 51.7246,179.0781 27.9573,55.5838 66.2431,105.9938 113.2383,148.0684 47.127,41.9268 101.5553,74.2607 159.9551,95.7481 58.3247,21.5943 120.6745,32.375 183.7109,31.1347 l -0.8632,-40.6113 c -57.7302,1.167 -115.102,-8.7775 -168.7774,-28.6289 -53.7304,-19.7909 -103.8293,-49.5242 -146.9687,-87.9453 -43.0604,-38.5098 -78.2742,-84.9156 -104.0176,-136.0528 -25.811,-51.1031 -42.1841,-107.0027 -47.543,-164.5156 -5.7904,-63.8183 2.1777,-128.073 22.4043,-188.1504 20.1196,-60.1134 52.5358,-116.1658 95.6621,-163.5703 43.2582,-47.2841 96.1102,-84.6972 154.1367,-110.2422 57.9809,-25.6482 121.2465,-39.4771 185.3399,-39.5664 64.0934,0.089 127.3588,13.9182 185.3398,39.5664 58.0265,25.5449 110.8805,62.9582 154.1387,110.2422 43.1263,47.4045 75.5424,103.4569 95.6621,163.5703 15.7646,46.8243 23.9694,96.1894 24.1309,145.9043 h 40.6035 c -0.158,-54.2472 -9.0534,-107.9252 -26.2188,-158.8301 -21.8273,-65.3187 -57.0751,-126.1854 -104.1601,-178.0175 -47.3049,-51.6316 -104.6957,-92.3087 -167.75,-120.0313 -62.9785,-27.8947 -131.7129,-42.8767 -201.7461,-43.0254 z" />
    </g>
  </g>
</svg>
