<?xml version="1.0" encoding="UTF-8" standalone="no"?>
<!-- Created with Inkscape (http://www.inkscape.org/) -->

<svg
   width="240"
   height="240"
   viewBox="0 0 240 240"
   version="1.1"
   id="svg5"
   inkscape:version="1.1.1 (3bf5ae0d25, 2021-09-20)"
   sodipodi:docname="Patter_file13.svg"
   xmlns:inkscape="http://www.inkscape.org/namespaces/inkscape"
   xmlns:sodipodi="http://sodipodi.sourceforge.net/DTD/sodipodi-0.dtd"
   xmlns="http://www.w3.org/2000/svg"
   xmlns:svg="http://www.w3.org/2000/svg">
  <sodipodi:namedview
     id="namedview7"
     pagecolor="#ededed"
     bordercolor="#666666"
     borderopacity="1.0"
     inkscape:pageshadow="2"
     inkscape:pageopacity="0"
     inkscape:pagecheckerboard="0"
     inkscape:document-units="px"
     showgrid="false"
     units="px"
     scale-x="1"
     inkscape:showpageshadow="false"
     inkscape:snap-page="true"
     inkscape:snap-nodes="true"
     width="240px"
     showguides="true"
     inkscape:guide-bbox="true"
     inkscape:snap-object-midpoints="true"
     inkscape:zoom="3.0239621"
     inkscape:cx="194.61223"
     inkscape:cy="109.62439"
     inkscape:window-width="1920"
     inkscape:window-height="1047"
     inkscape:window-x="0"
     inkscape:window-y="0"
     inkscape:window-maximized="1"
     inkscape:current-layer="layer2"
     inkscape:snap-bbox="true"
     inkscape:bbox-paths="true"
     inkscape:bbox-nodes="true" />
  <defs
     id="defs2" />
  <g
     inkscape:label="Layer_I"
     inkscape:groupmode="layer"
     id="layer1"
     sodipodi:insensitive="true">
    <rect
       style="fill:#ff9955;fill-opacity:0;stroke:none;stroke-width:10"
       id="rect846"
       width="3840"
       height="2160"
       x="0"
       y="0"
       rx="0"
       ry="0"
       sodipodi:insensitive="true"
       inkscape:label="Background" />
  </g>
  <g
     inkscape:groupmode="layer"
     id="layer2"
     inkscape:label="Layer_II">
    <g
       id="g4560">
      <g
         id="g1734"
         style="stroke:#0000b1;stroke-width:0.921939;stroke-opacity:1"
         transform="matrix(0.54233669,0,0,0.5423342,-4.7088909,-4.7521488)">
        <path
           sodipodi:type="star"
           style="display:inline;fill:#e46666;fill-opacity:1;fill-rule:evenodd;stroke:#2b0000;stroke-width:2.51014;stroke-linecap:square;stroke-linejoin:round;stroke-miterlimit:0;stroke-opacity:1;paint-order:stroke fill markers;stop-color:#000000"
           id="path1581"
           inkscape:flatsided="false"
           sodipodi:sides="6"
           sodipodi:cx="119.93751"
           sodipodi:cy="110.24323"
           sodipodi:r1="102.64952"
           sodipodi:r2="37.459225"
           sodipodi:arg1="1.5707963"
           sodipodi:arg2="1.5707963"
           inkscape:rounded="0"
           inkscape:randomized="0"
           d="m 119.93751,212.89275 0,-65.19029 L 31.040416,161.568 87.496868,128.97285 31.040413,58.918475 87.496867,91.513621 119.9375,7.5937119 l 1e-5,65.1902961 88.89709,-13.865538 -56.45645,32.59515 56.45645,70.05437 -56.45645,-32.59515 z"
           inkscape:transform-center-y="5.5676832"
           transform="matrix(1.0635102,0.28677043,-0.28656044,1.0643015,23.351566,-32.331258)"
           inkscape:transform-center-x="1.4990641" />
        <path
           sodipodi:type="star"
           style="display:inline;fill:#008080;fill-rule:evenodd;stroke:#0000b1;stroke-width:0.923351;stroke-linecap:square;stroke-miterlimit:0;stroke-opacity:1;stop-color:#000000"
           id="path1425"
           inkscape:flatsided="false"
           sodipodi:sides="6"
           sodipodi:cx="119.93751"
           sodipodi:cy="110.24323"
           sodipodi:r1="102.64952"
           sodipodi:r2="37.459225"
           sodipodi:arg1="1.5707963"
           sodipodi:arg2="1.5707963"
           inkscape:rounded="0"
           inkscape:randomized="0"
           d="m 119.93751,212.89275 0,-65.19029 L 31.040416,161.568 87.496868,128.97285 31.040413,58.918475 87.496867,91.513621 119.9375,7.5937119 l 1e-5,65.1902961 88.89709,-13.865538 -56.45645,32.59515 56.45645,70.05437 -56.45645,-32.59515 z"
           inkscape:transform-center-y="5.6059018"
           transform="matrix(0.96372468,0.2598651,-0.25967346,0.96444675,33.104873,-17.346031)"
           inkscape:transform-center-x="1.5093483" />
        <path
           sodipodi:type="star"
           style="display:inline;fill:#00ffff;fill-rule:evenodd;stroke:#0000b1;stroke-width:1.03877;stroke-linecap:square;stroke-miterlimit:0;stroke-opacity:1;stop-color:#000000"
           id="path1543"
           inkscape:flatsided="false"
           sodipodi:sides="6"
           sodipodi:cx="119.93751"
           sodipodi:cy="110.24323"
           sodipodi:r1="102.64952"
           sodipodi:r2="37.459225"
           sodipodi:arg1="1.5707963"
           sodipodi:arg2="1.5707963"
           inkscape:rounded="0"
           inkscape:randomized="0"
           d="m 119.93751,212.89275 0,-65.19029 L 31.040416,161.568 87.496868,128.97285 31.040413,58.918475 87.496867,91.513621 119.9375,7.5937119 l 1e-5,65.1902961 88.89709,-13.865538 -56.45645,32.59515 56.45645,70.05437 -56.45645,-32.59515 z"
           inkscape:transform-center-y="5.6059018"
           transform="matrix(0.85664416,0.2309912,-0.23082086,0.857286,42.767039,-2.06922)"
           inkscape:transform-center-x="1.5093483" />
        <path
           sodipodi:type="star"
           style="display:inline;fill:#00ff00;fill-rule:evenodd;stroke:#0000b1;stroke-width:1.18717;stroke-linecap:square;stroke-miterlimit:0;stroke-opacity:1;stop-color:#000000"
           id="path1523"
           inkscape:flatsided="false"
           sodipodi:sides="6"
           sodipodi:cx="119.93751"
           sodipodi:cy="110.24323"
           sodipodi:r1="102.64952"
           sodipodi:r2="37.459225"
           sodipodi:arg1="1.5707963"
           sodipodi:arg2="1.5707963"
           inkscape:rounded="0"
           inkscape:randomized="0"
           d="m 119.93751,212.89275 0,-65.19029 L 31.040416,161.568 87.496868,128.97285 31.040413,58.918475 87.496867,91.513621 119.9375,7.5937119 l 1e-5,65.1902961 88.89709,-13.865538 -56.45645,32.59515 56.45645,70.05437 -56.45645,-32.59515 z"
           inkscape:transform-center-y="5.6059018"
           transform="matrix(0.74956364,0.2021173,-0.20196825,0.75012525,52.429205,13.207591)"
           inkscape:transform-center-x="1.5093483" />
        <path
           sodipodi:type="star"
           style="display:inline;fill:#c8ab37;fill-rule:evenodd;stroke:#0000b1;stroke-width:1.38503;stroke-linecap:square;stroke-miterlimit:0;stroke-opacity:1;stop-color:#000000"
           id="path1503"
           inkscape:flatsided="false"
           sodipodi:sides="6"
           sodipodi:cx="119.93751"
           sodipodi:cy="110.24323"
           sodipodi:r1="102.64952"
           sodipodi:r2="37.459225"
           sodipodi:arg1="1.5707963"
           sodipodi:arg2="1.5707963"
           inkscape:rounded="0"
           inkscape:randomized="0"
           d="m 119.93751,212.89275 0,-65.19029 L 31.040416,161.568 87.496868,128.97285 31.040413,58.918475 87.496867,91.513621 119.9375,7.5937119 l 1e-5,65.1902961 88.89709,-13.865538 -56.45645,32.59515 56.45645,70.05437 -56.45645,-32.59515 z"
           inkscape:transform-center-y="5.6059018"
           transform="matrix(0.64248312,0.1732434,-0.17311564,0.6429645,62.091371,28.484402)"
           inkscape:transform-center-x="1.5093483" />
        <path
           sodipodi:type="star"
           style="display:inline;fill:#ffcc00;fill-rule:evenodd;stroke:#0000b1;stroke-width:1.66203;stroke-linecap:square;stroke-miterlimit:0;stroke-opacity:1;stop-color:#000000"
           id="path1483"
           inkscape:flatsided="false"
           sodipodi:sides="6"
           sodipodi:cx="119.93751"
           sodipodi:cy="110.24323"
           sodipodi:r1="102.64952"
           sodipodi:r2="37.459225"
           sodipodi:arg1="1.5707963"
           sodipodi:arg2="1.5707963"
           inkscape:rounded="0"
           inkscape:randomized="0"
           d="m 119.93751,212.89275 0,-65.19029 L 31.040416,161.568 87.496868,128.97285 31.040413,58.918475 87.496867,91.513621 119.9375,7.5937119 l 1e-5,65.1902961 88.89709,-13.865538 -56.45645,32.59515 56.45645,70.05437 -56.45645,-32.59515 z"
           inkscape:transform-center-y="5.6059018"
           transform="matrix(0.5354026,0.1443695,-0.14426304,0.53580375,71.753537,43.761213)"
           inkscape:transform-center-x="1.5093483" />
        <path
           sodipodi:type="star"
           style="display:inline;fill:#916f6f;fill-rule:evenodd;stroke:#0000b1;stroke-width:2.07753;stroke-linecap:square;stroke-miterlimit:0;stroke-opacity:1;stop-color:#000000"
           id="path1445"
           inkscape:flatsided="false"
           sodipodi:sides="6"
           sodipodi:cx="119.93751"
           sodipodi:cy="110.24323"
           sodipodi:r1="102.64952"
           sodipodi:r2="37.459225"
           sodipodi:arg1="1.5707963"
           sodipodi:arg2="1.5707963"
           inkscape:rounded="0"
           inkscape:randomized="0"
           d="m 119.93751,212.89275 0,-65.19029 L 31.040416,161.568 87.496868,128.97285 31.040413,58.918475 87.496867,91.513621 119.9375,7.5937119 l 1e-5,65.1902961 88.89709,-13.865538 -56.45645,32.59515 56.45645,70.05437 -56.45645,-32.59515 z"
           inkscape:transform-center-y="5.6059018"
           transform="matrix(0.42832208,0.1154956,-0.11541043,0.428643,81.415703,59.038025)"
           inkscape:transform-center-x="1.5093483" />
        <path
           sodipodi:type="star"
           style="display:inline;fill:#ff6600;fill-rule:evenodd;stroke:#0000b1;stroke-width:2.77006;stroke-linecap:square;stroke-miterlimit:0;stroke-opacity:1;stop-color:#000000"
           id="path1029"
           inkscape:flatsided="false"
           sodipodi:sides="6"
           sodipodi:cx="119.93751"
           sodipodi:cy="110.24323"
           sodipodi:r1="102.64952"
           sodipodi:r2="37.459225"
           sodipodi:arg1="1.5707963"
           sodipodi:arg2="1.5707963"
           inkscape:rounded="0"
           inkscape:randomized="0"
           d="m 119.93751,212.89275 0,-65.19029 L 31.040416,161.568 87.496868,128.97285 31.040413,58.918475 87.496867,91.513621 119.9375,7.5937119 l 1e-5,65.1902961 88.89709,-13.865538 -56.45645,32.59515 56.45645,70.05437 -56.45645,-32.59515 z"
           inkscape:transform-center-y="5.6059018"
           transform="matrix(0.32124156,0.0866217,-0.08655782,0.32148225,91.07787,74.314836)"
           inkscape:transform-center-x="1.5093483" />
        <path
           sodipodi:type="star"
           style="display:inline;fill:#e9afaf;fill-rule:evenodd;stroke:#0000b1;stroke-width:4.15509;stroke-linecap:square;stroke-miterlimit:0;stroke-opacity:1;stop-color:#000000"
           id="path1387"
           inkscape:flatsided="false"
           sodipodi:sides="6"
           sodipodi:cx="119.93751"
           sodipodi:cy="110.24323"
           sodipodi:r1="102.64952"
           sodipodi:r2="37.459225"
           sodipodi:arg1="1.5707963"
           sodipodi:arg2="1.5707963"
           inkscape:rounded="0"
           inkscape:randomized="0"
           d="m 119.93751,212.89275 0,-65.19029 L 31.040416,161.568 87.496868,128.97285 31.040413,58.918475 87.496867,91.513621 119.9375,7.5937119 l 1e-5,65.1902961 88.89709,-13.865538 -56.45645,32.59515 56.45645,70.05437 -56.45645,-32.59515 z"
           inkscape:transform-center-y="5.6059018"
           transform="matrix(0.21416104,0.0577478,-0.05770521,0.2143215,100.74004,89.591647)"
           inkscape:transform-center-x="1.5093483" />
        <path
           sodipodi:type="star"
           style="fill:#008080;fill-rule:evenodd;stroke:#0000b1;stroke-width:8.31017;stroke-linecap:square;stroke-miterlimit:0;stroke-opacity:1;stop-color:#000000"
           id="path1367"
           inkscape:flatsided="false"
           sodipodi:sides="6"
           sodipodi:cx="119.93751"
           sodipodi:cy="110.24323"
           sodipodi:r1="102.64952"
           sodipodi:r2="37.459225"
           sodipodi:arg1="1.5707963"
           sodipodi:arg2="1.5707963"
           inkscape:rounded="0"
           inkscape:randomized="0"
           d="m 119.93751,212.89275 0,-65.19029 L 31.040416,161.568 87.496868,128.97285 31.040413,58.918475 87.496867,91.513621 119.9375,7.5937119 l 1e-5,65.1902961 88.89709,-13.865538 -56.45645,32.59515 56.45645,70.05437 -56.45645,-32.59515 z"
           inkscape:transform-center-y="5.6059018"
           transform="matrix(0.10708052,0.0288739,-0.02885261,0.10716075,110.4022,104.86846)"
           inkscape:transform-center-x="1.5093483" />
      </g>
      <g
         id="g4420"
         style="stroke:#0000b1;stroke-width:0.921939;stroke-opacity:1"
         transform="matrix(-0.54233669,0,0,-0.5423342,244.70889,124.75217)">
        <path
           sodipodi:type="star"
           style="display:inline;fill:#e46666;fill-opacity:1;fill-rule:evenodd;stroke:#2b0000;stroke-width:2.51014;stroke-linecap:square;stroke-linejoin:round;stroke-miterlimit:0;stroke-opacity:1;paint-order:stroke fill markers;stop-color:#000000"
           id="path4400"
           inkscape:flatsided="false"
           sodipodi:sides="6"
           sodipodi:cx="119.93751"
           sodipodi:cy="110.24323"
           sodipodi:r1="102.64952"
           sodipodi:r2="37.459225"
           sodipodi:arg1="1.5707963"
           sodipodi:arg2="1.5707963"
           inkscape:rounded="0"
           inkscape:randomized="0"
           d="m 119.93751,212.89275 0,-65.19029 L 31.040416,161.568 87.496868,128.97285 31.040413,58.918475 87.496867,91.513621 119.9375,7.5937119 l 1e-5,65.1902961 88.89709,-13.865538 -56.45645,32.59515 56.45645,70.05437 -56.45645,-32.59515 z"
           inkscape:transform-center-y="5.5676832"
           transform="matrix(1.0635102,0.28677043,-0.28656044,1.0643015,23.351566,-32.331258)"
           inkscape:transform-center-x="1.4990641" />
        <path
           sodipodi:type="star"
           style="display:inline;fill:#008080;fill-rule:evenodd;stroke:#0000b1;stroke-width:0.923351;stroke-linecap:square;stroke-miterlimit:0;stroke-opacity:1;stop-color:#000000"
           id="path4402"
           inkscape:flatsided="false"
           sodipodi:sides="6"
           sodipodi:cx="119.93751"
           sodipodi:cy="110.24323"
           sodipodi:r1="102.64952"
           sodipodi:r2="37.459225"
           sodipodi:arg1="1.5707963"
           sodipodi:arg2="1.5707963"
           inkscape:rounded="0"
           inkscape:randomized="0"
           d="m 119.93751,212.89275 0,-65.19029 L 31.040416,161.568 87.496868,128.97285 31.040413,58.918475 87.496867,91.513621 119.9375,7.5937119 l 1e-5,65.1902961 88.89709,-13.865538 -56.45645,32.59515 56.45645,70.05437 -56.45645,-32.59515 z"
           inkscape:transform-center-y="5.6059018"
           transform="matrix(0.96372468,0.2598651,-0.25967346,0.96444675,33.104873,-17.346031)"
           inkscape:transform-center-x="1.5093483" />
        <path
           sodipodi:type="star"
           style="display:inline;fill:#00ffff;fill-rule:evenodd;stroke:#0000b1;stroke-width:1.03877;stroke-linecap:square;stroke-miterlimit:0;stroke-opacity:1;stop-color:#000000"
           id="path4404"
           inkscape:flatsided="false"
           sodipodi:sides="6"
           sodipodi:cx="119.93751"
           sodipodi:cy="110.24323"
           sodipodi:r1="102.64952"
           sodipodi:r2="37.459225"
           sodipodi:arg1="1.5707963"
           sodipodi:arg2="1.5707963"
           inkscape:rounded="0"
           inkscape:randomized="0"
           d="m 119.93751,212.89275 0,-65.19029 L 31.040416,161.568 87.496868,128.97285 31.040413,58.918475 87.496867,91.513621 119.9375,7.5937119 l 1e-5,65.1902961 88.89709,-13.865538 -56.45645,32.59515 56.45645,70.05437 -56.45645,-32.59515 z"
           inkscape:transform-center-y="5.6059018"
           transform="matrix(0.85664416,0.2309912,-0.23082086,0.857286,42.767039,-2.06922)"
           inkscape:transform-center-x="1.5093483" />
        <path
           sodipodi:type="star"
           style="display:inline;fill:#00ff00;fill-rule:evenodd;stroke:#0000b1;stroke-width:1.18717;stroke-linecap:square;stroke-miterlimit:0;stroke-opacity:1;stop-color:#000000"
           id="path4406"
           inkscape:flatsided="false"
           sodipodi:sides="6"
           sodipodi:cx="119.93751"
           sodipodi:cy="110.24323"
           sodipodi:r1="102.64952"
           sodipodi:r2="37.459225"
           sodipodi:arg1="1.5707963"
           sodipodi:arg2="1.5707963"
           inkscape:rounded="0"
           inkscape:randomized="0"
           d="m 119.93751,212.89275 0,-65.19029 L 31.040416,161.568 87.496868,128.97285 31.040413,58.918475 87.496867,91.513621 119.9375,7.5937119 l 1e-5,65.1902961 88.89709,-13.865538 -56.45645,32.59515 56.45645,70.05437 -56.45645,-32.59515 z"
           inkscape:transform-center-y="5.6059018"
           transform="matrix(0.74956364,0.2021173,-0.20196825,0.75012525,52.429205,13.207591)"
           inkscape:transform-center-x="1.5093483" />
        <path
           sodipodi:type="star"
           style="display:inline;fill:#c8ab37;fill-rule:evenodd;stroke:#0000b1;stroke-width:1.38503;stroke-linecap:square;stroke-miterlimit:0;stroke-opacity:1;stop-color:#000000"
           id="path4408"
           inkscape:flatsided="false"
           sodipodi:sides="6"
           sodipodi:cx="119.93751"
           sodipodi:cy="110.24323"
           sodipodi:r1="102.64952"
           sodipodi:r2="37.459225"
           sodipodi:arg1="1.5707963"
           sodipodi:arg2="1.5707963"
           inkscape:rounded="0"
           inkscape:randomized="0"
           d="m 119.93751,212.89275 0,-65.19029 L 31.040416,161.568 87.496868,128.97285 31.040413,58.918475 87.496867,91.513621 119.9375,7.5937119 l 1e-5,65.1902961 88.89709,-13.865538 -56.45645,32.59515 56.45645,70.05437 -56.45645,-32.59515 z"
           inkscape:transform-center-y="5.6059018"
           transform="matrix(0.64248312,0.1732434,-0.17311564,0.6429645,62.091371,28.484402)"
           inkscape:transform-center-x="1.5093483" />
        <path
           sodipodi:type="star"
           style="display:inline;fill:#ffcc00;fill-rule:evenodd;stroke:#0000b1;stroke-width:1.66203;stroke-linecap:square;stroke-miterlimit:0;stroke-opacity:1;stop-color:#000000"
           id="path4410"
           inkscape:flatsided="false"
           sodipodi:sides="6"
           sodipodi:cx="119.93751"
           sodipodi:cy="110.24323"
           sodipodi:r1="102.64952"
           sodipodi:r2="37.459225"
           sodipodi:arg1="1.5707963"
           sodipodi:arg2="1.5707963"
           inkscape:rounded="0"
           inkscape:randomized="0"
           d="m 119.93751,212.89275 0,-65.19029 L 31.040416,161.568 87.496868,128.97285 31.040413,58.918475 87.496867,91.513621 119.9375,7.5937119 l 1e-5,65.1902961 88.89709,-13.865538 -56.45645,32.59515 56.45645,70.05437 -56.45645,-32.59515 z"
           inkscape:transform-center-y="5.6059018"
           transform="matrix(0.5354026,0.1443695,-0.14426304,0.53580375,71.753537,43.761213)"
           inkscape:transform-center-x="1.5093483" />
        <path
           sodipodi:type="star"
           style="display:inline;fill:#916f6f;fill-rule:evenodd;stroke:#0000b1;stroke-width:2.07753;stroke-linecap:square;stroke-miterlimit:0;stroke-opacity:1;stop-color:#000000"
           id="path4412"
           inkscape:flatsided="false"
           sodipodi:sides="6"
           sodipodi:cx="119.93751"
           sodipodi:cy="110.24323"
           sodipodi:r1="102.64952"
           sodipodi:r2="37.459225"
           sodipodi:arg1="1.5707963"
           sodipodi:arg2="1.5707963"
           inkscape:rounded="0"
           inkscape:randomized="0"
           d="m 119.93751,212.89275 0,-65.19029 L 31.040416,161.568 87.496868,128.97285 31.040413,58.918475 87.496867,91.513621 119.9375,7.5937119 l 1e-5,65.1902961 88.89709,-13.865538 -56.45645,32.59515 56.45645,70.05437 -56.45645,-32.59515 z"
           inkscape:transform-center-y="5.6059018"
           transform="matrix(0.42832208,0.1154956,-0.11541043,0.428643,81.415703,59.038025)"
           inkscape:transform-center-x="1.5093483" />
        <path
           sodipodi:type="star"
           style="display:inline;fill:#ff6600;fill-rule:evenodd;stroke:#0000b1;stroke-width:2.77006;stroke-linecap:square;stroke-miterlimit:0;stroke-opacity:1;stop-color:#000000"
           id="path4414"
           inkscape:flatsided="false"
           sodipodi:sides="6"
           sodipodi:cx="119.93751"
           sodipodi:cy="110.24323"
           sodipodi:r1="102.64952"
           sodipodi:r2="37.459225"
           sodipodi:arg1="1.5707963"
           sodipodi:arg2="1.5707963"
           inkscape:rounded="0"
           inkscape:randomized="0"
           d="m 119.93751,212.89275 0,-65.19029 L 31.040416,161.568 87.496868,128.97285 31.040413,58.918475 87.496867,91.513621 119.9375,7.5937119 l 1e-5,65.1902961 88.89709,-13.865538 -56.45645,32.59515 56.45645,70.05437 -56.45645,-32.59515 z"
           inkscape:transform-center-y="5.6059018"
           transform="matrix(0.32124156,0.0866217,-0.08655782,0.32148225,91.07787,74.314836)"
           inkscape:transform-center-x="1.5093483" />
        <path
           sodipodi:type="star"
           style="display:inline;fill:#e9afaf;fill-rule:evenodd;stroke:#0000b1;stroke-width:4.15509;stroke-linecap:square;stroke-miterlimit:0;stroke-opacity:1;stop-color:#000000"
           id="path4416"
           inkscape:flatsided="false"
           sodipodi:sides="6"
           sodipodi:cx="119.93751"
           sodipodi:cy="110.24323"
           sodipodi:r1="102.64952"
           sodipodi:r2="37.459225"
           sodipodi:arg1="1.5707963"
           sodipodi:arg2="1.5707963"
           inkscape:rounded="0"
           inkscape:randomized="0"
           d="m 119.93751,212.89275 0,-65.19029 L 31.040416,161.568 87.496868,128.97285 31.040413,58.918475 87.496867,91.513621 119.9375,7.5937119 l 1e-5,65.1902961 88.89709,-13.865538 -56.45645,32.59515 56.45645,70.05437 -56.45645,-32.59515 z"
           inkscape:transform-center-y="5.6059018"
           transform="matrix(0.21416104,0.0577478,-0.05770521,0.2143215,100.74004,89.591647)"
           inkscape:transform-center-x="1.5093483" />
        <path
           sodipodi:type="star"
           style="fill:#008080;fill-rule:evenodd;stroke:#0000b1;stroke-width:8.31017;stroke-linecap:square;stroke-miterlimit:0;stroke-opacity:1;stop-color:#000000"
           id="path4418"
           inkscape:flatsided="false"
           sodipodi:sides="6"
           sodipodi:cx="119.93751"
           sodipodi:cy="110.24323"
           sodipodi:r1="102.64952"
           sodipodi:r2="37.459225"
           sodipodi:arg1="1.5707963"
           sodipodi:arg2="1.5707963"
           inkscape:rounded="0"
           inkscape:randomized="0"
           d="m 119.93751,212.89275 0,-65.19029 L 31.040416,161.568 87.496868,128.97285 31.040413,58.918475 87.496867,91.513621 119.9375,7.5937119 l 1e-5,65.1902961 88.89709,-13.865538 -56.45645,32.59515 56.45645,70.05437 -56.45645,-32.59515 z"
           inkscape:transform-center-y="5.6059018"
           transform="matrix(0.10708052,0.0288739,-0.02885261,0.10716075,110.4022,104.86846)"
           inkscape:transform-center-x="1.5093483" />
      </g>
      <g
         id="g4442"
         style="stroke:#0000b1;stroke-width:0.921939;stroke-opacity:1"
         transform="matrix(-0.54233669,0,0,-0.5423342,244.70889,244.75215)">
        <path
           sodipodi:type="star"
           style="display:inline;fill:#e46666;fill-opacity:1;fill-rule:evenodd;stroke:#2b0000;stroke-width:2.51014;stroke-linecap:square;stroke-linejoin:round;stroke-miterlimit:0;stroke-opacity:1;paint-order:stroke fill markers;stop-color:#000000"
           id="path4422"
           inkscape:flatsided="false"
           sodipodi:sides="6"
           sodipodi:cx="119.93751"
           sodipodi:cy="110.24323"
           sodipodi:r1="102.64952"
           sodipodi:r2="37.459225"
           sodipodi:arg1="1.5707963"
           sodipodi:arg2="1.5707963"
           inkscape:rounded="0"
           inkscape:randomized="0"
           d="m 119.93751,212.89275 0,-65.19029 L 31.040416,161.568 87.496868,128.97285 31.040413,58.918475 87.496867,91.513621 119.9375,7.5937119 l 1e-5,65.1902961 88.89709,-13.865538 -56.45645,32.59515 56.45645,70.05437 -56.45645,-32.59515 z"
           inkscape:transform-center-y="5.5676832"
           transform="matrix(1.0635102,0.28677043,-0.28656044,1.0643015,23.351566,-32.331258)"
           inkscape:transform-center-x="1.4990641" />
        <path
           sodipodi:type="star"
           style="display:inline;fill:#008080;fill-rule:evenodd;stroke:#0000b1;stroke-width:0.923351;stroke-linecap:square;stroke-miterlimit:0;stroke-opacity:1;stop-color:#000000"
           id="path4424"
           inkscape:flatsided="false"
           sodipodi:sides="6"
           sodipodi:cx="119.93751"
           sodipodi:cy="110.24323"
           sodipodi:r1="102.64952"
           sodipodi:r2="37.459225"
           sodipodi:arg1="1.5707963"
           sodipodi:arg2="1.5707963"
           inkscape:rounded="0"
           inkscape:randomized="0"
           d="m 119.93751,212.89275 0,-65.19029 L 31.040416,161.568 87.496868,128.97285 31.040413,58.918475 87.496867,91.513621 119.9375,7.5937119 l 1e-5,65.1902961 88.89709,-13.865538 -56.45645,32.59515 56.45645,70.05437 -56.45645,-32.59515 z"
           inkscape:transform-center-y="5.6059018"
           transform="matrix(0.96372468,0.2598651,-0.25967346,0.96444675,33.104873,-17.346031)"
           inkscape:transform-center-x="1.5093483" />
        <path
           sodipodi:type="star"
           style="display:inline;fill:#00ffff;fill-rule:evenodd;stroke:#0000b1;stroke-width:1.03877;stroke-linecap:square;stroke-miterlimit:0;stroke-opacity:1;stop-color:#000000"
           id="path4426"
           inkscape:flatsided="false"
           sodipodi:sides="6"
           sodipodi:cx="119.93751"
           sodipodi:cy="110.24323"
           sodipodi:r1="102.64952"
           sodipodi:r2="37.459225"
           sodipodi:arg1="1.5707963"
           sodipodi:arg2="1.5707963"
           inkscape:rounded="0"
           inkscape:randomized="0"
           d="m 119.93751,212.89275 0,-65.19029 L 31.040416,161.568 87.496868,128.97285 31.040413,58.918475 87.496867,91.513621 119.9375,7.5937119 l 1e-5,65.1902961 88.89709,-13.865538 -56.45645,32.59515 56.45645,70.05437 -56.45645,-32.59515 z"
           inkscape:transform-center-y="5.6059018"
           transform="matrix(0.85664416,0.2309912,-0.23082086,0.857286,42.767039,-2.06922)"
           inkscape:transform-center-x="1.5093483" />
        <path
           sodipodi:type="star"
           style="display:inline;fill:#00ff00;fill-rule:evenodd;stroke:#0000b1;stroke-width:1.18717;stroke-linecap:square;stroke-miterlimit:0;stroke-opacity:1;stop-color:#000000"
           id="path4428"
           inkscape:flatsided="false"
           sodipodi:sides="6"
           sodipodi:cx="119.93751"
           sodipodi:cy="110.24323"
           sodipodi:r1="102.64952"
           sodipodi:r2="37.459225"
           sodipodi:arg1="1.5707963"
           sodipodi:arg2="1.5707963"
           inkscape:rounded="0"
           inkscape:randomized="0"
           d="m 119.93751,212.89275 0,-65.19029 L 31.040416,161.568 87.496868,128.97285 31.040413,58.918475 87.496867,91.513621 119.9375,7.5937119 l 1e-5,65.1902961 88.89709,-13.865538 -56.45645,32.59515 56.45645,70.05437 -56.45645,-32.59515 z"
           inkscape:transform-center-y="5.6059018"
           transform="matrix(0.74956364,0.2021173,-0.20196825,0.75012525,52.429205,13.207591)"
           inkscape:transform-center-x="1.5093483" />
        <path
           sodipodi:type="star"
           style="display:inline;fill:#c8ab37;fill-rule:evenodd;stroke:#0000b1;stroke-width:1.38503;stroke-linecap:square;stroke-miterlimit:0;stroke-opacity:1;stop-color:#000000"
           id="path4430"
           inkscape:flatsided="false"
           sodipodi:sides="6"
           sodipodi:cx="119.93751"
           sodipodi:cy="110.24323"
           sodipodi:r1="102.64952"
           sodipodi:r2="37.459225"
           sodipodi:arg1="1.5707963"
           sodipodi:arg2="1.5707963"
           inkscape:rounded="0"
           inkscape:randomized="0"
           d="m 119.93751,212.89275 0,-65.19029 L 31.040416,161.568 87.496868,128.97285 31.040413,58.918475 87.496867,91.513621 119.9375,7.5937119 l 1e-5,65.1902961 88.89709,-13.865538 -56.45645,32.59515 56.45645,70.05437 -56.45645,-32.59515 z"
           inkscape:transform-center-y="5.6059018"
           transform="matrix(0.64248312,0.1732434,-0.17311564,0.6429645,62.091371,28.484402)"
           inkscape:transform-center-x="1.5093483" />
        <path
           sodipodi:type="star"
           style="display:inline;fill:#ffcc00;fill-rule:evenodd;stroke:#0000b1;stroke-width:1.66203;stroke-linecap:square;stroke-miterlimit:0;stroke-opacity:1;stop-color:#000000"
           id="path4432"
           inkscape:flatsided="false"
           sodipodi:sides="6"
           sodipodi:cx="119.93751"
           sodipodi:cy="110.24323"
           sodipodi:r1="102.64952"
           sodipodi:r2="37.459225"
           sodipodi:arg1="1.5707963"
           sodipodi:arg2="1.5707963"
           inkscape:rounded="0"
           inkscape:randomized="0"
           d="m 119.93751,212.89275 0,-65.19029 L 31.040416,161.568 87.496868,128.97285 31.040413,58.918475 87.496867,91.513621 119.9375,7.5937119 l 1e-5,65.1902961 88.89709,-13.865538 -56.45645,32.59515 56.45645,70.05437 -56.45645,-32.59515 z"
           inkscape:transform-center-y="5.6059018"
           transform="matrix(0.5354026,0.1443695,-0.14426304,0.53580375,71.753537,43.761213)"
           inkscape:transform-center-x="1.5093483" />
        <path
           sodipodi:type="star"
           style="display:inline;fill:#916f6f;fill-rule:evenodd;stroke:#0000b1;stroke-width:2.07753;stroke-linecap:square;stroke-miterlimit:0;stroke-opacity:1;stop-color:#000000"
           id="path4434"
           inkscape:flatsided="false"
           sodipodi:sides="6"
           sodipodi:cx="119.93751"
           sodipodi:cy="110.24323"
           sodipodi:r1="102.64952"
           sodipodi:r2="37.459225"
           sodipodi:arg1="1.5707963"
           sodipodi:arg2="1.5707963"
           inkscape:rounded="0"
           inkscape:randomized="0"
           d="m 119.93751,212.89275 0,-65.19029 L 31.040416,161.568 87.496868,128.97285 31.040413,58.918475 87.496867,91.513621 119.9375,7.5937119 l 1e-5,65.1902961 88.89709,-13.865538 -56.45645,32.59515 56.45645,70.05437 -56.45645,-32.59515 z"
           inkscape:transform-center-y="5.6059018"
           transform="matrix(0.42832208,0.1154956,-0.11541043,0.428643,81.415703,59.038025)"
           inkscape:transform-center-x="1.5093483" />
        <path
           sodipodi:type="star"
           style="display:inline;fill:#ff6600;fill-rule:evenodd;stroke:#0000b1;stroke-width:2.77006;stroke-linecap:square;stroke-miterlimit:0;stroke-opacity:1;stop-color:#000000"
           id="path4436"
           inkscape:flatsided="false"
           sodipodi:sides="6"
           sodipodi:cx="119.93751"
           sodipodi:cy="110.24323"
           sodipodi:r1="102.64952"
           sodipodi:r2="37.459225"
           sodipodi:arg1="1.5707963"
           sodipodi:arg2="1.5707963"
           inkscape:rounded="0"
           inkscape:randomized="0"
           d="m 119.93751,212.89275 0,-65.19029 L 31.040416,161.568 87.496868,128.97285 31.040413,58.918475 87.496867,91.513621 119.9375,7.5937119 l 1e-5,65.1902961 88.89709,-13.865538 -56.45645,32.59515 56.45645,70.05437 -56.45645,-32.59515 z"
           inkscape:transform-center-y="5.6059018"
           transform="matrix(0.32124156,0.0866217,-0.08655782,0.32148225,91.07787,74.314836)"
           inkscape:transform-center-x="1.5093483" />
        <path
           sodipodi:type="star"
           style="display:inline;fill:#e9afaf;fill-rule:evenodd;stroke:#0000b1;stroke-width:4.15509;stroke-linecap:square;stroke-miterlimit:0;stroke-opacity:1;stop-color:#000000"
           id="path4438"
           inkscape:flatsided="false"
           sodipodi:sides="6"
           sodipodi:cx="119.93751"
           sodipodi:cy="110.24323"
           sodipodi:r1="102.64952"
           sodipodi:r2="37.459225"
           sodipodi:arg1="1.5707963"
           sodipodi:arg2="1.5707963"
           inkscape:rounded="0"
           inkscape:randomized="0"
           d="m 119.93751,212.89275 0,-65.19029 L 31.040416,161.568 87.496868,128.97285 31.040413,58.918475 87.496867,91.513621 119.9375,7.5937119 l 1e-5,65.1902961 88.89709,-13.865538 -56.45645,32.59515 56.45645,70.05437 -56.45645,-32.59515 z"
           inkscape:transform-center-y="5.6059018"
           transform="matrix(0.21416104,0.0577478,-0.05770521,0.2143215,100.74004,89.591647)"
           inkscape:transform-center-x="1.5093483" />
        <path
           sodipodi:type="star"
           style="fill:#008080;fill-rule:evenodd;stroke:#0000b1;stroke-width:8.31017;stroke-linecap:square;stroke-miterlimit:0;stroke-opacity:1;stop-color:#000000"
           id="path4440"
           inkscape:flatsided="false"
           sodipodi:sides="6"
           sodipodi:cx="119.93751"
           sodipodi:cy="110.24323"
           sodipodi:r1="102.64952"
           sodipodi:r2="37.459225"
           sodipodi:arg1="1.5707963"
           sodipodi:arg2="1.5707963"
           inkscape:rounded="0"
           inkscape:randomized="0"
           d="m 119.93751,212.89275 0,-65.19029 L 31.040416,161.568 87.496868,128.97285 31.040413,58.918475 87.496867,91.513621 119.9375,7.5937119 l 1e-5,65.1902961 88.89709,-13.865538 -56.45645,32.59515 56.45645,70.05437 -56.45645,-32.59515 z"
           inkscape:transform-center-y="5.6059018"
           transform="matrix(0.10708052,0.0288739,-0.02885261,0.10716075,110.4022,104.86846)"
           inkscape:transform-center-x="1.5093483" />
      </g>
      <g
         id="g4464"
         style="stroke:#0000b1;stroke-width:0.921939;stroke-opacity:1"
         transform="matrix(-0.54233669,0,0,-0.5423342,124.70889,244.75219)">
        <path
           sodipodi:type="star"
           style="display:inline;fill:#e46666;fill-opacity:1;fill-rule:evenodd;stroke:#2b0000;stroke-width:2.51014;stroke-linecap:square;stroke-linejoin:round;stroke-miterlimit:0;stroke-opacity:1;paint-order:stroke fill markers;stop-color:#000000"
           id="path4444"
           inkscape:flatsided="false"
           sodipodi:sides="6"
           sodipodi:cx="119.93751"
           sodipodi:cy="110.24323"
           sodipodi:r1="102.64952"
           sodipodi:r2="37.459225"
           sodipodi:arg1="1.5707963"
           sodipodi:arg2="1.5707963"
           inkscape:rounded="0"
           inkscape:randomized="0"
           d="m 119.93751,212.89275 0,-65.19029 L 31.040416,161.568 87.496868,128.97285 31.040413,58.918475 87.496867,91.513621 119.9375,7.5937119 l 1e-5,65.1902961 88.89709,-13.865538 -56.45645,32.59515 56.45645,70.05437 -56.45645,-32.59515 z"
           inkscape:transform-center-y="5.5676832"
           transform="matrix(1.0635102,0.28677043,-0.28656044,1.0643015,23.351566,-32.331258)"
           inkscape:transform-center-x="1.4990641" />
        <path
           sodipodi:type="star"
           style="display:inline;fill:#008080;fill-rule:evenodd;stroke:#0000b1;stroke-width:0.923351;stroke-linecap:square;stroke-miterlimit:0;stroke-opacity:1;stop-color:#000000"
           id="path4446"
           inkscape:flatsided="false"
           sodipodi:sides="6"
           sodipodi:cx="119.93751"
           sodipodi:cy="110.24323"
           sodipodi:r1="102.64952"
           sodipodi:r2="37.459225"
           sodipodi:arg1="1.5707963"
           sodipodi:arg2="1.5707963"
           inkscape:rounded="0"
           inkscape:randomized="0"
           d="m 119.93751,212.89275 0,-65.19029 L 31.040416,161.568 87.496868,128.97285 31.040413,58.918475 87.496867,91.513621 119.9375,7.5937119 l 1e-5,65.1902961 88.89709,-13.865538 -56.45645,32.59515 56.45645,70.05437 -56.45645,-32.59515 z"
           inkscape:transform-center-y="5.6059018"
           transform="matrix(0.96372468,0.2598651,-0.25967346,0.96444675,33.104873,-17.346031)"
           inkscape:transform-center-x="1.5093483" />
        <path
           sodipodi:type="star"
           style="display:inline;fill:#00ffff;fill-rule:evenodd;stroke:#0000b1;stroke-width:1.03877;stroke-linecap:square;stroke-miterlimit:0;stroke-opacity:1;stop-color:#000000"
           id="path4448"
           inkscape:flatsided="false"
           sodipodi:sides="6"
           sodipodi:cx="119.93751"
           sodipodi:cy="110.24323"
           sodipodi:r1="102.64952"
           sodipodi:r2="37.459225"
           sodipodi:arg1="1.5707963"
           sodipodi:arg2="1.5707963"
           inkscape:rounded="0"
           inkscape:randomized="0"
           d="m 119.93751,212.89275 0,-65.19029 L 31.040416,161.568 87.496868,128.97285 31.040413,58.918475 87.496867,91.513621 119.9375,7.5937119 l 1e-5,65.1902961 88.89709,-13.865538 -56.45645,32.59515 56.45645,70.05437 -56.45645,-32.59515 z"
           inkscape:transform-center-y="5.6059018"
           transform="matrix(0.85664416,0.2309912,-0.23082086,0.857286,42.767039,-2.06922)"
           inkscape:transform-center-x="1.5093483" />
        <path
           sodipodi:type="star"
           style="display:inline;fill:#00ff00;fill-rule:evenodd;stroke:#0000b1;stroke-width:1.18717;stroke-linecap:square;stroke-miterlimit:0;stroke-opacity:1;stop-color:#000000"
           id="path4450"
           inkscape:flatsided="false"
           sodipodi:sides="6"
           sodipodi:cx="119.93751"
           sodipodi:cy="110.24323"
           sodipodi:r1="102.64952"
           sodipodi:r2="37.459225"
           sodipodi:arg1="1.5707963"
           sodipodi:arg2="1.5707963"
           inkscape:rounded="0"
           inkscape:randomized="0"
           d="m 119.93751,212.89275 0,-65.19029 L 31.040416,161.568 87.496868,128.97285 31.040413,58.918475 87.496867,91.513621 119.9375,7.5937119 l 1e-5,65.1902961 88.89709,-13.865538 -56.45645,32.59515 56.45645,70.05437 -56.45645,-32.59515 z"
           inkscape:transform-center-y="5.6059018"
           transform="matrix(0.74956364,0.2021173,-0.20196825,0.75012525,52.429205,13.207591)"
           inkscape:transform-center-x="1.5093483" />
        <path
           sodipodi:type="star"
           style="display:inline;fill:#c8ab37;fill-rule:evenodd;stroke:#0000b1;stroke-width:1.38503;stroke-linecap:square;stroke-miterlimit:0;stroke-opacity:1;stop-color:#000000"
           id="path4452"
           inkscape:flatsided="false"
           sodipodi:sides="6"
           sodipodi:cx="119.93751"
           sodipodi:cy="110.24323"
           sodipodi:r1="102.64952"
           sodipodi:r2="37.459225"
           sodipodi:arg1="1.5707963"
           sodipodi:arg2="1.5707963"
           inkscape:rounded="0"
           inkscape:randomized="0"
           d="m 119.93751,212.89275 0,-65.19029 L 31.040416,161.568 87.496868,128.97285 31.040413,58.918475 87.496867,91.513621 119.9375,7.5937119 l 1e-5,65.1902961 88.89709,-13.865538 -56.45645,32.59515 56.45645,70.05437 -56.45645,-32.59515 z"
           inkscape:transform-center-y="5.6059018"
           transform="matrix(0.64248312,0.1732434,-0.17311564,0.6429645,62.091371,28.484402)"
           inkscape:transform-center-x="1.5093483" />
        <path
           sodipodi:type="star"
           style="display:inline;fill:#ffcc00;fill-rule:evenodd;stroke:#0000b1;stroke-width:1.66203;stroke-linecap:square;stroke-miterlimit:0;stroke-opacity:1;stop-color:#000000"
           id="path4454"
           inkscape:flatsided="false"
           sodipodi:sides="6"
           sodipodi:cx="119.93751"
           sodipodi:cy="110.24323"
           sodipodi:r1="102.64952"
           sodipodi:r2="37.459225"
           sodipodi:arg1="1.5707963"
           sodipodi:arg2="1.5707963"
           inkscape:rounded="0"
           inkscape:randomized="0"
           d="m 119.93751,212.89275 0,-65.19029 L 31.040416,161.568 87.496868,128.97285 31.040413,58.918475 87.496867,91.513621 119.9375,7.5937119 l 1e-5,65.1902961 88.89709,-13.865538 -56.45645,32.59515 56.45645,70.05437 -56.45645,-32.59515 z"
           inkscape:transform-center-y="5.6059018"
           transform="matrix(0.5354026,0.1443695,-0.14426304,0.53580375,71.753537,43.761213)"
           inkscape:transform-center-x="1.5093483" />
        <path
           sodipodi:type="star"
           style="display:inline;fill:#916f6f;fill-rule:evenodd;stroke:#0000b1;stroke-width:2.07753;stroke-linecap:square;stroke-miterlimit:0;stroke-opacity:1;stop-color:#000000"
           id="path4456"
           inkscape:flatsided="false"
           sodipodi:sides="6"
           sodipodi:cx="119.93751"
           sodipodi:cy="110.24323"
           sodipodi:r1="102.64952"
           sodipodi:r2="37.459225"
           sodipodi:arg1="1.5707963"
           sodipodi:arg2="1.5707963"
           inkscape:rounded="0"
           inkscape:randomized="0"
           d="m 119.93751,212.89275 0,-65.19029 L 31.040416,161.568 87.496868,128.97285 31.040413,58.918475 87.496867,91.513621 119.9375,7.5937119 l 1e-5,65.1902961 88.89709,-13.865538 -56.45645,32.59515 56.45645,70.05437 -56.45645,-32.59515 z"
           inkscape:transform-center-y="5.6059018"
           transform="matrix(0.42832208,0.1154956,-0.11541043,0.428643,81.415703,59.038025)"
           inkscape:transform-center-x="1.5093483" />
        <path
           sodipodi:type="star"
           style="display:inline;fill:#ff6600;fill-rule:evenodd;stroke:#0000b1;stroke-width:2.77006;stroke-linecap:square;stroke-miterlimit:0;stroke-opacity:1;stop-color:#000000"
           id="path4458"
           inkscape:flatsided="false"
           sodipodi:sides="6"
           sodipodi:cx="119.93751"
           sodipodi:cy="110.24323"
           sodipodi:r1="102.64952"
           sodipodi:r2="37.459225"
           sodipodi:arg1="1.5707963"
           sodipodi:arg2="1.5707963"
           inkscape:rounded="0"
           inkscape:randomized="0"
           d="m 119.93751,212.89275 0,-65.19029 L 31.040416,161.568 87.496868,128.97285 31.040413,58.918475 87.496867,91.513621 119.9375,7.5937119 l 1e-5,65.1902961 88.89709,-13.865538 -56.45645,32.59515 56.45645,70.05437 -56.45645,-32.59515 z"
           inkscape:transform-center-y="5.6059018"
           transform="matrix(0.32124156,0.0866217,-0.08655782,0.32148225,91.07787,74.314836)"
           inkscape:transform-center-x="1.5093483" />
        <path
           sodipodi:type="star"
           style="display:inline;fill:#e9afaf;fill-rule:evenodd;stroke:#0000b1;stroke-width:4.15509;stroke-linecap:square;stroke-miterlimit:0;stroke-opacity:1;stop-color:#000000"
           id="path4460"
           inkscape:flatsided="false"
           sodipodi:sides="6"
           sodipodi:cx="119.93751"
           sodipodi:cy="110.24323"
           sodipodi:r1="102.64952"
           sodipodi:r2="37.459225"
           sodipodi:arg1="1.5707963"
           sodipodi:arg2="1.5707963"
           inkscape:rounded="0"
           inkscape:randomized="0"
           d="m 119.93751,212.89275 0,-65.19029 L 31.040416,161.568 87.496868,128.97285 31.040413,58.918475 87.496867,91.513621 119.9375,7.5937119 l 1e-5,65.1902961 88.89709,-13.865538 -56.45645,32.59515 56.45645,70.05437 -56.45645,-32.59515 z"
           inkscape:transform-center-y="5.6059018"
           transform="matrix(0.21416104,0.0577478,-0.05770521,0.2143215,100.74004,89.591647)"
           inkscape:transform-center-x="1.5093483" />
        <path
           sodipodi:type="star"
           style="fill:#008080;fill-rule:evenodd;stroke:#0000b1;stroke-width:8.31017;stroke-linecap:square;stroke-miterlimit:0;stroke-opacity:1;stop-color:#000000"
           id="path4462"
           inkscape:flatsided="false"
           sodipodi:sides="6"
           sodipodi:cx="119.93751"
           sodipodi:cy="110.24323"
           sodipodi:r1="102.64952"
           sodipodi:r2="37.459225"
           sodipodi:arg1="1.5707963"
           sodipodi:arg2="1.5707963"
           inkscape:rounded="0"
           inkscape:randomized="0"
           d="m 119.93751,212.89275 0,-65.19029 L 31.040416,161.568 87.496868,128.97285 31.040413,58.918475 87.496867,91.513621 119.9375,7.5937119 l 1e-5,65.1902961 88.89709,-13.865538 -56.45645,32.59515 56.45645,70.05437 -56.45645,-32.59515 z"
           inkscape:transform-center-y="5.6059018"
           transform="matrix(0.10708052,0.0288739,-0.02885261,0.10716075,110.4022,104.86846)"
           inkscape:transform-center-x="1.5093483" />
      </g>
    </g>
  </g>
</svg>
