<?xml version="1.0" encoding="UTF-8" standalone="no"?>
<!-- Created with Inkscape (http://www.inkscape.org/) -->

<svg
   width="240"
   height="240"
   viewBox="0 0 240 240"
   version="1.1"
   id="svg5"
   inkscape:version="1.1.1 (3bf5ae0d25, 2021-09-20)"
   sodipodi:docname="Patter_file73.svg"
   xmlns:inkscape="http://www.inkscape.org/namespaces/inkscape"
   xmlns:sodipodi="http://sodipodi.sourceforge.net/DTD/sodipodi-0.dtd"
   xmlns="http://www.w3.org/2000/svg"
   xmlns:svg="http://www.w3.org/2000/svg">
  <sodipodi:namedview
     id="namedview7"
     pagecolor="#ededed"
     bordercolor="#666666"
     borderopacity="1.0"
     inkscape:pageshadow="2"
     inkscape:pageopacity="0"
     inkscape:pagecheckerboard="0"
     inkscape:document-units="px"
     showgrid="false"
     units="px"
     scale-x="1"
     inkscape:showpageshadow="false"
     inkscape:snap-page="true"
     inkscape:snap-nodes="true"
     inkscape:snap-intersection-paths="true"
     inkscape:zoom="3.5458333"
     inkscape:cx="120"
     inkscape:cy="120"
     inkscape:window-width="1920"
     inkscape:window-height="1047"
     inkscape:window-x="0"
     inkscape:window-y="0"
     inkscape:window-maximized="1"
     inkscape:current-layer="g839"
     width="240px"
     inkscape:snap-bbox="true"
     inkscape:bbox-paths="false"
     inkscape:snap-others="false"
     inkscape:snap-smooth-nodes="true"
     inkscape:bbox-nodes="true"
     inkscape:snap-bbox-midpoints="true"
     inkscape:snap-midpoints="true"
     inkscape:object-paths="false"
     inkscape:snap-bbox-edge-midpoints="true" />
  <defs
     id="defs2" />
  <g
     inkscape:label="Layer_I"
     inkscape:groupmode="layer"
     id="layer1"
     sodipodi:insensitive="true">
    <rect
       style="fill:#ff9955;fill-opacity:0;stroke:none;stroke-width:10"
       id="rect846"
       width="3840"
       height="2160"
       x="0"
       y="0"
       rx="0"
       ry="0"
       sodipodi:insensitive="true"
       inkscape:label="Background" />
  </g>
  <g
     inkscape:groupmode="layer"
     id="layer2"
     inkscape:label="Layer_II">
    <g
       id="g839"
       style="display:inline">
      <path
         id="path2322"
         style="display:inline;fill:#9955ff;fill-rule:evenodd;stroke:#00ff66"
         d="m 211.63055,188.5176 c -4.70704,-4.83439 -11.9232,-6.9941 -18.6527,-4.65972 -8.4531,2.93228 -13.43207,12.36756 -10.43259,20.9287 2.69293,7.6862 11.29272,12.21001 19.08221,9.45065 3.24042,-1.14788 5.85869,-3.45521 7.47434,-6.30595 l -3.72059,-3.94433 c -0.85692,2.34482 -2.72749,4.32598 -5.17763,5.24667 -5.01289,1.88371 -10.60253,-1.00755 -12.4227,-5.93721 -2.08963,-5.65941 1.18105,-11.94962 6.75204,-13.97502 6.33809,-2.3043 13.36394,1.36509 15.6033,7.60968 1.34909,3.76199 0.81509,7.73683 -1.03442,11.00021 l 4.31446,4.57686 c 3.42699,-4.99188 4.38035,-11.45588 2.4072,-17.19568 -0.89433,-2.60158 -2.35103,-4.90314 -4.19292,-6.79486 z m -6.24933,15.46935 c 0.65442,-1.79072 0.71931,-3.79341 -0.0111,-5.69829 -1.43651,-3.74662 -5.72833,-5.93892 -9.54732,-4.44013 z m 29.71505,7.99638 c -3.94173,-4.01188 -9.95764,-5.79227 -15.55634,-3.80899 -3.24115,1.14815 -5.85878,3.45708 -7.47434,6.30872 l 3.71921,3.94295 c 0.85692,-2.34482 2.73025,-4.32598 5.18039,-5.24667 5.01289,-1.88371 10.59977,1.00755 12.41994,5.93721 2.08963,5.65942 -1.18105,11.94962 -6.75204,13.97503 -6.33809,2.3043 -13.36393,-1.3651 -15.6033,-7.60969 -1.34882,-3.76125 -0.81282,-7.73582 1.0358,-10.99883 l -4.31446,-4.57686 c -3.42699,4.99188 -4.38173,11.4545 -2.40858,17.1943 3.17985,9.25006 13.48284,14.70241 22.84562,11.45458 8.4531,-2.93228 13.43207,-12.36756 10.43259,-20.92871 -0.75739,-2.16174 -1.98207,-4.07318 -3.52449,-5.64304 z m -19.31147,6.44268 c -0.65442,1.79072 -0.71654,3.79341 0.0138,5.69829 1.43651,3.74662 5.72694,5.9403 9.54594,4.44151 z" />
      <path
         id="path2350"
         style="display:inline;fill:#9955ff;fill-rule:evenodd;stroke:#00ff66"
         d="m 28.369453,188.5176 c 4.70704,-4.83439 11.9232,-6.9941 18.6527,-4.65972 8.4531,2.93228 13.43207,12.36756 10.43259,20.9287 -2.69293,7.6862 -11.29272,12.21001 -19.08221,9.45065 -3.24042,-1.14788 -5.85869,-3.45521 -7.47434,-6.30595 l 3.72059,-3.94433 c 0.85692,2.34482 2.72749,4.32598 5.17763,5.24667 5.01289,1.88371 10.60253,-1.00755 12.4227,-5.93721 2.08963,-5.65941 -1.18105,-11.94962 -6.75204,-13.97502 -6.33809,-2.3043 -13.36394,1.36509 -15.6033,7.60968 -1.34909,3.76199 -0.81509,7.73683 1.03442,11.00021 l -4.31446,4.57686 c -3.42699,-4.99188 -4.38035,-11.45588 -2.4072,-17.19568 0.89433,-2.60158 2.35103,-4.90314 4.19292,-6.79486 z m 6.24933,15.46935 c -0.65442,-1.79072 -0.71931,-3.79341 0.0111,-5.69829 1.43651,-3.74662 5.72833,-5.93892 9.54732,-4.44013 z m -29.7150503,7.99638 c 3.94173,-4.01188 9.9576403,-5.79227 15.5563403,-3.80899 3.24115,1.14815 5.85878,3.45708 7.47434,6.30872 l -3.71921,3.94295 c -0.85692,-2.34482 -2.73025,-4.32598 -5.18039,-5.24667 -5.01289,-1.88371 -10.5997703,1.00755 -12.4199403,5.93721 -2.08963,5.65942 1.18105,11.94962 6.7520403,13.97503 6.33809,2.3043 13.36393,-1.3651 15.6033,-7.60969 1.34882,-3.76125 0.81282,-7.73582 -1.0358,-10.99883 l 4.31446,-4.57686 c 3.42699,4.99188 4.38173,11.4545 2.40858,17.1943 -3.17985,9.25006 -13.48284,14.70241 -22.84562,11.45458 -8.4531003,-2.93228 -13.4320703,-12.36756 -10.4325903,-20.92871 0.75739,-2.16174 1.98207,-4.07318 3.52449,-5.64304 z m 19.3114703,6.44268 c 0.65442,1.79072 0.71654,3.79341 -0.0138,5.69829 -1.43651,3.74662 -5.72694,5.9403 -9.54594,4.44151 z" />
      <path
         id="path2352"
         style="display:inline;fill:#9955ff;fill-rule:evenodd;stroke:#00ff66"
         d="m 209.53547,6.1039451 c 4.70704,-4.834393 11.9232,-6.99410698 18.6527,-4.659724 8.4531,2.93228 13.43207,12.3675549 10.43259,20.9287039 -2.69293,7.686195 -11.29272,12.210002 -19.08221,9.450648 -3.24042,-1.147884 -5.85869,-3.455208 -7.47434,-6.305956 l 3.72059,-3.94433 c 0.85692,2.344823 2.72749,4.325981 5.17763,5.246677 5.01289,1.883711 10.60253,-1.007555 12.4227,-5.937211 2.08963,-5.659417 -1.18105,-11.9496189 -6.75204,-13.9750269 -6.33809,-2.304299 -13.36394,1.365097 -15.6033,7.6096849 -1.34909,3.761988 -0.81509,7.73683 1.03442,11.000206 l -4.31446,4.576859 c -3.42699,-4.991879 -4.38035,-11.455878 -2.4072,-17.195677 0.89433,-2.60158 2.35103,-4.9031349 4.19292,-6.7948539 z m 6.24933,15.4693419 c -0.65442,-1.790721 -0.71931,-3.793411 0.0111,-5.698286 1.43651,-3.746618 5.72833,-5.9389209 9.54732,-4.440134 z m -29.71505,7.996383 c 3.94173,-4.011875 9.95764,-5.792271 15.55634,-3.808985 3.24115,1.148144 5.85878,3.457077 7.47434,6.308719 l -3.71921,3.942949 c -0.85692,-2.344824 -2.73025,-4.325981 -5.18039,-5.246674 -5.01289,-1.883712 -10.59977,1.007555 -12.41994,5.93721 -2.08963,5.659418 1.18105,11.94962 6.75204,13.975027 6.33809,2.3043 13.36393,-1.365096 15.6033,-7.609684 1.34882,-3.761247 0.81282,-7.735817 -1.0358,-10.998828 l 4.31446,-4.57686 c 3.42699,4.991878 4.38173,11.454497 2.40858,17.194296 -3.17985,9.250064 -13.48284,14.702415 -22.84562,11.454577 -8.4531,-2.932278 -13.43207,-12.367554 -10.43259,-20.928703 0.75739,-2.161742 1.98207,-4.073179 3.52449,-5.643044 z m 19.31147,6.442683 c 0.65442,1.790719 0.71654,3.79341 -0.0138,5.698285 -1.43651,3.746618 -5.72694,5.940302 -9.54594,4.441515 z" />
      <path
         id="path918"
         style="display:inline;fill:#9955ff;fill-rule:evenodd;stroke:#00ff66"
         d="m 30.464533,6.1039451 c -4.70704,-4.834393 -11.9232,-6.99410698 -18.6527,-4.659724 -8.4531003,2.93228 -13.4320703,12.3675549 -10.4325903,20.9287039 2.69293,7.686195 11.2927203,12.210002 19.0822103,9.450648 3.24042,-1.147884 5.85869,-3.455208 7.47434,-6.305956 l -3.72059,-3.94433 c -0.85692,2.344823 -2.72749,4.325981 -5.17763,5.246677 -5.01289,1.883711 -10.6025303,-1.007555 -12.4227003,-5.937211 -2.08963,-5.659417 1.18105,-11.9496189 6.7520403,-13.9750269 6.33809,-2.304299 13.36394,1.365097 15.6033,7.6096849 1.34909,3.761988 0.81509,7.73683 -1.03442,11.000206 l 4.31446,4.576859 c 3.42699,-4.991879 4.38035,-11.455878 2.4072,-17.195677 -0.89433,-2.60158 -2.35103,-4.9031349 -4.19292,-6.7948539 z m -6.24933,15.4693419 c 0.65442,-1.790721 0.71931,-3.793411 -0.0111,-5.698286 -1.43651,-3.746618 -5.72833,-5.9389209 -9.54732,-4.440134 z m 29.71505,7.996383 c -3.94173,-4.011875 -9.95764,-5.792271 -15.55634,-3.808985 -3.24115,1.148144 -5.85878,3.457077 -7.47434,6.308719 l 3.71921,3.942949 c 0.85692,-2.344824 2.73025,-4.325981 5.18039,-5.246674 5.01289,-1.883712 10.59977,1.007555 12.41994,5.93721 2.08963,5.659418 -1.18105,11.94962 -6.75204,13.975027 -6.33809,2.3043 -13.36393,-1.365096 -15.6033,-7.609684 -1.34882,-3.761247 -0.81282,-7.735817 1.0358,-10.998828 l -4.31446,-4.57686 c -3.42699,4.991878 -4.38173,11.454497 -2.40858,17.194296 3.17985,9.250064 13.48284,14.702415 22.84562,11.454577 8.4531,-2.932278 13.43207,-12.367554 10.43259,-20.928703 -0.75739,-2.161742 -1.98207,-4.073179 -3.52449,-5.643044 z m -19.31147,6.442683 c -0.65442,1.790719 -0.71654,3.79341 0.0138,5.698285 1.43651,3.746618 5.72694,5.940302 9.54594,4.441515 z" />
      <g
         id="g1600"
         transform="translate(-2.7805436,11.779392)">
        <path
           id="path1580"
           style="display:inline;fill:#9955ff;fill-rule:evenodd;stroke:#00ff66"
           d="m 85.946798,60.715977 c -5.797884,-3.451393 -13.327135,-3.669837 -19.22315,0.326727 -7.406139,5.020188 -9.773426,15.422615 -4.660362,22.915728 4.590504,6.727312 14.068112,8.871185 20.878008,4.189785 2.832911,-1.947453 4.764786,-4.853815 5.587557,-8.025587 l -4.614682,-2.846971 c -0.220836,2.486712 -1.514907,4.884503 -3.643267,6.40797 -4.354539,3.116957 -10.502033,1.770914 -13.536071,-2.519674 -3.483192,-4.925741 -1.951982,-11.848123 2.904968,-15.246395 5.525729,-3.8662 13.261888,-2.14026 17.041162,3.311959 2.276795,3.284631 2.789755,7.262243 1.84789,10.893111 l 5.352026,3.304242 C 95.899102,77.718116 95.146971,71.227625 91.755485,66.194094 90.21829,63.91263 88.21554,62.066521 85.946798,60.715977 Z m -2.032629,16.559682 c 0.168648,-1.89908 -0.287007,-3.850325 -1.485547,-5.501249 -2.357258,-3.247159 -7.070247,-4.253955 -10.371194,-1.817812 z m 30.772151,0.03309 c -4.84577,-2.854979 -11.11749,-3.017678 -16.012109,0.34708 -2.833549,1.947893 -4.76439,4.855644 -5.586842,8.028256 l 4.612992,2.845994 c 0.220836,-2.486713 1.517572,-4.885217 3.645929,-6.408681 4.35455,-3.116958 10.49937,-1.7702 13.53341,2.520387 3.48319,4.925742 1.95198,11.848126 -2.90496,15.246401 -5.52573,3.866204 -13.261887,2.140254 -17.041171,-3.31197 -2.276342,-3.283979 -2.7873,-7.261846 -1.8462,-10.892131 l -5.352026,-3.304243 c -2.018225,5.708754 -1.267785,12.19827 2.123701,17.231804 5.465591,8.111864 16.828696,10.711834 25.031846,5.151394 7.40613,-5.020194 9.77342,-15.422625 4.66036,-22.915735 -1.29109,-1.892055 -2.96875,-3.421391 -4.86493,-4.538556 z m -16.985959,11.22133 c -0.168649,1.899078 0.289682,3.849607 1.488154,5.500549 2.357255,3.247158 7.069265,4.255648 10.370225,1.8195 z" />
        <path
           id="path1582"
           style="display:inline;fill:#9955ff;fill-rule:evenodd;stroke:#00ff66"
           d="m 159.6143,60.715977 c 5.79788,-3.451393 13.32713,-3.669837 19.22314,0.326727 7.40614,5.020188 9.77343,15.422615 4.66037,22.915728 -4.59051,6.727312 -14.06812,8.871185 -20.87801,4.189785 -2.83291,-1.947453 -4.76479,-4.853815 -5.58756,-8.025587 l 4.61469,-2.846971 c 0.22083,2.486712 1.5149,4.884503 3.64326,6.40797 4.35454,3.116957 10.50203,1.770914 13.53607,-2.519674 3.48319,-4.925741 1.95198,-11.848123 -2.90497,-15.246395 -5.52573,-3.8662 -13.26188,-2.14026 -17.04116,3.311959 -2.27679,3.284631 -2.78975,7.262243 -1.84789,10.893111 l -5.35202,3.304242 c -2.01823,-5.708756 -1.2661,-12.199247 2.12539,-17.232778 1.53719,-2.281464 3.53994,-4.127573 5.80869,-5.478117 z m 2.03263,16.559682 c -0.16865,-1.89908 0.287,-3.850325 1.48554,-5.501249 2.35726,-3.247159 7.07025,-4.253955 10.37119,-1.817812 z m -30.77216,0.03309 c 4.84577,-2.854979 11.11749,-3.017678 16.01211,0.34708 2.83355,1.947893 4.76439,4.855644 5.58685,8.028256 l -4.613,2.845994 c -0.22083,-2.486713 -1.51757,-4.885217 -3.64593,-6.408681 -4.35455,-3.116958 -10.49937,-1.7702 -13.53341,2.520387 -3.48319,4.925742 -1.95198,11.848126 2.90496,15.246401 5.52573,3.866204 13.26189,2.140254 17.04118,-3.31197 2.27634,-3.283979 2.7873,-7.261846 1.8462,-10.892131 l 5.35202,-3.304243 c 2.01823,5.708754 1.26779,12.19827 -2.1237,17.231804 -5.46559,8.111864 -16.8287,10.711834 -25.03185,5.151394 -7.40613,-5.020194 -9.77342,-15.422625 -4.66036,-22.915735 1.29109,-1.892055 2.96875,-3.421391 4.86493,-4.538556 z m 16.98596,11.22133 c 0.16865,1.899078 -0.28968,3.849607 -1.48815,5.500549 -2.35726,3.247158 -7.06927,4.255648 -10.37023,1.8195 z" />
        <path
           id="path1584"
           style="display:inline;fill:#9955ff;fill-rule:evenodd;stroke:#00ff66"
           d="m 85.946793,155.72524 c -5.797884,3.45139 -13.327135,3.66984 -19.22315,-0.32673 -7.406139,-5.02019 -9.773426,-15.42261 -4.660362,-22.91573 4.590504,-6.72731 14.068112,-8.87118 20.878008,-4.18978 2.832911,1.94745 4.764786,4.85381 5.587557,8.02559 l -4.614682,2.84697 c -0.220836,-2.48671 -1.514907,-4.88451 -3.643267,-6.40797 -4.354539,-3.11696 -10.502033,-1.77092 -13.536071,2.51967 -3.483192,4.92574 -1.951982,11.84812 2.904968,15.2464 5.525729,3.8662 13.261888,2.14026 17.041162,-3.31196 2.276795,-3.28463 2.789755,-7.26225 1.84789,-10.89311 l 5.352026,-3.30425 c 2.018225,5.70876 1.266094,12.19925 -2.125392,17.23278 -1.537195,2.28147 -3.539945,4.12758 -5.808687,5.47812 z m -2.032629,-16.55968 c 0.168648,1.89908 -0.287007,3.85032 -1.485547,5.50125 -2.357258,3.24716 -7.070247,4.25395 -10.371194,1.81781 z m 30.772156,-0.0331 c -4.84577,2.85498 -11.11749,3.01768 -16.012114,-0.34708 -2.833549,-1.9479 -4.76439,-4.85565 -5.586842,-8.02826 l 4.612992,-2.84599 c 0.220836,2.48671 1.517572,4.88521 3.645934,6.40868 4.35455,3.11696 10.49937,1.7702 13.53341,-2.52039 3.48319,-4.92574 1.95198,-11.84812 -2.90496,-15.2464 -5.52573,-3.8662 -13.261892,-2.14025 -17.041176,3.31197 -2.276342,3.28398 -2.7873,7.26185 -1.8462,10.89213 l -5.352026,3.30424 c -2.018225,-5.70875 -1.267785,-12.19827 2.123701,-17.2318 5.465591,-8.11186 16.828701,-10.71183 25.031851,-5.15139 7.40613,5.02019 9.77342,15.42262 4.66036,22.91573 -1.29109,1.89206 -2.96875,3.42139 -4.86493,4.53856 z M 97.700356,127.91114 c -0.168649,-1.89908 0.289682,-3.84961 1.488154,-5.50055 2.35726,-3.24716 7.06927,-4.25565 10.37023,-1.8195 z" />
        <path
           id="path1586"
           style="display:inline;fill:#9955ff;fill-rule:evenodd;stroke:#00ff66"
           d="m 159.6143,155.72524 c 5.79788,3.45139 13.32713,3.66984 19.22314,-0.32673 7.40614,-5.02019 9.77343,-15.42261 4.66037,-22.91573 -4.59051,-6.72731 -14.06812,-8.87118 -20.87801,-4.18978 -2.83291,1.94745 -4.76479,4.85381 -5.58756,8.02559 l 4.61469,2.84697 c 0.22083,-2.48671 1.5149,-4.88451 3.64326,-6.40797 4.35454,-3.11696 10.50203,-1.77092 13.53607,2.51967 3.48319,4.92574 1.95198,11.84812 -2.90497,15.2464 -5.52573,3.8662 -13.26188,2.14026 -17.04116,-3.31196 -2.27679,-3.28463 -2.78975,-7.26225 -1.84789,-10.89311 l -5.35202,-3.30425 c -2.01823,5.70876 -1.2661,12.19925 2.12539,17.23278 1.53719,2.28147 3.53994,4.12758 5.80869,5.47812 z m 2.03263,-16.55968 c -0.16865,1.89908 0.287,3.85032 1.48554,5.50125 2.35726,3.24716 7.07025,4.25395 10.37119,1.81781 z m -30.77216,-0.0331 c 4.84577,2.85498 11.11749,3.01768 16.01211,-0.34708 2.83355,-1.9479 4.76439,-4.85565 5.58685,-8.02826 l -4.613,-2.84599 c -0.22083,2.48671 -1.51757,4.88521 -3.64593,6.40868 -4.35455,3.11696 -10.49937,1.7702 -13.53341,-2.52039 -3.48319,-4.92574 -1.95198,-11.84812 2.90496,-15.2464 5.52573,-3.8662 13.26189,-2.14025 17.04118,3.31197 2.27634,3.28398 2.7873,7.26185 1.8462,10.89213 l 5.35202,3.30424 c 2.01823,-5.70875 1.26779,-12.19827 -2.1237,-17.2318 -5.46559,-8.11186 -16.8287,-10.71183 -25.03185,-5.15139 -7.40613,5.02019 -9.77342,15.42262 -4.66036,22.91573 1.29109,1.89206 2.96875,3.42139 4.86493,4.53856 z m 16.98596,-11.22133 c 0.16865,-1.89908 -0.28968,-3.84961 -1.48815,-5.50055 -2.35726,-3.24716 -7.06927,-4.25565 -10.37023,-1.8195 z" />
      </g>
      <path
         id="path1588"
         style="display:inline;fill:#9955ff;fill-rule:evenodd;stroke:#00ff66"
         d="m 75.774965,184.79247 c 1.659222,-6.54023 6.82874,-12.01867 13.823843,-13.36178 8.786745,-1.68713 17.816292,3.99458 19.499242,12.90849 1.51095,8.00291 -3.67478,16.22054 -11.800347,17.7256 -3.38022,0.62612 -6.80138,-0.063 -9.625945,-1.72394 l 1.24996,-5.27619 c 1.914525,1.60222 4.525065,2.38267 7.107295,1.95494 5.283137,-0.8751 8.678277,-6.17383 7.789767,-11.35312 -1.02004,-5.94601 -6.997627,-9.75815 -12.834947,-8.72671 -6.641101,1.17347 -10.890966,7.86417 -9.708013,14.39183 0.712648,3.93252 3.162526,7.10783 6.395938,9.00925 l -1.448001,6.12091 c -5.463801,-2.6096 -9.521435,-7.73091 -10.682537,-13.6883 -0.526277,-2.7002 -0.415518,-5.42176 0.233745,-7.98098 z m 13.146753,10.27218 c -1.4621,-1.2236 -2.519645,-2.92553 -2.839531,-4.94041 -0.62926,-3.96292 1.991411,-8.00742 6.048156,-8.61892 z m -21.735798,21.7826 c 1.407698,-5.44526 5.727435,-9.99508 11.567691,-11.07685 3.380994,-0.62625 6.802393,0.0645 9.627327,1.72634 l -1.24945,5.2743 c -1.914528,-1.60222 -4.527459,-2.38129 -7.109688,-1.95356 -5.283145,0.87511 -8.675896,6.17245 -7.787379,11.35175 1.020037,5.94601 6.997629,9.75815 12.834954,8.72671 6.641098,-1.17346 10.890958,-7.86418 9.708008,-14.39184 -0.71251,-3.93174 -3.16398,-7.10582 -6.396445,-9.00736 l 1.448,-6.12091 c 5.463805,2.6096 9.521935,7.72903 10.683042,13.68641 1.8712,9.60071 -4.325277,19.47408 -14.057594,21.34277 -8.78674,1.68712 -17.816295,-3.99459 -19.499244,-12.9085 -0.424951,-2.25082 -0.320067,-4.51851 0.230778,-6.64926 z m 19.945568,-4.07621 c 1.4621,1.2236 2.51724,2.92692 2.837195,4.94176 0.62926,3.96292 -1.989535,8.00792 -6.046276,8.61943 z" />
      <path
         id="path1590"
         style="display:inline;fill:#9955ff;fill-rule:evenodd;stroke:#00ff66"
         d="m 164.22503,184.79247 c -1.65922,-6.54023 -6.82874,-12.01867 -13.82384,-13.36178 -8.78674,-1.68713 -17.81629,3.99458 -19.49924,12.90849 -1.51095,8.00291 3.67478,16.22054 11.80035,17.7256 3.38022,0.62612 6.80138,-0.063 9.62594,-1.72394 l -1.24996,-5.27619 c -1.91452,1.60222 -4.52506,2.38267 -7.10729,1.95494 -5.28314,-0.8751 -8.67828,-6.17383 -7.78977,-11.35312 1.02004,-5.94601 6.99763,-9.75815 12.83495,-8.72671 6.6411,1.17347 10.89096,7.86417 9.70801,14.39183 -0.71265,3.93252 -3.16253,7.10783 -6.39594,9.00925 l 1.448,6.12091 c 5.4638,-2.6096 9.52144,-7.73091 10.68254,-13.6883 0.52628,-2.7002 0.41552,-5.42176 -0.23375,-7.98098 z m -13.14675,10.27218 c 1.4621,-1.2236 2.51965,-2.92553 2.83953,-4.94041 0.62926,-3.96292 -1.99141,-8.00742 -6.04815,-8.61892 z m 21.7358,21.7826 c -1.4077,-5.44526 -5.72744,-9.99508 -11.56769,-11.07685 -3.381,-0.62625 -6.8024,0.0645 -9.62733,1.72634 l 1.24945,5.2743 c 1.91453,-1.60222 4.52746,-2.38129 7.10969,-1.95356 5.28314,0.87511 8.67589,6.17245 7.78738,11.35175 -1.02004,5.94601 -6.99763,9.75815 -12.83496,8.72671 -6.64109,-1.17346 -10.89095,-7.86418 -9.708,-14.39184 0.71251,-3.93174 3.16398,-7.10582 6.39644,-9.00736 l -1.448,-6.12091 c -5.4638,2.6096 -9.52193,7.72903 -10.68304,13.68641 -1.8712,9.60071 4.32528,19.47408 14.05759,21.34277 8.78674,1.68712 17.8163,-3.99459 19.49925,-12.9085 0.42495,-2.25082 0.32006,-4.51851 -0.23078,-6.64926 z m -19.94557,-4.07621 c -1.4621,1.2236 -2.51724,2.92692 -2.83719,4.94176 -0.62926,3.96292 1.98953,8.00792 6.04627,8.61943 z" />
      <path
         id="path1592"
         style="display:inline;fill:#9955ff;fill-rule:evenodd;stroke:#00ff66"
         d="m 75.774968,55.207526 c 1.659222,6.54023 6.82874,12.01867 13.823836,13.36178 8.78675,1.68713 17.816296,-3.99458 19.499246,-12.90849 1.51095,-8.00291 -3.67478,-16.22054 -11.800346,-17.7256 -3.38022,-0.62612 -6.80139,0.063 -9.62595,1.72394 l 1.24996,5.27619 c 1.91452,-1.60222 4.52507,-2.38267 7.1073,-1.95494 5.283136,0.8751 8.678276,6.17383 7.789766,11.35312 -1.02004,5.94601 -6.997626,9.75815 -12.834956,8.72671 -6.641089,-1.17347 -10.890954,-7.86417 -9.708001,-14.39183 0.712648,-3.93252 3.162526,-7.10783 6.395931,-9.00925 l -1.447994,-6.12091 c -5.463801,2.6096 -9.521435,7.73091 -10.682537,13.6883 -0.526277,2.7002 -0.415518,5.42176 0.233745,7.98098 z m 13.146746,-10.27218 c -1.4621,1.2236 -2.519638,2.92553 -2.839524,4.94041 -0.62926,3.96292 1.991404,8.00742 6.048154,8.61892 z m -21.735791,-21.7826 c 1.407698,5.44526 5.727435,9.99508 11.567691,11.07685 3.380994,0.62625 6.802393,-0.0645 9.62732,-1.72634 l -1.24945,-5.2743 c -1.914521,1.60222 -4.527452,2.38129 -7.109681,1.95356 -5.283145,-0.87511 -8.675896,-6.17245 -7.787379,-11.35175 1.020037,-5.94601 6.997629,-9.7581501 12.834954,-8.7267101 6.641096,1.1734601 10.890956,7.8641801 9.708006,14.3918401 -0.71251,3.93174 -3.16398,7.10582 -6.39645,9.00736 l 1.448,6.12091 c 5.46381,-2.6096 9.52194,-7.72903 10.683046,-13.68641 1.8712,-9.60071 -4.325276,-19.4740801 -14.057591,-21.34277 -8.78674,-1.68712 -17.816295,3.9945899 -19.499244,12.9085 -0.424951,2.25082 -0.320067,4.51851 0.230778,6.64926 z m 19.945561,4.07621 c 1.4621,-1.2236 2.51724,-2.92692 2.83719,-4.94176 0.62926,-3.96292 -1.98953,-8.00792 -6.046264,-8.61943 z" />
      <path
         id="path1594"
         style="display:inline;fill:#9955ff;fill-rule:evenodd;stroke:#00ff66"
         d="m 164.22503,55.207526 c -1.65922,6.54023 -6.82874,12.01867 -13.82384,13.36178 -8.78674,1.68713 -17.81629,-3.99458 -19.49924,-12.90849 -1.51095,-8.00291 3.67478,-16.22054 11.80035,-17.7256 3.38022,-0.62612 6.80138,0.063 9.62594,1.72394 l -1.24996,5.27619 c -1.91452,-1.60222 -4.52506,-2.38267 -7.10729,-1.95494 -5.28314,0.8751 -8.67828,6.17383 -7.78977,11.35312 1.02004,5.94601 6.99763,9.75815 12.83495,8.72671 6.6411,-1.17347 10.89096,-7.86417 9.70801,-14.39183 -0.71265,-3.93252 -3.16253,-7.10783 -6.39594,-9.00925 l 1.448,-6.12091 c 5.4638,2.6096 9.52144,7.73091 10.68254,13.6883 0.52628,2.7002 0.41552,5.42176 -0.23375,7.98098 z m -13.14675,-10.27218 c 1.4621,1.2236 2.51965,2.92553 2.83953,4.94041 0.62926,3.96292 -1.99141,8.00742 -6.04815,8.61892 z m 21.7358,-21.7826 c -1.4077,5.44526 -5.72744,9.99508 -11.56769,11.07685 -3.381,0.62625 -6.8024,-0.0645 -9.62733,-1.72634 l 1.24945,-5.2743 c 1.91453,1.60222 4.52746,2.38129 7.10969,1.95356 5.28314,-0.87511 8.67589,-6.17245 7.78738,-11.35175 -1.02004,-5.94601 -6.99763,-9.7581502 -12.83496,-8.7267102 -6.64109,1.1734602 -10.89095,7.8641802 -9.708,14.3918402 0.71251,3.93174 3.16398,7.10582 6.39644,9.00736 l -1.448,6.12091 c -5.4638,-2.6096 -9.52193,-7.72903 -10.68304,-13.68641 -1.8712,-9.60071 4.32528,-19.4740802 14.05759,-21.3427701 8.78674,-1.68712 17.8163,3.9945899 19.49925,12.9085001 0.42495,2.25082 0.32006,4.51851 -0.23078,6.64926 z m -19.94557,4.07621 c -1.4621,-1.2236 -2.51724,-2.92692 -2.83719,-4.94176 -0.62926,-3.96292 1.98953,-8.00792 6.04627,-8.61943 z" />
      <path
         id="path1602"
         style="display:inline;fill:#9955ff;fill-rule:evenodd;stroke:#00ff66"
         d="m 217.46717,129.25099 c -3.29537,-5.88796 -9.70669,-9.84176 -16.81109,-9.32862 -8.924,0.64454 -16.17535,8.46968 -15.49386,17.51543 0.61184,8.12127 7.74775,14.71673 15.98599,14.06745 3.4271,-0.27007 6.55333,-1.82113 8.85176,-4.15656 l -2.57295,-4.77289 c -1.43461,2.04313 -3.7542,3.47264 -6.35915,3.7278 -5.32962,0.5221 -9.98048,-3.71735 -10.46274,-8.95013 -0.55367,-6.0074 4.23359,-11.23677 10.13897,-11.75128 6.71852,-0.58536 12.55526,4.77742 13.1021,11.38883 0.32945,3.98297 -1.21513,7.68417 -3.84623,10.35766 l 2.98286,5.53757 c 4.60221,-3.93482 7.1961,-9.93182 6.77576,-15.98672 -0.19053,-2.74441 -1.00191,-5.34458 -2.29142,-7.64855 z m -10.04015,13.32481 c 1.09559,-1.56033 1.67661,-3.47799 1.46411,-5.50701 -0.41787,-3.99074 -3.99604,-7.21916 -8.07281,-6.75986 z m 26.63293,15.41472 c -2.76907,-4.89537 -8.11923,-8.17211 -14.04044,-7.70546 -3.42788,0.27014 -6.55391,1.82291 -8.85247,4.15925 l 2.57197,4.77119 c 1.4346,-2.04314 3.75687,-3.47194 6.36179,-3.72714 5.32962,-0.5221 9.97782,3.71664 10.46008,8.94943 0.55366,6.00741 -4.2336,11.23677 -10.13897,11.75128 -6.71853,0.58537 -12.55525,-4.77743 -13.1021,-11.38884 -0.32937,-3.98217 1.21705,-7.68259 3.84721,-10.35595 l -2.98286,-5.53758 c -4.60222,3.93481 -7.19707,9.93012 -6.77673,15.98503 0.6774,9.75787 9.21816,17.69105 19.10251,16.97716 8.924,-0.64454 16.17534,-8.46968 15.49385,-17.51543 -0.17208,-2.28411 -0.86031,-4.44739 -1.94386,-6.36296 z m -20.32094,1.22498 c -1.09559,1.56033 -1.67393,3.4787 -1.4615,5.5077 0.41786,3.99075 3.99433,7.22012 8.07112,6.76083 z" />
      <path
         id="path1604"
         style="display:inline;fill:#9955ff;fill-rule:evenodd;stroke:#00ff66"
         d="m 217.46717,110.74901 c -3.29537,5.88796 -9.70669,9.84176 -16.81109,9.32862 -8.924,-0.64454 -16.17535,-8.46968 -15.49386,-17.51543 0.61184,-8.121267 7.74775,-14.716727 15.98599,-14.067447 3.4271,0.27007 6.55333,1.82113 8.85176,4.15656 l -2.57295,4.77289 c -1.43461,-2.04313 -3.7542,-3.47264 -6.35915,-3.7278 -5.32962,-0.5221 -9.98048,3.71735 -10.46274,8.950127 -0.55367,6.0074 4.23359,11.23677 10.13897,11.75128 6.71852,0.58536 12.55526,-4.77742 13.1021,-11.38883 0.32945,-3.982967 -1.21513,-7.684167 -3.84623,-10.357657 l 2.98286,-5.53757 c 4.60221,3.93482 7.1961,9.93182 6.77576,15.986717 -0.19053,2.74441 -1.00191,5.34458 -2.29142,7.64855 z M 207.42702,97.424203 c 1.09559,1.56033 1.67661,3.477987 1.46411,5.507007 -0.41787,3.99074 -3.99604,7.21916 -8.07281,6.75986 z m 26.63293,-15.41472 c -2.76907,4.89537 -8.11923,8.17211 -14.04044,7.70546 -3.42788,-0.27014 -6.55391,-1.82291 -8.85247,-4.15925 l 2.57197,-4.77119 c 1.4346,2.04314 3.75687,3.47194 6.36179,3.72714 5.32962,0.5221 9.97782,-3.71664 10.46008,-8.94943 0.55366,-6.00741 -4.2336,-11.23677 -10.13897,-11.75128 -6.71853,-0.58537 -12.55525,4.77743 -13.1021,11.38884 -0.32937,3.98217 1.21705,7.68259 3.84721,10.35595 l -2.98286,5.53758 c -4.60222,-3.93481 -7.19707,-9.93012 -6.77673,-15.98503 0.6774,-9.75787 9.21816,-17.69105 19.10251,-16.97716 8.924,0.64454 16.17534,8.46968 15.49385,17.51543 -0.17208,2.28411 -0.86031,4.44739 -1.94386,6.36296 z m -20.32094,-1.22498 c -1.09559,-1.56033 -1.67393,-3.4787 -1.4615,-5.5077 0.41786,-3.99075 3.99433,-7.22012 8.07112,-6.76083 z" />
      <path
         id="path1606"
         style="display:inline;fill:#9955ff;fill-rule:evenodd;stroke:#00ff66"
         d="m 22.532828,129.25099 c 3.29537,-5.88796 9.70669,-9.84176 16.81109,-9.32862 8.924,0.64454 16.17535,8.46968 15.49386,17.51543 -0.61184,8.12127 -7.74775,14.71673 -15.98599,14.06745 -3.4271,-0.27007 -6.55333,-1.82113 -8.85176,-4.15656 l 2.57295,-4.77289 c 1.43461,2.04313 3.7542,3.47264 6.35915,3.7278 5.32962,0.5221 9.98048,-3.71735 10.46274,-8.95013 0.55367,-6.0074 -4.23359,-11.23677 -10.13897,-11.75128 -6.71852,-0.58536 -12.55526,4.77742 -13.1021,11.38883 -0.32945,3.98297 1.21513,7.68417 3.84623,10.35766 l -2.98286,5.53757 c -4.60221,-3.93482 -7.1961,-9.93182 -6.77576,-15.98672 0.19053,-2.74441 1.00191,-5.34458 2.29142,-7.64855 z m 10.04015,13.32481 c -1.09559,-1.56033 -1.67661,-3.47799 -1.46411,-5.50701 0.41787,-3.99074 3.99604,-7.21916 8.07281,-6.75986 z M 5.9400478,157.99052 c 2.76907,-4.89537 8.1192302,-8.17211 14.0404402,-7.70546 3.42788,0.27014 6.55391,1.82291 8.85247,4.15925 l -2.57197,4.77119 c -1.4346,-2.04314 -3.75687,-3.47194 -6.36179,-3.72714 -5.32962,-0.5221 -9.9778202,3.71664 -10.4600802,8.94943 -0.55366,6.00741 4.2336002,11.23677 10.1389702,11.75128 6.71853,0.58537 12.55525,-4.77743 13.1021,-11.38884 0.32937,-3.98217 -1.21705,-7.68259 -3.84721,-10.35595 l 2.98286,-5.53758 c 4.60222,3.93481 7.19707,9.93012 6.77673,15.98503 -0.6774,9.75787 -9.21816,17.69105 -19.10251,16.97716 -8.924,-0.64454 -16.1753403,-8.46968 -15.4938503,-17.51543 0.17208,-2.28411 0.8603101,-4.44739 1.9438601,-6.36296 z m 20.3209402,1.22498 c 1.09559,1.56033 1.67393,3.4787 1.4615,5.5077 -0.41786,3.99075 -3.99433,7.22012 -8.07112,6.76083 z" />
      <path
         id="path1608"
         style="display:inline;fill:#9955ff;fill-rule:evenodd;stroke:#00ff66"
         d="m 22.532828,110.74901 c 3.29537,5.88796 9.70669,9.84176 16.81109,9.32862 8.924,-0.64454 16.17535,-8.46968 15.49386,-17.51543 -0.61184,-8.121267 -7.74775,-14.716727 -15.98599,-14.067447 -3.4271,0.27007 -6.55333,1.82113 -8.85176,4.15656 l 2.57295,4.77289 c 1.43461,-2.04313 3.7542,-3.47264 6.35915,-3.7278 5.32962,-0.5221 9.98048,3.71735 10.46274,8.950127 0.55367,6.0074 -4.23359,11.23677 -10.13897,11.75128 -6.71852,0.58536 -12.55526,-4.77742 -13.1021,-11.38883 -0.32945,-3.982967 1.21513,-7.684167 3.84623,-10.357657 l -2.98286,-5.53757 c -4.60221,3.93482 -7.1961,9.93182 -6.77576,15.986717 0.19053,2.74441 1.00191,5.34458 2.29142,7.64855 z m 10.04015,-13.324807 c -1.09559,1.56033 -1.67661,3.477987 -1.46411,5.507007 0.41787,3.99074 3.99604,7.21916 8.07281,6.75986 z M 5.9400477,82.009483 c 2.76907,4.89537 8.1192303,8.17211 14.0404403,7.70546 3.42788,-0.27014 6.55391,-1.82291 8.85247,-4.15925 l -2.57197,-4.77119 c -1.4346,2.04314 -3.75687,3.47194 -6.36179,3.72714 -5.32962,0.5221 -9.9778203,-3.71664 -10.4600803,-8.94943 -0.55366,-6.00741 4.2336003,-11.23677 10.1389703,-11.75128 6.71853,-0.58537 12.55525,4.77743 13.1021,11.38884 0.32937,3.98217 -1.21705,7.68259 -3.84721,10.35595 l 2.98286,5.53758 c 4.60222,-3.93481 7.19707,-9.93012 6.77673,-15.98503 -0.6774,-9.75787 -9.21816,-17.69105 -19.10251,-16.97716 -8.924,0.64454 -16.1753403,8.46968 -15.4938503,17.51543 0.17208,2.28411 0.86031,4.44739 1.94386,6.36296 z m 20.3209403,-1.22498 c 1.09559,-1.56033 1.67393,-3.4787 1.4615,-5.5077 -0.41786,-3.99075 -3.99433,-7.22012 -8.07112,-6.76083 z" />
    </g>
  </g>
</svg>
