<?xml version="1.0" encoding="UTF-8" standalone="no"?>
<!-- Created with Inkscape (http://www.inkscape.org/) -->

<svg
   width="240"
   height="240"
   viewBox="0 0 240 240"
   version="1.1"
   id="svg5"
   inkscape:version="1.1.1 (3bf5ae0d25, 2021-09-20)"
   sodipodi:docname="Patter_file69.svg"
   xmlns:inkscape="http://www.inkscape.org/namespaces/inkscape"
   xmlns:sodipodi="http://sodipodi.sourceforge.net/DTD/sodipodi-0.dtd"
   xmlns="http://www.w3.org/2000/svg"
   xmlns:svg="http://www.w3.org/2000/svg">
  <sodipodi:namedview
     id="namedview7"
     pagecolor="#ededed"
     bordercolor="#666666"
     borderopacity="1.0"
     inkscape:pageshadow="2"
     inkscape:pageopacity="0"
     inkscape:pagecheckerboard="0"
     inkscape:document-units="px"
     showgrid="false"
     units="px"
     scale-x="1"
     inkscape:showpageshadow="false"
     inkscape:snap-page="true"
     inkscape:snap-nodes="true"
     width="240px"
     inkscape:zoom="2.3949981"
     inkscape:cx="432.77696"
     inkscape:cy="122.12953"
     inkscape:window-width="1920"
     inkscape:window-height="1047"
     inkscape:window-x="0"
     inkscape:window-y="0"
     inkscape:window-maximized="1"
     inkscape:current-layer="layer2" />
  <defs
     id="defs2">
    <inkscape:path-effect
       effect="copy_rotate"
       starting_point="0,0"
       origin="77.750828,105.12254"
       id="path-effect2660"
       is_visible="true"
       lpeversion="1"
       method="normal"
       num_copies="9"
       starting_angle="0"
       rotation_angle="60"
       gap="-0.01"
       copies_to_360="true"
       mirror_copies="false"
       split_items="false" />
    <inkscape:path-effect
       effect="rough_hatches"
       id="path-effect1395"
       is_visible="true"
       lpeversion="1"
       direction="162.37268,111.36736 , 51.277699,50.430882"
       dist_rdm="75;1"
       growth="0"
       do_bend="true"
       bender="55.807478,202.69773 , 162.56043,-102.65639"
       bottom_edge_variation="19.53041;1"
       top_edge_variation="19.53041;1"
       bottom_tgt_variation="0;1"
       top_tgt_variation="0;1"
       scale_bf="1"
       scale_bb="1"
       scale_tf="1"
       scale_tb="1"
       top_smth_variation="0;1"
       bottom_smth_variation="0;1"
       fat_output="true"
       stroke_width_top="1"
       stroke_width_bottom="1"
       front_thickness="1"
       back_thickness="0.25" />
    <inkscape:path-effect
       effect="dashed_stroke"
       id="path-effect1336"
       is_visible="true"
       lpeversion="1"
       numberdashes="2"
       holefactor="0"
       splitsegments="true"
       halfextreme="true"
       unifysegment="true"
       message="Добавить &lt;b&gt;«Заливку между многими LPE»&lt;/b&gt; для заливки." />
    <inkscape:path-effect
       effect="interpolate"
       id="path-effect1219"
       is_visible="true"
       lpeversion="1"
       trajectory="M 0,0 V 0"
       equidistant_spacing="true"
       steps="5" />
    <inkscape:path-effect
       effect="interpolate"
       id="path-effect950"
       is_visible="true"
       lpeversion="1"
       trajectory="#path1129"
       equidistant_spacing="true"
       steps="6" />
  </defs>
  <g
     inkscape:label="Layer_I"
     inkscape:groupmode="layer"
     id="layer1"
     sodipodi:insensitive="true">
    <rect
       style="fill:#ff9955;fill-opacity:0;stroke:none;stroke-width:10"
       id="rect846"
       width="3840"
       height="2160"
       x="0"
       y="0"
       rx="0"
       ry="0"
       sodipodi:insensitive="true"
       inkscape:label="Background" />
  </g>
  <g
     inkscape:groupmode="layer"
     id="layer2"
     inkscape:label="Layer_II">
    <path
       id="rect845"
       style="display:inline;fill:none;fill-rule:evenodd;stroke:#ff6600;stroke-width:6;stop-color:#000000"
       d="m 222.33788,215.02739 c 0,0 2.7429,-2.34495 2.75521,-13.35127 0.006,-5.69478 -7.35485,-1.48459 -16.60841,4.23798 -9.25356,5.72258 -20.41747,12.96891 -28.32215,13.53947 -16.32695,1.17846 40.63517,-54.02533 40.71345,-68.30472 0.0406,-7.40165 -23.15395,11.64086 -46.83363,32.46748 -23.73815,20.87805 -48.33694,43.85375 -50.49629,44.00664 -2.39897,0.16986 22.7713,-25.42953 48.05594,-51.97073 25.38156,-26.64292 50.66536,-54.01696 50.68557,-58.98335 0.0211,-5.19077 -30.3945,22.38391 -62.94792,51.60992 -32.58018,29.25002 -67.406508,60.24375 -74.322066,60.73649 -7.12968,0.508 31.039666,-40.31392 69.609406,-82.23422 38.82654,-42.19939 77.61781,-85.045065 77.56854,-92.855007 -0.0252,-4.000141 -11.29567,4.403646 -28.40114,19.195465 -17.04972,14.743622 -40.3293,36.209712 -64.15361,58.130742 -23.9903,22.07377 -48.459222,44.54112 -68.298559,61.7863 -19.742161,17.1607 -34.432969,28.73886 -38.326429,28.57733 -7.932519,-0.3291 41.302232,-53.80923 89.038458,-105.31034 48.00439,-51.790428 94.7632,-101.847196 91.29173,-101.873668 -1.84094,-0.01404 -14.85928,12.051421 -33.58378,30.185684 -18.19005,17.616665 -43.79249,42.945483 -67.98903,66.781514 -25.000943,24.62846 -49.310434,48.46813 -68.3994,66.72938 -18.803407,17.98807 -31.36796,29.43269 -31.344784,27.83792 0.04924,-3.38787 46.320009,-51.8601 88.842234,-97.83361 42.8112,-46.285947 82.06744,-90.285739 75.94879,-90.342785 C 170.51599,17.73123 129.69829,57.088537 89.274785,96.335469 48.908523,135.52682 8.8543427,174.6844 8.9215423,171.06993 8.9924204,167.25761 45.31231,128.06234 78.626611,90.989456 112.14769,53.686459 142.84305,18.306529 137.013,18.249903 130.96822,18.191192 99.541202,48.2013 69.041741,76.522079 38.455949,104.92302 9.2171954,131.26681 9.3815335,122.84641 9.5511188,114.15715 30.321942,87.906633 48.596857,64.399736 66.974438,40.760781 83.063159,19.614446 75.863126,19.537843 68.391346,19.458349 51.530917,33.575247 36.529342,46.814108 21.493522,60.08319 8.2781699,72.505431 8.3560985,68.915693 8.4405193,65.026892 20.446698,50.157965 31.617113,36.476101 42.82418,22.749344 53.277299,10.115639 51.02623,10.101895 48.489272,10.086406 40.068199,17.894728 32.248918,25.298012 24.424959,32.705724 17.207694,39.703889 17.226398,37.98197 c 0.04493,-4.137006 18.950394,-24.982594 18.950394,-24.982594 0,0 -19.489035,21.062627 -19.542099,25.626421 -0.02995,2.576374 7.567237,-4.410133 15.600258,-12.040546 8.024744,-7.622552 16.446201,-15.854024 18.204648,-15.842733 2.055287,0.0132 -8.405272,12.549249 -19.56624,26.225751 C 19.748897,50.600037 7.836826,65.472169 7.7447313,69.571936 7.6452968,73.99845 21.227936,61.593394 36.479412,48.100544 51.691247,34.642765 68.549068,20.117264 75.256997,20.190779 82.262874,20.26756 66.159726,41.327973 47.823297,64.922485 29.589006,88.38557 8.9080011,114.64102 8.7278026,123.5294 8.5413077,132.72837 38.115606,106.42274 68.933678,77.793934 99.652619,49.257223 131.07839,18.867972 136.3779,18.921136 142.01909,18.977729 111.30484,54.280373 77.822911,91.541695 44.548945,128.57158 8.3079488,167.77928 8.2306058,171.77642 8.1464876,176.12371 48.551297,136.99109 89.148715,97.58069 129.79415,58.123682 170.59582,18.419627 176.16575,18.473334 c 5.93266,0.0572 -33.34633,43.986205 -76.12076,90.233206 -42.483858,45.93284 -88.681039,94.42032 -88.73555,97.98442 -0.02979,1.94775 12.611472,-9.31215 31.535317,-27.23984 19.128854,-18.12191 43.746773,-42.16916 68.776333,-66.81834 24.82408,-24.446805 49.41532,-48.870753 68.08648,-67.127707 18.65955,-18.245606 31.48718,-30.39195 32.96885,-30.380182 3.21927,0.02557 -43.67093,50.202078 -91.58277,101.889629 -47.743794,51.50625 -96.909228,105.00166 -88.819838,105.34011 4.216004,0.17639 19.057299,-11.29934 38.861765,-28.34863 19.880924,-17.11511 44.358473,-39.4943 68.263163,-61.47532 23.7361,-21.82599 46.9527,-43.302568 63.88264,-58.098693 17.01017,-14.866251 28.18452,-23.439119 28.2047,-19.787731 0.0422,7.637672 -38.848,50.497894 -77.72821,92.749314 -38.62352,41.97246 -76.816219,82.89873 -69.513499,82.38018 7.619695,-0.54105 42.431369,-31.18922 74.857269,-60.27714 32.40627,-29.07032 62.45453,-56.60443 62.43264,-52.08185 -0.0232,4.8016 -25.40091,32.18681 -50.83219,58.87763 -25.33436,26.5891 -50.51919,52.28177 -47.94704,52.10028 2.85646,-0.20156 27.45332,-22.85204 51.0333,-43.56899 23.52968,-20.67275 46.35051,-39.66899 46.30827,-32.91249 -0.0873,13.96365 -57.41129,69.52439 -40.74652,68.32559 8.59107,-0.61801 19.75478,-7.55943 28.83907,-13.11922 9.08428,-5.55978 16.09289,-9.7403 16.08326,-4.65303 -0.0203,10.7023 -1.93455,12.56286 -1.93455,12.56286 z"
       sodipodi:nodetypes="ccccc"
       inkscape:path-effect="#path-effect1395"
       inkscape:original-d="M 14.289332,12.833528 227.14648,14.446411 227.38502,214.66067 10.987265,230.38375 Z" />
  </g>
</svg>
