<?xml version="1.0" encoding="UTF-8" standalone="no"?>
<!-- Created with Inkscape (http://www.inkscape.org/) -->

<svg
   width="240"
   height="240"
   viewBox="0 0 240 240.00001"
   version="1.1"
   id="svg5"
   inkscape:version="1.1 (c4e8f9ed74, 2021-05-24)"
   sodipodi:docname="Lesson_VIII_.svg"
   xmlns:inkscape="http://www.inkscape.org/namespaces/inkscape"
   xmlns:sodipodi="http://sodipodi.sourceforge.net/DTD/sodipodi-0.dtd"
   xmlns="http://www.w3.org/2000/svg"
   xmlns:svg="http://www.w3.org/2000/svg">
  <sodipodi:namedview
     id="namedview7"
     pagecolor="#ffffff"
     bordercolor="#666666"
     borderopacity="1.0"
     inkscape:pageshadow="2"
     inkscape:pageopacity="0.0"
     inkscape:pagecheckerboard="0"
     inkscape:document-units="px"
     showgrid="false"
     units="px"
     inkscape:showpageshadow="false"
     inkscape:object-paths="true"
     inkscape:snap-intersection-paths="true"
     inkscape:snap-smooth-nodes="false"
     inkscape:snap-midpoints="true"
     inkscape:object-nodes="true"
     inkscape:snap-bbox="false"
     inkscape:bbox-paths="true"
     inkscape:bbox-nodes="false"
     inkscape:snap-bbox-midpoints="true"
     inkscape:snap-page="true"
     showguides="true"
     inkscape:guide-bbox="true"
     inkscape:zoom="2.4621721"
     inkscape:cx="154.74142"
     inkscape:cy="147.02465"
     inkscape:window-width="1920"
     inkscape:window-height="1017"
     inkscape:window-x="0"
     inkscape:window-y="0"
     inkscape:window-maximized="1"
     inkscape:current-layer="layer1"
     inkscape:snap-nodes="false"
     inkscape:snap-object-midpoints="true"
     inkscape:snap-center="false">
    <sodipodi:guide
       position="35.000001,205"
       orientation="-1,0"
       id="guide1513"
       inkscape:label=""
       inkscape:locked="false"
       inkscape:color="rgb(0,0,255)" />
    <sodipodi:guide
       position="205,35.000001"
       orientation="-1,0"
       id="guide1515"
       inkscape:label=""
       inkscape:locked="false"
       inkscape:color="rgb(0,0,255)" />
    <sodipodi:guide
       position="205,205"
       orientation="0,1"
       id="guide3230"
       inkscape:label=""
       inkscape:locked="false"
       inkscape:color="rgb(0,0,255)" />
    <sodipodi:guide
       position="35,35.000001"
       orientation="0,1"
       id="guide1184"
       inkscape:label=""
       inkscape:locked="false"
       inkscape:color="rgb(0,0,255)" />
  </sodipodi:namedview>
  <defs
     id="defs2" />
  <g
     inkscape:label="Слой 1"
     inkscape:groupmode="layer"
     id="layer1">
    <path
       id="path892"
       style="fill:#0088aa;stroke-width:2;stroke-linejoin:bevel"
       d="M 167.42961,202.53492 25.062819,119.99897 72.398398,202.39957 72.693218,37.838342 25,120.03244 167.66162,38.007162 72.632816,37.800677 214.99962,120.33661 167.66403,37.936018 167.36921,202.49725 215.06243,120.30314 72.400814,202.32844 Z" />
    <path
       sodipodi:type="spiral"
       style="fill:#2ad4ff;fill-rule:evenodd;stroke:#000000;stroke-width:0.876094"
       id="path3125"
       sodipodi:cx="26.424656"
       sodipodi:cy="24.402483"
       sodipodi:expansion="2"
       sodipodi:revolution="3.9963934"
       sodipodi:radius="23.733826"
       sodipodi:argument="-23.525595"
       sodipodi:t0="0"
       d="m 26.424656,24.402483 c -0.0015,0.0412 -0.08157,0.0061 -0.09282,-0.0034 -0.128925,-0.109061 -0.0025,-0.304042 0.106317,-0.36789 0.327956,-0.192402 0.70504,0.09599 0.821846,0.401643 0.246674,0.645493 -0.286005,1.286519 -0.889353,1.454683 -1.062377,0.296103 -2.049662,-0.567313 -2.266402,-1.569445 -0.341602,-1.579454 0.939838,-2.994899 2.441922,-3.257003 2.197142,-0.383388 4.122426,1.403568 4.426485,3.50678 0.421513,2.915652 -1.958506,5.432347 -4.764023,5.774851 -3.735091,0.455988 -6.924717,-2.604664 -7.302097,-6.21365 -0.486814,-4.655524 3.342047,-8.599569 7.855659,-9.008225 5.67699,-0.513986 10.456927,4.170664 10.893236,9.690052 0.537502,6.799512 -5.090521,12.496805 -11.716828,12.957128 C 17.915493,38.325389 11.219391,31.666411 10.738699,23.832044 10.165149,14.484255 17.942667,6.7078918 27.08623,6.2104861 37.859791,5.6244091 46.797864,14.608051 47.308326,25.161943 c 0.584733,12.08947 -9.354162,22.19109 -21.208565,22.972142"
       transform="matrix(-0.01847032,-1.1415179,1.1410436,-0.01847799,7.643776,65.615131)" />
    <path
       sodipodi:type="spiral"
       style="fill:#2ad4ff;fill-rule:evenodd;stroke:#000000;stroke-width:0.876094"
       id="path1155"
       sodipodi:cx="26.424656"
       sodipodi:cy="24.402483"
       sodipodi:expansion="2"
       sodipodi:revolution="3.9963934"
       sodipodi:radius="23.733826"
       sodipodi:argument="-23.525595"
       sodipodi:t0="0"
       d="m 26.424656,24.402483 c -0.0015,0.0412 -0.08157,0.0061 -0.09282,-0.0034 -0.128925,-0.109061 -0.0025,-0.304042 0.106317,-0.36789 0.327956,-0.192402 0.70504,0.09599 0.821846,0.401643 0.246674,0.645493 -0.286005,1.286519 -0.889353,1.454683 -1.062377,0.296103 -2.049662,-0.567313 -2.266402,-1.569445 -0.341602,-1.579454 0.939838,-2.994899 2.441922,-3.257003 2.197142,-0.383388 4.122426,1.403568 4.426485,3.50678 0.421513,2.915652 -1.958506,5.432347 -4.764023,5.774851 -3.735091,0.455988 -6.924717,-2.604664 -7.302097,-6.21365 -0.486814,-4.655524 3.342047,-8.599569 7.855659,-9.008225 5.67699,-0.513986 10.456927,4.170664 10.893236,9.690052 0.537502,6.799512 -5.090521,12.496805 -11.716828,12.957128 C 17.915493,38.325389 11.219391,31.666411 10.738699,23.832044 10.165149,14.484255 17.942667,6.7078918 27.08623,6.2104861 37.859791,5.6244091 46.797864,14.608051 47.308326,25.161943 c 0.584733,12.08947 -9.354162,22.19109 -21.208565,22.972142"
       transform="matrix(0.01847032,-1.1415179,-1.1410436,-0.01847799,232.35622,65.615131)" />
    <path
       sodipodi:type="spiral"
       style="fill:#2ad4ff;fill-rule:evenodd;stroke:#000000;stroke-width:0.876094"
       id="path1157"
       sodipodi:cx="26.424656"
       sodipodi:cy="24.402483"
       sodipodi:expansion="2"
       sodipodi:revolution="3.9963934"
       sodipodi:radius="23.733826"
       sodipodi:argument="-23.525595"
       sodipodi:t0="0"
       d="m 26.424656,24.402483 c -0.0015,0.0412 -0.08157,0.0061 -0.09282,-0.0034 -0.128925,-0.109061 -0.0025,-0.304042 0.106317,-0.36789 0.327956,-0.192402 0.70504,0.09599 0.821846,0.401643 0.246674,0.645493 -0.286005,1.286519 -0.889353,1.454683 -1.062377,0.296103 -2.049662,-0.567313 -2.266402,-1.569445 -0.341602,-1.579454 0.939838,-2.994899 2.441922,-3.257003 2.197142,-0.383388 4.122426,1.403568 4.426485,3.50678 0.421513,2.915652 -1.958506,5.432347 -4.764023,5.774851 -3.735091,0.455988 -6.924717,-2.604664 -7.302097,-6.21365 -0.486814,-4.655524 3.342047,-8.599569 7.855659,-9.008225 5.67699,-0.513986 10.456927,4.170664 10.893236,9.690052 0.537502,6.799512 -5.090521,12.496805 -11.716828,12.957128 C 17.915493,38.325389 11.219391,31.666411 10.738699,23.832044 10.165149,14.484255 17.942667,6.7078918 27.08623,6.2104861 37.859791,5.6244091 46.797864,14.608051 47.308326,25.161943 c 0.584733,12.08947 -9.354162,22.19109 -21.208565,22.972142"
       transform="matrix(0.01847032,1.1415179,-1.1410436,0.01847799,232.35622,174.38487)" />
    <path
       sodipodi:type="spiral"
       style="fill:#2ad4ff;fill-rule:evenodd;stroke:#000000;stroke-width:0.876094"
       id="path1170"
       sodipodi:cx="26.424656"
       sodipodi:cy="24.402483"
       sodipodi:expansion="2"
       sodipodi:revolution="3.9963934"
       sodipodi:radius="23.733826"
       sodipodi:argument="-23.525595"
       sodipodi:t0="0"
       d="m 26.424656,24.402483 c -0.0015,0.0412 -0.08157,0.0061 -0.09282,-0.0034 -0.128925,-0.109061 -0.0025,-0.304042 0.106317,-0.36789 0.327956,-0.192402 0.70504,0.09599 0.821846,0.401643 0.246674,0.645493 -0.286005,1.286519 -0.889353,1.454683 -1.062377,0.296103 -2.049662,-0.567313 -2.266402,-1.569445 -0.341602,-1.579454 0.939838,-2.994899 2.441922,-3.257003 2.197142,-0.383388 4.122426,1.403568 4.426485,3.50678 0.421513,2.915652 -1.958506,5.432347 -4.764023,5.774851 -3.735091,0.455988 -6.924717,-2.604664 -7.302097,-6.21365 -0.486814,-4.655524 3.342047,-8.599569 7.855659,-9.008225 5.67699,-0.513986 10.456927,4.170664 10.893236,9.690052 0.537502,6.799512 -5.090521,12.496805 -11.716828,12.957128 C 17.915493,38.325389 11.219391,31.666411 10.738699,23.832044 10.165149,14.484255 17.942667,6.7078918 27.08623,6.2104861 37.859791,5.6244091 46.797864,14.608051 47.308326,25.161943 c 0.584733,12.08947 -9.354162,22.19109 -21.208565,22.972142"
       transform="matrix(-0.01847032,1.1415179,1.1410436,0.01847799,7.643776,174.38487)" />
  </g>
</svg>
