<?xml version="1.0" encoding="UTF-8" standalone="no"?>
<!-- Created with Inkscape (http://www.inkscape.org/) -->

<svg
   width="240"
   height="240"
   viewBox="0 0 240 240"
   version="1.1"
   id="svg5"
   inkscape:version="1.1.1 (3bf5ae0d25, 2021-09-20)"
   sodipodi:docname="Patter_file66.svg"
   xmlns:inkscape="http://www.inkscape.org/namespaces/inkscape"
   xmlns:sodipodi="http://sodipodi.sourceforge.net/DTD/sodipodi-0.dtd"
   xmlns="http://www.w3.org/2000/svg"
   xmlns:svg="http://www.w3.org/2000/svg">
  <sodipodi:namedview
     id="namedview7"
     pagecolor="#ededed"
     bordercolor="#666666"
     borderopacity="1.0"
     inkscape:pageshadow="2"
     inkscape:pageopacity="0"
     inkscape:pagecheckerboard="0"
     inkscape:document-units="px"
     showgrid="false"
     units="px"
     scale-x="1"
     inkscape:showpageshadow="false"
     inkscape:snap-page="true"
     inkscape:snap-nodes="true"
     inkscape:snap-center="true"
     inkscape:object-paths="false"
     inkscape:snap-intersection-paths="true"
     inkscape:snap-smooth-nodes="true"
     inkscape:zoom="3.4074761"
     inkscape:cx="122.23123"
     inkscape:cy="121.05734"
     inkscape:window-width="1920"
     inkscape:window-height="1047"
     inkscape:window-x="0"
     inkscape:window-y="0"
     inkscape:window-maximized="1"
     inkscape:current-layer="layer2"
     inkscape:snap-object-midpoints="true"
     inkscape:snap-others="false"
     inkscape:object-nodes="true"
     inkscape:snap-bbox="true"
     inkscape:bbox-paths="true"
     inkscape:bbox-nodes="true"
     inkscape:snap-bbox-edge-midpoints="true"
     inkscape:snap-bbox-midpoints="false"
     inkscape:snap-midpoints="false"
     width="240px" />
  <defs
     id="defs2">
    <marker
       style="overflow:visible"
       id="DotM"
       refX="0"
       refY="0"
       orient="auto"
       inkscape:stockid="DotM"
       inkscape:isstock="true">
      <path
         transform="matrix(0.4,0,0,0.4,2.96,0.4)"
         style="fill:context-stroke;fill-rule:evenodd;stroke:context-stroke;stroke-width:1pt"
         d="m -2.5,-1 c 0,2.76 -2.24,5 -5,5 -2.76,0 -5,-2.24 -5,-5 0,-2.76 2.24,-5 5,-5 2.76,0 5,2.24 5,5 z"
         id="path4947" />
    </marker>
    <marker
       style="overflow:visible"
       id="DotS"
       refX="0"
       refY="0"
       orient="auto"
       inkscape:stockid="DotS"
       inkscape:isstock="true">
      <path
         transform="matrix(0.2,0,0,0.2,1.48,0.2)"
         style="fill:context-stroke;fill-rule:evenodd;stroke:context-stroke;stroke-width:1pt"
         d="m -2.5,-1 c 0,2.76 -2.24,5 -5,5 -2.76,0 -5,-2.24 -5,-5 0,-2.76 2.24,-5 5,-5 2.76,0 5,2.24 5,5 z"
         id="path4950" />
    </marker>
    <marker
       style="overflow:visible"
       id="SquareL"
       refX="0"
       refY="0"
       orient="auto"
       inkscape:stockid="SquareL"
       inkscape:isstock="true">
      <path
         transform="scale(0.8)"
         style="fill:context-stroke;fill-rule:evenodd;stroke:context-stroke;stroke-width:1pt"
         d="M -5,-5 V 5 H 5 V -5 Z"
         id="path4953" />
    </marker>
    <marker
       style="overflow:visible"
       id="DiamondMstart"
       refX="0"
       refY="0"
       orient="auto"
       inkscape:stockid="DiamondMstart"
       inkscape:isstock="true">
      <path
         transform="matrix(0.4,0,0,0.4,2.6,0)"
         style="fill:context-stroke;fill-rule:evenodd;stroke:context-stroke;stroke-width:1pt"
         d="M 0,-7.0710768 -7.0710894,0 0,7.0710589 7.0710462,0 Z"
         id="path4974" />
    </marker>
  </defs>
  <g
     inkscape:label="Layer_I"
     inkscape:groupmode="layer"
     id="layer1"
     sodipodi:insensitive="true"
     style="display:inline">
    <rect
       style="fill:#ff9955;fill-opacity:0;stroke:none;stroke-width:10"
       id="rect846"
       width="3840"
       height="2160"
       x="0"
       y="0"
       rx="0"
       ry="0"
       sodipodi:insensitive="true"
       inkscape:label="Background" />
  </g>
  <g
     inkscape:groupmode="layer"
     id="layer2"
     inkscape:label="Layer_II">
    <g
       id="g1183"
       style="display:inline;stroke-width:3.36104"
       transform="matrix(0.31963628,0,0,-0.27694846,4.5072957,236.39426)">
      <path
         id="path1179"
         style="display:inline;fill:#ffdd55;fill-rule:evenodd;stroke:#660080;stroke-width:26.6938"
         sodipodi:type="inkscape:offset"
         inkscape:radius="-6.7462926"
         inkscape:original="M 2642.2305 544.29688 C 2635.2349 544.99227 2631.9451 553.92138 2633.3555 572.72461 C 2644.9894 727.82714 2749.109 863.47314 2886.7402 917.57812 C 2792.7786 724.37595 2675.5381 540.98594 2642.2305 544.29688 z M 2886.7402 917.57812 C 2902.1118 949.18483 2916.7937 980.96723 2930.4453 1012.3262 C 2945.5851 989.56817 2962.6026 965.4 2980.7266 940.62891 C 2948.211 937.22648 2916.6862 929.35036 2886.7402 917.57812 z M 2980.7266 940.62891 C 2995.6345 942.18887 3010.7243 942.91948 3025.9863 942.52344 C 3032.4814 942.35489 3039.0266 942.00763 3045.6191 941.47656 C 3223.6727 927.13273 3371.2409 769.67992 3355.8203 592.42578 C 3348.0283 502.85943 3125.7837 742.37027 2980.7266 940.62891 z M 2930.4453 1012.3262 C 2867.9022 1106.3401 2835.6287 1177.0495 2873.8711 1173.4336 C 2933.7233 1167.7809 2985.4578 1214.8542 2985.4648 1274.9727 L 2985.4648 1352.6367 C 3044.497 1330.3127 3002.7685 1178.459 2930.4453 1012.3262 z "
         d="m 2642.8984,551.00977 c -0.7731,0.0769 -0.8052,-0.39044 -1.8437,2.79882 -1.0386,3.18927 -1.6426,9.48007 -0.9727,18.41211 10.9576,146.08603 105.6695,274.80468 232.5215,332.01563 -44.7963,-90.58725 -94.056,-177.97035 -136.5195,-243.31445 -22.5056,-34.63228 -43.1152,-63.1054 -59.9043,-82.44336 -8.3946,-9.66899 -15.8626,-17.05146 -21.8555,-21.67579 -5.9928,-4.62432 -10.5062,-5.88437 -11.4258,-5.79296 z m 695.0567,28.93359 c -4.7578,0.39627 -11.8528,2.568 -20.4473,7.16992 -22.9186,12.27179 -55.904,39.7619 -93.0293,76.28906 -71.8249,70.66771 -159.8505,175.18546 -231,271.41797 10.7134,0.77489 21.4733,1.24077 32.332,0.95899 6.3724,-0.16537 12.7967,-0.50607 19.2676,-1.02735 174.4122,-14.05048 319.0901,-168.53389 304.0215,-341.74218 -0.4214,-4.84359 -1.5632,-8.03188 -2.7851,-9.85352 -1.222,-1.82164 -2.3407,-2.56428 -4.4122,-3.04102 -1.0357,-0.23836 -2.3613,-0.30396 -3.9472,-0.17187 z m -438.1563,349.43555 c 11.0653,23.11473 21.7306,46.22884 31.877,69.20703 11.5394,-17.05581 23.9404,-34.71533 37.0664,-52.82422 -23.6213,-3.23332 -46.6693,-8.74075 -68.9434,-16.38281 z m 29.4258,97.29879 c -27.5742,42.2711 -48.6773,79.4417 -58.5605,105.2285 -5.3612,13.9881 -7.1614,24.8358 -6.2442,29.8985 0.4586,2.5313 1.1258,3.3518 2.0801,3.9883 0.9543,0.6365 2.9375,1.283 6.7363,0.9238 63.705,-6.0166 118.9672,44.2675 118.9746,108.2559 v 65.8007 c 6.6524,-5.9051 10.903,-15.1487 13.0743,-28.4531 3.0392,-18.623 1.2678,-44.2941 -4.6914,-74.6094 -11.3557,-57.7672 -37.7311,-132.4845 -71.3692,-211.0332 z"
         transform="matrix(1.0003898,0,0,1.0142243,-2634.7938,-552.81322)" />
      <path
         id="path1181"
         style="display:inline;fill:#00aa88;fill-rule:evenodd;stroke:#00ffff;stroke-width:6.67346"
         sodipodi:type="inkscape:offset"
         inkscape:radius="-6.7462926"
         inkscape:original="M 2642.2305 544.29688 C 2635.2349 544.99227 2631.9451 553.92138 2633.3555 572.72461 C 2644.9894 727.82714 2749.109 863.47314 2886.7402 917.57812 C 2792.7786 724.37595 2675.5381 540.98594 2642.2305 544.29688 z M 2886.7402 917.57812 C 2902.1118 949.18483 2916.7937 980.96723 2930.4453 1012.3262 C 2945.5851 989.56817 2962.6026 965.4 2980.7266 940.62891 C 2948.211 937.22648 2916.6862 929.35036 2886.7402 917.57812 z M 2980.7266 940.62891 C 2995.6345 942.18887 3010.7243 942.91948 3025.9863 942.52344 C 3032.4814 942.35489 3039.0266 942.00763 3045.6191 941.47656 C 3223.6727 927.13273 3371.2409 769.67992 3355.8203 592.42578 C 3348.0283 502.85943 3125.7837 742.37027 2980.7266 940.62891 z M 2930.4453 1012.3262 C 2867.9022 1106.3401 2835.6287 1177.0495 2873.8711 1173.4336 C 2933.7233 1167.7809 2985.4578 1214.8542 2985.4648 1274.9727 L 2985.4648 1352.6367 C 3044.497 1330.3127 3002.7685 1178.459 2930.4453 1012.3262 z "
         d="m 2642.8984,551.00977 c -0.7731,0.0769 -0.8052,-0.39044 -1.8437,2.79882 -1.0386,3.18927 -1.6426,9.48007 -0.9727,18.41211 10.9576,146.08603 105.6695,274.80468 232.5215,332.01563 -44.7963,-90.58725 -94.056,-177.97035 -136.5195,-243.31445 -22.5056,-34.63228 -43.1152,-63.1054 -59.9043,-82.44336 -8.3946,-9.66899 -15.8626,-17.05146 -21.8555,-21.67579 -5.9928,-4.62432 -10.5062,-5.88437 -11.4258,-5.79296 z m 695.0567,28.93359 c -4.7578,0.39627 -11.8528,2.568 -20.4473,7.16992 -22.9186,12.27179 -55.904,39.7619 -93.0293,76.28906 -71.8249,70.66771 -159.8505,175.18546 -231,271.41797 10.7134,0.77489 21.4733,1.24077 32.332,0.95899 6.3724,-0.16537 12.7967,-0.50607 19.2676,-1.02735 174.4122,-14.05048 319.0901,-168.53389 304.0215,-341.74218 -0.4214,-4.84359 -1.5632,-8.03188 -2.7851,-9.85352 -1.222,-1.82164 -2.3407,-2.56428 -4.4122,-3.04102 -1.0357,-0.23836 -2.3613,-0.30396 -3.9472,-0.17187 z m -438.1563,349.43555 c 11.0653,23.11473 21.7306,46.22884 31.877,69.20703 11.5394,-17.05581 23.9404,-34.71533 37.0664,-52.82422 -23.6213,-3.23332 -46.6693,-8.74075 -68.9434,-16.38281 z m 29.4258,97.29879 c -27.5742,42.2711 -48.6773,79.4417 -58.5605,105.2285 -5.3612,13.9881 -7.1614,24.8358 -6.2442,29.8985 0.4586,2.5313 1.1258,3.3518 2.0801,3.9883 0.9543,0.6365 2.9375,1.283 6.7363,0.9238 63.705,-6.0166 118.9672,44.2675 118.9746,108.2559 v 65.8007 c 6.6524,-5.9051 10.903,-15.1487 13.0743,-28.4531 3.0392,-18.623 1.2678,-44.2941 -4.6914,-74.6094 -11.3557,-57.7672 -37.7311,-132.4845 -71.3692,-211.0332 z"
         transform="matrix(1.0003898,0,0,1.0142243,-2633.4699,-547.98398)" />
    </g>
    <g
       id="g2219"
       style="display:inline;stroke-width:3.36104"
       transform="matrix(0.31963628,0,0,0.27694846,4.5141594,3.9827268)">
      <path
         id="path1393"
         style="display:inline;fill:#ffdd55;fill-rule:evenodd;stroke:#782121;stroke-width:40.0408"
         sodipodi:type="inkscape:offset"
         inkscape:radius="-6.7462926"
         inkscape:original="M 2642.2305 544.29688 C 2635.2349 544.99227 2631.9451 553.92138 2633.3555 572.72461 C 2644.9894 727.82714 2749.109 863.47314 2886.7402 917.57812 C 2792.7786 724.37595 2675.5381 540.98594 2642.2305 544.29688 z M 2886.7402 917.57812 C 2902.1118 949.18483 2916.7937 980.96723 2930.4453 1012.3262 C 2945.5851 989.56817 2962.6026 965.4 2980.7266 940.62891 C 2948.211 937.22648 2916.6862 929.35036 2886.7402 917.57812 z M 2980.7266 940.62891 C 2995.6345 942.18887 3010.7243 942.91948 3025.9863 942.52344 C 3032.4814 942.35489 3039.0266 942.00763 3045.6191 941.47656 C 3223.6727 927.13273 3371.2409 769.67992 3355.8203 592.42578 C 3348.0283 502.85943 3125.7837 742.37027 2980.7266 940.62891 z M 2930.4453 1012.3262 C 2867.9022 1106.3401 2835.6287 1177.0495 2873.8711 1173.4336 C 2933.7233 1167.7809 2985.4578 1214.8542 2985.4648 1274.9727 L 2985.4648 1352.6367 C 3044.497 1330.3127 3002.7685 1178.459 2930.4453 1012.3262 z "
         d="m 2642.8984,551.00977 c -0.7731,0.0769 -0.8052,-0.39044 -1.8437,2.79882 -1.0386,3.18927 -1.6426,9.48007 -0.9727,18.41211 10.9576,146.08603 105.6695,274.80468 232.5215,332.01563 -44.7963,-90.58725 -94.056,-177.97035 -136.5195,-243.31445 -22.5056,-34.63228 -43.1152,-63.1054 -59.9043,-82.44336 -8.3946,-9.66899 -15.8626,-17.05146 -21.8555,-21.67579 -5.9928,-4.62432 -10.5062,-5.88437 -11.4258,-5.79296 z m 695.0567,28.93359 c -4.7578,0.39627 -11.8528,2.568 -20.4473,7.16992 -22.9186,12.27179 -55.904,39.7619 -93.0293,76.28906 -71.8249,70.66771 -159.8505,175.18546 -231,271.41797 10.7134,0.77489 21.4733,1.24077 32.332,0.95899 6.3724,-0.16537 12.7967,-0.50607 19.2676,-1.02735 174.4122,-14.05048 319.0901,-168.53389 304.0215,-341.74218 -0.4214,-4.84359 -1.5632,-8.03188 -2.7851,-9.85352 -1.222,-1.82164 -2.3407,-2.56428 -4.4122,-3.04102 -1.0357,-0.23836 -2.3613,-0.30396 -3.9472,-0.17187 z m -438.1563,349.43555 c 11.0653,23.11473 21.7306,46.22884 31.877,69.20703 11.5394,-17.05581 23.9404,-34.71533 37.0664,-52.82422 -23.6213,-3.23332 -46.6693,-8.74075 -68.9434,-16.38281 z m 29.4258,97.29879 c -27.5742,42.2711 -48.6773,79.4417 -58.5605,105.2285 -5.3612,13.9881 -7.1614,24.8358 -6.2442,29.8985 0.4586,2.5313 1.1258,3.3518 2.0801,3.9883 0.9543,0.6365 2.9375,1.283 6.7363,0.9238 63.705,-6.0166 118.9672,44.2675 118.9746,108.2559 v 65.8007 c 6.6524,-5.9051 10.903,-15.1487 13.0743,-28.4531 3.0392,-18.623 1.2678,-44.2941 -4.6914,-74.6094 -11.3557,-57.7672 -37.7311,-132.4845 -71.3692,-211.0332 z"
         transform="matrix(1.0003898,0,0,1.0142243,-2634.7938,-552.81322)" />
      <path
         id="path986"
         style="display:inline;fill:#ff6600;fill-rule:evenodd;stroke:#00ffff;stroke-width:6.67346"
         sodipodi:type="inkscape:offset"
         inkscape:radius="-6.7462926"
         inkscape:original="M 2642.2305 544.29688 C 2635.2349 544.99227 2631.9451 553.92138 2633.3555 572.72461 C 2644.9894 727.82714 2749.109 863.47314 2886.7402 917.57812 C 2792.7786 724.37595 2675.5381 540.98594 2642.2305 544.29688 z M 2886.7402 917.57812 C 2902.1118 949.18483 2916.7937 980.96723 2930.4453 1012.3262 C 2945.5851 989.56817 2962.6026 965.4 2980.7266 940.62891 C 2948.211 937.22648 2916.6862 929.35036 2886.7402 917.57812 z M 2980.7266 940.62891 C 2995.6345 942.18887 3010.7243 942.91948 3025.9863 942.52344 C 3032.4814 942.35489 3039.0266 942.00763 3045.6191 941.47656 C 3223.6727 927.13273 3371.2409 769.67992 3355.8203 592.42578 C 3348.0283 502.85943 3125.7837 742.37027 2980.7266 940.62891 z M 2930.4453 1012.3262 C 2867.9022 1106.3401 2835.6287 1177.0495 2873.8711 1173.4336 C 2933.7233 1167.7809 2985.4578 1214.8542 2985.4648 1274.9727 L 2985.4648 1352.6367 C 3044.497 1330.3127 3002.7685 1178.459 2930.4453 1012.3262 z "
         d="m 2642.8984,551.00977 c -0.7731,0.0769 -0.8052,-0.39044 -1.8437,2.79882 -1.0386,3.18927 -1.6426,9.48007 -0.9727,18.41211 10.9576,146.08603 105.6695,274.80468 232.5215,332.01563 -44.7963,-90.58725 -94.056,-177.97035 -136.5195,-243.31445 -22.5056,-34.63228 -43.1152,-63.1054 -59.9043,-82.44336 -8.3946,-9.66899 -15.8626,-17.05146 -21.8555,-21.67579 -5.9928,-4.62432 -10.5062,-5.88437 -11.4258,-5.79296 z m 695.0567,28.93359 c -4.7578,0.39627 -11.8528,2.568 -20.4473,7.16992 -22.9186,12.27179 -55.904,39.7619 -93.0293,76.28906 -71.8249,70.66771 -159.8505,175.18546 -231,271.41797 10.7134,0.77489 21.4733,1.24077 32.332,0.95899 6.3724,-0.16537 12.7967,-0.50607 19.2676,-1.02735 174.4122,-14.05048 319.0901,-168.53389 304.0215,-341.74218 -0.4214,-4.84359 -1.5632,-8.03188 -2.7851,-9.85352 -1.222,-1.82164 -2.3407,-2.56428 -4.4122,-3.04102 -1.0357,-0.23836 -2.3613,-0.30396 -3.9472,-0.17187 z m -438.1563,349.43555 c 11.0653,23.11473 21.7306,46.22884 31.877,69.20703 11.5394,-17.05581 23.9404,-34.71533 37.0664,-52.82422 -23.6213,-3.23332 -46.6693,-8.74075 -68.9434,-16.38281 z m 29.4258,97.29879 c -27.5742,42.2711 -48.6773,79.4417 -58.5605,105.2285 -5.3612,13.9881 -7.1614,24.8358 -6.2442,29.8985 0.4586,2.5313 1.1258,3.3518 2.0801,3.9883 0.9543,0.6365 2.9375,1.283 6.7363,0.9238 63.705,-6.0166 118.9672,44.2675 118.9746,108.2559 v 65.8007 c 6.6524,-5.9051 10.903,-15.1487 13.0743,-28.4531 3.0392,-18.623 1.2678,-44.2941 -4.6914,-74.6094 -11.3557,-57.7672 -37.7311,-132.4845 -71.3692,-211.0332 z"
         transform="matrix(1.0003898,0,0,1.0142243,-2633.4699,-547.98398)" />
    </g>
  </g>
</svg>
