<?xml version="1.0" encoding="UTF-8" standalone="no"?>
<!-- Created with Inkscape (http://www.inkscape.org/) -->

<svg
   width="240"
   height="240"
   viewBox="0 0 240 240"
   version="1.1"
   id="svg5"
   inkscape:version="1.1.1 (3bf5ae0d25, 2021-09-20)"
   sodipodi:docname="Patter_file9.svg"
   xmlns:inkscape="http://www.inkscape.org/namespaces/inkscape"
   xmlns:sodipodi="http://sodipodi.sourceforge.net/DTD/sodipodi-0.dtd"
   xmlns:xlink="http://www.w3.org/1999/xlink"
   xmlns="http://www.w3.org/2000/svg"
   xmlns:svg="http://www.w3.org/2000/svg">
  <sodipodi:namedview
     id="namedview7"
     pagecolor="#ededed"
     bordercolor="#666666"
     borderopacity="1.0"
     inkscape:pageshadow="2"
     inkscape:pageopacity="0"
     inkscape:pagecheckerboard="0"
     inkscape:document-units="px"
     showgrid="false"
     units="px"
     scale-x="1"
     inkscape:showpageshadow="false"
     inkscape:snap-page="true"
     inkscape:snap-nodes="true"
     inkscape:snap-intersection-paths="true"
     inkscape:zoom="3.3958333"
     inkscape:cx="120"
     inkscape:cy="120"
     inkscape:window-width="1920"
     inkscape:window-height="1047"
     inkscape:window-x="0"
     inkscape:window-y="0"
     inkscape:window-maximized="1"
     inkscape:current-layer="layer2"
     width="240px"
     inkscape:snap-bbox="true"
     inkscape:bbox-paths="false"
     inkscape:snap-others="false"
     inkscape:snap-smooth-nodes="true"
     inkscape:bbox-nodes="true"
     inkscape:snap-bbox-midpoints="true"
     inkscape:snap-midpoints="true"
     inkscape:object-paths="false"
     inkscape:snap-bbox-edge-midpoints="true" />
  <defs
     id="defs2">
    <linearGradient
       inkscape:collect="always"
       id="linearGradient2965">
      <stop
         style="stop-color:#ffd5d5;stop-opacity:1"
         offset="0"
         id="stop2961" />
      <stop
         style="stop-color:#ff8080;stop-opacity:1"
         offset="1"
         id="stop2963" />
    </linearGradient>
    <linearGradient
       inkscape:collect="always"
       id="linearGradient2398">
      <stop
         style="stop-color:#e3dedb;stop-opacity:1"
         offset="0"
         id="stop2396" />
      <stop
         style="stop-color:#ff6600;stop-opacity:1"
         offset="1"
         id="stop2394" />
    </linearGradient>
    <linearGradient
       inkscape:collect="always"
       id="linearGradient1234">
      <stop
         style="stop-color:#ff6600;stop-opacity:1"
         offset="0"
         id="stop1230" />
      <stop
         style="stop-color:#e3dedb;stop-opacity:1"
         offset="1"
         id="stop1232" />
    </linearGradient>
    <linearGradient
       inkscape:collect="always"
       xlink:href="#linearGradient1234"
       id="linearGradient1295"
       gradientUnits="userSpaceOnUse"
       x1="5"
       y1="119.99913"
       x2="95.000006"
       y2="119.99913" />
    <linearGradient
       inkscape:collect="always"
       xlink:href="#linearGradient1234"
       id="linearGradient2120"
       x1="120.00282"
       y1="5"
       x2="120.00282"
       y2="95"
       gradientUnits="userSpaceOnUse" />
    <linearGradient
       inkscape:collect="always"
       xlink:href="#linearGradient2398"
       id="linearGradient2286"
       x1="144.99998"
       y1="120.00861"
       x2="235"
       y2="120.00861"
       gradientUnits="userSpaceOnUse" />
    <linearGradient
       inkscape:collect="always"
       xlink:href="#linearGradient1234"
       id="linearGradient2488"
       x1="120.00283"
       y1="235"
       x2="120.00283"
       y2="145.00002"
       gradientUnits="userSpaceOnUse" />
    <linearGradient
       inkscape:collect="always"
       xlink:href="#linearGradient2965"
       id="linearGradient2973"
       x1="65.000916"
       y1="64.999527"
       x2="5"
       y2="5"
       gradientUnits="userSpaceOnUse" />
    <linearGradient
       inkscape:collect="always"
       xlink:href="#linearGradient2965"
       id="linearGradient3420"
       x1="174.99908"
       y1="64.999527"
       x2="235"
       y2="5"
       gradientUnits="userSpaceOnUse" />
    <linearGradient
       inkscape:collect="always"
       xlink:href="#linearGradient2965"
       id="linearGradient3580"
       x1="174.99908"
       y1="175.00049"
       x2="235"
       y2="235"
       gradientUnits="userSpaceOnUse" />
    <linearGradient
       inkscape:collect="always"
       xlink:href="#linearGradient2965"
       id="linearGradient3588"
       x1="65.000916"
       y1="175.00047"
       x2="5"
       y2="235"
       gradientUnits="userSpaceOnUse" />
  </defs>
  <g
     inkscape:label="Layer_I"
     inkscape:groupmode="layer"
     id="layer1"
     sodipodi:insensitive="true">
    <rect
       style="fill:#ff9955;fill-opacity:0;stroke:none;stroke-width:10"
       id="rect846"
       width="3840"
       height="2160"
       x="0"
       y="0"
       rx="0"
       ry="0"
       sodipodi:insensitive="true"
       inkscape:label="Background" />
  </g>
  <g
     inkscape:groupmode="layer"
     id="layer2"
     inkscape:label="Layer_II">
    <g
       id="g995">
      <path
         id="path2287"
         style="display:inline;fill:url(#linearGradient2973);fill-opacity:1;fill-rule:evenodd;stroke:#000080;stroke-width:1"
         d="M 48.013721,18.271365 C 39.847671,11.417216 24.809455,2.9253241 16.47727,6.2552949 4.4410581,11.0656 4.6586961,26.115129 6.3222321,33.438963 c 1.4935166,6.575333 9.1156549,7.342522 18.2158249,4.588049 3.883523,-1.175474 7.163507,-3.726677 9.262803,-6.866906 -0.979793,-1.855647 -2.675882,-3.817416 -2.734793,-4.55911 -0.192769,-2.426794 -0.22429,-4.202463 -2.968746,-4.488786 -3.861793,-0.402894 -3.633227,8.98954 -7.26858,7.804373 -5.211623,-1.699066 5.878509,-11.748675 0.950321,-14.275631 -5.657787,-2.901014 -12.0376515,-0.463828 -5.529287,-2.485649 7.404542,-2.300219 17.093696,0.09713 19.37751,6.614623 1.344784,3.83773 0.463259,7.965147 -1.826425,11.39018 0.623132,1.180156 0.862461,2.142838 0.357196,3.079775 -2.807564,5.206203 -11.580765,9.785888 -16.514265,9.829641 -7.950653,0.07048 22.548364,25.006398 35.879861,19.678441 12.036203,-4.810294 11.818572,-19.85983 10.155037,-27.183665 -1.493523,-6.575324 -9.115664,-7.342512 -18.215826,-4.58805 -3.864028,1.169575 -7.12984,3.701532 -9.230537,6.820039 0.922244,1.743177 2.405209,3.560892 2.412107,4.225474 0.02321,2.237599 -0.161445,3.825223 2.387903,4.122085 3.854837,0.448884 3.597217,-8.906128 7.266968,-7.803004 5.527994,1.661701 -5.005641,12.494518 -0.07745,15.021465 5.657795,2.901012 12.037659,0.463827 5.529294,2.485649 -7.404555,2.30023 -17.093711,-0.09713 -19.377515,-6.614623 -1.350977,-3.855388 -0.454669,-8.002829 1.85869,-11.437046 -0.630309,-1.191375 -0.912014,-2.145763 -0.410441,-3.089427 2.771306,-5.21395 11.601739,-9.729358 16.535237,-9.77311 2.981501,-0.02645 0.556229,-3.549891 -4.343401,-7.662385 z"
         sodipodi:nodetypes="sssscssacsscasssscssassscass" />
      <path
         id="path21140"
         style="display:inline;fill:url(#linearGradient3588);fill-opacity:1;fill-rule:evenodd;stroke:#000080;stroke-width:1"
         d="m 21.9872,188.27185 c 8.166047,-6.85415 23.204261,-15.34604 31.536439,-12.01608 12.036212,4.81031 11.818581,19.85983 10.15505,27.18366 -1.493518,6.57534 -9.115659,7.34253 -18.215822,4.58806 -3.883523,-1.17547 -7.163516,-3.72667 -9.262805,-6.86691 0.979784,-1.85564 2.675881,-3.81741 2.734787,-4.55911 0.192762,-2.42679 0.224284,-4.20245 2.968752,-4.48878 3.861784,-0.40289 3.633223,8.98954 7.268568,7.80437 5.211628,-1.69906 -5.878495,-11.74868 -0.950313,-14.27563 5.657785,-2.90102 12.037648,-0.46383 5.529283,-2.48565 -7.404545,-2.30022 -17.0937,0.0972 -19.377506,6.61463 -1.344782,3.83772 -0.463261,7.96514 1.826429,11.39017 -0.623131,1.18016 -0.862467,2.14284 -0.357199,3.07978 2.807564,5.2062 11.580768,9.78588 16.514269,9.82964 7.95064,0.0705 -22.548376,25.0064 -35.879871,19.67843 C 4.4410664,228.93815 4.6586964,213.88861 6.3222284,206.56478 c 1.4935177,-6.57532 9.1156586,-7.34252 18.2158226,-4.58806 3.864024,1.16958 7.129838,3.70154 9.230546,6.82005 -0.922245,1.74317 -2.40521,3.56088 -2.41212,4.22546 -0.02326,2.23761 0.161461,3.82522 -2.387901,4.12209 -3.854823,0.44888 -3.597203,-8.90613 -7.266961,-7.803 -5.528001,1.6617 5.005646,12.49451 0.07748,15.02147 -5.657804,2.901 -12.0376674,0.46382 -5.529302,2.48565 7.404563,2.30022 17.093718,-0.0972 19.377507,-6.61463 1.350991,-3.85539 0.454675,-8.00283 -1.858687,-11.43704 0.630315,-1.19139 0.912017,-2.14577 0.410443,-3.08943 -2.771303,-5.21395 -11.601736,-9.72935 -16.535239,-9.77311 -2.981494,-0.0264 -0.556221,-3.5499 4.343416,-7.66238 z"
         sodipodi:nodetypes="sssscssacsscasssscssassscass" />
      <path
         id="path21142"
         style="display:inline;fill:url(#linearGradient3580);fill-opacity:1;fill-rule:evenodd;stroke:#000080;stroke-width:1"
         d="m 218.0128,188.27184 c -8.16605,-6.85415 -23.20426,-15.34604 -31.53644,-12.01606 -12.03621,4.8103 -11.81858,19.85983 -10.15505,27.18366 1.49352,6.57534 9.11566,7.34253 18.21582,4.58805 3.88353,-1.17548 7.16352,-3.72668 9.26281,-6.86691 -0.97979,-1.85565 -2.67588,-3.81741 -2.73479,-4.5591 -0.19276,-2.4268 -0.22428,-4.20247 -2.96875,-4.48878 -3.86179,-0.40291 -3.63323,8.98953 -7.26857,7.80436 -5.21163,-1.69907 5.87849,-11.74867 0.95031,-14.27562 -5.65778,-2.90102 -12.03765,-0.46384 -5.52928,-2.48565 7.40454,-2.30022 17.0937,0.0972 19.37751,6.61461 1.34478,3.83773 0.46326,7.96515 -1.82643,11.39018 0.62313,1.18016 0.86246,2.14285 0.3572,3.07978 -2.80757,5.2062 -11.58077,9.78589 -16.51427,9.82964 -7.95064,0.0705 22.54837,25.0064 35.87987,19.67844 12.03619,-4.8103 11.81856,-19.85984 10.15503,-27.18366 -1.49352,-6.57533 -9.11566,-7.34251 -18.21582,-4.58805 -3.86403,1.16957 -7.12984,3.70153 -9.23055,6.82003 0.92225,1.74319 2.40521,3.5609 2.41212,4.22548 0.0233,2.23759 -0.16146,3.82522 2.3879,4.12208 3.85483,0.44889 3.59721,-8.90612 7.26696,-7.80299 5.52801,1.6617 -5.00564,12.49451 -0.0775,15.02145 5.65781,2.90102 12.03767,0.46383 5.5293,2.48565 -7.40456,2.30024 -17.09371,-0.0971 -19.3775,-6.61461 -1.35099,-3.85539 -0.45468,-8.00283 1.85869,-11.43706 -0.63032,-1.19137 -0.91202,-2.14575 -0.41045,-3.08943 2.77131,-5.21395 11.60174,-9.72935 16.53524,-9.77311 2.98149,-0.0264 0.55622,-3.54988 -4.34341,-7.66238 z"
         sodipodi:nodetypes="sssscssacsscasssscssassscass" />
      <path
         id="path21144"
         style="display:inline;fill:url(#linearGradient3420);fill-opacity:1;fill-rule:evenodd;stroke:#000080;stroke-width:1"
         d="m 218.01279,51.728162 c -8.16605,6.854152 -23.20426,15.346042 -31.53643,12.016068 -12.03621,-4.810301 -11.81858,-19.859839 -10.15505,-27.183667 1.49352,-6.575339 9.11566,-7.342525 18.21582,-4.588044 3.88352,1.175475 7.16351,3.726674 9.2628,6.866908 -0.97978,1.855645 -2.67588,3.817413 -2.73479,4.559102 -0.19276,2.426802 -0.22428,4.202465 -2.96875,4.488781 -3.86178,0.402903 -3.63322,-8.989531 -7.26856,-7.804364 -5.21163,1.699067 5.87849,11.748668 0.95031,14.275623 -5.65779,2.901018 -12.03765,0.463838 -5.52928,2.485651 7.40454,2.300217 17.09369,-0.09721 19.3775,-6.614614 1.34478,-3.83773 0.46326,-7.965146 -1.82643,-11.390179 0.62313,-1.18016 0.86247,-2.142851 0.3572,-3.079781 -2.80757,-5.206198 -11.58077,-9.785893 -16.51427,-9.829635 -7.95063,-0.07049 22.54837,-25.0064011 35.87988,-19.6784491 12.03619,4.8103011 11.81856,19.8598391 10.15503,27.1836681 -1.49351,6.575323 -9.11565,7.34251 -18.21583,4.588043 -3.86403,-1.169564 -7.12984,-3.701525 -9.23055,-6.820028 0.92225,-1.743188 2.40521,-3.5609 2.41212,-4.225482 0.0233,-2.237589 -0.16146,-3.825221 2.3879,-4.122075 3.85483,-0.448892 3.59721,8.906119 7.26698,7.802992 5.528,-1.661703 -5.00566,-12.494516 -0.0775,-15.021457 5.6578,-2.901018 12.03766,-0.463824 5.5293,-2.485651 -7.40456,-2.300232 -17.09371,0.09706 -19.3775,6.614615 -1.35099,3.855389 -0.45468,8.00283 1.85868,11.437058 -0.63031,1.19137 -0.91201,2.145756 -0.41044,3.089429 2.7713,5.213948 11.60173,9.729351 16.53523,9.773107 2.9815,0.02642 0.55622,3.549881 -4.34341,7.662381 z"
         sodipodi:nodetypes="sssscssacsscasssscssassscass" />
      <path
         id="path21176"
         style="display:inline;fill:url(#linearGradient2488);fill-opacity:1;fill-rule:evenodd;stroke:#550000;stroke-width:1"
         d="m 164.49195,195.47678 c -0.18245,13.45652 -7.1206,34.21641 -23.8081,37.89644 -24.10584,5.31598 -47.864308,-9.51593 -57.301797,-18.02785 -8.472982,-7.64197 0.697101,-14.72083 17.512217,-19.59914 7.1759,-2.08183 15.72756,-2.32298 23.61031,-1.00983 1.62969,2.62046 2.45197,5.9393 3.55719,6.7103 3.61608,2.52269 6.4113,4.27753 3.1256,6.83621 -4.62336,3.60036 -19.32455,-5.73331 -22.38868,-1.5595 -4.39269,5.98359 26.79728,6.55417 24.11453,13.10823 -3.08007,7.52434 -15.6776,10.45168 -3.56868,7.01324 13.77624,-3.9119 23.16012,-14.29486 15.85741,-22.53712 -4.30005,-4.85329 -12.09972,-8.13913 -20.69737,-9.57136 -1.03646,-1.66657 -2.24874,-2.80258 -4.43556,-3.29497 -12.15106,-2.73605 -31.437652,0.0937 -38.236725,4.14958 -10.957093,6.53628 -9.215216,-43.07615 17.484793,-48.96422 24.105802,-5.31597 47.864272,9.51596 57.301762,18.02785 8.47297,7.64198 -0.69711,14.72085 -17.51219,19.59917 -7.13988,2.07136 -15.64145,2.31946 -23.49141,1.02865 -1.52837,-2.46316 -2.41112,-5.46468 -3.46396,-6.11743 -3.54488,-2.1977 -6.3345,-3.58982 -3.33178,-5.99669 4.54037,-3.63935 19.14211,5.68204 22.38432,1.55951 4.88393,-6.21005 -26.79891,-8.00537 -24.11616,-14.55942 3.08009,-7.52436 15.67759,-10.45171 3.56869,-7.01327 -13.776297,3.91194 -23.159903,14.29504 -15.857391,22.53714 4.319785,4.87565 12.171641,8.16869 20.816281,9.59016 1.04454,1.68345 2.18586,2.84664 4.37835,3.34864 12.11397,2.77368 31.37589,-0.16619 38.17496,-4.22207 4.10889,-2.4511 6.43285,2.99385 6.32335,11.06777 z"
         sodipodi:nodetypes="sssscssacsscasssscssassscass" />
      <path
         id="path21178"
         style="display:inline;fill:url(#linearGradient2120);fill-opacity:1;fill-rule:evenodd;stroke:#550000;stroke-width:0.999995"
         d="m 164.49224,55.476769 c -0.18246,13.45653 -7.12063,34.216415 -23.80825,37.896448 -24.106,5.315979 -47.864639,-9.515932 -57.302189,-18.027849 -8.47304,-7.641969 0.697104,-14.720828 17.512339,-19.599133 7.17592,-2.081842 15.72766,-2.322995 23.61046,-1.009845 1.62972,2.620453 2.45199,5.939311 3.55723,6.71031 3.61609,2.522675 6.41133,4.27752 3.12561,6.836201 -4.6234,3.600359 -19.32469,-5.733298 -22.38883,-1.559506 -4.39272,5.983595 26.79746,6.554178 24.11468,13.108251 -3.08008,7.524337 -15.6777,10.451671 -3.56868,7.013235 13.77633,-3.911902 23.16027,-14.294868 15.85752,-22.537137 C 140.90202,59.454459 133.10231,56.16862 124.5046,54.73639 123.46813,53.069818 122.25586,51.933801 120.069,51.44141 107.91787,48.705371 88.631151,51.53523 81.832031,55.591005 70.874865,62.127278 72.616752,12.514839 99.316952,6.6267728 123.42289,1.3108156 147.18155,16.142726 156.61911,24.654624 c 8.47301,7.641987 -0.69712,14.72085 -17.51233,19.59917 -7.13992,2.071374 -15.64155,2.319481 -23.49155,1.028657 -1.52842,-2.463155 -2.41116,-5.464699 -3.464,-6.117447 -3.54489,-2.197687 -6.33453,-3.589808 -3.33181,-5.996676 4.54041,-3.639341 19.14226,5.682038 22.38448,1.559508 4.88396,-6.210041 -26.7991,-8.005376 -24.11632,-14.559434 3.08011,-7.524358 15.6777,-10.4516914 3.56872,-7.013255 -13.77639,3.911923 -23.160069,14.295032 -15.857516,22.53714 4.319813,4.875649 12.171726,8.168682 20.816446,9.59018 1.04455,1.683453 2.18587,2.846616 4.37837,3.348615 12.11406,2.773693 31.37608,-0.166181 38.1752,-4.222057 4.10892,-2.451118 6.43291,2.993846 6.3234,11.067764 z"
         sodipodi:nodetypes="sssscssacsscasssscssassscass" />
      <path
         id="path21180"
         style="display:inline;fill:url(#linearGradient2286);fill-opacity:1;fill-rule:evenodd;stroke:#550000;stroke-width:1"
         d="m 184.52323,164.48904 c -13.45654,-0.18243 -34.21641,-7.12014 -37.89646,-23.8066 -5.31597,-24.10435 9.51595,-47.861329 18.02785,-57.298231 7.64198,-8.472452 14.72085,0.697057 19.59913,17.511121 2.08183,7.17545 2.32299,15.72657 1.00983,23.60885 -2.62043,1.62959 -5.93928,2.4518 -6.71028,3.55694 -2.52268,3.61589 -4.27754,6.41093 -6.83621,3.12544 -3.60036,-4.6231 5.7333,-19.32337 1.55949,-22.38729 -5.98359,-4.39242 -6.55416,26.79561 -13.10824,24.11303 -7.52433,-3.07989 -10.45166,-15.67664 -7.01322,-3.56847 3.91189,13.77538 14.29485,23.15869 22.53712,15.85643 4.8533,-4.29979 8.13912,-12.09896 9.57134,-20.69608 1.6666,-1.0364 2.8026,-2.24862 3.29499,-4.43528 2.73603,-12.15032 -0.0938,-31.435702 -4.14958,-38.234351 -6.5363,-10.956411 43.07615,-9.214643 48.96423,17.483705 5.31596,24.104296 -9.51598,47.861296 -18.02786,57.298206 -7.64199,8.47243 -14.72085,-0.69707 -19.59917,-17.51113 -2.07136,-7.13941 -2.31946,-15.64045 -1.02865,-23.48993 2.46316,-1.52828 5.46469,-2.41096 6.11744,-3.46374 2.19769,-3.54467 3.58981,-6.3341 5.99667,-3.33157 3.63936,4.54009 -5.68203,19.14091 -1.5595,22.38293 6.21004,4.88362 8.00538,-26.79725 14.55943,-24.11467 7.52435,3.07988 10.4517,15.67661 7.01326,3.56848 -3.91195,-13.77544 -14.29503,-23.158474 -22.53714,-15.856418 -4.87566,4.319498 -8.16869,12.170888 -9.59016,20.814988 -1.68347,1.04448 -2.84664,2.18572 -3.34864,4.37807 -2.77367,12.11322 0.16619,31.37395 4.22209,38.17259 2.45109,4.10863 -2.99387,6.43244 -11.06779,6.32296 z"
         sodipodi:nodetypes="sssscssacsscasssscssassscass" />
      <path
         id="path21182"
         style="display:inline;fill:url(#linearGradient1295);fill-opacity:1;fill-rule:evenodd;stroke:#550000;stroke-width:0.999996"
         d="M 44.523231,164.48712 C 31.066702,164.30468 10.306813,157.3666 6.6267819,140.67917 1.3108013,116.57347 16.142715,92.81513 24.654632,83.377693 c 7.641968,-8.472935 14.720831,0.697099 19.599132,17.512117 2.081844,7.17583 2.322997,15.72747 1.009846,23.61016 -2.620452,1.6297 -5.939308,2.45198 -6.71031,3.55719 -2.522674,3.61605 -4.27752,6.41127 -6.836203,3.12558 -3.600357,-4.62333 5.733301,-19.32444 1.559508,-22.38853 -5.983595,-4.39269 -6.554176,26.7971 -13.108254,24.11438 -7.524334,-3.08005 -10.4516716,-15.67751 -7.013232,-3.56865 3.9119,13.77616 14.294868,23.15999 22.537138,15.85732 4.853283,-4.30004 8.139125,-12.09966 9.571353,-20.69729 1.666572,-1.03644 2.802589,-2.24871 3.294984,-4.43553 2.736035,-12.15099 -0.09382,-31.437462 -4.149599,-38.236497 -6.536273,-10.95703 43.076169,-9.215166 48.964237,17.484697 5.315959,24.10567 -9.515956,47.86401 -18.027851,57.30146 -7.641988,8.47289 -14.720851,-0.69713 -19.599173,-17.51212 -2.071375,-7.13982 -2.319481,-15.64136 -1.028655,-23.49126 2.463156,-1.52838 5.464699,-2.41112 6.117446,-3.46394 2.197686,-3.54487 3.589807,-6.33447 5.996676,-3.33177 3.639343,4.54035 -5.682037,19.14202 -1.559507,22.38419 6.21004,4.88391 8.005377,-26.79877 14.559434,-24.11602 7.524356,3.08006 10.451691,15.67752 7.013254,3.56867 -3.911922,-13.776221 -14.29503,-23.159775 -22.537139,-15.857308 -4.875651,4.319746 -8.168684,12.171568 -9.590184,20.816178 -1.68345,1.04453 -2.846616,2.18584 -3.348613,4.37832 -2.773695,12.1139 0.16618,31.37571 4.222059,38.17474 2.451116,4.10888 -2.993848,6.43283 -11.067768,6.32331 z"
         sodipodi:nodetypes="sssscssacsscasssscssassscass" />
    </g>
  </g>
</svg>
