<?xml version="1.0" encoding="UTF-8" standalone="no"?>
<!-- Created with Inkscape (http://www.inkscape.org/) -->

<svg
   width="240"
   height="240"
   viewBox="0 0 240 240.00001"
   version="1.1"
   id="svg5"
   inkscape:version="1.1.1 (3bf5ae0d25, 2021-09-20)"
   sodipodi:docname="Patter_file58.svg"
   inkscape:export-filename="/home/sandumrs/DataVideo/FileImage/InkscapeProject/Lesson_V_5.png"
   inkscape:export-xdpi="192"
   inkscape:export-ydpi="192"
   xmlns:inkscape="http://www.inkscape.org/namespaces/inkscape"
   xmlns:sodipodi="http://sodipodi.sourceforge.net/DTD/sodipodi-0.dtd"
   xmlns="http://www.w3.org/2000/svg"
   xmlns:svg="http://www.w3.org/2000/svg">
  <sodipodi:namedview
     id="namedview7"
     pagecolor="#ffffff"
     bordercolor="#666666"
     borderopacity="1.0"
     inkscape:pageshadow="2"
     inkscape:pageopacity="0.0"
     inkscape:pagecheckerboard="0"
     inkscape:document-units="px"
     showgrid="true"
     width="240px"
     units="px"
     inkscape:showpageshadow="false"
     guidetolerance="2"
     objecttolerance="2"
     inkscape:zoom="2.56"
     inkscape:cx="76.757812"
     inkscape:cy="122.46094"
     inkscape:window-width="1920"
     inkscape:window-height="1047"
     inkscape:window-x="0"
     inkscape:window-y="0"
     inkscape:window-maximized="1"
     inkscape:current-layer="layer1">
    <inkscape:grid
       type="xygrid"
       id="grid852" />
  </sodipodi:namedview>
  <defs
     id="defs2">
    <inkscape:perspective
       sodipodi:type="inkscape:persp3d"
       inkscape:vp_x="-925.23982 : 199.07872 : 0"
       inkscape:vp_y="-1.8124822e-12 : 2530.0681 : 0"
       inkscape:vp_z="695.53035 : 149.65463 : 0"
       inkscape:persp3d-origin="218.66701 : 68.7373 : 1"
       id="perspective854" />
  </defs>
  <g
     inkscape:label="Layer"
     inkscape:groupmode="layer"
     id="layer1">
    <g
       sodipodi:type="inkscape:box3d"
       id="g856"
       style="display:inline;fill:#333333;stroke:#999999;stroke-width:2;stroke-linejoin:round"
       inkscape:perspectiveID="#perspective854"
       inkscape:corner0="0.21487772 : 0.033609006 : 0 : 1"
       inkscape:corner7="0.10663939 : 0.016609005 : 0.14375074 : 1">
      <path
         sodipodi:type="inkscape:box3dside"
         id="path868"
         style="fill:#e9e9ff;fill-rule:evenodd;stroke:none;stroke-width:14.1276;stroke-linejoin:round"
         inkscape:box3dsidetype="11"
         d="m 119.83659,21.93909 100.14641,21.547947 0,43.011159 -100.14641,-21.547948 z"
         points="219.983,43.487037 219.983,86.498196 119.83659,64.950248 119.83659,21.93909 " />
      <path
         sodipodi:type="inkscape:box3dside"
         id="path858"
         style="fill:#353564;fill-rule:evenodd;stroke:none;stroke-width:14.1276;stroke-linejoin:round"
         inkscape:box3dsidetype="6"
         d="m 19.853587,43.452053 0,43.011158 99.983003,-21.512963 0,-43.011158 z"
         points="19.853587,86.463211 119.83659,64.950248 119.83659,21.93909 19.853587,43.452053 " />
      <path
         sodipodi:type="inkscape:box3dside"
         id="path866"
         style="fill:#f4d7d7;fill-rule:evenodd;stroke:#ff6600;stroke-width:11.2177;stroke-linejoin:round"
         inkscape:box3dsidetype="13"
         d="M 19.853587,86.463211 120,108.01116 219.983,86.498196 119.83659,64.950248 Z"
         points="120,108.01116 219.983,86.498196 119.83659,64.950248 19.853587,86.463211 " />
      <path
         sodipodi:type="inkscape:box3dside"
         id="path860"
         style="fill:#4cd8fc;fill-rule:evenodd;stroke:#c4f0fc;stroke-width:14.1276;stroke-linejoin:round"
         inkscape:box3dsidetype="5"
         d="M 19.853587,43.452053 120,65 219.983,43.487037 119.83659,21.93909 Z"
         points="120,65 219.983,43.487037 119.83659,21.93909 19.853587,43.452053 " />
      <path
         sodipodi:type="inkscape:box3dside"
         id="path864"
         style="fill:#0088e8;fill-rule:evenodd;stroke:#c4f0fc;stroke-width:14.1276;stroke-linejoin:round"
         inkscape:box3dsidetype="14"
         d="m 120,65 0,43.01116 99.983,-21.512964 0,-43.011159 z"
         points="120,108.01116 219.983,86.498196 219.983,43.487037 120,65 " />
      <path
         sodipodi:type="inkscape:box3dside"
         id="path862"
         style="fill:#0048d8;fill-rule:evenodd;stroke:#c4f0fc;stroke-width:14.1276;stroke-linejoin:round"
         inkscape:box3dsidetype="3"
         d="M 19.853587,43.452053 120,65 120,108.01116 19.853587,86.463211 Z"
         points="120,65 120,108.01116 19.853587,86.463211 19.853587,43.452053 " />
    </g>
    <g
       sodipodi:type="inkscape:box3d"
       id="g1797"
       style="display:inline;fill:#333333;stroke:#999999;stroke-width:2;stroke-linejoin:round"
       inkscape:perspectiveID="#perspective854"
       inkscape:corner0="0.21478941 : 0.011867576 : 0 : 1"
       inkscape:corner7="0.10655108 : -0.0051324248 : 0.14375074 : 1">
      <path
         sodipodi:type="inkscape:box3dside"
         id="path1785"
         style="fill:#e9e9ff;fill-rule:evenodd;stroke:none;stroke-width:14.1276;stroke-linejoin:round"
         inkscape:box3dsidetype="11"
         d="m 119.9183,76.963967 100.14641,21.547947 0,43.011156 -100.14641,-21.54795 z"
         points="220.06471,98.511914 220.06471,141.52307 119.9183,119.97512 119.9183,76.963967 " />
      <path
         sodipodi:type="inkscape:box3dside"
         id="path1787"
         style="fill:#353564;fill-rule:evenodd;stroke:none;stroke-width:14.1276;stroke-linejoin:round"
         inkscape:box3dsidetype="6"
         d="m 19.935295,98.47693 0,43.01116 99.983005,-21.51297 0,-43.011153 z"
         points="19.935295,141.48809 119.9183,119.97512 119.9183,76.963967 19.935295,98.47693 " />
      <path
         sodipodi:type="inkscape:box3dside"
         id="path1789"
         style="fill:#f4d7d7;fill-rule:evenodd;stroke:#ff6600;stroke-width:11.2177;stroke-linejoin:round"
         inkscape:box3dsidetype="13"
         d="m 19.935295,141.48809 100.146415,21.54794 99.983,-21.51296 -100.14641,-21.54795 z"
         points="120.08171,163.03603 220.06471,141.52307 119.9183,119.97512 19.935295,141.48809 " />
      <path
         sodipodi:type="inkscape:box3dside"
         id="path1791"
         style="fill:#4cd8fc;fill-rule:evenodd;stroke:#c4f0fc;stroke-width:14.1276;stroke-linejoin:round"
         inkscape:box3dsidetype="5"
         d="M 19.935295,98.47693 120.08171,120.02488 220.06471,98.511914 119.9183,76.963967 Z"
         points="120.08171,120.02488 220.06471,98.511914 119.9183,76.963967 19.935295,98.47693 " />
      <path
         sodipodi:type="inkscape:box3dside"
         id="path1793"
         style="fill:#0088e8;fill-rule:evenodd;stroke:#c4f0fc;stroke-width:14.1276;stroke-linejoin:round"
         inkscape:box3dsidetype="14"
         d="m 120.08171,120.02488 0,43.01115 99.983,-21.51296 0,-43.011156 z"
         points="120.08171,163.03603 220.06471,141.52307 220.06471,98.511914 120.08171,120.02488 " />
      <path
         sodipodi:type="inkscape:box3dside"
         id="path1795"
         style="fill:#0048d8;fill-rule:evenodd;stroke:#c4f0fc;stroke-width:14.1276;stroke-linejoin:round"
         inkscape:box3dsidetype="3"
         d="m 19.935295,98.47693 100.146415,21.54795 0,43.01115 -100.146415,-21.54794 z"
         points="120.08171,120.02488 120.08171,163.03603 19.935295,141.48809 19.935295,98.47693 " />
    </g>
    <g
       sodipodi:type="inkscape:box3d"
       id="g1589"
       style="display:inline;fill:#333333;stroke:#999999;stroke-width:2;stroke-linejoin:round"
       inkscape:perspectiveID="#perspective854"
       inkscape:corner0="0.21478941 : -0.00987097 : 0 : 1"
       inkscape:corner7="0.10655108 : -0.026870971 : 0.14375074 : 1">
      <path
         sodipodi:type="inkscape:box3dside"
         id="path1577"
         style="fill:#e9e9ff;fill-rule:evenodd;stroke:none;stroke-width:14.1276;stroke-linejoin:round"
         inkscape:box3dsidetype="11"
         d="m 119.9183,131.96397 100.14641,21.54794 0,43.01116 -100.14641,-21.54795 z"
         points="220.06471,153.51191 220.06471,196.52307 119.9183,174.97512 119.9183,131.96397 " />
      <path
         sodipodi:type="inkscape:box3dside"
         id="path1579"
         style="fill:#353564;fill-rule:evenodd;stroke:none;stroke-width:14.1276;stroke-linejoin:round"
         inkscape:box3dsidetype="6"
         d="m 19.935295,153.47693 0,43.01116 99.983005,-21.51297 0,-43.01115 z"
         points="19.935295,196.48809 119.9183,174.97512 119.9183,131.96397 19.935295,153.47693 " />
      <path
         sodipodi:type="inkscape:box3dside"
         id="path1581"
         style="fill:#f4d7d7;fill-rule:evenodd;stroke:#ff6600;stroke-width:11.2177;stroke-linejoin:round"
         inkscape:box3dsidetype="13"
         d="m 19.935295,196.48809 100.146415,21.54794 99.983,-21.51296 -100.14641,-21.54795 z"
         points="120.08171,218.03603 220.06471,196.52307 119.9183,174.97512 19.935295,196.48809 " />
      <path
         sodipodi:type="inkscape:box3dside"
         id="path1583"
         style="fill:#4cd8fc;fill-rule:evenodd;stroke:#c4f0fc;stroke-width:14.1276;stroke-linejoin:round"
         inkscape:box3dsidetype="5"
         d="m 19.935295,153.47693 100.146415,21.54795 99.983,-21.51297 -100.14641,-21.54794 z"
         points="120.08171,175.02488 220.06471,153.51191 119.9183,131.96397 19.935295,153.47693 " />
      <path
         sodipodi:type="inkscape:box3dside"
         id="path1585"
         style="fill:#0088e8;fill-rule:evenodd;stroke:#c4f0fc;stroke-width:14.1276;stroke-linejoin:round"
         inkscape:box3dsidetype="14"
         d="m 120.08171,175.02488 0,43.01115 99.983,-21.51296 0,-43.01116 z"
         points="120.08171,218.03603 220.06471,196.52307 220.06471,153.51191 120.08171,175.02488 " />
      <path
         sodipodi:type="inkscape:box3dside"
         id="path1587"
         style="fill:#0048d8;fill-rule:evenodd;stroke:#c4f0fc;stroke-width:14.1276;stroke-linejoin:round"
         inkscape:box3dsidetype="3"
         d="m 19.935295,153.47693 100.146415,21.54795 0,43.01115 -100.146415,-21.54794 z"
         points="120.08171,175.02488 120.08171,218.03603 19.935295,196.48809 19.935295,153.47693 " />
    </g>
  </g>
</svg>
