<?xml version="1.0" encoding="UTF-8" standalone="no"?>
<!-- Created with Inkscape (http://www.inkscape.org/) -->

<svg
   width="240"
   height="240"
   viewBox="0 0 240 240"
   version="1.1"
   id="svg5"
   inkscape:version="1.1.1 (3bf5ae0d25, 2021-09-20)"
   sodipodi:docname="Patter_file5.svg"
   xmlns:inkscape="http://www.inkscape.org/namespaces/inkscape"
   xmlns:sodipodi="http://sodipodi.sourceforge.net/DTD/sodipodi-0.dtd"
   xmlns:xlink="http://www.w3.org/1999/xlink"
   xmlns="http://www.w3.org/2000/svg"
   xmlns:svg="http://www.w3.org/2000/svg">
  <sodipodi:namedview
     id="namedview7"
     pagecolor="#ededed"
     bordercolor="#666666"
     borderopacity="1.0"
     inkscape:pageshadow="2"
     inkscape:pageopacity="0"
     inkscape:pagecheckerboard="0"
     inkscape:document-units="px"
     showgrid="false"
     units="px"
     scale-x="1"
     inkscape:showpageshadow="false"
     inkscape:snap-page="true"
     inkscape:snap-nodes="true"
     width="240px"
     inkscape:zoom="2.3949981"
     inkscape:cx="256.99394"
     inkscape:cy="122.12953"
     inkscape:window-width="1920"
     inkscape:window-height="1047"
     inkscape:window-x="0"
     inkscape:window-y="0"
     inkscape:window-maximized="1"
     inkscape:current-layer="layer2" />
  <defs
     id="defs2">
    <inkscape:path-effect
       effect="copy_rotate"
       starting_point="0,0"
       origin="77.750828,105.12254"
       id="path-effect2660"
       is_visible="true"
       lpeversion="1"
       method="normal"
       num_copies="9"
       starting_angle="0"
       rotation_angle="60"
       gap="-0.01"
       copies_to_360="true"
       mirror_copies="false"
       split_items="false" />
    <inkscape:path-effect
       effect="rough_hatches"
       id="path-effect1395"
       is_visible="true"
       lpeversion="1"
       direction="162.37268,111.36736 , 51.277699,50.430882"
       dist_rdm="75;1"
       growth="0"
       do_bend="true"
       bender="55.807478,202.69773 , 162.56043,-102.65639"
       bottom_edge_variation="19.53041;1"
       top_edge_variation="19.53041;1"
       bottom_tgt_variation="0;1"
       top_tgt_variation="0;1"
       scale_bf="1"
       scale_bb="1"
       scale_tf="1"
       scale_tb="1"
       top_smth_variation="0;1"
       bottom_smth_variation="0;1"
       fat_output="true"
       stroke_width_top="1"
       stroke_width_bottom="1"
       front_thickness="1"
       back_thickness="0.25" />
    <inkscape:path-effect
       effect="dashed_stroke"
       id="path-effect1336"
       is_visible="true"
       lpeversion="1"
       numberdashes="2"
       holefactor="0"
       splitsegments="true"
       halfextreme="true"
       unifysegment="true"
       message="Добавить &lt;b&gt;«Заливку между многими LPE»&lt;/b&gt; для заливки." />
    <inkscape:path-effect
       effect="interpolate"
       id="path-effect1219"
       is_visible="true"
       lpeversion="1"
       trajectory="M 0,0 V 0"
       equidistant_spacing="true"
       steps="5" />
    <inkscape:path-effect
       effect="interpolate"
       id="path-effect950"
       is_visible="true"
       lpeversion="1"
       trajectory="#path1129"
       equidistant_spacing="true"
       steps="6" />
  </defs>
  <g
     inkscape:label="Layer_I"
     inkscape:groupmode="layer"
     id="layer1"
     sodipodi:insensitive="true">
    <rect
       style="fill:#ff9955;fill-opacity:0;stroke:none;stroke-width:10"
       id="rect846"
       width="3840"
       height="2160"
       x="0"
       y="0"
       rx="0"
       ry="0"
       sodipodi:insensitive="true"
       inkscape:label="Background" />
  </g>
  <g
     inkscape:groupmode="layer"
     id="layer2"
     inkscape:label="Layer_II">
    <path
       style="fill:none;fill-rule:evenodd;stroke:#ffcc00;stroke-width:3.56948;stroke-linecap:round;stroke-linejoin:round;stroke-miterlimit:4;stroke-dasharray:none;paint-order:stroke markers fill"
       sodipodi:type="inkscape:offset"
       inkscape:radius="-8.4813328"
       inkscape:original="M 133.29883 13.435547 C 127.95711 13.622682 122.64441 14.582176 117.49609 16.25 L 110.45117 39.369141 C 116.84281 40.647781 122.39472 43.593444 127.11719 47.484375 C 137.3482 38.877957 150.6826 33.851021 164.64453 34.429688 C 171.32681 34.706641 177.65265 36.202707 183.52148 38.605469 L 184.62891 37.884766 C 184.59355 37.837938 184.55698 37.790871 184.52148 37.744141 C 172.19663 21.509191 152.63131 12.758277 133.29883 13.435547 z M 183.52148 38.605469 L 163.34961 51.759766 C 167.42864 56.871577 169.80048 62.718241 170.93164 68.751953 C 184.26885 68.773974 197.69595 73.545448 208.02148 83.015625 C 212.96386 87.548575 216.85212 92.784265 219.8125 98.419922 L 221.12305 98.582031 C 221.12605 98.523311 221.12786 98.46498 221.13086 98.40625 C 222.32243 72.362941 206.66181 48.079357 183.52148 38.605469 z M 219.8125 98.419922 L 195.95508 95.453125 C 195.81307 102.0069 193.8922 108.01924 190.90234 113.37305 C 201.10554 122.01304 208.34325 134.34653 210.20117 148.27734 C 211.09041 154.94494 210.72416 161.4722 209.39062 167.70312 L 210.28906 168.67383 C 210.32875 168.63069 210.3687 168.58607 210.4082 168.54297 C 227.96366 149.36347 231.48376 120.63838 219.8125 98.419922 z M 209.39062 167.70312 L 193.00781 150.00586 C 188.71069 154.93467 183.39943 158.29863 177.6875 160.4668 C 179.98188 173.68193 177.64314 187.80911 170.16406 199.68164 C 166.58426 205.36433 162.13439 210.12806 157.13086 214.03906 L 157.19922 215.36328 C 157.2572 215.35608 157.31505 215.3488 157.37305 215.3418 C 183.07832 211.99979 204.13287 192.26983 209.39062 167.70312 z M 157.13086 214.03906 L 155.89062 189.89062 C 149.44949 190.88796 143.22959 190.02984 137.46875 187.99805 C 130.78123 199.60533 119.96141 208.91632 106.64453 213.17578 C 100.27121 215.21431 93.818109 215.98491 87.486328 215.74609 L 86.691406 216.80469 C 86.740546 216.83659 86.790624 216.86674 86.839844 216.89844 C 108.66686 230.95785 137.40376 229.45871 157.13086 214.03906 z M 87.486328 215.74609 L 101.9668 196.44531 C 96.39522 193.04482 92.179098 188.36706 89.064453 183.08594 C 76.52436 187.6531 62.285902 187.79007 49.363281 182.44336 C 43.178503 179.88442 37.742632 176.30193 33.044922 172.02539 L 31.759766 172.32227 C 31.777066 172.3784 31.793097 172.43413 31.810547 172.49023 C 39.54646 197.373 62.519934 214.80444 87.486328 215.74609 z M 33.044922 172.02539 L 56.472656 166.60352 C 54.377456 160.39569 54.135655 154.08528 55.125 148.02539 C 42.600023 143.41632 31.605538 134.31615 25.123047 121.86523 C 22.020484 115.90615 20.145002 109.64737 19.279297 103.33398 L 18.105469 102.73047 C 18.082829 102.78467 18.059599 102.83828 18.037109 102.89258 C 8.0616757 126.95569 14.520971 155.16221 33.044922 172.02539 z M 19.279297 103.33398 L 40.691406 114.32617 C 43.053377 108.21643 46.901165 103.22894 51.53125 99.226562 C 44.881089 87.597461 42.27453 73.517113 45.265625 59.787109 C 46.697159 53.215954 49.259217 47.208733 52.630859 41.8125 L 52.117188 40.591797 C 52.065197 40.618667 52.014801 40.644855 51.962891 40.671875 C 28.943753 52.655685 15.865726 78.439588 19.279297 103.33398 z M 52.630859 41.8125 L 62.007812 64.078125 C 67.721597 60.924931 73.858347 59.591999 79.962891 59.519531 C 82.300396 46.311933 89.302005 33.839523 100.36719 25.255859 C 105.66304 21.147671 111.46488 18.20384 117.49609 16.25 L 117.88281 14.982422 C 117.82582 14.969392 117.76794 14.956169 117.71094 14.943359 C 92.419244 9.2406626 65.924897 20.535712 52.630859 41.8125 z M 79.962891 59.519531 C 78.193093 69.519412 79.1162 79.914105 83.166016 89.433594 C 86.994148 89.819429 90.809252 90.539989 94.480469 92.007812 C 101.56938 94.842097 107.31727 99.456809 111.89258 104.98438 C 109.41252 98.791595 108.04973 92.089279 108.29492 85.177734 C 108.45186 80.754056 109.23786 76.51765 110.45508 72.470703 C 102.39737 64.158796 91.306931 59.384864 79.962891 59.519531 z M 110.45508 72.470703 C 113.14089 75.241245 115.60234 78.259934 117.47656 81.757812 C 121.09486 88.510682 122.55014 95.760361 122.52344 102.95117 C 124.58126 96.605624 127.82037 90.591697 132.42383 85.457031 C 135.37094 82.169842 138.68066 79.434219 142.19922 77.121094 C 141.33833 65.543784 135.8938 54.715592 127.11719 47.484375 C 119.37083 54.000677 113.43607 62.559631 110.45508 72.470703 z M 142.19922 77.121094 C 142.48617 80.98001 142.44218 84.884028 141.64258 88.775391 C 140.09855 96.289573 136.58035 102.78341 131.96289 108.27539 C 137.59535 104.74358 143.92114 102.22875 150.73047 101.27148 C 155.08972 100.65866 159.37244 100.70375 163.54688 101.20703 C 170.28593 91.78156 173.03397 79.965955 170.93164 68.751953 C 160.83307 68.73528 150.81668 71.455911 142.19922 77.121094 z M 163.54688 101.20703 C 161.30062 104.34872 158.77125 107.31137 155.67188 109.77539 C 149.6886 114.53213 142.84383 117.23089 135.79883 118.45312 C 142.36936 119.38954 148.81951 121.55407 154.64648 125.22266 C 158.37685 127.57124 161.63003 130.37514 164.50586 133.45898 C 175.69101 130.59587 185.34637 123.3219 190.90234 113.37305 C 183.17786 106.83201 173.76723 102.43923 163.54688 101.20703 z M 164.50586 133.45898 C 160.77737 134.41338 156.947 135.04797 152.99805 134.93164 C 145.37331 134.70701 138.40331 132.34839 132.22461 128.72852 C 136.66087 133.69465 140.22009 139.52246 142.33984 146.10156 C 143.69679 150.31312 144.39871 154.56481 144.63086 158.78711 C 155.02858 163.82523 167.07382 164.49559 177.6875 160.4668 C 175.95027 150.46074 171.54879 141.01135 164.50586 133.45898 z M 144.63086 158.78711 C 141.16458 157.10756 137.82586 155.11702 134.875 152.47461 C 129.17796 147.37308 125.34569 141.06034 122.92578 134.29297 C 123.15016 140.96465 122.15055 147.73106 119.57031 154.14062 C 117.91832 158.24435 115.73931 161.95518 113.21875 165.33984 C 117.96454 175.9217 126.76346 184.2224 137.46875 187.99805 C 142.53167 179.21052 145.19927 169.12509 144.63086 158.78711 z M 113.21875 165.33984 C 111.63648 161.8118 110.35121 158.12781 109.7793 154.19531 C 108.67531 146.60431 109.77348 139.29138 112.24414 132.54297 C 108.15265 137.79819 103.06228 142.3347 96.990234 145.57617 C 93.102157 147.65176 89.062676 149.08568 84.96875 150.04883 C 81.841943 161.22328 83.276635 173.27224 89.064453 183.08594 C 98.559261 179.62789 107.04723 173.6271 113.21875 165.33984 z M 84.96875 150.04883 C 86.011268 146.32312 87.382038 142.6694 89.457031 139.28711 C 93.462797 132.75762 98.977563 127.86521 105.18359 124.29297 C 98.68951 125.67437 91.892577 125.86107 85.167969 124.41797 C 80.86412 123.49436 76.85246 121.97875 73.101562 120.07031 C 63.564669 126.60839 56.963299 136.76552 55.125 148.02539 C 64.608211 151.51512 74.945213 152.407 84.96875 150.04883 z M 73.101562 120.07031 C 76.280565 117.89093 79.663858 115.97766 83.414062 114.72852 C 90.655106 112.31662 98.006231 112.13434 105.04297 113.41016 C 99.186191 110.26974 93.859528 106.01709 89.630859 100.56445 C 86.923889 97.073961 84.81984 93.321069 83.166016 89.433594 C 71.681903 88.276117 60.135102 91.789138 51.53125 99.226562 C 56.566148 108.03106 63.915619 115.39656 73.101562 120.07031 z M 105.04297 113.41016 C 109.61595 115.8622 114.51519 117.57254 119.56445 118.47656 C 115.05224 115.95587 110.12913 114.33232 105.04297 113.41016 z M 119.56445 118.47656 C 119.65407 118.52662 119.731 118.5978 119.82031 118.64844 C 119.84015 118.63679 119.86299 118.63082 119.88281 118.61914 C 119.87456 118.59695 119.87156 118.57296 119.86328 118.55078 C 119.76221 118.53335 119.66543 118.49464 119.56445 118.47656 z M 119.86328 118.55078 C 119.8863 118.55475 119.90862 118.56247 119.93164 118.56641 C 119.93947 118.54415 119.95314 118.52422 119.96094 118.50195 C 119.89438 118.42293 119.84341 118.33141 119.77734 118.25195 C 119.81418 118.34872 119.82705 118.45377 119.86328 118.55078 z M 119.77734 118.25195 C 117.93186 113.4041 115.199 108.97897 111.89258 104.98438 C 113.82863 109.81877 116.48749 114.2953 119.77734 118.25195 z M 119.96094 118.50195 C 119.97628 118.52017 119.98658 118.54235 120.00195 118.56055 C 120.02199 118.54867 120.04443 118.5412 120.06445 118.5293 C 120.06396 118.42556 120.08577 118.3225 120.08594 118.21875 C 120.05245 118.31631 119.99504 118.40459 119.96094 118.50195 z M 120.08594 118.21875 C 121.77079 113.31029 122.50413 108.15068 122.52344 102.95117 C 120.91594 107.9081 120.09417 113.05869 120.08594 118.21875 z M 120.06445 118.5293 C 120.06456 118.55211 120.06041 118.57484 120.06055 118.59766 C 120.08311 118.60145 120.10439 118.61147 120.12695 118.61523 C 120.19236 118.53607 120.27393 118.47134 120.33984 118.39258 C 120.25209 118.44551 120.15255 118.47691 120.06445 118.5293 z M 120.33984 118.39258 C 124.76625 115.72259 128.62574 112.24458 131.96289 108.27539 C 127.56472 111.03325 123.643 114.44558 120.33984 118.39258 z M 120.12695 118.61523 C 120.112 118.63334 120.09306 118.64789 120.07812 118.66602 C 120.0932 118.68377 120.10404 118.70493 120.11914 118.72266 C 120.22025 118.70422 120.32454 118.70724 120.42578 118.68945 C 120.32453 118.67323 120.22811 118.6321 120.12695 118.61523 z M 120.42578 118.68945 C 125.52475 119.50634 130.7041 119.33701 135.79883 118.45312 C 130.66636 117.72166 125.47938 117.80144 120.42578 118.68945 z M 120.11914 118.72266 C 120.09658 118.72677 120.07333 118.72633 120.05078 118.73047 C 120.05099 118.75393 120.04663 118.77732 120.04688 118.80078 C 120.13623 118.85211 120.2137 118.92271 120.30273 118.97461 C 120.23492 118.89601 120.18647 118.8017 120.11914 118.72266 z M 120.30273 118.97461 C 123.68539 122.89502 127.75933 126.11247 132.22461 128.72852 C 128.76148 124.85175 124.73954 121.56085 120.30273 118.97461 z M 120.04688 118.80078 C 120.02653 118.7891 120.00864 118.77337 119.98828 118.76172 C 119.9734 118.77988 119.95431 118.79431 119.93945 118.8125 C 119.97515 118.90972 119.9903 119.01387 120.02539 119.11133 C 120.02367 119.00763 120.04794 118.9045 120.04688 118.80078 z M 120.02539 119.11133 C 120.11135 124.30185 121.17675 129.40174 122.92578 134.29297 C 122.75058 129.08353 121.77155 123.96167 120.02539 119.11133 z M 119.93945 118.8125 C 119.93129 118.79027 119.92812 118.76636 119.91992 118.74414 C 119.89738 118.74835 119.87409 118.74772 119.85156 118.75195 C 119.81691 118.84913 119.76183 118.93819 119.72656 119.03516 C 119.79102 118.95523 119.87449 118.89202 119.93945 118.8125 z M 119.72656 119.03516 C 116.47459 123.06756 114.0303 127.66424 112.24414 132.54297 C 115.44001 128.43811 117.96433 123.88099 119.72656 119.03516 z M 119.85156 118.75195 C 119.8594 118.72998 119.8711 118.70949 119.87891 118.6875 C 119.85852 118.6759 119.84072 118.66001 119.82031 118.64844 C 119.73242 118.70004 119.6351 118.73411 119.54688 118.78516 C 119.64711 118.76565 119.7512 118.77082 119.85156 118.75195 z M 119.54688 118.78516 C 114.4787 119.77138 109.66979 121.71067 105.18359 124.29297 C 110.25401 123.21441 115.10105 121.3577 119.54688 118.78516 z M 119.87891 118.6875 C 119.88989 118.69375 119.89918 118.70273 119.91016 118.70898 C 119.90359 118.69122 119.90112 118.67206 119.89453 118.6543 C 119.89045 118.66582 119.883 118.67598 119.87891 118.6875 z M 119.89453 118.6543 C 119.90086 118.63641 119.9097 118.61945 119.91602 118.60156 C 119.90523 118.60792 119.8936 118.61279 119.88281 118.61914 C 119.88711 118.6307 119.89024 118.64274 119.89453 118.6543 z M 119.91602 118.60156 C 119.93282 118.59165 119.95196 118.58611 119.96875 118.57617 C 119.95615 118.57403 119.94424 118.56856 119.93164 118.56641 C 119.92738 118.5785 119.92028 118.58947 119.91602 118.60156 z M 119.96875 118.57617 C 119.98726 118.57932 120.00492 118.58671 120.02344 118.58984 C 120.01562 118.58061 120.00976 118.56979 120.00195 118.56055 C 119.99143 118.56678 119.97928 118.56994 119.96875 118.57617 z M 120.02344 118.58984 C 120.03579 118.60445 120.04427 118.62213 120.05664 118.63672 C 120.05655 118.62364 120.06063 118.61073 120.06055 118.59766 C 120.0481 118.59556 120.03588 118.59195 120.02344 118.58984 z M 120.05664 118.63672 C 120.05677 118.65564 120.05258 118.67444 120.05273 118.69336 C 120.06064 118.68375 120.07022 118.67562 120.07812 118.66602 C 120.07029 118.65679 120.06447 118.64595 120.05664 118.63672 z M 120.05273 118.69336 C 120.04074 118.70794 120.02565 118.71978 120.01367 118.73438 C 120.0259 118.73212 120.03855 118.73272 120.05078 118.73047 C 120.05067 118.71809 120.05283 118.70574 120.05273 118.69336 z M 120.01367 118.73438 C 119.99501 118.73782 119.97569 118.73677 119.95703 118.74023 C 119.968 118.7465 119.97732 118.75544 119.98828 118.76172 C 119.99616 118.7521 120.00578 118.74399 120.01367 118.73438 z M 119.95703 118.74023 C 119.94074 118.73092 119.92646 118.71828 119.91016 118.70898 C 119.91437 118.72038 119.91572 118.73274 119.91992 118.74414 C 119.93214 118.74186 119.94481 118.74251 119.95703 118.74023 z "
       xlink:href="#path2658"
       id="path2975"
       inkscape:href="#path2658"
       d="m 133.5957,21.912109 c -3.13858,0.109953 -6.26806,0.647915 -9.37695,1.376953 l -3.24219,10.638672 c 2.08779,0.907196 4.08826,1.928306 5.97266,3.09375 8.60054,-5.857821 18.65862,-9.652193 29.33594,-10.734375 -7.20448,-3.080926 -14.98,-4.645083 -22.68946,-4.375 z M 88.5625,24.591797 C 78.117563,27.886752 68.846773,34.275418 62.316406,42.960938 l 4.275391,10.148437 c 2.167693,-0.648258 4.34195,-1.155482 6.519531,-1.478516 2.818099,-9.982374 8.042231,-19.334162 15.451172,-27.039062 z m 95.50781,23.78125 -9.16797,5.978515 c 1.0323,2.06557 1.92283,4.163043 2.62696,6.296876 10.22238,1.060069 20.2405,4.587423 29.03515,10.53125 -5.03891,-9.775589 -12.89205,-17.845891 -22.49414,-22.806641 z m -57.10156,11.316406 c -2.80349,3.33155 -5.08487,7.040316 -6.78125,11.056641 1.71657,2.118276 3.36352,4.389088 4.76562,7.005859 0.39267,0.732826 0.65343,1.490861 1.00391,2.232422 0.0544,-0.06122 0.0976,-0.128429 0.15235,-0.189453 2.14939,-2.397419 4.48003,-4.454808 6.875,-6.363281 -1.01961,-5.028768 -3.03992,-9.737514 -6.01563,-13.742188 z m -91.203125,7.345703 c -5.854807,9.267332 -8.854428,20.123705 -8.310547,30.962891 l 9.69336,4.976563 c 1.255799,-1.91459 2.606369,-3.724786 4.082031,-5.392579 C 37.022986,88.154054 35.046567,77.66897 35.765625,67.035156 Z M 87.667969,68.9375 c -0.02586,4.385565 0.59522,8.720836 1.863281,12.910156 2.658504,0.513178 5.360117,1.190636 8.097656,2.285156 0.769027,0.307472 1.452992,0.71918 2.195313,1.060547 0.0031,-0.106527 -0.0096,-0.209765 -0.0059,-0.316406 0.114531,-3.228271 0.587061,-6.31358 1.203121,-9.326172 C 97.036813,72.368336 92.493022,70.075592 87.667969,68.9375 Z m 75.339841,9.041016 c -4.26635,0.735267 -8.37396,2.095283 -12.23047,4.066406 -0.0388,2.729373 -0.22852,5.528985 -0.82617,8.4375 -0.17369,0.845284 -0.46717,1.623962 -0.68164,2.447266 0.095,-0.01389 0.18412,-0.04326 0.2793,-0.05664 3.1669,-0.445201 6.25736,-0.517475 9.29883,-0.433594 2.42978,-4.521354 3.89162,-9.450208 4.16015,-14.460937 z M 75.435547,97.873047 c -4.226064,0.424931 -8.288408,1.698721 -12.001953,3.597653 2.776904,3.37697 6.015968,6.2964 9.65625,8.68555 2.358746,-1.32087 4.85532,-2.54556 7.644531,-3.47461 0.81446,-0.27129 1.631352,-0.40401 2.447266,-0.62891 -0.08021,-0.10186 -0.172374,-0.1884 -0.251953,-0.29101 -1.968331,-2.53806 -3.576395,-5.1947 -5.025391,-7.888673 -0.822018,0.02363 -1.654429,-0.08188 -2.46875,0 z m 127.724613,7.021483 c -0.53061,2.2448 -1.18898,4.4235 -2.01368,6.50977 7.14795,7.40292 12.5644,16.55889 15.50782,26.77539 2.35081,-10.72158 1.48166,-21.95297 -2.70508,-31.94336 z m -36.20508,5.61914 c -1.7683,2.05503 -3.6987,4.06618 -6.00586,5.90039 -0.68098,0.54139 -1.41079,0.95392 -2.10938,1.45117 0.10659,0.0661 0.21991,0.11279 0.32618,0.17969 2.70892,1.70549 5.11801,3.6467 7.39257,5.67578 4.73789,-1.89213 8.99715,-4.71806 12.39453,-8.38086 -3.74894,-2.21114 -7.77457,-3.83544 -11.99804,-4.82617 z m -46.06836,0.68164 -0.0566,0.0996 -0.18946,0.002 -0.11914,0.33398 -0.58007,-0.33008 -0.44532,0.004 -0.36132,0.21289 -0.12305,-0.20899 h -0.0469 l 0.002,0.30664 -0.26953,0.16016 -0.29883,-0.0508 -0.10156,-0.27149 -0.0781,0.0293 -0.0332,0.20508 -0.35547,-0.0586 -0.48828,0.18164 -0.39258,0.47656 -0.21289,-0.25 -0.15821,0.0586 -0.13085,-0.10937 -0.33008,0.28125 -0.26758,0.0996 0.0215,0.11133 -0.14062,0.11914 0.12891,0.34179 -0.67188,0.12305 -0.33398,0.28516 -0.13672,0.38476 -0.22071,-0.0781 -0.0332,0.0273 0.19336,0.22461 -0.11133,0.30859 -0.25781,0.15235 -0.24609,-0.14063 -0.0332,0.0586 0.10742,0.18164 -0.3164,0.1875 -0.25586,0.45117 0.004,0.60742 -0.31641,-0.0527 -0.0898,0.15625 -0.16796,0.002 -0.0703,0.42187 -0.13476,0.23633 0.084,0.0664 -0.0332,0.19336 0.31445,0.17773 -0.43164,0.52344 -0.0703,0.41211 0.14844,0.40039 -0.22852,0.084 -0.006,0.0293 0.29492,0.0488 0.11133,0.29687 -0.10937,0.30469 -0.26758,0.0488 0.01,0.0566 0.19532,0.0703 -0.11914,0.33789 0.0918,0.5 0.40625,0.47852 -0.28711,0.16797 0.0312,0.17383 -0.125,0.10742 0.21094,0.35742 0.0508,0.28516 0.11524,-0.002 0.0976,0.16797 0.3418,-0.0625 0.004,0.6543 0.22265,0.37891 0.37305,0.21289 -0.12305,0.21484 0.0156,0.0273 0.26367,-0.15429 0.26758,0.15234 0.11328,0.30469 -0.17578,0.21093 0.0527,0.043 0.19141,-0.0723 0.12305,0.33398 0.39843,0.33008 0.6211,0.10547 -0.11329,0.31641 0.12891,0.10546 -0.0273,0.16602 0.39843,0.14258 0.22461,0.18555 0.0879,-0.0742 0.18165,0.0644 0.22656,-0.27149 0.42969,0.50586 0.41796,0.14844 0.41407,-0.0762 0.0449,0.24023 0.041,0.0137 0.10352,-0.28907 0.30469,-0.0566 0.26953,0.15235 0.002,0.28515 0.0723,-0.002 0.10351,-0.18164 0.31446,0.17969 0.52734,-0.004 0.53711,-0.31641 0.11523,0.31055 0.16407,-0.002 0.0859,0.14844 0.40235,-0.15039 0.29101,-0.004 0.0195,-0.11328 0.17579,-0.0645 -0.002,-0.35742 0.65821,0.11133 0.42187,-0.1582 0.25977,-0.31446 0.18164,0.1504 0.0488,-0.0195 -0.10546,-0.28125 0.20117,-0.24414 0.29883,-0.0547 0.18554,0.21679 0.0566,-0.0469 -0.0391,-0.20703 0.35742,-0.0664 0.39063,-0.33398 0.20703,-0.58399 0.28711,0.16211 0.13086,-0.11328 0.16211,0.0586 0.21484,-0.3789 0.20899,-0.17774 -0.0567,-0.0937 0.0938,-0.16406 -0.23438,-0.27539 0.58398,-0.34375 0.21094,-0.37109 -0.004,-0.41993 0.24218,-0.002 0.0176,-0.0312 -0.26172,-0.14648 -0.002,-0.32227 0.19922,-0.24023 0.27734,0.0449 0.01,-0.0625 -0.16406,-0.13281 0.23437,-0.28321 0.082,-0.49414 -0.2168,-0.58398 0.32618,-0.0586 0.0293,-0.17578 0.15625,-0.0566 -0.0762,-0.41992 0.0449,-0.26953 -0.10156,-0.0352 -0.0352,-0.19531 -0.35351,-0.0606 0.22461,-0.63476 -0.0742,-0.41016 -0.27539,-0.32422 0.1875,-0.1582 -0.008,-0.0332 -0.29688,0.0547 -0.20508,-0.24218 -0.002,-0.32227 0.23633,-0.13867 -0.0293,-0.0508 -0.20898,0.002 -0.004,-0.36328 -0.25195,-0.43164 -0.55274,-0.31445 0.2168,-0.25977 -0.0859,-0.14648 0.0801,-0.14258 -0.31836,-0.26563 -0.15039,-0.2539 -0.10937,0.041 -0.14844,-0.125 -0.30274,0.17578 -0.22851,-0.61523 -0.33789,-0.28125 -0.41797,-0.0703 0.041,-0.24219 -0.0352,-0.0273 -0.19727,0.23829 -0.29687,-0.0508 -0.21094,-0.24609 0.0937,-0.26172 -0.0723,-0.0254 -0.15429,0.13086 -0.22657,-0.26758 -0.49023,-0.17382 -0.62109,0.11523 -0.002,-0.33789 -0.15429,-0.0547 -0.0312,-0.16797 -0.43164,0.004 z m -46.373048,18.72852 c -3.815717,3.41229 -6.862606,7.53889 -8.814453,12.15625 4.263579,0.78244 8.588709,0.9226 12.884765,0.40039 0.964395,-2.54627 2.097208,-5.10673 3.644532,-7.62891 0.456036,-0.74335 1.002599,-1.38194 1.490234,-2.08984 -0.110141,-0.0229 -0.219938,-0.0272 -0.330078,-0.0508 -3.123562,-0.67032 -6.0481,-1.66385 -8.875,-2.78711 z m -52.025391,3.62109 c 1.425908,10.89885 6.059644,21.16589 13.388672,29.11914 l 10.613281,-2.45703 C 46.222813,157.90808 46.09894,155.62771 46.164062,153.37695 36.931126,148.8752 28.72744,142.13266 22.488281,133.54492 Z m 138.630859,9.22852 c -2.66795,0.43042 -5.4318,0.7233 -8.37109,0.63672 -0.84117,-0.0248 -1.63763,-0.1789 -2.46485,-0.2461 0.038,0.11511 0.0917,0.22041 0.12891,0.33594 0.98869,3.06859 1.5955,6.12636 2.04101,9.16406 4.82571,1.61499 9.87563,2.20446 14.79883,1.60742 -1.46424,-4.13344 -3.51894,-7.9963 -6.13281,-11.49804 z m -59.91992,10.15429 c -0.0746,0.0403 -0.14002,0.0909 -0.21484,0.13086 -2.82882,1.51012 -5.713307,2.64162 -8.607427,3.61133 -0.749529,5.08217 -0.45008,10.21191 0.992188,15.00781 3.759119,-2.16142 7.157049,-4.85459 10.111329,-8.03711 -0.89332,-2.58239 -1.6659,-5.28268 -2.09375,-8.2246 -0.12198,-0.83875 -0.10971,-1.65601 -0.1875,-2.48829 z m 26.32617,4.12305 c -0.0338,0.0853 -0.0536,0.17263 -0.0879,0.25781 -1.20581,2.99536 -2.69842,5.7347 -4.30273,8.35547 2.6634,4.3665 6.15645,8.08809 10.30468,10.82227 1.50844,-4.10502 2.39466,-8.38522 2.625,-12.75195 -2.3298,-1.39947 -4.64356,-2.96771 -6.84765,-4.94141 -0.6144,-0.55017 -1.11324,-1.16962 -1.69141,-1.74219 z m 64.92578,4.83984 c -1.82154,1.35878 -3.6959,2.58767 -5.63867,3.64258 0.74817,10.32957 -0.97019,20.88964 -5.28906,30.65821 8.6687,-6.69243 15.19169,-15.87241 18.36914,-26.26368 z M 85.636719,192.96875 c -9.986917,2.52289 -20.628226,2.64777 -30.939453,0.0664 8.059719,7.47356 18.196405,12.3688 28.923828,13.72851 l 6.605468,-8.80469 c -1.66457,-1.57918 -3.207883,-3.23598 -4.589843,-4.99023 z m 55.572261,4.79687 c -6.04986,8.41328 -14.1467,15.40678 -23.73828,20.09766 10.94813,0.51233 21.84438,-2.2971 30.94141,-8.21094 l -0.56641,-11.03515 c -2.2605,-0.13539 -4.47821,-0.4064 -6.63672,-0.85157 z" />
    <path
       id="path2658"
       d="m 193.00873,150.00597 c -14.94374,17.1405 -41.56822,17.30275 -58.13439,2.46823 -19.38001,-17.35423 -19.48433,-48.01764 -2.45053,-67.017028 19.69773,-21.970714 54.26094,-22.010863 75.59691,-2.442342 24.42758,22.40401 24.3959,61.48476 2.38755,85.52909 -0.0395,0.0431 -0.0793,0.0865 -0.11899,0.12964 M 195.95481,95.454021 c -0.49387,22.792189 -20.78572,40.130369 -42.9562,39.477239 -25.93621,-0.76409 -45.61166,-24.18618 -44.70462,-49.753656 1.04889,-29.565998 27.50018,-51.943395 56.34981,-50.747692 33.02996,1.368959 57.98034,31.327025 56.48656,63.975422 -0.003,0.05873 -0.005,0.117452 -0.008,0.176172 M 163.35007,51.760029 c 14.18708,17.779141 9.72263,44.180537 -7.67832,58.014401 -20.35657,16.18359 -50.39679,10.96228 -66.040934,-9.20999 C 71.54008,77.237418 77.502606,42.993408 100.36682,25.256807 c 26.17725,-20.3066448 64.43514,-13.488965 84.1549,12.486954 0.0355,0.04673 0.0709,0.0935 0.10626,0.140328 m -74.17735,1.484807 c 22.22974,4.44704 35.68166,27.558144 31.19232,49.405988 C 136.39108,114.33366 110.04225,129.75624 85.166996,124.418 56.401489,118.24493 39.085318,88.157465 45.265697,59.787714 52.341619,27.307171 86.005721,7.7943955 117.71191,14.943414 c 0.057,0.01281 0.11405,0.02579 0.17104,0.03882 M 62.008716,64.078577 c 19.87086,-10.96588 44.944844,-1.959008 55.467734,17.679968 12.31024,22.974725 1.98171,51.824775 -20.48525,63.818415 -25.980577,13.86932 -58.473014,2.01665 -71.868337,-23.71173 -15.3363132,-29.456422 -2.017808,-66.169407 26.83914,-81.192393 0.05191,-0.02702 0.103846,-0.05398 0.155837,-0.08085 M 40.690845,114.32711 C 48.905028,93.079379 73.868683,83.767602 94.480027,92.008415 118.59228,101.64896 129.11688,130.42725 119.57075,154.14078 108.53171,181.56289 76.066575,193.49102 49.36337,182.44262 18.790854,169.79328 5.5318867,133.05849 18.03711,102.89293 c 0.02249,-0.0543 0.04507,-0.1085 0.06771,-0.1627 m 38.367059,63.87246 c -7.285998,-21.58754 5.886554,-44.8609 26.942075,-51.8742 24.631876,-8.20456 51.085026,7.03627 58.926476,31.37389 9.06778,28.14379 -8.17925,58.27141 -35.69561,67.07264 -31.503503,10.07653 -65.135924,-9.49144 -74.833759,-40.68478 -0.01745,-0.0561 -0.03481,-0.11228 -0.05211,-0.16841 M 101.9677,196.44497 C 82.590719,184.61866 77.808585,158.27361 89.456171,139.28777 103.08214,117.07713 133.08613,111.64914 154.64604,125.223 c 24.9317,15.69666 30.97284,49.92674 15.51854,74.45942 -17.69365,28.08746 -55.96254,34.84238 -83.325712,17.21697 -0.04922,-0.0317 -0.0984,-0.0634 -0.14754,-0.0953 m 69.198982,-26.91366 c -22.40127,3.46859 -42.90047,-13.62102 -46.11086,-35.6957 -3.75568,-25.82413 15.75994,-49.38111 40.95021,-52.92238 29.12977,-4.09509 55.63238,18.2208 59.47137,47.00581 4.39526,32.95598 -20.60365,62.87307 -52.82862,67.06272 -0.058,0.007 -0.11595,0.0152 -0.17393,0.0224"
       style="fill:none;fill-rule:evenodd;stroke:#ffcc00;stroke-width:6;stroke-linecap:round;stroke-linejoin:round;stroke-miterlimit:4;stroke-dasharray:none;paint-order:stroke markers fill" />
  </g>
</svg>
