<?xml version="1.0" encoding="UTF-8" standalone="no"?>
<!-- Created with Inkscape (http://www.inkscape.org/) -->

<svg
   width="240"
   height="240"
   viewBox="0 0 240 240"
   version="1.1"
   id="svg5"
   inkscape:version="1.1.1 (3bf5ae0d25, 2021-09-20)"
   sodipodi:docname="Patter_file51.svg"
   xmlns:inkscape="http://www.inkscape.org/namespaces/inkscape"
   xmlns:sodipodi="http://sodipodi.sourceforge.net/DTD/sodipodi-0.dtd"
   xmlns="http://www.w3.org/2000/svg"
   xmlns:svg="http://www.w3.org/2000/svg">
  <sodipodi:namedview
     id="namedview7"
     pagecolor="#ededed"
     bordercolor="#666666"
     borderopacity="1.0"
     inkscape:pageshadow="2"
     inkscape:pageopacity="0"
     inkscape:pagecheckerboard="0"
     inkscape:document-units="px"
     showgrid="false"
     units="px"
     scale-x="1"
     inkscape:showpageshadow="false"
     inkscape:snap-page="true"
     inkscape:snap-nodes="true"
     showguides="false"
     inkscape:guide-bbox="true"
     inkscape:zoom="3.3416667"
     inkscape:cx="120.14962"
     inkscape:cy="115.36159"
     inkscape:window-width="1920"
     inkscape:window-height="1047"
     inkscape:window-x="0"
     inkscape:window-y="0"
     inkscape:window-maximized="1"
     inkscape:current-layer="layer2">
    <sodipodi:guide
       position="120,120"
       orientation="0.70710678,-0.70710678"
       id="guide947"
       inkscape:label=""
       inkscape:locked="true"
       inkscape:color="rgb(0,0,255)" />
    <sodipodi:guide
       position="120,120"
       orientation="-0.70710678,-0.70710678"
       id="guide967"
       inkscape:label=""
       inkscape:locked="true"
       inkscape:color="rgb(0,0,255)" />
    <sodipodi:guide
       position="120,120"
       orientation="0,-1"
       id="guide1023" />
    <sodipodi:guide
       position="120,120"
       orientation="1,0"
       id="guide1043" />
    <inkscape:grid
       type="xygrid"
       id="grid1081"
       spacingx="20"
       spacingy="20"
       empspacing="2" />
  </sodipodi:namedview>
  <defs
     id="defs2" />
  <g
     inkscape:label="Layer_I"
     inkscape:groupmode="layer"
     id="layer1"
     sodipodi:insensitive="true">
    <rect
       style="fill:#ff9955;fill-opacity:0;stroke:none;stroke-width:10"
       id="rect846"
       width="3840"
       height="2160"
       x="0"
       y="0"
       rx="0"
       ry="0"
       sodipodi:insensitive="true"
       inkscape:label="Background" />
  </g>
  <g
     inkscape:groupmode="layer"
     id="layer2"
     inkscape:label="Layer_II">
    <g
       id="g6566"
       style="display:inline">
      <path
         style="display:inline;fill:#536c5d;stroke:#000000;stroke-width:1px;stroke-linecap:butt;stroke-linejoin:miter;stroke-opacity:1"
         d="m 240,220 -20,-20 -20,20 -20,-20 -20,20 -20,-20 -20,20 -20,-20 -20,20 -20,-20 -20,20 -10,-10 -10,10 20,20 20,-20 20,20 20,-20 20,20 20,-20 20,20 20,-20 20,20 20,-20 10,10 z"
         id="path1595"
         sodipodi:nodetypes="ccccccccccccccccccccccccc" />
      <path
         style="display:inline;fill:#6f917c;stroke:#000000;stroke-width:1px;stroke-linecap:butt;stroke-linejoin:miter;stroke-opacity:1"
         d="m 230,190 -10,10 -20,-20 -20,20 -20,-20 -20,20 -20,-20 -20,20 -20,-20 -20,20 -10,-10 -10,10 20,20 20,-20 20,20 20,-20 20,20 20,-20 20,20 20,-20 20,20 20,-20 z"
         id="path4571"
         sodipodi:nodetypes="ccccccccccccccccccccccc" />
      <path
         style="display:inline;fill:#93ac9d;stroke:#000000;stroke-width:1px;stroke-linecap:butt;stroke-linejoin:miter;stroke-opacity:1"
         d="m 240,180 -20,-20 -20,20 -20,-20 -20,20 -20,-20 -20,20 -20,-20 -20,20 -10,-10 -10,10 20,20 20,-20 20,20 20,-20 20,20 20,-20 20,20 20,-20 10,10 z"
         id="path5041"
         sodipodi:nodetypes="ccccccccccccccccccccc" />
      <path
         style="display:inline;fill:#b7c8be;stroke:#000000;stroke-width:1px;stroke-linecap:butt;stroke-linejoin:miter;stroke-opacity:1"
         d="m 230,150 -10,10 -20,-20 -20,20 -20,-20 -20,20 -20,-20 -20,20 -10,-10 -10,10 20,20 20,-20 20,20 20,-20 20,20 20,-20 20,20 20,-20 z"
         id="path5364"
         sodipodi:nodetypes="ccccccccccccccccccc" />
      <path
         style="fill:#dbe3de;stroke:#000000;stroke-width:1px;stroke-linecap:butt;stroke-linejoin:miter;stroke-opacity:1"
         d="m 240,140 -20,-20 -20,20 -20,-20 -20,20 -20,-20 -20,20 -10,-10 -10,10 20,20 20,-20 20,20 20,-20 20,20 20,-20 10,10 z"
         id="path5673"
         sodipodi:nodetypes="ccccccccccccccccc" />
    </g>
    <g
       id="g6578"
       transform="rotate(90,120,120)"
       style="display:inline">
      <path
         style="display:inline;fill:#536c5d;stroke:#000000;stroke-width:1px;stroke-linecap:butt;stroke-linejoin:miter;stroke-opacity:1"
         d="m 240,220 -20,-20 -20,20 -20,-20 -20,20 -20,-20 -20,20 -20,-20 -20,20 -20,-20 -20,20 -10,-10 -10,10 20,20 20,-20 20,20 20,-20 20,20 20,-20 20,20 20,-20 20,20 20,-20 10,10 z"
         id="path6568"
         sodipodi:nodetypes="ccccccccccccccccccccccccc" />
      <path
         style="display:inline;fill:#6f917c;stroke:#000000;stroke-width:1px;stroke-linecap:butt;stroke-linejoin:miter;stroke-opacity:1"
         d="m 230,190 -10,10 -20,-20 -20,20 -20,-20 -20,20 -20,-20 -20,20 -20,-20 -20,20 -10,-10 -10,10 20,20 20,-20 20,20 20,-20 20,20 20,-20 20,20 20,-20 20,20 20,-20 z"
         id="path6570"
         sodipodi:nodetypes="ccccccccccccccccccccccc" />
      <path
         style="display:inline;fill:#93ac9d;stroke:#000000;stroke-width:1px;stroke-linecap:butt;stroke-linejoin:miter;stroke-opacity:1"
         d="m 240,180 -20,-20 -20,20 -20,-20 -20,20 -20,-20 -20,20 -20,-20 -20,20 -10,-10 -10,10 20,20 20,-20 20,20 20,-20 20,20 20,-20 20,20 20,-20 10,10 z"
         id="path6572"
         sodipodi:nodetypes="ccccccccccccccccccccc" />
      <path
         style="display:inline;fill:#b7c8be;stroke:#000000;stroke-width:1px;stroke-linecap:butt;stroke-linejoin:miter;stroke-opacity:1"
         d="m 230,150 -10,10 -20,-20 -20,20 -20,-20 -20,20 -20,-20 -20,20 -10,-10 -10,10 20,20 20,-20 20,20 20,-20 20,20 20,-20 20,20 20,-20 z"
         id="path6574"
         sodipodi:nodetypes="ccccccccccccccccccc" />
      <path
         style="fill:#dbe3de;stroke:#000000;stroke-width:1px;stroke-linecap:butt;stroke-linejoin:miter;stroke-opacity:1"
         d="m 240,140 -20,-20 -20,20 -20,-20 -20,20 -20,-20 -20,20 -10,-10 -10,10 20,20 20,-20 20,20 20,-20 20,20 20,-20 10,10 z"
         id="path6576"
         sodipodi:nodetypes="ccccccccccccccccc" />
    </g>
    <g
       id="g6688"
       transform="rotate(180,120,120)"
       style="display:inline">
      <path
         style="display:inline;fill:#536c5d;stroke:#000000;stroke-width:1px;stroke-linecap:butt;stroke-linejoin:miter;stroke-opacity:1"
         d="m 240,220 -20,-20 -20,20 -20,-20 -20,20 -20,-20 -20,20 -20,-20 -20,20 -20,-20 -20,20 -10,-10 -10,10 20,20 20,-20 20,20 20,-20 20,20 20,-20 20,20 20,-20 20,20 20,-20 10,10 z"
         id="path6678"
         sodipodi:nodetypes="ccccccccccccccccccccccccc" />
      <path
         style="display:inline;fill:#6f917c;stroke:#000000;stroke-width:1px;stroke-linecap:butt;stroke-linejoin:miter;stroke-opacity:1"
         d="m 230,190 -10,10 -20,-20 -20,20 -20,-20 -20,20 -20,-20 -20,20 -20,-20 -20,20 -10,-10 -10,10 20,20 20,-20 20,20 20,-20 20,20 20,-20 20,20 20,-20 20,20 20,-20 z"
         id="path6680"
         sodipodi:nodetypes="ccccccccccccccccccccccc" />
      <path
         style="display:inline;fill:#93ac9d;stroke:#000000;stroke-width:1px;stroke-linecap:butt;stroke-linejoin:miter;stroke-opacity:1"
         d="m 240,180 -20,-20 -20,20 -20,-20 -20,20 -20,-20 -20,20 -20,-20 -20,20 -10,-10 -10,10 20,20 20,-20 20,20 20,-20 20,20 20,-20 20,20 20,-20 10,10 z"
         id="path6682"
         sodipodi:nodetypes="ccccccccccccccccccccc" />
      <path
         style="display:inline;fill:#b7c8be;stroke:#000000;stroke-width:1px;stroke-linecap:butt;stroke-linejoin:miter;stroke-opacity:1"
         d="m 230,150 -10,10 -20,-20 -20,20 -20,-20 -20,20 -20,-20 -20,20 -10,-10 -10,10 20,20 20,-20 20,20 20,-20 20,20 20,-20 20,20 20,-20 z"
         id="path6684"
         sodipodi:nodetypes="ccccccccccccccccccc" />
      <path
         style="fill:#dbe3de;stroke:#000000;stroke-width:1px;stroke-linecap:butt;stroke-linejoin:miter;stroke-opacity:1"
         d="m 240,140 -20,-20 -20,20 -20,-20 -20,20 -20,-20 -20,20 -10,-10 -10,10 20,20 20,-20 20,20 20,-20 20,20 20,-20 10,10 z"
         id="path6686"
         sodipodi:nodetypes="ccccccccccccccccc" />
    </g>
    <g
       id="g6844"
       transform="rotate(-90,120,120)"
       style="display:inline">
      <path
         style="display:inline;fill:#536c5d;stroke:#000000;stroke-width:1px;stroke-linecap:butt;stroke-linejoin:miter;stroke-opacity:1"
         d="m 240,220 -20,-20 -20,20 -20,-20 -20,20 -20,-20 -20,20 -20,-20 -20,20 -20,-20 -20,20 -10,-10 -10,10 20,20 20,-20 20,20 20,-20 20,20 20,-20 20,20 20,-20 20,20 20,-20 10,10 z"
         id="path6834"
         sodipodi:nodetypes="ccccccccccccccccccccccccc" />
      <path
         style="display:inline;fill:#6f917c;stroke:#000000;stroke-width:1px;stroke-linecap:butt;stroke-linejoin:miter;stroke-opacity:1"
         d="m 230,190 -10,10 -20,-20 -20,20 -20,-20 -20,20 -20,-20 -20,20 -20,-20 -20,20 -10,-10 -10,10 20,20 20,-20 20,20 20,-20 20,20 20,-20 20,20 20,-20 20,20 20,-20 z"
         id="path6836"
         sodipodi:nodetypes="ccccccccccccccccccccccc" />
      <path
         style="display:inline;fill:#93ac9d;stroke:#000000;stroke-width:1px;stroke-linecap:butt;stroke-linejoin:miter;stroke-opacity:1"
         d="m 240,180 -20,-20 -20,20 -20,-20 -20,20 -20,-20 -20,20 -20,-20 -20,20 -10,-10 -10,10 20,20 20,-20 20,20 20,-20 20,20 20,-20 20,20 20,-20 10,10 z"
         id="path6838"
         sodipodi:nodetypes="ccccccccccccccccccccc" />
      <path
         style="display:inline;fill:#b7c8be;stroke:#000000;stroke-width:1px;stroke-linecap:butt;stroke-linejoin:miter;stroke-opacity:1"
         d="m 230,150 -10,10 -20,-20 -20,20 -20,-20 -20,20 -20,-20 -20,20 -10,-10 -10,10 20,20 20,-20 20,20 20,-20 20,20 20,-20 20,20 20,-20 z"
         id="path6840"
         sodipodi:nodetypes="ccccccccccccccccccc" />
      <path
         style="display:inline;fill:#dbe3de;stroke:#000000;stroke-width:1px;stroke-linecap:butt;stroke-linejoin:miter;stroke-opacity:1"
         d="m 240,140 -20,-20 -20,20 -20,-20 -20,20 -20,-20 -20,20 -10,-10 -10,10 20,20 20,-20 20,20 20,-20 20,20 20,-20 10,10 z"
         id="path6842"
         sodipodi:nodetypes="ccccccccccccccccc" />
    </g>
  </g>
</svg>
