<?xml version="1.0" encoding="UTF-8" standalone="no"?>
<!-- Created with Inkscape (http://www.inkscape.org/) -->

<svg
   width="240"
   height="240"
   viewBox="0 0 240 240"
   version="1.1"
   id="svg5"
   inkscape:version="1.1 (c4e8f9ed74, 2021-05-24)"
   sodipodi:docname="Lessons_62_.svg"
   xmlns:inkscape="http://www.inkscape.org/namespaces/inkscape"
   xmlns:sodipodi="http://sodipodi.sourceforge.net/DTD/sodipodi-0.dtd"
   xmlns="http://www.w3.org/2000/svg"
   xmlns:svg="http://www.w3.org/2000/svg">
  <sodipodi:namedview
     id="namedview7"
     pagecolor="#ededed"
     bordercolor="#666666"
     borderopacity="1.0"
     inkscape:pageshadow="2"
     inkscape:pageopacity="0"
     inkscape:pagecheckerboard="0"
     inkscape:document-units="px"
     showgrid="true"
     units="px"
     scale-x="1"
     inkscape:showpageshadow="false"
     inkscape:snap-page="true"
     inkscape:snap-nodes="false"
     inkscape:snap-grids="true"
     inkscape:zoom="3.3416667"
     inkscape:cx="146.78304"
     inkscape:cy="120"
     inkscape:window-width="1920"
     inkscape:window-height="1017"
     inkscape:window-x="0"
     inkscape:window-y="0"
     inkscape:window-maximized="1"
     inkscape:current-layer="layer2"
     inkscape:snap-intersection-paths="true"
     inkscape:snap-smooth-nodes="true"
     inkscape:snap-bbox="true"
     inkscape:bbox-nodes="true">
    <inkscape:grid
       type="xygrid"
       id="grid823"
       spacingx="20"
       spacingy="20"
       empspacing="4" />
  </sodipodi:namedview>
  <defs
     id="defs2" />
  <g
     inkscape:label="Layer_I"
     inkscape:groupmode="layer"
     id="layer1"
     sodipodi:insensitive="true">
    <rect
       style="fill:#ff9955;fill-opacity:0;stroke:none;stroke-width:10"
       id="rect846"
       width="3840"
       height="2160"
       x="0"
       y="0"
       rx="0"
       ry="0"
       sodipodi:insensitive="true"
       inkscape:label="Background" />
  </g>
  <g
     inkscape:groupmode="layer"
     id="layer2"
     inkscape:label="Layer_II">
    <g
       id="g1225"
       transform="matrix(0.58900579,0.30631559,-0.42940604,0.66994467,54.521127,36.059516)"
       style="stroke-width:1.37864">
      <path
         id="path982"
         style="fill:#ff6600;stroke:#0000ff;stroke-width:1.37864px;stroke-linecap:butt;stroke-linejoin:miter;stroke-opacity:1"
         sodipodi:type="inkscape:offset"
         inkscape:radius="3.6177742"
         inkscape:original="M 155.3418 95.792969 C 152.90758 95.732945 150.46408 96.723985 148.41797 98.007812 C 143.63774 101.03076 139.75012 105.20194 135.57227 108.96484 C 133.14358 111.17899 130.65831 113.3536 127.90234 115.15625 C 127.64894 115.31154 127.02594 115.70768 126.62305 115.93164 C 123.87973 117.53787 120.5491 118.58059 117.39648 117.64062 C 115.48114 117.13556 113.71432 116.19329 112.05664 115.12695 C 111.76006 114.93788 111.11267 114.4951 110.69141 114.19141 C 104.29978 109.56596 99.226813 103.37323 92.796875 98.798828 C 90.363109 97.131515 87.55596 95.674327 84.523438 95.796875 C 81.174504 95.946005 78.107419 98.258284 76.732422 101.26562 C 75.489402 104.09632 76.436305 107.32997 78 109.83203 C 80.728895 114.19722 84.612329 117.6546 88.232422 121.25781 C 91.597111 124.60154 95.163472 127.86986 97.636719 131.96289 C 98.793074 133.90718 99.670931 136.45281 98.5 138.5918 C 97.291409 140.98957 94.664592 142.30529 92.070312 142.52344 C 87.538389 142.97265 83.043118 141.81252 78.708984 140.61523 C 70.509971 138.26948 62.635485 134.86968 54.332031 132.88086 C 50.724827 132.0925 46.825486 131.43416 43.255859 132.73242 C 40.573724 133.68645 38.691481 136.2083 38.164062 138.95898 C 37.480317 141.8081 37.913124 145.0938 40.019531 147.26367 C 42.566352 149.93328 46.344998 150.8258 49.865234 151.36133 C 56.603708 152.27357 63.425122 151.93818 70.203125 151.88867 C 73.690905 151.83967 77.325995 151.8261 80.720703 151.9668 C 85.130631 152.21142 89.684804 152.52114 93.757812 154.37891 C 95.856319 155.32367 97.68869 157.18457 97.939453 159.55859 C 98.264126 161.08403 97.710596 162.74599 96.433594 163.67383 C 94.00669 165.53929 90.915739 166.18369 87.982422 166.80078 C 80.870286 168.19171 73.553986 168.40446 66.525391 170.23828 C 63.54691 171.08092 60.319451 172.34406 58.677734 175.14648 C 57.216301 177.7189 57.693556 181.12872 59.453125 183.43164 C 61.173092 185.64876 64.218265 186.1475 66.857422 185.85938 C 71.745987 185.32597 76.332804 183.41282 80.966797 181.88477 C 84.959486 180.55628 89.001718 179.06595 93.248047 178.89258 C 95.156925 178.82408 97.371489 179.333 98.353516 181.14648 C 99.647864 183.18029 98.943142 185.75914 97.824219 187.70117 C 95.615773 191.56165 92.345772 194.65519 89.224609 197.76953 C 85.452605 201.54233 81.37367 205.10486 78.380859 209.5625 C 76.710054 212.06288 75.50436 215.26583 76.546875 218.24609 C 77.532731 220.94974 79.932277 223.07475 82.666016 223.9043 C 86.006482 224.86314 89.451573 223.4273 92.212891 221.5918 C 97.296551 218.16802 101.44448 213.59299 106.04297 209.58203 C 107.96465 207.88463 109.9483 206.24746 112.09766 204.84375 C 112.35106 204.68846 112.97406 204.29232 113.37695 204.06836 C 116.12027 202.46213 119.4509 201.41942 122.60352 202.35938 C 124.51886 202.86443 126.28568 203.80671 127.94336 204.87305 C 128.23994 205.06212 128.88733 205.5049 129.30859 205.80859 C 135.70022 210.43404 140.77318 216.62676 147.20312 221.20117 C 149.97384 223.12397 153.36374 224.75556 156.81836 224.03711 C 159.75328 223.35086 162.35004 221.14994 163.42773 218.32422 C 164.5111 215.33676 163.31461 212.10122 161.63477 209.58594 C 158.63961 205.11358 154.54838 201.54415 150.76758 197.76172 C 147.66176 194.66394 144.41311 191.58415 142.20312 187.75195 C 141.08298 185.81328 140.34824 183.24821 141.61523 181.19922 C 142.59624 179.32979 144.87153 178.80801 146.82031 178.89453 C 151.05862 179.08445 155.09356 180.57465 159.08008 181.90234 C 163.7414 183.43907 168.35683 185.36577 173.2793 185.87305 C 175.88291 186.13205 178.86774 185.60922 180.55469 183.42383 C 182.50789 180.87844 182.84899 176.94904 180.79688 174.35156 C 178.64881 171.68448 175.20086 170.644 172 169.86523 C 164.36433 168.13649 156.44255 168.04646 148.85547 166.07227 C 146.6029 165.40163 144.12969 164.63722 142.64453 162.69336 C 141.54033 161.09841 141.95292 158.90875 142.82422 157.30469 C 144.34677 154.78363 147.33424 153.75611 150.04297 153.08008 C 153.49043 152.26562 157.12628 152.0398 160.57227 151.91797 C 169.56481 151.6301 178.57737 152.39203 187.55664 151.66211 C 191.34339 151.28078 195.32219 150.71101 198.53516 148.51758 C 200.92348 146.93375 202.3065 144.06003 202.125 141.20898 C 202.0399 138.15034 200.75318 134.88615 197.97852 133.32422 C 194.83285 131.54066 191.02653 131.87829 187.60156 132.47852 C 180.8362 133.79584 174.40867 136.36997 167.88477 138.52539 C 162.35468 140.34177 156.74924 142.25223 150.89648 142.61133 C 147.94947 142.75445 144.59251 142.35854 142.50977 140.0293 C 141.16675 138.64839 140.56563 136.58294 141.16797 134.72461 C 142.14609 131.44103 144.50234 128.81595 146.75195 126.32422 C 151.29118 121.38573 156.57065 117.12886 160.67188 111.79297 C 162.59235 109.23272 164.3119 106.07799 163.72461 102.76953 C 163.12187 99.721129 160.61325 97.276927 157.75781 96.232422 C 156.96373 95.950606 156.1532 95.812977 155.3418 95.792969 z "
         d="m 155.43164,92.175781 c -3.4749,-0.08568 -6.50104,1.240054 -8.93555,2.767578 a 3.618136,3.618136 0 0 0 -0.0117,0.0059 c -5.30195,3.352873 -9.31474,7.708071 -13.33399,11.328121 a 3.618136,3.618136 0 0 0 -0.0156,0.0137 c -2.38895,2.17791 -4.73245,4.21267 -7.20313,5.83007 -0.34609,0.21287 -0.87691,0.5431 -1.06641,0.64844 a 3.618136,3.618136 0 0 0 -0.0703,0.041 c -2.23065,1.30605 -4.58326,1.89458 -6.36523,1.36328 a 3.618136,3.618136 0 0 0 -0.11133,-0.0312 c -1.37301,-0.36205 -2.81515,-1.10042 -4.30469,-2.0586 a 3.618136,3.618136 0 0 0 -0.0117,-0.008 c -0.14924,-0.0951 -0.83966,-0.56452 -1.18945,-0.8164 l -0.006,-0.004 c -5.88343,-4.25924 -10.95999,-10.45841 -17.912109,-15.404298 a 3.618136,3.618136 0 0 0 -0.05273,-0.03711 C 92.148789,93.96954 88.655586,92.008736 84.376953,92.181641 a 3.618136,3.618136 0 0 0 -0.01367,0.002 c -4.911189,0.218698 -8.992515,3.35831 -10.921875,7.578125 a 3.618136,3.618136 0 0 0 -0.02148,0.04883 c -1.922768,4.378673 -0.446544,8.806043 1.511719,11.939453 3.091534,4.94528 7.22472,8.56537 10.748047,12.07227 a 3.618136,3.618136 0 0 0 0.002,0.002 c 3.430738,3.40937 6.731304,6.4967 8.849609,9.99609 0.853667,1.43917 1.01913,2.62559 0.794922,3.03516 a 3.618136,3.618136 0 0 0 -0.05664,0.10742 c -0.499675,0.99133 -1.914817,1.82162 -3.501953,1.95508 a 3.618136,3.618136 0 0 0 -0.05469,0.006 c -3.68002,0.36477 -7.727035,-0.60534 -12.007813,-1.78711 -7.899193,-2.25997 -15.823407,-5.68776 -24.53125,-7.77344 a 3.618136,3.618136 0 0 0 -0.07031,-0.0176 c -3.723915,-0.81386 -8.339765,-1.73156 -13.06836,-0.0176 -4.044444,1.44229 -6.63207,4.99625 -7.40039,8.87696 -0.883037,3.77873 -0.391553,8.29232 2.78125,11.56836 3.501076,3.66001 8.178387,4.59724 11.904296,5.16406 a 3.618136,3.618136 0 0 0 0.06055,0.01 c 7.176939,0.97159 14.173212,0.60736 20.84961,0.55859 a 3.618136,3.618136 0 0 0 0.02344,0 c 3.45858,-0.0486 7.030855,-0.0593 10.306641,0.0762 0.0031,1.3e-4 0.0067,-1.3e-4 0.0098,0 4.35869,0.2428 8.414074,0.59572 11.685547,2.08789 a 3.618136,3.618136 0 0 0 0.01758,0.008 c 1.195786,0.53835 1.990239,1.52215 2.068359,2.26172 a 3.618136,3.618136 0 0 0 0.05859,0.37305 c 0.03899,0.18322 -0.07656,0.4211 -0.09375,0.43359 a 3.618136,3.618136 0 0 0 -0.07813,0.0586 c -1.56437,1.20246 -4.039136,1.83304 -6.964844,2.44922 -6.715669,1.31061 -14.104913,1.51518 -21.652344,3.48437 a 3.618136,3.618136 0 0 0 -0.07031,0.0195 c -3.231028,0.91409 -7.537024,2.38291 -9.984375,6.56055 a 3.618136,3.618136 0 0 0 -0.02539,0.041 c -2.30679,4.06042 -1.567044,8.84844 1.046875,12.26953 a 3.618136,3.618136 0 0 0 0.01563,0.0195 c 2.826521,3.64352 7.270877,4.17622 10.65625,3.80664 5.573261,-0.60812 10.394235,-2.66562 14.849609,-4.13477 a 3.618136,3.618136 0 0 0 0.0098,-0.002 c 4.064025,-1.35223 7.784628,-2.6639 11.277344,-2.80859 1.154353,-0.0375 1.752822,0.29966 1.785156,0.35937 a 3.618136,3.618136 0 0 0 0.128906,0.2207 c 0.231254,0.36337 0.144003,1.49372 -0.611328,2.80469 a 3.618136,3.618136 0 0 0 -0.0059,0.01 c -1.857777,3.24749 -4.8461,6.14404 -8.013672,9.30468 a 3.618136,3.618136 0 0 0 -0.0039,0.002 c -3.655106,3.65587 -7.94553,7.35591 -11.289063,12.33594 a 3.618136,3.618136 0 0 0 -0.0039,0.006 c -2.01706,3.01856 -3.83655,7.32526 -2.240235,11.88868 a 3.618136,3.618136 0 0 0 0.01563,0.0449 c 1.424093,3.90549 4.653199,6.72167 8.466796,7.8789 a 3.618136,3.618136 0 0 0 0.05273,0.0156 c 4.895096,1.40508 9.354633,-0.65345 12.546875,-2.77539 a 3.618136,3.618136 0 0 0 0.01953,-0.0137 c 5.565927,-3.74858 9.803845,-8.45964 14.187505,-12.28321 a 3.618136,3.618136 0 0 0 0.0156,-0.0156 c 1.85839,-1.6415 3.70935,-3.15832 5.63086,-4.41406 0.003,-0.002 0.005,-0.004 0.008,-0.006 0.34631,-0.21306 0.87058,-0.53806 1.0586,-0.64258 a 3.618136,3.618136 0 0 0 0.0703,-0.041 c 2.23064,-1.30605 4.58325,-1.89458 6.36523,-1.36328 a 3.618136,3.618136 0 0 0 0.11133,0.0312 c 1.37299,0.36204 2.81515,1.10041 4.30469,2.0586 a 3.618136,3.618136 0 0 0 0.0117,0.008 c 0.14997,0.0956 0.84718,0.56934 1.19531,0.82031 5.88343,4.25924 10.95999,10.4584 17.91211,15.4043 a 3.618136,3.618136 0 0 0 0.0352,0.0254 c 3.11869,2.16428 7.42854,4.44112 12.41407,3.40429 a 3.618136,3.618136 0 0 0 0.0879,-0.0176 c 4.14411,-0.96899 7.62169,-3.89802 9.16601,-7.94727 a 3.618136,3.618136 0 0 0 0.0195,-0.0566 c 1.65981,-4.57702 -0.15054,-8.93339 -2.18554,-11.98047 a 3.618136,3.618136 0 0 0 -0.002,-0.004 c -3.34749,-4.99848 -7.65166,-8.70282 -11.31445,-12.36719 a 3.618136,3.618136 0 0 0 -0.004,-0.004 c -3.15005,-3.14189 -6.12183,-6.02614 -7.98438,-9.25586 a 3.618136,3.618136 0 0 0 -0.002,-0.004 c -0.77143,-1.33514 -0.87218,-2.4717 -0.64453,-2.83985 a 3.618136,3.618136 0 0 0 0.12695,-0.2207 c 0.0201,-0.0383 -0.008,-0.0618 0.31445,-0.18359 0.3219,-0.12163 0.93594,-0.21532 1.52539,-0.18946 3.49543,0.15663 7.21714,1.47329 11.2793,2.82617 a 3.618136,3.618136 0 0 0 0.01,0.004 c 4.48176,1.47754 9.33867,3.55537 14.96093,4.13477 a 3.618136,3.618136 0 0 0 0.0137,0 c 3.35185,0.33343 7.71838,-0.23946 10.49609,-3.83789 a 3.618136,3.618136 0 0 0 0.008,-0.008 c 2.92406,-3.8106 3.4822,-9.37447 0.20899,-13.51757 a 3.618136,3.618136 0 0 0 -0.0195,-0.0273 c -3.04603,-3.782 -7.41956,-4.91975 -10.75976,-5.73242 a 3.618136,3.618136 0 0 0 -0.0566,-0.0137 c -8.11701,-1.83772 -15.97694,-1.94299 -22.98438,-3.75782 -2.09883,-0.6303 -3.55764,-1.27834 -4.18164,-2.00195 0.0108,-0.0311 0.004,-0.717 0.34766,-1.44726 0.68891,-1.07169 2.48989,-1.92286 4.91601,-2.53125 3.03046,-0.71337 6.42444,-0.94518 9.79102,-1.06446 8.71124,-0.27886 17.78535,0.49661 27.16211,-0.26562 a 3.618136,3.618136 0 0 0 0.0703,-0.006 c 3.88623,-0.39135 8.51737,-0.94347 12.63281,-3.74414 3.50364,-2.33383 5.42393,-6.34413 5.17969,-10.48438 -0.12905,-3.9808 -1.76753,-8.48658 -5.97265,-10.85742 -4.4042,-2.49515 -9.13765,-1.89865 -12.78321,-1.25976 a 3.618136,3.618136 0 0 0 -0.0664,0.0117 c -7.20911,1.40373 -13.77479,4.05216 -20.1543,6.16016 -6.1e-4,2e-4 -0.001,-2e-4 -0.002,0 -0.001,4.4e-4 -0.003,0.002 -0.004,0.002 -5.54629,1.82172 -10.85058,3.58316 -16.05273,3.90625 -2.47965,0.1165 -4.56252,-0.34139 -5.49024,-1.3789 a 3.618136,3.618136 0 0 0 -0.10351,-0.10938 c -0.46213,-0.47516 -0.63636,-1.2292 -0.49414,-1.66797 a 3.618136,3.618136 0 0 0 0.0254,-0.082 c 0.6738,-2.26198 2.55312,-4.51657 4.79296,-6.99804 4.29261,-4.66759 9.66816,-8.97841 14.11329,-14.76172 a 3.618136,3.618136 0 0 0 0.0254,-0.0352 c 2.15445,-2.87219 4.58956,-6.93149 3.7207,-11.82617 a 3.618136,3.618136 0 0 0 -0.0137,-0.0684 C 166.37157,97.507114 162.92347,94.269169 159,92.833984 a 3.618136,3.618136 0 0 0 -0.0312,-0.01172 c -1.17547,-0.417171 -2.37634,-0.617862 -3.53711,-0.646485 z" />
      <path
         style="fill:#000080;stroke:#000000;stroke-width:1.37864px;stroke-linecap:butt;stroke-linejoin:miter;stroke-opacity:1"
         d="m 40,140 c 3.203645,-19.74175 49.485378,17.01302 60,0 7.83714,-12.68075 -30.540926,-29.45907 -20,-40 10.540926,-10.540926 25.09288,20 40,20 14.90712,0 29.45907,-30.540926 40,-20 10.54093,10.54093 -27.83714,27.31925 -20,40 10.51462,17.01302 56.79636,-19.74175 60,0 3.37694,20.80963 -58.50553,-1.02881 -60,20 -1.05675,14.86962 43.42495,5.49166 40,20 -3.06337,12.97665 -32.99025,-11.34201 -40,0 -7.83714,12.68075 30.54093,29.45907 20,40 -10.54093,10.54093 -25.09288,-20 -40,-20 -14.90712,0 -29.459074,30.54093 -40,20 -10.540926,-10.54093 27.83714,-27.31925 20,-40 -7.009748,-11.34201 -36.936628,12.97665 -40,0 -3.424954,-14.50834 41.05675,-5.13038 40,-20 -1.494472,-21.02881 -63.376938,0.80963 -60,-20 z"
         id="path1476"
         sodipodi:nodetypes="aaaaaaaaaaaaaaaaa" />
    </g>
    <g
       id="g1311"
       transform="matrix(-0.58900579,0.30631559,0.42940604,0.66994467,185.47887,36.059516)"
       style="stroke-width:1.37864">
      <path
         id="path1307"
         style="fill:#ff6600;stroke:#0000ff;stroke-width:1.37864px;stroke-linecap:butt;stroke-linejoin:miter;stroke-opacity:1"
         sodipodi:type="inkscape:offset"
         inkscape:radius="3.6177742"
         inkscape:original="M 155.3418 95.792969 C 152.90758 95.732945 150.46408 96.723985 148.41797 98.007812 C 143.63774 101.03076 139.75012 105.20194 135.57227 108.96484 C 133.14358 111.17899 130.65831 113.3536 127.90234 115.15625 C 127.64894 115.31154 127.02594 115.70768 126.62305 115.93164 C 123.87973 117.53787 120.5491 118.58059 117.39648 117.64062 C 115.48114 117.13556 113.71432 116.19329 112.05664 115.12695 C 111.76006 114.93788 111.11267 114.4951 110.69141 114.19141 C 104.29978 109.56596 99.226813 103.37323 92.796875 98.798828 C 90.363109 97.131515 87.55596 95.674327 84.523438 95.796875 C 81.174504 95.946005 78.107419 98.258284 76.732422 101.26562 C 75.489402 104.09632 76.436305 107.32997 78 109.83203 C 80.728895 114.19722 84.612329 117.6546 88.232422 121.25781 C 91.597111 124.60154 95.163472 127.86986 97.636719 131.96289 C 98.793074 133.90718 99.670931 136.45281 98.5 138.5918 C 97.291409 140.98957 94.664592 142.30529 92.070312 142.52344 C 87.538389 142.97265 83.043118 141.81252 78.708984 140.61523 C 70.509971 138.26948 62.635485 134.86968 54.332031 132.88086 C 50.724827 132.0925 46.825486 131.43416 43.255859 132.73242 C 40.573724 133.68645 38.691481 136.2083 38.164062 138.95898 C 37.480317 141.8081 37.913124 145.0938 40.019531 147.26367 C 42.566352 149.93328 46.344998 150.8258 49.865234 151.36133 C 56.603708 152.27357 63.425122 151.93818 70.203125 151.88867 C 73.690905 151.83967 77.325995 151.8261 80.720703 151.9668 C 85.130631 152.21142 89.684804 152.52114 93.757812 154.37891 C 95.856319 155.32367 97.68869 157.18457 97.939453 159.55859 C 98.264126 161.08403 97.710596 162.74599 96.433594 163.67383 C 94.00669 165.53929 90.915739 166.18369 87.982422 166.80078 C 80.870286 168.19171 73.553986 168.40446 66.525391 170.23828 C 63.54691 171.08092 60.319451 172.34406 58.677734 175.14648 C 57.216301 177.7189 57.693556 181.12872 59.453125 183.43164 C 61.173092 185.64876 64.218265 186.1475 66.857422 185.85938 C 71.745987 185.32597 76.332804 183.41282 80.966797 181.88477 C 84.959486 180.55628 89.001718 179.06595 93.248047 178.89258 C 95.156925 178.82408 97.371489 179.333 98.353516 181.14648 C 99.647864 183.18029 98.943142 185.75914 97.824219 187.70117 C 95.615773 191.56165 92.345772 194.65519 89.224609 197.76953 C 85.452605 201.54233 81.37367 205.10486 78.380859 209.5625 C 76.710054 212.06288 75.50436 215.26583 76.546875 218.24609 C 77.532731 220.94974 79.932277 223.07475 82.666016 223.9043 C 86.006482 224.86314 89.451573 223.4273 92.212891 221.5918 C 97.296551 218.16802 101.44448 213.59299 106.04297 209.58203 C 107.96465 207.88463 109.9483 206.24746 112.09766 204.84375 C 112.35106 204.68846 112.97406 204.29232 113.37695 204.06836 C 116.12027 202.46213 119.4509 201.41942 122.60352 202.35938 C 124.51886 202.86443 126.28568 203.80671 127.94336 204.87305 C 128.23994 205.06212 128.88733 205.5049 129.30859 205.80859 C 135.70022 210.43404 140.77318 216.62676 147.20312 221.20117 C 149.97384 223.12397 153.36374 224.75556 156.81836 224.03711 C 159.75328 223.35086 162.35004 221.14994 163.42773 218.32422 C 164.5111 215.33676 163.31461 212.10122 161.63477 209.58594 C 158.63961 205.11358 154.54838 201.54415 150.76758 197.76172 C 147.66176 194.66394 144.41311 191.58415 142.20312 187.75195 C 141.08298 185.81328 140.34824 183.24821 141.61523 181.19922 C 142.59624 179.32979 144.87153 178.80801 146.82031 178.89453 C 151.05862 179.08445 155.09356 180.57465 159.08008 181.90234 C 163.7414 183.43907 168.35683 185.36577 173.2793 185.87305 C 175.88291 186.13205 178.86774 185.60922 180.55469 183.42383 C 182.50789 180.87844 182.84899 176.94904 180.79688 174.35156 C 178.64881 171.68448 175.20086 170.644 172 169.86523 C 164.36433 168.13649 156.44255 168.04646 148.85547 166.07227 C 146.6029 165.40163 144.12969 164.63722 142.64453 162.69336 C 141.54033 161.09841 141.95292 158.90875 142.82422 157.30469 C 144.34677 154.78363 147.33424 153.75611 150.04297 153.08008 C 153.49043 152.26562 157.12628 152.0398 160.57227 151.91797 C 169.56481 151.6301 178.57737 152.39203 187.55664 151.66211 C 191.34339 151.28078 195.32219 150.71101 198.53516 148.51758 C 200.92348 146.93375 202.3065 144.06003 202.125 141.20898 C 202.0399 138.15034 200.75318 134.88615 197.97852 133.32422 C 194.83285 131.54066 191.02653 131.87829 187.60156 132.47852 C 180.8362 133.79584 174.40867 136.36997 167.88477 138.52539 C 162.35468 140.34177 156.74924 142.25223 150.89648 142.61133 C 147.94947 142.75445 144.59251 142.35854 142.50977 140.0293 C 141.16675 138.64839 140.56563 136.58294 141.16797 134.72461 C 142.14609 131.44103 144.50234 128.81595 146.75195 126.32422 C 151.29118 121.38573 156.57065 117.12886 160.67188 111.79297 C 162.59235 109.23272 164.3119 106.07799 163.72461 102.76953 C 163.12187 99.721129 160.61325 97.276927 157.75781 96.232422 C 156.96373 95.950606 156.1532 95.812977 155.3418 95.792969 z "
         d="m 155.43164,92.175781 c -3.4749,-0.08568 -6.50104,1.240054 -8.93555,2.767578 a 3.618136,3.618136 0 0 0 -0.0117,0.0059 c -5.30195,3.352873 -9.31474,7.708071 -13.33399,11.328121 a 3.618136,3.618136 0 0 0 -0.0156,0.0137 c -2.38895,2.17791 -4.73245,4.21267 -7.20313,5.83007 -0.34609,0.21287 -0.87691,0.5431 -1.06641,0.64844 a 3.618136,3.618136 0 0 0 -0.0703,0.041 c -2.23065,1.30605 -4.58326,1.89458 -6.36523,1.36328 a 3.618136,3.618136 0 0 0 -0.11133,-0.0312 c -1.37301,-0.36205 -2.81515,-1.10042 -4.30469,-2.0586 a 3.618136,3.618136 0 0 0 -0.0117,-0.008 c -0.14924,-0.0951 -0.83966,-0.56452 -1.18945,-0.8164 l -0.006,-0.004 c -5.88343,-4.25924 -10.95999,-10.45841 -17.912109,-15.404298 a 3.618136,3.618136 0 0 0 -0.05273,-0.03711 C 92.148789,93.96954 88.655586,92.008736 84.376953,92.181641 a 3.618136,3.618136 0 0 0 -0.01367,0.002 c -4.911189,0.218698 -8.992515,3.35831 -10.921875,7.578125 a 3.618136,3.618136 0 0 0 -0.02148,0.04883 c -1.922768,4.378673 -0.446544,8.806043 1.511719,11.939453 3.091534,4.94528 7.22472,8.56537 10.748047,12.07227 a 3.618136,3.618136 0 0 0 0.002,0.002 c 3.430738,3.40937 6.731304,6.4967 8.849609,9.99609 0.853667,1.43917 1.01913,2.62559 0.794922,3.03516 a 3.618136,3.618136 0 0 0 -0.05664,0.10742 c -0.499675,0.99133 -1.914817,1.82162 -3.501953,1.95508 a 3.618136,3.618136 0 0 0 -0.05469,0.006 c -3.68002,0.36477 -7.727035,-0.60534 -12.007813,-1.78711 -7.899193,-2.25997 -15.823407,-5.68776 -24.53125,-7.77344 a 3.618136,3.618136 0 0 0 -0.07031,-0.0176 c -3.723915,-0.81386 -8.339765,-1.73156 -13.06836,-0.0176 -4.044444,1.44229 -6.63207,4.99625 -7.40039,8.87696 -0.883037,3.77873 -0.391553,8.29232 2.78125,11.56836 3.501076,3.66001 8.178387,4.59724 11.904296,5.16406 a 3.618136,3.618136 0 0 0 0.06055,0.01 c 7.176939,0.97159 14.173212,0.60736 20.84961,0.55859 a 3.618136,3.618136 0 0 0 0.02344,0 c 3.45858,-0.0486 7.030855,-0.0593 10.306641,0.0762 0.0031,1.3e-4 0.0067,-1.3e-4 0.0098,0 4.35869,0.2428 8.414074,0.59572 11.685547,2.08789 a 3.618136,3.618136 0 0 0 0.01758,0.008 c 1.195786,0.53835 1.990239,1.52215 2.068359,2.26172 a 3.618136,3.618136 0 0 0 0.05859,0.37305 c 0.03899,0.18322 -0.07656,0.4211 -0.09375,0.43359 a 3.618136,3.618136 0 0 0 -0.07813,0.0586 c -1.56437,1.20246 -4.039136,1.83304 -6.964844,2.44922 -6.715669,1.31061 -14.104913,1.51518 -21.652344,3.48437 a 3.618136,3.618136 0 0 0 -0.07031,0.0195 c -3.231028,0.91409 -7.537024,2.38291 -9.984375,6.56055 a 3.618136,3.618136 0 0 0 -0.02539,0.041 c -2.30679,4.06042 -1.567044,8.84844 1.046875,12.26953 a 3.618136,3.618136 0 0 0 0.01563,0.0195 c 2.826521,3.64352 7.270877,4.17622 10.65625,3.80664 5.573261,-0.60812 10.394235,-2.66562 14.849609,-4.13477 a 3.618136,3.618136 0 0 0 0.0098,-0.002 c 4.064025,-1.35223 7.784628,-2.6639 11.277344,-2.80859 1.154353,-0.0375 1.752822,0.29966 1.785156,0.35937 a 3.618136,3.618136 0 0 0 0.128906,0.2207 c 0.231254,0.36337 0.144003,1.49372 -0.611328,2.80469 a 3.618136,3.618136 0 0 0 -0.0059,0.01 c -1.857777,3.24749 -4.8461,6.14404 -8.013672,9.30468 a 3.618136,3.618136 0 0 0 -0.0039,0.002 c -3.655106,3.65587 -7.94553,7.35591 -11.289063,12.33594 a 3.618136,3.618136 0 0 0 -0.0039,0.006 c -2.01706,3.01856 -3.83655,7.32526 -2.240235,11.88868 a 3.618136,3.618136 0 0 0 0.01563,0.0449 c 1.424093,3.90549 4.653199,6.72167 8.466796,7.8789 a 3.618136,3.618136 0 0 0 0.05273,0.0156 c 4.895096,1.40508 9.354633,-0.65345 12.546875,-2.77539 a 3.618136,3.618136 0 0 0 0.01953,-0.0137 c 5.565927,-3.74858 9.803845,-8.45964 14.187505,-12.28321 a 3.618136,3.618136 0 0 0 0.0156,-0.0156 c 1.85839,-1.6415 3.70935,-3.15832 5.63086,-4.41406 0.003,-0.002 0.005,-0.004 0.008,-0.006 0.34631,-0.21306 0.87058,-0.53806 1.0586,-0.64258 a 3.618136,3.618136 0 0 0 0.0703,-0.041 c 2.23064,-1.30605 4.58325,-1.89458 6.36523,-1.36328 a 3.618136,3.618136 0 0 0 0.11133,0.0312 c 1.37299,0.36204 2.81515,1.10041 4.30469,2.0586 a 3.618136,3.618136 0 0 0 0.0117,0.008 c 0.14997,0.0956 0.84718,0.56934 1.19531,0.82031 5.88343,4.25924 10.95999,10.4584 17.91211,15.4043 a 3.618136,3.618136 0 0 0 0.0352,0.0254 c 3.11869,2.16428 7.42854,4.44112 12.41407,3.40429 a 3.618136,3.618136 0 0 0 0.0879,-0.0176 c 4.14411,-0.96899 7.62169,-3.89802 9.16601,-7.94727 a 3.618136,3.618136 0 0 0 0.0195,-0.0566 c 1.65981,-4.57702 -0.15054,-8.93339 -2.18554,-11.98047 a 3.618136,3.618136 0 0 0 -0.002,-0.004 c -3.34749,-4.99848 -7.65166,-8.70282 -11.31445,-12.36719 a 3.618136,3.618136 0 0 0 -0.004,-0.004 c -3.15005,-3.14189 -6.12183,-6.02614 -7.98438,-9.25586 a 3.618136,3.618136 0 0 0 -0.002,-0.004 c -0.77143,-1.33514 -0.87218,-2.4717 -0.64453,-2.83985 a 3.618136,3.618136 0 0 0 0.12695,-0.2207 c 0.0201,-0.0383 -0.008,-0.0618 0.31445,-0.18359 0.3219,-0.12163 0.93594,-0.21532 1.52539,-0.18946 3.49543,0.15663 7.21714,1.47329 11.2793,2.82617 a 3.618136,3.618136 0 0 0 0.01,0.004 c 4.48176,1.47754 9.33867,3.55537 14.96093,4.13477 a 3.618136,3.618136 0 0 0 0.0137,0 c 3.35185,0.33343 7.71838,-0.23946 10.49609,-3.83789 a 3.618136,3.618136 0 0 0 0.008,-0.008 c 2.92406,-3.8106 3.4822,-9.37447 0.20899,-13.51757 a 3.618136,3.618136 0 0 0 -0.0195,-0.0273 c -3.04603,-3.782 -7.41956,-4.91975 -10.75976,-5.73242 a 3.618136,3.618136 0 0 0 -0.0566,-0.0137 c -8.11701,-1.83772 -15.97694,-1.94299 -22.98438,-3.75782 -2.09883,-0.6303 -3.55764,-1.27834 -4.18164,-2.00195 0.0108,-0.0311 0.004,-0.717 0.34766,-1.44726 0.68891,-1.07169 2.48989,-1.92286 4.91601,-2.53125 3.03046,-0.71337 6.42444,-0.94518 9.79102,-1.06446 8.71124,-0.27886 17.78535,0.49661 27.16211,-0.26562 a 3.618136,3.618136 0 0 0 0.0703,-0.006 c 3.88623,-0.39135 8.51737,-0.94347 12.63281,-3.74414 3.50364,-2.33383 5.42393,-6.34413 5.17969,-10.48438 -0.12905,-3.9808 -1.76753,-8.48658 -5.97265,-10.85742 -4.4042,-2.49515 -9.13765,-1.89865 -12.78321,-1.25976 a 3.618136,3.618136 0 0 0 -0.0664,0.0117 c -7.20911,1.40373 -13.77479,4.05216 -20.1543,6.16016 -6.1e-4,2e-4 -0.001,-2e-4 -0.002,0 -0.001,4.4e-4 -0.003,0.002 -0.004,0.002 -5.54629,1.82172 -10.85058,3.58316 -16.05273,3.90625 -2.47965,0.1165 -4.56252,-0.34139 -5.49024,-1.3789 a 3.618136,3.618136 0 0 0 -0.10351,-0.10938 c -0.46213,-0.47516 -0.63636,-1.2292 -0.49414,-1.66797 a 3.618136,3.618136 0 0 0 0.0254,-0.082 c 0.6738,-2.26198 2.55312,-4.51657 4.79296,-6.99804 4.29261,-4.66759 9.66816,-8.97841 14.11329,-14.76172 a 3.618136,3.618136 0 0 0 0.0254,-0.0352 c 2.15445,-2.87219 4.58956,-6.93149 3.7207,-11.82617 a 3.618136,3.618136 0 0 0 -0.0137,-0.0684 C 166.37157,97.507114 162.92347,94.269169 159,92.833984 a 3.618136,3.618136 0 0 0 -0.0312,-0.01172 c -1.17547,-0.417171 -2.37634,-0.617862 -3.53711,-0.646485 z" />
      <path
         style="fill:#000080;stroke:#000000;stroke-width:1.37864px;stroke-linecap:butt;stroke-linejoin:miter;stroke-opacity:1"
         d="m 40,140 c 3.203645,-19.74175 49.485378,17.01302 60,0 7.83714,-12.68075 -30.540926,-29.45907 -20,-40 10.540926,-10.540926 25.09288,20 40,20 14.90712,0 29.45907,-30.540926 40,-20 10.54093,10.54093 -27.83714,27.31925 -20,40 10.51462,17.01302 56.79636,-19.74175 60,0 3.37694,20.80963 -58.50553,-1.02881 -60,20 -1.05675,14.86962 43.42495,5.49166 40,20 -3.06337,12.97665 -32.99025,-11.34201 -40,0 -7.83714,12.68075 30.54093,29.45907 20,40 -10.54093,10.54093 -25.09288,-20 -40,-20 -14.90712,0 -29.459074,30.54093 -40,20 -10.540926,-10.54093 27.83714,-27.31925 20,-40 -7.009748,-11.34201 -36.936628,12.97665 -40,0 -3.424954,-14.50834 41.05675,-5.13038 40,-20 -1.494472,-21.02881 -63.376938,0.80963 -60,-20 z"
         id="path1309"
         sodipodi:nodetypes="aaaaaaaaaaaaaaaaa" />
    </g>
    <g
       id="g1317"
       transform="matrix(-0.58900579,-0.30631559,0.42940604,-0.66994467,185.47887,203.94049)"
       style="stroke-width:1.37864">
      <path
         id="path1313"
         style="fill:#ff6600;stroke:#0000ff;stroke-width:1.37864px;stroke-linecap:butt;stroke-linejoin:miter;stroke-opacity:1"
         sodipodi:type="inkscape:offset"
         inkscape:radius="3.6177742"
         inkscape:original="M 155.3418 95.792969 C 152.90758 95.732945 150.46408 96.723985 148.41797 98.007812 C 143.63774 101.03076 139.75012 105.20194 135.57227 108.96484 C 133.14358 111.17899 130.65831 113.3536 127.90234 115.15625 C 127.64894 115.31154 127.02594 115.70768 126.62305 115.93164 C 123.87973 117.53787 120.5491 118.58059 117.39648 117.64062 C 115.48114 117.13556 113.71432 116.19329 112.05664 115.12695 C 111.76006 114.93788 111.11267 114.4951 110.69141 114.19141 C 104.29978 109.56596 99.226813 103.37323 92.796875 98.798828 C 90.363109 97.131515 87.55596 95.674327 84.523438 95.796875 C 81.174504 95.946005 78.107419 98.258284 76.732422 101.26562 C 75.489402 104.09632 76.436305 107.32997 78 109.83203 C 80.728895 114.19722 84.612329 117.6546 88.232422 121.25781 C 91.597111 124.60154 95.163472 127.86986 97.636719 131.96289 C 98.793074 133.90718 99.670931 136.45281 98.5 138.5918 C 97.291409 140.98957 94.664592 142.30529 92.070312 142.52344 C 87.538389 142.97265 83.043118 141.81252 78.708984 140.61523 C 70.509971 138.26948 62.635485 134.86968 54.332031 132.88086 C 50.724827 132.0925 46.825486 131.43416 43.255859 132.73242 C 40.573724 133.68645 38.691481 136.2083 38.164062 138.95898 C 37.480317 141.8081 37.913124 145.0938 40.019531 147.26367 C 42.566352 149.93328 46.344998 150.8258 49.865234 151.36133 C 56.603708 152.27357 63.425122 151.93818 70.203125 151.88867 C 73.690905 151.83967 77.325995 151.8261 80.720703 151.9668 C 85.130631 152.21142 89.684804 152.52114 93.757812 154.37891 C 95.856319 155.32367 97.68869 157.18457 97.939453 159.55859 C 98.264126 161.08403 97.710596 162.74599 96.433594 163.67383 C 94.00669 165.53929 90.915739 166.18369 87.982422 166.80078 C 80.870286 168.19171 73.553986 168.40446 66.525391 170.23828 C 63.54691 171.08092 60.319451 172.34406 58.677734 175.14648 C 57.216301 177.7189 57.693556 181.12872 59.453125 183.43164 C 61.173092 185.64876 64.218265 186.1475 66.857422 185.85938 C 71.745987 185.32597 76.332804 183.41282 80.966797 181.88477 C 84.959486 180.55628 89.001718 179.06595 93.248047 178.89258 C 95.156925 178.82408 97.371489 179.333 98.353516 181.14648 C 99.647864 183.18029 98.943142 185.75914 97.824219 187.70117 C 95.615773 191.56165 92.345772 194.65519 89.224609 197.76953 C 85.452605 201.54233 81.37367 205.10486 78.380859 209.5625 C 76.710054 212.06288 75.50436 215.26583 76.546875 218.24609 C 77.532731 220.94974 79.932277 223.07475 82.666016 223.9043 C 86.006482 224.86314 89.451573 223.4273 92.212891 221.5918 C 97.296551 218.16802 101.44448 213.59299 106.04297 209.58203 C 107.96465 207.88463 109.9483 206.24746 112.09766 204.84375 C 112.35106 204.68846 112.97406 204.29232 113.37695 204.06836 C 116.12027 202.46213 119.4509 201.41942 122.60352 202.35938 C 124.51886 202.86443 126.28568 203.80671 127.94336 204.87305 C 128.23994 205.06212 128.88733 205.5049 129.30859 205.80859 C 135.70022 210.43404 140.77318 216.62676 147.20312 221.20117 C 149.97384 223.12397 153.36374 224.75556 156.81836 224.03711 C 159.75328 223.35086 162.35004 221.14994 163.42773 218.32422 C 164.5111 215.33676 163.31461 212.10122 161.63477 209.58594 C 158.63961 205.11358 154.54838 201.54415 150.76758 197.76172 C 147.66176 194.66394 144.41311 191.58415 142.20312 187.75195 C 141.08298 185.81328 140.34824 183.24821 141.61523 181.19922 C 142.59624 179.32979 144.87153 178.80801 146.82031 178.89453 C 151.05862 179.08445 155.09356 180.57465 159.08008 181.90234 C 163.7414 183.43907 168.35683 185.36577 173.2793 185.87305 C 175.88291 186.13205 178.86774 185.60922 180.55469 183.42383 C 182.50789 180.87844 182.84899 176.94904 180.79688 174.35156 C 178.64881 171.68448 175.20086 170.644 172 169.86523 C 164.36433 168.13649 156.44255 168.04646 148.85547 166.07227 C 146.6029 165.40163 144.12969 164.63722 142.64453 162.69336 C 141.54033 161.09841 141.95292 158.90875 142.82422 157.30469 C 144.34677 154.78363 147.33424 153.75611 150.04297 153.08008 C 153.49043 152.26562 157.12628 152.0398 160.57227 151.91797 C 169.56481 151.6301 178.57737 152.39203 187.55664 151.66211 C 191.34339 151.28078 195.32219 150.71101 198.53516 148.51758 C 200.92348 146.93375 202.3065 144.06003 202.125 141.20898 C 202.0399 138.15034 200.75318 134.88615 197.97852 133.32422 C 194.83285 131.54066 191.02653 131.87829 187.60156 132.47852 C 180.8362 133.79584 174.40867 136.36997 167.88477 138.52539 C 162.35468 140.34177 156.74924 142.25223 150.89648 142.61133 C 147.94947 142.75445 144.59251 142.35854 142.50977 140.0293 C 141.16675 138.64839 140.56563 136.58294 141.16797 134.72461 C 142.14609 131.44103 144.50234 128.81595 146.75195 126.32422 C 151.29118 121.38573 156.57065 117.12886 160.67188 111.79297 C 162.59235 109.23272 164.3119 106.07799 163.72461 102.76953 C 163.12187 99.721129 160.61325 97.276927 157.75781 96.232422 C 156.96373 95.950606 156.1532 95.812977 155.3418 95.792969 z "
         d="m 155.43164,92.175781 c -3.4749,-0.08568 -6.50104,1.240054 -8.93555,2.767578 a 3.618136,3.618136 0 0 0 -0.0117,0.0059 c -5.30195,3.352873 -9.31474,7.708071 -13.33399,11.328121 a 3.618136,3.618136 0 0 0 -0.0156,0.0137 c -2.38895,2.17791 -4.73245,4.21267 -7.20313,5.83007 -0.34609,0.21287 -0.87691,0.5431 -1.06641,0.64844 a 3.618136,3.618136 0 0 0 -0.0703,0.041 c -2.23065,1.30605 -4.58326,1.89458 -6.36523,1.36328 a 3.618136,3.618136 0 0 0 -0.11133,-0.0312 c -1.37301,-0.36205 -2.81515,-1.10042 -4.30469,-2.0586 a 3.618136,3.618136 0 0 0 -0.0117,-0.008 c -0.14924,-0.0951 -0.83966,-0.56452 -1.18945,-0.8164 l -0.006,-0.004 c -5.88343,-4.25924 -10.95999,-10.45841 -17.912109,-15.404298 a 3.618136,3.618136 0 0 0 -0.05273,-0.03711 C 92.148789,93.96954 88.655586,92.008736 84.376953,92.181641 a 3.618136,3.618136 0 0 0 -0.01367,0.002 c -4.911189,0.218698 -8.992515,3.35831 -10.921875,7.578125 a 3.618136,3.618136 0 0 0 -0.02148,0.04883 c -1.922768,4.378673 -0.446544,8.806043 1.511719,11.939453 3.091534,4.94528 7.22472,8.56537 10.748047,12.07227 a 3.618136,3.618136 0 0 0 0.002,0.002 c 3.430738,3.40937 6.731304,6.4967 8.849609,9.99609 0.853667,1.43917 1.01913,2.62559 0.794922,3.03516 a 3.618136,3.618136 0 0 0 -0.05664,0.10742 c -0.499675,0.99133 -1.914817,1.82162 -3.501953,1.95508 a 3.618136,3.618136 0 0 0 -0.05469,0.006 c -3.68002,0.36477 -7.727035,-0.60534 -12.007813,-1.78711 -7.899193,-2.25997 -15.823407,-5.68776 -24.53125,-7.77344 a 3.618136,3.618136 0 0 0 -0.07031,-0.0176 c -3.723915,-0.81386 -8.339765,-1.73156 -13.06836,-0.0176 -4.044444,1.44229 -6.63207,4.99625 -7.40039,8.87696 -0.883037,3.77873 -0.391553,8.29232 2.78125,11.56836 3.501076,3.66001 8.178387,4.59724 11.904296,5.16406 a 3.618136,3.618136 0 0 0 0.06055,0.01 c 7.176939,0.97159 14.173212,0.60736 20.84961,0.55859 a 3.618136,3.618136 0 0 0 0.02344,0 c 3.45858,-0.0486 7.030855,-0.0593 10.306641,0.0762 0.0031,1.3e-4 0.0067,-1.3e-4 0.0098,0 4.35869,0.2428 8.414074,0.59572 11.685547,2.08789 a 3.618136,3.618136 0 0 0 0.01758,0.008 c 1.195786,0.53835 1.990239,1.52215 2.068359,2.26172 a 3.618136,3.618136 0 0 0 0.05859,0.37305 c 0.03899,0.18322 -0.07656,0.4211 -0.09375,0.43359 a 3.618136,3.618136 0 0 0 -0.07813,0.0586 c -1.56437,1.20246 -4.039136,1.83304 -6.964844,2.44922 -6.715669,1.31061 -14.104913,1.51518 -21.652344,3.48437 a 3.618136,3.618136 0 0 0 -0.07031,0.0195 c -3.231028,0.91409 -7.537024,2.38291 -9.984375,6.56055 a 3.618136,3.618136 0 0 0 -0.02539,0.041 c -2.30679,4.06042 -1.567044,8.84844 1.046875,12.26953 a 3.618136,3.618136 0 0 0 0.01563,0.0195 c 2.826521,3.64352 7.270877,4.17622 10.65625,3.80664 5.573261,-0.60812 10.394235,-2.66562 14.849609,-4.13477 a 3.618136,3.618136 0 0 0 0.0098,-0.002 c 4.064025,-1.35223 7.784628,-2.6639 11.277344,-2.80859 1.154353,-0.0375 1.752822,0.29966 1.785156,0.35937 a 3.618136,3.618136 0 0 0 0.128906,0.2207 c 0.231254,0.36337 0.144003,1.49372 -0.611328,2.80469 a 3.618136,3.618136 0 0 0 -0.0059,0.01 c -1.857777,3.24749 -4.8461,6.14404 -8.013672,9.30468 a 3.618136,3.618136 0 0 0 -0.0039,0.002 c -3.655106,3.65587 -7.94553,7.35591 -11.289063,12.33594 a 3.618136,3.618136 0 0 0 -0.0039,0.006 c -2.01706,3.01856 -3.83655,7.32526 -2.240235,11.88868 a 3.618136,3.618136 0 0 0 0.01563,0.0449 c 1.424093,3.90549 4.653199,6.72167 8.466796,7.8789 a 3.618136,3.618136 0 0 0 0.05273,0.0156 c 4.895096,1.40508 9.354633,-0.65345 12.546875,-2.77539 a 3.618136,3.618136 0 0 0 0.01953,-0.0137 c 5.565927,-3.74858 9.803845,-8.45964 14.187505,-12.28321 a 3.618136,3.618136 0 0 0 0.0156,-0.0156 c 1.85839,-1.6415 3.70935,-3.15832 5.63086,-4.41406 0.003,-0.002 0.005,-0.004 0.008,-0.006 0.34631,-0.21306 0.87058,-0.53806 1.0586,-0.64258 a 3.618136,3.618136 0 0 0 0.0703,-0.041 c 2.23064,-1.30605 4.58325,-1.89458 6.36523,-1.36328 a 3.618136,3.618136 0 0 0 0.11133,0.0312 c 1.37299,0.36204 2.81515,1.10041 4.30469,2.0586 a 3.618136,3.618136 0 0 0 0.0117,0.008 c 0.14997,0.0956 0.84718,0.56934 1.19531,0.82031 5.88343,4.25924 10.95999,10.4584 17.91211,15.4043 a 3.618136,3.618136 0 0 0 0.0352,0.0254 c 3.11869,2.16428 7.42854,4.44112 12.41407,3.40429 a 3.618136,3.618136 0 0 0 0.0879,-0.0176 c 4.14411,-0.96899 7.62169,-3.89802 9.16601,-7.94727 a 3.618136,3.618136 0 0 0 0.0195,-0.0566 c 1.65981,-4.57702 -0.15054,-8.93339 -2.18554,-11.98047 a 3.618136,3.618136 0 0 0 -0.002,-0.004 c -3.34749,-4.99848 -7.65166,-8.70282 -11.31445,-12.36719 a 3.618136,3.618136 0 0 0 -0.004,-0.004 c -3.15005,-3.14189 -6.12183,-6.02614 -7.98438,-9.25586 a 3.618136,3.618136 0 0 0 -0.002,-0.004 c -0.77143,-1.33514 -0.87218,-2.4717 -0.64453,-2.83985 a 3.618136,3.618136 0 0 0 0.12695,-0.2207 c 0.0201,-0.0383 -0.008,-0.0618 0.31445,-0.18359 0.3219,-0.12163 0.93594,-0.21532 1.52539,-0.18946 3.49543,0.15663 7.21714,1.47329 11.2793,2.82617 a 3.618136,3.618136 0 0 0 0.01,0.004 c 4.48176,1.47754 9.33867,3.55537 14.96093,4.13477 a 3.618136,3.618136 0 0 0 0.0137,0 c 3.35185,0.33343 7.71838,-0.23946 10.49609,-3.83789 a 3.618136,3.618136 0 0 0 0.008,-0.008 c 2.92406,-3.8106 3.4822,-9.37447 0.20899,-13.51757 a 3.618136,3.618136 0 0 0 -0.0195,-0.0273 c -3.04603,-3.782 -7.41956,-4.91975 -10.75976,-5.73242 a 3.618136,3.618136 0 0 0 -0.0566,-0.0137 c -8.11701,-1.83772 -15.97694,-1.94299 -22.98438,-3.75782 -2.09883,-0.6303 -3.55764,-1.27834 -4.18164,-2.00195 0.0108,-0.0311 0.004,-0.717 0.34766,-1.44726 0.68891,-1.07169 2.48989,-1.92286 4.91601,-2.53125 3.03046,-0.71337 6.42444,-0.94518 9.79102,-1.06446 8.71124,-0.27886 17.78535,0.49661 27.16211,-0.26562 a 3.618136,3.618136 0 0 0 0.0703,-0.006 c 3.88623,-0.39135 8.51737,-0.94347 12.63281,-3.74414 3.50364,-2.33383 5.42393,-6.34413 5.17969,-10.48438 -0.12905,-3.9808 -1.76753,-8.48658 -5.97265,-10.85742 -4.4042,-2.49515 -9.13765,-1.89865 -12.78321,-1.25976 a 3.618136,3.618136 0 0 0 -0.0664,0.0117 c -7.20911,1.40373 -13.77479,4.05216 -20.1543,6.16016 -6.1e-4,2e-4 -0.001,-2e-4 -0.002,0 -0.001,4.4e-4 -0.003,0.002 -0.004,0.002 -5.54629,1.82172 -10.85058,3.58316 -16.05273,3.90625 -2.47965,0.1165 -4.56252,-0.34139 -5.49024,-1.3789 a 3.618136,3.618136 0 0 0 -0.10351,-0.10938 c -0.46213,-0.47516 -0.63636,-1.2292 -0.49414,-1.66797 a 3.618136,3.618136 0 0 0 0.0254,-0.082 c 0.6738,-2.26198 2.55312,-4.51657 4.79296,-6.99804 4.29261,-4.66759 9.66816,-8.97841 14.11329,-14.76172 a 3.618136,3.618136 0 0 0 0.0254,-0.0352 c 2.15445,-2.87219 4.58956,-6.93149 3.7207,-11.82617 a 3.618136,3.618136 0 0 0 -0.0137,-0.0684 C 166.37157,97.507114 162.92347,94.269169 159,92.833984 a 3.618136,3.618136 0 0 0 -0.0312,-0.01172 c -1.17547,-0.417171 -2.37634,-0.617862 -3.53711,-0.646485 z" />
      <path
         style="fill:#000080;stroke:#000000;stroke-width:1.37864px;stroke-linecap:butt;stroke-linejoin:miter;stroke-opacity:1"
         d="m 40,140 c 3.203645,-19.74175 49.485378,17.01302 60,0 7.83714,-12.68075 -30.540926,-29.45907 -20,-40 10.540926,-10.540926 25.09288,20 40,20 14.90712,0 29.45907,-30.540926 40,-20 10.54093,10.54093 -27.83714,27.31925 -20,40 10.51462,17.01302 56.79636,-19.74175 60,0 3.37694,20.80963 -58.50553,-1.02881 -60,20 -1.05675,14.86962 43.42495,5.49166 40,20 -3.06337,12.97665 -32.99025,-11.34201 -40,0 -7.83714,12.68075 30.54093,29.45907 20,40 -10.54093,10.54093 -25.09288,-20 -40,-20 -14.90712,0 -29.459074,30.54093 -40,20 -10.540926,-10.54093 27.83714,-27.31925 20,-40 -7.009748,-11.34201 -36.936628,12.97665 -40,0 -3.424954,-14.50834 41.05675,-5.13038 40,-20 -1.494472,-21.02881 -63.376938,0.80963 -60,-20 z"
         id="path1315"
         sodipodi:nodetypes="aaaaaaaaaaaaaaaaa" />
    </g>
    <g
       id="g1323"
       transform="matrix(0.58900579,-0.30631559,-0.42940604,-0.66994467,54.547559,203.91541)"
       style="stroke-width:1.37864">
      <path
         id="path1319"
         style="fill:#ff6600;stroke:#0000ff;stroke-width:1.37864px;stroke-linecap:butt;stroke-linejoin:miter;stroke-opacity:1"
         sodipodi:type="inkscape:offset"
         inkscape:radius="3.6177742"
         inkscape:original="M 155.3418 95.792969 C 152.90758 95.732945 150.46408 96.723985 148.41797 98.007812 C 143.63774 101.03076 139.75012 105.20194 135.57227 108.96484 C 133.14358 111.17899 130.65831 113.3536 127.90234 115.15625 C 127.64894 115.31154 127.02594 115.70768 126.62305 115.93164 C 123.87973 117.53787 120.5491 118.58059 117.39648 117.64062 C 115.48114 117.13556 113.71432 116.19329 112.05664 115.12695 C 111.76006 114.93788 111.11267 114.4951 110.69141 114.19141 C 104.29978 109.56596 99.226813 103.37323 92.796875 98.798828 C 90.363109 97.131515 87.55596 95.674327 84.523438 95.796875 C 81.174504 95.946005 78.107419 98.258284 76.732422 101.26562 C 75.489402 104.09632 76.436305 107.32997 78 109.83203 C 80.728895 114.19722 84.612329 117.6546 88.232422 121.25781 C 91.597111 124.60154 95.163472 127.86986 97.636719 131.96289 C 98.793074 133.90718 99.670931 136.45281 98.5 138.5918 C 97.291409 140.98957 94.664592 142.30529 92.070312 142.52344 C 87.538389 142.97265 83.043118 141.81252 78.708984 140.61523 C 70.509971 138.26948 62.635485 134.86968 54.332031 132.88086 C 50.724827 132.0925 46.825486 131.43416 43.255859 132.73242 C 40.573724 133.68645 38.691481 136.2083 38.164062 138.95898 C 37.480317 141.8081 37.913124 145.0938 40.019531 147.26367 C 42.566352 149.93328 46.344998 150.8258 49.865234 151.36133 C 56.603708 152.27357 63.425122 151.93818 70.203125 151.88867 C 73.690905 151.83967 77.325995 151.8261 80.720703 151.9668 C 85.130631 152.21142 89.684804 152.52114 93.757812 154.37891 C 95.856319 155.32367 97.68869 157.18457 97.939453 159.55859 C 98.264126 161.08403 97.710596 162.74599 96.433594 163.67383 C 94.00669 165.53929 90.915739 166.18369 87.982422 166.80078 C 80.870286 168.19171 73.553986 168.40446 66.525391 170.23828 C 63.54691 171.08092 60.319451 172.34406 58.677734 175.14648 C 57.216301 177.7189 57.693556 181.12872 59.453125 183.43164 C 61.173092 185.64876 64.218265 186.1475 66.857422 185.85938 C 71.745987 185.32597 76.332804 183.41282 80.966797 181.88477 C 84.959486 180.55628 89.001718 179.06595 93.248047 178.89258 C 95.156925 178.82408 97.371489 179.333 98.353516 181.14648 C 99.647864 183.18029 98.943142 185.75914 97.824219 187.70117 C 95.615773 191.56165 92.345772 194.65519 89.224609 197.76953 C 85.452605 201.54233 81.37367 205.10486 78.380859 209.5625 C 76.710054 212.06288 75.50436 215.26583 76.546875 218.24609 C 77.532731 220.94974 79.932277 223.07475 82.666016 223.9043 C 86.006482 224.86314 89.451573 223.4273 92.212891 221.5918 C 97.296551 218.16802 101.44448 213.59299 106.04297 209.58203 C 107.96465 207.88463 109.9483 206.24746 112.09766 204.84375 C 112.35106 204.68846 112.97406 204.29232 113.37695 204.06836 C 116.12027 202.46213 119.4509 201.41942 122.60352 202.35938 C 124.51886 202.86443 126.28568 203.80671 127.94336 204.87305 C 128.23994 205.06212 128.88733 205.5049 129.30859 205.80859 C 135.70022 210.43404 140.77318 216.62676 147.20312 221.20117 C 149.97384 223.12397 153.36374 224.75556 156.81836 224.03711 C 159.75328 223.35086 162.35004 221.14994 163.42773 218.32422 C 164.5111 215.33676 163.31461 212.10122 161.63477 209.58594 C 158.63961 205.11358 154.54838 201.54415 150.76758 197.76172 C 147.66176 194.66394 144.41311 191.58415 142.20312 187.75195 C 141.08298 185.81328 140.34824 183.24821 141.61523 181.19922 C 142.59624 179.32979 144.87153 178.80801 146.82031 178.89453 C 151.05862 179.08445 155.09356 180.57465 159.08008 181.90234 C 163.7414 183.43907 168.35683 185.36577 173.2793 185.87305 C 175.88291 186.13205 178.86774 185.60922 180.55469 183.42383 C 182.50789 180.87844 182.84899 176.94904 180.79688 174.35156 C 178.64881 171.68448 175.20086 170.644 172 169.86523 C 164.36433 168.13649 156.44255 168.04646 148.85547 166.07227 C 146.6029 165.40163 144.12969 164.63722 142.64453 162.69336 C 141.54033 161.09841 141.95292 158.90875 142.82422 157.30469 C 144.34677 154.78363 147.33424 153.75611 150.04297 153.08008 C 153.49043 152.26562 157.12628 152.0398 160.57227 151.91797 C 169.56481 151.6301 178.57737 152.39203 187.55664 151.66211 C 191.34339 151.28078 195.32219 150.71101 198.53516 148.51758 C 200.92348 146.93375 202.3065 144.06003 202.125 141.20898 C 202.0399 138.15034 200.75318 134.88615 197.97852 133.32422 C 194.83285 131.54066 191.02653 131.87829 187.60156 132.47852 C 180.8362 133.79584 174.40867 136.36997 167.88477 138.52539 C 162.35468 140.34177 156.74924 142.25223 150.89648 142.61133 C 147.94947 142.75445 144.59251 142.35854 142.50977 140.0293 C 141.16675 138.64839 140.56563 136.58294 141.16797 134.72461 C 142.14609 131.44103 144.50234 128.81595 146.75195 126.32422 C 151.29118 121.38573 156.57065 117.12886 160.67188 111.79297 C 162.59235 109.23272 164.3119 106.07799 163.72461 102.76953 C 163.12187 99.721129 160.61325 97.276927 157.75781 96.232422 C 156.96373 95.950606 156.1532 95.812977 155.3418 95.792969 z "
         d="m 155.43164,92.175781 c -3.4749,-0.08568 -6.50104,1.240054 -8.93555,2.767578 a 3.618136,3.618136 0 0 0 -0.0117,0.0059 c -5.30195,3.352873 -9.31474,7.708071 -13.33399,11.328121 a 3.618136,3.618136 0 0 0 -0.0156,0.0137 c -2.38895,2.17791 -4.73245,4.21267 -7.20313,5.83007 -0.34609,0.21287 -0.87691,0.5431 -1.06641,0.64844 a 3.618136,3.618136 0 0 0 -0.0703,0.041 c -2.23065,1.30605 -4.58326,1.89458 -6.36523,1.36328 a 3.618136,3.618136 0 0 0 -0.11133,-0.0312 c -1.37301,-0.36205 -2.81515,-1.10042 -4.30469,-2.0586 a 3.618136,3.618136 0 0 0 -0.0117,-0.008 c -0.14924,-0.0951 -0.83966,-0.56452 -1.18945,-0.8164 l -0.006,-0.004 c -5.88343,-4.25924 -10.95999,-10.45841 -17.912109,-15.404298 a 3.618136,3.618136 0 0 0 -0.05273,-0.03711 C 92.148789,93.96954 88.655586,92.008736 84.376953,92.181641 a 3.618136,3.618136 0 0 0 -0.01367,0.002 c -4.911189,0.218698 -8.992515,3.35831 -10.921875,7.578125 a 3.618136,3.618136 0 0 0 -0.02148,0.04883 c -1.922768,4.378673 -0.446544,8.806043 1.511719,11.939453 3.091534,4.94528 7.22472,8.56537 10.748047,12.07227 a 3.618136,3.618136 0 0 0 0.002,0.002 c 3.430738,3.40937 6.731304,6.4967 8.849609,9.99609 0.853667,1.43917 1.01913,2.62559 0.794922,3.03516 a 3.618136,3.618136 0 0 0 -0.05664,0.10742 c -0.499675,0.99133 -1.914817,1.82162 -3.501953,1.95508 a 3.618136,3.618136 0 0 0 -0.05469,0.006 c -3.68002,0.36477 -7.727035,-0.60534 -12.007813,-1.78711 -7.899193,-2.25997 -15.823407,-5.68776 -24.53125,-7.77344 a 3.618136,3.618136 0 0 0 -0.07031,-0.0176 c -3.723915,-0.81386 -8.339765,-1.73156 -13.06836,-0.0176 -4.044444,1.44229 -6.63207,4.99625 -7.40039,8.87696 -0.883037,3.77873 -0.391553,8.29232 2.78125,11.56836 3.501076,3.66001 8.178387,4.59724 11.904296,5.16406 a 3.618136,3.618136 0 0 0 0.06055,0.01 c 7.176939,0.97159 14.173212,0.60736 20.84961,0.55859 a 3.618136,3.618136 0 0 0 0.02344,0 c 3.45858,-0.0486 7.030855,-0.0593 10.306641,0.0762 0.0031,1.3e-4 0.0067,-1.3e-4 0.0098,0 4.35869,0.2428 8.414074,0.59572 11.685547,2.08789 a 3.618136,3.618136 0 0 0 0.01758,0.008 c 1.195786,0.53835 1.990239,1.52215 2.068359,2.26172 a 3.618136,3.618136 0 0 0 0.05859,0.37305 c 0.03899,0.18322 -0.07656,0.4211 -0.09375,0.43359 a 3.618136,3.618136 0 0 0 -0.07813,0.0586 c -1.56437,1.20246 -4.039136,1.83304 -6.964844,2.44922 -6.715669,1.31061 -14.104913,1.51518 -21.652344,3.48437 a 3.618136,3.618136 0 0 0 -0.07031,0.0195 c -3.231028,0.91409 -7.537024,2.38291 -9.984375,6.56055 a 3.618136,3.618136 0 0 0 -0.02539,0.041 c -2.30679,4.06042 -1.567044,8.84844 1.046875,12.26953 a 3.618136,3.618136 0 0 0 0.01563,0.0195 c 2.826521,3.64352 7.270877,4.17622 10.65625,3.80664 5.573261,-0.60812 10.394235,-2.66562 14.849609,-4.13477 a 3.618136,3.618136 0 0 0 0.0098,-0.002 c 4.064025,-1.35223 7.784628,-2.6639 11.277344,-2.80859 1.154353,-0.0375 1.752822,0.29966 1.785156,0.35937 a 3.618136,3.618136 0 0 0 0.128906,0.2207 c 0.231254,0.36337 0.144003,1.49372 -0.611328,2.80469 a 3.618136,3.618136 0 0 0 -0.0059,0.01 c -1.857777,3.24749 -4.8461,6.14404 -8.013672,9.30468 a 3.618136,3.618136 0 0 0 -0.0039,0.002 c -3.655106,3.65587 -7.94553,7.35591 -11.289063,12.33594 a 3.618136,3.618136 0 0 0 -0.0039,0.006 c -2.01706,3.01856 -3.83655,7.32526 -2.240235,11.88868 a 3.618136,3.618136 0 0 0 0.01563,0.0449 c 1.424093,3.90549 4.653199,6.72167 8.466796,7.8789 a 3.618136,3.618136 0 0 0 0.05273,0.0156 c 4.895096,1.40508 9.354633,-0.65345 12.546875,-2.77539 a 3.618136,3.618136 0 0 0 0.01953,-0.0137 c 5.565927,-3.74858 9.803845,-8.45964 14.187505,-12.28321 a 3.618136,3.618136 0 0 0 0.0156,-0.0156 c 1.85839,-1.6415 3.70935,-3.15832 5.63086,-4.41406 0.003,-0.002 0.005,-0.004 0.008,-0.006 0.34631,-0.21306 0.87058,-0.53806 1.0586,-0.64258 a 3.618136,3.618136 0 0 0 0.0703,-0.041 c 2.23064,-1.30605 4.58325,-1.89458 6.36523,-1.36328 a 3.618136,3.618136 0 0 0 0.11133,0.0312 c 1.37299,0.36204 2.81515,1.10041 4.30469,2.0586 a 3.618136,3.618136 0 0 0 0.0117,0.008 c 0.14997,0.0956 0.84718,0.56934 1.19531,0.82031 5.88343,4.25924 10.95999,10.4584 17.91211,15.4043 a 3.618136,3.618136 0 0 0 0.0352,0.0254 c 3.11869,2.16428 7.42854,4.44112 12.41407,3.40429 a 3.618136,3.618136 0 0 0 0.0879,-0.0176 c 4.14411,-0.96899 7.62169,-3.89802 9.16601,-7.94727 a 3.618136,3.618136 0 0 0 0.0195,-0.0566 c 1.65981,-4.57702 -0.15054,-8.93339 -2.18554,-11.98047 a 3.618136,3.618136 0 0 0 -0.002,-0.004 c -3.34749,-4.99848 -7.65166,-8.70282 -11.31445,-12.36719 a 3.618136,3.618136 0 0 0 -0.004,-0.004 c -3.15005,-3.14189 -6.12183,-6.02614 -7.98438,-9.25586 a 3.618136,3.618136 0 0 0 -0.002,-0.004 c -0.77143,-1.33514 -0.87218,-2.4717 -0.64453,-2.83985 a 3.618136,3.618136 0 0 0 0.12695,-0.2207 c 0.0201,-0.0383 -0.008,-0.0618 0.31445,-0.18359 0.3219,-0.12163 0.93594,-0.21532 1.52539,-0.18946 3.49543,0.15663 7.21714,1.47329 11.2793,2.82617 a 3.618136,3.618136 0 0 0 0.01,0.004 c 4.48176,1.47754 9.33867,3.55537 14.96093,4.13477 a 3.618136,3.618136 0 0 0 0.0137,0 c 3.35185,0.33343 7.71838,-0.23946 10.49609,-3.83789 a 3.618136,3.618136 0 0 0 0.008,-0.008 c 2.92406,-3.8106 3.4822,-9.37447 0.20899,-13.51757 a 3.618136,3.618136 0 0 0 -0.0195,-0.0273 c -3.04603,-3.782 -7.41956,-4.91975 -10.75976,-5.73242 a 3.618136,3.618136 0 0 0 -0.0566,-0.0137 c -8.11701,-1.83772 -15.97694,-1.94299 -22.98438,-3.75782 -2.09883,-0.6303 -3.55764,-1.27834 -4.18164,-2.00195 0.0108,-0.0311 0.004,-0.717 0.34766,-1.44726 0.68891,-1.07169 2.48989,-1.92286 4.91601,-2.53125 3.03046,-0.71337 6.42444,-0.94518 9.79102,-1.06446 8.71124,-0.27886 17.78535,0.49661 27.16211,-0.26562 a 3.618136,3.618136 0 0 0 0.0703,-0.006 c 3.88623,-0.39135 8.51737,-0.94347 12.63281,-3.74414 3.50364,-2.33383 5.42393,-6.34413 5.17969,-10.48438 -0.12905,-3.9808 -1.76753,-8.48658 -5.97265,-10.85742 -4.4042,-2.49515 -9.13765,-1.89865 -12.78321,-1.25976 a 3.618136,3.618136 0 0 0 -0.0664,0.0117 c -7.20911,1.40373 -13.77479,4.05216 -20.1543,6.16016 -6.1e-4,2e-4 -0.001,-2e-4 -0.002,0 -0.001,4.4e-4 -0.003,0.002 -0.004,0.002 -5.54629,1.82172 -10.85058,3.58316 -16.05273,3.90625 -2.47965,0.1165 -4.56252,-0.34139 -5.49024,-1.3789 a 3.618136,3.618136 0 0 0 -0.10351,-0.10938 c -0.46213,-0.47516 -0.63636,-1.2292 -0.49414,-1.66797 a 3.618136,3.618136 0 0 0 0.0254,-0.082 c 0.6738,-2.26198 2.55312,-4.51657 4.79296,-6.99804 4.29261,-4.66759 9.66816,-8.97841 14.11329,-14.76172 a 3.618136,3.618136 0 0 0 0.0254,-0.0352 c 2.15445,-2.87219 4.58956,-6.93149 3.7207,-11.82617 a 3.618136,3.618136 0 0 0 -0.0137,-0.0684 C 166.37157,97.507114 162.92347,94.269169 159,92.833984 a 3.618136,3.618136 0 0 0 -0.0312,-0.01172 c -1.17547,-0.417171 -2.37634,-0.617862 -3.53711,-0.646485 z" />
      <path
         style="fill:#000080;stroke:#000000;stroke-width:1.37864px;stroke-linecap:butt;stroke-linejoin:miter;stroke-opacity:1"
         d="m 40,140 c 3.203645,-19.74175 49.485378,17.01302 60,0 7.83714,-12.68075 -30.540926,-29.45907 -20,-40 10.540926,-10.540926 25.09288,20 40,20 14.90712,0 29.45907,-30.540926 40,-20 10.54093,10.54093 -27.83714,27.31925 -20,40 10.51462,17.01302 56.79636,-19.74175 60,0 3.37694,20.80963 -58.50553,-1.02881 -60,20 -1.05675,14.86962 43.42495,5.49166 40,20 -3.06337,12.97665 -32.99025,-11.34201 -40,0 -7.83714,12.68075 30.54093,29.45907 20,40 -10.54093,10.54093 -25.09288,-20 -40,-20 -14.90712,0 -29.459074,30.54093 -40,20 -10.540926,-10.54093 27.83714,-27.31925 20,-40 -7.009748,-11.34201 -36.936628,12.97665 -40,0 -3.424954,-14.50834 41.05675,-5.13038 40,-20 -1.494472,-21.02881 -63.376938,0.80963 -60,-20 z"
         id="path1321"
         sodipodi:nodetypes="aaaaaaaaaaaaaaaaa" />
    </g>
  </g>
</svg>
