<?xml version="1.0" encoding="UTF-8" standalone="no"?>
<!-- Created with Inkscape (http://www.inkscape.org/) -->

<svg
   width="240"
   height="240"
   viewBox="0 0 240 240"
   version="1.1"
   id="svg5"
   inkscape:version="1.1 (c4e8f9ed74, 2021-05-24)"
   sodipodi:docname="Lesson_36_.svg"
   xmlns:inkscape="http://www.inkscape.org/namespaces/inkscape"
   xmlns:sodipodi="http://sodipodi.sourceforge.net/DTD/sodipodi-0.dtd"
   xmlns="http://www.w3.org/2000/svg"
   xmlns:svg="http://www.w3.org/2000/svg">
  <sodipodi:namedview
     id="namedview7"
     pagecolor="#ededed"
     bordercolor="#666666"
     borderopacity="1.0"
     inkscape:pageshadow="2"
     inkscape:pageopacity="0"
     inkscape:pagecheckerboard="0"
     inkscape:document-units="px"
     showgrid="false"
     units="px"
     scale-x="1"
     inkscape:showpageshadow="false"
     inkscape:snap-page="true"
     inkscape:snap-nodes="false"
     inkscape:snap-intersection-paths="true"
     inkscape:snap-smooth-nodes="true"
     inkscape:snap-others="false"
     inkscape:zoom="3.569055"
     inkscape:cx="133.36864"
     inkscape:cy="135.47003"
     inkscape:window-width="1920"
     inkscape:window-height="1017"
     inkscape:window-x="0"
     inkscape:window-y="0"
     inkscape:window-maximized="1"
     inkscape:current-layer="layer2"
     width="240px" />
  <defs
     id="defs2">
    <inkscape:path-effect
       effect="bend_path"
       id="path-effect2448"
       is_visible="true"
       lpeversion="1"
       bendpath="M 947.47081,1116.5045 C 879.37326,873.66091 757.04185,646.18765 591.98618,455.48657 350.56074,176.54983 17.072354,-21.336268 -343.44112,-99.579388"
       prop_scale="0.236055"
       scale_y_rel="false"
       vertical="false"
       hide_knot="false" />
    <inkscape:path-effect
       effect="spiro"
       id="path-effect2446"
       is_visible="true"
       lpeversion="1" />
    <inkscape:path-effect
       effect="bend_path"
       id="path-effect2429"
       is_visible="true"
       lpeversion="1"
       bendpath="M 1152.4288,1322.8676 C 1001.1805,1150.3963 886.69099,945.84532 818.76724,726.73626 742.04588,479.24778 725.06948,213.46349 769.68025,-41.774824"
       prop_scale="0.236055"
       scale_y_rel="false"
       vertical="false"
       hide_knot="false" />
    <inkscape:path-effect
       effect="spiro"
       id="path-effect2427"
       is_visible="true"
       lpeversion="1" />
    <inkscape:path-effect
       effect="bend_path"
       id="path-effect2164"
       is_visible="true"
       lpeversion="1"
       bendpath="M 1572.5259,1824.4656 C 1225.8134,1488.328 909.00056,1121.3616 627.04919,729.31383 566.13017,644.60714 505.97732,557.77433 426.99479,489.59728 322.44045,399.34685 186.84078,345.89398 48.847953,340.00069 -89.144871,334.10741 -228.64476,375.71747 -341.16603,455.81563 c -112.52126,80.09816 -197.432,198.12187 -238.11064,330.11429 -40.67864,131.99242 -36.9751,277.16198 9.88566,407.08818 56.24847,155.9546 176.39118,289.33 328.85045,354.4599 152.459265,65.1299 335.408032,58.6562 479.27592,-23.7317 125.07228,-71.6243 216.8414,-198.1016 248.55628,-338.6977 31.71487,-140.5962 3.58417,-293.22265 -74.07583,-414.63946 C 370.05881,702.93573 311.92689,644.66427 242.85886,604.10819 173.79083,563.55211 93.7309,541.0756 13.658218,542.96076 c -80.072681,1.88516 -159.857798,28.5827 -223.048438,77.79785 -63.19065,49.21515 -109.01576,121.09158 -123.92631,199.78633 -11.39323,60.1311 -4.73956,123.56317 18.88325,180.02126 23.6228,56.4581 64.1249,105.7276 114.94563,139.8275 50.82073,34.1 111.766834,52.9008 172.966069,53.3571 61.199236,0.4562 122.418879,-17.4338 173.742371,-50.7723"
       prop_scale="0.15874323"
       scale_y_rel="false"
       vertical="false"
       hide_knot="false" />
    <inkscape:path-effect
       effect="spiro"
       id="path-effect2162"
       is_visible="true"
       lpeversion="1" />
    <inkscape:path-effect
       effect="bend_path"
       id="path-effect1400"
       is_visible="true"
       lpeversion="1"
       bendpath="m 1653.8582,1816.8858 c -205.9351,-154.6143 -382.2559,-356.5436 -514.2727,-588.9649 -59.3508,-104.4894 -110.0447,-215.6412 -142.06835,-333.65881 -32.0237,-118.0175 -45.0023,-243.27635 -29.0229,-365.1639 15.6139,-119.09977 59.73475,-234.83087 132.57265,-324.73701 72.8378,-89.90616 175.1809,-152.483911 284.252,-164.213731 107.5205,-11.56305 218.3496,27.29066 301.4177,103.130601 83.068,75.83993 137.8204,187.34193 152.2684,304.8931 10.9756,89.29863 -0.8558,182.00664 -34.7853,264.05348 -33.9296,82.04686 -89.974,153.07646 -159.697,200.60776 -69.7231,47.5313 -152.913,71.2084 -234.8255,65.6356 -81.9125,-5.5727 -162.1147,-40.5623 -224.4597,-99.1613 -68.7266,-64.5971 -115.0095,-158.2559 -123.4928,-257.1496 -8.4835,-98.89367 21.8404,-201.77791 83.9514,-274.00131 27.5052,-31.98351 60.969,-58.00088 98.1662,-74.34074 37.1973,-16.33984 78.1361,-22.84594 117.8601,-17.12879 39.7242,5.71713 78.1096,23.84028 108.2647,52.80176 30.155,28.96145 51.7868,68.82001 59.2094,112.0465 5.3141,30.94709 3.3676,63.36297 -5.6009,93.27621 -8.9684,29.91327 -24.9398,57.26016 -45.9575,78.69033 -21.0176,21.43017 -47.0367,36.89796 -74.8695,44.50833 -27.8328,7.61036 -57.4199,7.34711 -85.1368,-0.75753"
       prop_scale="-0.1409479"
       scale_y_rel="false"
       vertical="false"
       hide_knot="false" />
    <inkscape:path-effect
       effect="spiro"
       id="path-effect1398"
       is_visible="true"
       lpeversion="1" />
    <inkscape:path-effect
       effect="bend_path"
       id="path-effect1139"
       is_visible="true"
       lpeversion="1"
       bendpath="m 1411.9012,1684.7717 c -52.4631,-90.9902 -133.8583,-165.0062 -229.41,-208.6121 -46.877,-21.3927 -98.2906,-35.7307 -149.6279,-31.3051 -25.6686,2.2129 -51.05092,9.1754 -73.65282,21.542 -22.6018,12.3667 -42.3532,30.2311 -55.8288,52.1898 -20.2124,32.9364 -25.3802,74.0595 -17.1386,111.8143 8.2416,37.7548 29.2517,72.112 56.8179,99.1943 22.5855,22.189 49.7383,39.8576 79.52862,50.581 29.7904,10.7233 62.213,14.4075 93.516,9.6561 36.5544,-5.5485 71.5302,-22.9284 96.6141,-50.0911 25.0838,-27.1626 39.7509,-64.1658 38.1576,-101.1045 -1.6795,-38.9368 -21.8466,-76.7745 -53.5259,-99.4751 -31.6793,-22.7006 -74.244,-29.605 -111.3256,-17.6114 -24.2589,7.8462 -46.2342,23.7586 -59.337,45.6305 -6.5514,10.9359 -10.846,23.2534 -12.214,35.9279 -1.368,12.6746 0.2174,25.6932 4.8681,37.5627 7.5164,19.1834 23.219,35.0004 42.3475,42.6556 19.1284,7.6553 41.4077,7.0389 60.0836,-1.6623"
       prop_scale="0.13631533"
       scale_y_rel="false"
       vertical="false"
       hide_knot="false" />
    <inkscape:path-effect
       effect="spiro"
       id="path-effect1137"
       is_visible="true"
       lpeversion="1" />
    <inkscape:path-effect
       effect="bend_path"
       id="path-effect993"
       is_visible="true"
       lpeversion="1"
       bendpath="m 1584.9951,1822.2012 c -125.7967,-101.5422 -203.1834,-260.6031 -205.4354,-422.2526 -0.9966,-71.5396 12.6569,-144.7735 49.9503,-205.8317 18.6467,-30.5292 43.086,-57.6818 72.3864,-78.2053 29.3004,-20.5234 63.5117,-34.2988 99.0581,-38.3211 49.0496,-5.5504 99.0864,7.6302 142.2986,31.4917 43.2122,23.8616 80.0599,57.9602 112.2313,95.399 40.9482,47.6527 75.6236,102.779 87.77,164.4231 6.0732,30.822 6.3313,62.9598 -0.9488,93.5193 -7.2802,30.5595 -22.2534,59.4797 -44.26,81.8983 -29.327,29.8761 -70.1342,47.0952 -111.7245,51.8807 -41.5903,4.7856 -83.9392,-2.2479 -123.5612,-15.7665 -54.3321,-18.5375 -105.8756,-50.7786 -136.8685,-99.1011 -15.4964,-24.1612 -25.5083,-52.0377 -27.3697,-80.681 -1.8615,-28.6433 4.6294,-58.0012 19.7187,-82.4188 15.3476,-24.8356 39.4836,-44.1161 67.0961,-53.598 27.6125,-9.482 58.5016,-9.0969 85.8691,1.0706 27.3675,10.1673 51.0154,30.0435 65.739,55.2541 14.7237,25.2105 20.4166,55.5729 15.8259,84.4049"
       prop_scale="0.18563503"
       scale_y_rel="false"
       vertical="false"
       hide_knot="false" />
    <inkscape:path-effect
       effect="spiro"
       id="path-effect991"
       is_visible="true"
       lpeversion="1" />
  </defs>
  <g
     inkscape:label="Layer_I"
     inkscape:groupmode="layer"
     id="layer1"
     sodipodi:insensitive="true">
    <rect
       style="fill:#ff9955;fill-opacity:0;stroke:none;stroke-width:10"
       id="rect846"
       width="3840"
       height="2160"
       x="0"
       y="0"
       rx="0"
       ry="0"
       sodipodi:insensitive="true"
       inkscape:label="Background" />
  </g>
  <g
     inkscape:groupmode="layer"
     id="layer2"
     inkscape:label="Layer_II">
    <g
       id="g3269"
       transform="matrix(0.08527624,0.02024325,-0.02023638,0.08530518,81.288353,46.514043)"
       style="stroke-width:11.4077">
      <path
         id="path847-3"
         d="m 1601.4233,1119.196 c -29.1251,2.8349 -57.7332,14.3103 -82.2373,30.8372 -25.5147,17.1983 -46.878,40.7135 -63.3995,66.5711 -17.2759,27.0292 -29.114,57.465 -36.8465,88.0858 -8.2758,32.9034 -11.6747,66.5948 -12.0825,99.0222 -1.0444,86.4733 20.3906,163.8225 46.4276,223.8764 37.3271,85.9328 86.9724,143.4564 109.6246,170.445 12.3245,14.6839 19.2157,23.1243 19.5806,26.8542 0.3372,3.4465 -5.8684,2.0644 -18.5224,-5.5233 -25.5555,-15.3238 -95.8683,-68.6475 -151.3347,-171.9978 -33.5714,-62.4646 -62.596,-145.6799 -66.1962,-242.8127 0,-10e-5 0,-10e-5 0,-10e-5 -1.3644,-36.3511 0.9369,-75.0423 9.1124,-114.3117 7.6159,-36.7074 20.8877,-74.2115 41.6365,-109.4302 19.8474,-33.6804 46.8941,-64.866 80.9482,-89.3869 32.9183,-23.6902 72.3759,-40.2246 115.0866,-45.5308 57.3932,-6.3935 114.8787,7.3753 164.3104,34.8755 48.2206,26.7019 88.6339,63.339 122.799,103.4006 21.855,25.2747 42.0914,52.8611 59.0252,83.1455 6.3305,11.2896 12.1216,22.9937 17.2561,35.0698 8.594,20.2126 15.3362,41.4387 19.6958,63.4772 7.0652,35.6668 6.9892,73.0794 -1.6578,109.3358 -8.8071,36.8986 -27.3174,71.3697 -54.3045,98.8126 -37.4835,36.901 -85.9655,56.6981 -133.6741,61.3415 -49.3068,4.8431 -96.7005,-3.8426 -138.406,-19.0013 -30.3743,-10.7689 -58.9986,-25.3321 -84.6986,-43.8001 -26.8946,-19.2596 -49.82,-43.1564 -66.883,-70.6434 -18.2337,-29.4039 -28.489,-62.3405 -30.0428,-95.2257 -1.6595,-35.6731 8.0181,-70.0448 25.992,-97.8076 20.6274,-31.4123 50.7769,-51.9986 81.6588,-61.5132 36.1805,-11.051 71.8028,-6.8704 99.7848,4.9301 36.0387,15.2857 58.887,42.219 70.7422,66.1221 12.2229,24.739 14.0062,47.7866 13.0148,62.7411 -1.0148,15.3093 -4.9241,24.9563 -7.3284,28.0919 4.4373,-28.9885 -1.3866,-59.421 -16.1995,-84.6931 -14.9062,-25.4228 -38.7964,-45.4282 -66.4059,-55.6358 -27.6109,-10.2042 -58.7367,-10.5352 -86.5292,-0.942 -27.7913,9.5963 -52.0507,29.0483 -67.4486,54.0548 -15.1332,24.5895 -21.6071,54.1041 -19.688,82.8584 0,0 0,0 0,0 1.9197,28.7546 12.0103,56.7033 27.5864,80.897 15.5014,24.0772 36.4015,44.4207 59.8914,60.7363 23.7059,16.4662 50.0025,29.0192 77.3155,38.2871 39.6616,13.4603 82.0435,20.4224 123.6197,15.5683 41.5661,-4.8529 82.341,-22.1468 111.5637,-52.0209 21.9352,-22.4183 36.8333,-51.3224 44.0486,-81.8274 0,0 0,0 0,-1e-4 7.2161,-30.5085 6.901,-62.5817 0.7921,-93.3253 -6.0867,-30.6316 -17.9028,-59.9656 -33.1621,-87.2234 -6.1434,-10.9734 -12.8341,-21.6261 -19.9657,-31.9838 -12.3159,-14.4573 -25.4893,-28.0443 -39.1858,-40.9598 0,0 0,0 0,0 -35.7799,-33.6545 -75.2295,-62.9174 -117.8688,-80.3603 -42.5009,-17.2923 -88.4174,-23.6582 -127.3555,-13.5024 -0.03,0.01 -0.06,0.014 -0.09,0.022 z"
         style="fill:#d45500;fill-rule:evenodd;stroke-width:22.8156;stroke-linecap:square;stroke-linejoin:bevel;stroke-miterlimit:0;stop-color:#000000" />
      <path
         id="path845-6"
         d="m 687.59787,1415.9769 c 1.65446,-6.0194 3.67157,-11.935 6.0537,-17.7093 11.31397,-27.0522 29.91354,-49.7719 51.9137,-66.6316 22.86083,-17.5155 48.91761,-28.9684 75.05879,-35.2923 27.45123,-6.6434 55.01346,-7.9624 80.90686,-6.0393 27.9254,2.0602 54.4858,7.6501 78.789,14.6831 59.01928,17.04 107.68828,42.9195 144.99668,68.539 54.2121,37.2186 87.3368,75.8027 101.5099,94.678 17.7596,23.6518 11.7403,20.7321 0.6852,10.3435 -13.2586,-12.4593 -53.1758,-53.273 -112.3121,-89.434 -37.2448,-22.7695 -84.8567,-45.6246 -141.43218,-60.0652 -10e-5,0 -10e-5,0 -10e-5,0 -23.2842,-5.9275 -48.2853,-10.5013 -73.8875,-11.7117 -23.6885,-1.107 -48.39629,0.5636 -72.18421,6.9055 -22.63874,6.0382 -44.87393,16.1942 -63.59148,31.1379 -17.94926,14.3284 -33.05763,33.1407 -41.61671,54.6786 -6.31449,15.6223 -9.18135,32.9648 -8.82378,50.4533 0.37655,17.305 3.97275,34.7337 10.50793,51.0823 12.7867,32.3796 37.11859,60.5116 66.65169,81.4593 21.34858,15.0003 45.35393,26.2489 70.43335,32.3243 3.28951,0.7969 6.59661,1.5046 9.91761,2.12 28.8467,5.3541 58.8288,3.9018 86.0969,-4.8633 32.516,-10.4631 61.35268,-31.3049 79.38328,-58.4599 9.3077,-13.898 15.8369,-29.5385 19.2722,-45.5769 3.494,-16.4232 3.7899,-33.2504 0.6319,-49.0282 -3.3782,-17.1875 -10.9628,-33.3883 -21.2051,-47.0759 -10.733,-14.2823 -24.3688,-25.865 -39.41728,-33.5389 -15.846,-8.1477 -33.4935,-12.0605 -50.5387,-12.2779 -18.2859,-0.1957 -35.9234,3.8203 -51.0415,11.2625 -21.9524,10.8797 -38.99818,28.5857 -47.15794,48.0675 -4.64786,10.9497 -6.77724,22.4362 -6.48392,33.2484 0.3213,12.0647 3.53858,23.3465 8.68205,32.7024 10.27276,18.8394 28.07661,29.6882 43.04291,33.7926 15.4612,4.2772 29.7033,2.3775 38.8487,0.1226 9.5343,-2.3509 15.3008,-5.232 17.9392,-5.9374 -16.7681,11.1721 -38.2139,15.21 -57.9073,10.8575 -19.9642,-4.4083 -37.9468,-17.3993 -48.40802,-34.9862 -6.47953,-10.8889 -10.14121,-23.4135 -10.84849,-36.0775 -0.70753,-12.6649 1.51881,-25.4633 6.18609,-37.2706 0,0 0,0 0,0 9.32758,-23.6079 28.38242,-42.839 50.97722,-54.4923 17.2507,-8.8959 36.6956,-13.3915 56.1188,-13.4945 0,0 0,0 10e-5,0 19.4388,-0.1022 38.941,4.1813 56.37778,12.7884 17.4259,8.6008 32.6926,21.4387 44.5499,36.8492 11.8662,15.4226 20.3744,33.4737 24.3631,52.5278 3.7791,18.052 3.5601,36.8837 -0.1431,54.9599 0,0 0,0 0,0 -3.7132,18.1251 -10.9,35.5406 -21.08,50.9983 -20.3377,30.8805 -52.05698,53.7445 -87.24768,65.1674 -30.1404,9.7836 -62.7709,11.4225 -93.9459,5.676 -20.4244,-3.7651 -40.21874,-10.6593 -58.73338,-20.0987 -10.05522,-4.3634 -19.8434,-9.4762 -29.25384,-15.2709 0,0 0,0 0,0 -33.32304,-20.4919 -62.34789,-50.043 -79.75531,-87.0888 -8.69368,-18.6137 -14.15165,-38.9761 -15.7491,-59.9645 -1.14438,-14.8672 -0.27114,-30.072 2.87008,-45.0395 z"
         style="fill:#d45500;fill-rule:evenodd;stroke-width:22.8156;stroke-linecap:square;stroke-linejoin:bevel;stroke-miterlimit:0;stop-color:#000000" />
      <path
         id="path1221-7"
         d="m 1435.0888,85.058415 c 3.7747,-0.294838 7.5485,-0.5178 11.3198,-0.667321 47.6031,-2.155243 95.8605,7.367315 139.971,25.709966 45.9244,19.13259 87.5951,48.13444 121.763,83.53135 36.1649,37.34406 64.3948,82.39912 84.6284,130.27451 21.2236,50.41328 33.4281,104.11561 36.6265,157.60381 4.9884,84.58507 -11.6794,169.05273 -47.2643,241.77768 -36.045,73.45974 -91.0826,135.45831 -157.1568,174.57262 -66.2432,39.37189 -143.8561,55.95228 -215.4248,46.5437 -76.7781,-9.65411 -147.5478,-48.89135 -197.8509,-101.99885 -30.7458,-32.41738 -54.4867,-70.65107 -71.0988,-110.6381 -17.8369,-43.08515 -27.3928,-88.39232 -28.638,-132.57464 -1.3655,-47.09487 6.7449,-93.23878 22.0161,-135.06817 16.0757,-43.76912 39.7121,-82.6616 69.396,-113.48813 27.3963,-28.39783 59.0094,-50.19659 92.5924,-62.7648 35.053,-13.15711 72.2722,-16.5707 105.6114,-9.92314 37.2308,7.2459 70.2894,26.74113 93.8569,51.69096 28.4026,29.94208 44.208,68.08713 48.7148,103.76008 3.8573,30.52191 -0.098,59.99841 -8.8024,85.25747 0,0 -10e-5,8e-5 -10e-5,8e-5 -10.2127,29.56399 -26.7739,53.58908 -45.1611,71.08476 -23.1812,22.07306 -49.0417,34.01819 -70.9108,39.54206 -21.697,5.51836 -41.0049,5.22101 -53.906,4.18141 -13.3617,-1.07669 -21.7947,-2.88994 -25.4571,-2.9364 -3.3664,-0.0427 -2.8823,1.56294 3.5969,4.84675 5.8458,2.96278 18.0977,7.79761 35.2859,10.17783 11.7906,1.63274 26.7713,2.21609 43.6724,-0.38928 24.7224,-3.83435 54.9741,-14.79445 83.0014,-38.22684 0,-2e-5 10e-5,-6e-5 10e-5,-6e-5 22.1922,-18.55981 42.8922,-44.82242 56.403,-78.30155 11.5561,-28.59201 17.8814,-62.46158 14.9514,-98.56442 0,0 0,-1.3e-4 0,-1.3e-4 -3.4407,-42.35487 -20.0812,-88.14918 -53.2228,-125.99717 -27.7376,-31.5811 -66.9497,-56.80603 -113.1471,-67.46614 -41.3242,-9.40122 -86.8297,-7.00579 -130.0569,7.98654 -41.0853,14.27805 -79.4836,38.82056 -112.2065,71.31903 -35.6647,35.37357 -64.347,79.54709 -83.8249,129.36984 -18.6604,47.52106 -29.2025,100.22891 -28.8335,154.87068 0.3761,51.16675 10.2152,103.59771 29.8731,153.79934 18.2018,46.6141 45.0094,91.58894 80.6758,130.76483 58.533,64.22734 141.1165,111.87498 234.4235,125.55843 87.0609,12.3971 179.7397,-5.4314 259.9565,-51.82443 79.3158,-46.00976 144.899,-117.13593 187.6522,-202.41923 42.263,-84.12191 62.7833,-180.89169 57.9658,-278.64864 -3.0209,-62.093 -16.5025,-124.4686 -40.6651,-183.58022 -22.9227,-56.25313 -55.9307,-109.76345 -99.2133,-155.61064 C 1725.0072,94.66739 1674.6499,58.990373 1618.226,34.826041 1563.9461,11.548933 1504.0217,-0.62914194 1443.2047,1.409942 1382.14,3.7051648 1322.2551,19.95689 1267.7482,47.012574 c -55.3877,27.426306 -105.477,65.256096 -147.8693,110.621766 -42.8549,45.89456 -77.9529,98.55866 -105.293,154.92687 -27.62411,56.86045 -47.71608,117.39027 -60.38207,179.60895 -25.46375,125.83594 -21.98296,256.52354 3.13222,382.96093 16.51535,83.31313 41.85035,164.45081 73.36855,243.23801 16.7498,36.4976 34.7837,72.2336 53.787,107.225 127.6755,235.6582 301.0494,444.3131 508.3375,605.9702 -195.5227,-175.2903 -351.2082,-392.3364 -459.6457,-629.3723 -49.9596,-109.3414 -89.983,-223.14064 -110.8258,-339.99954 0,-4e-5 0,-7e-5 0,-1.1e-4 -21.1035,-118.47697 -22.89317,-240.3966 2.8738,-355.70574 12.4782,-56.0795 31.4712,-110.50389 57.2171,-161.14077 0,-3e-5 0,-6e-5 10e-5,-9e-5 25.2134,-49.51664 56.7393,-95.4593 94.647,-134.4681 36.793,-37.88723 79.7928,-69.44885 126.6757,-91.52042 41.7955,-19.61501 86.6971,-31.973303 131.3175,-34.298815 z"
         style="fill:#d45500;fill-rule:evenodd;stroke-width:12.8617;stroke-linecap:square;stroke-linejoin:bevel;stroke-miterlimit:0;stop-color:#000000" />
      <path
         id="path1221-5"
         d="m 72.119291,517.15029 c 63.708809,6.68766 127.583099,27.26077 185.949049,61.05586 71.82388,41.61247 134.52802,101.91921 181.86037,175.11698 40.68301,62.82382 69.62038,134.84057 83.79276,211.36653 13.70233,73.71554 13.57,151.65674 -3.22617,227.84884 -16.43067,74.1205 -48.57741,145.4422 -94.29013,208.342 -44.55775,61.4183 -102.1583,114.7528 -169.76254,153.7867 -76.37496,43.8794 -163.634281,68.336 -252.471504,72.4818 -87.676632,4.1932 -176.847096,-11.0461 -258.921676,-45.9394 -80.98747,-34.5723 -153.69207,-87.1661 -213.25443,-151.9047 -59.49453,-64.5665 -106.08257,-140.9431 -135.95039,-223.7483 -24.81895,-68.9068 -38.1202,-141.5849 -39.84345,-214.40131 -1.7569,-73.15889 8.19109,-146.37003 29.73645,-216.00759 21.77015,-70.22752 55.15822,-136.16738 97.70481,-194.92358 43.05664,-59.50573 95.45901,-111.56862 154.6748,-153.5112 60.23163,-42.61117 126.94735,-74.34505 196.179,-94.66356 70.717522,-20.78275 143.97554,-29.62138 216.01335,-26.2733 73.95557,3.47931 145.91467,19.77953 212.38426,46.4375 68.68926,27.51901 131.43451,66.06014 185.29406,113.06338 41.76151,36.56735 77.88436,77.4357 110.15169,118.58191 33.24272,42.32678 64.11438,86.72748 93.26304,127.94043 135.74349,191.83264 266.5277,359.79912 384.76716,503.45242 181.2288,220.1812 340.2499,391.597 429.1566,487.5156 90.6486,97.7979 130.5363,141.3369 96.5339,115.6769 -27.5759,-20.8103 -128.6863,-110.6427 -271.8317,-257.0187 C 1145.1838,1413.3117 949.69028,1199.3532 737.20652,925.45875 692.98838,868.46098 648.06826,808.91618 602.69561,746.8282 572.70409,705.80773 541.74066,662.56797 509.45201,622.65502 478.05224,583.90155 444.08052,546.26797 406.00167,513.91762 357.19338,472.29882 300.26321,438.26423 238.22771,414.11654 178.1804,390.77085 113.38364,376.72302 47.386313,374.22532 c -64.292741,-2.47422 -129.889228,6.01252 -193.104303,25.04806 -61.87169,18.65862 -121.43356,47.44043 -174.73131,85.64496 -52.46699,37.55871 -99.04813,84.3615 -137.31781,137.6824 -37.77755,52.68007 -67.41344,111.6913 -86.52386,174.1114 -18.98798,61.88339 -27.68343,127.29432 -26.03244,192.63025 1.66874,65.03261 13.59396,129.94871 35.69676,191.13721 26.4507,73.3436 67.9588,141.4058 120.74178,198.8299 0,0 1.8e-4,2e-4 1.8e-4,2e-4 52.87305,57.4236 117.04338,104.2042 187.75412,134.4367 71.34837,30.6483 149.793429,44.2855 226.79777261,40.9673 C 78.57496,1551.2539 155.11354,1530.43 221.02808,1492.8254 c 58.5829,-33.2289 109.26372,-79.64 148.8118,-133.1822 40.49962,-54.9398 69.37819,-117.4455 84.2481,-182.0845 15.38608,-66.4762 16.13383,-135.5422 4.72919,-201.17498 C 446.92124,908.22534 421.93946,843.6797 386.50289,787.49512 345.03585,721.86018 290.24777,667.32923 227.6494,630.01024 161.24554,590.3945 86.100651,569.87762 14.318084,570.98876 c 0,0 -1.77e-4,6e-5 -1.77e-4,6e-5 -77.880254,1.15345 -151.771027,27.11442 -207.960687,69.98901 -30.31975,23.03161 -55.70334,51.05262 -75.26414,81.46089 -0.652,1.01515 -1.29765,2.03307 -1.93692,3.05369 -19.71072,31.46876 -33.26093,65.31245 -40.1836,99.27571 -12.14829,59.20792 -4.73085,118.59637 14.98058,168.10496 23.16625,58.30032 63.15569,103.84492 105.75307,133.81862 55.20895,38.8934 115.571063,53.3098 163.86033,55.2389 57.233712,2.3086 103.664725,-11.9907 130.35898,-22.0596 28.18954,-10.6328 41.77576,-18.2972 42.86531,-16.6137 1.08954,1.6835 -10.30059,12.8003 -37.91046,27.5193 -26.183022,13.9584 -73.514625,33.371 -135.490072,34.7944 -52.979,1.1976 -118.914488,-10.9421 -182.071808,-51.4753 -48.81649,-31.3635 -95.53068,-80.3962 -124.13813,-145.8362 4e-5,-10e-5 -6e-5,-2e-4 -6e-5,-2e-4 -24.2902,-55.65395 -34.93401,-122.91663 -22.78592,-191.93754 7.25431,-40.94312 22.51322,-81.72609 45.59574,-119.56667 21.68855,-35.60544 50.18843,-68.62024 84.87221,-96.21569 56.52029,-44.80044 128.179017,-74.77117 205.631244,-83.31133"
         style="fill:#d45500;fill-rule:evenodd;stroke-width:15.9248;stroke-linecap:square;stroke-linejoin:bevel;stroke-miterlimit:0;stop-color:#000000" />
      <path
         id="path845-3"
         d="m 913.1107,736.91182 c 31.50388,114.60958 69.35148,218.10726 108.4765,310.02648 38.8003,91.156 77.4142,167.516 108.3217,226.4573 31.736,60.5215 53.0859,98.7005 63.5498,122.9273 9.6497,22.3416 6.7563,26.9969 -10.3303,11.4813 -30.7328,-27.9074 -108.773,-122.4052 -192.75792,-276.3347 C 948.1097,1054.0133 905.90449,963.69364 868.88249,861.70322 831.76394,759.44683 801.51397,650.01758 780.88282,534.94525 c -7.22422,-40.3126 -13.17293,-80.8139 -17.84649,-121.42379 -14.54068,-126.34775 -16.157,-248.65593 -7.77811,-364.219359 8.34898,-115.150754 26.18835,-217.676961 47.3626,-304.544221 20.9968,-86.13921 44.86257,-155.14477 64.26022,-202.44523 19.50445,-47.56098 34.59238,-74.14664 41.79709,-79.08709 -112.75929,322.38668 -145.45203,668.45838 -95.53162,1004.62859 5.93082,20.05406 12.15504,39.99858 18.67006,59.8258 23.44625,71.35916 50.63769,141.1958 81.29413,209.23187 z"
         style="fill:#d45500;fill-rule:evenodd;stroke-width:22.8156;stroke-linecap:square;stroke-linejoin:bevel;stroke-miterlimit:0;stop-color:#000000" />
      <path
         id="path845-5"
         d="m 580.87532,215.44685 c 68.14437,88.25829 121.85276,176.46203 163.58291,258.94175 41.4714,81.96833 69.66488,155.42054 88.25735,213.28928 18.40519,57.28579 27.76326,100.39329 30.63974,121.74112 3.05678,22.68636 -0.29669,23.81684 -8.65824,6.88426 C 840.40794,787.36647 810.86556,702.74344 752.62122,585.91945 692.83207,465.99697 607.6433,324.84995 484.46209,184.97023 c -3e-5,-10e-6 -4e-5,-4e-5 -4e-5,-6e-5 C 435.3603,129.19956 382.3114,76.175869 325.59698,26.286217 242.1344,-47.132826 155.26391,-109.78863 68.151131,-162.79005 -65.024157,-243.79955 -186.38975,-294.7754 -277.94889,-328.49755 c -90.13662,-33.19823 -145.29063,-48.80653 -153.32562,-55.81261 179.96907,38.34457 353.484513,106.55397 512.222989,199.82215 108.767971,63.90764 210.674641,139.625222 303.055571,225.583906 46.74271,35.312423 91.90198,73.227274 135.16749,113.670814 21.02301,19.65401 41.59958,39.88913 61.70378,60.68014 z"
         style="fill:#d45500;fill-rule:evenodd;stroke-width:22.8156;stroke-linecap:square;stroke-linejoin:bevel;stroke-miterlimit:0;stop-color:#000000" />
    </g>
  </g>
</svg>
