<?xml version="1.0" encoding="UTF-8" standalone="no"?>
<!-- Created with Inkscape (http://www.inkscape.org/) -->

<svg
   width="240"
   height="240"
   viewBox="0 0 240 240"
   version="1.1"
   id="svg5"
   inkscape:version="1.1.1 (3bf5ae0d25, 2021-09-20)"
   sodipodi:docname="Patter_file65.svg"
   xmlns:inkscape="http://www.inkscape.org/namespaces/inkscape"
   xmlns:sodipodi="http://sodipodi.sourceforge.net/DTD/sodipodi-0.dtd"
   xmlns="http://www.w3.org/2000/svg"
   xmlns:svg="http://www.w3.org/2000/svg">
  <sodipodi:namedview
     id="namedview7"
     pagecolor="#ededed"
     bordercolor="#666666"
     borderopacity="1.0"
     inkscape:pageshadow="2"
     inkscape:pageopacity="0"
     inkscape:pagecheckerboard="0"
     inkscape:document-units="px"
     showgrid="false"
     units="px"
     scale-x="1"
     inkscape:showpageshadow="false"
     inkscape:snap-page="true"
     inkscape:snap-nodes="true"
     width="240px"
     inkscape:snap-bbox="true"
     inkscape:bbox-nodes="true"
     inkscape:zoom="2.6217462"
     inkscape:cx="120.72107"
     inkscape:cy="107.75261"
     inkscape:window-width="1920"
     inkscape:window-height="1047"
     inkscape:window-x="0"
     inkscape:window-y="0"
     inkscape:window-maximized="1"
     inkscape:current-layer="layer2" />
  <defs
     id="defs2">
    <inkscape:path-effect
       effect="skeletal"
       id="path-effect4150"
       is_visible="true"
       lpeversion="1"
       pattern="m 11.261311,395.69044 c 69.458456,-83.51464 -138.433201,11.38348 -29.832191,13.61776 108.601015,2.23428 -95.21165,-101.13396 -29.24686,-14.83321 65.964794,86.30074 19.706214,-137.49546 -6.638048,-32.11448 -26.344262,105.38099 119.784902,-70.32007 20.969351,-25.21288 -98.815553,45.1072 129.663115,49.80776 32.78639941,0.67453 C -97.576753,288.68893 41.20232,470.25149 19.214584,363.87616 -2.7731525,257.50082 -58.197145,479.20508 11.261311,395.69044 Z"
       copytype="single_stretched"
       prop_scale="0.814808"
       scale_y_rel="false"
       spacing="0"
       normal_offset="0"
       tang_offset="0"
       prop_units="false"
       vertical_pattern="false"
       hide_knot="false"
       fuse_tolerance="0" />
    <inkscape:path-effect
       effect="bspline"
       id="path-effect4101"
       is_visible="true"
       lpeversion="1"
       weight="33.333333"
       steps="2"
       helper_size="0"
       apply_no_weight="true"
       apply_with_weight="true"
       only_selected="false" />
    <inkscape:path-effect
       effect="skeletal"
       id="path-effect3904"
       is_visible="true"
       lpeversion="1"
       pattern="m 11.261311,395.69044 c 69.458456,-83.51464 -138.433201,11.38348 -29.832191,13.61776 108.601015,2.23428 -95.21165,-101.13396 -29.24686,-14.83321 65.964794,86.30074 19.706214,-137.49546 -6.638048,-32.11448 -26.344262,105.38099 119.784902,-70.32007 20.969351,-25.21288 -98.815553,45.1072 129.663115,49.80776 32.78639941,0.67453 C -97.576753,288.68893 41.20232,470.25149 19.214584,363.87616 -2.7731525,257.50082 -58.197145,479.20508 11.261311,395.69044 Z"
       copytype="single_stretched"
       prop_scale="0.814808"
       scale_y_rel="false"
       spacing="0"
       normal_offset="0"
       tang_offset="0"
       prop_units="false"
       vertical_pattern="false"
       hide_knot="false"
       fuse_tolerance="0" />
    <inkscape:path-effect
       effect="skeletal"
       id="path-effect3527"
       is_visible="true"
       lpeversion="1"
       pattern="m 11.261311,395.69044 c 69.458456,-83.51464 -138.433201,11.38348 -29.832191,13.61776 108.601015,2.23428 -95.21165,-101.13396 -29.24686,-14.83321 65.964794,86.30074 19.706214,-137.49546 -6.638048,-32.11448 -26.344262,105.38099 119.784902,-70.32007 20.969351,-25.21288 -98.815553,45.1072 129.663115,49.80776 32.78639941,0.67453 C -97.576753,288.68893 41.20232,470.25149 19.214584,363.87616 -2.7731525,257.50082 -58.197145,479.20508 11.261311,395.69044 Z"
       copytype="single_stretched"
       prop_scale="0.81480758"
       scale_y_rel="false"
       spacing="0"
       normal_offset="0"
       tang_offset="0"
       prop_units="false"
       vertical_pattern="false"
       hide_knot="false"
       fuse_tolerance="0" />
    <inkscape:path-effect
       effect="skeletal"
       id="path-effect3112"
       is_visible="true"
       lpeversion="1"
       pattern="m 11.261311,395.69044 c 69.458456,-83.51464 -138.433201,11.38348 -29.832191,13.61776 108.601015,2.23428 -95.21165,-101.13396 -29.24686,-14.83321 65.964794,86.30074 19.706214,-137.49546 -6.638048,-32.11448 -26.344262,105.38099 119.784902,-70.32007 20.969351,-25.21288 -98.815553,45.1072 129.663115,49.80776 32.78639941,0.67453 C -97.576753,288.68893 41.20232,470.25149 19.214584,363.87616 -2.7731525,257.50082 -58.197145,479.20508 11.261311,395.69044 Z"
       copytype="single_stretched"
       prop_scale="-0.51236055"
       scale_y_rel="false"
       spacing="0"
       normal_offset="0"
       tang_offset="0"
       prop_units="false"
       vertical_pattern="false"
       hide_knot="false"
       fuse_tolerance="0" />
    <inkscape:path-effect
       effect="skeletal"
       id="path-effect2175"
       is_visible="true"
       lpeversion="1"
       pattern="m 173.24957,45.976535 c 72.3875,42.85632 -141.448314,43.91918 -69.46038,0.34526 C 175.77713,2.7478553 69.746926,195.29829 69.347356,108.86801 68.947786,22.437775 176.75341,213.92535 104.36591,171.06902 31.978396,128.21269 245.81423,127.14984 173.82628,170.72377 101.83835,214.29771 207.86854,21.747275 208.26812,108.17752 208.66768,194.60779 100.86207,3.1202053 173.24957,45.976535 Z"
       copytype="single_stretched"
       prop_scale="0.73261176"
       scale_y_rel="false"
       spacing="0"
       normal_offset="0"
       tang_offset="0"
       prop_units="false"
       vertical_pattern="false"
       hide_knot="false"
       fuse_tolerance="0" />
    <inkscape:path-effect
       effect="skeletal"
       id="path-effect2169"
       is_visible="true"
       lpeversion="1"
       pattern="M 66.750436,45.976534 C -5.6370635,88.832854 208.19875,89.895714 136.21082,46.321794 64.222876,2.7478543 170.25308,195.29829 170.65265,108.86801 171.05222,22.437774 63.246596,213.92535 135.6341,171.06902 208.02161,128.21269 -5.8142235,127.14984 66.173726,170.72377 138.16166,214.29771 32.131466,21.747274 31.731886,108.17752 31.332326,194.60779 139.13794,3.1202043 66.750436,45.976534 Z"
       copytype="single_stretched"
       prop_scale="0.73261176"
       scale_y_rel="false"
       spacing="0"
       normal_offset="0"
       tang_offset="0"
       prop_units="false"
       vertical_pattern="false"
       hide_knot="false"
       fuse_tolerance="0" />
    <inkscape:path-effect
       effect="skeletal"
       id="path-effect2163"
       is_visible="true"
       lpeversion="1"
       pattern="M 66.750426,194.02347 C -5.6370734,151.16715 208.19874,150.10429 136.21081,193.67821 64.222866,237.25215 170.25307,44.701716 170.65264,131.13199 171.05221,217.56223 63.246586,26.074658 135.63409,68.930981 208.0216,111.78731 -5.8142334,112.85016 66.173716,69.276231 138.16165,25.702299 32.131456,218.25273 31.731876,131.82248 31.332316,45.392211 139.13793,236.8798 66.750426,194.02347 Z"
       copytype="single_stretched"
       prop_scale="0.73261176"
       scale_y_rel="false"
       spacing="0"
       normal_offset="0"
       tang_offset="0"
       prop_units="false"
       vertical_pattern="false"
       hide_knot="false"
       fuse_tolerance="0" />
    <inkscape:path-effect
       effect="skeletal"
       id="path-effect2077"
       is_visible="true"
       lpeversion="1"
       pattern="M 173.24957,194.02347 C 245.63707,151.16715 31.801254,150.10429 103.78918,193.67821 175.77713,237.25215 69.746924,44.701721 69.347354,131.13199 68.947784,217.56223 176.75341,26.074663 104.3659,68.930986 c -72.387506,42.856324 141.44833,43.919174 69.46038,0.34525 -71.98794,-43.573932 34.04226,148.976494 34.44184,62.546244 0.39956,-86.430264 -107.40606,105.05732 -35.01855,62.20099 z"
       copytype="single_stretched"
       prop_scale="0.73261176"
       scale_y_rel="false"
       spacing="0"
       normal_offset="0"
       tang_offset="0"
       prop_units="false"
       vertical_pattern="false"
       hide_knot="false"
       fuse_tolerance="0" />
    <inkscape:path-effect
       effect="skeletal"
       id="path-effect1788"
       is_visible="true"
       lpeversion="1"
       pattern="M 176.22528,197.13505 C 252.0351,152.8541 28.089606,151.75591 103.48096,196.77832 178.87233,241.80074 67.829263,42.849557 67.410802,132.15293 66.992341,221.45629 179.89477,23.603301 104.08494,67.884255 28.275122,112.16521 252.22062,113.2634 176.82926,68.24098 c -75.39137,-45.022417 35.6517,153.92876 36.07016,64.6254 0.41846,-89.303374 -112.48397,108.54963 -36.67414,64.26867 z"
       copytype="single_stretched"
       prop_scale="0.73261176"
       scale_y_rel="false"
       spacing="0"
       normal_offset="0"
       tang_offset="0"
       prop_units="false"
       vertical_pattern="false"
       hide_knot="false"
       fuse_tolerance="0" />
    <inkscape:path-effect
       effect="skeletal"
       id="path-effect1737"
       is_visible="true"
       lpeversion="1"
       pattern="M 171.55304,165.32202 C 243.00021,124.52737 31.942168,123.51564 102.99496,164.99338 174.04776,206.47112 69.394916,23.183633 69.000536,105.45603 68.606156,187.72842 175.01136,5.4526605 103.56418,46.247316 32.117008,87.041971 243.17505,88.053695 172.12226,46.575955 101.06946,5.0982137 205.7223,188.3857 206.11668,106.11331 206.51106,23.840911 100.10586,206.11668 171.55304,165.32202 Z"
       copytype="single_stretched"
       prop_scale="0.909101"
       scale_y_rel="false"
       spacing="0"
       normal_offset="0"
       tang_offset="0"
       prop_units="false"
       vertical_pattern="false"
       hide_knot="false"
       fuse_tolerance="0" />
    <inkscape:path-effect
       effect="skeletal"
       id="path-effect1364"
       is_visible="true"
       lpeversion="1"
       pattern="M 171.55304,165.32202 C 243.00021,124.52737 31.942168,123.51564 102.99496,164.99338 174.04776,206.47112 69.394916,23.183633 69.000536,105.45603 68.606156,187.72842 175.01136,5.4526605 103.56418,46.247316 32.117008,87.041971 243.17505,88.053695 172.12226,46.575955 101.06946,5.0982137 205.7223,188.3857 206.11668,106.11331 206.51106,23.840911 100.10586,206.11668 171.55304,165.32202 Z"
       copytype="single_stretched"
       prop_scale="1"
       scale_y_rel="false"
       spacing="0"
       normal_offset="0"
       tang_offset="0"
       prop_units="false"
       vertical_pattern="false"
       hide_knot="false"
       fuse_tolerance="0" />
  </defs>
  <g
     inkscape:label="Layer_I"
     inkscape:groupmode="layer"
     id="layer1"
     sodipodi:insensitive="true">
    <rect
       style="fill:#ff9955;fill-opacity:0;stroke:none;stroke-width:10"
       id="rect846"
       width="3840"
       height="2160"
       x="0"
       y="0"
       rx="0"
       ry="0"
       sodipodi:insensitive="true"
       inkscape:label="Background" />
  </g>
  <g
     inkscape:groupmode="layer"
     id="layer2"
     inkscape:label="Layer_II">
    <g
       id="g878"
       style="display:inline">
      <path
         style="fill:#164450;stroke:none;stroke-width:1px;stroke-linecap:butt;stroke-linejoin:miter;stroke-opacity:1"
         d="m 75.245902,230.57159 c 58.741348,-14.0696 3.999716,-17.20793 -44.755959,-8.5566 C 22.398848,170.61141 0.56306317,113.16135 5.8020281,174.7754 c 2.6954873,31.70091 9.7714159,40.11761 12.3220889,38.08938 3.163459,-2.51552 7.013764,-18.35828 12.632316,-33.19599 5.807223,-15.33595 14.512021,-30.76733 18.79758,-41.62159 4.128704,-10.45699 3.272869,-18.25371 -13.267451,-18.04315 -16.240704,0.20675 -17.485606,9.32182 -12.643622,21.4577 4.532611,11.36047 14.496726,25.19838 20.100643,31.65509 6.378276,7.3489 9.713091,8.77951 13.162306,5.598 2.080769,-1.91927 9.543469,-11.93329 11.117467,-25.51436 3.723594,-32.12863 -16.39859,6.86728 -22.664898,47.571 34.144347,-19.53678 58.612272,-49.44867 32.429486,-34.98802 -10.99873,6.07455 -18.456353,17.48203 -19.514994,19.54798 -2.155056,4.20561 -0.492431,6.51363 8.051326,9.83582 7.366523,2.86443 23.577032,7.54771 35.803144,8.03594 13.11109,0.52358 21.46857,-3.60179 16.34582,-19.02354 -5.24122,-15.77838 -12.82539,-13.82705 -21.225832,-6.4195 -8.767027,7.73081 -20.577071,21.09882 -33.638033,31.49531 -13.060962,10.39649 -27.029238,18.06195 -28.993495,22.17009 -1.324192,2.76948 8.605383,6.8165 40.630022,-0.85397 z"
         id="path2073"
         inkscape:path-effect="#path-effect2077"
         inkscape:original-d="m 36.033664,120.00789 1.89413,91.38021 80.465116,-27.44828"
         sodipodi:nodetypes="ccc" />
      <path
         style="fill:#164450;stroke:none;stroke-width:1px;stroke-linecap:butt;stroke-linejoin:miter;stroke-opacity:1"
         d="m 171.97664,153.20049 c -3.7236,-32.12864 16.39859,6.86727 22.6649,47.57099 -34.14435,-19.53678 -58.61227,-49.44867 -32.42949,-34.98803 10.99873,6.07456 18.45635,17.48204 19.51499,19.54798 2.15506,4.20561 0.49243,6.51363 -8.05133,9.83582 -7.36652,2.86443 -23.57703,7.54771 -35.80314,8.03595 -13.11109,0.52358 -21.46856,-3.6018 -16.34581,-19.02355 5.24122,-15.77837 12.82538,-13.82705 21.22582,-6.41949 8.76703,7.73081 20.57707,21.09882 33.63803,31.49531 13.06097,10.39649 27.02924,18.06195 28.9935,22.17009 1.32419,2.76948 -8.60538,6.8165 -40.63002,-0.85397 -58.74135,-14.0696 -3.99972,-17.20793 44.75596,-8.5566 8.0911,-51.40358 29.92689,-108.85364 24.68792,-47.23956 -2.69549,31.7009 -9.77142,40.1176 -12.32209,38.08936 -3.16346,-2.51552 -7.01377,-18.35828 -12.63232,-33.19599 -5.80722,-15.33596 -14.51202,-30.76733 -18.79758,-41.6216 -4.12871,-10.45698 -3.27288,-18.2537 13.26744,-18.04315 16.24071,0.20675 17.48561,9.32183 12.64363,21.45771 -4.53261,11.36047 -14.49672,25.19837 -20.10064,31.65508 -6.37827,7.3489 -9.71309,8.77951 -13.1623,5.598 -2.08077,-1.91927 -9.54347,-11.93329 -11.11747,-25.51435 z"
         id="path2159"
         inkscape:path-effect="#path-effect2163"
         inkscape:original-d="M 203.96633,120.00789 202.0722,211.3881 121.60709,183.93982"
         sodipodi:nodetypes="ccc" />
      <path
         style="fill:#164450;stroke:none;stroke-width:1px;stroke-linecap:butt;stroke-linejoin:miter;stroke-opacity:1"
         d="m 171.97665,86.799514 c -3.7236,32.128626 16.39859,-6.867275 22.6649,-47.570987 -34.14435,19.536775 -58.61228,49.448667 -32.4295,34.988025 10.99874,-6.074554 18.45636,-17.482033 19.515,-19.547979 2.15505,-4.205612 0.49243,-6.513631 -8.05133,-9.835822 -7.36652,-2.86443 -23.57703,-7.54771 -35.80314,-8.035946 -13.11109,-0.523576 -21.46856,3.601802 -16.34581,19.023552 5.24121,15.778374 12.82538,13.827049 21.22582,6.419492 8.76703,-7.730812 20.57707,-21.098825 33.63803,-31.495315 13.06096,-10.39649 27.02924,-18.061948 28.9935,-22.1700938 1.32419,-2.7694807 -8.60538,-6.8164991 -40.63002,0.8539744 -58.74136,14.0696054 -3.99972,17.2079314 44.75596,8.5565974 8.0911,51.403582 29.92689,108.853638 24.68791,47.239563 -2.69548,-31.700905 -9.77141,-40.117604 -12.32208,-38.089364 -3.16346,2.515514 -7.01377,18.358281 -12.63232,33.19599 -5.80722,15.335957 -14.51202,30.767331 -18.79758,41.621599 -4.12871,10.45698 -3.27288,18.2537 13.26744,18.04315 16.24071,-0.20675 17.48561,-9.32183 12.64363,-21.457706 -4.53261,-11.360471 -14.49672,-25.198378 -20.10064,-31.655084 -6.37827,-7.348903 -9.71309,-8.779512 -13.1623,-5.598002 -2.08077,1.919273 -9.54347,11.933291 -11.11747,25.514356 z"
         id="path2165"
         inkscape:path-effect="#path-effect2169"
         inkscape:original-d="M 203.96634,119.99211 202.07221,28.611904 121.6071,56.060184"
         sodipodi:nodetypes="ccc" />
      <path
         style="fill:#164450;stroke:none;stroke-width:1px;stroke-linecap:butt;stroke-linejoin:miter;stroke-opacity:1"
         d="M 75.245908,9.4284155 C 133.98726,23.498017 79.24562,26.636344 30.489945,17.985012 22.398849,69.388593 0.56306446,126.83865 5.8020338,65.224586 8.4975216,33.523679 15.573449,25.10698 18.124121,27.13522 c 3.163458,2.515513 7.013763,18.35828 12.632315,33.195988 5.807222,15.335956 14.51202,30.76733 18.797578,41.621592 4.128703,10.45699 3.272868,18.25371 -13.267454,18.04315 C 20.045856,119.7892 18.800956,110.67413 23.642941,98.538249 28.175553,87.177779 38.139668,73.33987 43.743585,66.883164 50.121861,59.534259 53.456676,58.10365 56.90589,61.285158 58.986658,63.20443 66.449357,73.218446 68.023354,86.79951 71.74695,118.92815 51.624765,79.93224 45.358459,39.228527 79.502807,58.765302 103.97073,88.677198 77.787947,74.21655 66.789217,68.141998 59.331598,56.734521 58.272957,54.668575 c -2.155055,-4.205611 -0.49243,-6.513631 8.051327,-9.835822 7.366523,-2.864431 23.577031,-7.547713 35.803136,-8.035951 13.1111,-0.523579 21.46857,3.601794 16.34582,19.023538 -5.24121,15.778379 -12.82538,13.827058 -21.225827,6.419503 C 88.480387,54.509035 76.670345,41.141023 63.609384,30.744534 50.548424,20.348045 36.580149,12.682588 34.615892,8.5744417 33.2917,5.8049607 43.221273,1.7579423 75.245908,9.4284155 Z"
         id="path2171"
         inkscape:path-effect="#path-effect2175"
         inkscape:original-d="m 36.033666,119.99211 1.89413,-91.380205 80.465114,27.44828"
         sodipodi:nodetypes="ccc" />
      <path
         sodipodi:type="star"
         style="display:inline;fill:#004455;fill-rule:evenodd;stroke:none;stroke-width:1.86371;stroke-linecap:square;stroke-linejoin:bevel;stroke-opacity:1;stop-color:#000000"
         id="path1073"
         inkscape:flatsided="true"
         sodipodi:sides="6"
         sodipodi:cx="309.0592"
         sodipodi:cy="66.080727"
         sodipodi:r1="68.558861"
         sodipodi:r2="43.472279"
         sodipodi:arg1="1.0519911"
         sodipodi:arg2="1.5755898"
         inkscape:rounded="-3.3123846"
         inkscape:randomized="0"
         d="M 343.05363,125.61808 C 540.26424,13.015463 78.373527,10.80135 274.49556,125.28944 470.61759,239.77753 241.58971,-161.33862 240.50113,65.752088 239.41255,292.84279 472.27539,-106.05924 275.06478,6.5433742 77.854168,119.14599 539.74488,121.3601 343.62285,6.8720132 147.50082,-107.61608 376.5287,293.50007 377.61728,66.409366 378.70586,-160.68134 145.84302,238.2207 343.05363,125.61808 Z"
         transform="matrix(0.5366418,0,0,0.53648636,-45.854088,84.548591)" />
    </g>
  </g>
</svg>
