<?xml version="1.0" encoding="UTF-8" standalone="no"?>
<!-- Created with Inkscape (http://www.inkscape.org/) -->

<svg
   width="240"
   height="240"
   viewBox="0 0 240 240"
   version="1.1"
   id="svg5"
   inkscape:version="1.1.1 (3bf5ae0d25, 2021-09-20)"
   sodipodi:docname="Patter_file100.svg"
   xmlns:inkscape="http://www.inkscape.org/namespaces/inkscape"
   xmlns:sodipodi="http://sodipodi.sourceforge.net/DTD/sodipodi-0.dtd"
   xmlns="http://www.w3.org/2000/svg"
   xmlns:svg="http://www.w3.org/2000/svg">
  <sodipodi:namedview
     id="namedview7"
     pagecolor="#ededed"
     bordercolor="#666666"
     borderopacity="1.0"
     inkscape:pageshadow="2"
     inkscape:pageopacity="0"
     inkscape:pagecheckerboard="0"
     inkscape:document-units="px"
     showgrid="false"
     units="px"
     scale-x="1"
     inkscape:showpageshadow="false"
     inkscape:snap-page="true"
     inkscape:snap-nodes="true"
     width="240px"
     inkscape:snap-bbox="true"
     inkscape:bbox-nodes="true"
     inkscape:zoom="2.6217462"
     inkscape:cx="121.10249"
     inkscape:cy="107.75261"
     inkscape:window-width="1920"
     inkscape:window-height="1047"
     inkscape:window-x="0"
     inkscape:window-y="0"
     inkscape:window-maximized="1"
     inkscape:current-layer="layer2" />
  <defs
     id="defs2">
    <inkscape:path-effect
       effect="skeletal"
       id="path-effect4150"
       is_visible="true"
       lpeversion="1"
       pattern="m 11.261311,395.69044 c 69.458456,-83.51464 -138.433201,11.38348 -29.832191,13.61776 108.601015,2.23428 -95.21165,-101.13396 -29.24686,-14.83321 65.964794,86.30074 19.706214,-137.49546 -6.638048,-32.11448 -26.344262,105.38099 119.784902,-70.32007 20.969351,-25.21288 -98.815553,45.1072 129.663115,49.80776 32.78639941,0.67453 C -97.576753,288.68893 41.20232,470.25149 19.214584,363.87616 -2.7731525,257.50082 -58.197145,479.20508 11.261311,395.69044 Z"
       copytype="single_stretched"
       prop_scale="0.814808"
       scale_y_rel="false"
       spacing="0"
       normal_offset="0"
       tang_offset="0"
       prop_units="false"
       vertical_pattern="false"
       hide_knot="false"
       fuse_tolerance="0" />
    <inkscape:path-effect
       effect="bspline"
       id="path-effect4101"
       is_visible="true"
       lpeversion="1"
       weight="33.333333"
       steps="2"
       helper_size="0"
       apply_no_weight="true"
       apply_with_weight="true"
       only_selected="false" />
    <inkscape:path-effect
       effect="skeletal"
       id="path-effect3904"
       is_visible="true"
       lpeversion="1"
       pattern="m 11.261311,395.69044 c 69.458456,-83.51464 -138.433201,11.38348 -29.832191,13.61776 108.601015,2.23428 -95.21165,-101.13396 -29.24686,-14.83321 65.964794,86.30074 19.706214,-137.49546 -6.638048,-32.11448 -26.344262,105.38099 119.784902,-70.32007 20.969351,-25.21288 -98.815553,45.1072 129.663115,49.80776 32.78639941,0.67453 C -97.576753,288.68893 41.20232,470.25149 19.214584,363.87616 -2.7731525,257.50082 -58.197145,479.20508 11.261311,395.69044 Z"
       copytype="single_stretched"
       prop_scale="0.814808"
       scale_y_rel="false"
       spacing="0"
       normal_offset="0"
       tang_offset="0"
       prop_units="false"
       vertical_pattern="false"
       hide_knot="false"
       fuse_tolerance="0" />
    <inkscape:path-effect
       effect="skeletal"
       id="path-effect3527"
       is_visible="true"
       lpeversion="1"
       pattern="m 11.261311,395.69044 c 69.458456,-83.51464 -138.433201,11.38348 -29.832191,13.61776 108.601015,2.23428 -95.21165,-101.13396 -29.24686,-14.83321 65.964794,86.30074 19.706214,-137.49546 -6.638048,-32.11448 -26.344262,105.38099 119.784902,-70.32007 20.969351,-25.21288 -98.815553,45.1072 129.663115,49.80776 32.78639941,0.67453 C -97.576753,288.68893 41.20232,470.25149 19.214584,363.87616 -2.7731525,257.50082 -58.197145,479.20508 11.261311,395.69044 Z"
       copytype="single_stretched"
       prop_scale="0.81480758"
       scale_y_rel="false"
       spacing="0"
       normal_offset="0"
       tang_offset="0"
       prop_units="false"
       vertical_pattern="false"
       hide_knot="false"
       fuse_tolerance="0" />
    <inkscape:path-effect
       effect="skeletal"
       id="path-effect3112"
       is_visible="true"
       lpeversion="1"
       pattern="m 11.261311,395.69044 c 69.458456,-83.51464 -138.433201,11.38348 -29.832191,13.61776 108.601015,2.23428 -95.21165,-101.13396 -29.24686,-14.83321 65.964794,86.30074 19.706214,-137.49546 -6.638048,-32.11448 -26.344262,105.38099 119.784902,-70.32007 20.969351,-25.21288 -98.815553,45.1072 129.663115,49.80776 32.78639941,0.67453 C -97.576753,288.68893 41.20232,470.25149 19.214584,363.87616 -2.7731525,257.50082 -58.197145,479.20508 11.261311,395.69044 Z"
       copytype="single_stretched"
       prop_scale="-0.51236055"
       scale_y_rel="false"
       spacing="0"
       normal_offset="0"
       tang_offset="0"
       prop_units="false"
       vertical_pattern="false"
       hide_knot="false"
       fuse_tolerance="0" />
    <inkscape:path-effect
       effect="skeletal"
       id="path-effect2175"
       is_visible="true"
       lpeversion="1"
       pattern="m 173.24957,45.976535 c 72.3875,42.85632 -141.448314,43.91918 -69.46038,0.34526 C 175.77713,2.7478553 69.746926,195.29829 69.347356,108.86801 68.947786,22.437775 176.75341,213.92535 104.36591,171.06902 31.978396,128.21269 245.81423,127.14984 173.82628,170.72377 101.83835,214.29771 207.86854,21.747275 208.26812,108.17752 208.66768,194.60779 100.86207,3.1202053 173.24957,45.976535 Z"
       copytype="single_stretched"
       prop_scale="0.73261176"
       scale_y_rel="false"
       spacing="0"
       normal_offset="0"
       tang_offset="0"
       prop_units="false"
       vertical_pattern="false"
       hide_knot="false"
       fuse_tolerance="0" />
    <inkscape:path-effect
       effect="skeletal"
       id="path-effect2169"
       is_visible="true"
       lpeversion="1"
       pattern="M 66.750436,45.976534 C -5.6370635,88.832854 208.19875,89.895714 136.21082,46.321794 64.222876,2.7478543 170.25308,195.29829 170.65265,108.86801 171.05222,22.437774 63.246596,213.92535 135.6341,171.06902 208.02161,128.21269 -5.8142235,127.14984 66.173726,170.72377 138.16166,214.29771 32.131466,21.747274 31.731886,108.17752 31.332326,194.60779 139.13794,3.1202043 66.750436,45.976534 Z"
       copytype="single_stretched"
       prop_scale="0.73261176"
       scale_y_rel="false"
       spacing="0"
       normal_offset="0"
       tang_offset="0"
       prop_units="false"
       vertical_pattern="false"
       hide_knot="false"
       fuse_tolerance="0" />
    <inkscape:path-effect
       effect="skeletal"
       id="path-effect2163"
       is_visible="true"
       lpeversion="1"
       pattern="M 66.750426,194.02347 C -5.6370734,151.16715 208.19874,150.10429 136.21081,193.67821 64.222866,237.25215 170.25307,44.701716 170.65264,131.13199 171.05221,217.56223 63.246586,26.074658 135.63409,68.930981 208.0216,111.78731 -5.8142334,112.85016 66.173716,69.276231 138.16165,25.702299 32.131456,218.25273 31.731876,131.82248 31.332316,45.392211 139.13793,236.8798 66.750426,194.02347 Z"
       copytype="single_stretched"
       prop_scale="0.73261176"
       scale_y_rel="false"
       spacing="0"
       normal_offset="0"
       tang_offset="0"
       prop_units="false"
       vertical_pattern="false"
       hide_knot="false"
       fuse_tolerance="0" />
    <inkscape:path-effect
       effect="skeletal"
       id="path-effect2077"
       is_visible="true"
       lpeversion="1"
       pattern="M 173.24957,194.02347 C 245.63707,151.16715 31.801254,150.10429 103.78918,193.67821 175.77713,237.25215 69.746924,44.701721 69.347354,131.13199 68.947784,217.56223 176.75341,26.074663 104.3659,68.930986 c -72.387506,42.856324 141.44833,43.919174 69.46038,0.34525 -71.98794,-43.573932 34.04226,148.976494 34.44184,62.546244 0.39956,-86.430264 -107.40606,105.05732 -35.01855,62.20099 z"
       copytype="single_stretched"
       prop_scale="0.73261176"
       scale_y_rel="false"
       spacing="0"
       normal_offset="0"
       tang_offset="0"
       prop_units="false"
       vertical_pattern="false"
       hide_knot="false"
       fuse_tolerance="0" />
    <inkscape:path-effect
       effect="skeletal"
       id="path-effect1788"
       is_visible="true"
       lpeversion="1"
       pattern="M 176.22528,197.13505 C 252.0351,152.8541 28.089606,151.75591 103.48096,196.77832 178.87233,241.80074 67.829263,42.849557 67.410802,132.15293 66.992341,221.45629 179.89477,23.603301 104.08494,67.884255 28.275122,112.16521 252.22062,113.2634 176.82926,68.24098 c -75.39137,-45.022417 35.6517,153.92876 36.07016,64.6254 0.41846,-89.303374 -112.48397,108.54963 -36.67414,64.26867 z"
       copytype="single_stretched"
       prop_scale="0.73261176"
       scale_y_rel="false"
       spacing="0"
       normal_offset="0"
       tang_offset="0"
       prop_units="false"
       vertical_pattern="false"
       hide_knot="false"
       fuse_tolerance="0" />
    <inkscape:path-effect
       effect="skeletal"
       id="path-effect1737"
       is_visible="true"
       lpeversion="1"
       pattern="M 171.55304,165.32202 C 243.00021,124.52737 31.942168,123.51564 102.99496,164.99338 174.04776,206.47112 69.394916,23.183633 69.000536,105.45603 68.606156,187.72842 175.01136,5.4526605 103.56418,46.247316 32.117008,87.041971 243.17505,88.053695 172.12226,46.575955 101.06946,5.0982137 205.7223,188.3857 206.11668,106.11331 206.51106,23.840911 100.10586,206.11668 171.55304,165.32202 Z"
       copytype="single_stretched"
       prop_scale="0.909101"
       scale_y_rel="false"
       spacing="0"
       normal_offset="0"
       tang_offset="0"
       prop_units="false"
       vertical_pattern="false"
       hide_knot="false"
       fuse_tolerance="0" />
    <inkscape:path-effect
       effect="skeletal"
       id="path-effect1364"
       is_visible="true"
       lpeversion="1"
       pattern="M 171.55304,165.32202 C 243.00021,124.52737 31.942168,123.51564 102.99496,164.99338 174.04776,206.47112 69.394916,23.183633 69.000536,105.45603 68.606156,187.72842 175.01136,5.4526605 103.56418,46.247316 32.117008,87.041971 243.17505,88.053695 172.12226,46.575955 101.06946,5.0982137 205.7223,188.3857 206.11668,106.11331 206.51106,23.840911 100.10586,206.11668 171.55304,165.32202 Z"
       copytype="single_stretched"
       prop_scale="1"
       scale_y_rel="false"
       spacing="0"
       normal_offset="0"
       tang_offset="0"
       prop_units="false"
       vertical_pattern="false"
       hide_knot="false"
       fuse_tolerance="0" />
  </defs>
  <g
     inkscape:label="Layer_I"
     inkscape:groupmode="layer"
     id="layer1"
     sodipodi:insensitive="true">
    <rect
       style="fill:#ff9955;fill-opacity:0;stroke:none;stroke-width:10"
       id="rect846"
       width="3840"
       height="2160"
       x="0"
       y="0"
       rx="0"
       ry="0"
       sodipodi:insensitive="true"
       inkscape:label="Background" />
  </g>
  <g
     inkscape:groupmode="layer"
     id="layer2"
     inkscape:label="Layer_II">
    <g
       id="g977"
       style="display:inline;fill:#6bb9ed;fill-opacity:1;stroke-width:0.36106"
       transform="matrix(2.7465598,0,0,2.7928841,-209.58756,-215.15063)">
      <path
         id="path4527"
         style="display:inline;fill:#6bb9ed;fill-opacity:1;fill-rule:evenodd;stroke:#000000;stroke-width:0.36106;stroke-linecap:square;stroke-linejoin:bevel;stroke-opacity:1;stop-color:#000000"
         d="m 119.29862,120.74428 c -0.25329,-0.32824 -0.50364,-0.65383 -0.75391,-0.98438 -0.077,0.31404 -0.13819,0.62894 -0.21289,0.94336 0.32312,0.0104 0.64345,0.0329 0.9668,0.041 z" />
      <path
         id="path4583"
         style="display:inline;fill:#6bb9ed;fill-opacity:1;fill-rule:evenodd;stroke:#000000;stroke-width:0.36106;stroke-linecap:square;stroke-linejoin:bevel;stroke-opacity:1;stop-color:#000000"
         d="m 120.53495,120.76968 c -0.41346,-0.007 -0.82295,-0.015 -1.23633,-0.0254 0.19696,0.25525 0.40288,0.5002 0.60156,0.75391 0.20934,-0.2458 0.42708,-0.48111 0.63477,-0.72852 z" />
      <path
         id="path4581"
         style="display:inline;fill:#6bb9ed;fill-opacity:1;fill-rule:evenodd;stroke:#000000;stroke-width:0.36106;stroke-linecap:square;stroke-linejoin:bevel;stroke-opacity:1;stop-color:#000000"
         d="m 121.32596,119.81851 c -0.26305,0.31923 -0.52506,0.63435 -0.79101,0.95117 0.32255,0.005 0.64242,-0.005 0.96484,-0.002 -0.0616,-0.31655 -0.10996,-0.63297 -0.17383,-0.94922 z" />
      <path
         id="path4579"
         style="display:inline;fill:#6bb9ed;fill-opacity:1;fill-rule:evenodd;stroke:#000000;stroke-width:0.36106;stroke-linecap:square;stroke-linejoin:bevel;stroke-opacity:1;stop-color:#000000"
         d="m 121.07596,118.60562 c 0.0857,0.40514 0.16804,0.80698 0.25,1.21289 0.20542,-0.24929 0.39609,-0.50719 0.59961,-0.75781 -0.28546,-0.14901 -0.56295,-0.30804 -0.84961,-0.45508 z" />
      <path
         id="path4577"
         style="display:inline;fill:#6bb9ed;fill-opacity:1;fill-rule:evenodd;stroke:#000000;stroke-width:0.36106;stroke-linecap:square;stroke-linejoin:bevel;stroke-opacity:1;stop-color:#000000"
         d="m 119.97049,118.04507 c 0.3705,0.18578 0.73669,0.37138 1.10547,0.56055 -0.0668,-0.31593 -0.14776,-0.62612 -0.21679,-0.94141 -0.29541,0.13069 -0.59406,0.248 -0.88868,0.38086 z" />
      <path
         id="path4575"
         style="display:inline;fill:#6bb9ed;fill-opacity:1;fill-rule:evenodd;stroke:#000000;stroke-width:0.36106;stroke-linecap:square;stroke-linejoin:bevel;stroke-opacity:1;stop-color:#000000"
         d="m 118.84549,118.55874 c 0.37541,-0.17344 0.74803,-0.34366 1.125,-0.51367 -0.28877,-0.1448 -0.58143,-0.2753 -0.87109,-0.41797 -0.0819,0.31212 -0.17417,0.6188 -0.25391,0.93164 z" />
      <path
         id="path4573"
         style="display:inline;fill:#6bb9ed;fill-opacity:1;fill-rule:evenodd;stroke:#000000;stroke-width:0.36106;stroke-linecap:square;stroke-linejoin:bevel;stroke-opacity:1;stop-color:#000000"
         d="m 117.97635,118.97866 c 0.19304,0.25877 0.37339,0.52374 0.56836,0.78125 0.0986,-0.40219 0.19851,-0.79989 0.30078,-1.20117 -0.29295,0.13535 -0.5773,0.28256 -0.86914,0.41992 z" />
      <g
         id="g5471"
         style="display:inline;fill:#6bb9ed;fill-opacity:1;stroke-width:0.36106"
         transform="translate(196.75565,-5.38657)">
        <path
           id="path4571"
           style="display:inline;fill:#6bb9ed;fill-opacity:1;fill-rule:evenodd;stroke:#000000;stroke-width:0.36106;stroke-linecap:square;stroke-linejoin:bevel;stroke-opacity:1;stop-color:#000000"
           d="m -82.019531,125.93359 c 1.068103,-0.53821 2.151864,-1.05606 3.240234,-1.56836 -0.718332,-0.96295 -1.43081,-1.92804 -2.119141,-2.90429 -12.094314,-5.55932 -24.419762,-9.0279 -31.990232,-7.84961 -0.19387,0.73262 -0.39608,1.31476 -0.58789,2.08203 -0.19199,0.76798 -0.28711,1.37692 -0.46094,2.11523 6.12525,4.60152 18.63183,7.33889 31.917969,8.125 z" />
        <path
           id="path4569"
           style="display:inline;fill:#6bb9ed;fill-opacity:1;fill-rule:evenodd;stroke:#000000;stroke-width:0.36106;stroke-linecap:square;stroke-linejoin:bevel;stroke-opacity:1;stop-color:#000000"
           d="m -79.21875,129.59961 c 0.245083,-1.17033 0.516954,-2.33975 0.794922,-3.50977 -1.201789,-0.0388 -2.402239,-0.0856 -3.595703,-0.15625 -11.88563,5.98909 -22.281069,13.46242 -26.080079,20.11524 0.45205,0.60856 0.78127,1.12924 1.26172,1.75781 0.48054,0.62868 0.89655,1.08367 1.36523,1.67969 7.416496,-1.92008 17.355796,-9.98971 26.25391,-19.88672 z" />
        <path
           id="path4567"
           style="display:inline;fill:#6bb9ed;fill-opacity:1;fill-rule:evenodd;stroke:#000000;stroke-width:0.36106;stroke-linecap:square;stroke-linejoin:bevel;stroke-opacity:1;stop-color:#000000"
           d="m -74.607422,129.69141 c -0.76144,-0.92045 -1.507316,-1.86073 -2.248047,-2.80664 -0.77981,0.91559 -1.563788,1.8256 -2.363281,2.71484 -2.728091,13.02723 -3.366579,25.81403 -0.533203,32.93164 0.757375,0.026 1.369455,0.0931 2.160156,0.10937 0.790979,0.0163 1.406004,-0.0267 2.164063,-0.0215 3.122905,-6.99631 3.010681,-19.79948 0.820312,-32.92773 z" />
        <path
           id="path4565"
           style="display:inline;fill:#6bb9ed;fill-opacity:1;fill-rule:evenodd;stroke:#000000;stroke-width:0.36106;stroke-linecap:square;stroke-linejoin:bevel;stroke-opacity:1;stop-color:#000000"
           d="m -71.660156,126.14648 c -1.194592,0.0214 -2.394116,0.0185 -3.595703,0.008 0.229456,1.1796 0.451801,2.35854 0.648437,3.53711 8.484057,10.25577 18.082196,18.72945 25.414063,20.95312 0.492813,-0.57625 0.927585,-1.01268 1.433593,-1.62109 0.506028,-0.60843 0.857168,-1.11548 1.333985,-1.70508 -3.52211,-6.80424 -13.603334,-14.69842 -25.234375,-21.17188 z" />
        <path
           id="path4563"
           style="display:inline;fill:#6bb9ed;fill-opacity:1;fill-rule:evenodd;stroke:#000000;stroke-width:0.36106;stroke-linecap:square;stroke-linejoin:bevel;stroke-opacity:1;stop-color:#000000"
           d="m -72.59375,121.63086 c -0.728001,0.94725 -1.47889,1.88369 -2.236328,2.81641 1.06524,0.55602 2.125949,1.11817 3.169922,1.69921 13.30869,-0.23868 25.918772,-2.46042 32.228515,-6.80664 -0.143214,-0.74426 -0.212936,-1.35625 -0.373047,-2.13086 -0.160175,-0.77492 -0.338289,-1.36512 -0.501953,-2.10546 -7.515858,-1.4886 -19.974137,1.46992 -32.287109,6.52734 z" />
        <path
           id="path4561"
           style="display:inline;fill:#6bb9ed;fill-opacity:1;fill-rule:evenodd;stroke:#000000;stroke-width:0.36106;stroke-linecap:square;stroke-linejoin:bevel;stroke-opacity:1;stop-color:#000000"
           d="m -76.705078,119.54492 c 0.286826,1.16027 0.551504,2.33162 0.808594,3.50586 1.098411,-0.48594 2.198034,-0.96618 3.302734,-1.41992 8.11085,-10.55353 14.237001,-21.796541 14.773438,-29.439454 -0.671666,-0.352336 -1.194422,-0.679061 -1.900391,-1.037109 -0.705707,-0.357915 -1.278135,-0.58629 -1.958985,-0.919922 -5.849035,4.9482 -11.302685,16.532565 -15.02539,29.310545 z" />
        <path
           id="path4559"
           style="display:inline;fill:#6bb9ed;fill-opacity:1;fill-rule:evenodd;stroke:#000000;stroke-width:0.36106;stroke-linecap:square;stroke-linejoin:bevel;stroke-opacity:1;stop-color:#000000"
           d="m -94.447266,91.439453 c 0.222193,7.658485 5.879341,19.143887 13.548828,30.021487 1.085317,0.49888 2.16448,1.02193 3.242188,1.55273 0.305148,-1.16258 0.616891,-2.32135 0.951172,-3.46875 -3.194007,-12.92037 -8.166037,-24.717745 -13.806641,-29.902342 -0.693643,0.305198 -1.27469,0.509477 -1.99414,0.837891 -0.720142,0.328729 -1.255778,0.634552 -1.941407,0.958984 z" />
      </g>
      <path
         id="path4557"
         style="display:inline;fill:#6bb9ed;fill-opacity:1;fill-rule:evenodd;stroke:#000000;stroke-width:0.36106;stroke-linecap:square;stroke-linejoin:bevel;stroke-opacity:1;stop-color:#000000"
         d="m 110.97852,77.144531 c -4.55381,0.04507 -7.10276,1.872615 -8.13282,4.876953 1.15212,0.465379 2.28831,1.213987 3.39844,2.234375 5.62756,-2.476085 10.50575,-4.281544 14.53125,-5.345703 -3.94955,-1.219842 -7.20734,-1.791256 -9.79687,-1.765625 z m 9.79687,1.765625 c 3.97833,1.228729 8.77971,3.23205 14.30078,5.9375 1.15156,-0.974204 2.31759,-1.674257 3.48828,-2.091797 -1.42072,-4.775314 -6.76414,-6.760189 -17.78906,-3.845703 z m 17.78906,3.845703 c 0.35421,1.190558 0.47662,2.545305 0.3711,4.048829 5.444,2.855763 9.89869,5.545706 13.24023,8.029296 -4.16147,-10.615079 -8.91992,-13.751364 -13.61133,-12.078125 z m 13.61133,12.078125 c 1.51965,3.87632 2.94643,8.879966 4.27344,14.882816 1.47819,0.29277 2.75292,0.76577 3.80859,1.41992 2.84587,-4.08785 1.06879,-9.50141 -8.08203,-16.302736 z m 8.08203,16.302736 c -0.70992,1.01974 -1.69188,1.96111 -2.93359,2.8164 1.16194,6.03848 1.835,11.19763 1.97656,15.35938 5.70623,-9.87422 5.19212,-15.55151 0.95703,-18.17578 z m -0.95703,18.17578 c -2.08307,3.6046 -5.10542,7.8396 -8.9707,12.61914 0.69323,1.33923 1.11726,2.63121 1.26367,3.86524 4.97112,-0.32273 8.09464,-5.0894 7.70703,-16.48438 z m -7.70703,16.48438 c -1.23964,0.0805 -2.58874,-0.10157 -4.03125,-0.53907 -3.99597,4.67256 -7.6083,8.41584 -10.77344,11.1211 11.27398,-1.69499 15.39146,-5.63639 14.80469,-10.58203 z m -14.80469,10.58203 c -4.11746,0.61905 -9.31289,0.89555 -15.46094,0.85351 -0.61465,1.37703 -1.35913,2.51437 -2.23242,3.39844 3.35194,3.68485 9.02605,3.15606 17.69336,-4.25195 z m -17.69336,4.25195 c -0.83568,-0.91869 -1.53446,-2.08628 -2.09179,-3.48633 -6.14411,-0.21082 -11.32371,-0.70251 -15.41211,-1.49023 8.35516,7.75801 14.00328,8.5204 17.5039,4.97656 z m -17.5039,-4.97656 c -3.051273,-2.8332 -6.508057,-6.72157 -10.308597,-11.55469 -1.45942,0.37783 -2.813448,0.5045 -4.048828,0.37305 -0.79017,4.91785 3.160954,9.02438 14.357425,11.18164 z M 87.234375,144.47266 c 0.19714,-1.22703 0.674025,-2.50091 1.421875,-3.81055 -3.66582,-4.93495 -6.512183,-9.28908 -8.445312,-12.97656 -0.855671,11.36839 2.070157,16.26001 7.023437,16.78711 z m -7.023437,-16.78711 c 0.31252,-4.1522 1.198251,-9.27841 2.607421,-15.26367 -1.20555,-0.90565 -2.148966,-1.88746 -2.816406,-2.93555 -4.33823,2.44819 -5.085435,8.10002 0.208985,18.19922 z m -0.208985,-18.19922 c 1.08188,-0.61054 2.375775,-1.0299 3.865235,-1.26172 C 85.440057,102.28091 87.07211,97.340071 88.75,93.529297 79.3268,99.948681 77.326403,105.28482 80.001953,109.48633 Z M 88.75,93.529297 c 3.4408,-2.343985 8.00194,-4.847215 13.55859,-7.476563 -0.0437,-1.507013 0.13417,-2.855988 0.53711,-4.03125 -4.61897,-1.865755 -9.50077,1.07194 -14.0957,11.507813 z" />
      <path
         id="path5485"
         style="display:inline;fill:#6bb9ed;fill-opacity:1;fill-rule:evenodd;stroke:#000000;stroke-width:0.36106;stroke-linecap:square;stroke-linejoin:bevel;stroke-opacity:1;stop-color:#000000"
         d="m 110.97831,77.144679 c -4.55381,0.04507 -7.10276,1.872615 -8.13282,4.876953 1.15212,0.465379 2.28831,1.213987 3.39844,2.234375 5.62756,-2.476085 10.50575,-4.281544 14.53125,-5.345703 -3.94955,-1.219842 -7.20734,-1.791256 -9.79687,-1.765625 z m 9.79687,1.765625 c 3.97833,1.228729 8.77971,3.23205 14.30078,5.9375 1.15156,-0.974204 2.31759,-1.674257 3.48828,-2.091797 -1.42072,-4.775314 -6.76414,-6.760189 -17.78906,-3.845703 z m 17.78906,3.845703 c 0.35421,1.190558 0.47662,2.545305 0.3711,4.048829 5.444,2.855762 9.89869,5.545706 13.24023,8.029296 -4.16147,-10.615079 -8.91992,-13.751364 -13.61133,-12.078125 z m 13.61133,12.078125 c 1.51965,3.87632 2.94643,8.879968 4.27344,14.882818 1.47819,0.29277 2.75292,0.76577 3.80859,1.41992 2.84587,-4.08785 1.06879,-9.50141 -8.08203,-16.302738 z m 8.08203,16.302738 c -0.70992,1.01974 -1.69188,1.96111 -2.93359,2.8164 1.16194,6.03849 1.835,11.19763 1.97656,15.35938 5.70623,-9.87422 5.19212,-15.55151 0.95703,-18.17578 z m -0.95703,18.17578 c -2.08307,3.6046 -5.10542,7.8396 -8.9707,12.61914 0.69323,1.33923 1.11726,2.6312 1.26367,3.86524 4.97112,-0.32274 8.09464,-5.0894 7.70703,-16.48438 z m -7.70703,16.48438 c -1.23964,0.0805 -2.58874,-0.10157 -4.03125,-0.53907 -3.99597,4.67256 -7.6083,8.41584 -10.77344,11.1211 11.27398,-1.69499 15.39146,-5.6364 14.80469,-10.58203 z m -14.80469,10.58203 c -4.11746,0.61905 -9.31289,0.89555 -15.46094,0.85351 -0.61464,1.37703 -1.35913,2.51437 -2.23242,3.39844 3.35194,3.68485 9.02605,3.15606 17.69336,-4.25195 z m -17.69336,4.25195 c -0.83568,-0.91869 -1.53446,-2.08628 -2.09179,-3.48633 -6.14411,-0.21082 -11.32371,-0.70251 -15.41211,-1.49023 8.35516,7.75801 14.00328,8.5204 17.5039,4.97656 z m -17.5039,-4.97656 c -3.051274,-2.8332 -6.508055,-6.72157 -10.308595,-11.55469 -1.45942,0.37783 -2.813448,0.5045 -4.048828,0.37305 -0.79017,4.91785 3.160951,9.02438 14.357423,11.18164 z M 87.234167,144.47281 c 0.19714,-1.22703 0.674025,-2.50091 1.421875,-3.81055 -3.66582,-4.93495 -6.512183,-9.28908 -8.445312,-12.97656 -0.855672,11.36839 2.070157,16.26001 7.023437,16.78711 z M 80.21073,127.6857 c 0.31252,-4.1522 1.198251,-9.27841 2.607421,-15.26367 -1.20555,-0.90565 -2.148966,-1.88746 -2.816406,-2.93555 -4.33823,2.44819 -5.085436,8.10002 0.208985,18.19922 z m -0.208985,-18.19922 c 1.08188,-0.61054 2.375775,-1.0299 3.865235,-1.26172 1.572868,-5.9437 3.204922,-10.884541 4.882812,-14.695315 -9.4232,6.419384 -11.423597,11.755525 -8.748047,15.957035 z m 8.748047,-15.957035 c 3.4408,-2.343985 8.001944,-4.847215 13.558588,-7.476563 -0.0437,-1.507013 0.13417,-2.855988 0.53711,-4.03125 -4.618965,-1.865755 -9.500768,1.07194 -14.095698,11.507813 z m 13.558588,-7.476563 c 0.2222,7.658485 5.87935,19.143888 13.54883,30.021488 1.08532,0.49888 2.16448,1.02193 3.24219,1.55273 0.30515,-1.16258 0.61689,-2.32135 0.95117,-3.46875 -3.194,-12.92037 -8.16603,-24.717746 -13.80664,-29.902343 -0.69364,0.305198 -1.27469,0.509477 -1.99414,0.837891 -0.72014,0.328729 -1.25578,0.634552 -1.94141,0.958984 z m 17.74219,28.105468 c 0.28683,1.16027 0.55151,2.33162 0.8086,3.50586 1.09841,-0.48594 2.19803,-0.96618 3.30273,-1.41992 8.11085,-10.55353 14.237,-21.796541 14.77344,-29.439454 -0.67167,-0.352336 -1.19442,-0.679062 -1.90039,-1.03711 -0.70571,-0.357915 -1.27814,-0.58629 -1.95899,-0.919922 -5.84903,4.9482 -11.30268,16.532566 -15.02539,29.310546 z m 4.11133,2.08594 c -0.728,0.94725 -1.47889,1.88369 -2.23633,2.81641 1.06524,0.55602 2.12595,1.11818 3.16992,1.69922 13.30869,-0.23868 25.91878,-2.46042 32.22852,-6.80665 -0.14322,-0.74425 -0.21294,-1.35624 -0.37305,-2.13085 -0.16017,-0.77492 -0.33829,-1.36513 -0.50195,-2.10547 -7.51586,-1.4886 -19.97414,1.46992 -32.28711,6.52734 z m 0.93359,4.51563 c -1.19459,0.0214 -2.39411,0.0183 -3.5957,0.008 0.22946,1.1796 0.4518,2.35854 0.64844,3.53711 8.48405,10.25577 18.08219,18.72945 25.41406,20.95312 0.49281,-0.57625 0.92759,-1.01268 1.43359,-1.62109 0.50603,-0.60843 0.85717,-1.11548 1.33399,-1.70508 -3.52211,-6.80424 -13.60334,-14.69841 -25.23438,-21.17187 z m -2.94726,3.54492 c -0.76144,-0.92045 -1.50732,-1.86073 -2.24805,-2.80664 -0.77981,0.91559 -1.56379,1.8256 -2.36328,2.71484 -2.72809,13.02723 -3.36658,25.81403 -0.5332,32.93164 0.75737,0.026 1.36945,0.0931 2.16015,0.10938 0.79098,0.0163 1.40601,-0.0267 2.16406,-0.0215 3.12291,-6.99631 3.01069,-19.79948 0.82032,-32.92773 z m -4.61133,-0.0918 c 0.24508,-1.17033 0.51695,-2.33974 0.79492,-3.50977 -1.20179,-0.0388 -2.40224,-0.0856 -3.5957,-0.15624 -11.88563,5.98909 -22.281068,13.46241 -26.080078,20.11523 0.45205,0.60856 0.781269,1.12924 1.261719,1.75781 0.48054,0.62868 0.896554,1.08367 1.365234,1.67969 7.416496,-1.92008 17.355795,-9.98971 26.253905,-19.88672 z m -2.80078,-3.66601 c 1.0681,-0.53822 2.15186,-1.05606 3.24023,-1.56836 -0.71833,-0.96295 -1.43081,-1.92805 -2.11914,-2.9043 -12.09431,-5.55932 -24.41976,-9.0279 -31.99023,-7.84961 -0.193871,0.73262 -0.396081,1.31476 -0.587891,2.08203 -0.19199,0.76798 -0.287108,1.37693 -0.460938,2.11524 6.12525,4.60151 18.631829,7.33889 31.917969,8.125 z" />
    </g>
  </g>
</svg>
