<?xml version="1.0" encoding="UTF-8" standalone="no"?>
<!-- Created with Inkscape (http://www.inkscape.org/) -->

<svg
   width="240mm"
   height="240mm"
   viewBox="0 0 240 240"
   version="1.1"
   id="svg5"
   inkscape:version="1.1.1 (3bf5ae0d25, 2021-09-20)"
   sodipodi:docname="Patter_file60.svg"
   xmlns:inkscape="http://www.inkscape.org/namespaces/inkscape"
   xmlns:sodipodi="http://sodipodi.sourceforge.net/DTD/sodipodi-0.dtd"
   xmlns="http://www.w3.org/2000/svg"
   xmlns:svg="http://www.w3.org/2000/svg">
  <sodipodi:namedview
     id="namedview7"
     pagecolor="#ffffff"
     bordercolor="#666666"
     borderopacity="1.0"
     inkscape:pageshadow="2"
     inkscape:pageopacity="0.0"
     inkscape:pagecheckerboard="0"
     inkscape:document-units="mm"
     showgrid="false"
     inkscape:snap-bbox="true"
     inkscape:bbox-paths="true"
     inkscape:bbox-nodes="true"
     showguides="false"
     inkscape:guide-bbox="true"
     inkscape:snap-center="false"
     inkscape:zoom="0.6557093"
     inkscape:cx="909.70191"
     inkscape:cy="465.90768"
     inkscape:window-width="1920"
     inkscape:window-height="1047"
     inkscape:window-x="0"
     inkscape:window-y="0"
     inkscape:window-maximized="1"
     inkscape:current-layer="g851"
     inkscape:snap-nodes="true"
     inkscape:snap-others="true"
     inkscape:snap-object-midpoints="true"
     inkscape:showpageshadow="false"
     inkscape:snap-page="true">
    <sodipodi:guide
       position="149.15012,28.251659"
       orientation="1,0"
       id="guide1205" />
  </sodipodi:namedview>
  <defs
     id="defs2" />
  <g
     inkscape:label="Layer"
     inkscape:groupmode="layer"
     id="layer1"
     style="display:inline">
    <g
       id="g1309"
       style="display:inline"
       transform="translate(1.3561457e-7,15.104934)">
      <g
         id="g851"
         style="display:inline;fill:#6e6b10;fill-opacity:1;stroke:#10455b;stroke-width:1.5;stroke-opacity:1">
        <path
           sodipodi:type="star"
           style="fill:#6e6b10;fill-opacity:1;stroke:#10455b;stroke-width:9.83002;stroke-opacity:1"
           id="path1098"
           inkscape:flatsided="false"
           sodipodi:sides="5"
           sodipodi:cx="894.23358"
           sodipodi:cy="202.61127"
           sodipodi:r1="147.29594"
           sodipodi:r2="52.440502"
           sodipodi:arg1="-1.5707963"
           sodipodi:arg2="-0.94247777"
           inkscape:rounded="0.8807867"
           inkscape:randomized="0"
           transform="matrix(0.15265207,0,0,0.15253548,77.063171,109.87381)"
           inkscape:transform-center-x="-1.400767e-06"
           inkscape:transform-center-y="-2.7063924"
           inkscape:label="Star_II"
           d="m 894.23359,55.315323 c 96.27592,2e-6 -47.06511,48.281117 30.82375,104.870687 77.88886,56.58957 79.51216,-94.655539 109.26306,-3.09169 29.7508,91.56385 -60.46204,-29.84189 -90.21294,61.72195 -29.7509,91.56385 114.59334,46.37035 36.7045,102.95992 -77.88886,56.58957 9.69755,-66.72442 -86.57838,-66.72442 -96.27593,0 -8.68952,123.31399 -86.57839,66.72442 -77.88886,-56.58958 66.45541,-11.39607 36.70451,-102.95992 -29.7509,-91.56385 -119.96379,29.84189 -90.21288,-61.72196 29.7509,-91.563845 31.37415,59.68127 109.26301,3.0917 77.88886,-56.58957 -65.45217,-104.87069 30.82376,-104.870687 z" />
        <path
           sodipodi:type="star"
           style="fill:#6e6b10;fill-opacity:1;stroke:#10455b;stroke-width:9.83002;stroke-opacity:1"
           id="path1016"
           inkscape:flatsided="false"
           sodipodi:sides="5"
           sodipodi:cx="894.23358"
           sodipodi:cy="202.61127"
           sodipodi:r1="147.29594"
           sodipodi:r2="52.440502"
           sodipodi:arg1="-1.5707963"
           sodipodi:arg2="-0.94247777"
           inkscape:rounded="0.8807867"
           inkscape:randomized="0"
           transform="matrix(0.15265207,0,0,0.15253548,-55.391533,66.836675)"
           inkscape:transform-center-x="-1.400767e-06"
           inkscape:transform-center-y="-2.7063924"
           inkscape:label="Star_II"
           d="m 894.23359,55.315323 c 96.27592,2e-6 -47.06511,48.281117 30.82375,104.870687 77.88886,56.58957 79.51216,-94.655539 109.26306,-3.09169 29.7508,91.56385 -60.46204,-29.84189 -90.21294,61.72195 -29.7509,91.56385 114.59334,46.37035 36.7045,102.95992 -77.88886,56.58957 9.69755,-66.72442 -86.57838,-66.72442 -96.27593,0 -8.68952,123.31399 -86.57839,66.72442 -77.88886,-56.58958 66.45541,-11.39607 36.70451,-102.95992 -29.7509,-91.56385 -119.96379,29.84189 -90.21288,-61.72196 29.7509,-91.563845 31.37415,59.68127 109.26301,3.0917 77.88886,-56.58957 -65.45217,-104.87069 30.82376,-104.870687 z" />
        <path
           sodipodi:type="star"
           style="fill:#6e6b10;fill-opacity:1;stroke:#10455b;stroke-width:9.83002;stroke-opacity:1"
           id="path1018"
           inkscape:flatsided="false"
           sodipodi:sides="5"
           sodipodi:cx="894.23358"
           sodipodi:cy="202.61127"
           sodipodi:r1="147.29594"
           sodipodi:r2="52.440502"
           sodipodi:arg1="-1.5707963"
           sodipodi:arg2="-0.94247777"
           inkscape:rounded="0.8807867"
           inkscape:randomized="0"
           transform="matrix(0.15265207,0,0,0.15253548,41.322693,-0.12405713)"
           inkscape:transform-center-x="-1.400767e-06"
           inkscape:transform-center-y="-2.7063924"
           inkscape:label="Star_II"
           d="m 894.23359,55.315323 c 96.27592,2e-6 -47.06511,48.281117 30.82375,104.870687 77.88886,56.58957 79.51216,-94.655539 109.26306,-3.09169 29.7508,91.56385 -60.46204,-29.84189 -90.21294,61.72195 -29.7509,91.56385 114.59334,46.37035 36.7045,102.95992 -77.88886,56.58957 9.69755,-66.72442 -86.57838,-66.72442 -96.27593,0 -8.68952,123.31399 -86.57839,66.72442 -77.88886,-56.58958 66.45541,-11.39607 36.70451,-102.95992 -29.7509,-91.56385 -119.96379,29.84189 -90.21288,-61.72196 29.7509,-91.563845 31.37415,59.68127 109.26301,3.0917 77.88886,-56.58957 -65.45217,-104.87069 30.82376,-104.870687 z" />
        <path
           sodipodi:type="star"
           style="fill:#6e6b10;fill-opacity:1;stroke:#10455b;stroke-width:9.83002;stroke-opacity:1"
           id="path1224"
           inkscape:flatsided="false"
           sodipodi:sides="5"
           sodipodi:cx="894.23358"
           sodipodi:cy="202.61127"
           sodipodi:r1="147.29594"
           sodipodi:r2="52.440502"
           sodipodi:arg1="-1.5707963"
           sodipodi:arg2="-0.94247777"
           inkscape:rounded="0.8807867"
           inkscape:randomized="0"
           transform="matrix(0.15265207,0,0,0.15253548,-74.335913,-0.12405403)"
           inkscape:transform-center-x="-1.400767e-06"
           inkscape:transform-center-y="-2.7063924"
           inkscape:label="Star_II"
           d="m 894.23359,55.315323 c 96.27592,2e-6 -47.06511,48.281117 30.82375,104.870687 77.88886,56.58957 79.51216,-94.655539 109.26306,-3.09169 29.7508,91.56385 -60.46204,-29.84189 -90.21294,61.72195 -29.7509,91.56385 114.59334,46.37035 36.7045,102.95992 -77.88886,56.58957 9.69755,-66.72442 -86.57838,-66.72442 -96.27593,0 -8.68952,123.31399 -86.57839,66.72442 -77.88886,-56.58958 66.45541,-11.39607 36.70451,-102.95992 -29.7509,-91.56385 -119.96379,29.84189 -90.21288,-61.72196 29.7509,-91.563845 31.37415,59.68127 109.26301,3.0917 77.88886,-56.58957 -65.45217,-104.87069 30.82376,-104.870687 z" />
        <path
           sodipodi:type="star"
           style="fill:#6e6b10;fill-opacity:1;stroke:#10455b;stroke-width:9.83002;stroke-opacity:1"
           id="path1226"
           inkscape:flatsided="false"
           sodipodi:sides="5"
           sodipodi:cx="894.23358"
           sodipodi:cy="202.61127"
           sodipodi:r1="147.29594"
           sodipodi:r2="52.440502"
           sodipodi:arg1="-1.5707963"
           sodipodi:arg2="-0.94247777"
           inkscape:rounded="0.8807867"
           inkscape:randomized="0"
           transform="matrix(0.15265207,0,0,0.15253548,-16.506609,38.585122)"
           inkscape:transform-center-x="-1.400767e-06"
           inkscape:transform-center-y="-2.7063924"
           inkscape:label="Star_II"
           d="m 894.23359,55.315323 c 96.27592,2e-6 -47.06511,48.281117 30.82375,104.870687 77.88886,56.58957 79.51216,-94.655539 109.26306,-3.09169 29.7508,91.56385 -60.46204,-29.84189 -90.21294,61.72195 -29.7509,91.56385 114.59334,46.37035 36.7045,102.95992 -77.88886,56.58957 9.69755,-66.72442 -86.57838,-66.72442 -96.27593,0 -8.68952,123.31399 -86.57839,66.72442 -77.88886,-56.58958 66.45541,-11.39607 36.70451,-102.95992 -29.7509,-91.56385 -119.96379,29.84189 -90.21288,-61.72196 29.7509,-91.563845 31.37415,59.68127 109.26301,3.0917 77.88886,-56.58957 -65.45217,-104.87069 30.82376,-104.870687 z" />
        <path
           sodipodi:type="star"
           style="fill:#6e6b10;fill-opacity:1;stroke:#10455b;stroke-width:9.83002;stroke-opacity:1"
           id="path1228"
           inkscape:flatsided="false"
           sodipodi:sides="5"
           sodipodi:cx="894.23358"
           sodipodi:cy="202.61127"
           sodipodi:r1="147.29594"
           sodipodi:r2="52.440502"
           sodipodi:arg1="-1.5707963"
           sodipodi:arg2="-0.94247777"
           inkscape:rounded="0.8807867"
           inkscape:randomized="0"
           transform="matrix(0.15265207,0,0,0.15253548,22.378317,66.836673)"
           inkscape:transform-center-x="-1.400767e-06"
           inkscape:transform-center-y="-2.7063924"
           inkscape:label="Star_II"
           d="m 894.23359,55.315323 c 96.27592,2e-6 -47.06511,48.281117 30.82375,104.870687 77.88886,56.58957 79.51216,-94.655539 109.26306,-3.09169 29.7508,91.56385 -60.46204,-29.84189 -90.21294,61.72195 -29.7509,91.56385 114.59334,46.37035 36.7045,102.95992 -77.88886,56.58957 9.69755,-66.72442 -86.57838,-66.72442 -96.27593,0 -8.68952,123.31399 -86.57839,66.72442 -77.88886,-56.58958 66.45541,-11.39607 36.70451,-102.95992 -29.7509,-91.56385 -119.96379,29.84189 -90.21288,-61.72196 29.7509,-91.563845 31.37415,59.68127 109.26301,3.0917 77.88886,-56.58957 -65.45217,-104.87069 30.82376,-104.870687 z" />
        <path
           sodipodi:type="star"
           style="fill:#6e6b10;fill-opacity:1;stroke:#10455b;stroke-width:9.83002;stroke-opacity:1"
           id="path1230"
           inkscape:flatsided="false"
           sodipodi:sides="5"
           sodipodi:cx="894.23358"
           sodipodi:cy="202.61127"
           sodipodi:r1="147.29594"
           sodipodi:r2="52.440502"
           sodipodi:arg1="-1.5707963"
           sodipodi:arg2="-0.94247777"
           inkscape:rounded="0.8807867"
           inkscape:randomized="0"
           transform="matrix(0.15265207,0,0,0.15253548,7.5255983,112.54864)"
           inkscape:transform-center-x="-1.400767e-06"
           inkscape:transform-center-y="-2.7063924"
           inkscape:label="Star_II"
           d="m 894.23359,55.315323 c 96.27592,2e-6 -47.06511,48.281117 30.82375,104.870687 77.88886,56.58957 79.51216,-94.655539 109.26306,-3.09169 29.7508,91.56385 -60.46204,-29.84189 -90.21294,61.72195 -29.7509,91.56385 114.59334,46.37035 36.7045,102.95992 -77.88886,56.58957 9.69755,-66.72442 -86.57838,-66.72442 -96.27593,0 -8.68952,123.31399 -86.57839,66.72442 -77.88886,-56.58958 66.45541,-11.39607 36.70451,-102.95992 -29.7509,-91.56385 -119.96379,29.84189 -90.21288,-61.72196 29.7509,-91.563845 31.37415,59.68127 109.26301,3.0917 77.88886,-56.58957 -65.45217,-104.87069 30.82376,-104.870687 z" />
        <path
           sodipodi:type="star"
           style="fill:#6e6b10;fill-opacity:1;stroke:#10455b;stroke-width:9.83002;stroke-opacity:1"
           id="path1472"
           inkscape:flatsided="false"
           sodipodi:sides="5"
           sodipodi:cx="894.23358"
           sodipodi:cy="202.61127"
           sodipodi:r1="147.29594"
           sodipodi:r2="52.440502"
           sodipodi:arg1="-1.5707963"
           sodipodi:arg2="-0.94247777"
           inkscape:rounded="0.8807867"
           inkscape:randomized="0"
           transform="matrix(0.15265207,0,0,0.15253548,-40.538812,112.54864)"
           inkscape:transform-center-x="-1.400767e-06"
           inkscape:transform-center-y="-2.7063924"
           inkscape:label="Star_II"
           d="m 894.23359,55.315323 c 96.27592,2e-6 -47.06511,48.281117 30.82375,104.870687 77.88886,56.58957 79.51216,-94.655539 109.26306,-3.09169 29.7508,91.56385 -60.46204,-29.84189 -90.21294,61.72195 -29.7509,91.56385 114.59334,46.37035 36.7045,102.95992 -77.88886,56.58957 9.69755,-66.72442 -86.57838,-66.72442 -96.27593,0 -8.68952,123.31399 -86.57839,66.72442 -77.88886,-56.58958 66.45541,-11.39607 36.70451,-102.95992 -29.7509,-91.56385 -119.96379,29.84189 -90.21288,-61.72196 29.7509,-91.563845 31.37415,59.68127 109.26301,3.0917 77.88886,-56.58957 -65.45217,-104.87069 30.82376,-104.870687 z" />
        <path
           sodipodi:type="star"
           style="fill:#6e6b10;fill-opacity:1;stroke:#10455b;stroke-width:9.83002;stroke-opacity:1"
           id="path1474"
           inkscape:flatsided="false"
           sodipodi:sides="5"
           sodipodi:cx="894.23358"
           sodipodi:cy="202.61127"
           sodipodi:r1="147.29594"
           sodipodi:r2="52.440502"
           sodipodi:arg1="-1.5707963"
           sodipodi:arg2="-0.94247777"
           inkscape:rounded="0.8807867"
           inkscape:randomized="0"
           transform="matrix(0.15265207,0,0,0.15253548,-16.506613,165.79979)"
           inkscape:transform-center-x="-1.400767e-06"
           inkscape:transform-center-y="-2.7063924"
           inkscape:label="Star_II"
           d="m 894.23359,55.315323 c 96.27592,2e-6 -47.06511,48.281117 30.82375,104.870687 77.88886,56.58957 79.51216,-94.655539 109.26306,-3.09169 29.7508,91.56385 -60.46204,-29.84189 -90.21294,61.72195 -29.7509,91.56385 114.59334,46.37035 36.7045,102.95992 -77.88886,56.58957 9.69755,-66.72442 -86.57838,-66.72442 -96.27593,0 -8.68952,123.31399 -86.57839,66.72442 -77.88886,-56.58958 66.45541,-11.39607 36.70451,-102.95992 -29.7509,-91.56385 -119.96379,29.84189 -90.21288,-61.72196 29.7509,-91.563845 31.37415,59.68127 109.26301,3.0917 77.88886,-56.58957 -65.45217,-104.87069 30.82376,-104.870687 z" />
        <path
           sodipodi:type="star"
           style="fill:#6e6b10;fill-opacity:1;stroke:#10455b;stroke-width:9.83002;stroke-opacity:1"
           id="path1476"
           inkscape:flatsided="false"
           sodipodi:sides="5"
           sodipodi:cx="894.23358"
           sodipodi:cy="202.61127"
           sodipodi:r1="147.29594"
           sodipodi:r2="52.440502"
           sodipodi:arg1="-1.5707963"
           sodipodi:arg2="-0.94247777"
           inkscape:rounded="0.8807867"
           inkscape:randomized="0"
           transform="matrix(0.15265207,0,0,0.15253548,-110.07638,109.87382)"
           inkscape:transform-center-x="-1.400767e-06"
           inkscape:transform-center-y="-2.7063924"
           inkscape:label="Star_II"
           d="m 894.23359,55.315323 c 96.27592,2e-6 -47.06511,48.281117 30.82375,104.870687 77.88886,56.58957 79.51216,-94.655539 109.26306,-3.09169 29.7508,91.56385 -60.46204,-29.84189 -90.21294,61.72195 -29.7509,91.56385 114.59334,46.37035 36.7045,102.95992 -77.88886,56.58957 9.69755,-66.72442 -86.57838,-66.72442 -96.27593,0 -8.68952,123.31399 -86.57839,66.72442 -77.88886,-56.58958 66.45541,-11.39607 36.70451,-102.95992 -29.7509,-91.56385 -119.96379,29.84189 -90.21288,-61.72196 29.7509,-91.563845 31.37415,59.68127 109.26301,3.0917 77.88886,-56.58957 -65.45217,-104.87069 30.82376,-104.870687 z" />
        <path
           sodipodi:type="star"
           style="fill:#6e6b10;fill-opacity:1;stroke:#10455b;stroke-width:9.83002;stroke-opacity:1"
           id="path1647"
           inkscape:flatsided="false"
           sodipodi:sides="5"
           sodipodi:cx="894.23358"
           sodipodi:cy="202.61127"
           sodipodi:r1="147.29594"
           sodipodi:r2="52.440502"
           sodipodi:arg1="-1.5707963"
           sodipodi:arg2="-0.94247777"
           inkscape:rounded="0.8807867"
           inkscape:randomized="0"
           transform="matrix(0.15265207,0,0,0.15253548,-74.600795,159.43094)"
           inkscape:transform-center-x="-1.400767e-06"
           inkscape:transform-center-y="-2.7063924"
           inkscape:label="Star_II"
           d="m 894.23359,55.315323 c 96.27592,2e-6 -47.06511,48.281117 30.82375,104.870687 77.88886,56.58957 79.51216,-94.655539 109.26306,-3.09169 29.7508,91.56385 -60.46204,-29.84189 -90.21294,61.72195 -29.7509,91.56385 114.59334,46.37035 36.7045,102.95992 -77.88886,56.58957 9.69755,-66.72442 -86.57838,-66.72442 -96.27593,0 -8.68952,123.31399 -86.57839,66.72442 -77.88886,-56.58958 66.45541,-11.39607 36.70451,-102.95992 -29.7509,-91.56385 -119.96379,29.84189 -90.21288,-61.72196 29.7509,-91.563845 31.37415,59.68127 109.26301,3.0917 77.88886,-56.58957 -65.45217,-104.87069 30.82376,-104.870687 z" />
        <path
           sodipodi:type="star"
           style="fill:#6e6b10;fill-opacity:1;stroke:#10455b;stroke-width:9.83002;stroke-opacity:1"
           id="path1729"
           inkscape:flatsided="false"
           sodipodi:sides="5"
           sodipodi:cx="894.23358"
           sodipodi:cy="202.61127"
           sodipodi:r1="147.29594"
           sodipodi:r2="52.440502"
           sodipodi:arg1="-1.5707963"
           sodipodi:arg2="-0.94247777"
           inkscape:rounded="0.8807867"
           inkscape:randomized="0"
           transform="matrix(0.15265207,0,0,0.15253548,41.587583,159.43094)"
           inkscape:transform-center-x="-1.400767e-06"
           inkscape:transform-center-y="-2.7063924"
           inkscape:label="Star_II"
           d="m 894.23359,55.315323 c 96.27592,2e-6 -47.06511,48.281117 30.82375,104.870687 77.88886,56.58957 79.51216,-94.655539 109.26306,-3.09169 29.7508,91.56385 -60.46204,-29.84189 -90.21294,61.72195 -29.7509,91.56385 114.59334,46.37035 36.7045,102.95992 -77.88886,56.58957 9.69755,-66.72442 -86.57838,-66.72442 -96.27593,0 -8.68952,123.31399 -86.57839,66.72442 -77.88886,-56.58958 66.45541,-11.39607 36.70451,-102.95992 -29.7509,-91.56385 -119.96379,29.84189 -90.21288,-61.72196 29.7509,-91.563845 31.37415,59.68127 109.26301,3.0917 77.88886,-56.58957 -65.45217,-104.87069 30.82376,-104.870687 z" />
        <path
           sodipodi:type="star"
           style="fill:#6e6b10;fill-opacity:1;stroke:#10455b;stroke-width:9.83002;stroke-opacity:1"
           id="path1731"
           inkscape:flatsided="false"
           sodipodi:sides="5"
           sodipodi:cx="894.23358"
           sodipodi:cy="202.61127"
           sodipodi:r1="147.29594"
           sodipodi:r2="52.440502"
           sodipodi:arg1="-1.5707963"
           sodipodi:arg2="-0.94247777"
           inkscape:rounded="0.8807867"
           inkscape:randomized="0"
           transform="matrix(0.15265207,0,0,0.15253548,77.491764,48.929223)"
           inkscape:transform-center-x="-1.400767e-06"
           inkscape:transform-center-y="-2.7063924"
           inkscape:label="Star_II"
           d="m 894.23359,55.315323 c 96.27592,2e-6 -47.06511,48.281117 30.82375,104.870687 77.88886,56.58957 79.51216,-94.655539 109.26306,-3.09169 29.7508,91.56385 -60.46204,-29.84189 -90.21294,61.72195 -29.7509,91.56385 114.59334,46.37035 36.7045,102.95992 -77.88886,56.58957 9.69755,-66.72442 -86.57838,-66.72442 -96.27593,0 -8.68952,123.31399 -86.57839,66.72442 -77.88886,-56.58958 66.45541,-11.39607 36.70451,-102.95992 -29.7509,-91.56385 -119.96379,29.84189 -90.21288,-61.72196 29.7509,-91.563845 31.37415,59.68127 109.26301,3.0917 77.88886,-56.58957 -65.45217,-104.87069 30.82376,-104.870687 z" />
        <path
           sodipodi:type="star"
           style="fill:#6e6b10;fill-opacity:1;stroke:#10455b;stroke-width:9.83002;stroke-opacity:1"
           id="path1733"
           inkscape:flatsided="false"
           sodipodi:sides="5"
           sodipodi:cx="894.23358"
           sodipodi:cy="202.61127"
           sodipodi:r1="147.29594"
           sodipodi:r2="52.440502"
           sodipodi:arg1="-1.5707963"
           sodipodi:arg2="-0.94247777"
           inkscape:rounded="0.8807867"
           inkscape:randomized="0"
           transform="matrix(0.15265207,0,0,0.15253548,-16.50661,-19.364589)"
           inkscape:transform-center-x="-1.400767e-06"
           inkscape:transform-center-y="-2.7063924"
           inkscape:label="Star_II"
           d="m 894.23359,55.315323 c 96.27592,2e-6 -47.06511,48.281117 30.82375,104.870687 77.88886,56.58957 79.51216,-94.655539 109.26306,-3.09169 29.7508,91.56385 -60.46204,-29.84189 -90.21294,61.72195 -29.7509,91.56385 114.59334,46.37035 36.7045,102.95992 -77.88886,56.58957 9.69755,-66.72442 -86.57838,-66.72442 -96.27593,0 -8.68952,123.31399 -86.57839,66.72442 -77.88886,-56.58958 66.45541,-11.39607 36.70451,-102.95992 -29.7509,-91.56385 -119.96379,29.84189 -90.21288,-61.72196 29.7509,-91.563845 31.37415,59.68127 109.26301,3.0917 77.88886,-56.58957 -65.45217,-104.87069 30.82376,-104.870687 z" />
        <path
           sodipodi:type="star"
           style="fill:#6e6b10;fill-opacity:1;stroke:#10455b;stroke-width:9.83002;stroke-opacity:1"
           id="path1735"
           inkscape:flatsided="false"
           sodipodi:sides="5"
           sodipodi:cx="894.23358"
           sodipodi:cy="202.61127"
           sodipodi:r1="147.29594"
           sodipodi:r2="52.440502"
           sodipodi:arg1="-1.5707963"
           sodipodi:arg2="-0.94247777"
           inkscape:rounded="0.8807867"
           inkscape:randomized="0"
           transform="matrix(0.15265207,0,0,0.15253548,-110.50498,48.929228)"
           inkscape:transform-center-x="-1.400767e-06"
           inkscape:transform-center-y="-2.7063924"
           inkscape:label="Star_II"
           d="m 894.23359,55.315323 c 96.27592,2e-6 -47.06511,48.281117 30.82375,104.870687 77.88886,56.58957 79.51216,-94.655539 109.26306,-3.09169 29.7508,91.56385 -60.46204,-29.84189 -90.21294,61.72195 -29.7509,91.56385 114.59334,46.37035 36.7045,102.95992 -77.88886,56.58957 9.69755,-66.72442 -86.57838,-66.72442 -96.27593,0 -8.68952,123.31399 -86.57839,66.72442 -77.88886,-56.58958 66.45541,-11.39607 36.70451,-102.95992 -29.7509,-91.56385 -119.96379,29.84189 -90.21288,-61.72196 29.7509,-91.563845 31.37415,59.68127 109.26301,3.0917 77.88886,-56.58957 -65.45217,-104.87069 30.82376,-104.870687 z" />
        <circle
           style="fill:none;fill-rule:evenodd;stroke:#008080;stroke-width:3;stroke-linecap:round;stroke-linejoin:bevel;paint-order:markers stroke fill;stop-color:#000000"
           id="path1185"
           cx="120"
           cy="104.89507"
           r="139.76556" />
        <circle
           style="fill:none;fill-rule:evenodd;stroke:#008080;stroke-width:3;stroke-linecap:round;stroke-linejoin:bevel;paint-order:markers stroke fill;stop-color:#000000"
           id="circle1289"
           cx="120"
           cy="104.89507"
           r="151.19353" />
      </g>
    </g>
  </g>
</svg>
