<?xml version="1.0" encoding="UTF-8" standalone="no"?>
<!-- Created with Inkscape (http://www.inkscape.org/) -->

<svg
   width="240"
   height="240"
   viewBox="0 0 240 240"
   version="1.1"
   id="svg5"
   inkscape:version="1.1.1 (3bf5ae0d25, 2021-09-20)"
   sodipodi:docname="Patter_file48.svg"
   xmlns:inkscape="http://www.inkscape.org/namespaces/inkscape"
   xmlns:sodipodi="http://sodipodi.sourceforge.net/DTD/sodipodi-0.dtd"
   xmlns="http://www.w3.org/2000/svg"
   xmlns:svg="http://www.w3.org/2000/svg">
  <sodipodi:namedview
     id="namedview7"
     pagecolor="#ededed"
     bordercolor="#666666"
     borderopacity="1.0"
     inkscape:pageshadow="2"
     inkscape:pageopacity="0"
     inkscape:pagecheckerboard="0"
     inkscape:document-units="px"
     showgrid="false"
     units="px"
     scale-x="1"
     inkscape:showpageshadow="false"
     inkscape:snap-page="true"
     inkscape:snap-nodes="false"
     inkscape:snap-bbox="true"
     inkscape:snap-bbox-edge-midpoints="false"
     inkscape:bbox-nodes="true"
     inkscape:snap-bbox-midpoints="true"
     inkscape:snap-grids="false"
     inkscape:snap-to-guides="false"
     inkscape:snap-others="false"
     inkscape:zoom="3.3416667"
     inkscape:cx="111.47132"
     inkscape:cy="95.910223"
     inkscape:window-width="1920"
     inkscape:window-height="1047"
     inkscape:window-x="0"
     inkscape:window-y="0"
     inkscape:window-maximized="1"
     inkscape:current-layer="layer2" />
  <defs
     id="defs2" />
  <g
     inkscape:label="Layer_I"
     inkscape:groupmode="layer"
     id="layer1"
     sodipodi:insensitive="true">
    <rect
       style="fill:#ff9955;fill-opacity:0;stroke:none;stroke-width:10"
       id="rect846"
       width="3840"
       height="2160"
       x="0"
       y="0"
       rx="0"
       ry="0"
       sodipodi:insensitive="true"
       inkscape:label="Background" />
  </g>
  <g
     inkscape:groupmode="layer"
     id="layer2"
     inkscape:label="Layer_II">
    <g
       id="g2063"
       transform="translate(57.874998,57.875)"
       style="display:inline">
      <g
         id="g1683"
         transform="rotate(-45,61.504181,149.41652)">
        <g
           id="g1657"
           transform="translate(-0.51709729,-4.7907971)"
           style="fill:#d35f5f;stroke:#241c1c;stroke-width:0.75">
          <path
             style="color:#000000;fill:#d35f5f;fill-rule:evenodd;stroke:#241c1c;stroke-width:0.75;stroke-linecap:round;stroke-linejoin:round;-inkscape-stroke:none"
             d="m 104.35629,72.921158 a 19.75,19.75 0 0 1 -19.750005,19.75 19.75,19.75 0 0 1 -19.75,-19.75 19.75,19.75 0 0 1 19.75,-19.75 19.75,19.75 0 0 1 19.750005,19.75 z"
             id="path1651" />
          <path
             style="color:#000000;fill:#d35f5f;fill-rule:evenodd;stroke:#241c1c;stroke-width:0.75;stroke-linecap:round;stroke-linejoin:round;-inkscape-stroke:none"
             d="m 84.605469,52.921875 c -11.042723,0 -20,8.957277 -20,20 0,11.042723 8.957277,20 20,20 11.042723,0 20.000001,-8.957277 20.000001,-20 0,-11.042723 -8.957278,-20 -20.000001,-20 z m 0,0.5 c 10.772503,0 19.500001,8.727497 19.500001,19.5 0,10.772503 -8.727498,19.5 -19.500001,19.5 -10.772503,0 -19.5,-8.727497 -19.5,-19.5 0,-10.772503 8.727497,-19.5 19.5,-19.5 z"
             id="path1653" />
          <path
             style="color:#000000;fill:#d35f5f;fill-rule:evenodd;stroke:#241c1c;stroke-width:0.75;stroke-linecap:round;stroke-linejoin:round;-inkscape-stroke:none"
             d="m 84.605469,52.921875 c -11.042723,0 -20,8.957277 -20,20 0,11.042723 8.957277,20 20,20 11.042723,0 20.000001,-8.957277 20.000001,-20 0,-11.042723 -8.957278,-20 -20.000001,-20 z m 0,0.5 c 10.772503,0 19.500001,8.727497 19.500001,19.5 0,10.772503 -8.727498,19.5 -19.500001,19.5 -10.772503,0 -19.5,-8.727497 -19.5,-19.5 0,-10.772503 8.727497,-19.5 19.5,-19.5 z"
             id="path1655" />
        </g>
        <g
           id="g1665"
           transform="translate(19.233724,14.708486)"
           style="fill:#de8787;stroke:#241c1c;stroke-width:0.75">
          <path
             style="color:#000000;fill:#de8787;fill-rule:evenodd;stroke:#241c1c;stroke-width:0.75;stroke-linecap:round;stroke-linejoin:round;-inkscape-stroke:none"
             d="m 104.35629,72.921158 a 19.75,19.75 0 0 1 -19.750005,19.75 19.75,19.75 0 0 1 -19.75,-19.75 19.75,19.75 0 0 1 19.75,-19.75 19.75,19.75 0 0 1 19.750005,19.75 z"
             id="path1659" />
          <path
             style="color:#000000;fill:#de8787;fill-rule:evenodd;stroke:#241c1c;stroke-width:0.75;stroke-linecap:round;stroke-linejoin:round;-inkscape-stroke:none"
             d="m 84.605469,52.921875 c -11.042723,0 -20,8.957277 -20,20 0,11.042723 8.957277,20 20,20 11.042723,0 20.000001,-8.957277 20.000001,-20 0,-11.042723 -8.957278,-20 -20.000001,-20 z m 0,0.5 c 10.772503,0 19.500001,8.727497 19.500001,19.5 0,10.772503 -8.727498,19.5 -19.500001,19.5 -10.772503,0 -19.5,-8.727497 -19.5,-19.5 0,-10.772503 8.727497,-19.5 19.5,-19.5 z"
             id="path1661" />
          <path
             style="color:#000000;fill:#de8787;fill-rule:evenodd;stroke:#241c1c;stroke-width:0.75;stroke-linecap:round;stroke-linejoin:round;-inkscape-stroke:none"
             d="m 84.605469,52.921875 c -11.042723,0 -20,8.957277 -20,20 0,11.042723 8.957277,20 20,20 11.042723,0 20.000001,-8.957277 20.000001,-20 0,-11.042723 -8.957278,-20 -20.000001,-20 z m 0,0.5 c 10.772503,0 19.500001,8.727497 19.500001,19.5 0,10.772503 -8.727498,19.5 -19.500001,19.5 -10.772503,0 -19.5,-8.727497 -19.5,-19.5 0,-10.772503 8.727497,-19.5 19.5,-19.5 z"
             id="path1663" />
        </g>
        <g
           id="g1673"
           transform="translate(-0.51628129,34.958486)"
           style="fill:#e9afaf;stroke:#241c1c;stroke-width:0.75">
          <path
             style="color:#000000;fill:#e9afaf;fill-rule:evenodd;stroke:#241c1c;stroke-width:0.75;stroke-linecap:round;stroke-linejoin:round;-inkscape-stroke:none"
             d="m 104.35629,72.921158 a 19.75,19.75 0 0 1 -19.750005,19.75 19.75,19.75 0 0 1 -19.75,-19.75 19.75,19.75 0 0 1 19.75,-19.75 19.75,19.75 0 0 1 19.750005,19.75 z"
             id="path1667" />
          <path
             style="color:#000000;fill:#e9afaf;fill-rule:evenodd;stroke:#241c1c;stroke-width:0.75;stroke-linecap:round;stroke-linejoin:round;-inkscape-stroke:none"
             d="m 84.605469,52.921875 c -11.042723,0 -20,8.957277 -20,20 0,11.042723 8.957277,20 20,20 11.042723,0 20.000001,-8.957277 20.000001,-20 0,-11.042723 -8.957278,-20 -20.000001,-20 z m 0,0.5 c 10.772503,0 19.500001,8.727497 19.500001,19.5 0,10.772503 -8.727498,19.5 -19.500001,19.5 -10.772503,0 -19.5,-8.727497 -19.5,-19.5 0,-10.772503 8.727497,-19.5 19.5,-19.5 z"
             id="path1669" />
          <path
             style="color:#000000;fill:#e9afaf;fill-rule:evenodd;stroke:#241c1c;stroke-width:0.75;stroke-linecap:round;stroke-linejoin:round;-inkscape-stroke:none"
             d="m 84.605469,52.921875 c -11.042723,0 -20,8.957277 -20,20 0,11.042723 8.957277,20 20,20 11.042723,0 20.000001,-8.957277 20.000001,-20 0,-11.042723 -8.957278,-20 -20.000001,-20 z m 0,0.5 c 10.772503,0 19.500001,8.727497 19.500001,19.5 0,10.772503 -8.727498,19.5 -19.500001,19.5 -10.772503,0 -19.5,-8.727497 -19.5,-19.5 0,-10.772503 8.727497,-19.5 19.5,-19.5 z"
             id="path1671" />
        </g>
        <g
           id="g1681"
           transform="translate(-20.267102,15.459203)"
           style="fill:#f4d7d7;stroke:#241c1c;stroke-width:0.75">
          <path
             style="color:#000000;fill:#f4d7d7;fill-rule:evenodd;stroke:#241c1c;stroke-width:0.75;stroke-linecap:round;stroke-linejoin:round;-inkscape-stroke:none"
             d="m 104.35629,72.921158 a 19.75,19.75 0 0 1 -19.750005,19.75 19.75,19.75 0 0 1 -19.75,-19.75 19.75,19.75 0 0 1 19.75,-19.75 19.75,19.75 0 0 1 19.750005,19.75 z"
             id="path1675" />
          <path
             style="color:#000000;fill:#f4d7d7;fill-rule:evenodd;stroke:#241c1c;stroke-width:0.75;stroke-linecap:round;stroke-linejoin:round;-inkscape-stroke:none"
             d="m 84.605469,52.921875 c -11.042723,0 -20,8.957277 -20,20 0,11.042723 8.957277,20 20,20 11.042723,0 20.000001,-8.957277 20.000001,-20 0,-11.042723 -8.957278,-20 -20.000001,-20 z m 0,0.5 c 10.772503,0 19.500001,8.727497 19.500001,19.5 0,10.772503 -8.727498,19.5 -19.500001,19.5 -10.772503,0 -19.5,-8.727497 -19.5,-19.5 0,-10.772503 8.727497,-19.5 19.5,-19.5 z"
             id="path1677" />
          <path
             style="color:#000000;fill:#f4d7d7;fill-rule:evenodd;stroke:#241c1c;stroke-width:0.75;stroke-linecap:round;stroke-linejoin:round;-inkscape-stroke:none"
             d="m 84.605469,52.921875 c -11.042723,0 -20,8.957277 -20,20 0,11.042723 8.957277,20 20,20 11.042723,0 20.000001,-8.957277 20.000001,-20 0,-11.042723 -8.957278,-20 -20.000001,-20 z m 0,0.5 c 10.772503,0 19.500001,8.727497 19.500001,19.5 0,10.772503 -8.727498,19.5 -19.500001,19.5 -10.772503,0 -19.5,-8.727497 -19.5,-19.5 0,-10.772503 8.727497,-19.5 19.5,-19.5 z"
             id="path1679" />
        </g>
      </g>
      <g
         id="g1649"
         transform="matrix(-0.70710678,-0.70710678,-0.70710678,0.70710678,211.88928,87.253109)">
        <g
           id="g1623"
           transform="translate(-0.51709729,-4.7907971)"
           style="fill:#d35f5f;stroke:#241c1c;stroke-width:0.75">
          <path
             style="color:#000000;fill:#d35f5f;fill-rule:evenodd;stroke:#241c1c;stroke-width:0.75;stroke-linecap:round;stroke-linejoin:round;-inkscape-stroke:none"
             d="m 104.35629,72.921158 a 19.75,19.75 0 0 1 -19.750005,19.75 19.75,19.75 0 0 1 -19.75,-19.75 19.75,19.75 0 0 1 19.75,-19.75 19.75,19.75 0 0 1 19.750005,19.75 z"
             id="path1617" />
          <path
             style="color:#000000;fill:#d35f5f;fill-rule:evenodd;stroke:#241c1c;stroke-width:0.75;stroke-linecap:round;stroke-linejoin:round;-inkscape-stroke:none"
             d="m 84.605469,52.921875 c -11.042723,0 -20,8.957277 -20,20 0,11.042723 8.957277,20 20,20 11.042723,0 20.000001,-8.957277 20.000001,-20 0,-11.042723 -8.957278,-20 -20.000001,-20 z m 0,0.5 c 10.772503,0 19.500001,8.727497 19.500001,19.5 0,10.772503 -8.727498,19.5 -19.500001,19.5 -10.772503,0 -19.5,-8.727497 -19.5,-19.5 0,-10.772503 8.727497,-19.5 19.5,-19.5 z"
             id="path1619" />
          <path
             style="color:#000000;fill:#d35f5f;fill-rule:evenodd;stroke:#241c1c;stroke-width:0.75;stroke-linecap:round;stroke-linejoin:round;-inkscape-stroke:none"
             d="m 84.605469,52.921875 c -11.042723,0 -20,8.957277 -20,20 0,11.042723 8.957277,20 20,20 11.042723,0 20.000001,-8.957277 20.000001,-20 0,-11.042723 -8.957278,-20 -20.000001,-20 z m 0,0.5 c 10.772503,0 19.500001,8.727497 19.500001,19.5 0,10.772503 -8.727498,19.5 -19.500001,19.5 -10.772503,0 -19.5,-8.727497 -19.5,-19.5 0,-10.772503 8.727497,-19.5 19.5,-19.5 z"
             id="path1621" />
        </g>
        <g
           id="g1631"
           transform="translate(19.233724,14.708486)"
           style="fill:#de8787;stroke:#241c1c;stroke-width:0.75">
          <path
             style="color:#000000;fill:#de8787;fill-rule:evenodd;stroke:#241c1c;stroke-width:0.75;stroke-linecap:round;stroke-linejoin:round;-inkscape-stroke:none"
             d="m 104.35629,72.921158 a 19.75,19.75 0 0 1 -19.750005,19.75 19.75,19.75 0 0 1 -19.75,-19.75 19.75,19.75 0 0 1 19.75,-19.75 19.75,19.75 0 0 1 19.750005,19.75 z"
             id="path1625" />
          <path
             style="color:#000000;fill:#de8787;fill-rule:evenodd;stroke:#241c1c;stroke-width:0.75;stroke-linecap:round;stroke-linejoin:round;-inkscape-stroke:none"
             d="m 84.605469,52.921875 c -11.042723,0 -20,8.957277 -20,20 0,11.042723 8.957277,20 20,20 11.042723,0 20.000001,-8.957277 20.000001,-20 0,-11.042723 -8.957278,-20 -20.000001,-20 z m 0,0.5 c 10.772503,0 19.500001,8.727497 19.500001,19.5 0,10.772503 -8.727498,19.5 -19.500001,19.5 -10.772503,0 -19.5,-8.727497 -19.5,-19.5 0,-10.772503 8.727497,-19.5 19.5,-19.5 z"
             id="path1627" />
          <path
             style="color:#000000;fill:#de8787;fill-rule:evenodd;stroke:#241c1c;stroke-width:0.75;stroke-linecap:round;stroke-linejoin:round;-inkscape-stroke:none"
             d="m 84.605469,52.921875 c -11.042723,0 -20,8.957277 -20,20 0,11.042723 8.957277,20 20,20 11.042723,0 20.000001,-8.957277 20.000001,-20 0,-11.042723 -8.957278,-20 -20.000001,-20 z m 0,0.5 c 10.772503,0 19.500001,8.727497 19.500001,19.5 0,10.772503 -8.727498,19.5 -19.500001,19.5 -10.772503,0 -19.5,-8.727497 -19.5,-19.5 0,-10.772503 8.727497,-19.5 19.5,-19.5 z"
             id="path1629" />
        </g>
        <g
           id="g1639"
           transform="translate(-0.51628129,34.958486)"
           style="fill:#e9afaf;stroke:#241c1c;stroke-width:0.75">
          <path
             style="color:#000000;fill:#e9afaf;fill-rule:evenodd;stroke:#241c1c;stroke-width:0.75;stroke-linecap:round;stroke-linejoin:round;-inkscape-stroke:none"
             d="m 104.35629,72.921158 a 19.75,19.75 0 0 1 -19.750005,19.75 19.75,19.75 0 0 1 -19.75,-19.75 19.75,19.75 0 0 1 19.75,-19.75 19.75,19.75 0 0 1 19.750005,19.75 z"
             id="path1633" />
          <path
             style="color:#000000;fill:#e9afaf;fill-rule:evenodd;stroke:#241c1c;stroke-width:0.75;stroke-linecap:round;stroke-linejoin:round;-inkscape-stroke:none"
             d="m 84.605469,52.921875 c -11.042723,0 -20,8.957277 -20,20 0,11.042723 8.957277,20 20,20 11.042723,0 20.000001,-8.957277 20.000001,-20 0,-11.042723 -8.957278,-20 -20.000001,-20 z m 0,0.5 c 10.772503,0 19.500001,8.727497 19.500001,19.5 0,10.772503 -8.727498,19.5 -19.500001,19.5 -10.772503,0 -19.5,-8.727497 -19.5,-19.5 0,-10.772503 8.727497,-19.5 19.5,-19.5 z"
             id="path1635" />
          <path
             style="color:#000000;fill:#e9afaf;fill-rule:evenodd;stroke:#241c1c;stroke-width:0.75;stroke-linecap:round;stroke-linejoin:round;-inkscape-stroke:none"
             d="m 84.605469,52.921875 c -11.042723,0 -20,8.957277 -20,20 0,11.042723 8.957277,20 20,20 11.042723,0 20.000001,-8.957277 20.000001,-20 0,-11.042723 -8.957278,-20 -20.000001,-20 z m 0,0.5 c 10.772503,0 19.500001,8.727497 19.500001,19.5 0,10.772503 -8.727498,19.5 -19.500001,19.5 -10.772503,0 -19.5,-8.727497 -19.5,-19.5 0,-10.772503 8.727497,-19.5 19.5,-19.5 z"
             id="path1637" />
        </g>
        <g
           id="g1647"
           transform="translate(-20.267102,15.459203)"
           style="fill:#f4d7d7;stroke:#241c1c;stroke-width:0.75">
          <path
             style="color:#000000;fill:#f4d7d7;fill-rule:evenodd;stroke:#241c1c;stroke-width:0.75;stroke-linecap:round;stroke-linejoin:round;-inkscape-stroke:none"
             d="m 104.35629,72.921158 a 19.75,19.75 0 0 1 -19.750005,19.75 19.75,19.75 0 0 1 -19.75,-19.75 19.75,19.75 0 0 1 19.75,-19.75 19.75,19.75 0 0 1 19.750005,19.75 z"
             id="path1641" />
          <path
             style="color:#000000;fill:#f4d7d7;fill-rule:evenodd;stroke:#241c1c;stroke-width:0.75;stroke-linecap:round;stroke-linejoin:round;-inkscape-stroke:none"
             d="m 84.605469,52.921875 c -11.042723,0 -20,8.957277 -20,20 0,11.042723 8.957277,20 20,20 11.042723,0 20.000001,-8.957277 20.000001,-20 0,-11.042723 -8.957278,-20 -20.000001,-20 z m 0,0.5 c 10.772503,0 19.500001,8.727497 19.500001,19.5 0,10.772503 -8.727498,19.5 -19.500001,19.5 -10.772503,0 -19.5,-8.727497 -19.5,-19.5 0,-10.772503 8.727497,-19.5 19.5,-19.5 z"
             id="path1643" />
          <path
             style="color:#000000;fill:#f4d7d7;fill-rule:evenodd;stroke:#241c1c;stroke-width:0.75;stroke-linecap:round;stroke-linejoin:round;-inkscape-stroke:none"
             d="m 84.605469,52.921875 c -11.042723,0 -20,8.957277 -20,20 0,11.042723 8.957277,20 20,20 11.042723,0 20.000001,-8.957277 20.000001,-20 0,-11.042723 -8.957278,-20 -20.000001,-20 z m 0,0.5 c 10.772503,0 19.500001,8.727497 19.500001,19.5 0,10.772503 -8.727498,19.5 -19.500001,19.5 -10.772503,0 -19.5,-8.727497 -19.5,-19.5 0,-10.772503 8.727497,-19.5 19.5,-19.5 z"
             id="path1645" />
        </g>
      </g>
      <g
         id="g1581"
         transform="rotate(135,98.282332,62.382152)">
        <g
           id="g1555"
           transform="translate(-0.51709729,-4.7907971)"
           style="fill:#d35f5f;stroke:#241c1c;stroke-width:0.75">
          <path
             style="color:#000000;fill:#d35f5f;fill-rule:evenodd;stroke:#241c1c;stroke-width:0.75;stroke-linecap:round;stroke-linejoin:round;-inkscape-stroke:none"
             d="m 104.35629,72.921158 a 19.75,19.75 0 0 1 -19.750005,19.75 19.75,19.75 0 0 1 -19.75,-19.75 19.75,19.75 0 0 1 19.75,-19.75 19.75,19.75 0 0 1 19.750005,19.75 z"
             id="path1549" />
          <path
             style="color:#000000;fill:#d35f5f;fill-rule:evenodd;stroke:#241c1c;stroke-width:0.75;stroke-linecap:round;stroke-linejoin:round;-inkscape-stroke:none"
             d="m 84.605469,52.921875 c -11.042723,0 -20,8.957277 -20,20 0,11.042723 8.957277,20 20,20 11.042723,0 20.000001,-8.957277 20.000001,-20 0,-11.042723 -8.957278,-20 -20.000001,-20 z m 0,0.5 c 10.772503,0 19.500001,8.727497 19.500001,19.5 0,10.772503 -8.727498,19.5 -19.500001,19.5 -10.772503,0 -19.5,-8.727497 -19.5,-19.5 0,-10.772503 8.727497,-19.5 19.5,-19.5 z"
             id="path1551" />
          <path
             style="color:#000000;fill:#d35f5f;fill-rule:evenodd;stroke:#241c1c;stroke-width:0.75;stroke-linecap:round;stroke-linejoin:round;-inkscape-stroke:none"
             d="m 84.605469,52.921875 c -11.042723,0 -20,8.957277 -20,20 0,11.042723 8.957277,20 20,20 11.042723,0 20.000001,-8.957277 20.000001,-20 0,-11.042723 -8.957278,-20 -20.000001,-20 z m 0,0.5 c 10.772503,0 19.500001,8.727497 19.500001,19.5 0,10.772503 -8.727498,19.5 -19.500001,19.5 -10.772503,0 -19.5,-8.727497 -19.5,-19.5 0,-10.772503 8.727497,-19.5 19.5,-19.5 z"
             id="path1553" />
        </g>
        <g
           id="g1563"
           transform="translate(19.233724,14.708486)"
           style="fill:#de8787;stroke:#241c1c;stroke-width:0.75">
          <path
             style="color:#000000;fill:#de8787;fill-rule:evenodd;stroke:#241c1c;stroke-width:0.75;stroke-linecap:round;stroke-linejoin:round;-inkscape-stroke:none"
             d="m 104.35629,72.921158 a 19.75,19.75 0 0 1 -19.750005,19.75 19.75,19.75 0 0 1 -19.75,-19.75 19.75,19.75 0 0 1 19.75,-19.75 19.75,19.75 0 0 1 19.750005,19.75 z"
             id="path1557" />
          <path
             style="color:#000000;fill:#de8787;fill-rule:evenodd;stroke:#241c1c;stroke-width:0.75;stroke-linecap:round;stroke-linejoin:round;-inkscape-stroke:none"
             d="m 84.605469,52.921875 c -11.042723,0 -20,8.957277 -20,20 0,11.042723 8.957277,20 20,20 11.042723,0 20.000001,-8.957277 20.000001,-20 0,-11.042723 -8.957278,-20 -20.000001,-20 z m 0,0.5 c 10.772503,0 19.500001,8.727497 19.500001,19.5 0,10.772503 -8.727498,19.5 -19.500001,19.5 -10.772503,0 -19.5,-8.727497 -19.5,-19.5 0,-10.772503 8.727497,-19.5 19.5,-19.5 z"
             id="path1559" />
          <path
             style="color:#000000;fill:#de8787;fill-rule:evenodd;stroke:#241c1c;stroke-width:0.75;stroke-linecap:round;stroke-linejoin:round;-inkscape-stroke:none"
             d="m 84.605469,52.921875 c -11.042723,0 -20,8.957277 -20,20 0,11.042723 8.957277,20 20,20 11.042723,0 20.000001,-8.957277 20.000001,-20 0,-11.042723 -8.957278,-20 -20.000001,-20 z m 0,0.5 c 10.772503,0 19.500001,8.727497 19.500001,19.5 0,10.772503 -8.727498,19.5 -19.500001,19.5 -10.772503,0 -19.5,-8.727497 -19.5,-19.5 0,-10.772503 8.727497,-19.5 19.5,-19.5 z"
             id="path1561" />
        </g>
        <g
           id="g1571"
           transform="translate(-0.51628129,34.958486)"
           style="fill:#e9afaf;stroke:#241c1c;stroke-width:0.75">
          <path
             style="color:#000000;fill:#e9afaf;fill-rule:evenodd;stroke:#241c1c;stroke-width:0.75;stroke-linecap:round;stroke-linejoin:round;-inkscape-stroke:none"
             d="m 104.35629,72.921158 a 19.75,19.75 0 0 1 -19.750005,19.75 19.75,19.75 0 0 1 -19.75,-19.75 19.75,19.75 0 0 1 19.75,-19.75 19.75,19.75 0 0 1 19.750005,19.75 z"
             id="path1565" />
          <path
             style="color:#000000;fill:#e9afaf;fill-rule:evenodd;stroke:#241c1c;stroke-width:0.75;stroke-linecap:round;stroke-linejoin:round;-inkscape-stroke:none"
             d="m 84.605469,52.921875 c -11.042723,0 -20,8.957277 -20,20 0,11.042723 8.957277,20 20,20 11.042723,0 20.000001,-8.957277 20.000001,-20 0,-11.042723 -8.957278,-20 -20.000001,-20 z m 0,0.5 c 10.772503,0 19.500001,8.727497 19.500001,19.5 0,10.772503 -8.727498,19.5 -19.500001,19.5 -10.772503,0 -19.5,-8.727497 -19.5,-19.5 0,-10.772503 8.727497,-19.5 19.5,-19.5 z"
             id="path1567" />
          <path
             style="color:#000000;fill:#e9afaf;fill-rule:evenodd;stroke:#241c1c;stroke-width:0.75;stroke-linecap:round;stroke-linejoin:round;-inkscape-stroke:none"
             d="m 84.605469,52.921875 c -11.042723,0 -20,8.957277 -20,20 0,11.042723 8.957277,20 20,20 11.042723,0 20.000001,-8.957277 20.000001,-20 0,-11.042723 -8.957278,-20 -20.000001,-20 z m 0,0.5 c 10.772503,0 19.500001,8.727497 19.500001,19.5 0,10.772503 -8.727498,19.5 -19.500001,19.5 -10.772503,0 -19.5,-8.727497 -19.5,-19.5 0,-10.772503 8.727497,-19.5 19.5,-19.5 z"
             id="path1569" />
        </g>
        <path
           style="color:#000000;fill:#f4d7d7;fill-rule:evenodd;stroke:#241c1c;stroke-width:0.75;stroke-linecap:round;stroke-linejoin:round;-inkscape-stroke:none"
           d="m 84.089188,88.380361 a 19.75,19.75 0 0 1 -19.750005,19.749999 19.75,19.75 0 0 1 -19.75,-19.749999 19.75,19.75 0 0 1 19.75,-19.75 19.75,19.75 0 0 1 19.750005,19.75 z"
           id="path1573" />
      </g>
      <g
         id="g1547"
         transform="matrix(0.70710678,0.70710678,0.70710678,-0.70710678,-87.264278,37.371891)">
        <g
           id="g1521"
           transform="translate(-0.51709729,-4.7907971)"
           style="fill:#d35f5f;stroke:#241c1c;stroke-width:0.75">
          <path
             style="color:#000000;fill:#d35f5f;fill-rule:evenodd;stroke:#241c1c;stroke-width:0.75;stroke-linecap:round;stroke-linejoin:round;-inkscape-stroke:none"
             d="m 104.35629,72.921158 a 19.75,19.75 0 0 1 -19.750005,19.75 19.75,19.75 0 0 1 -19.75,-19.75 19.75,19.75 0 0 1 19.75,-19.75 19.75,19.75 0 0 1 19.750005,19.75 z"
             id="path1515" />
          <path
             style="color:#000000;fill:#d35f5f;fill-rule:evenodd;stroke:#241c1c;stroke-width:0.75;stroke-linecap:round;stroke-linejoin:round;-inkscape-stroke:none"
             d="m 84.605469,52.921875 c -11.042723,0 -20,8.957277 -20,20 0,11.042723 8.957277,20 20,20 11.042723,0 20.000001,-8.957277 20.000001,-20 0,-11.042723 -8.957278,-20 -20.000001,-20 z m 0,0.5 c 10.772503,0 19.500001,8.727497 19.500001,19.5 0,10.772503 -8.727498,19.5 -19.500001,19.5 -10.772503,0 -19.5,-8.727497 -19.5,-19.5 0,-10.772503 8.727497,-19.5 19.5,-19.5 z"
             id="path1517" />
          <path
             style="color:#000000;fill:#d35f5f;fill-rule:evenodd;stroke:#241c1c;stroke-width:0.75;stroke-linecap:round;stroke-linejoin:round;-inkscape-stroke:none"
             d="m 84.605469,52.921875 c -11.042723,0 -20,8.957277 -20,20 0,11.042723 8.957277,20 20,20 11.042723,0 20.000001,-8.957277 20.000001,-20 0,-11.042723 -8.957278,-20 -20.000001,-20 z m 0,0.5 c 10.772503,0 19.500001,8.727497 19.500001,19.5 0,10.772503 -8.727498,19.5 -19.500001,19.5 -10.772503,0 -19.5,-8.727497 -19.5,-19.5 0,-10.772503 8.727497,-19.5 19.5,-19.5 z"
             id="path1519" />
        </g>
        <g
           id="g1529"
           transform="translate(19.233724,14.708486)"
           style="fill:#de8787;stroke:#241c1c;stroke-width:0.75">
          <path
             style="color:#000000;fill:#de8787;fill-rule:evenodd;stroke:#241c1c;stroke-width:0.75;stroke-linecap:round;stroke-linejoin:round;-inkscape-stroke:none"
             d="m 104.35629,72.921158 a 19.75,19.75 0 0 1 -19.750005,19.75 19.75,19.75 0 0 1 -19.75,-19.75 19.75,19.75 0 0 1 19.75,-19.75 19.75,19.75 0 0 1 19.750005,19.75 z"
             id="path1523" />
          <path
             style="color:#000000;fill:#de8787;fill-rule:evenodd;stroke:#241c1c;stroke-width:0.75;stroke-linecap:round;stroke-linejoin:round;-inkscape-stroke:none"
             d="m 84.605469,52.921875 c -11.042723,0 -20,8.957277 -20,20 0,11.042723 8.957277,20 20,20 11.042723,0 20.000001,-8.957277 20.000001,-20 0,-11.042723 -8.957278,-20 -20.000001,-20 z m 0,0.5 c 10.772503,0 19.500001,8.727497 19.500001,19.5 0,10.772503 -8.727498,19.5 -19.500001,19.5 -10.772503,0 -19.5,-8.727497 -19.5,-19.5 0,-10.772503 8.727497,-19.5 19.5,-19.5 z"
             id="path1525" />
          <path
             style="color:#000000;fill:#de8787;fill-rule:evenodd;stroke:#241c1c;stroke-width:0.75;stroke-linecap:round;stroke-linejoin:round;-inkscape-stroke:none"
             d="m 84.605469,52.921875 c -11.042723,0 -20,8.957277 -20,20 0,11.042723 8.957277,20 20,20 11.042723,0 20.000001,-8.957277 20.000001,-20 0,-11.042723 -8.957278,-20 -20.000001,-20 z m 0,0.5 c 10.772503,0 19.500001,8.727497 19.500001,19.5 0,10.772503 -8.727498,19.5 -19.500001,19.5 -10.772503,0 -19.5,-8.727497 -19.5,-19.5 0,-10.772503 8.727497,-19.5 19.5,-19.5 z"
             id="path1527" />
        </g>
        <g
           id="g1537"
           transform="translate(-0.51628129,34.958486)"
           style="fill:#e9afaf;stroke:#241c1c;stroke-width:0.75">
          <path
             style="color:#000000;fill:#e9afaf;fill-rule:evenodd;stroke:#241c1c;stroke-width:0.75;stroke-linecap:round;stroke-linejoin:round;-inkscape-stroke:none"
             d="m 104.35629,72.921158 a 19.75,19.75 0 0 1 -19.750005,19.75 19.75,19.75 0 0 1 -19.75,-19.75 19.75,19.75 0 0 1 19.75,-19.75 19.75,19.75 0 0 1 19.750005,19.75 z"
             id="path1531" />
          <path
             style="color:#000000;fill:#e9afaf;fill-rule:evenodd;stroke:#241c1c;stroke-width:0.75;stroke-linecap:round;stroke-linejoin:round;-inkscape-stroke:none"
             d="m 84.605469,52.921875 c -11.042723,0 -20,8.957277 -20,20 0,11.042723 8.957277,20 20,20 11.042723,0 20.000001,-8.957277 20.000001,-20 0,-11.042723 -8.957278,-20 -20.000001,-20 z m 0,0.5 c 10.772503,0 19.500001,8.727497 19.500001,19.5 0,10.772503 -8.727498,19.5 -19.500001,19.5 -10.772503,0 -19.5,-8.727497 -19.5,-19.5 0,-10.772503 8.727497,-19.5 19.5,-19.5 z"
             id="path1533" />
          <path
             style="color:#000000;fill:#e9afaf;fill-rule:evenodd;stroke:#241c1c;stroke-width:0.75;stroke-linecap:round;stroke-linejoin:round;-inkscape-stroke:none"
             d="m 84.605469,52.921875 c -11.042723,0 -20,8.957277 -20,20 0,11.042723 8.957277,20 20,20 11.042723,0 20.000001,-8.957277 20.000001,-20 0,-11.042723 -8.957278,-20 -20.000001,-20 z m 0,0.5 c 10.772503,0 19.500001,8.727497 19.500001,19.5 0,10.772503 -8.727498,19.5 -19.500001,19.5 -10.772503,0 -19.5,-8.727497 -19.5,-19.5 0,-10.772503 8.727497,-19.5 19.5,-19.5 z"
             id="path1535" />
        </g>
        <g
           id="g1545"
           transform="translate(-20.267102,15.459203)"
           style="fill:#f4d7d7;stroke:#241c1c;stroke-width:0.75">
          <path
             style="color:#000000;fill:#f4d7d7;fill-rule:evenodd;stroke:#241c1c;stroke-width:0.75;stroke-linecap:round;stroke-linejoin:round;-inkscape-stroke:none"
             d="m 104.35629,72.921158 a 19.75,19.75 0 0 1 -19.750005,19.75 19.75,19.75 0 0 1 -19.75,-19.75 19.75,19.75 0 0 1 19.75,-19.75 19.75,19.75 0 0 1 19.750005,19.75 z"
             id="path1539" />
          <path
             style="color:#000000;fill:#f4d7d7;fill-rule:evenodd;stroke:#241c1c;stroke-width:0.75;stroke-linecap:round;stroke-linejoin:round;-inkscape-stroke:none"
             d="m 84.605469,52.921875 c -11.042723,0 -20,8.957277 -20,20 0,11.042723 8.957277,20 20,20 11.042723,0 20.000001,-8.957277 20.000001,-20 0,-11.042723 -8.957278,-20 -20.000001,-20 z m 0,0.5 c 10.772503,0 19.500001,8.727497 19.500001,19.5 0,10.772503 -8.727498,19.5 -19.500001,19.5 -10.772503,0 -19.5,-8.727497 -19.5,-19.5 0,-10.772503 8.727497,-19.5 19.5,-19.5 z"
             id="path1541" />
          <path
             style="color:#000000;fill:#f4d7d7;fill-rule:evenodd;stroke:#241c1c;stroke-width:0.75;stroke-linecap:round;stroke-linejoin:round;-inkscape-stroke:none"
             d="m 84.605469,52.921875 c -11.042723,0 -20,8.957277 -20,20 0,11.042723 8.957277,20 20,20 11.042723,0 20.000001,-8.957277 20.000001,-20 0,-11.042723 -8.957278,-20 -20.000001,-20 z m 0,0.5 c 10.772503,0 19.500001,8.727497 19.500001,19.5 0,10.772503 -8.727498,19.5 -19.500001,19.5 -10.772503,0 -19.5,-8.727497 -19.5,-19.5 0,-10.772503 8.727497,-19.5 19.5,-19.5 z"
             id="path1543" />
        </g>
      </g>
    </g>
    <g
       id="g2131"
       transform="matrix(-0.70710678,0.70710678,0.70710678,0.70710678,202.80541,-87.086995)"
       style="display:inline;stroke-width:1;paint-order:fill markers stroke">
      <path
         style="color:#000000;fill:#d35f5f;fill-rule:evenodd;stroke:#241c1c;stroke-width:1;stroke-linecap:round;stroke-linejoin:round;-inkscape-stroke:none;paint-order:fill markers stroke"
         d="m 103.83919,68.130361 a 19.75,19.75 0 0 1 -19.750002,19.75 19.75,19.75 0 0 1 -19.75,-19.75 19.75,19.75 0 0 1 19.75,-19.75 19.75,19.75 0 0 1 19.750002,19.75 z"
         id="path2099" />
      <path
         style="color:#000000;fill:#de8787;fill-rule:evenodd;stroke:#241c1c;stroke-width:1;stroke-linecap:round;stroke-linejoin:round;-inkscape-stroke:none;paint-order:fill markers stroke"
         d="m 123.59001,87.629644 a 19.75,19.75 0 0 1 -19.75,19.749996 19.75,19.75 0 0 1 -19.750001,-19.749996 19.75,19.75 0 0 1 19.750001,-19.75 19.75,19.75 0 0 1 19.75,19.75 z"
         id="path2107" />
      <path
         style="color:#000000;fill:#e9afaf;fill-rule:evenodd;stroke:#241c1c;stroke-width:1;stroke-linecap:round;stroke-linejoin:round;-inkscape-stroke:none;paint-order:fill markers stroke"
         d="m 103.84001,107.87964 a 19.75,19.75 0 0 1 -19.750006,19.75 19.75,19.75 0 0 1 -19.75,-19.75 19.75,19.75 0 0 1 19.75,-19.749996 19.75,19.75 0 0 1 19.750006,19.749996 z"
         id="path2115" />
      <path
         style="color:#000000;fill:#f4d7d7;fill-rule:evenodd;stroke:#241c1c;stroke-width:1;stroke-linecap:round;stroke-linejoin:round;-inkscape-stroke:none;paint-order:fill markers stroke"
         d="m 84.089188,88.380361 a 19.75,19.75 0 0 1 -19.750005,19.749999 19.75,19.75 0 0 1 -19.75,-19.749999 19.75,19.75 0 0 1 19.75,-19.75 19.75,19.75 0 0 1 19.750005,19.75 z"
         id="path2123" />
    </g>
    <g
       id="g2165"
       transform="matrix(0.70710678,-0.70710678,-0.70710678,-0.70710678,37.371892,327.26427)"
       style="display:inline;stroke-width:1;paint-order:fill markers stroke">
      <path
         style="color:#000000;fill:#d35f5f;fill-rule:evenodd;stroke:#241c1c;stroke-width:1;stroke-linecap:round;stroke-linejoin:round;-inkscape-stroke:none;paint-order:fill markers stroke"
         d="m 103.83919,68.130361 a 19.75,19.75 0 0 1 -19.750002,19.75 19.75,19.75 0 0 1 -19.75,-19.75 19.75,19.75 0 0 1 19.75,-19.75 19.75,19.75 0 0 1 19.750002,19.75 z"
         id="path2133" />
      <path
         style="color:#000000;fill:#de8787;fill-rule:evenodd;stroke:#241c1c;stroke-width:1;stroke-linecap:round;stroke-linejoin:round;-inkscape-stroke:none;paint-order:fill markers stroke"
         d="m 123.59001,87.629644 a 19.75,19.75 0 0 1 -19.75,19.749996 19.75,19.75 0 0 1 -19.750001,-19.749996 19.75,19.75 0 0 1 19.750001,-19.75 19.75,19.75 0 0 1 19.75,19.75 z"
         id="path2141" />
      <path
         style="color:#000000;fill:#e9afaf;fill-rule:evenodd;stroke:#241c1c;stroke-width:1;stroke-linecap:round;stroke-linejoin:round;-inkscape-stroke:none;paint-order:fill markers stroke"
         d="m 103.84001,107.87964 a 19.75,19.75 0 0 1 -19.750006,19.75 19.75,19.75 0 0 1 -19.75,-19.75 19.75,19.75 0 0 1 19.75,-19.749996 19.75,19.75 0 0 1 19.750006,19.749996 z"
         id="path2149" />
      <path
         style="color:#000000;display:inline;fill:#f4d7d7;fill-rule:evenodd;stroke:#241c1c;stroke-width:1;stroke-linecap:round;stroke-linejoin:round;-inkscape-stroke:none;paint-order:fill markers stroke"
         d="m 84.089188,88.380361 a 19.75,19.75 0 0 1 -19.750005,19.749999 19.75,19.75 0 0 1 -19.75,-19.749999 19.75,19.75 0 0 1 19.75,-19.75 19.75,19.75 0 0 1 19.750005,19.75 z"
         id="path2157" />
    </g>
    <g
       id="g3521"
       transform="rotate(-135,169.18114,121.70269)"
       style="display:inline;stroke-width:1;paint-order:fill markers stroke">
      <path
         style="color:#000000;fill:#d35f5f;fill-rule:evenodd;stroke:#241c1c;stroke-width:1;stroke-linecap:round;stroke-linejoin:round;-inkscape-stroke:none;paint-order:fill markers stroke"
         d="m 103.83919,68.130361 a 19.75,19.75 0 0 1 -19.750002,19.75 19.75,19.75 0 0 1 -19.75,-19.75 19.75,19.75 0 0 1 19.75,-19.75 19.75,19.75 0 0 1 19.750002,19.75 z"
         id="path3513" />
      <path
         style="color:#000000;fill:#de8787;fill-rule:evenodd;stroke:#241c1c;stroke-width:1;stroke-linecap:round;stroke-linejoin:round;-inkscape-stroke:none;paint-order:fill markers stroke"
         d="m 123.59001,87.629644 a 19.75,19.75 0 0 1 -19.75,19.749996 19.75,19.75 0 0 1 -19.750001,-19.749996 19.75,19.75 0 0 1 19.750001,-19.75 19.75,19.75 0 0 1 19.75,19.75 z"
         id="path3515" />
      <path
         style="color:#000000;fill:#e9afaf;fill-rule:evenodd;stroke:#241c1c;stroke-width:1;stroke-linecap:round;stroke-linejoin:round;-inkscape-stroke:none;paint-order:fill markers stroke"
         d="m 103.84001,107.87964 a 19.75,19.75 0 0 1 -19.750006,19.75 19.75,19.75 0 0 1 -19.75,-19.75 19.75,19.75 0 0 1 19.75,-19.749996 19.75,19.75 0 0 1 19.750006,19.749996 z"
         id="path3517" />
      <path
         style="color:#000000;fill:#f4d7d7;fill-rule:evenodd;stroke:#241c1c;stroke-width:1;stroke-linecap:round;stroke-linejoin:round;-inkscape-stroke:none;paint-order:fill markers stroke"
         d="m 84.089188,88.380361 a 19.75,19.75 0 0 1 -19.750005,19.749999 19.75,19.75 0 0 1 -19.75,-19.749999 19.75,19.75 0 0 1 19.75,-19.75 19.75,19.75 0 0 1 19.750005,19.75 z"
         id="path3519" />
    </g>
    <g
       id="g3611"
       transform="rotate(45,124.11067,1.2662292)"
       style="display:inline;stroke-width:1;paint-order:fill markers stroke">
      <path
         style="color:#000000;fill:#d35f5f;fill-rule:evenodd;stroke:#241c1c;stroke-width:1;stroke-linecap:round;stroke-linejoin:round;-inkscape-stroke:none;paint-order:fill markers stroke"
         d="m 103.83919,68.130361 a 19.75,19.75 0 0 1 -19.750002,19.75 19.75,19.75 0 0 1 -19.75,-19.75 19.75,19.75 0 0 1 19.75,-19.75 19.75,19.75 0 0 1 19.750002,19.75 z"
         id="path3603" />
      <path
         style="color:#000000;fill:#de8787;fill-rule:evenodd;stroke:#241c1c;stroke-width:1;stroke-linecap:round;stroke-linejoin:round;-inkscape-stroke:none;paint-order:fill markers stroke"
         d="m 123.59001,87.629644 a 19.75,19.75 0 0 1 -19.75,19.749996 19.75,19.75 0 0 1 -19.750001,-19.749996 19.75,19.75 0 0 1 19.750001,-19.75 19.75,19.75 0 0 1 19.75,19.75 z"
         id="path3605" />
      <path
         style="color:#000000;fill:#e9afaf;fill-rule:evenodd;stroke:#241c1c;stroke-width:1;stroke-linecap:round;stroke-linejoin:round;-inkscape-stroke:none;paint-order:fill markers stroke"
         d="m 103.84001,107.87964 a 19.75,19.75 0 0 1 -19.750006,19.75 19.75,19.75 0 0 1 -19.75,-19.75 19.75,19.75 0 0 1 19.75,-19.749996 19.75,19.75 0 0 1 19.750006,19.749996 z"
         id="path3607" />
      <path
         style="color:#000000;display:inline;fill:#f4d7d7;fill-rule:evenodd;stroke:#241c1c;stroke-width:1;stroke-linecap:round;stroke-linejoin:round;-inkscape-stroke:none;paint-order:fill markers stroke"
         d="m 84.089188,88.380361 a 19.75,19.75 0 0 1 -19.750005,19.749999 19.75,19.75 0 0 1 -19.75,-19.749999 19.75,19.75 0 0 1 19.75,-19.75 19.75,19.75 0 0 1 19.750005,19.75 z"
         id="path3609" />
    </g>
    <g
       id="g1401"
       transform="rotate(45,83.452025,99.424871)"
       style="stroke-width:1;paint-order:fill markers stroke">
      <path
         style="color:#000000;fill:#d35f5f;fill-rule:evenodd;stroke:#241c1c;stroke-width:1;stroke-linecap:round;stroke-linejoin:round;-inkscape-stroke:none;paint-order:fill markers stroke"
         d="m 103.83919,68.130361 a 19.75,19.75 0 0 1 -19.750002,19.75 19.75,19.75 0 0 1 -19.75,-19.75 19.75,19.75 0 0 1 19.75,-19.75 19.75,19.75 0 0 1 19.750002,19.75 z"
         id="path1393" />
      <path
         style="color:#000000;fill:#de8787;fill-rule:evenodd;stroke:#241c1c;stroke-width:1;stroke-linecap:round;stroke-linejoin:round;-inkscape-stroke:none;paint-order:fill markers stroke"
         d="m 123.59001,87.629644 a 19.75,19.75 0 0 1 -19.75,19.749996 19.75,19.75 0 0 1 -19.750001,-19.749996 19.75,19.75 0 0 1 19.750001,-19.75 19.75,19.75 0 0 1 19.75,19.75 z"
         id="path1395" />
      <path
         style="color:#000000;fill:#e9afaf;fill-rule:evenodd;stroke:#241c1c;stroke-width:1;stroke-linecap:round;stroke-linejoin:round;-inkscape-stroke:none;paint-order:fill markers stroke"
         d="m 103.84001,107.87964 a 19.75,19.75 0 0 1 -19.750006,19.75 19.75,19.75 0 0 1 -19.75,-19.75 19.75,19.75 0 0 1 19.75,-19.749996 19.75,19.75 0 0 1 19.750006,19.749996 z"
         id="path1397" />
      <path
         style="color:#000000;display:inline;fill:#f4d7d7;fill-rule:evenodd;stroke:#241c1c;stroke-width:1;stroke-linecap:round;stroke-linejoin:round;-inkscape-stroke:none;paint-order:fill markers stroke"
         d="m 84.089188,88.380361 a 19.75,19.75 0 0 1 -19.750005,19.749999 19.75,19.75 0 0 1 -19.75,-19.749999 19.75,19.75 0 0 1 19.75,-19.75 19.75,19.75 0 0 1 19.750005,19.75 z"
         id="path1399" />
    </g>
    <g
       id="g1411"
       transform="matrix(-0.70710678,0.70710678,0.70710678,0.70710678,145.25347,-29.888622)"
       style="stroke-width:1;paint-order:fill markers stroke">
      <path
         style="color:#000000;fill:#d35f5f;fill-rule:evenodd;stroke:#241c1c;stroke-width:1;stroke-linecap:round;stroke-linejoin:round;-inkscape-stroke:none;paint-order:fill markers stroke"
         d="m 103.83919,68.130361 a 19.75,19.75 0 0 1 -19.750002,19.75 19.75,19.75 0 0 1 -19.75,-19.75 19.75,19.75 0 0 1 19.75,-19.75 19.75,19.75 0 0 1 19.750002,19.75 z"
         id="path1403" />
      <path
         style="color:#000000;fill:#de8787;fill-rule:evenodd;stroke:#241c1c;stroke-width:1;stroke-linecap:round;stroke-linejoin:round;-inkscape-stroke:none;paint-order:fill markers stroke"
         d="m 123.59001,87.629644 a 19.75,19.75 0 0 1 -19.75,19.749996 19.75,19.75 0 0 1 -19.750001,-19.749996 19.75,19.75 0 0 1 19.750001,-19.75 19.75,19.75 0 0 1 19.75,19.75 z"
         id="path1405" />
      <path
         style="color:#000000;fill:#e9afaf;fill-rule:evenodd;stroke:#241c1c;stroke-width:1;stroke-linecap:round;stroke-linejoin:round;-inkscape-stroke:none;paint-order:fill markers stroke"
         d="m 103.84001,107.87964 a 19.75,19.75 0 0 1 -19.750006,19.75 19.75,19.75 0 0 1 -19.75,-19.75 19.75,19.75 0 0 1 19.75,-19.749996 19.75,19.75 0 0 1 19.750006,19.749996 z"
         id="path1407" />
      <path
         style="color:#000000;display:inline;fill:#f4d7d7;fill-rule:evenodd;stroke:#241c1c;stroke-width:1;stroke-linecap:round;stroke-linejoin:round;-inkscape-stroke:none;paint-order:fill markers stroke"
         d="m 84.089188,88.380361 a 19.75,19.75 0 0 1 -19.750005,19.749999 19.75,19.75 0 0 1 -19.75,-19.749999 19.75,19.75 0 0 1 19.75,-19.75 19.75,19.75 0 0 1 19.750005,19.75 z"
         id="path1409" />
    </g>
    <g
       id="g1421"
       transform="rotate(-135,128.5225,104.86133)"
       style="stroke-width:1;paint-order:fill markers stroke">
      <path
         style="color:#000000;fill:#d35f5f;fill-rule:evenodd;stroke:#241c1c;stroke-width:1;stroke-linecap:round;stroke-linejoin:round;-inkscape-stroke:none;paint-order:fill markers stroke"
         d="m 103.83919,68.130361 a 19.75,19.75 0 0 1 -19.750002,19.75 19.75,19.75 0 0 1 -19.75,-19.75 19.75,19.75 0 0 1 19.75,-19.75 19.75,19.75 0 0 1 19.750002,19.75 z"
         id="path1413" />
      <path
         style="color:#000000;fill:#de8787;fill-rule:evenodd;stroke:#241c1c;stroke-width:1;stroke-linecap:round;stroke-linejoin:round;-inkscape-stroke:none;paint-order:fill markers stroke"
         d="m 123.59001,87.629644 a 19.75,19.75 0 0 1 -19.75,19.749996 19.75,19.75 0 0 1 -19.750001,-19.749996 19.75,19.75 0 0 1 19.750001,-19.75 19.75,19.75 0 0 1 19.75,19.75 z"
         id="path1415" />
      <path
         style="color:#000000;fill:#e9afaf;fill-rule:evenodd;stroke:#241c1c;stroke-width:1;stroke-linecap:round;stroke-linejoin:round;-inkscape-stroke:none;paint-order:fill markers stroke"
         d="m 103.84001,107.87964 a 19.75,19.75 0 0 1 -19.750006,19.75 19.75,19.75 0 0 1 -19.75,-19.75 19.75,19.75 0 0 1 19.75,-19.749996 19.75,19.75 0 0 1 19.750006,19.749996 z"
         id="path1417" />
      <path
         style="color:#000000;display:inline;fill:#f4d7d7;fill-rule:evenodd;stroke:#241c1c;stroke-width:1;stroke-linecap:round;stroke-linejoin:round;-inkscape-stroke:none;paint-order:fill markers stroke"
         d="m 84.089188,88.380361 a 19.75,19.75 0 0 1 -19.750005,19.749999 19.75,19.75 0 0 1 -19.75,-19.749999 19.75,19.75 0 0 1 19.75,-19.75 19.75,19.75 0 0 1 19.750005,19.75 z"
         id="path1419" />
    </g>
    <g
       id="g1431"
       transform="matrix(0.70710678,-0.70710678,-0.70710678,-0.70710678,94.746533,269.88862)"
       style="stroke-width:1;paint-order:fill markers stroke">
      <path
         style="color:#000000;fill:#d35f5f;fill-rule:evenodd;stroke:#241c1c;stroke-width:1;stroke-linecap:round;stroke-linejoin:round;-inkscape-stroke:none;paint-order:fill markers stroke"
         d="m 103.83919,68.130361 a 19.75,19.75 0 0 1 -19.750002,19.75 19.75,19.75 0 0 1 -19.75,-19.75 19.75,19.75 0 0 1 19.75,-19.75 19.75,19.75 0 0 1 19.750002,19.75 z"
         id="path1423" />
      <path
         style="color:#000000;fill:#de8787;fill-rule:evenodd;stroke:#241c1c;stroke-width:1;stroke-linecap:round;stroke-linejoin:round;-inkscape-stroke:none;paint-order:fill markers stroke"
         d="m 123.59001,87.629644 a 19.75,19.75 0 0 1 -19.75,19.749996 19.75,19.75 0 0 1 -19.750001,-19.749996 19.75,19.75 0 0 1 19.750001,-19.75 19.75,19.75 0 0 1 19.75,19.75 z"
         id="path1425" />
      <path
         style="color:#000000;fill:#e9afaf;fill-rule:evenodd;stroke:#241c1c;stroke-width:1;stroke-linecap:round;stroke-linejoin:round;-inkscape-stroke:none;paint-order:fill markers stroke"
         d="m 103.84001,107.87964 a 19.75,19.75 0 0 1 -19.750006,19.75 19.75,19.75 0 0 1 -19.75,-19.75 19.75,19.75 0 0 1 19.75,-19.749996 19.75,19.75 0 0 1 19.750006,19.749996 z"
         id="path1427" />
      <path
         style="color:#000000;display:inline;fill:#f4d7d7;fill-rule:evenodd;stroke:#241c1c;stroke-width:1;stroke-linecap:round;stroke-linejoin:round;-inkscape-stroke:none;paint-order:fill markers stroke"
         d="m 84.089188,88.380361 a 19.75,19.75 0 0 1 -19.750005,19.749999 19.75,19.75 0 0 1 -19.75,-19.749999 19.75,19.75 0 0 1 19.75,-19.75 19.75,19.75 0 0 1 19.750005,19.75 z"
         id="path1429" />
    </g>
    <g
       id="g3878"
       style="display:inline"
       transform="translate(-0.95727158,-0.95726013)">
      <circle
         style="fill:#ff6600;fill-rule:evenodd;stroke:#241c1c;stroke-width:0.75;stroke-linecap:round;stroke-linejoin:round;stop-color:#000000"
         id="circle3743"
         cx="0.95727158"
         cy="120.95726"
         r="39.625" />
      <circle
         style="fill:#ffb380;fill-rule:evenodd;stroke:#241c1c;stroke-width:0.75;stroke-linecap:round;stroke-linejoin:round;stop-color:#000000"
         id="circle3745"
         cx="0.95727158"
         cy="120.95726"
         r="29.625" />
      <circle
         style="fill:#ffe6d5;fill-rule:evenodd;stroke:#241c1c;stroke-width:0.75;stroke-linecap:round;stroke-linejoin:round;stop-color:#000000"
         id="circle3747"
         cx="0.95727158"
         cy="120.95726"
         r="19.625" />
    </g>
    <g
       id="g1439"
       style="display:inline"
       transform="translate(119.04273,-120.95726)">
      <circle
         style="fill:#ff6600;fill-rule:evenodd;stroke:#241c1c;stroke-width:0.75;stroke-linecap:round;stroke-linejoin:round;stop-color:#000000"
         id="circle1433"
         cx="0.95727158"
         cy="120.95726"
         r="39.625" />
      <circle
         style="fill:#ffb380;fill-rule:evenodd;stroke:#241c1c;stroke-width:0.75;stroke-linecap:round;stroke-linejoin:round;stop-color:#000000"
         id="circle1435"
         cx="0.95727158"
         cy="120.95726"
         r="29.625" />
      <circle
         style="fill:#ffe6d5;fill-rule:evenodd;stroke:#241c1c;stroke-width:0.75;stroke-linecap:round;stroke-linejoin:round;stop-color:#000000"
         id="circle1437"
         cx="0.95727158"
         cy="120.95726"
         r="19.625" />
    </g>
    <g
       id="g1447"
       style="display:inline"
       transform="translate(239.04273,-0.95726013)">
      <circle
         style="fill:#ff6600;fill-rule:evenodd;stroke:#241c1c;stroke-width:0.75;stroke-linecap:round;stroke-linejoin:round;stop-color:#000000"
         id="circle1441"
         cx="0.95727158"
         cy="120.95726"
         r="39.625" />
      <circle
         style="fill:#ffb380;fill-rule:evenodd;stroke:#241c1c;stroke-width:0.75;stroke-linecap:round;stroke-linejoin:round;stop-color:#000000"
         id="circle1443"
         cx="0.95727158"
         cy="120.95726"
         r="29.625" />
      <circle
         style="fill:#ffe6d5;fill-rule:evenodd;stroke:#241c1c;stroke-width:0.75;stroke-linecap:round;stroke-linejoin:round;stop-color:#000000"
         id="circle1445"
         cx="0.95727158"
         cy="120.95726"
         r="19.625" />
    </g>
    <g
       id="g1455"
       style="display:inline"
       transform="translate(119.04273,119.04274)">
      <circle
         style="fill:#ff6600;fill-rule:evenodd;stroke:#241c1c;stroke-width:0.75;stroke-linecap:round;stroke-linejoin:round;stop-color:#000000"
         id="circle1449"
         cx="0.95727158"
         cy="120.95726"
         r="39.625" />
      <circle
         style="fill:#ffb380;fill-rule:evenodd;stroke:#241c1c;stroke-width:0.75;stroke-linecap:round;stroke-linejoin:round;stop-color:#000000"
         id="circle1451"
         cx="0.95727158"
         cy="120.95726"
         r="29.625" />
      <circle
         style="fill:#ffe6d5;fill-rule:evenodd;stroke:#241c1c;stroke-width:0.75;stroke-linecap:round;stroke-linejoin:round;stop-color:#000000"
         id="circle1453"
         cx="0.95727158"
         cy="120.95726"
         r="19.625" />
    </g>
  </g>
</svg>
