<?xml version="1.0" encoding="UTF-8" standalone="no"?>
<!-- Created with Inkscape (http://www.inkscape.org/) -->

<svg
   width="80"
   height="80"
   viewBox="0 0 80 80"
   version="1.1"
   id="svg5"
   inkscape:version="1.1.1 (3bf5ae0d25, 2021-09-20)"
   sodipodi:docname="Patter_file33.svg"
   xmlns:inkscape="http://www.inkscape.org/namespaces/inkscape"
   xmlns:sodipodi="http://sodipodi.sourceforge.net/DTD/sodipodi-0.dtd"
   xmlns:xlink="http://www.w3.org/1999/xlink"
   xmlns="http://www.w3.org/2000/svg"
   xmlns:svg="http://www.w3.org/2000/svg">
  <sodipodi:namedview
     id="namedview7"
     pagecolor="#ededed"
     bordercolor="#666666"
     borderopacity="1.0"
     inkscape:pageshadow="2"
     inkscape:pageopacity="0"
     inkscape:pagecheckerboard="0"
     inkscape:document-units="px"
     showgrid="false"
     units="px"
     scale-x="1"
     inkscape:showpageshadow="false"
     inkscape:snap-page="true"
     inkscape:snap-nodes="true"
     showborder="true"
     inkscape:zoom="11.638714"
     inkscape:cx="38.792946"
     inkscape:cy="57.609458"
     inkscape:window-width="1920"
     inkscape:window-height="1047"
     inkscape:window-x="0"
     inkscape:window-y="0"
     inkscape:window-maximized="1"
     inkscape:current-layer="layer2"
     inkscape:snap-intersection-paths="true"
     inkscape:snap-smooth-nodes="false"
     inkscape:object-nodes="true"
     inkscape:snap-bbox="true"
     inkscape:bbox-nodes="true"
     inkscape:snap-bbox-edge-midpoints="true" />
  <defs
     id="defs2">
    <inkscape:path-effect
       effect="copy_rotate"
       starting_point="27.500671,43.427952"
       origin="27.603442,32.576745"
       id="path-effect39065"
       is_visible="true"
       lpeversion="1"
       method="normal"
       num_copies="6"
       starting_angle="-90.540884"
       rotation_angle="60"
       gap="-0.01"
       copies_to_360="true"
       mirror_copies="false"
       split_items="false" />
    <inkscape:path-effect
       effect="bspline"
       id="path-effect39061"
       is_visible="true"
       lpeversion="1"
       weight="33.333333"
       steps="10"
       helper_size="5"
       apply_no_weight="true"
       apply_with_weight="true"
       only_selected="false" />
    <inkscape:path-effect
       effect="copy_rotate"
       starting_point="27.500671,43.427952"
       origin="27.603442,32.576745"
       id="path-effect39055"
       is_visible="true"
       lpeversion="1"
       method="normal"
       num_copies="6"
       starting_angle="-90.540884"
       rotation_angle="60"
       gap="-0.01"
       copies_to_360="true"
       mirror_copies="false"
       split_items="false" />
    <inkscape:path-effect
       effect="bspline"
       id="path-effect39051"
       is_visible="true"
       lpeversion="1"
       weight="33.333333"
       steps="10"
       helper_size="5"
       apply_no_weight="true"
       apply_with_weight="true"
       only_selected="false" />
    <inkscape:path-effect
       effect="copy_rotate"
       starting_point="27.500671,43.427952"
       origin="27.603442,32.576745"
       id="path-effect39045"
       is_visible="true"
       lpeversion="1"
       method="normal"
       num_copies="6"
       starting_angle="-90.540884"
       rotation_angle="60"
       gap="-0.01"
       copies_to_360="true"
       mirror_copies="false"
       split_items="false" />
    <inkscape:path-effect
       effect="bspline"
       id="path-effect39041"
       is_visible="true"
       lpeversion="1"
       weight="33.333333"
       steps="10"
       helper_size="5"
       apply_no_weight="true"
       apply_with_weight="true"
       only_selected="false" />
    <inkscape:path-effect
       effect="copy_rotate"
       starting_point="27.500671,43.427952"
       origin="27.603442,32.576745"
       id="path-effect39010"
       is_visible="true"
       lpeversion="1"
       method="normal"
       num_copies="6"
       starting_angle="-90.540884"
       rotation_angle="60"
       gap="-0.01"
       copies_to_360="true"
       mirror_copies="false"
       split_items="false" />
    <inkscape:path-effect
       effect="bspline"
       id="path-effect39006"
       is_visible="true"
       lpeversion="1"
       weight="33.333333"
       steps="10"
       helper_size="5"
       apply_no_weight="true"
       apply_with_weight="true"
       only_selected="false" />
    <linearGradient
       inkscape:collect="always"
       id="linearGradient35210">
      <stop
         style="stop-color:#a400ff;stop-opacity:1"
         offset="0"
         id="stop35206" />
      <stop
         style="stop-color:#180606;stop-opacity:1"
         offset="1"
         id="stop35208" />
    </linearGradient>
    <linearGradient
       inkscape:collect="always"
       id="linearGradient29864">
      <stop
         style="stop-color:#23132c;stop-opacity:1"
         offset="0"
         id="stop29862" />
      <stop
         style="stop-color:#e3aa37;stop-opacity:1"
         offset="1"
         id="stop29860" />
    </linearGradient>
    <inkscape:path-effect
       effect="copy_rotate"
       starting_point="27.500671,43.427952"
       origin="27.603442,32.576745"
       id="path-effect2434"
       is_visible="true"
       lpeversion="1"
       method="normal"
       num_copies="6"
       starting_angle="-90.540884"
       rotation_angle="60"
       gap="-0.01"
       copies_to_360="true"
       mirror_copies="false"
       split_items="false" />
    <inkscape:path-effect
       effect="bspline"
       id="path-effect2430"
       is_visible="true"
       lpeversion="1"
       weight="33.333333"
       steps="10"
       helper_size="5"
       apply_no_weight="true"
       apply_with_weight="true"
       only_selected="false" />
    <inkscape:path-effect
       effect="copy_rotate"
       starting_point="27.500671,43.427952"
       origin="27.603442,32.576745"
       id="path-effect1299"
       is_visible="true"
       lpeversion="1"
       method="normal"
       num_copies="6"
       starting_angle="-90.540884"
       rotation_angle="60"
       gap="-0.01"
       copies_to_360="true"
       mirror_copies="false"
       split_items="false" />
    <inkscape:path-effect
       effect="bspline"
       id="path-effect1107"
       is_visible="true"
       lpeversion="1"
       weight="33.333333"
       steps="10"
       helper_size="5"
       apply_no_weight="true"
       apply_with_weight="true"
       only_selected="false" />
    <radialGradient
       inkscape:collect="always"
       xlink:href="#linearGradient29864"
       id="radialGradient31778"
       gradientUnits="userSpaceOnUse"
       gradientTransform="matrix(1.000282,0,0,1.1000353,-0.01128005,-4.0014117)"
       cx="39.999996"
       cy="40"
       fx="39.999996"
       fy="40"
       r="11.031252" />
    <radialGradient
       inkscape:collect="always"
       xlink:href="#linearGradient35210"
       id="radialGradient35080"
       gradientUnits="userSpaceOnUse"
       gradientTransform="matrix(0.97787649,-0.0040229,0.00384131,0.933736,0.7293504,2.8449097)"
       cx="40"
       cy="40.504566"
       fx="40"
       fy="40.504566"
       r="20.400358" />
  </defs>
  <g
     inkscape:label="Layer_I"
     inkscape:groupmode="layer"
     id="layer1"
     sodipodi:insensitive="true"
     style="display:inline">
    <rect
       style="fill:#ff9955;fill-opacity:0;stroke:none;stroke-width:10"
       id="rect846"
       width="3840"
       height="2160"
       x="0"
       y="0"
       rx="0"
       ry="0"
       sodipodi:insensitive="true"
       inkscape:label="Background" />
  </g>
  <g
     inkscape:groupmode="layer"
     id="layer2"
     inkscape:label="Layer_II"
     style="display:inline">
    <g
       id="g858"
       style="display:inline">
      <path
         style="color:#000000;display:inline;fill:#37abc8;fill-rule:evenodd;stroke:#000055;stroke-width:0.999996;stroke-linecap:round;stroke-linejoin:round;-inkscape-stroke:none;paint-order:fill markers stroke"
         d="M 50.569825,44.88079 C 38.970716,54.500245 22.917201,67.653138 16.483346,70.761352 10.04949,73.869564 13.23446,66.932838 24.833052,57.313137 36.431643,47.693432 56.444861,35.39122 62.879232,32.283253 69.313605,29.175288 62.16894,35.261333 50.569825,44.88079 Z M 49.369062,32.966745 c 2.249823,15.205919 5.229153,36.171001 4.613117,43.491721 -0.616034,7.320723 -4.828067,0.997698 -7.078354,-14.207881 -2.250287,-15.205578 -2.537932,-39.294375 -1.921434,-46.615433 0.6165,-7.3210593 2.13685,2.125674 4.386671,17.331593 z M 38.79924,28.085955 c 13.84893,5.586462 32.881774,13.398654 38.699594,17.611162 5.81782,4.212506 -1.579182,4.826206 -15.42806,-0.759667 C 48.221896,39.351574 27.921032,27.564992 22.10316,23.351897 c -5.817872,-4.213093 2.847148,-0.852401 16.69608,4.734058 z m -9.369063,7.033256 C 41.029283,25.499753 57.0828,12.346863 63.516655,9.2386488 69.950511,6.130436 66.765542,13.067161 55.16695,22.686864 43.568357,32.306568 23.555139,44.60878 17.12077,47.716747 c -6.434374,3.107966 0.710292,-2.97808 12.309407,-12.597536 z m 1.20076,11.914045 c -2.24982,-15.205919 -5.22915,-36.171004 -4.613116,-43.4917245 0.616035,-7.3207193 4.828068,-0.9976948 7.078354,14.2078835 2.250288,15.205578 2.537933,39.294374 1.921435,46.615433 -0.616501,7.32106 -2.136849,-2.125674 -4.386673,-17.331592 z m 10.569826,4.880789 C 27.351831,46.327582 8.3189857,38.51539 2.5011659,34.302883 -3.3166539,30.090377 4.0803484,29.476677 17.929227,35.06255 c 13.848878,5.585876 34.149741,17.372458 39.967615,21.585552 5.817872,4.213095 -2.84715,0.852405 -16.69608,-4.734056 z"
         id="path2426" />
      <path
         id="path16663"
         style="display:inline;fill:url(#radialGradient35080);fill-opacity:1;stroke:none;stroke-width:0.75;stroke-linecap:round;stroke-linejoin:round;stroke-opacity:1"
         d="m 34.082869,26.191886 0.388554,4.760813 -6.635406,-3.859128 -0.437146,-3.512598 z m 13.355693,-5.695694 1.157236,7.296274 -3.855682,2.775315 -0.02226,-7.923479 z m 7.074369,21.104388 5.526764,-4.685358 -3.157851,-1.364491 -6.619087,3.981688 z m -2.348947,11.305849 0.437146,3.5126 -6.683998,-2.610914 -0.39449,-4.843478 z m -16.881843,4.449268 -2.720703,2.14811 -1.157236,-7.296271 3.855683,-2.775317 z m -5.617037,-16.924128 -4.178033,-2.032148 -5.526764,4.685357 3.157851,1.36449 z" />
      <path
         id="path19105"
         style="display:inline;fill:url(#radialGradient31778);fill-opacity:1;stroke:none;stroke-width:0.75;stroke-linecap:round;stroke-linejoin:round;stroke-opacity:1"
         d="m 44.746094,30.511719 -4.998167,3.489569 -5.276504,-3.048589 3.772675,-3.090604 z m 0.147476,6.262994 5.418933,2.735053 -1.033691,-7.152521 -4.532718,-1.845526 z m 0.672836,12.223334 5.46831,-4.502895 -0.722213,-4.985386 -5.166859,3.263658 z m 0,0 -5.314332,-2.999335 -4.992189,3.433507 6.496017,2.705686 z m -14.84522,-1.355294 4.538699,1.789466 -0.153455,-6.206932 -5.441326,-2.793718 z m -1.755901,-12.137903 0.699819,4.926719 5.189253,-3.204993 -0.382934,-6.273877 z" />
      <path
         style="color:#000000;display:inline;fill:#005522;fill-rule:evenodd;stroke-width:2.16596;stroke-linecap:round;stroke-linejoin:round;-inkscape-stroke:none;paint-order:fill markers stroke"
         d="m 35.775576,33.877685 c -6.290371,8.56517 -15.025172,20.312375 -18.912626,23.576956 -3.887455,3.264581 -2.928187,-1.953481 3.361784,-10.51872 6.28997,-8.565239 17.91142,-20.477528 21.799275,-23.74204 3.887856,-3.264512 0.04194,2.118633 -6.248433,10.683804 z m -2.95942,-7.727746 c 4.272469,9.730207 10.078447,23.168368 10.96193,28.167293 0.883482,4.998925 -3.155857,1.559144 -7.428587,-8.17075 -4.272729,-9.729894 -8.778349,-25.750509 -9.661572,-30.749746 -0.883222,-4.999238 1.85576,1.022996 6.128229,10.753203 z m -8.172134,-1.30094 c 10.562841,1.165037 25.103619,2.855993 29.874556,4.590337 4.770937,1.734344 -0.227671,3.512624 -10.79037,2.34797 -10.5627,-1.164655 -26.68977,-5.272981 -31.460848,-7.007707 -4.771078,-1.734726 1.813821,-1.095636 12.376662,0.0694 z m -5.212714,6.426806 C 25.721679,22.710635 34.45648,10.96343 38.343934,7.6988491 42.231389,4.4342684 41.272121,9.6523296 34.98215,18.217569 28.69218,26.782808 17.07073,38.695097 13.182875,41.959609 9.2950191,45.224121 13.140936,39.840976 19.431308,31.275805 Z m 2.95942,7.727746 C 18.118259,29.273344 12.312281,15.835183 11.428798,10.836258 c -0.883482,-4.9989249 3.155857,-1.5591437 7.428587,8.17075 4.272729,9.729894 8.778349,25.750509 9.661572,30.749746 0.883222,4.999238 -1.85576,-1.022996 -6.128229,-10.753203 z m 8.172134,1.30094 C 20.000021,39.139454 5.459243,37.448498 0.68830597,35.714154 -4.0826311,33.97981 0.91597651,32.20153 11.478676,33.366184 c 10.5627,1.164655 26.68977,5.272981 31.460848,7.007707 4.771078,1.734726 -1.813821,1.095636 -12.376662,-0.0694 z"
         id="path39002"
         sodipodi:nodetypes="ccccc"
         inkscape:path-effect="#path-effect39006;#path-effect39010"
         inkscape:original-d="M 25.620756,21.977649 C 37.451159,30.601807 49.280561,39.224963 61.108965,47.847122 55.883051,46.938314 50.656139,46.028507 45.428226,45.117699 33.407409,33.610585 21.385593,22.102472 9.3627755,10.593357 14.783103,14.389121 20.202429,18.183885 25.620756,21.977649 Z"
         transform="matrix(0.42310442,0.11337049,-0.12594698,0.47004054,60.02925,48.477779)" />
      <path
         style="color:#000000;display:inline;fill:#005522;fill-rule:evenodd;stroke-width:2.16596;stroke-linecap:round;stroke-linejoin:round;-inkscape-stroke:none;paint-order:fill markers stroke"
         d="m 35.775576,33.877685 c -6.290371,8.56517 -15.025172,20.312375 -18.912626,23.576956 -3.887455,3.264581 -2.928187,-1.953481 3.361784,-10.51872 6.28997,-8.565239 17.91142,-20.477528 21.799275,-23.74204 3.887856,-3.264512 0.04194,2.118633 -6.248433,10.683804 z m -2.95942,-7.727746 c 4.272469,9.730207 10.078447,23.168368 10.96193,28.167293 0.883482,4.998925 -3.155857,1.559144 -7.428587,-8.17075 -4.272729,-9.729894 -8.778349,-25.750509 -9.661572,-30.749746 -0.883222,-4.999238 1.85576,1.022996 6.128229,10.753203 z m -8.172134,-1.30094 c 10.562841,1.165037 25.103619,2.855993 29.874556,4.590337 4.770937,1.734344 -0.227671,3.512624 -10.79037,2.34797 -10.5627,-1.164655 -26.68977,-5.272981 -31.460848,-7.007707 -4.771078,-1.734726 1.813821,-1.095636 12.376662,0.0694 z m -5.212714,6.426806 C 25.721679,22.710635 34.45648,10.96343 38.343934,7.6988491 42.231389,4.4342684 41.272121,9.6523296 34.98215,18.217569 28.69218,26.782808 17.07073,38.695097 13.182875,41.959609 9.2950191,45.224121 13.140936,39.840976 19.431308,31.275805 Z m 2.95942,7.727746 C 18.118259,29.273344 12.312281,15.835183 11.428798,10.836258 c -0.883482,-4.9989249 3.155857,-1.5591437 7.428587,8.17075 4.272729,9.729894 8.778349,25.750509 9.661572,30.749746 0.883222,4.999238 -1.85576,-1.022996 -6.128229,-10.753203 z m 8.172134,1.30094 C 20.000021,39.139454 5.459243,37.448498 0.68830597,35.714154 -4.0826311,33.97981 0.91597651,32.20153 11.478676,33.366184 c 10.5627,1.164655 26.68977,5.272981 31.460848,7.007707 4.771078,1.734726 -1.813821,1.095636 -12.376662,-0.0694 z"
         id="path39037"
         sodipodi:nodetypes="ccccc"
         inkscape:path-effect="#path-effect39041;#path-effect39045"
         inkscape:original-d="M 25.620756,21.977649 C 37.451159,30.601807 49.280561,39.224963 61.108965,47.847122 55.883051,46.938314 50.656139,46.028507 45.428226,45.117699 33.407409,33.610585 21.385593,22.102472 9.3627755,10.593357 14.783103,14.389121 20.202429,18.183885 25.620756,21.977649 Z"
         transform="matrix(0.42310442,0.11337049,-0.12594698,0.47004054,4.8183585,-5.3613922)" />
      <path
         style="color:#000000;display:inline;fill:#ff6600;fill-rule:evenodd;stroke-width:2.16596;stroke-linecap:round;stroke-linejoin:round;-inkscape-stroke:none;paint-order:fill markers stroke"
         d="m 35.775576,33.877685 c -6.290371,8.56517 -15.025172,20.312375 -18.912626,23.576956 -3.887455,3.264581 -2.928187,-1.953481 3.361784,-10.51872 6.28997,-8.565239 17.91142,-20.477528 21.799275,-23.74204 3.887856,-3.264512 0.04194,2.118633 -6.248433,10.683804 z m -2.95942,-7.727746 c 4.272469,9.730207 10.078447,23.168368 10.96193,28.167293 0.883482,4.998925 -3.155857,1.559144 -7.428587,-8.17075 -4.272729,-9.729894 -8.778349,-25.750509 -9.661572,-30.749746 -0.883222,-4.999238 1.85576,1.022996 6.128229,10.753203 z m -8.172134,-1.30094 c 10.562841,1.165037 25.103619,2.855993 29.874556,4.590337 4.770937,1.734344 -0.227671,3.512624 -10.79037,2.34797 -10.5627,-1.164655 -26.68977,-5.272981 -31.460848,-7.007707 -4.771078,-1.734726 1.813821,-1.095636 12.376662,0.0694 z m -5.212714,6.426806 C 25.721679,22.710635 34.45648,10.96343 38.343934,7.6988491 42.231389,4.4342684 41.272121,9.6523296 34.98215,18.217569 28.69218,26.782808 17.07073,38.695097 13.182875,41.959609 9.2950191,45.224121 13.140936,39.840976 19.431308,31.275805 Z m 2.95942,7.727746 C 18.118259,29.273344 12.312281,15.835183 11.428798,10.836258 c -0.883482,-4.9989249 3.155857,-1.5591437 7.428587,8.17075 4.272729,9.729894 8.778349,25.750509 9.661572,30.749746 0.883222,4.999238 -1.85576,-1.022996 -6.128229,-10.753203 z m 8.172134,1.30094 C 20.000021,39.139454 5.459243,37.448498 0.68830597,35.714154 -4.0826311,33.97981 0.91597651,32.20153 11.478676,33.366184 c 10.5627,1.164655 26.68977,5.272981 31.460848,7.007707 4.771078,1.734726 -1.813821,1.095636 -12.376662,-0.0694 z"
         id="path39047"
         sodipodi:nodetypes="ccccc"
         inkscape:path-effect="#path-effect39051;#path-effect39055"
         inkscape:original-d="M 25.620756,21.977649 C 37.451159,30.601807 49.280561,39.224963 61.108965,47.847122 55.883051,46.938314 50.656139,46.028507 45.428226,45.117699 33.407409,33.610585 21.385593,22.102472 9.3627755,10.593357 14.783103,14.389121 20.202429,18.183885 25.620756,21.977649 Z"
         transform="matrix(0.42310442,0.11337049,-0.12594698,0.47004054,-7.5761945,38.477949)" />
      <path
         style="color:#000000;display:inline;fill:#ff6600;fill-rule:evenodd;stroke-width:2.16596;stroke-linecap:round;stroke-linejoin:round;-inkscape-stroke:none;paint-order:fill markers stroke"
         d="m 35.775576,33.877685 c -6.290371,8.56517 -15.025172,20.312375 -18.912626,23.576956 -3.887455,3.264581 -2.928187,-1.953481 3.361784,-10.51872 6.28997,-8.565239 17.91142,-20.477528 21.799275,-23.74204 3.887856,-3.264512 0.04194,2.118633 -6.248433,10.683804 z m -2.95942,-7.727746 c 4.272469,9.730207 10.078447,23.168368 10.96193,28.167293 0.883482,4.998925 -3.155857,1.559144 -7.428587,-8.17075 -4.272729,-9.729894 -8.778349,-25.750509 -9.661572,-30.749746 -0.883222,-4.999238 1.85576,1.022996 6.128229,10.753203 z m -8.172134,-1.30094 c 10.562841,1.165037 25.103619,2.855993 29.874556,4.590337 4.770937,1.734344 -0.227671,3.512624 -10.79037,2.34797 -10.5627,-1.164655 -26.68977,-5.272981 -31.460848,-7.007707 -4.771078,-1.734726 1.813821,-1.095636 12.376662,0.0694 z m -5.212714,6.426806 C 25.721679,22.710635 34.45648,10.96343 38.343934,7.6988491 42.231389,4.4342684 41.272121,9.6523296 34.98215,18.217569 28.69218,26.782808 17.07073,38.695097 13.182875,41.959609 9.2950191,45.224121 13.140936,39.840976 19.431308,31.275805 Z m 2.95942,7.727746 C 18.118259,29.273344 12.312281,15.835183 11.428798,10.836258 c -0.883482,-4.9989249 3.155857,-1.5591437 7.428587,8.17075 4.272729,9.729894 8.778349,25.750509 9.661572,30.749746 0.883222,4.999238 -1.85576,-1.022996 -6.128229,-10.753203 z m 8.172134,1.30094 C 20.000021,39.139454 5.459243,37.448498 0.68830597,35.714154 -4.0826311,33.97981 0.91597651,32.20153 11.478676,33.366184 c 10.5627,1.164655 26.68977,5.272981 31.460848,7.007707 4.771078,1.734726 -1.813821,1.095636 -12.376662,-0.0694 z"
         id="path39057"
         sodipodi:nodetypes="ccccc"
         inkscape:path-effect="#path-effect39061;#path-effect39065"
         inkscape:original-d="M 25.620756,21.977649 C 37.451159,30.601807 49.280561,39.224963 61.108965,47.847122 55.883051,46.938314 50.656139,46.028507 45.428226,45.117699 33.407409,33.610585 21.385593,22.102472 9.3627755,10.593357 14.783103,14.389121 20.202429,18.183885 25.620756,21.977649 Z"
         transform="matrix(0.42310442,0.11337049,-0.12594698,0.47004054,72.423804,4.6386078)" />
    </g>
  </g>
</svg>
