<?xml version="1.0" encoding="UTF-8" standalone="no"?>
<!-- Created with Inkscape (http://www.inkscape.org/) -->

<svg
   width="240"
   height="240"
   viewBox="0 0 240 240"
   version="1.1"
   id="svg5"
   inkscape:version="1.1.1 (3bf5ae0d25, 2021-09-20)"
   sodipodi:docname="Patter_file71.svg"
   xmlns:inkscape="http://www.inkscape.org/namespaces/inkscape"
   xmlns:sodipodi="http://sodipodi.sourceforge.net/DTD/sodipodi-0.dtd"
   xmlns="http://www.w3.org/2000/svg"
   xmlns:svg="http://www.w3.org/2000/svg">
  <sodipodi:namedview
     id="namedview7"
     pagecolor="#ededed"
     bordercolor="#666666"
     borderopacity="1.0"
     inkscape:pageshadow="2"
     inkscape:pageopacity="0"
     inkscape:pagecheckerboard="0"
     inkscape:document-units="px"
     showgrid="false"
     units="px"
     scale-x="1"
     inkscape:showpageshadow="false"
     inkscape:snap-page="true"
     inkscape:snap-nodes="true"
     inkscape:snap-intersection-paths="true"
     inkscape:zoom="1.7262073"
     inkscape:cx="230.27362"
     inkscape:cy="94.716319"
     inkscape:window-width="1920"
     inkscape:window-height="1047"
     inkscape:window-x="0"
     inkscape:window-y="0"
     inkscape:window-maximized="1"
     inkscape:current-layer="layer2"
     width="240px"
     inkscape:snap-bbox="true"
     inkscape:bbox-paths="false"
     inkscape:snap-others="false"
     inkscape:snap-smooth-nodes="true"
     inkscape:bbox-nodes="true"
     inkscape:snap-bbox-midpoints="true"
     inkscape:snap-midpoints="true"
     inkscape:object-paths="false"
     inkscape:snap-bbox-edge-midpoints="true" />
  <defs
     id="defs2" />
  <g
     inkscape:label="Layer_I"
     inkscape:groupmode="layer"
     id="layer1"
     sodipodi:insensitive="true">
    <rect
       style="fill:#ff9955;fill-opacity:0;stroke:none;stroke-width:10"
       id="rect846"
       width="3840"
       height="2160"
       x="0"
       y="0"
       rx="0"
       ry="0"
       sodipodi:insensitive="true"
       inkscape:label="Background" />
  </g>
  <g
     inkscape:groupmode="layer"
     id="layer2"
     inkscape:label="Layer_II">
    <g
       id="g1171"
       transform="translate(-7.5460364,-53.58381)"
       style="display:inline">
      <path
         id="path1046"
         style="fill:#ffdd55;fill-rule:evenodd;stroke:#803300;stroke-width:0.999999"
         d="m 102.47291,161.93865 c -7.847018,-0.0646 -16.460901,-8.72338 -16.662496,-16.51223 -0.242884,-9.38831 9.069038,-20.20442 19.028236,-20.90089 11.4338,-0.79961 21.11665,9.2831 21.78937,21.38993 0.76532,13.77425 -10.62312,25.41617 -24.27314,26.16835 -15.40723,0.84899 -28.408367,-11.71408 -29.191496,-26.78032 -0.877759,-16.8868 2.84299,-31.11653 23.777718,-31.91796 23.318228,-0.89267 38.936848,19.31311 38.975718,32.54142 0.0385,13.22832 8.96367,16.07543 16.70247,16.0117 7.84691,-0.0645 16.46079,-8.72338 16.66238,-16.51223 0.24299,-9.38833 -9.06903,-20.20442 -19.02813,-20.90089 -11.4339,-0.79961 -21.11675,9.2831 -21.78936,21.38993 -0.76542,13.77425 10.623,25.41617 24.27302,26.16835 15.40724,0.84899 28.40843,-11.71408 29.19147,-26.78032 0.87784,-16.8868 -2.84292,-31.11653 -23.77768,-31.91796 -23.31823,-0.89267 -38.93686,19.31311 -38.97561,32.54142 -0.0386,13.22832 -8.96378,16.07543 -16.70247,16.0117 z"
         sodipodi:nodetypes="aassssssaassssssa" />
      <path
         id="path933"
         style="fill:#ffdd55;fill-rule:evenodd;stroke:#803300;stroke-width:0.999999"
         d="m 102.47291,185.22897 c -7.847018,0.0646 -16.460901,8.72338 -16.662496,16.51223 -0.242884,9.38831 9.069038,20.20442 19.028236,20.90089 11.4338,0.79961 21.11665,-9.2831 21.78937,-21.38993 0.76532,-13.77425 -10.62312,-25.41617 -24.27314,-26.16835 -15.40723,-0.84899 -28.408367,11.71408 -29.191496,26.78032 -0.877759,16.8868 2.84299,31.11653 23.777718,31.91796 23.318228,0.89267 38.936848,-19.31311 38.975718,-32.54142 0.0385,-13.22832 8.96367,-16.07543 16.70247,-16.0117 7.84691,0.0645 16.46079,8.72338 16.66238,16.51223 0.24299,9.38833 -9.06903,20.20442 -19.02813,20.90089 -11.4339,0.79961 -21.11675,-9.2831 -21.78936,-21.38993 -0.76542,-13.77425 10.623,-25.41617 24.27302,-26.16835 15.40724,-0.84899 28.40843,11.71408 29.19147,26.78032 0.87784,16.8868 -2.84292,31.11653 -23.77768,31.91796 -23.31823,0.89267 -38.93686,-19.31311 -38.97561,-32.54142 -0.0386,-13.22832 -8.96378,-16.07543 -16.70247,-16.0117 z"
         sodipodi:nodetypes="aassssssaassssssa" />
      <path
         id="path1173"
         style="fill:#de8787;fill-rule:evenodd;stroke:#0000ff;stroke-width:0.999999"
         d="m 228.81943,107.7692 c 5.503,5.59436 5.47126,17.80797 0.10626,23.45807 -6.4668,6.81028 -20.69947,7.8739 -28.23416,1.32417 -8.65033,-7.51951 -8.36759,-21.49587 -0.28245,-30.53238 9.1987,-10.281029 25.48363,-10.460259 35.66752,-1.34011 11.49489,10.29423 11.80465,28.37085 1.70496,39.57805 -11.3201,12.56144 -24.01301,19.99241 -39.38279,5.75602 -17.11969,-15.85727 -13.87608,-41.18894 -4.54974,-50.570259 9.32661,-9.38106 5.02877,-17.70531 -0.48845,-23.13241 -5.59421,-5.50299 -17.8079,-5.47117 -23.45799,-0.10617 -6.81037,6.46673 -7.87391,20.69945 -1.32424,28.234079 7.51958,8.6504 21.49594,8.36765 30.53237,0.28244 10.2811,-9.198629 10.46035,-25.483539 1.3402,-35.667429 -10.29424,-11.4949 -28.3709,-11.80469 -39.57803,-1.70495 -12.5615,11.32005 -19.99247,24.01296 -5.75605,39.382769 15.85726,17.11969 41.18895,13.87609 50.57018,4.54966 9.38112,-9.326539 17.70539,-5.0287 23.13241,0.48845 z"
         sodipodi:nodetypes="aassssssaassssssa" />
      <path
         id="path1229"
         style="fill:#de8787;fill-rule:evenodd;stroke:#0000ff;stroke-width:0.999999"
         d="m 26.272649,239.39842 c -5.503,-5.59436 -5.47126,-17.80797 -0.10626,-23.45807 6.4668,-6.81028 20.69947,-7.8739 28.23416,-1.32417 8.65033,7.51951 8.36759,21.49587 0.28245,30.53238 -9.1987,10.28103 -25.48363,10.46026 -35.66752,1.34011 -11.49489,-10.29423 -11.80465,-28.37085 -1.70496,-39.57805 11.3201,-12.56144 24.01301,-19.99241 39.38279,-5.75602 17.11969,15.85727 13.87608,41.18894 4.54974,50.57026 -9.32661,9.38106 -5.02877,17.70531 0.48845,23.13241 5.59421,5.50299 17.8079,5.47117 23.45799,0.10617 6.81037,-6.46673 7.87391,-20.69945 1.32424,-28.23408 -7.51958,-8.6504 -21.49594,-8.36765 -30.53237,-0.28244 -10.2811,9.19863 -10.46035,25.48354 -1.3402,35.66743 10.29424,11.4949 28.3709,11.80469 39.57803,1.70495 12.561501,-11.32005 19.992471,-24.01296 5.75605,-39.38277 -15.85726,-17.11969 -41.18895,-13.87609 -50.57018,-4.54966 -9.38112,9.32654 -17.70539,5.0287 -23.13241,-0.48845 z"
         sodipodi:nodetypes="aassssssaassssssa" />
      <path
         id="path1231"
         style="fill:#e9afaf;fill-rule:evenodd;stroke:#0000ff;stroke-width:0.999999"
         d="m 228.81942,239.39842 c 5.503,-5.59436 5.47126,-17.80797 0.10626,-23.45807 -6.4668,-6.81028 -20.69947,-7.8739 -28.23416,-1.32417 -8.65033,7.51951 -8.36759,21.49587 -0.28245,30.53238 9.1987,10.28103 25.48363,10.46026 35.66752,1.34011 11.49489,-10.29423 11.80465,-28.37085 1.70496,-39.57805 -11.3201,-12.56144 -24.01301,-19.99241 -39.38279,-5.75602 -17.11969,15.85727 -13.87608,41.18894 -4.54974,50.57026 9.32661,9.38106 5.02877,17.70531 -0.48845,23.13241 -5.59421,5.50299 -17.8079,5.47117 -23.45799,0.10617 -6.81037,-6.46673 -7.87391,-20.69945 -1.32424,-28.23408 7.51958,-8.6504 21.49594,-8.36765 30.53237,-0.28244 10.2811,9.19863 10.46035,25.48354 1.3402,35.66743 -10.29424,11.4949 -28.3709,11.80469 -39.57803,1.70495 -12.5615,-11.32005 -19.99247,-24.01296 -5.75605,-39.38277 15.85726,-17.11969 41.18895,-13.87609 50.57018,-4.54966 9.38112,9.32654 17.70539,5.0287 23.13241,-0.48845 z"
         sodipodi:nodetypes="aassssssaassssssa" />
      <path
         id="path1521"
         style="fill:#e9afaf;fill-rule:evenodd;stroke:#0000ff;stroke-width:0.999999"
         d="m 26.272651,107.7692 c -5.503,5.59436 -5.47126,17.80797 -0.10626,23.45807 6.4668,6.81028 20.69947,7.8739 28.23416,1.32417 8.65033,-7.51951 8.36759,-21.49587 0.28245,-30.53238 -9.1987,-10.281029 -25.48363,-10.460259 -35.66752,-1.34011 -11.4948927,10.29423 -11.8046527,28.37085 -1.70496,39.57805 11.3201,12.56144 24.01301,19.99241 39.38279,5.75602 17.11969,-15.85727 13.87608,-41.18894 4.54974,-50.570259 -9.32661,-9.38106 -5.02877,-17.70531 0.48845,-23.13241 5.59421,-5.50299 17.8079,-5.47117 23.45799,-0.10617 6.81037,6.46673 7.87391,20.69945 1.32424,28.234079 -7.51958,8.6504 -21.49594,8.36765 -30.53237,0.28244 -10.2811,-9.198629 -10.46035,-25.483539 -1.3402,-35.667429 10.29424,-11.4949 28.3709,-11.80469 39.57803,-1.70495 12.561499,11.32005 19.992469,24.01296 5.75605,39.382769 -15.85726,17.11969 -41.18895,13.87609 -50.57018,4.54966 -9.38112,-9.326539 -17.70539,-5.0287 -23.13241,0.48845 z"
         sodipodi:nodetypes="aassssssaassssssa" />
    </g>
  </g>
</svg>
