<?xml version="1.0" encoding="UTF-8" standalone="no"?>
<!-- Created with Inkscape (http://www.inkscape.org/) -->

<svg
   width="240"
   height="240"
   viewBox="0 0 240 240"
   version="1.1"
   id="svg5"
   inkscape:version="1.1.1 (3bf5ae0d25, 2021-09-20)"
   sodipodi:docname="Patter_file30.svg"
   xmlns:inkscape="http://www.inkscape.org/namespaces/inkscape"
   xmlns:sodipodi="http://sodipodi.sourceforge.net/DTD/sodipodi-0.dtd"
   xmlns="http://www.w3.org/2000/svg"
   xmlns:svg="http://www.w3.org/2000/svg">
  <sodipodi:namedview
     id="namedview7"
     pagecolor="#ededed"
     bordercolor="#666666"
     borderopacity="1.0"
     inkscape:pageshadow="2"
     inkscape:pageopacity="0"
     inkscape:pagecheckerboard="0"
     inkscape:document-units="px"
     showgrid="false"
     units="px"
     scale-x="1"
     inkscape:showpageshadow="false"
     inkscape:snap-page="true"
     inkscape:snap-nodes="true"
     inkscape:snap-bbox="true"
     inkscape:bbox-nodes="true"
     inkscape:snap-bbox-edge-midpoints="true"
     inkscape:zoom="3.3416667"
     inkscape:cx="246.13466"
     inkscape:cy="120.14962"
     inkscape:window-width="1920"
     inkscape:window-height="1047"
     inkscape:window-x="0"
     inkscape:window-y="0"
     inkscape:window-maximized="1"
     inkscape:current-layer="g983" />
  <defs
     id="defs2" />
  <g
     inkscape:label="Layer_I"
     inkscape:groupmode="layer"
     id="layer1"
     sodipodi:insensitive="true">
    <rect
       style="fill:#ff9955;fill-opacity:0;stroke:none;stroke-width:10"
       id="rect846"
       width="3840"
       height="2160"
       x="0"
       y="0"
       rx="0"
       ry="0"
       sodipodi:insensitive="true"
       inkscape:label="Background" />
  </g>
  <g
     inkscape:groupmode="layer"
     id="layer2"
     inkscape:label="Layer_II">
    <g
       id="g1039"
       style="fill:#004040;fill-opacity:1;stroke:#006680">
      <path
         id="path845"
         style="display:inline;fill:#004040;fill-opacity:1;fill-rule:evenodd;stroke:#006680;stroke-width:0.999999;stroke-linecap:round;stroke-linejoin:round;paint-order:fill markers stroke;stop-color:#000000"
         d="m 224.75246,224.76054 a 50.362647,50.334676 0 0 0 0,-71.18373 50.362647,50.334676 0 0 0 -23.06715,-13.05432 50.362647,50.334676 0 0 1 -13.06362,48.12733 50.362647,50.334676 0 0 1 -48.12164,13.1577 50.362647,50.334676 0 0 0 13.02913,22.95302 50.362647,50.334676 0 0 0 71.22328,0 z" />
      <path
         id="path955"
         style="display:inline;fill:#004040;fill-opacity:1;fill-rule:evenodd;stroke:#006680;stroke-width:0.999999;stroke-linecap:round;stroke-linejoin:round;paint-order:fill markers stroke;stop-color:#000000"
         d="m 224.75246,15.239458 a 50.362647,50.334676 0 0 1 0,71.18373 50.362647,50.334676 0 0 1 -23.06715,13.05432 50.362647,50.334676 0 0 0 -13.06362,-48.12733 50.362647,50.334676 0 0 0 -48.12164,-13.1577 50.362647,50.334676 0 0 1 13.02913,-22.95302 50.362647,50.334676 0 0 1 71.22328,0 z" />
      <path
         id="path957"
         style="display:inline;fill:#004040;fill-opacity:1;fill-rule:evenodd;stroke:#006680;stroke-width:0.999999;stroke-linecap:round;stroke-linejoin:round;paint-order:fill markers stroke;stop-color:#000000"
         d="m 15.247537,15.239458 a 50.362647,50.334676 0 0 0 0,71.18373 50.362647,50.334676 0 0 0 23.06715,13.05432 50.362647,50.334676 0 0 1 13.06362,-48.12733 50.362647,50.334676 0 0 1 48.12164,-13.1577 50.362647,50.334676 0 0 0 -13.02913,-22.95302 50.362647,50.334676 0 0 0 -71.22328,0 z" />
      <path
         id="path959"
         style="display:inline;fill:#004040;fill-opacity:1;fill-rule:evenodd;stroke:#006680;stroke-width:0.999999;stroke-linecap:round;stroke-linejoin:round;paint-order:fill markers stroke;stop-color:#000000"
         d="m 15.247537,224.76054 a 50.362647,50.334676 0 0 1 0,-71.18373 50.362647,50.334676 0 0 1 23.06715,-13.05432 50.362647,50.334676 0 0 0 13.06362,48.12733 50.362647,50.334676 0 0 0 48.12164,13.1577 50.362647,50.334676 0 0 1 -13.02913,22.95302 50.362647,50.334676 0 0 1 -71.22328,0 z" />
    </g>
    <g
       id="g973"
       transform="translate(-6.38738,-5.356212)"
       style="display:inline;fill:#008080;fill-opacity:1;stroke:#006680">
      <path
         id="path961"
         style="fill:#008080;fill-opacity:1;fill-rule:evenodd;stroke:#006680;stroke-width:0.999999;stroke-linecap:round;stroke-linejoin:round;paint-order:fill markers stroke;stop-color:#000000"
         d="m 42.13497,209.59426 a 50.362647,50.334676 0 0 1 0,-71.18373 50.362647,50.334676 0 0 1 23.06715,-13.05432 50.362647,50.334676 0 0 0 13.063619,48.12733 50.362647,50.334676 0 0 0 48.121641,13.1577 50.362647,50.334676 0 0 1 -13.02913,22.95302 50.362647,50.334676 0 0 1 -71.22328,0 z" />
      <path
         id="path963"
         style="fill:#008080;fill-opacity:1;fill-rule:evenodd;stroke:#006680;stroke-width:0.999999;stroke-linecap:round;stroke-linejoin:round;paint-order:fill markers stroke;stop-color:#000000"
         d="m 210.63979,209.59426 a 50.362647,50.334676 0 0 0 0,-71.18373 50.362647,50.334676 0 0 0 -23.06715,-13.05432 50.362647,50.334676 0 0 1 -13.06362,48.12733 50.362647,50.334676 0 0 1 -48.12164,13.1577 50.362647,50.334676 0 0 0 13.02913,22.95302 50.362647,50.334676 0 0 0 71.22328,0 z" />
      <path
         id="path965"
         style="fill:#008080;fill-opacity:1;fill-rule:evenodd;stroke:#006680;stroke-width:0.999999;stroke-linecap:round;stroke-linejoin:round;paint-order:fill markers stroke;stop-color:#000000"
         d="m 210.63979,41.118164 a 50.362647,50.334676 0 0 1 0,71.183726 50.362647,50.334676 0 0 1 -23.06715,13.05432 50.362647,50.334676 0 0 0 -13.06362,-48.127328 50.362647,50.334676 0 0 0 -48.12164,-13.157698 50.362647,50.334676 0 0 1 13.02913,-22.95302 50.362647,50.334676 0 0 1 71.22328,0 z" />
      <path
         id="path967"
         style="fill:#008080;fill-opacity:1;fill-rule:evenodd;stroke:#006680;stroke-width:0.999999;stroke-linecap:round;stroke-linejoin:round;paint-order:fill markers stroke;stop-color:#000000"
         d="m 42.134973,41.118164 a 50.362647,50.334676 0 0 0 0,71.183726 50.362647,50.334676 0 0 0 23.06715,13.05432 50.362647,50.334676 0 0 1 13.063619,-48.127328 50.362647,50.334676 0 0 1 48.121638,-13.157698 50.362647,50.334676 0 0 0 -13.02913,-22.95302 50.362647,50.334676 0 0 0 -71.223277,0 z" />
    </g>
    <g
       id="g983"
       transform="matrix(0.75253369,0,0,0.75270596,24.889239,25.643632)"
       style="display:inline;stroke-width:1.3287">
      <path
         id="path975"
         style="fill:#51b0b0;fill-rule:evenodd;stroke:#006680;stroke-width:1.32869;stroke-linecap:round;stroke-linejoin:round;paint-order:fill markers stroke;stop-color:#000000;stroke-opacity:1;fill-opacity:1"
         d="m 42.13497,209.59426 a 50.362647,50.334676 0 0 1 0,-71.18373 50.362647,50.334676 0 0 1 23.06715,-13.05432 50.362647,50.334676 0 0 0 13.063619,48.12733 50.362647,50.334676 0 0 0 48.121641,13.1577 50.362647,50.334676 0 0 1 -13.02913,22.95302 50.362647,50.334676 0 0 1 -71.22328,0 z" />
      <path
         id="path977"
         style="fill:#51b0b0;fill-rule:evenodd;stroke:#006680;stroke-width:1.32869;stroke-linecap:round;stroke-linejoin:round;paint-order:fill markers stroke;stop-color:#000000;stroke-opacity:1;fill-opacity:1"
         d="m 210.63979,209.59426 a 50.362647,50.334676 0 0 0 0,-71.18373 50.362647,50.334676 0 0 0 -23.06715,-13.05432 50.362647,50.334676 0 0 1 -13.06362,48.12733 50.362647,50.334676 0 0 1 -48.12164,13.1577 50.362647,50.334676 0 0 0 13.02913,22.95302 50.362647,50.334676 0 0 0 71.22328,0 z" />
      <path
         id="path979"
         style="fill:#51b0b0;fill-rule:evenodd;stroke:#006680;stroke-width:1.32869;stroke-linecap:round;stroke-linejoin:round;paint-order:fill markers stroke;stop-color:#000000;stroke-opacity:1;fill-opacity:1"
         d="m 210.63979,41.118164 a 50.362647,50.334676 0 0 1 0,71.183726 50.362647,50.334676 0 0 1 -23.06715,13.05432 50.362647,50.334676 0 0 0 -13.06362,-48.127328 50.362647,50.334676 0 0 0 -48.12164,-13.157698 50.362647,50.334676 0 0 1 13.02913,-22.95302 50.362647,50.334676 0 0 1 71.22328,0 z" />
      <path
         id="path981"
         style="fill:#51b0b0;fill-rule:evenodd;stroke:#006680;stroke-width:1.32869;stroke-linecap:round;stroke-linejoin:round;paint-order:fill markers stroke;stop-color:#000000;stroke-opacity:1;fill-opacity:1"
         d="m 42.134973,41.118164 a 50.362647,50.334676 0 0 0 0,71.183726 50.362647,50.334676 0 0 0 23.06715,13.05432 50.362647,50.334676 0 0 1 13.063619,-48.127328 50.362647,50.334676 0 0 1 48.121638,-13.157698 50.362647,50.334676 0 0 0 -13.02913,-22.95302 50.362647,50.334676 0 0 0 -71.223277,0 z" />
    </g>
    <g
       id="g993"
       transform="matrix(0.50001704,0,0,0.49898999,56.804156,57.448505)"
       style="fill:#00bfbf;fill-opacity:1;stroke:#006680;stroke-width:2.002">
      <path
         id="path985"
         style="fill:#00bfbf;fill-opacity:1;fill-rule:evenodd;stroke:#006680;stroke-width:2.00198;stroke-linecap:round;stroke-linejoin:round;paint-order:fill markers stroke;stop-color:#000000"
         d="m 42.13497,209.59426 a 50.362647,50.334676 0 0 1 0,-71.18373 50.362647,50.334676 0 0 1 23.06715,-13.05432 50.362647,50.334676 0 0 0 13.063619,48.12733 50.362647,50.334676 0 0 0 48.121641,13.1577 50.362647,50.334676 0 0 1 -13.02913,22.95302 50.362647,50.334676 0 0 1 -71.22328,0 z" />
      <path
         id="path987"
         style="fill:#00bfbf;fill-opacity:1;fill-rule:evenodd;stroke:#006680;stroke-width:2.00198;stroke-linecap:round;stroke-linejoin:round;paint-order:fill markers stroke;stop-color:#000000"
         d="m 210.63979,209.59426 a 50.362647,50.334676 0 0 0 0,-71.18373 50.362647,50.334676 0 0 0 -23.06715,-13.05432 50.362647,50.334676 0 0 1 -13.06362,48.12733 50.362647,50.334676 0 0 1 -48.12164,13.1577 50.362647,50.334676 0 0 0 13.02913,22.95302 50.362647,50.334676 0 0 0 71.22328,0 z" />
      <path
         id="path989"
         style="fill:#00bfbf;fill-opacity:1;fill-rule:evenodd;stroke:#006680;stroke-width:2.00198;stroke-linecap:round;stroke-linejoin:round;paint-order:fill markers stroke;stop-color:#000000"
         d="m 210.63979,41.118164 a 50.362647,50.334676 0 0 1 0,71.183726 50.362647,50.334676 0 0 1 -23.06715,13.05432 50.362647,50.334676 0 0 0 -13.06362,-48.127328 50.362647,50.334676 0 0 0 -48.12164,-13.157698 50.362647,50.334676 0 0 1 13.02913,-22.95302 50.362647,50.334676 0 0 1 71.22328,0 z" />
      <path
         id="path991"
         style="fill:#00bfbf;fill-opacity:1;fill-rule:evenodd;stroke:#006680;stroke-width:2.00198;stroke-linecap:round;stroke-linejoin:round;paint-order:fill markers stroke;stop-color:#000000"
         d="m 42.134973,41.118164 a 50.362647,50.334676 0 0 0 0,71.183726 50.362647,50.334676 0 0 0 23.06715,13.05432 50.362647,50.334676 0 0 1 13.063619,-48.127328 50.362647,50.334676 0 0 1 48.121638,-13.157698 50.362647,50.334676 0 0 0 -13.02913,-22.95302 50.362647,50.334676 0 0 0 -71.223277,0 z" />
    </g>
    <g
       id="g1003"
       transform="matrix(0.24750004,0,0,0.24757526,88.719118,88.964903)"
       style="fill:#00ffff;stroke:#006680;stroke-width:4.03981">
      <path
         id="path995"
         style="fill:#00ffff;fill-rule:evenodd;stroke:#006680;stroke-width:4.03977;stroke-linecap:round;stroke-linejoin:round;paint-order:fill markers stroke;stop-color:#000000"
         d="m 42.13497,209.59426 a 50.362647,50.334676 0 0 1 0,-71.18373 50.362647,50.334676 0 0 1 23.06715,-13.05432 50.362647,50.334676 0 0 0 13.063619,48.12733 50.362647,50.334676 0 0 0 48.121641,13.1577 50.362647,50.334676 0 0 1 -13.02913,22.95302 50.362647,50.334676 0 0 1 -71.22328,0 z" />
      <path
         id="path997"
         style="fill:#00ffff;fill-rule:evenodd;stroke:#006680;stroke-width:4.03977;stroke-linecap:round;stroke-linejoin:round;paint-order:fill markers stroke;stop-color:#000000"
         d="m 210.63979,209.59426 a 50.362647,50.334676 0 0 0 0,-71.18373 50.362647,50.334676 0 0 0 -23.06715,-13.05432 50.362647,50.334676 0 0 1 -13.06362,48.12733 50.362647,50.334676 0 0 1 -48.12164,13.1577 50.362647,50.334676 0 0 0 13.02913,22.95302 50.362647,50.334676 0 0 0 71.22328,0 z" />
      <path
         id="path999"
         style="fill:#00ffff;fill-rule:evenodd;stroke:#006680;stroke-width:4.03977;stroke-linecap:round;stroke-linejoin:round;paint-order:fill markers stroke;stop-color:#000000"
         d="m 210.63979,41.118164 a 50.362647,50.334676 0 0 1 0,71.183726 50.362647,50.334676 0 0 1 -23.06715,13.05432 50.362647,50.334676 0 0 0 -13.06362,-48.127328 50.362647,50.334676 0 0 0 -48.12164,-13.157698 50.362647,50.334676 0 0 1 13.02913,-22.95302 50.362647,50.334676 0 0 1 71.22328,0 z" />
      <path
         id="path1001"
         style="fill:#00ffff;fill-rule:evenodd;stroke:#006680;stroke-width:4.03977;stroke-linecap:round;stroke-linejoin:round;paint-order:fill markers stroke;stop-color:#000000"
         d="m 42.134973,41.118164 a 50.362647,50.334676 0 0 0 0,71.183726 50.362647,50.334676 0 0 0 23.06715,13.05432 50.362647,50.334676 0 0 1 13.063619,-48.127328 50.362647,50.334676 0 0 1 48.121638,-13.157698 50.362647,50.334676 0 0 0 -13.02913,-22.95302 50.362647,50.334676 0 0 0 -71.223277,0 z" />
    </g>
  </g>
</svg>
