<?xml version="1.0" encoding="UTF-8" standalone="no"?>
<!-- Created with Inkscape (http://www.inkscape.org/) -->

<svg
   width="240"
   height="240"
   viewBox="0 0 240 240"
   version="1.1"
   id="svg5"
   inkscape:version="1.1.1 (3bf5ae0d25, 2021-09-20)"
   sodipodi:docname="Patter_file106.svg"
   xmlns:inkscape="http://www.inkscape.org/namespaces/inkscape"
   xmlns:sodipodi="http://sodipodi.sourceforge.net/DTD/sodipodi-0.dtd"
   xmlns="http://www.w3.org/2000/svg"
   xmlns:svg="http://www.w3.org/2000/svg">
  <sodipodi:namedview
     id="namedview7"
     pagecolor="#ededed"
     bordercolor="#666666"
     borderopacity="1.0"
     inkscape:pageshadow="2"
     inkscape:pageopacity="0"
     inkscape:pagecheckerboard="0"
     inkscape:document-units="px"
     showgrid="true"
     units="px"
     scale-x="1"
     inkscape:showpageshadow="false"
     inkscape:snap-page="false"
     inkscape:snap-nodes="true"
     inkscape:snap-object-midpoints="true"
     inkscape:snap-bbox="true"
     inkscape:bbox-paths="true"
     inkscape:bbox-nodes="true"
     inkscape:snap-bbox-edge-midpoints="true"
     inkscape:snap-bbox-midpoints="true"
     inkscape:object-paths="true"
     inkscape:snap-intersection-paths="true"
     inkscape:snap-smooth-nodes="true"
     inkscape:snap-center="true"
     inkscape:snap-midpoints="true"
     inkscape:snap-others="false"
     inkscape:zoom="1.867544"
     inkscape:cx="145.3781"
     inkscape:cy="114.32127"
     inkscape:window-width="1920"
     inkscape:window-height="1047"
     inkscape:window-x="0"
     inkscape:window-y="0"
     inkscape:window-maximized="1"
     inkscape:current-layer="layer2"
     width="240px">
    <inkscape:grid
       type="xygrid"
       id="grid5551"
       spacingx="3"
       spacingy="3" />
  </sodipodi:namedview>
  <defs
     id="defs2" />
  <g
     inkscape:label="Layer_I"
     inkscape:groupmode="layer"
     id="layer1"
     sodipodi:insensitive="true">
    <rect
       style="fill:#ff9955;fill-opacity:0;stroke:none;stroke-width:10"
       id="rect846"
       width="3840"
       height="2160"
       x="0"
       y="0"
       rx="0"
       ry="0"
       sodipodi:insensitive="true"
       inkscape:label="Background" />
  </g>
  <g
     inkscape:groupmode="layer"
     id="layer2"
     inkscape:label="Layer_II">
    <g
       id="g2513"
       transform="matrix(0.46777232,0,0,0.46777231,-1175.0715,-359.49791)"
       style="display:inline;fill:#ac9393;stroke:#241c1c;stroke-width:12.8268;stroke-linecap:butt;stroke-linejoin:miter;stroke-miterlimit:4;stroke-dasharray:none;stroke-dashoffset:0;paint-order:stroke fill markers">
      <g
         id="g5789">
        <path
           id="path5776"
           style="display:inline;fill:#ac9393;stroke:#241c1c;stroke-width:6.00002;stroke-linecap:butt;stroke-linejoin:bevel;stroke-miterlimit:4;stroke-dasharray:none;stroke-dashoffset:0;paint-order:stroke fill markers"
           inkscape:transform-center-x="0.0069477393"
           inkscape:transform-center-y="-39.682946"
           d="m 152.91602,157.62305 c -28.30853,-12.58128 -53.265143,-16.79223 -53.263676,0.006 0.0015,16.79823 24.957036,12.58063 53.263676,-0.006 z"
           transform="matrix(2.1377922,0,0,2.1377922,2512.0586,768.53183)" />
        <path
           id="path5782"
           style="display:inline;fill:#ac9393;stroke:#241c1c;stroke-width:6.00002;stroke-linecap:butt;stroke-linejoin:bevel;stroke-miterlimit:4;stroke-dasharray:none;stroke-dashoffset:0;paint-order:stroke fill markers"
           inkscape:transform-center-x="0.0069477393"
           inkscape:transform-center-y="-39.682946"
           d="m 200.99414,185.375 c 3.25834,30.80771 12.09146,54.52748 26.63867,46.12695 14.54736,-8.40061 -1.58397,-27.9055 -26.63867,-46.12695 z"
           transform="matrix(2.1377922,0,0,2.1377922,2512.0586,768.53183)" />
        <path
           id="path5780"
           style="display:inline;fill:#ffd5d5;stroke:#241c1c;stroke-width:6.00002;stroke-linecap:butt;stroke-linejoin:bevel;stroke-miterlimit:4;stroke-dasharray:none;stroke-dashoffset:0;paint-order:stroke fill markers"
           inkscape:transform-center-x="0.0069477393"
           inkscape:transform-center-y="-39.682946"
           d="m 200.99219,129.86133 c -14.44578,10.51019 -31.75239,20.50338 -48.07617,27.76172 16.324,7.25494 33.63094,17.245 48.07812,27.75195 -1.8789,-17.76501 -1.87792,-37.74855 -0.002,-55.51367 z"
           transform="matrix(2.1377922,0,0,2.1377922,2512.0586,768.53183)" />
        <path
           id="path5778"
           style="display:inline;fill:#ac9393;stroke:#241c1c;stroke-width:6.00002;stroke-linecap:butt;stroke-linejoin:bevel;stroke-miterlimit:4;stroke-dasharray:none;stroke-dashoffset:0;paint-order:stroke fill markers"
           inkscape:transform-center-x="0.0069477393"
           inkscape:transform-center-y="-39.682946"
           d="m 222.5957,82.046875 c -11.59145,-0.898483 -18.74326,20.728305 -21.60351,47.814455 25.04959,-18.22512 41.17513,-37.731208 26.62695,-46.128908 -1.75717,-1.0143 -3.43107,-1.562118 -5.02344,-1.685547 z"
           transform="matrix(2.1377922,0,0,2.1377922,2512.0586,768.53183)" />
      </g>
      <g
         id="g5540"
         style="display:inline">
        <path
           id="path2280"
           style="display:inline;fill:#ac9393;stroke:#241c1c;stroke-width:6.00002;stroke-linecap:butt;stroke-linejoin:bevel;stroke-miterlimit:4;stroke-dasharray:none;stroke-dashoffset:0;paint-order:stroke fill markers"
           inkscape:transform-center-x="0.0069477393"
           inkscape:transform-center-y="-39.682946"
           d="M 54.626953,200.99219 C 23.81893,204.2452 0.09815013,213.07054 8.4960938,227.61914 16.893873,242.16745 36.401684,226.04219 54.626953,200.99219 Z"
           transform="matrix(2.1377922,0,0,2.1377922,2512.0586,768.53183)" />
        <path
           id="path5533"
           style="display:inline;fill:#ac9393;stroke:#241c1c;stroke-width:6.00002;stroke-linecap:butt;stroke-linejoin:bevel;stroke-miterlimit:4;stroke-dasharray:none;stroke-dashoffset:0;paint-order:stroke fill markers"
           inkscape:transform-center-x="0.0069477393"
           inkscape:transform-center-y="-39.682946"
           d="m 110.14062,200.99414 c 18.22141,25.0546 37.72636,41.186 46.12696,26.63867 8.40049,-14.54715 -15.31944,-23.38029 -46.12696,-26.63867 z"
           transform="matrix(2.1377922,0,0,2.1377922,2512.0586,768.53183)" />
        <path
           id="path5531"
           style="display:inline;fill:#ffd5d5;stroke:#241c1c;stroke-width:6.00002;stroke-linecap:butt;stroke-linejoin:bevel;stroke-miterlimit:4;stroke-dasharray:none;stroke-dashoffset:0;paint-order:stroke fill markers"
           inkscape:transform-center-x="0.0069477393"
           inkscape:transform-center-y="-39.682946"
           d="m 82.388672,152.91797 c -7.258164,16.32306 -17.252055,33.62905 -27.761719,48.07422 17.764787,-1.87578 37.749201,-1.87692 55.513667,0.002 C 99.634092,186.54757 89.643579,169.24142 82.388672,152.91797 Z"
           transform="matrix(2.1377922,0,0,2.1377922,2512.0586,768.53183)" />
        <path
           id="path5529"
           style="display:inline;fill:#ac9393;stroke:#241c1c;stroke-width:6.00002;stroke-linecap:butt;stroke-linejoin:bevel;stroke-miterlimit:4;stroke-dasharray:none;stroke-dashoffset:0;paint-order:stroke fill markers"
           inkscape:transform-center-x="0.0069477393"
           inkscape:transform-center-y="-39.682946"
           d="m 82.392578,99.652344 c -16.798517,-0.0015 -12.585944,24.956206 -0.0039,53.265626 12.587042,-28.3073 16.802459,-53.26416 0.0039,-53.265626 z"
           transform="matrix(2.1377922,0,0,2.1377922,2512.0586,768.53183)" />
      </g>
      <g
         id="g5507"
         style="display:inline">
        <path
           id="use2915"
           style="display:inline;fill:#ac9393;stroke:#241c1c;stroke-width:6.00002;stroke-linecap:butt;stroke-linejoin:bevel;stroke-miterlimit:4;stroke-dasharray:none;stroke-dashoffset:0;paint-order:stroke fill markers"
           inkscape:transform-center-x="0.0069477393"
           inkscape:transform-center-y="-39.682946"
           d="M 129.86328,39.007812 C 111.63801,13.957814 92.130201,-2.1674532 83.732422,12.380859 75.334478,26.929457 99.055258,35.754802 129.86328,39.007812 Z"
           transform="matrix(2.1377922,0,0,2.1377922,2512.0586,768.53183)" />
        <path
           id="path5500"
           style="display:inline;fill:#ac9393;stroke:#241c1c;stroke-width:6.00002;stroke-linecap:butt;stroke-linejoin:bevel;stroke-miterlimit:4;stroke-dasharray:none;stroke-dashoffset:0;paint-order:stroke fill markers"
           inkscape:transform-center-x="0.0069477393"
           inkscape:transform-center-y="-39.682946"
           d="m 157.62305,87.083984 c -12.58128,28.308526 -16.79223,53.265136 0.006,53.263676 16.79823,-10e-4 12.58063,-24.95704 -0.006,-53.263676 z"
           transform="matrix(2.1377922,0,0,2.1377922,2512.0586,768.53183)" />
        <path
           id="path5498"
           style="display:inline;fill:#ffd5d5;stroke:#241c1c;stroke-width:6.00002;stroke-linecap:butt;stroke-linejoin:bevel;stroke-miterlimit:4;stroke-dasharray:none;stroke-dashoffset:0;paint-order:stroke fill markers"
           inkscape:transform-center-x="0.0069477393"
           inkscape:transform-center-y="-39.682946"
           d="m 185.375,39.005859 c -17.76437,1.87883 -37.74707,1.877718 -55.51172,0.002 10.51001,14.445637 20.50155,31.752657 27.75977,48.076172 7.25494,-16.324002 17.245,-33.630945 27.75195,-48.078125 z"
           transform="matrix(2.1377922,0,0,2.1377922,2512.0586,768.53183)" />
        <path
           id="path5496"
           style="display:inline;fill:#ac9393;stroke:#241c1c;stroke-width:6.00002;stroke-linecap:butt;stroke-linejoin:bevel;stroke-miterlimit:4;stroke-dasharray:none;stroke-dashoffset:0;paint-order:stroke fill markers"
           inkscape:transform-center-x="0.0069477393"
           inkscape:transform-center-y="-39.682946"
           d="M 223.64258,6.8730469 C 213.74442,6.0877781 199.19496,20.003253 185.375,39.005859 216.18271,35.747516 239.90248,26.914402 231.50195,12.367188 229.47274,8.8531962 226.79502,7.1231453 223.64258,6.8730469 Z"
           transform="matrix(2.1377922,0,0,2.1377922,2512.0586,768.53183)" />
      </g>
      <g
         id="g5199"
         style="display:inline;stroke-linejoin:bevel">
        <path
           id="path5096"
           style="display:inline;fill:#ffd5d5;stroke:#241c1c;stroke-width:6.00002;stroke-linecap:butt;stroke-linejoin:miter;stroke-miterlimit:4;stroke-dasharray:none;stroke-dashoffset:0;paint-order:stroke fill markers"
           inkscape:transform-center-x="0.0069477393"
           inkscape:transform-center-y="-39.682946"
           d="m 39.005859,54.625 c 1.878897,17.765007 1.87792,37.748554 0.002,55.51367 C 53.453586,99.628482 70.760204,89.635288 87.083984,82.376953 70.759981,75.122005 53.45304,65.131951 39.005859,54.625 Z"
           transform="matrix(2.1377922,0,0,2.1377922,2512.0586,768.53183)" />
        <path
           id="use2917"
           style="display:inline;fill:#ac9393;stroke:#241c1c;stroke-width:6.00002;stroke-linecap:butt;stroke-linejoin:bevel;stroke-miterlimit:4;stroke-dasharray:none;stroke-dashoffset:0;paint-order:stroke fill markers"
           inkscape:transform-center-x="0.0069477393"
           inkscape:transform-center-y="-39.682946"
           d="m 39.007812,110.13867 c -25.049594,18.22512 -41.1751292,37.73121 -26.626953,46.12891 14.548299,8.39777 23.373777,-15.32182 26.626953,-46.12891 z"
           transform="matrix(2.1377922,0,0,2.1377922,2512.0586,768.53183)" />
        <path
           id="path5098"
           style="display:inline;fill:#ac9393;stroke:#241c1c;stroke-width:6.00002;stroke-linecap:butt;stroke-linejoin:bevel;stroke-miterlimit:4;stroke-dasharray:none;stroke-dashoffset:0;paint-order:stroke fill markers"
           inkscape:transform-center-x="0.0069477393"
           inkscape:transform-center-y="-39.682946"
           d="m 87.083984,82.376953 c 28.308526,12.58128 53.265136,16.792227 53.263676,-0.0059 -10e-4,-16.798238 -24.95704,-12.580629 -53.263676,0.0059 z"
           transform="matrix(2.1377922,0,0,2.1377922,2512.0586,768.53183)" />
        <path
           id="path5094"
           style="display:inline;fill:#ac9393;stroke:#241c1c;stroke-width:6.00002;stroke-linecap:butt;stroke-linejoin:bevel;stroke-miterlimit:4;stroke-dasharray:none;stroke-dashoffset:0;paint-order:stroke fill markers"
           inkscape:transform-center-x="0.0069477393"
           inkscape:transform-center-y="-39.682946"
           d="M 17.392578,6.8125 C 15.800231,6.9362066 14.124183,7.4834404 12.367188,8.4980469 -2.1801725,16.898662 13.951157,36.403554 39.005859,54.625 36.141055,27.538207 28.98422,5.9119661 17.392578,6.8125 Z"
           transform="matrix(2.1377922,0,0,2.1377922,2512.0586,768.53183)" />
      </g>
    </g>
  </g>
</svg>
