<?xml version="1.0" encoding="UTF-8" standalone="no"?>
<!-- Created with Inkscape (http://www.inkscape.org/) -->

<svg
   width="240"
   height="240"
   viewBox="0 0 240 240"
   version="1.1"
   id="svg5"
   inkscape:version="1.1.1 (3bf5ae0d25, 2021-09-20)"
   sodipodi:docname="Patter_file81.svg"
   xmlns:inkscape="http://www.inkscape.org/namespaces/inkscape"
   xmlns:sodipodi="http://sodipodi.sourceforge.net/DTD/sodipodi-0.dtd"
   xmlns:xlink="http://www.w3.org/1999/xlink"
   xmlns="http://www.w3.org/2000/svg"
   xmlns:svg="http://www.w3.org/2000/svg">
  <sodipodi:namedview
     id="namedview7"
     pagecolor="#ededed"
     bordercolor="#666666"
     borderopacity="1.0"
     inkscape:pageshadow="2"
     inkscape:pageopacity="0"
     inkscape:pagecheckerboard="0"
     inkscape:document-units="px"
     showgrid="false"
     units="px"
     scale-x="1"
     inkscape:showpageshadow="false"
     inkscape:snap-page="true"
     inkscape:snap-nodes="false"
     inkscape:snap-bbox="true"
     inkscape:bbox-paths="true"
     inkscape:bbox-nodes="true"
     inkscape:snap-bbox-midpoints="false"
     inkscape:zoom="2.0513641"
     inkscape:cx="111.87677"
     inkscape:cy="34.367375"
     inkscape:window-width="1920"
     inkscape:window-height="1047"
     inkscape:window-x="0"
     inkscape:window-y="0"
     inkscape:window-maximized="1"
     inkscape:current-layer="layer2"
     inkscape:snap-intersection-paths="true"
     inkscape:snap-smooth-nodes="true"
     inkscape:snap-midpoints="true" />
  <defs
     id="defs2">
    <linearGradient
       inkscape:collect="always"
       id="linearGradient2205">
      <stop
         style="stop-color:#ffffff;stop-opacity:1"
         offset="0"
         id="stop2201" />
      <stop
         style="stop-color:#240024;stop-opacity:1"
         offset="1"
         id="stop2203" />
    </linearGradient>
    <linearGradient
       inkscape:collect="always"
       xlink:href="#linearGradient2205"
       id="linearGradient1278"
       gradientUnits="userSpaceOnUse"
       x1="74.75"
       y1="-74.75"
       x2="0"
       y2="0" />
    <linearGradient
       inkscape:collect="always"
       xlink:href="#linearGradient2205"
       id="linearGradient1280"
       gradientUnits="userSpaceOnUse"
       gradientTransform="matrix(0,0.96199214,-0.96199214,0,-2.1015826,-2.1068907)"
       x1="74.75"
       y1="-74.75"
       x2="0"
       y2="0" />
    <linearGradient
       inkscape:collect="always"
       xlink:href="#linearGradient2205"
       id="linearGradient1282"
       gradientUnits="userSpaceOnUse"
       gradientTransform="matrix(0,1.0925189,-1.0925189,0,-33.955626,-33.955624)"
       x1="74.75"
       y1="-74.75"
       x2="0"
       y2="0" />
    <linearGradient
       inkscape:collect="always"
       xlink:href="#linearGradient2205"
       id="linearGradient1284"
       gradientUnits="userSpaceOnUse"
       gradientTransform="matrix(0,0.53511646,-0.53511646,0,21.505917,21.505919)"
       x1="74.75"
       y1="-74.75"
       x2="0"
       y2="0" />
    <linearGradient
       inkscape:collect="always"
       xlink:href="#linearGradient2205"
       id="linearGradient1296"
       gradientUnits="userSpaceOnUse"
       x1="74.75"
       y1="-74.75"
       x2="0"
       y2="0" />
    <linearGradient
       inkscape:collect="always"
       xlink:href="#linearGradient2205"
       id="linearGradient1298"
       gradientUnits="userSpaceOnUse"
       gradientTransform="matrix(0,0.96199214,-0.96199214,0,-2.1015826,-2.1068907)"
       x1="74.75"
       y1="-74.75"
       x2="0"
       y2="0" />
    <linearGradient
       inkscape:collect="always"
       xlink:href="#linearGradient2205"
       id="linearGradient1300"
       gradientUnits="userSpaceOnUse"
       gradientTransform="matrix(0,1.0925189,-1.0925189,0,-33.955626,-33.955624)"
       x1="74.75"
       y1="-74.75"
       x2="0"
       y2="0" />
    <linearGradient
       inkscape:collect="always"
       xlink:href="#linearGradient2205"
       id="linearGradient1302"
       gradientUnits="userSpaceOnUse"
       gradientTransform="matrix(0,0.53511646,-0.53511646,0,21.505917,21.505919)"
       x1="74.75"
       y1="-74.75"
       x2="0"
       y2="0" />
    <linearGradient
       inkscape:collect="always"
       xlink:href="#linearGradient2205"
       id="linearGradient1324"
       gradientUnits="userSpaceOnUse"
       x1="74.75"
       y1="-74.75"
       x2="0"
       y2="0" />
    <linearGradient
       inkscape:collect="always"
       xlink:href="#linearGradient2205"
       id="linearGradient1326"
       gradientUnits="userSpaceOnUse"
       gradientTransform="matrix(0,0.96199214,-0.96199214,0,-2.1015826,-2.1068907)"
       x1="74.75"
       y1="-74.75"
       x2="0"
       y2="0" />
    <linearGradient
       inkscape:collect="always"
       xlink:href="#linearGradient2205"
       id="linearGradient1328"
       gradientUnits="userSpaceOnUse"
       gradientTransform="matrix(0,1.0925189,-1.0925189,0,-33.955626,-33.955624)"
       x1="74.75"
       y1="-74.75"
       x2="0"
       y2="0" />
    <linearGradient
       inkscape:collect="always"
       xlink:href="#linearGradient2205"
       id="linearGradient1330"
       gradientUnits="userSpaceOnUse"
       gradientTransform="matrix(0,0.53511646,-0.53511646,0,21.505917,21.505919)"
       x1="74.75"
       y1="-74.75"
       x2="0"
       y2="0" />
    <linearGradient
       inkscape:collect="always"
       xlink:href="#linearGradient2205"
       id="linearGradient1332"
       gradientUnits="userSpaceOnUse"
       x1="74.75"
       y1="-74.75"
       x2="0"
       y2="0" />
    <linearGradient
       inkscape:collect="always"
       xlink:href="#linearGradient2205"
       id="linearGradient1334"
       gradientUnits="userSpaceOnUse"
       gradientTransform="matrix(0,0.96199214,-0.96199214,0,-2.1015826,-2.1068907)"
       x1="74.75"
       y1="-74.75"
       x2="0"
       y2="0" />
    <linearGradient
       inkscape:collect="always"
       xlink:href="#linearGradient2205"
       id="linearGradient1336"
       gradientUnits="userSpaceOnUse"
       gradientTransform="matrix(0,1.0925189,-1.0925189,0,-33.955626,-33.955624)"
       x1="74.75"
       y1="-74.75"
       x2="0"
       y2="0" />
    <linearGradient
       inkscape:collect="always"
       xlink:href="#linearGradient2205"
       id="linearGradient1338"
       gradientUnits="userSpaceOnUse"
       gradientTransform="matrix(0,0.53511646,-0.53511646,0,21.505917,21.505919)"
       x1="74.75"
       y1="-74.75"
       x2="0"
       y2="0" />
  </defs>
  <g
     inkscape:label="Layer_I"
     inkscape:groupmode="layer"
     id="layer1"
     sodipodi:insensitive="true">
    <rect
       style="fill:#ff9955;fill-opacity:0;stroke:none;stroke-width:10"
       id="rect846"
       width="3840"
       height="2160"
       x="0"
       y="0"
       rx="0"
       ry="0"
       sodipodi:insensitive="true"
       inkscape:label="Background" />
  </g>
  <g
     inkscape:groupmode="layer"
     id="layer2"
     inkscape:label="Layer_II">
    <g
       id="g1360"
       transform="matrix(1.162822,0,0,1.162822,172.19104,172.19105)"
       style="display:inline;stroke:none;stroke-width:0.859977">
      <g
         id="g1271"
         transform="matrix(0.44750594,0,0,0.44750594,-79.437834,-79.437834)"
         style="stroke:none;stroke-width:1.92171">
        <path
           id="path1256"
           style="display:inline;fill:url(#linearGradient1278);fill-rule:evenodd;stroke:none;stroke-width:1.9217;stroke-linejoin:bevel;stop-color:#000000"
           transform="matrix(0,2.2073459,-2.2073459,0,-144.88091,-144.88091)"
           d="m 99.5,-50 c 0,20.020881 -12.060288,38.070377 -30.55717,45.732037 C 50.445947,3.3936965 29.155115,-0.84131373 14.998214,-14.998215 0.84131322,-29.155116 -3.3936964,-50.445949 4.2679634,-68.942831 11.929623,-87.439713 29.979119,-99.5 50,-99.5 h 49.5 z"
           sodipodi:nodetypes="csssccc" />
        <path
           id="path1258"
           style="display:inline;fill:url(#linearGradient1280);fill-rule:evenodd;stroke:none;stroke-width:2.47324;stroke-linejoin:bevel;stop-color:#000000"
           d="M 45.998025,93.611327 C 26.738095,93.611327 9.3746207,82.009425 2.004164,64.21557 -5.3662924,46.421713 -1.2922457,25.9401 12.326582,12.321273 25.94541,-1.2975545 46.427024,-5.3715996 64.220879,1.9988563 82.014735,9.3693126 93.616636,26.732786 93.616636,45.992716 v 47.618611 z"
           sodipodi:nodetypes="csssccc"
           transform="matrix(1.715109,0,0,1.715109,-85.81273,-85.81273)" />
        <path
           id="path1260"
           style="display:inline;fill:url(#linearGradient1282);fill-rule:evenodd;stroke:none;stroke-width:4.24189;stroke-linejoin:bevel;stop-color:#000000"
           d="m 20.670319,74.750007 c -21.8731908,0 -41.592606,-13.176093 -49.963115,-33.384286 -8.370508,-20.208194 -3.74368,-43.4688303 11.723003,-58.935512 15.4666823,-15.466683 38.72732,-20.09351 58.935513,-11.723002 20.208193,8.370508 33.384285,28.0899236 33.384285,49.963114 v 54.079686 z"
           sodipodi:nodetypes="csssccc" />
        <path
           id="path1262"
           style="fill:url(#linearGradient1284);fill-rule:evenodd;stroke:none;stroke-width:4.24189;stroke-linejoin:bevel;stop-color:#000000"
           d="m 48.261739,74.750006 c -10.713502,0 -20.372085,-6.453659 -24.471965,-16.351644 -4.09988,-9.897987 -1.833657,-21.291061 5.741934,-28.866652 7.575591,-7.575591 18.968666,-9.841814 28.866652,-5.741934 9.897986,4.09988 16.351644,13.758463 16.351644,24.471966 v 26.488264 z"
           sodipodi:nodetypes="csssccc" />
      </g>
      <g
         id="g1294"
         transform="matrix(-0.44750594,0,0,0.44750594,-10.328344,-79.441912)"
         style="stroke:none;stroke-width:1.92171">
        <path
           id="path1286"
           style="display:inline;fill:url(#linearGradient1296);fill-rule:evenodd;stroke:none;stroke-width:1.9217;stroke-linejoin:bevel;stop-color:#000000"
           transform="matrix(0,2.2073459,-2.2073459,0,-144.88091,-144.88091)"
           d="m 99.5,-50 c 0,20.020881 -12.060288,38.070377 -30.55717,45.732037 C 50.445947,3.3936965 29.155115,-0.84131373 14.998214,-14.998215 0.84131322,-29.155116 -3.3936964,-50.445949 4.2679634,-68.942831 11.929623,-87.439713 29.979119,-99.5 50,-99.5 h 49.5 z"
           sodipodi:nodetypes="csssccc" />
        <path
           id="path1288"
           style="display:inline;fill:url(#linearGradient1298);fill-rule:evenodd;stroke:none;stroke-width:2.47324;stroke-linejoin:bevel;stop-color:#000000"
           d="M 45.998025,93.611327 C 26.738095,93.611327 9.3746207,82.009425 2.004164,64.21557 -5.3662924,46.421713 -1.2922457,25.9401 12.326582,12.321273 25.94541,-1.2975545 46.427024,-5.3715996 64.220879,1.9988563 82.014735,9.3693126 93.616636,26.732786 93.616636,45.992716 v 47.618611 z"
           sodipodi:nodetypes="csssccc"
           transform="matrix(1.715109,0,0,1.715109,-85.81273,-85.81273)" />
        <path
           id="path1290"
           style="display:inline;fill:url(#linearGradient1300);fill-rule:evenodd;stroke:none;stroke-width:4.24189;stroke-linejoin:bevel;stop-color:#000000"
           d="m 20.670319,74.750007 c -21.8731908,0 -41.592606,-13.176093 -49.963115,-33.384286 -8.370508,-20.208194 -3.74368,-43.4688303 11.723003,-58.935512 15.4666823,-15.466683 38.72732,-20.09351 58.935513,-11.723002 20.208193,8.370508 33.384285,28.0899236 33.384285,49.963114 v 54.079686 z"
           sodipodi:nodetypes="csssccc" />
        <path
           id="path1292"
           style="fill:url(#linearGradient1302);fill-rule:evenodd;stroke:none;stroke-width:4.24189;stroke-linejoin:bevel;stop-color:#000000"
           d="m 48.261739,74.750006 c -10.713502,0 -20.372085,-6.453659 -24.471965,-16.351644 -4.09988,-9.897987 -1.833657,-21.291061 5.741934,-28.866652 7.575591,-7.575591 18.968666,-9.841814 28.866652,-5.741934 9.897986,4.09988 16.351644,13.758463 16.351644,24.471966 v 26.488264 z"
           sodipodi:nodetypes="csssccc" />
      </g>
      <g
         id="g1312"
         transform="matrix(0.44750594,0,0,-0.44750594,-79.437834,-10.32834)"
         style="stroke:none;stroke-width:1.92171">
        <path
           id="path1304"
           style="display:inline;fill:url(#linearGradient1332);fill-rule:evenodd;stroke:none;stroke-width:1.9217;stroke-linejoin:bevel;stop-color:#000000"
           transform="matrix(0,2.2073459,-2.2073459,0,-144.88091,-144.88091)"
           d="m 99.5,-50 c 0,20.020881 -12.060288,38.070377 -30.55717,45.732037 C 50.445947,3.3936965 29.155115,-0.84131373 14.998214,-14.998215 0.84131322,-29.155116 -3.3936964,-50.445949 4.2679634,-68.942831 11.929623,-87.439713 29.979119,-99.5 50,-99.5 h 49.5 z"
           sodipodi:nodetypes="csssccc" />
        <path
           id="path1306"
           style="display:inline;fill:url(#linearGradient1334);fill-rule:evenodd;stroke:none;stroke-width:2.47324;stroke-linejoin:bevel;stop-color:#000000"
           d="M 45.998025,93.611327 C 26.738095,93.611327 9.3746207,82.009425 2.004164,64.21557 -5.3662924,46.421713 -1.2922457,25.9401 12.326582,12.321273 25.94541,-1.2975545 46.427024,-5.3715996 64.220879,1.9988563 82.014735,9.3693126 93.616636,26.732786 93.616636,45.992716 v 47.618611 z"
           sodipodi:nodetypes="csssccc"
           transform="matrix(1.715109,0,0,1.715109,-85.81273,-85.81273)" />
        <path
           id="path1308"
           style="display:inline;fill:url(#linearGradient1336);fill-rule:evenodd;stroke:none;stroke-width:4.24189;stroke-linejoin:bevel;stop-color:#000000"
           d="m 20.670319,74.750007 c -21.8731908,0 -41.592606,-13.176093 -49.963115,-33.384286 -8.370508,-20.208194 -3.74368,-43.4688303 11.723003,-58.935512 15.4666823,-15.466683 38.72732,-20.09351 58.935513,-11.723002 20.208193,8.370508 33.384285,28.0899236 33.384285,49.963114 v 54.079686 z"
           sodipodi:nodetypes="csssccc" />
        <path
           id="path1310"
           style="fill:url(#linearGradient1338);fill-rule:evenodd;stroke:none;stroke-width:4.24189;stroke-linejoin:bevel;stop-color:#000000"
           d="m 48.261739,74.750006 c -10.713502,0 -20.372085,-6.453659 -24.471965,-16.351644 -4.09988,-9.897987 -1.833657,-21.291061 5.741934,-28.866652 7.575591,-7.575591 18.968666,-9.841814 28.866652,-5.741934 9.897986,4.09988 16.351644,13.758463 16.351644,24.471966 v 26.488264 z"
           sodipodi:nodetypes="csssccc" />
      </g>
      <g
         id="g1322"
         transform="matrix(-0.44750594,0,0,-0.44750594,-10.328344,-10.32427)"
         style="stroke:none;stroke-width:1.92171">
        <path
           id="path1314"
           style="display:inline;fill:url(#linearGradient1324);fill-rule:evenodd;stroke:none;stroke-width:1.9217;stroke-linejoin:bevel;stop-color:#000000"
           transform="matrix(0,2.2073459,-2.2073459,0,-144.88091,-144.88091)"
           d="m 99.5,-50 c 0,20.020881 -12.060288,38.070377 -30.55717,45.732037 C 50.445947,3.3936965 29.155115,-0.84131373 14.998214,-14.998215 0.84131322,-29.155116 -3.3936964,-50.445949 4.2679634,-68.942831 11.929623,-87.439713 29.979119,-99.5 50,-99.5 h 49.5 z"
           sodipodi:nodetypes="csssccc" />
        <path
           id="path1316"
           style="display:inline;fill:url(#linearGradient1326);fill-rule:evenodd;stroke:none;stroke-width:2.47324;stroke-linejoin:bevel;stop-color:#000000"
           d="M 45.998025,93.611327 C 26.738095,93.611327 9.3746207,82.009425 2.004164,64.21557 -5.3662924,46.421713 -1.2922457,25.9401 12.326582,12.321273 25.94541,-1.2975545 46.427024,-5.3715996 64.220879,1.9988563 82.014735,9.3693126 93.616636,26.732786 93.616636,45.992716 v 47.618611 z"
           sodipodi:nodetypes="csssccc"
           transform="matrix(1.715109,0,0,1.715109,-85.81273,-85.81273)" />
        <path
           id="path1318"
           style="display:inline;fill:url(#linearGradient1328);fill-rule:evenodd;stroke:none;stroke-width:4.24189;stroke-linejoin:bevel;stop-color:#000000"
           d="m 20.670319,74.750007 c -21.8731908,0 -41.592606,-13.176093 -49.963115,-33.384286 -8.370508,-20.208194 -3.74368,-43.4688303 11.723003,-58.935512 15.4666823,-15.466683 38.72732,-20.09351 58.935513,-11.723002 20.208193,8.370508 33.384285,28.0899236 33.384285,49.963114 v 54.079686 z"
           sodipodi:nodetypes="csssccc" />
        <path
           id="path1320"
           style="fill:url(#linearGradient1330);fill-rule:evenodd;stroke:none;stroke-width:4.24189;stroke-linejoin:bevel;stop-color:#000000"
           d="m 48.261739,74.750006 c -10.713502,0 -20.372085,-6.453659 -24.471965,-16.351644 -4.09988,-9.897987 -1.833657,-21.291061 5.741934,-28.866652 7.575591,-7.575591 18.968666,-9.841814 28.866652,-5.741934 9.897986,4.09988 16.351644,13.758463 16.351644,24.471966 v 26.488264 z"
           sodipodi:nodetypes="csssccc" />
      </g>
    </g>
  </g>
</svg>
